<?xml version="1.0" encoding="UTF-8" standalone="no"?>
<!-- Created with PhysiCell (http://PhysiCell.MathCancer.org/) -->
<svg 
 xmlns:dc="http://purl.org/dc/elements/1.1/" 
 xmlns:cc="http://creativecommons.org/ns#" 
 xmlns:rdf="http://www.w3.org/1999/02/22-rdf-syntax-ns#" 
 xmlns:svg="http://www.w3.org/2000/svg" 
 xmlns="http://www.w3.org/2000/svg" 
 version="1.1" 
 width="1000" 
 height="1070" 
 id="svg2">
  <rect x="0" y="0" width="1000" height="1070" stroke-width="2" stroke="white" fill="white"/>
  <text x="12.5" y="30"
   font-family="Arial" font-size="25" fill="black" >
   Current time: 0 days, 0 hours, and 0.00 minutes, z = 0.00 &#956;m
  </text>
  <text x="12.5" y="57.5"
   font-family="Arial" font-size="23.75" fill="black" >
   120 agents
  </text>
 <g id="tissue" 
    transform="translate(0,1070) scale(1,-1)">
  <g id="ECM">
  </g>
  <g id="cells">
   <g id="cell0">
  <circle cx="548.814" cy="592.845" r="8.41271" stroke-width="0.5" stroke="black" fill="grey"/>
  <circle cx="548.814" cy="592.845" r="5.05167" stroke-width="0.5" stroke="grey" fill="grey"/>
   </g>
   <g id="cell1">
  <circle cx="844.266" cy="602.763" r="8.41271" stroke-width="0.5" stroke="black" fill="grey"/>
  <circle cx="844.266" cy="602.763" r="5.05167" stroke-width="0.5" stroke="grey" fill="grey"/>
   </g>
   <g id="cell2">
  <circle cx="544.883" cy="847.252" r="8.41271" stroke-width="0.5" stroke="black" fill="grey"/>
  <circle cx="544.883" cy="847.252" r="5.05167" stroke-width="0.5" stroke="grey" fill="grey"/>
   </g>
   <g id="cell3">
  <circle cx="623.564" cy="645.894" r="8.41271" stroke-width="0.5" stroke="black" fill="grey"/>
  <circle cx="623.564" cy="645.894" r="5.05167" stroke-width="0.5" stroke="grey" fill="grey"/>
   </g>
   <g id="cell4">
  <circle cx="437.587" cy="297.535" r="8.41271" stroke-width="0.5" stroke="black" fill="grey"/>
  <circle cx="437.587" cy="297.535" r="5.05167" stroke-width="0.5" stroke="grey" fill="grey"/>
   </g>
   <g id="cell5">
  <circle cx="56.713" cy="963.663" r="8.41271" stroke-width="0.5" stroke="black" fill="grey"/>
  <circle cx="56.713" cy="963.663" r="5.05167" stroke-width="0.5" stroke="grey" fill="grey"/>
   </g>
   <g id="cell6">
  <circle cx="383.442" cy="477.665" r="8.41271" stroke-width="0.5" stroke="black" fill="grey"/>
  <circle cx="383.442" cy="477.665" r="5.05167" stroke-width="0.5" stroke="grey" fill="grey"/>
   </g>
   <g id="cell7">
  <circle cx="812.169" cy="528.895" r="8.41271" stroke-width="0.5" stroke="black" fill="grey"/>
  <circle cx="812.169" cy="528.895" r="5.05167" stroke-width="0.5" stroke="grey" fill="grey"/>
   </g>
   <g id="cell8">
  <circle cx="568.045" cy="392.785" r="8.41271" stroke-width="0.5" stroke="black" fill="grey"/>
  <circle cx="568.045" cy="392.785" r="5.05167" stroke-width="0.5" stroke="grey" fill="grey"/>
   </g>
   <g id="cell9">
  <circle cx="836.079" cy="71.0361" r="8.41271" stroke-width="0.5" stroke="black" fill="grey"/>
  <circle cx="836.079" cy="71.0361" r="5.05167" stroke-width="0.5" stroke="grey" fill="grey"/>
   </g>
   <g id="cell10">
  <circle cx="87.1293" cy="648.172" r="8.41271" stroke-width="0.5" stroke="black" fill="grey"/>
  <circle cx="87.1293" cy="648.172" r="5.05167" stroke-width="0.5" stroke="grey" fill="grey"/>
   </g>
   <g id="cell11">
  <circle cx="368.242" cy="832.62" r="8.41271" stroke-width="0.5" stroke="black" fill="grey"/>
  <circle cx="368.242" cy="832.62" r="5.05167" stroke-width="0.5" stroke="grey" fill="grey"/>
   </g>
   <g id="cell12">
  <circle cx="778.157" cy="140.351" r="8.41271" stroke-width="0.5" stroke="black" fill="grey"/>
  <circle cx="778.157" cy="140.351" r="5.05167" stroke-width="0.5" stroke="grey" fill="grey"/>
   </g>
   <g id="cell13">
  <circle cx="870.087" cy="978.618" r="8.41271" stroke-width="0.5" stroke="black" fill="grey"/>
  <circle cx="870.087" cy="978.618" r="5.05167" stroke-width="0.5" stroke="grey" fill="grey"/>
   </g>
   <g id="cell14">
  <circle cx="799.159" cy="800.911" r="8.41271" stroke-width="0.5" stroke="black" fill="grey"/>
  <circle cx="799.159" cy="800.911" r="5.05167" stroke-width="0.5" stroke="grey" fill="grey"/>
   </g>
   <g id="cell15">
  <circle cx="520.477" cy="780.529" r="8.41271" stroke-width="0.5" stroke="black" fill="grey"/>
  <circle cx="520.477" cy="780.529" r="5.05167" stroke-width="0.5" stroke="grey" fill="grey"/>
   </g>
   <g id="cell16">
  <circle cx="118.274" cy="720.633" r="8.41271" stroke-width="0.5" stroke="black" fill="grey"/>
  <circle cx="118.274" cy="720.633" r="5.05167" stroke-width="0.5" stroke="grey" fill="grey"/>
   </g>
   <g id="cell17">
  <circle cx="582.02" cy="143.353" r="8.41271" stroke-width="0.5" stroke="black" fill="grey"/>
  <circle cx="582.02" cy="143.353" r="5.05167" stroke-width="0.5" stroke="grey" fill="grey"/>
   </g>
   <g id="cell18">
  <circle cx="944.669" cy="758.616" r="8.41271" stroke-width="0.5" stroke="black" fill="grey"/>
  <circle cx="944.669" cy="758.616" r="5.05167" stroke-width="0.5" stroke="grey" fill="grey"/>
   </g>
   <g id="cell19">
  <circle cx="105.908" cy="414.662" r="8.41271" stroke-width="0.5" stroke="black" fill="grey"/>
  <circle cx="105.908" cy="414.662" r="5.05167" stroke-width="0.5" stroke="grey" fill="grey"/>
   </g>
   <g id="cell20">
  <circle cx="264.556" cy="186.332" r="8.41271" stroke-width="0.5" stroke="black" fill="grey"/>
  <circle cx="264.556" cy="186.332" r="5.05167" stroke-width="0.5" stroke="grey" fill="grey"/>
   </g>
   <g id="cell21">
  <circle cx="736.918" cy="456.15" r="8.41271" stroke-width="0.5" stroke="black" fill="grey"/>
  <circle cx="736.918" cy="456.15" r="5.05167" stroke-width="0.5" stroke="grey" fill="grey"/>
   </g>
   <g id="cell22">
  <circle cx="568.434" cy="135.218" r="8.41271" stroke-width="0.5" stroke="black" fill="grey"/>
  <circle cx="568.434" cy="135.218" r="5.05167" stroke-width="0.5" stroke="grey" fill="grey"/>
   </g>
   <g id="cell23">
  <circle cx="324.141" cy="617.636" r="8.41271" stroke-width="0.5" stroke="black" fill="grey"/>
  <circle cx="324.141" cy="617.636" r="5.05167" stroke-width="0.5" stroke="grey" fill="grey"/>
   </g>
   <g id="cell24">
  <circle cx="612.096" cy="222.321" r="8.41271" stroke-width="0.5" stroke="black" fill="grey"/>
  <circle cx="612.096" cy="222.321" r="5.05167" stroke-width="0.5" stroke="grey" fill="grey"/>
   </g>
   <g id="cell25">
  <circle cx="386.489" cy="943.748" r="8.41271" stroke-width="0.5" stroke="black" fill="grey"/>
  <circle cx="386.489" cy="943.748" r="5.05167" stroke-width="0.5" stroke="grey" fill="grey"/>
   </g>
   <g id="cell26">
  <circle cx="681.82" cy="449.95" r="8.41271" stroke-width="0.5" stroke="black" fill="grey"/>
  <circle cx="681.82" cy="449.95" r="5.05167" stroke-width="0.5" stroke="grey" fill="grey"/>
   </g>
   <g id="cell27">
  <circle cx="613.063" cy="437.032" r="8.41271" stroke-width="0.5" stroke="black" fill="grey"/>
  <circle cx="613.063" cy="437.032" r="5.05167" stroke-width="0.5" stroke="grey" fill="grey"/>
   </g>
   <g id="cell28">
  <circle cx="697.631" cy="99.2804" r="8.41271" stroke-width="0.5" stroke="black" fill="grey"/>
  <circle cx="697.631" cy="99.2804" r="5.05167" stroke-width="0.5" stroke="grey" fill="grey"/>
   </g>
   <g id="cell29">
  <circle cx="969.809" cy="666.767" r="8.41271" stroke-width="0.5" stroke="black" fill="grey"/>
  <circle cx="969.809" cy="666.767" r="5.05167" stroke-width="0.5" stroke="grey" fill="grey"/>
   </g>
   <g id="cell30">
  <circle cx="670.638" cy="170.91" r="8.41271" stroke-width="0.5" stroke="black" fill="grey"/>
  <circle cx="670.638" cy="170.91" r="5.05167" stroke-width="0.5" stroke="grey" fill="grey"/>
   </g>
   <g id="cell31">
  <circle cx="358.152" cy="128.926" r="8.41271" stroke-width="0.5" stroke="black" fill="grey"/>
  <circle cx="358.152" cy="128.926" r="5.05167" stroke-width="0.5" stroke="grey" fill="grey"/>
   </g>
   <g id="cell32">
  <circle cx="315.428" cy="607.831" r="8.41271" stroke-width="0.5" stroke="black" fill="grey"/>
  <circle cx="315.428" cy="607.831" r="5.05167" stroke-width="0.5" stroke="grey" fill="grey"/>
   </g>
   <g id="cell33">
  <circle cx="325.047" cy="570.197" r="8.41271" stroke-width="0.5" stroke="black" fill="grey"/>
  <circle cx="325.047" cy="570.197" r="5.05167" stroke-width="0.5" stroke="grey" fill="grey"/>
   </g>
   <g id="cell34">
  <circle cx="438.602" cy="634.274" r="8.41271" stroke-width="0.5" stroke="black" fill="grey"/>
  <circle cx="438.602" cy="634.274" r="5.05167" stroke-width="0.5" stroke="grey" fill="grey"/>
   </g>
   <g id="cell35">
  <circle cx="958.949" cy="102.045" r="8.41271" stroke-width="0.5" stroke="black" fill="grey"/>
  <circle cx="958.949" cy="102.045" r="5.05167" stroke-width="0.5" stroke="grey" fill="grey"/>
   </g>
   <g id="cell36">
  <circle cx="208.877" cy="635.059" r="8.41271" stroke-width="0.5" stroke="black" fill="grey"/>
  <circle cx="208.877" cy="635.059" r="5.05167" stroke-width="0.5" stroke="grey" fill="grey"/>
   </g>
   <g id="cell37">
  <circle cx="995.3" cy="653.108" r="8.41271" stroke-width="0.5" stroke="black" fill="grey"/>
  <circle cx="995.3" cy="653.108" r="5.05167" stroke-width="0.5" stroke="grey" fill="grey"/>
   </g>
   <g id="cell38">
  <circle cx="253.292" cy="414.369" r="8.41271" stroke-width="0.5" stroke="black" fill="grey"/>
  <circle cx="253.292" cy="414.369" r="5.05167" stroke-width="0.5" stroke="grey" fill="grey"/>
   </g>
   <g id="cell39">
  <circle cx="474.698" cy="244.426" r="8.41271" stroke-width="0.5" stroke="black" fill="grey"/>
  <circle cx="474.698" cy="244.426" r="5.05167" stroke-width="0.5" stroke="grey" fill="grey"/>
   </g>
   <g id="cell40">
  <circle cx="158.97" cy="338.008" r="8.41271" stroke-width="0.5" stroke="black" fill="red"/>
  <circle cx="158.97" cy="338.008" r="5.05167" stroke-width="0.5" stroke="red" fill="red"/>
   </g>
   <g id="cell41">
  <circle cx="674.752" cy="656.33" r="8.41271" stroke-width="0.5" stroke="black" fill="red"/>
  <circle cx="674.752" cy="656.33" r="5.05167" stroke-width="0.5" stroke="red" fill="red"/>
   </g>
   <g id="cell42">
  <circle cx="138.183" cy="778.345" r="8.41271" stroke-width="0.5" stroke="black" fill="red"/>
  <circle cx="138.183" cy="778.345" r="5.05167" stroke-width="0.5" stroke="red" fill="red"/>
   </g>
   <g id="cell43">
  <circle cx="949.571" cy="368.725" r="8.41271" stroke-width="0.5" stroke="black" fill="red"/>
  <circle cx="949.571" cy="368.725" r="5.05167" stroke-width="0.5" stroke="red" fill="red"/>
   </g>
   <g id="cell44">
  <circle cx="820.993" cy="13.5716" r="8.41271" stroke-width="0.5" stroke="black" fill="red"/>
  <circle cx="820.993" cy="13.5716" r="5.05167" stroke-width="0.5" stroke="red" fill="red"/>
   </g>
   <g id="cell45">
  <circle cx="622.846" cy="837.945" r="8.41271" stroke-width="0.5" stroke="black" fill="red"/>
  <circle cx="622.846" cy="837.945" r="5.05167" stroke-width="0.5" stroke="red" fill="red"/>
   </g>
   <g id="cell46">
  <circle cx="96.0984" cy="971.945" r="8.41271" stroke-width="0.5" stroke="black" fill="red"/>
  <circle cx="96.0984" cy="971.945" r="5.05167" stroke-width="0.5" stroke="red" fill="red"/>
   </g>
   <g id="cell47">
  <circle cx="878.193" cy="468.651" r="8.41271" stroke-width="0.5" stroke="black" fill="red"/>
  <circle cx="878.193" cy="468.651" r="5.05167" stroke-width="0.5" stroke="red" fill="red"/>
   </g>
   <g id="cell48">
  <circle cx="976.761" cy="55.7147" r="8.41271" stroke-width="0.5" stroke="black" fill="red"/>
  <circle cx="976.761" cy="55.7147" r="5.05167" stroke-width="0.5" stroke="red" fill="red"/>
   </g>
   <g id="cell49">
  <circle cx="451.159" cy="739.264" r="8.41271" stroke-width="0.5" stroke="black" fill="red"/>
  <circle cx="451.159" cy="739.264" r="5.05167" stroke-width="0.5" stroke="red" fill="red"/>
   </g>
   <g id="cell50">
  <circle cx="39.1878" cy="441.711" r="8.41271" stroke-width="0.5" stroke="black" fill="red"/>
  <circle cx="39.1878" cy="441.711" r="5.05167" stroke-width="0.5" stroke="red" fill="red"/>
   </g>
   <g id="cell51">
  <circle cx="979.587" cy="120.197" r="8.41271" stroke-width="0.5" stroke="black" fill="red"/>
  <circle cx="979.587" cy="120.197" r="5.05167" stroke-width="0.5" stroke="red" fill="red"/>
   </g>
   <g id="cell52">
  <circle cx="296.14" cy="480.894" r="8.41271" stroke-width="0.5" stroke="black" fill="red"/>
  <circle cx="296.14" cy="480.894" r="5.05167" stroke-width="0.5" stroke="red" fill="red"/>
   </g>
   <g id="cell53">
  <circle cx="688.661" cy="317.983" r="8.41271" stroke-width="0.5" stroke="black" fill="red"/>
  <circle cx="688.661" cy="317.983" r="5.05167" stroke-width="0.5" stroke="red" fill="red"/>
   </g>
   <g id="cell54">
  <circle cx="414.263" cy="918.235" r="8.41271" stroke-width="0.5" stroke="black" fill="red"/>
  <circle cx="414.263" cy="918.235" r="5.05167" stroke-width="0.5" stroke="red" fill="red"/>
   </g>
   <g id="cell55">
  <circle cx="216.822" cy="692.472" r="8.41271" stroke-width="0.5" stroke="black" fill="red"/>
  <circle cx="216.822" cy="692.472" r="5.05167" stroke-width="0.5" stroke="red" fill="red"/>
   </g>
   <g id="cell56">
  <circle cx="566.601" cy="865.103" r="8.41271" stroke-width="0.5" stroke="black" fill="red"/>
  <circle cx="566.601" cy="865.103" r="5.05167" stroke-width="0.5" stroke="red" fill="red"/>
   </g>
   <g id="cell57">
  <circle cx="508.969" cy="523.248" r="8.41271" stroke-width="0.5" stroke="black" fill="red"/>
  <circle cx="508.969" cy="523.248" r="5.05167" stroke-width="0.5" stroke="red" fill="red"/>
   </g>
   <g id="cell58">
  <circle cx="93.9405" cy="921.158" r="8.41271" stroke-width="0.5" stroke="black" fill="red"/>
  <circle cx="93.9405" cy="921.158" r="5.05167" stroke-width="0.5" stroke="red" fill="red"/>
   </g>
   <g id="cell59">
  <circle cx="83.1125" cy="929.296" r="8.41271" stroke-width="0.5" stroke="black" fill="red"/>
  <circle cx="83.1125" cy="929.296" r="5.05167" stroke-width="0.5" stroke="red" fill="red"/>
   </g>
   <g id="cell60">
  <circle cx="318.569" cy="9.3567" r="8.41271" stroke-width="0.5" stroke="black" fill="red"/>
  <circle cx="318.569" cy="9.3567" r="5.05167" stroke-width="0.5" stroke="red" fill="red"/>
   </g>
   <g id="cell61">
  <circle cx="842.342" cy="131.798" r="8.41271" stroke-width="0.5" stroke="black" fill="red"/>
  <circle cx="842.342" cy="131.798" r="5.05167" stroke-width="0.5" stroke="red" fill="red"/>
   </g>
   <g id="cell62">
  <circle cx="716.327" cy="841.386" r="8.41271" stroke-width="0.5" stroke="black" fill="red"/>
  <circle cx="716.327" cy="841.386" r="5.05167" stroke-width="0.5" stroke="red" fill="red"/>
   </g>
   <g id="cell63">
  <circle cx="264.73" cy="183.191" r="8.41271" stroke-width="0.5" stroke="black" fill="red"/>
  <circle cx="264.73" cy="183.191" r="5.05167" stroke-width="0.5" stroke="red" fill="red"/>
   </g>
   <g id="cell64">
  <circle cx="586.513" cy="552.821" r="8.41271" stroke-width="0.5" stroke="black" fill="red"/>
  <circle cx="586.513" cy="552.821" r="5.05167" stroke-width="0.5" stroke="red" fill="red"/>
   </g>
   <g id="cell65">
  <circle cx="164.94" cy="828.94" r="8.41271" stroke-width="0.5" stroke="black" fill="red"/>
  <circle cx="164.94" cy="828.94" r="5.05167" stroke-width="0.5" stroke="red" fill="red"/>
   </g>
   <g id="cell66">
  <circle cx="4.69548" cy="146.442" r="8.41271" stroke-width="0.5" stroke="black" fill="red"/>
  <circle cx="4.69548" cy="146.442" r="5.05167" stroke-width="0.5" stroke="red" fill="red"/>
   </g>
   <g id="cell67">
  <circle cx="569.618" cy="270.008" r="8.41271" stroke-width="0.5" stroke="black" fill="red"/>
  <circle cx="569.618" cy="270.008" r="5.05167" stroke-width="0.5" stroke="red" fill="red"/>
   </g>
   <g id="cell68">
  <circle cx="735.194" cy="288.476" r="8.41271" stroke-width="0.5" stroke="black" fill="red"/>
  <circle cx="735.194" cy="288.476" r="5.05167" stroke-width="0.5" stroke="red" fill="red"/>
   </g>
   <g id="cell69">
  <circle cx="433.288" cy="248.753" r="8.41271" stroke-width="0.5" stroke="black" fill="red"/>
  <circle cx="433.288" cy="248.753" r="5.05167" stroke-width="0.5" stroke="red" fill="red"/>
   </g>
   <g id="cell70">
  <circle cx="576.157" cy="396.098" r="8.41271" stroke-width="0.5" stroke="black" fill="red"/>
  <circle cx="576.157" cy="396.098" r="5.05167" stroke-width="0.5" stroke="red" fill="red"/>
   </g>
   <g id="cell71">
  <circle cx="896.038" cy="572.252" r="8.41271" stroke-width="0.5" stroke="black" fill="red"/>
  <circle cx="896.038" cy="572.252" r="5.05167" stroke-width="0.5" stroke="red" fill="red"/>
   </g>
   <g id="cell72">
  <circle cx="223.082" cy="891.554" r="8.41271" stroke-width="0.5" stroke="black" fill="red"/>
  <circle cx="223.082" cy="891.554" r="5.05167" stroke-width="0.5" stroke="red" fill="red"/>
   </g>
   <g id="cell73">
  <circle cx="680.056" cy="447.125" r="8.41271" stroke-width="0.5" stroke="black" fill="red"/>
  <circle cx="680.056" cy="447.125" r="5.05167" stroke-width="0.5" stroke="red" fill="red"/>
   </g>
   <g id="cell74">
  <circle cx="846.409" cy="978.571" r="8.41271" stroke-width="0.5" stroke="black" fill="red"/>
  <circle cx="846.409" cy="978.571" r="5.05167" stroke-width="0.5" stroke="red" fill="red"/>
   </g>
   <g id="cell75">
  <circle cx="116.202" cy="297.437" r="8.41271" stroke-width="0.5" stroke="black" fill="red"/>
  <circle cx="116.202" cy="297.437" r="5.05167" stroke-width="0.5" stroke="red" fill="red"/>
   </g>
   <g id="cell76">
  <circle cx="813.798" cy="411.82" r="8.41271" stroke-width="0.5" stroke="black" fill="red"/>
  <circle cx="813.798" cy="411.82" r="5.05167" stroke-width="0.5" stroke="red" fill="red"/>
   </g>
   <g id="cell77">
  <circle cx="675.439" cy="881.103" r="8.41271" stroke-width="0.5" stroke="black" fill="red"/>
  <circle cx="675.439" cy="881.103" r="5.05167" stroke-width="0.5" stroke="red" fill="red"/>
   </g>
   <g id="cell78">
  <circle cx="581.273" cy="313.218" r="8.41271" stroke-width="0.5" stroke="black" fill="red"/>
  <circle cx="581.273" cy="313.218" r="5.05167" stroke-width="0.5" stroke="red" fill="red"/>
   </g>
   <g id="cell79">
  <circle cx="965.416" cy="692.532" r="8.41271" stroke-width="0.5" stroke="black" fill="red"/>
  <circle cx="965.416" cy="692.532" r="5.05167" stroke-width="0.5" stroke="red" fill="red"/>
   </g>
   <g id="cell80">
  <circle cx="725.254" cy="659.668" r="8.41271" stroke-width="0.5" stroke="black" fill="yellow"/>
  <circle cx="725.254" cy="659.668" r="5.05167" stroke-width="0.5" stroke="yellow" fill="yellow"/>
   </g>
   <g id="cell81">
  <circle cx="533.206" cy="956.084" r="8.41271" stroke-width="0.5" stroke="black" fill="yellow"/>
  <circle cx="533.206" cy="956.084" r="5.05167" stroke-width="0.5" stroke="yellow" fill="yellow"/>
   </g>
   <g id="cell82">
  <circle cx="643.99" cy="394.869" r="8.41271" stroke-width="0.5" stroke="black" fill="yellow"/>
  <circle cx="643.99" cy="394.869" r="5.05167" stroke-width="0.5" stroke="yellow" fill="yellow"/>
   </g>
   <g id="cell83">
  <circle cx="618.809" cy="606.393" r="8.41271" stroke-width="0.5" stroke="black" fill="yellow"/>
  <circle cx="618.809" cy="606.393" r="5.05167" stroke-width="0.5" stroke="yellow" fill="yellow"/>
   </g>
   <g id="cell84">
  <circle cx="19.1932" cy="470.132" r="8.41271" stroke-width="0.5" stroke="black" fill="yellow"/>
  <circle cx="19.1932" cy="470.132" r="5.05167" stroke-width="0.5" stroke="yellow" fill="yellow"/>
   </g>
   <g id="cell85">
  <circle cx="716.075" cy="660.174" r="8.41271" stroke-width="0.5" stroke="black" fill="yellow"/>
  <circle cx="716.075" cy="660.174" r="5.05167" stroke-width="0.5" stroke="yellow" fill="yellow"/>
   </g>
   <g id="cell86">
  <circle cx="290.078" cy="383.462" r="8.41271" stroke-width="0.5" stroke="black" fill="yellow"/>
  <circle cx="290.078" cy="383.462" r="5.05167" stroke-width="0.5" stroke="yellow" fill="yellow"/>
   </g>
   <g id="cell87">
  <circle cx="749.17" cy="428.769" r="8.41271" stroke-width="0.5" stroke="black" fill="yellow"/>
  <circle cx="749.17" cy="428.769" r="5.05167" stroke-width="0.5" stroke="yellow" fill="yellow"/>
   </g>
   <g id="cell88">
  <circle cx="135.474" cy="102.863" r="8.41271" stroke-width="0.5" stroke="black" fill="yellow"/>
  <circle cx="135.474" cy="102.863" r="5.05167" stroke-width="0.5" stroke="yellow" fill="yellow"/>
   </g>
   <g id="cell89">
  <circle cx="92.3739" cy="569.965" r="8.41271" stroke-width="0.5" stroke="black" fill="yellow"/>
  <circle cx="92.3739" cy="569.965" r="5.05167" stroke-width="0.5" stroke="yellow" fill="yellow"/>
   </g>
   <g id="cell90">
  <circle cx="590.873" cy="551.816" r="8.41271" stroke-width="0.5" stroke="black" fill="yellow"/>
  <circle cx="590.873" cy="551.816" r="5.05167" stroke-width="0.5" stroke="yellow" fill="yellow"/>
   </g>
   <g id="cell91">
  <circle cx="33.6251" cy="653.201" r="8.41271" stroke-width="0.5" stroke="black" fill="yellow"/>
  <circle cx="33.6251" cy="653.201" r="5.05167" stroke-width="0.5" stroke="yellow" fill="yellow"/>
   </g>
   <g id="cell92">
  <circle cx="652.103" cy="320.997" r="8.41271" stroke-width="0.5" stroke="black" fill="yellow"/>
  <circle cx="652.103" cy="320.997" r="5.05167" stroke-width="0.5" stroke="yellow" fill="yellow"/>
   </g>
   <g id="cell93">
  <circle cx="221.263" cy="896.547" r="8.41271" stroke-width="0.5" stroke="black" fill="yellow"/>
  <circle cx="221.263" cy="896.547" r="5.05167" stroke-width="0.5" stroke="yellow" fill="yellow"/>
   </g>
   <g id="cell94">
  <circle cx="367.562" cy="97.2599" r="8.41271" stroke-width="0.5" stroke="black" fill="yellow"/>
  <circle cx="367.562" cy="97.2599" r="5.05167" stroke-width="0.5" stroke="yellow" fill="yellow"/>
   </g>
   <g id="cell95">
  <circle cx="984.042" cy="891.923" r="8.41271" stroke-width="0.5" stroke="black" fill="yellow"/>
  <circle cx="984.042" cy="891.923" r="5.05167" stroke-width="0.5" stroke="yellow" fill="yellow"/>
   </g>
   <g id="cell96">
  <circle cx="806.194" cy="537.023" r="8.41271" stroke-width="0.5" stroke="black" fill="yellow"/>
  <circle cx="806.194" cy="537.023" r="5.05167" stroke-width="0.5" stroke="yellow" fill="yellow"/>
   </g>
   <g id="cell97">
  <circle cx="447.926" cy="100.227" r="8.41271" stroke-width="0.5" stroke="black" fill="yellow"/>
  <circle cx="447.926" cy="100.227" r="5.05167" stroke-width="0.5" stroke="yellow" fill="yellow"/>
   </g>
   <g id="cell98">
  <circle cx="919.483" cy="352.312" r="8.41271" stroke-width="0.5" stroke="black" fill="yellow"/>
  <circle cx="919.483" cy="352.312" r="5.05167" stroke-width="0.5" stroke="yellow" fill="yellow"/>
   </g>
   <g id="cell99">
  <circle cx="469.249" cy="998.847" r="8.41271" stroke-width="0.5" stroke="black" fill="yellow"/>
  <circle cx="469.249" cy="998.847" r="5.05167" stroke-width="0.5" stroke="yellow" fill="yellow"/>
   </g>
   <g id="cell100">
  <circle cx="149.448" cy="904.648" r="8.41271" stroke-width="0.5" stroke="black" fill="yellow"/>
  <circle cx="149.448" cy="904.648" r="5.05167" stroke-width="0.5" stroke="yellow" fill="yellow"/>
   </g>
   <g id="cell101">
  <circle cx="37.5594" cy="162.493" r="8.41271" stroke-width="0.5" stroke="black" fill="yellow"/>
  <circle cx="37.5594" cy="162.493" r="5.05167" stroke-width="0.5" stroke="yellow" fill="yellow"/>
   </g>
   <g id="cell102">
  <circle cx="615.56" cy="166.848" r="8.41271" stroke-width="0.5" stroke="black" fill="yellow"/>
  <circle cx="615.56" cy="166.848" r="5.05167" stroke-width="0.5" stroke="yellow" fill="yellow"/>
   </g>
   <g id="cell103">
  <circle cx="779.051" cy="848.008" r="8.41271" stroke-width="0.5" stroke="black" fill="yellow"/>
  <circle cx="779.051" cy="848.008" r="5.05167" stroke-width="0.5" stroke="yellow" fill="yellow"/>
   </g>
   <g id="cell104">
  <circle cx="807.319" cy="411.397" r="8.41271" stroke-width="0.5" stroke="black" fill="yellow"/>
  <circle cx="807.319" cy="411.397" r="5.05167" stroke-width="0.5" stroke="yellow" fill="yellow"/>
   </g>
   <g id="cell105">
  <circle cx="139.973" cy="407.183" r="8.41271" stroke-width="0.5" stroke="black" fill="yellow"/>
  <circle cx="139.973" cy="407.183" r="5.05167" stroke-width="0.5" stroke="yellow" fill="yellow"/>
   </g>
   <g id="cell106">
  <circle cx="69.167" cy="982.575" r="8.41271" stroke-width="0.5" stroke="black" fill="yellow"/>
  <circle cx="69.167" cy="982.575" r="5.05167" stroke-width="0.5" stroke="yellow" fill="yellow"/>
   </g>
   <g id="cell107">
  <circle cx="373.291" cy="453.543" r="8.41271" stroke-width="0.5" stroke="black" fill="yellow"/>
  <circle cx="373.291" cy="453.543" r="5.05167" stroke-width="0.5" stroke="yellow" fill="yellow"/>
   </g>
   <g id="cell108">
  <circle cx="722.056" cy="50.5881" r="8.41271" stroke-width="0.5" stroke="black" fill="yellow"/>
  <circle cx="722.056" cy="50.5881" r="5.05167" stroke-width="0.5" stroke="yellow" fill="yellow"/>
   </g>
   <g id="cell109">
  <circle cx="365.496" cy="975.522" r="8.41271" stroke-width="0.5" stroke="black" fill="yellow"/>
  <circle cx="365.496" cy="975.522" r="5.05167" stroke-width="0.5" stroke="yellow" fill="yellow"/>
   </g>
   <g id="cell110">
  <circle cx="855.803" cy="230.742" r="8.41271" stroke-width="0.5" stroke="black" fill="yellow"/>
  <circle cx="855.803" cy="230.742" r="5.05167" stroke-width="0.5" stroke="yellow" fill="yellow"/>
   </g>
   <g id="cell111">
  <circle cx="764.912" cy="359.978" r="8.41271" stroke-width="0.5" stroke="black" fill="yellow"/>
  <circle cx="764.912" cy="359.978" r="5.05167" stroke-width="0.5" stroke="yellow" fill="yellow"/>
   </g>
   <g id="cell112">
  <circle cx="729.991" cy="749.999" r="8.41271" stroke-width="0.5" stroke="black" fill="yellow"/>
  <circle cx="729.991" cy="749.999" r="5.05167" stroke-width="0.5" stroke="yellow" fill="yellow"/>
   </g>
   <g id="cell113">
  <circle cx="339.404" cy="521.037" r="8.41271" stroke-width="0.5" stroke="black" fill="yellow"/>
  <circle cx="339.404" cy="521.037" r="5.05167" stroke-width="0.5" stroke="yellow" fill="yellow"/>
   </g>
   <g id="cell114">
  <circle cx="54.338" cy="338.985" r="8.41271" stroke-width="0.5" stroke="black" fill="yellow"/>
  <circle cx="54.338" cy="338.985" r="5.05167" stroke-width="0.5" stroke="yellow" fill="yellow"/>
   </g>
   <g id="cell115">
  <circle cx="179.49" cy="18.5218" r="8.41271" stroke-width="0.5" stroke="black" fill="yellow"/>
  <circle cx="179.49" cy="18.5218" r="5.05167" stroke-width="0.5" stroke="yellow" fill="yellow"/>
   </g>
   <g id="cell116">
  <circle cx="793.698" cy="463.451" r="8.41271" stroke-width="0.5" stroke="black" fill="yellow"/>
  <circle cx="793.698" cy="463.451" r="5.05167" stroke-width="0.5" stroke="yellow" fill="yellow"/>
   </g>
   <g id="cell117">
  <circle cx="874.573" cy="345.352" r="8.41271" stroke-width="0.5" stroke="black" fill="yellow"/>
  <circle cx="874.573" cy="345.352" r="5.05167" stroke-width="0.5" stroke="yellow" fill="yellow"/>
   </g>
   <g id="cell118">
  <circle cx="928.081" cy="608.253" r="8.41271" stroke-width="0.5" stroke="black" fill="yellow"/>
  <circle cx="928.081" cy="608.253" r="5.05167" stroke-width="0.5" stroke="yellow" fill="yellow"/>
   </g>
   <g id="cell119">
  <circle cx="596.655" cy="31.8389" r="8.41271" stroke-width="0.5" stroke="black" fill="yellow"/>
  <circle cx="596.655" cy="31.8389" r="5.05167" stroke-width="0.5" stroke="yellow" fill="yellow"/>
   </g>
  </g>
 </g>
  <rect x="775" y="1035" width="200" height="10" stroke-width="2" stroke="rgb(255,255,255)" fill="rgb(0,0,0)"/>
  <text x="781.25" y="1028.75"
   font-family="Arial" font-size="25" fill="black" >
   200 &#956;m
  </text>
  <text x="25" y="1045"
   font-family="Arial" font-size="18.75" fill="black" >
   0 days, 0 hours, 0 minutes, and 0.3450 seconds
  </text>
  <rect x="0" y="70" width="1000" height="1000" stroke-width="2" stroke="rgb(0,0,0)" fill="none"/>
</svg>
