<?xml version="1.0" encoding="UTF-8" standalone="no"?>
<!-- Created with PhysiCell (http://PhysiCell.MathCancer.org/) -->
<svg 
 xmlns:dc="http://purl.org/dc/elements/1.1/" 
 xmlns:cc="http://creativecommons.org/ns#" 
 xmlns:rdf="http://www.w3.org/1999/02/22-rdf-syntax-ns#" 
 xmlns:svg="http://www.w3.org/2000/svg" 
 xmlns="http://www.w3.org/2000/svg" 
 version="1.1" 
 width="1000" 
 height="1070" 
 id="svg2">
  <rect x="0" y="0" width="1000" height="1070" stroke-width="2" stroke="white" fill="white"/>
  <text x="12.5" y="30"
   font-family="Arial" font-size="25" fill="black" >
   Current time: 1 days, 1 hours, and 0.00 minutes, z = 0.00 &#956;m
  </text>
  <text x="12.5" y="57.5"
   font-family="Arial" font-size="23.75" fill="black" >
   156 agents
  </text>
 <g id="tissue" 
    transform="translate(0,1070) scale(1,-1)">
  <g id="ECM">
  </g>
  <g id="cells">
   <g id="cell0">
  <circle cx="514.415" cy="619.79" r="10.386" stroke-width="0.5" stroke="black" fill="grey"/>
  <circle cx="514.415" cy="619.79" r="6.27086" stroke-width="0.5" stroke="grey" fill="grey"/>
   </g>
   <g id="cell118">
  <circle cx="858.684" cy="582.412" r="8.41036" stroke-width="0.5" stroke="black" fill="yellow"/>
  <circle cx="858.684" cy="582.412" r="5.05104" stroke-width="0.5" stroke="yellow" fill="yellow"/>
   </g>
   <g id="cell100">
  <circle cx="125.092" cy="802.065" r="10.3666" stroke-width="0.5" stroke="black" fill="yellow"/>
  <circle cx="125.092" cy="802.065" r="6.26126" stroke-width="0.5" stroke="yellow" fill="yellow"/>
   </g>
   <g id="cell3">
  <circle cx="608.767" cy="629.293" r="10.3068" stroke-width="0.5" stroke="black" fill="grey"/>
  <circle cx="608.767" cy="629.293" r="6.23094" stroke-width="0.5" stroke="grey" fill="grey"/>
   </g>
   <g id="cell103">
  <circle cx="821.312" cy="872.812" r="10.4925" stroke-width="0.5" stroke="black" fill="yellow"/>
  <circle cx="821.312" cy="872.812" r="6.32139" stroke-width="0.5" stroke="yellow" fill="yellow"/>
   </g>
   <g id="cell135">
  <circle cx="165.943" cy="796.248" r="9.94371" stroke-width="0.5" stroke="black" fill="yellow"/>
  <circle cx="165.943" cy="796.248" r="6.03397" stroke-width="0.5" stroke="yellow" fill="yellow"/>
   </g>
   <g id="cell185">
  <circle cx="881.264" cy="402.208" r="8.71791" stroke-width="0.5" stroke="black" fill="yellow"/>
  <circle cx="881.264" cy="402.208" r="5.27787" stroke-width="0.5" stroke="yellow" fill="yellow"/>
   </g>
   <g id="cell7">
  <circle cx="863.789" cy="493.76" r="10.1971" stroke-width="0.5" stroke="black" fill="grey"/>
  <circle cx="863.789" cy="493.76" r="6.17359" stroke-width="0.5" stroke="grey" fill="grey"/>
   </g>
   <g id="cell192">
  <circle cx="828.93" cy="427.194" r="8.3926" stroke-width="0.5" stroke="black" fill="yellow"/>
  <circle cx="828.93" cy="427.194" r="5.04482" stroke-width="0.5" stroke="yellow" fill="yellow"/>
   </g>
   <g id="cell112">
  <circle cx="745.405" cy="728.199" r="8.41009" stroke-width="0.5" stroke="black" fill="yellow"/>
  <circle cx="745.405" cy="728.199" r="5.05096" stroke-width="0.5" stroke="yellow" fill="yellow"/>
   </g>
   <g id="cell176">
  <circle cx="232.456" cy="73.7694" r="8.53799" stroke-width="0.5" stroke="black" fill="red"/>
  <circle cx="232.456" cy="73.7694" r="5.14746" stroke-width="0.5" stroke="red" fill="red"/>
   </g>
   <g id="cell186">
  <circle cx="69.247" cy="575.166" r="8.40123" stroke-width="0.5" stroke="black" fill="yellow"/>
  <circle cx="69.247" cy="575.166" r="5.048" stroke-width="0.5" stroke="yellow" fill="yellow"/>
   </g>
   <g id="cell104">
  <circle cx="762.311" cy="415.998" r="10.3153" stroke-width="0.5" stroke="black" fill="yellow"/>
  <circle cx="762.311" cy="415.998" r="6.23524" stroke-width="0.5" stroke="yellow" fill="yellow"/>
   </g>
   <g id="cell102">
  <circle cx="596.253" cy="152.178" r="9.50119" stroke-width="0.5" stroke="black" fill="yellow"/>
  <circle cx="596.253" cy="152.178" r="5.77613" stroke-width="0.5" stroke="yellow" fill="yellow"/>
   </g>
   <g id="cell98">
  <circle cx="898.432" cy="404.782" r="8.99832" stroke-width="0.5" stroke="black" fill="yellow"/>
  <circle cx="898.432" cy="404.782" r="5.46476" stroke-width="0.5" stroke="yellow" fill="yellow"/>
   </g>
   <g id="cell97">
  <circle cx="425.197" cy="83.3002" r="8.71336" stroke-width="0.5" stroke="black" fill="yellow"/>
  <circle cx="425.197" cy="83.3002" r="5.27617" stroke-width="0.5" stroke="yellow" fill="yellow"/>
   </g>
   <g id="cell16">
  <circle cx="128.706" cy="705.256" r="10.2411" stroke-width="0.5" stroke="black" fill="grey"/>
  <circle cx="128.706" cy="705.256" r="6.19686" stroke-width="0.5" stroke="grey" fill="grey"/>
   </g>
   <g id="cell116">
  <circle cx="833.198" cy="419.049" r="8.3926" stroke-width="0.5" stroke="black" fill="yellow"/>
  <circle cx="833.198" cy="419.049" r="5.04482" stroke-width="0.5" stroke="yellow" fill="yellow"/>
   </g>
   <g id="cell177">
  <circle cx="439.428" cy="284.881" r="8.40596" stroke-width="0.5" stroke="black" fill="red"/>
  <circle cx="439.428" cy="284.881" r="5.04964" stroke-width="0.5" stroke="red" fill="red"/>
   </g>
   <g id="cell101">
  <circle cx="92.8868" cy="175.684" r="10.5387" stroke-width="0.5" stroke="black" fill="yellow"/>
  <circle cx="92.8868" cy="175.684" r="6.34177" stroke-width="0.5" stroke="yellow" fill="yellow"/>
   </g>
   <g id="cell184">
  <circle cx="545.671" cy="298.884" r="9.66909" stroke-width="0.5" stroke="black" fill="red"/>
  <circle cx="545.671" cy="298.884" r="5.87672" stroke-width="0.5" stroke="red" fill="red"/>
   </g>
   <g id="cell99">
  <circle cx="497.744" cy="979.046" r="9.40274" stroke-width="0.5" stroke="black" fill="yellow"/>
  <circle cx="497.744" cy="979.046" r="5.71736" stroke-width="0.5" stroke="yellow" fill="yellow"/>
   </g>
   <g id="cell115">
  <circle cx="218.986" cy="19.4604" r="9.92395" stroke-width="0.5" stroke="black" fill="yellow"/>
  <circle cx="218.986" cy="19.4604" r="6.02294" stroke-width="0.5" stroke="yellow" fill="yellow"/>
   </g>
   <g id="cell191">
  <circle cx="728.383" cy="126.5" r="8.46617" stroke-width="0.5" stroke="black" fill="grey"/>
  <circle cx="728.383" cy="126.5" r="5.09756" stroke-width="0.5" stroke="grey" fill="grey"/>
   </g>
   <g id="cell153">
  <circle cx="192.765" cy="392.442" r="10.1609" stroke-width="0.5" stroke="black" fill="red"/>
  <circle cx="192.765" cy="392.442" r="6.15419" stroke-width="0.5" stroke="red" fill="red"/>
   </g>
   <g id="cell105">
  <circle cx="56.4758" cy="403.152" r="10.5066" stroke-width="0.5" stroke="black" fill="yellow"/>
  <circle cx="56.4758" cy="403.152" r="6.32777" stroke-width="0.5" stroke="yellow" fill="yellow"/>
   </g>
   <g id="cell26">
  <circle cx="675.114" cy="475.281" r="4.93713" stroke-width="0.5" stroke="black" fill="grey"/>
  <circle cx="675.114" cy="475.281" r="3.57278" stroke-width="0.5" stroke="black" fill="black"/>
   </g>
   <g id="cell117">
  <circle cx="889.6" cy="380.279" r="8.39794" stroke-width="0.5" stroke="black" fill="yellow"/>
  <circle cx="889.6" cy="380.279" r="5.04681" stroke-width="0.5" stroke="yellow" fill="yellow"/>
   </g>
   <g id="cell28">
  <circle cx="693.826" cy="130.669" r="8.40986" stroke-width="0.5" stroke="black" fill="grey"/>
  <circle cx="693.826" cy="130.669" r="5.05089" stroke-width="0.5" stroke="grey" fill="grey"/>
   </g>
   <g id="cell29">
  <circle cx="944.623" cy="654.386" r="9.56334" stroke-width="0.5" stroke="black" fill="grey"/>
  <circle cx="944.623" cy="654.386" r="5.81275" stroke-width="0.5" stroke="grey" fill="grey"/>
   </g>
   <g id="cell30">
  <circle cx="717.069" cy="112.458" r="8.39571" stroke-width="0.5" stroke="black" fill="grey"/>
  <circle cx="717.069" cy="112.458" r="5.04599" stroke-width="0.5" stroke="grey" fill="grey"/>
   </g>
   <g id="cell190">
  <circle cx="423.494" cy="102.391" r="8.39664" stroke-width="0.5" stroke="black" fill="yellow"/>
  <circle cx="423.494" cy="102.391" r="5.04633" stroke-width="0.5" stroke="yellow" fill="yellow"/>
   </g>
   <g id="cell114">
  <circle cx="56.3952" cy="348.177" r="9.33788" stroke-width="0.5" stroke="black" fill="yellow"/>
  <circle cx="56.3952" cy="348.177" r="5.67712" stroke-width="0.5" stroke="yellow" fill="yellow"/>
   </g>
   <g id="cell107">
  <circle cx="390.985" cy="459.259" r="10.5333" stroke-width="0.5" stroke="black" fill="yellow"/>
  <circle cx="390.985" cy="459.259" r="6.33948" stroke-width="0.5" stroke="yellow" fill="yellow"/>
   </g>
   <g id="cell106">
  <circle cx="23.6915" cy="921.375" r="10.271" stroke-width="0.5" stroke="black" fill="yellow"/>
  <circle cx="23.6915" cy="921.375" r="6.21244" stroke-width="0.5" stroke="yellow" fill="yellow"/>
   </g>
   <g id="cell35">
  <circle cx="949.922" cy="93.0673" r="10.4761" stroke-width="0.5" stroke="black" fill="grey"/>
  <circle cx="949.922" cy="93.0673" r="6.31388" stroke-width="0.5" stroke="grey" fill="grey"/>
   </g>
   <g id="cell109">
  <circle cx="372.022" cy="972.777" r="8.40715" stroke-width="0.5" stroke="black" fill="yellow"/>
  <circle cx="372.022" cy="972.777" r="5.05003" stroke-width="0.5" stroke="yellow" fill="yellow"/>
   </g>
   <g id="cell111">
  <circle cx="767.575" cy="378.853" r="8.39664" stroke-width="0.5" stroke="black" fill="yellow"/>
  <circle cx="767.575" cy="378.853" r="5.04633" stroke-width="0.5" stroke="yellow" fill="yellow"/>
   </g>
   <g id="cell131">
  <circle cx="638.313" cy="592.696" r="10.079" stroke-width="0.5" stroke="black" fill="grey"/>
  <circle cx="638.313" cy="592.696" r="6.10938" stroke-width="0.5" stroke="grey" fill="grey"/>
   </g>
   <g id="cell110">
  <circle cx="876.52" cy="290.486" r="10.5233" stroke-width="0.5" stroke="black" fill="yellow"/>
  <circle cx="876.52" cy="290.486" r="6.33514" stroke-width="0.5" stroke="yellow" fill="yellow"/>
   </g>
   <g id="cell40">
  <circle cx="165.511" cy="413.324" r="10.0472" stroke-width="0.5" stroke="black" fill="red"/>
  <circle cx="165.511" cy="413.324" r="6.09204" stroke-width="0.5" stroke="red" fill="red"/>
   </g>
   <g id="cell41">
  <circle cx="665.493" cy="728.954" r="10.1355" stroke-width="0.5" stroke="black" fill="red"/>
  <circle cx="665.493" cy="728.954" r="6.1403" stroke-width="0.5" stroke="red" fill="red"/>
   </g>
   <g id="cell42">
  <circle cx="156.809" cy="713.14" r="9.72522" stroke-width="0.5" stroke="black" fill="red"/>
  <circle cx="156.809" cy="713.14" r="5.90845" stroke-width="0.5" stroke="red" fill="red"/>
   </g>
   <g id="cell43">
  <circle cx="863.988" cy="421.69" r="9.7229" stroke-width="0.5" stroke="black" fill="red"/>
  <circle cx="863.988" cy="421.69" r="5.90768" stroke-width="0.5" stroke="red" fill="red"/>
   </g>
   <g id="cell44">
  <circle cx="846.128" cy="52.2178" r="9.77317" stroke-width="0.5" stroke="black" fill="red"/>
  <circle cx="846.128" cy="52.2178" r="5.93653" stroke-width="0.5" stroke="red" fill="red"/>
   </g>
   <g id="cell45">
  <circle cx="660.747" cy="806.753" r="8.40353" stroke-width="0.5" stroke="black" fill="red"/>
  <circle cx="660.747" cy="806.753" r="5.04881" stroke-width="0.5" stroke="red" fill="red"/>
   </g>
   <g id="cell46">
  <circle cx="53.4877" cy="915.8" r="8.4103" stroke-width="0.5" stroke="black" fill="red"/>
  <circle cx="53.4877" cy="915.8" r="5.05102" stroke-width="0.5" stroke="red" fill="red"/>
   </g>
   <g id="cell47">
  <circle cx="900.888" cy="464.59" r="9.99758" stroke-width="0.5" stroke="black" fill="red"/>
  <circle cx="900.888" cy="464.59" r="6.06437" stroke-width="0.5" stroke="red" fill="red"/>
   </g>
   <g id="cell48">
  <circle cx="925.31" cy="37.4981" r="10.331" stroke-width="0.5" stroke="black" fill="red"/>
  <circle cx="925.31" cy="37.4981" r="6.24329" stroke-width="0.5" stroke="red" fill="red"/>
   </g>
   <g id="cell49">
  <circle cx="492.814" cy="808.724" r="9.158" stroke-width="0.5" stroke="black" fill="red"/>
  <circle cx="492.814" cy="808.724" r="5.56523" stroke-width="0.5" stroke="red" fill="red"/>
   </g>
   <g id="cell50">
  <circle cx="16.2674" cy="435.614" r="9.88496" stroke-width="0.5" stroke="black" fill="red"/>
  <circle cx="16.2674" cy="435.614" r="6.0005" stroke-width="0.5" stroke="red" fill="red"/>
   </g>
   <g id="cell51">
  <circle cx="896.774" cy="118.653" r="10.2418" stroke-width="0.5" stroke="black" fill="red"/>
  <circle cx="896.774" cy="118.653" r="6.19709" stroke-width="0.5" stroke="red" fill="red"/>
   </g>
   <g id="cell96">
  <circle cx="825.263" cy="547.575" r="9.9785" stroke-width="0.5" stroke="black" fill="yellow"/>
  <circle cx="825.263" cy="547.575" r="6.05402" stroke-width="0.5" stroke="yellow" fill="yellow"/>
   </g>
   <g id="cell53">
  <circle cx="693.672" cy="298.004" r="10.3458" stroke-width="0.5" stroke="black" fill="red"/>
  <circle cx="693.672" cy="298.004" r="6.25081" stroke-width="0.5" stroke="red" fill="red"/>
   </g>
   <g id="cell54">
  <circle cx="425.898" cy="911.354" r="8.40788" stroke-width="0.5" stroke="black" fill="red"/>
  <circle cx="425.898" cy="911.354" r="5.05027" stroke-width="0.5" stroke="red" fill="red"/>
   </g>
   <g id="cell55">
  <circle cx="223.804" cy="661.009" r="10.5618" stroke-width="0.5" stroke="black" fill="red"/>
  <circle cx="223.804" cy="661.009" r="6.3513" stroke-width="0.5" stroke="red" fill="red"/>
   </g>
   <g id="cell56">
  <circle cx="596.846" cy="842.801" r="10.135" stroke-width="0.5" stroke="black" fill="red"/>
  <circle cx="596.846" cy="842.801" r="6.14015" stroke-width="0.5" stroke="red" fill="red"/>
   </g>
   <g id="cell57">
  <circle cx="484.366" cy="530.677" r="10.1859" stroke-width="0.5" stroke="black" fill="red"/>
  <circle cx="484.366" cy="530.677" r="6.1675" stroke-width="0.5" stroke="red" fill="red"/>
   </g>
   <g id="cell58">
  <circle cx="20.8057" cy="888.748" r="9.94212" stroke-width="0.5" stroke="black" fill="red"/>
  <circle cx="20.8057" cy="888.748" r="6.03345" stroke-width="0.5" stroke="red" fill="red"/>
   </g>
   <g id="cell59">
  <circle cx="74.9063" cy="967.564" r="10.013" stroke-width="0.5" stroke="black" fill="red"/>
  <circle cx="74.9063" cy="967.564" r="6.07337" stroke-width="0.5" stroke="red" fill="red"/>
   </g>
   <g id="cell60">
  <circle cx="257.776" cy="55.5284" r="8.53799" stroke-width="0.5" stroke="black" fill="red"/>
  <circle cx="257.776" cy="55.5284" r="5.14746" stroke-width="0.5" stroke="red" fill="red"/>
   </g>
   <g id="cell61">
  <circle cx="826.973" cy="155.57" r="8.40801" stroke-width="0.5" stroke="black" fill="red"/>
  <circle cx="826.973" cy="155.57" r="5.05031" stroke-width="0.5" stroke="red" fill="red"/>
   </g>
   <g id="cell62">
  <circle cx="725.545" cy="805.512" r="9.99984" stroke-width="0.5" stroke="black" fill="red"/>
  <circle cx="725.545" cy="805.512" r="6.06503" stroke-width="0.5" stroke="red" fill="red"/>
   </g>
   <g id="cell63">
  <circle cx="342.869" cy="163.633" r="9.27035" stroke-width="0.5" stroke="black" fill="red"/>
  <circle cx="342.869" cy="163.633" r="5.63477" stroke-width="0.5" stroke="red" fill="red"/>
   </g>
   <g id="cell64">
  <circle cx="606.652" cy="547.987" r="10.2632" stroke-width="0.5" stroke="black" fill="red"/>
  <circle cx="606.652" cy="547.987" r="6.20796" stroke-width="0.5" stroke="red" fill="red"/>
   </g>
   <g id="cell188">
  <circle cx="873.946" cy="384.676" r="8.39794" stroke-width="0.5" stroke="black" fill="yellow"/>
  <circle cx="873.946" cy="384.676" r="5.04681" stroke-width="0.5" stroke="yellow" fill="yellow"/>
   </g>
   <g id="cell66">
  <circle cx="34.5209" cy="151.38" r="9.7698" stroke-width="0.5" stroke="black" fill="red"/>
  <circle cx="34.5209" cy="151.38" r="5.93537" stroke-width="0.5" stroke="red" fill="red"/>
   </g>
   <g id="cell67">
  <circle cx="517.357" cy="250.279" r="2.97363" stroke-width="0.5" stroke="black" fill="red"/>
  <circle cx="517.357" cy="250.279" r="2.45449" stroke-width="0.5" stroke="black" fill="black"/>
   </g>
   <g id="cell68">
  <circle cx="742.39" cy="235.394" r="10.0151" stroke-width="0.5" stroke="black" fill="red"/>
  <circle cx="742.39" cy="235.394" r="6.07404" stroke-width="0.5" stroke="red" fill="red"/>
   </g>
   <g id="cell69">
  <circle cx="452.049" cy="292.91" r="8.40596" stroke-width="0.5" stroke="black" fill="red"/>
  <circle cx="452.049" cy="292.91" r="5.04964" stroke-width="0.5" stroke="red" fill="red"/>
   </g>
   <g id="cell70">
  <circle cx="512.37" cy="342.244" r="9.37239" stroke-width="0.5" stroke="black" fill="red"/>
  <circle cx="512.37" cy="342.244" r="5.69812" stroke-width="0.5" stroke="red" fill="red"/>
   </g>
   <g id="cell71">
  <circle cx="872.084" cy="507.156" r="10.346" stroke-width="0.5" stroke="black" fill="red"/>
  <circle cx="872.084" cy="507.156" r="6.25086" stroke-width="0.5" stroke="red" fill="red"/>
   </g>
   <g id="cell72">
  <circle cx="186.377" cy="896.897" r="10.1856" stroke-width="0.5" stroke="black" fill="red"/>
  <circle cx="186.377" cy="896.897" r="6.1674" stroke-width="0.5" stroke="red" fill="red"/>
   </g>
   <g id="cell73">
  <circle cx="660.474" cy="436.919" r="9.75002" stroke-width="0.5" stroke="black" fill="red"/>
  <circle cx="660.474" cy="436.919" r="5.92287" stroke-width="0.5" stroke="red" fill="red"/>
   </g>
   <g id="cell74">
  <circle cx="868.246" cy="940.497" r="8.47814" stroke-width="0.5" stroke="black" fill="red"/>
  <circle cx="868.246" cy="940.497" r="5.10178" stroke-width="0.5" stroke="red" fill="red"/>
   </g>
   <g id="cell75">
  <circle cx="117.194" cy="332.085" r="10.1615" stroke-width="0.5" stroke="black" fill="red"/>
  <circle cx="117.194" cy="332.085" r="6.15437" stroke-width="0.5" stroke="red" fill="red"/>
   </g>
   <g id="cell76">
  <circle cx="766.652" cy="390.081" r="8.88353" stroke-width="0.5" stroke="black" fill="red"/>
  <circle cx="766.652" cy="390.081" r="5.38814" stroke-width="0.5" stroke="red" fill="red"/>
   </g>
   <g id="cell77">
  <circle cx="637.335" cy="848.797" r="9.79643" stroke-width="0.5" stroke="black" fill="red"/>
  <circle cx="637.335" cy="848.797" r="5.95002" stroke-width="0.5" stroke="red" fill="red"/>
   </g>
   <g id="cell78">
  <circle cx="583.918" cy="286.621" r="9.69866" stroke-width="0.5" stroke="black" fill="red"/>
  <circle cx="583.918" cy="286.621" r="5.89323" stroke-width="0.5" stroke="red" fill="red"/>
   </g>
   <g id="cell79">
  <circle cx="969.515" cy="698.213" r="8.88011" stroke-width="0.5" stroke="black" fill="red"/>
  <circle cx="969.515" cy="698.213" r="5.38693" stroke-width="0.5" stroke="red" fill="red"/>
   </g>
   <g id="cell80">
  <circle cx="767.377" cy="680.86" r="10.5166" stroke-width="0.5" stroke="black" fill="yellow"/>
  <circle cx="767.377" cy="680.86" r="6.33218" stroke-width="0.5" stroke="yellow" fill="yellow"/>
   </g>
   <g id="cell81">
  <circle cx="498.37" cy="988.929" r="10.1238" stroke-width="0.5" stroke="black" fill="yellow"/>
  <circle cx="498.37" cy="988.929" r="6.13347" stroke-width="0.5" stroke="yellow" fill="yellow"/>
   </g>
   <g id="cell82">
  <circle cx="638.911" cy="429.194" r="10.289" stroke-width="0.5" stroke="black" fill="yellow"/>
  <circle cx="638.911" cy="429.194" r="6.22185" stroke-width="0.5" stroke="yellow" fill="yellow"/>
   </g>
   <g id="cell83">
  <circle cx="595.008" cy="577.497" r="9.9971" stroke-width="0.5" stroke="black" fill="yellow"/>
  <circle cx="595.008" cy="577.497" r="6.06421" stroke-width="0.5" stroke="yellow" fill="yellow"/>
   </g>
   <g id="cell84">
  <circle cx="10.8366" cy="522.478" r="9.04035" stroke-width="0.5" stroke="black" fill="yellow"/>
  <circle cx="10.8366" cy="522.478" r="5.49109" stroke-width="0.5" stroke="yellow" fill="yellow"/>
   </g>
   <g id="cell85">
  <circle cx="781.988" cy="667.541" r="10.315" stroke-width="0.5" stroke="black" fill="yellow"/>
  <circle cx="781.988" cy="667.541" r="6.23514" stroke-width="0.5" stroke="yellow" fill="yellow"/>
   </g>
   <g id="cell86">
  <circle cx="319.236" cy="469.143" r="8.39874" stroke-width="0.5" stroke="black" fill="yellow"/>
  <circle cx="319.236" cy="469.143" r="5.04711" stroke-width="0.5" stroke="yellow" fill="yellow"/>
   </g>
   <g id="cell87">
  <circle cx="749.866" cy="405.534" r="8.41078" stroke-width="0.5" stroke="black" fill="yellow"/>
  <circle cx="749.866" cy="405.534" r="5.05116" stroke-width="0.5" stroke="yellow" fill="yellow"/>
   </g>
   <g id="cell88">
  <circle cx="152.165" cy="105.459" r="2.83222" stroke-width="0.5" stroke="black" fill="yellow"/>
  <circle cx="152.165" cy="105.459" r="2.54997" stroke-width="0.5" stroke="black" fill="black"/>
   </g>
   <g id="cell89">
  <circle cx="77.1937" cy="520.708" r="8.8375" stroke-width="0.5" stroke="black" fill="yellow"/>
  <circle cx="77.1937" cy="520.708" r="5.35926" stroke-width="0.5" stroke="yellow" fill="yellow"/>
   </g>
   <g id="cell119">
  <circle cx="575.009" cy="35.5235" r="1.75485" stroke-width="0.5" stroke="black" fill="yellow"/>
  <circle cx="575.009" cy="35.5235" r="1.73926" stroke-width="0.5" stroke="black" fill="black"/>
   </g>
   <g id="cell91">
  <circle cx="12.4886" cy="661.814" r="8.40427" stroke-width="0.5" stroke="black" fill="yellow"/>
  <circle cx="12.4886" cy="661.814" r="5.04906" stroke-width="0.5" stroke="yellow" fill="yellow"/>
   </g>
   <g id="cell92">
  <circle cx="650.434" cy="299.494" r="9.84071" stroke-width="0.5" stroke="black" fill="yellow"/>
  <circle cx="650.434" cy="299.494" r="5.97565" stroke-width="0.5" stroke="yellow" fill="yellow"/>
   </g>
   <g id="cell93">
  <circle cx="252.307" cy="861.377" r="8.41078" stroke-width="0.5" stroke="black" fill="yellow"/>
  <circle cx="252.307" cy="861.377" r="5.05116" stroke-width="0.5" stroke="yellow" fill="yellow"/>
   </g>
   <g id="cell94">
  <circle cx="383.971" cy="103.111" r="9.19495" stroke-width="0.5" stroke="black" fill="yellow"/>
  <circle cx="383.971" cy="103.111" r="5.58854" stroke-width="0.5" stroke="yellow" fill="yellow"/>
   </g>
   <g id="cell95">
  <circle cx="942.197" cy="902.26" r="9.99601" stroke-width="0.5" stroke="black" fill="yellow"/>
  <circle cx="942.197" cy="902.26" r="6.06385" stroke-width="0.5" stroke="yellow" fill="yellow"/>
   </g>
   <g id="cell121">
  <circle cx="9.83799" cy="498.504" r="8.41088" stroke-width="0.5" stroke="black" fill="red"/>
  <circle cx="9.83799" cy="498.504" r="5.05119" stroke-width="0.5" stroke="red" fill="red"/>
   </g>
   <g id="cell122">
  <circle cx="708.568" cy="454.44" r="10.2898" stroke-width="0.5" stroke="black" fill="yellow"/>
  <circle cx="708.568" cy="454.44" r="6.22211" stroke-width="0.5" stroke="yellow" fill="yellow"/>
   </g>
   <g id="cell123">
  <circle cx="276.531" cy="904.107" r="8.41078" stroke-width="0.5" stroke="black" fill="yellow"/>
  <circle cx="276.531" cy="904.107" r="5.05116" stroke-width="0.5" stroke="yellow" fill="yellow"/>
   </g>
   <g id="cell124">
  <circle cx="505.145" cy="629.793" r="9.86401" stroke-width="0.5" stroke="black" fill="grey"/>
  <circle cx="505.145" cy="629.793" r="5.98855" stroke-width="0.5" stroke="grey" fill="grey"/>
   </g>
   <g id="cell125">
  <circle cx="788.717" cy="422.376" r="10.346" stroke-width="0.5" stroke="black" fill="yellow"/>
  <circle cx="788.717" cy="422.376" r="6.25088" stroke-width="0.5" stroke="yellow" fill="yellow"/>
   </g>
   <g id="cell126">
  <circle cx="978.677" cy="176.418" r="9.79765" stroke-width="0.5" stroke="black" fill="red"/>
  <circle cx="978.677" cy="176.418" r="5.95041" stroke-width="0.5" stroke="red" fill="red"/>
   </g>
   <g id="cell127">
  <circle cx="896.664" cy="535.636" r="10.3152" stroke-width="0.5" stroke="black" fill="red"/>
  <circle cx="896.664" cy="535.636" r="6.23521" stroke-width="0.5" stroke="red" fill="red"/>
   </g>
   <g id="cell128">
  <circle cx="931.501" cy="27.3171" r="9.59225" stroke-width="0.5" stroke="black" fill="red"/>
  <circle cx="931.501" cy="27.3171" r="5.82995" stroke-width="0.5" stroke="red" fill="red"/>
   </g>
   <g id="cell129">
  <circle cx="978.361" cy="668.479" r="10.2713" stroke-width="0.5" stroke="black" fill="grey"/>
  <circle cx="978.361" cy="668.479" r="6.21253" stroke-width="0.5" stroke="grey" fill="grey"/>
   </g>
   <g id="cell130">
  <circle cx="899.838" cy="613.481" r="8.41036" stroke-width="0.5" stroke="black" fill="yellow"/>
  <circle cx="899.838" cy="613.481" r="5.05104" stroke-width="0.5" stroke="yellow" fill="yellow"/>
   </g>
   <g id="cell132">
  <circle cx="64.9864" cy="919.266" r="10.1082" stroke-width="0.5" stroke="black" fill="red"/>
  <circle cx="64.9864" cy="919.266" r="6.12537" stroke-width="0.5" stroke="red" fill="red"/>
   </g>
   <g id="cell133">
  <circle cx="655.674" cy="369.655" r="8.92616" stroke-width="0.5" stroke="black" fill="red"/>
  <circle cx="655.674" cy="369.655" r="5.41547" stroke-width="0.5" stroke="red" fill="red"/>
   </g>
   <g id="cell134">
  <circle cx="624.597" cy="436.457" r="2.97597" stroke-width="0.5" stroke="black" fill="grey"/>
  <circle cx="624.597" cy="436.457" r="2.45563" stroke-width="0.5" stroke="black" fill="black"/>
   </g>
   <g id="cell136">
  <circle cx="644.075" cy="441.273" r="9.86356" stroke-width="0.5" stroke="black" fill="red"/>
  <circle cx="644.075" cy="441.273" r="5.98841" stroke-width="0.5" stroke="red" fill="red"/>
   </g>
   <g id="cell137">
  <circle cx="787.34" cy="666.672" r="8.41016" stroke-width="0.5" stroke="black" fill="yellow"/>
  <circle cx="787.34" cy="666.672" r="5.05098" stroke-width="0.5" stroke="yellow" fill="yellow"/>
   </g>
   <g id="cell138">
  <circle cx="732.703" cy="236.685" r="10.3307" stroke-width="0.5" stroke="black" fill="red"/>
  <circle cx="732.703" cy="236.685" r="6.2432" stroke-width="0.5" stroke="red" fill="red"/>
   </g>
   <g id="cell139">
  <circle cx="805.078" cy="741.377" r="8.41009" stroke-width="0.5" stroke="black" fill="yellow"/>
  <circle cx="805.078" cy="741.377" r="5.05096" stroke-width="0.5" stroke="yellow" fill="yellow"/>
   </g>
   <g id="cell140">
  <circle cx="66.9131" cy="332.255" r="10.3149" stroke-width="0.5" stroke="black" fill="red"/>
  <circle cx="66.9131" cy="332.255" r="6.23511" stroke-width="0.5" stroke="red" fill="red"/>
   </g>
   <g id="cell141">
  <circle cx="14.531" cy="979.906" r="10.2893" stroke-width="0.5" stroke="black" fill="yellow"/>
  <circle cx="14.531" cy="979.906" r="6.22195" stroke-width="0.5" stroke="yellow" fill="yellow"/>
   </g>
   <g id="cell142">
  <circle cx="679.584" cy="668.215" r="8.40994" stroke-width="0.5" stroke="black" fill="red"/>
  <circle cx="679.584" cy="668.215" r="5.05091" stroke-width="0.5" stroke="red" fill="red"/>
   </g>
   <g id="cell143">
  <circle cx="120.389" cy="750.635" r="8.40994" stroke-width="0.5" stroke="black" fill="red"/>
  <circle cx="120.389" cy="750.635" r="5.05091" stroke-width="0.5" stroke="red" fill="red"/>
   </g>
   <g id="cell144">
  <circle cx="644.337" cy="166.642" r="10.1614" stroke-width="0.5" stroke="black" fill="grey"/>
  <circle cx="644.337" cy="166.642" r="6.15434" stroke-width="0.5" stroke="grey" fill="grey"/>
   </g>
   <g id="cell145">
  <circle cx="538.67" cy="528.316" r="8.40978" stroke-width="0.5" stroke="black" fill="red"/>
  <circle cx="538.67" cy="528.316" r="5.05086" stroke-width="0.5" stroke="red" fill="red"/>
   </g>
   <g id="cell146">
  <circle cx="324.7" cy="199.411" r="10.0933" stroke-width="0.5" stroke="black" fill="red"/>
  <circle cx="324.7" cy="199.411" r="6.11735" stroke-width="0.5" stroke="red" fill="red"/>
   </g>
   <g id="cell147">
  <circle cx="668.075" cy="402.267" r="8.40953" stroke-width="0.5" stroke="black" fill="yellow"/>
  <circle cx="668.075" cy="402.267" r="5.05079" stroke-width="0.5" stroke="yellow" fill="yellow"/>
   </g>
   <g id="cell148">
  <circle cx="175.811" cy="770.148" r="10.2978" stroke-width="0.5" stroke="black" fill="grey"/>
  <circle cx="175.811" cy="770.148" r="6.22638" stroke-width="0.5" stroke="grey" fill="grey"/>
   </g>
   <g id="cell149">
  <circle cx="861.64" cy="432.919" r="10.2411" stroke-width="0.5" stroke="black" fill="red"/>
  <circle cx="861.64" cy="432.919" r="6.19686" stroke-width="0.5" stroke="red" fill="red"/>
   </g>
   <g id="cell150">
  <circle cx="158.094" cy="34.1234" r="9.50274" stroke-width="0.5" stroke="black" fill="yellow"/>
  <circle cx="158.094" cy="34.1234" r="5.77666" stroke-width="0.5" stroke="yellow" fill="yellow"/>
   </g>
   <g id="cell151">
  <circle cx="219.235" cy="917.613" r="8.8851" stroke-width="0.5" stroke="black" fill="red"/>
  <circle cx="219.235" cy="917.613" r="5.38867" stroke-width="0.5" stroke="red" fill="red"/>
   </g>
   <g id="cell152">
  <circle cx="577.774" cy="843.437" r="10.1855" stroke-width="0.5" stroke="black" fill="red"/>
  <circle cx="577.774" cy="843.437" r="6.16738" stroke-width="0.5" stroke="red" fill="red"/>
   </g>
   <g id="cell154">
  <circle cx="850.742" cy="9.14403" r="9.43965" stroke-width="0.5" stroke="black" fill="red"/>
  <circle cx="850.742" cy="9.14403" r="5.73865" stroke-width="0.5" stroke="red" fill="red"/>
   </g>
   <g id="cell155">
  <circle cx="646.768" cy="883.451" r="10.1348" stroke-width="0.5" stroke="black" fill="red"/>
  <circle cx="646.768" cy="883.451" r="6.14008" stroke-width="0.5" stroke="red" fill="red"/>
   </g>
   <g id="cell156">
  <circle cx="888.017" cy="517.154" r="10.078" stroke-width="0.5" stroke="black" fill="grey"/>
  <circle cx="888.017" cy="517.154" r="6.10907" stroke-width="0.5" stroke="grey" fill="grey"/>
   </g>
   <g id="cell157">
  <circle cx="593.557" cy="622.894" r="9.33978" stroke-width="0.5" stroke="black" fill="yellow"/>
  <circle cx="593.557" cy="622.894" r="5.67778" stroke-width="0.5" stroke="yellow" fill="yellow"/>
   </g>
   <g id="cell158">
  <circle cx="163.19" cy="140.34" r="3.12398" stroke-width="0.5" stroke="black" fill="yellow"/>
  <circle cx="163.19" cy="140.34" r="2.71416" stroke-width="0.5" stroke="black" fill="black"/>
   </g>
   <g id="cell159">
  <circle cx="678.983" cy="290.645" r="8.84386" stroke-width="0.5" stroke="black" fill="yellow"/>
  <circle cx="678.983" cy="290.645" r="5.36153" stroke-width="0.5" stroke="yellow" fill="yellow"/>
   </g>
   <g id="cell160">
  <circle cx="616.239" cy="272.276" r="9.47079" stroke-width="0.5" stroke="black" fill="red"/>
  <circle cx="616.239" cy="272.276" r="5.75766" stroke-width="0.5" stroke="red" fill="red"/>
   </g>
   <g id="cell161">
  <circle cx="39.9117" cy="929.436" r="2.42676" stroke-width="0.5" stroke="black" fill="red"/>
  <circle cx="39.9117" cy="929.436" r="2.1757" stroke-width="0.5" stroke="black" fill="black"/>
   </g>
   <g id="cell162">
  <circle cx="848.498" cy="131.193" r="10.1341" stroke-width="0.5" stroke="black" fill="red"/>
  <circle cx="848.498" cy="131.193" r="6.13987" stroke-width="0.5" stroke="red" fill="red"/>
   </g>
   <g id="cell163">
  <circle cx="437.223" cy="967.331" r="10.1065" stroke-width="0.5" stroke="black" fill="red"/>
  <circle cx="437.223" cy="967.331" r="6.12484" stroke-width="0.5" stroke="red" fill="red"/>
   </g>
   <g id="cell164">
  <circle cx="832.061" cy="949.05" r="8.40788" stroke-width="0.5" stroke="black" fill="red"/>
  <circle cx="832.061" cy="949.05" r="5.05027" stroke-width="0.5" stroke="red" fill="red"/>
   </g>
   <g id="cell165">
  <circle cx="847.351" cy="406.356" r="10.0919" stroke-width="0.5" stroke="black" fill="red"/>
  <circle cx="847.351" cy="406.356" r="6.1169" stroke-width="0.5" stroke="red" fill="red"/>
   </g>
   <g id="cell166">
  <circle cx="805.473" cy="538.881" r="10.077" stroke-width="0.5" stroke="black" fill="yellow"/>
  <circle cx="805.473" cy="538.881" r="6.10873" stroke-width="0.5" stroke="yellow" fill="yellow"/>
   </g>
   <g id="cell167">
  <circle cx="644.223" cy="146.889" r="9.12042" stroke-width="0.5" stroke="black" fill="yellow"/>
  <circle cx="644.223" cy="146.889" r="5.54139" stroke-width="0.5" stroke="yellow" fill="yellow"/>
   </g>
   <g id="cell168">
  <circle cx="954.521" cy="900.441" r="9.88237" stroke-width="0.5" stroke="black" fill="yellow"/>
  <circle cx="954.521" cy="900.441" r="5.99966" stroke-width="0.5" stroke="yellow" fill="yellow"/>
   </g>
   <g id="cell169">
  <circle cx="374.348" cy="966.175" r="9.72314" stroke-width="0.5" stroke="black" fill="yellow"/>
  <circle cx="374.348" cy="966.175" r="5.90776" stroke-width="0.5" stroke="yellow" fill="yellow"/>
   </g>
   <g id="cell170">
  <circle cx="66.9817" cy="987.673" r="8.40715" stroke-width="0.5" stroke="black" fill="red"/>
  <circle cx="66.9817" cy="987.673" r="5.05003" stroke-width="0.5" stroke="red" fill="red"/>
   </g>
   <g id="cell171">
  <circle cx="548.735" cy="380.093" r="9.77177" stroke-width="0.5" stroke="black" fill="red"/>
  <circle cx="548.735" cy="380.093" r="5.93606" stroke-width="0.5" stroke="red" fill="red"/>
   </g>
   <g id="cell172">
  <circle cx="460.771" cy="782.701" r="9.8177" stroke-width="0.5" stroke="black" fill="red"/>
  <circle cx="460.771" cy="782.701" r="5.96264" stroke-width="0.5" stroke="red" fill="red"/>
   </g>
   <g id="cell173">
  <circle cx="940.709" cy="429.529" r="8.40683" stroke-width="0.5" stroke="black" fill="red"/>
  <circle cx="940.709" cy="429.529" r="5.04993" stroke-width="0.5" stroke="red" fill="red"/>
   </g>
   <g id="cell174">
  <circle cx="373.506" cy="100.538" r="8.4065" stroke-width="0.5" stroke="black" fill="yellow"/>
  <circle cx="373.506" cy="100.538" r="5.04982" stroke-width="0.5" stroke="yellow" fill="yellow"/>
   </g>
   <g id="cell175">
  <circle cx="31.6012" cy="309.854" r="9.88179" stroke-width="0.5" stroke="black" fill="yellow"/>
  <circle cx="31.6012" cy="309.854" r="5.99946" stroke-width="0.5" stroke="yellow" fill="yellow"/>
   </g>
   <g id="cell178">
  <circle cx="51.8052" cy="155.039" r="9.66982" stroke-width="0.5" stroke="black" fill="red"/>
  <circle cx="51.8052" cy="155.039" r="5.87698" stroke-width="0.5" stroke="red" fill="red"/>
   </g>
   <g id="cell179">
  <circle cx="25.9045" cy="488.92" r="8.4045" stroke-width="0.5" stroke="black" fill="yellow"/>
  <circle cx="25.9045" cy="488.92" r="5.04914" stroke-width="0.5" stroke="yellow" fill="yellow"/>
   </g>
   <g id="cell180">
  <circle cx="31.1543" cy="674.401" r="8.40427" stroke-width="0.5" stroke="black" fill="yellow"/>
  <circle cx="31.1543" cy="674.401" r="5.04906" stroke-width="0.5" stroke="yellow" fill="yellow"/>
   </g>
   <g id="cell181">
  <circle cx="979.524" cy="688.79" r="8.40378" stroke-width="0.5" stroke="black" fill="red"/>
  <circle cx="979.524" cy="688.79" r="5.0489" stroke-width="0.5" stroke="red" fill="red"/>
   </g>
   <g id="cell182">
  <circle cx="522.926" cy="978.066" r="8.40353" stroke-width="0.5" stroke="black" fill="yellow"/>
  <circle cx="522.926" cy="978.066" r="5.04881" stroke-width="0.5" stroke="yellow" fill="yellow"/>
   </g>
   <g id="cell183">
  <circle cx="653.896" cy="847.994" r="8.40353" stroke-width="0.5" stroke="black" fill="red"/>
  <circle cx="653.896" cy="847.994" r="5.04881" stroke-width="0.5" stroke="red" fill="red"/>
   </g>
   <g id="cell187">
  <circle cx="310.375" cy="448.144" r="8.39874" stroke-width="0.5" stroke="black" fill="yellow"/>
  <circle cx="310.375" cy="448.144" r="5.04711" stroke-width="0.5" stroke="yellow" fill="yellow"/>
   </g>
   <g id="cell189">
  <circle cx="781.829" cy="391.109" r="8.63607" stroke-width="0.5" stroke="black" fill="yellow"/>
  <circle cx="781.829" cy="391.109" r="5.22199" stroke-width="0.5" stroke="yellow" fill="yellow"/>
   </g>
  </g>
 </g>
  <rect x="775" y="1035" width="200" height="10" stroke-width="2" stroke="rgb(255,255,255)" fill="rgb(0,0,0)"/>
  <text x="781.25" y="1028.75"
   font-family="Arial" font-size="25" fill="black" >
   200 &#956;m
  </text>
  <text x="25" y="1045"
   font-family="Arial" font-size="18.75" fill="black" >
   0 days, 0 hours, 1 minutes, and 47.5933 seconds
  </text>
  <rect x="0" y="70" width="1000" height="1000" stroke-width="2" stroke="rgb(0,0,0)" fill="none"/>
</svg>
