<?xml version="1.0" encoding="UTF-8" standalone="no"?>
<!-- Created with PhysiCell (http://PhysiCell.MathCancer.org/) -->
<svg 
 xmlns:dc="http://purl.org/dc/elements/1.1/" 
 xmlns:cc="http://creativecommons.org/ns#" 
 xmlns:rdf="http://www.w3.org/1999/02/22-rdf-syntax-ns#" 
 xmlns:svg="http://www.w3.org/2000/svg" 
 xmlns="http://www.w3.org/2000/svg" 
 version="1.1" 
 width="1000" 
 height="1070" 
 id="svg2">
  <rect x="0" y="0" width="1000" height="1070" stroke-width="2" stroke="white" fill="white"/>
  <text x="12.5" y="30"
   font-family="Arial" font-size="25" fill="black" >
   Current time: 0 days, 2 hours, and 0.00 minutes, z = 0.00 &#956;m
  </text>
  <text x="12.5" y="57.5"
   font-family="Arial" font-size="23.75" fill="black" >
   120 agents
  </text>
 <g id="tissue" 
    transform="translate(0,1070) scale(1,-1)">
  <g id="ECM">
  </g>
  <g id="cells">
   <g id="cell0">
  <circle cx="553.432" cy="594.145" r="8.41271" stroke-width="0.5" stroke="black" fill="grey"/>
  <circle cx="553.432" cy="594.145" r="5.05167" stroke-width="0.5" stroke="grey" fill="grey"/>
   </g>
   <g id="cell1">
  <circle cx="842.092" cy="609.285" r="8.41271" stroke-width="0.5" stroke="black" fill="grey"/>
  <circle cx="842.092" cy="609.285" r="5.05167" stroke-width="0.5" stroke="grey" fill="grey"/>
   </g>
   <g id="cell2">
  <circle cx="551.67" cy="850.436" r="8.41271" stroke-width="0.5" stroke="black" fill="grey"/>
  <circle cx="551.67" cy="850.436" r="5.05167" stroke-width="0.5" stroke="grey" fill="grey"/>
   </g>
   <g id="cell3">
  <circle cx="632.572" cy="628.492" r="8.4325" stroke-width="0.5" stroke="black" fill="grey"/>
  <circle cx="632.572" cy="628.492" r="5.06552" stroke-width="0.5" stroke="grey" fill="grey"/>
   </g>
   <g id="cell4">
  <circle cx="436.823" cy="294.919" r="9.08642" stroke-width="0.5" stroke="black" fill="grey"/>
  <circle cx="436.823" cy="294.919" r="5.51837" stroke-width="0.5" stroke="grey" fill="grey"/>
   </g>
   <g id="cell5">
  <circle cx="61.5885" cy="959.515" r="8.41271" stroke-width="0.5" stroke="black" fill="grey"/>
  <circle cx="61.5885" cy="959.515" r="5.05167" stroke-width="0.5" stroke="grey" fill="grey"/>
   </g>
   <g id="cell6">
  <circle cx="383.546" cy="464.55" r="8.41271" stroke-width="0.5" stroke="black" fill="grey"/>
  <circle cx="383.546" cy="464.55" r="5.05167" stroke-width="0.5" stroke="grey" fill="grey"/>
   </g>
   <g id="cell7">
  <circle cx="797.55" cy="534.106" r="8.41271" stroke-width="0.5" stroke="black" fill="grey"/>
  <circle cx="797.55" cy="534.106" r="5.05167" stroke-width="0.5" stroke="grey" fill="grey"/>
   </g>
   <g id="cell8">
  <circle cx="578.9" cy="387.571" r="8.80772" stroke-width="0.5" stroke="black" fill="grey"/>
  <circle cx="578.9" cy="387.571" r="5.33574" stroke-width="0.5" stroke="grey" fill="grey"/>
   </g>
   <g id="cell9">
  <circle cx="840.59" cy="84.3056" r="8.41271" stroke-width="0.5" stroke="black" fill="grey"/>
  <circle cx="840.59" cy="84.3056" r="5.05167" stroke-width="0.5" stroke="grey" fill="grey"/>
   </g>
   <g id="cell10">
  <circle cx="90.6122" cy="651.258" r="8.54454" stroke-width="0.5" stroke="black" fill="grey"/>
  <circle cx="90.6122" cy="651.258" r="5.14947" stroke-width="0.5" stroke="grey" fill="grey"/>
   </g>
   <g id="cell11">
  <circle cx="366.578" cy="823.839" r="8.41271" stroke-width="0.5" stroke="black" fill="grey"/>
  <circle cx="366.578" cy="823.839" r="5.05167" stroke-width="0.5" stroke="grey" fill="grey"/>
   </g>
   <g id="cell12">
  <circle cx="773.918" cy="119.293" r="8.41271" stroke-width="0.5" stroke="black" fill="grey"/>
  <circle cx="773.918" cy="119.293" r="5.05167" stroke-width="0.5" stroke="grey" fill="grey"/>
   </g>
   <g id="cell13">
  <circle cx="867.102" cy="975.83" r="8.41271" stroke-width="0.5" stroke="black" fill="grey"/>
  <circle cx="867.102" cy="975.83" r="5.05167" stroke-width="0.5" stroke="grey" fill="grey"/>
   </g>
   <g id="cell14">
  <circle cx="792.372" cy="819.005" r="8.41271" stroke-width="0.5" stroke="black" fill="grey"/>
  <circle cx="792.372" cy="819.005" r="5.05167" stroke-width="0.5" stroke="grey" fill="grey"/>
   </g>
   <g id="cell15">
  <circle cx="525.872" cy="778.948" r="8.41271" stroke-width="0.5" stroke="black" fill="grey"/>
  <circle cx="525.872" cy="778.948" r="5.05167" stroke-width="0.5" stroke="grey" fill="grey"/>
   </g>
   <g id="cell16">
  <circle cx="124.588" cy="703.108" r="8.65127" stroke-width="0.5" stroke="black" fill="grey"/>
  <circle cx="124.588" cy="703.108" r="5.2272" stroke-width="0.5" stroke="grey" fill="grey"/>
   </g>
   <g id="cell17">
  <circle cx="579.43" cy="140.165" r="8.41271" stroke-width="0.5" stroke="black" fill="grey"/>
  <circle cx="579.43" cy="140.165" r="5.05167" stroke-width="0.5" stroke="grey" fill="grey"/>
   </g>
   <g id="cell18">
  <circle cx="928.037" cy="769.19" r="8.41271" stroke-width="0.5" stroke="black" fill="grey"/>
  <circle cx="928.037" cy="769.19" r="5.05167" stroke-width="0.5" stroke="grey" fill="grey"/>
   </g>
   <g id="cell19">
  <circle cx="119.47" cy="422.794" r="8.41271" stroke-width="0.5" stroke="black" fill="grey"/>
  <circle cx="119.47" cy="422.794" r="5.05167" stroke-width="0.5" stroke="grey" fill="grey"/>
   </g>
   <g id="cell20">
  <circle cx="250.7" cy="187.608" r="8.9283" stroke-width="0.5" stroke="black" fill="grey"/>
  <circle cx="250.7" cy="187.608" r="5.4161" stroke-width="0.5" stroke="grey" fill="grey"/>
   </g>
   <g id="cell21">
  <circle cx="731.779" cy="464.78" r="8.41271" stroke-width="0.5" stroke="black" fill="grey"/>
  <circle cx="731.779" cy="464.78" r="5.05167" stroke-width="0.5" stroke="grey" fill="grey"/>
   </g>
   <g id="cell22">
  <circle cx="568.96" cy="149.609" r="8.80772" stroke-width="0.5" stroke="black" fill="grey"/>
  <circle cx="568.96" cy="149.609" r="5.33574" stroke-width="0.5" stroke="grey" fill="grey"/>
   </g>
   <g id="cell23">
  <circle cx="321.625" cy="606.097" r="8.80772" stroke-width="0.5" stroke="black" fill="grey"/>
  <circle cx="321.625" cy="606.097" r="5.33574" stroke-width="0.5" stroke="grey" fill="grey"/>
   </g>
   <g id="cell24">
  <circle cx="609.174" cy="220.914" r="8.41271" stroke-width="0.5" stroke="black" fill="grey"/>
  <circle cx="609.174" cy="220.914" r="5.05167" stroke-width="0.5" stroke="grey" fill="grey"/>
   </g>
   <g id="cell25">
  <circle cx="415.987" cy="943.319" r="8.41271" stroke-width="0.5" stroke="black" fill="grey"/>
  <circle cx="415.987" cy="943.319" r="5.05167" stroke-width="0.5" stroke="grey" fill="grey"/>
   </g>
   <g id="cell26">
  <circle cx="683.445" cy="439.768" r="7.44584" stroke-width="0.5" stroke="black" fill="grey"/>
  <circle cx="683.445" cy="439.768" r="4.60156" stroke-width="0.5" stroke="black" fill="black"/>
   </g>
   <g id="cell27">
  <circle cx="613.201" cy="437.111" r="4.0657" stroke-width="0.5" stroke="black" fill="grey"/>
  <circle cx="613.201" cy="437.111" r="2.92016" stroke-width="0.5" stroke="black" fill="black"/>
   </g>
   <g id="cell28">
  <circle cx="704.062" cy="95.8289" r="8.41271" stroke-width="0.5" stroke="black" fill="grey"/>
  <circle cx="704.062" cy="95.8289" r="5.05167" stroke-width="0.5" stroke="grey" fill="grey"/>
   </g>
   <g id="cell29">
  <circle cx="984.145" cy="669.548" r="8.41271" stroke-width="0.5" stroke="black" fill="grey"/>
  <circle cx="984.145" cy="669.548" r="5.05167" stroke-width="0.5" stroke="grey" fill="grey"/>
   </g>
   <g id="cell30">
  <circle cx="669.897" cy="167.238" r="3.78562" stroke-width="0.5" stroke="black" fill="grey"/>
  <circle cx="669.897" cy="167.238" r="2.80027" stroke-width="0.5" stroke="black" fill="black"/>
   </g>
   <g id="cell31">
  <circle cx="375.832" cy="123.461" r="8.41271" stroke-width="0.5" stroke="black" fill="grey"/>
  <circle cx="375.832" cy="123.461" r="5.05167" stroke-width="0.5" stroke="grey" fill="grey"/>
   </g>
   <g id="cell32">
  <circle cx="294.47" cy="597.874" r="8.96831" stroke-width="0.5" stroke="black" fill="grey"/>
  <circle cx="294.47" cy="597.874" r="5.44228" stroke-width="0.5" stroke="grey" fill="grey"/>
   </g>
   <g id="cell33">
  <circle cx="319.696" cy="584.646" r="8.41271" stroke-width="0.5" stroke="black" fill="grey"/>
  <circle cx="319.696" cy="584.646" r="5.05167" stroke-width="0.5" stroke="grey" fill="grey"/>
   </g>
   <g id="cell34">
  <circle cx="427.564" cy="627.055" r="8.41271" stroke-width="0.5" stroke="black" fill="grey"/>
  <circle cx="427.564" cy="627.055" r="5.05167" stroke-width="0.5" stroke="grey" fill="grey"/>
   </g>
   <g id="cell35">
  <circle cx="971.352" cy="114.1" r="9.04745" stroke-width="0.5" stroke="black" fill="grey"/>
  <circle cx="971.352" cy="114.1" r="5.49345" stroke-width="0.5" stroke="grey" fill="grey"/>
   </g>
   <g id="cell36">
  <circle cx="206.675" cy="642.651" r="8.41271" stroke-width="0.5" stroke="black" fill="grey"/>
  <circle cx="206.675" cy="642.651" r="5.05167" stroke-width="0.5" stroke="grey" fill="grey"/>
   </g>
   <g id="cell37">
  <circle cx="978.95" cy="648.966" r="8.65127" stroke-width="0.5" stroke="black" fill="grey"/>
  <circle cx="978.95" cy="648.966" r="5.2272" stroke-width="0.5" stroke="grey" fill="grey"/>
   </g>
   <g id="cell38">
  <circle cx="252.816" cy="411.709" r="8.41271" stroke-width="0.5" stroke="black" fill="grey"/>
  <circle cx="252.816" cy="411.709" r="5.05167" stroke-width="0.5" stroke="grey" fill="grey"/>
   </g>
   <g id="cell39">
  <circle cx="491.064" cy="241.331" r="8.41271" stroke-width="0.5" stroke="black" fill="grey"/>
  <circle cx="491.064" cy="241.331" r="5.05167" stroke-width="0.5" stroke="grey" fill="grey"/>
   </g>
   <g id="cell40">
  <circle cx="154.388" cy="348.407" r="8.41271" stroke-width="0.5" stroke="black" fill="red"/>
  <circle cx="154.388" cy="348.407" r="5.05167" stroke-width="0.5" stroke="red" fill="red"/>
   </g>
   <g id="cell41">
  <circle cx="696.024" cy="649.618" r="9.08642" stroke-width="0.5" stroke="black" fill="red"/>
  <circle cx="696.024" cy="649.618" r="5.51837" stroke-width="0.5" stroke="red" fill="red"/>
   </g>
   <g id="cell42">
  <circle cx="136.021" cy="779.964" r="8.41271" stroke-width="0.5" stroke="black" fill="red"/>
  <circle cx="136.021" cy="779.964" r="5.05167" stroke-width="0.5" stroke="red" fill="red"/>
   </g>
   <g id="cell43">
  <circle cx="958.027" cy="364.514" r="8.41271" stroke-width="0.5" stroke="black" fill="red"/>
  <circle cx="958.027" cy="364.514" r="5.05167" stroke-width="0.5" stroke="red" fill="red"/>
   </g>
   <g id="cell44">
  <circle cx="817.362" cy="17.6387" r="8.48289" stroke-width="0.5" stroke="black" fill="red"/>
  <circle cx="817.362" cy="17.6387" r="5.10317" stroke-width="0.5" stroke="red" fill="red"/>
   </g>
   <g id="cell45">
  <circle cx="621.893" cy="841.709" r="8.4325" stroke-width="0.5" stroke="black" fill="red"/>
  <circle cx="621.893" cy="841.709" r="5.06552" stroke-width="0.5" stroke="red" fill="red"/>
   </g>
   <g id="cell46">
  <circle cx="77.3236" cy="962.303" r="8.41271" stroke-width="0.5" stroke="black" fill="red"/>
  <circle cx="77.3236" cy="962.303" r="5.05167" stroke-width="0.5" stroke="red" fill="red"/>
   </g>
   <g id="cell47">
  <circle cx="876.682" cy="452.1" r="8.41271" stroke-width="0.5" stroke="black" fill="red"/>
  <circle cx="876.682" cy="452.1" r="5.05167" stroke-width="0.5" stroke="red" fill="red"/>
   </g>
   <g id="cell48">
  <circle cx="984.699" cy="35.962" r="8.41271" stroke-width="0.5" stroke="black" fill="red"/>
  <circle cx="984.699" cy="35.962" r="5.05167" stroke-width="0.5" stroke="red" fill="red"/>
   </g>
   <g id="cell49">
  <circle cx="457.975" cy="731.736" r="8.41271" stroke-width="0.5" stroke="black" fill="red"/>
  <circle cx="457.975" cy="731.736" r="5.05167" stroke-width="0.5" stroke="red" fill="red"/>
   </g>
   <g id="cell50">
  <circle cx="41.7761" cy="430.399" r="8.41271" stroke-width="0.5" stroke="black" fill="red"/>
  <circle cx="41.7761" cy="430.399" r="5.05167" stroke-width="0.5" stroke="red" fill="red"/>
   </g>
   <g id="cell51">
  <circle cx="978.325" cy="115.785" r="8.41271" stroke-width="0.5" stroke="black" fill="red"/>
  <circle cx="978.325" cy="115.785" r="5.05167" stroke-width="0.5" stroke="red" fill="red"/>
   </g>
   <g id="cell52">
  <circle cx="303.641" cy="487.795" r="8.41271" stroke-width="0.5" stroke="black" fill="red"/>
  <circle cx="303.641" cy="487.795" r="5.05167" stroke-width="0.5" stroke="red" fill="red"/>
   </g>
   <g id="cell53">
  <circle cx="687.981" cy="303.175" r="8.41271" stroke-width="0.5" stroke="black" fill="red"/>
  <circle cx="687.981" cy="303.175" r="5.05167" stroke-width="0.5" stroke="red" fill="red"/>
   </g>
   <g id="cell54">
  <circle cx="416.302" cy="939.391" r="8.41271" stroke-width="0.5" stroke="black" fill="red"/>
  <circle cx="416.302" cy="939.391" r="5.05167" stroke-width="0.5" stroke="red" fill="red"/>
   </g>
   <g id="cell55">
  <circle cx="201.095" cy="699.445" r="8.41271" stroke-width="0.5" stroke="black" fill="red"/>
  <circle cx="201.095" cy="699.445" r="5.05167" stroke-width="0.5" stroke="red" fill="red"/>
   </g>
   <g id="cell56">
  <circle cx="546.011" cy="865.655" r="8.41271" stroke-width="0.5" stroke="black" fill="red"/>
  <circle cx="546.011" cy="865.655" r="5.05167" stroke-width="0.5" stroke="red" fill="red"/>
   </g>
   <g id="cell57">
  <circle cx="536.891" cy="526.151" r="8.41271" stroke-width="0.5" stroke="black" fill="red"/>
  <circle cx="536.891" cy="526.151" r="5.05167" stroke-width="0.5" stroke="red" fill="red"/>
   </g>
   <g id="cell58">
  <circle cx="80.0259" cy="902.875" r="8.80772" stroke-width="0.5" stroke="black" fill="red"/>
  <circle cx="80.0259" cy="902.875" r="5.33574" stroke-width="0.5" stroke="red" fill="red"/>
   </g>
   <g id="cell59">
  <circle cx="86.6079" cy="947.438" r="8.41271" stroke-width="0.5" stroke="black" fill="red"/>
  <circle cx="86.6079" cy="947.438" r="5.05167" stroke-width="0.5" stroke="red" fill="red"/>
   </g>
   <g id="cell60">
  <circle cx="315.276" cy="14.2295" r="8.41271" stroke-width="0.5" stroke="black" fill="red"/>
  <circle cx="315.276" cy="14.2295" r="5.05167" stroke-width="0.5" stroke="red" fill="red"/>
   </g>
   <g id="cell61">
  <circle cx="841.512" cy="137.273" r="8.4325" stroke-width="0.5" stroke="black" fill="red"/>
  <circle cx="841.512" cy="137.273" r="5.06552" stroke-width="0.5" stroke="red" fill="red"/>
   </g>
   <g id="cell62">
  <circle cx="712.594" cy="848.106" r="8.41271" stroke-width="0.5" stroke="black" fill="red"/>
  <circle cx="712.594" cy="848.106" r="5.05167" stroke-width="0.5" stroke="red" fill="red"/>
   </g>
   <g id="cell63">
  <circle cx="275.256" cy="169.148" r="8.41271" stroke-width="0.5" stroke="black" fill="red"/>
  <circle cx="275.256" cy="169.148" r="5.05167" stroke-width="0.5" stroke="red" fill="red"/>
   </g>
   <g id="cell64">
  <circle cx="584.587" cy="564.125" r="8.72828" stroke-width="0.5" stroke="black" fill="red"/>
  <circle cx="584.587" cy="564.125" r="5.28134" stroke-width="0.5" stroke="red" fill="red"/>
   </g>
   <g id="cell65">
  <circle cx="177.241" cy="821.81" r="8.41271" stroke-width="0.5" stroke="black" fill="red"/>
  <circle cx="177.241" cy="821.81" r="5.05167" stroke-width="0.5" stroke="red" fill="red"/>
   </g>
   <g id="cell66">
  <circle cx="24.2967" cy="127.78" r="8.41271" stroke-width="0.5" stroke="black" fill="red"/>
  <circle cx="24.2967" cy="127.78" r="5.05167" stroke-width="0.5" stroke="red" fill="red"/>
   </g>
   <g id="cell67">
  <circle cx="567.206" cy="278.428" r="8.68937" stroke-width="0.5" stroke="black" fill="red"/>
  <circle cx="567.206" cy="278.428" r="5.25417" stroke-width="0.5" stroke="red" fill="red"/>
   </g>
   <g id="cell68">
  <circle cx="737.938" cy="281.011" r="8.41271" stroke-width="0.5" stroke="black" fill="red"/>
  <circle cx="737.938" cy="281.011" r="5.05167" stroke-width="0.5" stroke="red" fill="red"/>
   </g>
   <g id="cell69">
  <circle cx="441.635" cy="225.139" r="8.41271" stroke-width="0.5" stroke="black" fill="red"/>
  <circle cx="441.635" cy="225.139" r="5.05167" stroke-width="0.5" stroke="red" fill="red"/>
   </g>
   <g id="cell70">
  <circle cx="595.719" cy="393.717" r="8.41271" stroke-width="0.5" stroke="black" fill="red"/>
  <circle cx="595.719" cy="393.717" r="5.05167" stroke-width="0.5" stroke="red" fill="red"/>
   </g>
   <g id="cell71">
  <circle cx="905.825" cy="591.827" r="8.41271" stroke-width="0.5" stroke="black" fill="red"/>
  <circle cx="905.825" cy="591.827" r="5.05167" stroke-width="0.5" stroke="red" fill="red"/>
   </g>
   <g id="cell72">
  <circle cx="231.9" cy="886.39" r="8.41271" stroke-width="0.5" stroke="black" fill="red"/>
  <circle cx="231.9" cy="886.39" r="5.05167" stroke-width="0.5" stroke="red" fill="red"/>
   </g>
   <g id="cell73">
  <circle cx="670.997" cy="450.264" r="8.41271" stroke-width="0.5" stroke="black" fill="red"/>
  <circle cx="670.997" cy="450.264" r="5.05167" stroke-width="0.5" stroke="red" fill="red"/>
   </g>
   <g id="cell74">
  <circle cx="864.07" cy="975.715" r="8.41271" stroke-width="0.5" stroke="black" fill="red"/>
  <circle cx="864.07" cy="975.715" r="5.05167" stroke-width="0.5" stroke="red" fill="red"/>
   </g>
   <g id="cell75">
  <circle cx="113.072" cy="295.976" r="8.41271" stroke-width="0.5" stroke="black" fill="red"/>
  <circle cx="113.072" cy="295.976" r="5.05167" stroke-width="0.5" stroke="red" fill="red"/>
   </g>
   <g id="cell76">
  <circle cx="803.047" cy="410.91" r="8.41271" stroke-width="0.5" stroke="black" fill="red"/>
  <circle cx="803.047" cy="410.91" r="5.05167" stroke-width="0.5" stroke="red" fill="red"/>
   </g>
   <g id="cell77">
  <circle cx="678.929" cy="887.846" r="8.68937" stroke-width="0.5" stroke="black" fill="red"/>
  <circle cx="678.929" cy="887.846" r="5.25417" stroke-width="0.5" stroke="red" fill="red"/>
   </g>
   <g id="cell78">
  <circle cx="577.413" cy="323.476" r="8.41271" stroke-width="0.5" stroke="black" fill="red"/>
  <circle cx="577.413" cy="323.476" r="5.05167" stroke-width="0.5" stroke="red" fill="red"/>
   </g>
   <g id="cell79">
  <circle cx="956.545" cy="704.132" r="8.41271" stroke-width="0.5" stroke="black" fill="red"/>
  <circle cx="956.545" cy="704.132" r="5.05167" stroke-width="0.5" stroke="red" fill="red"/>
   </g>
   <g id="cell80">
  <circle cx="729.333" cy="668.284" r="8.80772" stroke-width="0.5" stroke="black" fill="yellow"/>
  <circle cx="729.333" cy="668.284" r="5.33574" stroke-width="0.5" stroke="yellow" fill="yellow"/>
   </g>
   <g id="cell81">
  <circle cx="548.654" cy="951.224" r="9.00806" stroke-width="0.5" stroke="black" fill="yellow"/>
  <circle cx="548.654" cy="951.224" r="5.46807" stroke-width="0.5" stroke="yellow" fill="yellow"/>
   </g>
   <g id="cell82">
  <circle cx="638.362" cy="387.704" r="9.04745" stroke-width="0.5" stroke="black" fill="yellow"/>
  <circle cx="638.362" cy="387.704" r="5.49345" stroke-width="0.5" stroke="yellow" fill="yellow"/>
   </g>
   <g id="cell83">
  <circle cx="615.373" cy="610.617" r="8.41271" stroke-width="0.5" stroke="black" fill="yellow"/>
  <circle cx="615.373" cy="610.617" r="5.05167" stroke-width="0.5" stroke="yellow" fill="yellow"/>
   </g>
   <g id="cell84">
  <circle cx="26.6877" cy="466.017" r="8.88811" stroke-width="0.5" stroke="black" fill="yellow"/>
  <circle cx="26.6877" cy="466.017" r="5.38958" stroke-width="0.5" stroke="yellow" fill="yellow"/>
   </g>
   <g id="cell85">
  <circle cx="717.372" cy="659.105" r="8.65127" stroke-width="0.5" stroke="black" fill="yellow"/>
  <circle cx="717.372" cy="659.105" r="5.2272" stroke-width="0.5" stroke="yellow" fill="yellow"/>
   </g>
   <g id="cell86">
  <circle cx="297.386" cy="396.706" r="8.48289" stroke-width="0.5" stroke="black" fill="yellow"/>
  <circle cx="297.386" cy="396.706" r="5.10317" stroke-width="0.5" stroke="yellow" fill="yellow"/>
   </g>
   <g id="cell87">
  <circle cx="746.05" cy="421.258" r="8.88811" stroke-width="0.5" stroke="black" fill="yellow"/>
  <circle cx="746.05" cy="421.258" r="5.38958" stroke-width="0.5" stroke="yellow" fill="yellow"/>
   </g>
   <g id="cell88">
  <circle cx="144.011" cy="94.7213" r="8.41271" stroke-width="0.5" stroke="black" fill="yellow"/>
  <circle cx="144.011" cy="94.7213" r="5.05167" stroke-width="0.5" stroke="yellow" fill="yellow"/>
   </g>
   <g id="cell89">
  <circle cx="95.712" cy="576.569" r="8.41271" stroke-width="0.5" stroke="black" fill="yellow"/>
  <circle cx="95.712" cy="576.569" r="5.05167" stroke-width="0.5" stroke="yellow" fill="yellow"/>
   </g>
   <g id="cell90">
  <circle cx="583.527" cy="555.16" r="8.57856" stroke-width="0.5" stroke="black" fill="yellow"/>
  <circle cx="583.527" cy="555.16" r="5.17461" stroke-width="0.5" stroke="yellow" fill="yellow"/>
   </g>
   <g id="cell91">
  <circle cx="50.4813" cy="666.423" r="8.41271" stroke-width="0.5" stroke="black" fill="yellow"/>
  <circle cx="50.4813" cy="666.423" r="5.05167" stroke-width="0.5" stroke="yellow" fill="yellow"/>
   </g>
   <g id="cell92">
  <circle cx="636.635" cy="307.367" r="8.54454" stroke-width="0.5" stroke="black" fill="yellow"/>
  <circle cx="636.635" cy="307.367" r="5.14947" stroke-width="0.5" stroke="yellow" fill="yellow"/>
   </g>
   <g id="cell93">
  <circle cx="211.656" cy="887.48" r="8.41271" stroke-width="0.5" stroke="black" fill="yellow"/>
  <circle cx="211.656" cy="887.48" r="5.05167" stroke-width="0.5" stroke="yellow" fill="yellow"/>
   </g>
   <g id="cell94">
  <circle cx="369.122" cy="104.96" r="8.41271" stroke-width="0.5" stroke="black" fill="yellow"/>
  <circle cx="369.122" cy="104.96" r="5.05167" stroke-width="0.5" stroke="yellow" fill="yellow"/>
   </g>
   <g id="cell95">
  <circle cx="966.767" cy="883.974" r="8.41271" stroke-width="0.5" stroke="black" fill="yellow"/>
  <circle cx="966.767" cy="883.974" r="5.05167" stroke-width="0.5" stroke="yellow" fill="yellow"/>
   </g>
   <g id="cell96">
  <circle cx="808.903" cy="541.301" r="8.41271" stroke-width="0.5" stroke="black" fill="yellow"/>
  <circle cx="808.903" cy="541.301" r="5.05167" stroke-width="0.5" stroke="yellow" fill="yellow"/>
   </g>
   <g id="cell97">
  <circle cx="452.013" cy="112.855" r="8.41271" stroke-width="0.5" stroke="black" fill="yellow"/>
  <circle cx="452.013" cy="112.855" r="5.05167" stroke-width="0.5" stroke="yellow" fill="yellow"/>
   </g>
   <g id="cell98">
  <circle cx="936.08" cy="361.71" r="8.41271" stroke-width="0.5" stroke="black" fill="yellow"/>
  <circle cx="936.08" cy="361.71" r="5.05167" stroke-width="0.5" stroke="yellow" fill="yellow"/>
   </g>
   <g id="cell99">
  <circle cx="460.164" cy="978.013" r="8.41271" stroke-width="0.5" stroke="black" fill="yellow"/>
  <circle cx="460.164" cy="978.013" r="5.05167" stroke-width="0.5" stroke="yellow" fill="yellow"/>
   </g>
   <g id="cell100">
  <circle cx="162.826" cy="914.513" r="8.41271" stroke-width="0.5" stroke="black" fill="yellow"/>
  <circle cx="162.826" cy="914.513" r="5.05167" stroke-width="0.5" stroke="yellow" fill="yellow"/>
   </g>
   <g id="cell101">
  <circle cx="44.1658" cy="171.578" r="9.04745" stroke-width="0.5" stroke="black" fill="yellow"/>
  <circle cx="44.1658" cy="171.578" r="5.49345" stroke-width="0.5" stroke="yellow" fill="yellow"/>
   </g>
   <g id="cell102">
  <circle cx="602.065" cy="159.467" r="8.41271" stroke-width="0.5" stroke="black" fill="yellow"/>
  <circle cx="602.065" cy="159.467" r="5.05167" stroke-width="0.5" stroke="yellow" fill="yellow"/>
   </g>
   <g id="cell103">
  <circle cx="784.669" cy="853.289" r="8.41271" stroke-width="0.5" stroke="black" fill="yellow"/>
  <circle cx="784.669" cy="853.289" r="5.05167" stroke-width="0.5" stroke="yellow" fill="yellow"/>
   </g>
   <g id="cell104">
  <circle cx="798.023" cy="424.377" r="8.41271" stroke-width="0.5" stroke="black" fill="yellow"/>
  <circle cx="798.023" cy="424.377" r="5.05167" stroke-width="0.5" stroke="yellow" fill="yellow"/>
   </g>
   <g id="cell105">
  <circle cx="128.191" cy="410.807" r="8.41271" stroke-width="0.5" stroke="black" fill="yellow"/>
  <circle cx="128.191" cy="410.807" r="5.05167" stroke-width="0.5" stroke="yellow" fill="yellow"/>
   </g>
   <g id="cell106">
  <circle cx="52.5655" cy="983.635" r="8.41271" stroke-width="0.5" stroke="black" fill="yellow"/>
  <circle cx="52.5655" cy="983.635" r="5.05167" stroke-width="0.5" stroke="yellow" fill="yellow"/>
   </g>
   <g id="cell107">
  <circle cx="361.611" cy="452.617" r="8.41271" stroke-width="0.5" stroke="black" fill="yellow"/>
  <circle cx="361.611" cy="452.617" r="5.05167" stroke-width="0.5" stroke="yellow" fill="yellow"/>
   </g>
   <g id="cell108">
  <circle cx="724.341" cy="52.8416" r="8.41271" stroke-width="0.5" stroke="black" fill="yellow"/>
  <circle cx="724.341" cy="52.8416" r="5.05167" stroke-width="0.5" stroke="yellow" fill="yellow"/>
   </g>
   <g id="cell109">
  <circle cx="367.694" cy="991.244" r="8.41271" stroke-width="0.5" stroke="black" fill="yellow"/>
  <circle cx="367.694" cy="991.244" r="5.05167" stroke-width="0.5" stroke="yellow" fill="yellow"/>
   </g>
   <g id="cell110">
  <circle cx="867.6" cy="236.87" r="8.65127" stroke-width="0.5" stroke="black" fill="yellow"/>
  <circle cx="867.6" cy="236.87" r="5.2272" stroke-width="0.5" stroke="yellow" fill="yellow"/>
   </g>
   <g id="cell111">
  <circle cx="770.082" cy="362.155" r="8.41271" stroke-width="0.5" stroke="black" fill="yellow"/>
  <circle cx="770.082" cy="362.155" r="5.05167" stroke-width="0.5" stroke="yellow" fill="yellow"/>
   </g>
   <g id="cell112">
  <circle cx="715.85" cy="750.977" r="8.41271" stroke-width="0.5" stroke="black" fill="yellow"/>
  <circle cx="715.85" cy="750.977" r="5.05167" stroke-width="0.5" stroke="yellow" fill="yellow"/>
   </g>
   <g id="cell113">
  <circle cx="346.655" cy="534.846" r="8.41271" stroke-width="0.5" stroke="black" fill="yellow"/>
  <circle cx="346.655" cy="534.846" r="5.05167" stroke-width="0.5" stroke="yellow" fill="yellow"/>
   </g>
   <g id="cell114">
  <circle cx="72.9277" cy="347.389" r="8.41271" stroke-width="0.5" stroke="black" fill="yellow"/>
  <circle cx="72.9277" cy="347.389" r="5.05167" stroke-width="0.5" stroke="yellow" fill="yellow"/>
   </g>
   <g id="cell115">
  <circle cx="174.437" cy="28.2802" r="8.41271" stroke-width="0.5" stroke="black" fill="yellow"/>
  <circle cx="174.437" cy="28.2802" r="5.05167" stroke-width="0.5" stroke="yellow" fill="yellow"/>
   </g>
   <g id="cell116">
  <circle cx="812.288" cy="459.583" r="8.41271" stroke-width="0.5" stroke="black" fill="yellow"/>
  <circle cx="812.288" cy="459.583" r="5.05167" stroke-width="0.5" stroke="yellow" fill="yellow"/>
   </g>
   <g id="cell117">
  <circle cx="857.765" cy="360.667" r="8.96831" stroke-width="0.5" stroke="black" fill="yellow"/>
  <circle cx="857.765" cy="360.667" r="5.44228" stroke-width="0.5" stroke="yellow" fill="yellow"/>
   </g>
   <g id="cell118">
  <circle cx="936.956" cy="616.692" r="8.41271" stroke-width="0.5" stroke="black" fill="yellow"/>
  <circle cx="936.956" cy="616.692" r="5.05167" stroke-width="0.5" stroke="yellow" fill="yellow"/>
   </g>
   <g id="cell119">
  <circle cx="607.236" cy="40.6483" r="8.41271" stroke-width="0.5" stroke="black" fill="yellow"/>
  <circle cx="607.236" cy="40.6483" r="5.05167" stroke-width="0.5" stroke="yellow" fill="yellow"/>
   </g>
  </g>
 </g>
  <rect x="775" y="1035" width="200" height="10" stroke-width="2" stroke="rgb(255,255,255)" fill="rgb(0,0,0)"/>
  <text x="781.25" y="1028.75"
   font-family="Arial" font-size="25" fill="black" >
   200 &#956;m
  </text>
  <text x="25" y="1045"
   font-family="Arial" font-size="18.75" fill="black" >
   0 days, 0 hours, 0 minutes, and 3.6500 seconds
  </text>
  <rect x="0" y="70" width="1000" height="1000" stroke-width="2" stroke="rgb(0,0,0)" fill="none"/>
</svg>
