<?xml version="1.0" encoding="UTF-8" standalone="no"?>
<!-- Created with PhysiCell (http://PhysiCell.MathCancer.org/) -->
<svg 
 xmlns:dc="http://purl.org/dc/elements/1.1/" 
 xmlns:cc="http://creativecommons.org/ns#" 
 xmlns:rdf="http://www.w3.org/1999/02/22-rdf-syntax-ns#" 
 xmlns:svg="http://www.w3.org/2000/svg" 
 xmlns="http://www.w3.org/2000/svg" 
 version="1.1" 
 width="1000" 
 height="1070" 
 id="svg2">
  <rect x="0" y="0" width="1000" height="1070" stroke-width="2" stroke="white" fill="white"/>
  <text x="12.5" y="30"
   font-family="Arial" font-size="25" fill="black" >
   Current time: 0 days, 5 hours, and 30.00 minutes, z = 0.00 &#956;m
  </text>
  <text x="12.5" y="57.5"
   font-family="Arial" font-size="23.75" fill="black" >
   120 agents
  </text>
 <g id="tissue" 
    transform="translate(0,1070) scale(1,-1)">
  <g id="ECM">
  </g>
  <g id="cells">
   <g id="cell0">
  <circle cx="570.647" cy="584.588" r="8.41271" stroke-width="0.5" stroke="black" fill="grey"/>
  <circle cx="570.647" cy="584.588" r="5.05167" stroke-width="0.5" stroke="grey" fill="grey"/>
   </g>
   <g id="cell1">
  <circle cx="877.063" cy="622.385" r="8.41271" stroke-width="0.5" stroke="black" fill="grey"/>
  <circle cx="877.063" cy="622.385" r="5.05167" stroke-width="0.5" stroke="grey" fill="grey"/>
   </g>
   <g id="cell2">
  <circle cx="549.341" cy="858.089" r="9.59391" stroke-width="0.5" stroke="black" fill="grey"/>
  <circle cx="549.341" cy="858.089" r="5.83043" stroke-width="0.5" stroke="grey" fill="grey"/>
   </g>
   <g id="cell3">
  <circle cx="636.223" cy="631.916" r="9.64936" stroke-width="0.5" stroke="black" fill="grey"/>
  <circle cx="636.223" cy="631.916" r="5.86329" stroke-width="0.5" stroke="grey" fill="grey"/>
   </g>
   <g id="cell4">
  <circle cx="463.2" cy="287.925" r="10.0336" stroke-width="0.5" stroke="black" fill="grey"/>
  <circle cx="463.2" cy="287.925" r="6.08382" stroke-width="0.5" stroke="grey" fill="grey"/>
   </g>
   <g id="cell5">
  <circle cx="63.7054" cy="978.525" r="8.9283" stroke-width="0.5" stroke="black" fill="grey"/>
  <circle cx="63.7054" cy="978.525" r="5.4161" stroke-width="0.5" stroke="grey" fill="grey"/>
   </g>
   <g id="cell6">
  <circle cx="389.434" cy="446.772" r="8.41271" stroke-width="0.5" stroke="black" fill="grey"/>
  <circle cx="389.434" cy="446.772" r="5.05167" stroke-width="0.5" stroke="grey" fill="grey"/>
   </g>
   <g id="cell7">
  <circle cx="794.701" cy="511.196" r="8.41271" stroke-width="0.5" stroke="black" fill="grey"/>
  <circle cx="794.701" cy="511.196" r="5.05167" stroke-width="0.5" stroke="grey" fill="grey"/>
   </g>
   <g id="cell8">
  <circle cx="569.557" cy="364.207" r="9.90658" stroke-width="0.5" stroke="black" fill="grey"/>
  <circle cx="569.557" cy="364.207" r="6.01243" stroke-width="0.5" stroke="grey" fill="grey"/>
   </g>
   <g id="cell9">
  <circle cx="816.942" cy="79.2649" r="9.59391" stroke-width="0.5" stroke="black" fill="grey"/>
  <circle cx="816.942" cy="79.2649" r="5.83043" stroke-width="0.5" stroke="grey" fill="grey"/>
   </g>
   <g id="cell10">
  <circle cx="97.5699" cy="632.225" r="9.75192" stroke-width="0.5" stroke="black" fill="grey"/>
  <circle cx="97.5699" cy="632.225" r="5.92342" stroke-width="0.5" stroke="grey" fill="grey"/>
   </g>
   <g id="cell11">
  <circle cx="378.575" cy="791.478" r="8.84788" stroke-width="0.5" stroke="black" fill="grey"/>
  <circle cx="378.575" cy="791.478" r="5.36278" stroke-width="0.5" stroke="grey" fill="grey"/>
   </g>
   <g id="cell12">
  <circle cx="784.475" cy="107.318" r="5.05196" stroke-width="0.5" stroke="black" fill="grey"/>
  <circle cx="784.475" cy="107.318" r="3.55327" stroke-width="0.5" stroke="black" fill="black"/>
   </g>
   <g id="cell13">
  <circle cx="842.796" cy="984.36" r="8.41271" stroke-width="0.5" stroke="black" fill="grey"/>
  <circle cx="842.796" cy="984.36" r="5.05167" stroke-width="0.5" stroke="grey" fill="grey"/>
   </g>
   <g id="cell14">
  <circle cx="804.144" cy="815.099" r="5.41482" stroke-width="0.5" stroke="black" fill="grey"/>
  <circle cx="804.144" cy="815.099" r="3.59686" stroke-width="0.5" stroke="black" fill="black"/>
   </g>
   <g id="cell15">
  <circle cx="516.37" cy="785.997" r="8.41271" stroke-width="0.5" stroke="black" fill="grey"/>
  <circle cx="516.37" cy="785.997" r="5.05167" stroke-width="0.5" stroke="grey" fill="grey"/>
   </g>
   <g id="cell16">
  <circle cx="126.631" cy="702.113" r="9.82189" stroke-width="0.5" stroke="black" fill="grey"/>
  <circle cx="126.631" cy="702.113" r="5.96395" stroke-width="0.5" stroke="grey" fill="grey"/>
   </g>
   <g id="cell17">
  <circle cx="585.332" cy="135.05" r="8.41271" stroke-width="0.5" stroke="black" fill="grey"/>
  <circle cx="585.332" cy="135.05" r="5.05167" stroke-width="0.5" stroke="grey" fill="grey"/>
   </g>
   <g id="cell18">
  <circle cx="916.471" cy="738.844" r="8.51252" stroke-width="0.5" stroke="black" fill="grey"/>
  <circle cx="916.471" cy="738.844" r="5.12552" stroke-width="0.5" stroke="grey" fill="grey"/>
   </g>
   <g id="cell19">
  <circle cx="130.535" cy="419.568" r="9.53557" stroke-width="0.5" stroke="black" fill="grey"/>
  <circle cx="130.535" cy="419.568" r="5.79561" stroke-width="0.5" stroke="grey" fill="grey"/>
   </g>
   <g id="cell20">
  <circle cx="259.068" cy="189.885" r="4.81398" stroke-width="0.5" stroke="black" fill="grey"/>
  <circle cx="259.068" cy="189.885" r="3.48996" stroke-width="0.5" stroke="black" fill="black"/>
   </g>
   <g id="cell21">
  <circle cx="759.404" cy="449.351" r="8.41271" stroke-width="0.5" stroke="black" fill="grey"/>
  <circle cx="759.404" cy="449.351" r="5.05167" stroke-width="0.5" stroke="grey" fill="grey"/>
   </g>
   <g id="cell22">
  <circle cx="574.738" cy="144.899" r="9.90658" stroke-width="0.5" stroke="black" fill="grey"/>
  <circle cx="574.738" cy="144.899" r="6.01243" stroke-width="0.5" stroke="grey" fill="grey"/>
   </g>
   <g id="cell23">
  <circle cx="340.104" cy="626.228" r="9.90658" stroke-width="0.5" stroke="black" fill="grey"/>
  <circle cx="340.104" cy="626.228" r="6.01243" stroke-width="0.5" stroke="grey" fill="grey"/>
   </g>
   <g id="cell24">
  <circle cx="593.098" cy="201.053" r="8.51252" stroke-width="0.5" stroke="black" fill="grey"/>
  <circle cx="593.098" cy="201.053" r="5.12552" stroke-width="0.5" stroke="grey" fill="grey"/>
   </g>
   <g id="cell25">
  <circle cx="402.696" cy="931.33" r="8.41271" stroke-width="0.5" stroke="black" fill="grey"/>
  <circle cx="402.696" cy="931.33" r="5.05167" stroke-width="0.5" stroke="grey" fill="grey"/>
   </g>
   <g id="cell26">
  <circle cx="683.445" cy="439.768" r="2.46491" stroke-width="0.5" stroke="black" fill="grey"/>
  <circle cx="683.445" cy="439.768" r="2.28042" stroke-width="0.5" stroke="black" fill="black"/>
   </g>
   <g id="cell27">
  <circle cx="613.201" cy="437.111" r="1.92875" stroke-width="0.5" stroke="black" fill="grey"/>
  <circle cx="613.201" cy="437.111" r="1.8429" stroke-width="0.5" stroke="black" fill="black"/>
   </g>
   <g id="cell28">
  <circle cx="693.632" cy="102.329" r="3.3642" stroke-width="0.5" stroke="black" fill="grey"/>
  <circle cx="693.632" cy="102.329" r="2.62376" stroke-width="0.5" stroke="black" fill="black"/>
   </g>
   <g id="cell29">
  <circle cx="980.839" cy="679.975" r="9.12489" stroke-width="0.5" stroke="black" fill="grey"/>
  <circle cx="980.839" cy="679.975" r="5.54282" stroke-width="0.5" stroke="grey" fill="grey"/>
   </g>
   <g id="cell30">
  <circle cx="669.897" cy="167.238" r="1.87298" stroke-width="0.5" stroke="black" fill="grey"/>
  <circle cx="669.897" cy="167.238" r="1.79964" stroke-width="0.5" stroke="black" fill="black"/>
   </g>
   <g id="cell31">
  <circle cx="388.037" cy="106.113" r="8.41271" stroke-width="0.5" stroke="black" fill="grey"/>
  <circle cx="388.037" cy="106.113" r="5.05167" stroke-width="0.5" stroke="grey" fill="grey"/>
   </g>
   <g id="cell32">
  <circle cx="281.99" cy="593.873" r="4.20388" stroke-width="0.5" stroke="black" fill="grey"/>
  <circle cx="281.99" cy="593.873" r="3.22285" stroke-width="0.5" stroke="black" fill="black"/>
   </g>
   <g id="cell33">
  <circle cx="323.897" cy="571.49" r="9.4743" stroke-width="0.5" stroke="black" fill="grey"/>
  <circle cx="323.897" cy="571.49" r="5.75875" stroke-width="0.5" stroke="grey" fill="grey"/>
   </g>
   <g id="cell34">
  <circle cx="438.855" cy="631.47" r="8.41271" stroke-width="0.5" stroke="black" fill="grey"/>
  <circle cx="438.855" cy="631.47" r="5.05167" stroke-width="0.5" stroke="grey" fill="grey"/>
   </g>
   <g id="cell35">
  <circle cx="988.294" cy="123.854" r="10.0169" stroke-width="0.5" stroke="black" fill="grey"/>
  <circle cx="988.294" cy="123.854" r="6.07458" stroke-width="0.5" stroke="grey" fill="grey"/>
   </g>
   <g id="cell36">
  <circle cx="193.031" cy="630.082" r="9.41008" stroke-width="0.5" stroke="black" fill="grey"/>
  <circle cx="193.031" cy="630.082" r="5.71981" stroke-width="0.5" stroke="grey" fill="grey"/>
   </g>
   <g id="cell37">
  <circle cx="986.851" cy="653.504" r="9.82189" stroke-width="0.5" stroke="black" fill="grey"/>
  <circle cx="986.851" cy="653.504" r="5.96395" stroke-width="0.5" stroke="grey" fill="grey"/>
   </g>
   <g id="cell38">
  <circle cx="252.306" cy="396.084" r="8.41271" stroke-width="0.5" stroke="black" fill="grey"/>
  <circle cx="252.306" cy="396.084" r="5.05167" stroke-width="0.5" stroke="grey" fill="grey"/>
   </g>
   <g id="cell39">
  <circle cx="487.088" cy="241.479" r="2.62141" stroke-width="0.5" stroke="black" fill="grey"/>
  <circle cx="487.088" cy="241.479" r="2.30355" stroke-width="0.5" stroke="black" fill="black"/>
   </g>
   <g id="cell40">
  <circle cx="147.265" cy="364.47" r="8.54454" stroke-width="0.5" stroke="black" fill="red"/>
  <circle cx="147.265" cy="364.47" r="5.14947" stroke-width="0.5" stroke="red" fill="red"/>
   </g>
   <g id="cell41">
  <circle cx="698.847" cy="617.031" r="10.0336" stroke-width="0.5" stroke="black" fill="red"/>
  <circle cx="698.847" cy="617.031" r="6.08382" stroke-width="0.5" stroke="red" fill="red"/>
   </g>
   <g id="cell42">
  <circle cx="136.273" cy="749.902" r="8.41271" stroke-width="0.5" stroke="black" fill="red"/>
  <circle cx="136.273" cy="749.902" r="5.05167" stroke-width="0.5" stroke="red" fill="red"/>
   </g>
   <g id="cell43">
  <circle cx="954.023" cy="358.963" r="8.41271" stroke-width="0.5" stroke="black" fill="red"/>
  <circle cx="954.023" cy="358.963" r="5.05167" stroke-width="0.5" stroke="red" fill="red"/>
   </g>
   <g id="cell44">
  <circle cx="832.052" cy="23.8022" r="9.70201" stroke-width="0.5" stroke="black" fill="red"/>
  <circle cx="832.052" cy="23.8022" r="5.89426" stroke-width="0.5" stroke="red" fill="red"/>
   </g>
   <g id="cell45">
  <circle cx="598.581" cy="840.656" r="9.64936" stroke-width="0.5" stroke="black" fill="red"/>
  <circle cx="598.581" cy="840.656" r="5.86329" stroke-width="0.5" stroke="red" fill="red"/>
   </g>
   <g id="cell46">
  <circle cx="74.1695" cy="958.053" r="8.41271" stroke-width="0.5" stroke="black" fill="red"/>
  <circle cx="74.1695" cy="958.053" r="5.05167" stroke-width="0.5" stroke="red" fill="red"/>
   </g>
   <g id="cell47">
  <circle cx="868.396" cy="457.761" r="9.41008" stroke-width="0.5" stroke="black" fill="red"/>
  <circle cx="868.396" cy="457.761" r="5.71981" stroke-width="0.5" stroke="red" fill="red"/>
   </g>
   <g id="cell48">
  <circle cx="990.611" cy="57.9582" r="9.44256" stroke-width="0.5" stroke="black" fill="red"/>
  <circle cx="990.611" cy="57.9582" r="5.73955" stroke-width="0.5" stroke="red" fill="red"/>
   </g>
   <g id="cell49">
  <circle cx="453.783" cy="735.156" r="8.88811" stroke-width="0.5" stroke="black" fill="red"/>
  <circle cx="453.783" cy="735.156" r="5.38958" stroke-width="0.5" stroke="red" fill="red"/>
   </g>
   <g id="cell50">
  <circle cx="67.4776" cy="426.781" r="8.68937" stroke-width="0.5" stroke="black" fill="red"/>
  <circle cx="67.4776" cy="426.781" r="5.25417" stroke-width="0.5" stroke="red" fill="red"/>
   </g>
   <g id="cell51">
  <circle cx="971.089" cy="112.503" r="3.27739" stroke-width="0.5" stroke="black" fill="red"/>
  <circle cx="971.089" cy="112.503" r="2.58717" stroke-width="0.5" stroke="black" fill="black"/>
   </g>
   <g id="cell52">
  <circle cx="307.5" cy="519.653" r="8.41271" stroke-width="0.5" stroke="black" fill="red"/>
  <circle cx="307.5" cy="519.653" r="5.05167" stroke-width="0.5" stroke="red" fill="red"/>
   </g>
   <g id="cell53">
  <circle cx="700.29" cy="307.841" r="8.41271" stroke-width="0.5" stroke="black" fill="red"/>
  <circle cx="700.29" cy="307.841" r="5.05167" stroke-width="0.5" stroke="red" fill="red"/>
   </g>
   <g id="cell54">
  <circle cx="414.005" cy="940.066" r="9.34292" stroke-width="0.5" stroke="black" fill="red"/>
  <circle cx="414.005" cy="940.066" r="5.67875" stroke-width="0.5" stroke="red" fill="red"/>
   </g>
   <g id="cell55">
  <circle cx="202.19" cy="722.008" r="8.41271" stroke-width="0.5" stroke="black" fill="red"/>
  <circle cx="202.19" cy="722.008" r="5.05167" stroke-width="0.5" stroke="red" fill="red"/>
   </g>
   <g id="cell56">
  <circle cx="559.745" cy="865.593" r="8.41271" stroke-width="0.5" stroke="black" fill="red"/>
  <circle cx="559.745" cy="865.593" r="5.05167" stroke-width="0.5" stroke="red" fill="red"/>
   </g>
   <g id="cell57">
  <circle cx="526.427" cy="528.446" r="9.5651" stroke-width="0.5" stroke="black" fill="red"/>
  <circle cx="526.427" cy="528.446" r="5.81327" stroke-width="0.5" stroke="red" fill="red"/>
   </g>
   <g id="cell58">
  <circle cx="83.8575" cy="898.326" r="9.90658" stroke-width="0.5" stroke="black" fill="red"/>
  <circle cx="83.8575" cy="898.326" r="6.01243" stroke-width="0.5" stroke="red" fill="red"/>
   </g>
   <g id="cell59">
  <circle cx="95.7993" cy="939.966" r="8.41271" stroke-width="0.5" stroke="black" fill="red"/>
  <circle cx="95.7993" cy="939.966" r="5.05167" stroke-width="0.5" stroke="red" fill="red"/>
   </g>
   <g id="cell60">
  <circle cx="310.497" cy="21.3736" r="9.5651" stroke-width="0.5" stroke="black" fill="red"/>
  <circle cx="310.497" cy="21.3736" r="5.81327" stroke-width="0.5" stroke="red" fill="red"/>
   </g>
   <g id="cell61">
  <circle cx="851.622" cy="143.241" r="9.64936" stroke-width="0.5" stroke="black" fill="red"/>
  <circle cx="851.622" cy="143.241" r="5.86329" stroke-width="0.5" stroke="red" fill="red"/>
   </g>
   <g id="cell62">
  <circle cx="704.878" cy="847.823" r="8.41271" stroke-width="0.5" stroke="black" fill="red"/>
  <circle cx="704.878" cy="847.823" r="5.05167" stroke-width="0.5" stroke="red" fill="red"/>
   </g>
   <g id="cell63">
  <circle cx="272.588" cy="171.584" r="9.59391" stroke-width="0.5" stroke="black" fill="red"/>
  <circle cx="272.588" cy="171.584" r="5.83043" stroke-width="0.5" stroke="red" fill="red"/>
   </g>
   <g id="cell64">
  <circle cx="591.994" cy="571.883" r="9.86542" stroke-width="0.5" stroke="black" fill="red"/>
  <circle cx="591.994" cy="571.883" r="5.98895" stroke-width="0.5" stroke="red" fill="red"/>
   </g>
   <g id="cell65">
  <circle cx="165.951" cy="836.08" r="8.41271" stroke-width="0.5" stroke="black" fill="red"/>
  <circle cx="165.951" cy="836.08" r="5.05167" stroke-width="0.5" stroke="red" fill="red"/>
   </g>
   <g id="cell66">
  <circle cx="22.0867" cy="105.27" r="8.41271" stroke-width="0.5" stroke="black" fill="red"/>
  <circle cx="22.0867" cy="105.27" r="5.05167" stroke-width="0.5" stroke="red" fill="red"/>
   </g>
   <g id="cell67">
  <circle cx="582.92" cy="274.062" r="9.84395" stroke-width="0.5" stroke="black" fill="red"/>
  <circle cx="582.92" cy="274.062" r="5.97665" stroke-width="0.5" stroke="red" fill="red"/>
   </g>
   <g id="cell68">
  <circle cx="737.7" cy="307.61" r="9.59391" stroke-width="0.5" stroke="black" fill="red"/>
  <circle cx="737.7" cy="307.61" r="5.83043" stroke-width="0.5" stroke="red" fill="red"/>
   </g>
   <g id="cell69">
  <circle cx="446.804" cy="210.386" r="8.4325" stroke-width="0.5" stroke="black" fill="red"/>
  <circle cx="446.804" cy="210.386" r="5.06552" stroke-width="0.5" stroke="red" fill="red"/>
   </g>
   <g id="cell70">
  <circle cx="587.63" cy="410.389" r="9.59391" stroke-width="0.5" stroke="black" fill="red"/>
  <circle cx="587.63" cy="410.389" r="5.83043" stroke-width="0.5" stroke="red" fill="red"/>
   </g>
   <g id="cell71">
  <circle cx="902.913" cy="581.658" r="8.41271" stroke-width="0.5" stroke="black" fill="red"/>
  <circle cx="902.913" cy="581.658" r="5.05167" stroke-width="0.5" stroke="red" fill="red"/>
   </g>
   <g id="cell72">
  <circle cx="232.149" cy="894.979" r="8.41271" stroke-width="0.5" stroke="black" fill="red"/>
  <circle cx="232.149" cy="894.979" r="5.05167" stroke-width="0.5" stroke="red" fill="red"/>
   </g>
   <g id="cell73">
  <circle cx="668.25" cy="458.548" r="8.41271" stroke-width="0.5" stroke="black" fill="red"/>
  <circle cx="668.25" cy="458.548" r="5.05167" stroke-width="0.5" stroke="red" fill="red"/>
   </g>
   <g id="cell74">
  <circle cx="852.561" cy="985.889" r="8.41271" stroke-width="0.5" stroke="black" fill="red"/>
  <circle cx="852.561" cy="985.889" r="5.05167" stroke-width="0.5" stroke="red" fill="red"/>
   </g>
   <g id="cell75">
  <circle cx="110.791" cy="293.035" r="8.41271" stroke-width="0.5" stroke="black" fill="red"/>
  <circle cx="110.791" cy="293.035" r="5.05167" stroke-width="0.5" stroke="red" fill="red"/>
   </g>
   <g id="cell76">
  <circle cx="825.123" cy="418.957" r="8.41271" stroke-width="0.5" stroke="black" fill="red"/>
  <circle cx="825.123" cy="418.957" r="5.05167" stroke-width="0.5" stroke="red" fill="red"/>
   </g>
   <g id="cell77">
  <circle cx="700.936" cy="875.336" r="9.84395" stroke-width="0.5" stroke="black" fill="red"/>
  <circle cx="700.936" cy="875.336" r="5.97665" stroke-width="0.5" stroke="red" fill="red"/>
   </g>
   <g id="cell78">
  <circle cx="583.289" cy="300.683" r="9.59391" stroke-width="0.5" stroke="black" fill="red"/>
  <circle cx="583.289" cy="300.683" r="5.83043" stroke-width="0.5" stroke="red" fill="red"/>
   </g>
   <g id="cell79">
  <circle cx="949.793" cy="716.011" r="9.23685" stroke-width="0.5" stroke="black" fill="red"/>
  <circle cx="949.793" cy="716.011" r="5.61315" stroke-width="0.5" stroke="red" fill="red"/>
   </g>
   <g id="cell80">
  <circle cx="739.299" cy="682.34" r="9.90658" stroke-width="0.5" stroke="black" fill="yellow"/>
  <circle cx="739.299" cy="682.34" r="6.01243" stroke-width="0.5" stroke="yellow" fill="yellow"/>
   </g>
   <g id="cell81">
  <circle cx="563.611" cy="943.405" r="9.99984" stroke-width="0.5" stroke="black" fill="yellow"/>
  <circle cx="563.611" cy="943.405" r="6.06503" stroke-width="0.5" stroke="yellow" fill="yellow"/>
   </g>
   <g id="cell82">
  <circle cx="652.467" cy="394.764" r="10.0169" stroke-width="0.5" stroke="black" fill="yellow"/>
  <circle cx="652.467" cy="394.764" r="6.07458" stroke-width="0.5" stroke="yellow" fill="yellow"/>
   </g>
   <g id="cell83">
  <circle cx="616.731" cy="620.076" r="9.4743" stroke-width="0.5" stroke="black" fill="yellow"/>
  <circle cx="616.731" cy="620.076" r="5.75875" stroke-width="0.5" stroke="yellow" fill="yellow"/>
   </g>
   <g id="cell84">
  <circle cx="22.3156" cy="462.637" r="9.94548" stroke-width="0.5" stroke="black" fill="yellow"/>
  <circle cx="22.3156" cy="462.637" r="6.03448" stroke-width="0.5" stroke="yellow" fill="yellow"/>
   </g>
   <g id="cell85">
  <circle cx="724.789" cy="696.752" r="9.82189" stroke-width="0.5" stroke="black" fill="yellow"/>
  <circle cx="724.789" cy="696.752" r="5.96395" stroke-width="0.5" stroke="yellow" fill="yellow"/>
   </g>
   <g id="cell86">
  <circle cx="290.827" cy="399.404" r="9.70201" stroke-width="0.5" stroke="black" fill="yellow"/>
  <circle cx="290.827" cy="399.404" r="5.89426" stroke-width="0.5" stroke="yellow" fill="yellow"/>
   </g>
   <g id="cell87">
  <circle cx="726.952" cy="418.905" r="9.94548" stroke-width="0.5" stroke="black" fill="yellow"/>
  <circle cx="726.952" cy="418.905" r="6.03448" stroke-width="0.5" stroke="yellow" fill="yellow"/>
   </g>
   <g id="cell88">
  <circle cx="132.525" cy="113.204" r="8.41271" stroke-width="0.5" stroke="black" fill="yellow"/>
  <circle cx="132.525" cy="113.204" r="5.05167" stroke-width="0.5" stroke="yellow" fill="yellow"/>
   </g>
   <g id="cell89">
  <circle cx="92.9256" cy="561.394" r="8.41271" stroke-width="0.5" stroke="black" fill="yellow"/>
  <circle cx="92.9256" cy="561.394" r="5.05167" stroke-width="0.5" stroke="yellow" fill="yellow"/>
   </g>
   <g id="cell90">
  <circle cx="576.877" cy="574.801" r="9.77588" stroke-width="0.5" stroke="black" fill="yellow"/>
  <circle cx="576.877" cy="574.801" r="5.93735" stroke-width="0.5" stroke="yellow" fill="yellow"/>
   </g>
   <g id="cell91">
  <circle cx="28.1253" cy="670.408" r="9.04745" stroke-width="0.5" stroke="black" fill="yellow"/>
  <circle cx="28.1253" cy="670.408" r="5.49345" stroke-width="0.5" stroke="yellow" fill="yellow"/>
   </g>
   <g id="cell92">
  <circle cx="626.419" cy="291.175" r="9.75192" stroke-width="0.5" stroke="black" fill="yellow"/>
  <circle cx="626.419" cy="291.175" r="5.92342" stroke-width="0.5" stroke="yellow" fill="yellow"/>
   </g>
   <g id="cell93">
  <circle cx="189.708" cy="893.421" r="8.41271" stroke-width="0.5" stroke="black" fill="yellow"/>
  <circle cx="189.708" cy="893.421" r="5.05167" stroke-width="0.5" stroke="yellow" fill="yellow"/>
   </g>
   <g id="cell94">
  <circle cx="361.967" cy="81.7135" r="8.41271" stroke-width="0.5" stroke="black" fill="yellow"/>
  <circle cx="361.967" cy="81.7135" r="5.05167" stroke-width="0.5" stroke="yellow" fill="yellow"/>
   </g>
   <g id="cell95">
  <circle cx="984.38" cy="866.473" r="8.48289" stroke-width="0.5" stroke="black" fill="yellow"/>
  <circle cx="984.38" cy="866.473" r="5.10317" stroke-width="0.5" stroke="yellow" fill="yellow"/>
   </g>
   <g id="cell96">
  <circle cx="815.623" cy="523.262" r="8.57856" stroke-width="0.5" stroke="black" fill="yellow"/>
  <circle cx="815.623" cy="523.262" r="5.17461" stroke-width="0.5" stroke="yellow" fill="yellow"/>
   </g>
   <g id="cell97">
  <circle cx="456.257" cy="126.639" r="8.41271" stroke-width="0.5" stroke="black" fill="yellow"/>
  <circle cx="456.257" cy="126.639" r="5.05167" stroke-width="0.5" stroke="yellow" fill="yellow"/>
   </g>
   <g id="cell98">
  <circle cx="914.674" cy="349.287" r="9.59391" stroke-width="0.5" stroke="black" fill="yellow"/>
  <circle cx="914.674" cy="349.287" r="5.83043" stroke-width="0.5" stroke="yellow" fill="yellow"/>
   </g>
   <g id="cell99">
  <circle cx="442.321" cy="959.623" r="8.41271" stroke-width="0.5" stroke="black" fill="yellow"/>
  <circle cx="442.321" cy="959.623" r="5.05167" stroke-width="0.5" stroke="yellow" fill="yellow"/>
   </g>
   <g id="cell100">
  <circle cx="170.602" cy="906.794" r="8.7678" stroke-width="0.5" stroke="black" fill="yellow"/>
  <circle cx="170.602" cy="906.794" r="5.30857" stroke-width="0.5" stroke="yellow" fill="yellow"/>
   </g>
   <g id="cell101">
  <circle cx="34.9596" cy="177.991" r="10.0169" stroke-width="0.5" stroke="black" fill="yellow"/>
  <circle cx="34.9596" cy="177.991" r="6.07458" stroke-width="0.5" stroke="yellow" fill="yellow"/>
   </g>
   <g id="cell102">
  <circle cx="608.928" cy="151.059" r="8.41271" stroke-width="0.5" stroke="black" fill="yellow"/>
  <circle cx="608.928" cy="151.059" r="5.05167" stroke-width="0.5" stroke="yellow" fill="yellow"/>
   </g>
   <g id="cell103">
  <circle cx="802.463" cy="847.027" r="8.41271" stroke-width="0.5" stroke="black" fill="yellow"/>
  <circle cx="802.463" cy="847.027" r="5.05167" stroke-width="0.5" stroke="yellow" fill="yellow"/>
   </g>
   <g id="cell104">
  <circle cx="790.055" cy="439.545" r="8.45606" stroke-width="0.5" stroke="black" fill="yellow"/>
  <circle cx="790.055" cy="439.545" r="5.08296" stroke-width="0.5" stroke="yellow" fill="yellow"/>
   </g>
   <g id="cell105">
  <circle cx="139.436" cy="401.136" r="9.62199" stroke-width="0.5" stroke="black" fill="yellow"/>
  <circle cx="139.436" cy="401.136" r="5.8471" stroke-width="0.5" stroke="yellow" fill="yellow"/>
   </g>
   <g id="cell106">
  <circle cx="52.9828" cy="964.961" r="8.41271" stroke-width="0.5" stroke="black" fill="yellow"/>
  <circle cx="52.9828" cy="964.961" r="5.05167" stroke-width="0.5" stroke="yellow" fill="yellow"/>
   </g>
   <g id="cell107">
  <circle cx="332.992" cy="436.613" r="8.41271" stroke-width="0.5" stroke="black" fill="yellow"/>
  <circle cx="332.992" cy="436.613" r="5.05167" stroke-width="0.5" stroke="yellow" fill="yellow"/>
   </g>
   <g id="cell108">
  <circle cx="714.756" cy="46.5997" r="9.4743" stroke-width="0.5" stroke="black" fill="yellow"/>
  <circle cx="714.756" cy="46.5997" r="5.75875" stroke-width="0.5" stroke="yellow" fill="yellow"/>
   </g>
   <g id="cell109">
  <circle cx="375.251" cy="974.933" r="8.41271" stroke-width="0.5" stroke="black" fill="yellow"/>
  <circle cx="375.251" cy="974.933" r="5.05167" stroke-width="0.5" stroke="yellow" fill="yellow"/>
   </g>
   <g id="cell110">
  <circle cx="852.334" cy="228.437" r="9.82189" stroke-width="0.5" stroke="black" fill="yellow"/>
  <circle cx="852.334" cy="228.437" r="5.96395" stroke-width="0.5" stroke="yellow" fill="yellow"/>
   </g>
   <g id="cell111">
  <circle cx="760.97" cy="369.991" r="8.41271" stroke-width="0.5" stroke="black" fill="yellow"/>
  <circle cx="760.97" cy="369.991" r="5.05167" stroke-width="0.5" stroke="yellow" fill="yellow"/>
   </g>
   <g id="cell112">
  <circle cx="693.124" cy="735.405" r="8.41271" stroke-width="0.5" stroke="black" fill="yellow"/>
  <circle cx="693.124" cy="735.405" r="5.05167" stroke-width="0.5" stroke="yellow" fill="yellow"/>
   </g>
   <g id="cell113">
  <circle cx="344.438" cy="557.475" r="8.41271" stroke-width="0.5" stroke="black" fill="yellow"/>
  <circle cx="344.438" cy="557.475" r="5.05167" stroke-width="0.5" stroke="yellow" fill="yellow"/>
   </g>
   <g id="cell114">
  <circle cx="76.0316" cy="366.168" r="9.00806" stroke-width="0.5" stroke="black" fill="yellow"/>
  <circle cx="76.0316" cy="366.168" r="5.46807" stroke-width="0.5" stroke="yellow" fill="yellow"/>
   </g>
   <g id="cell115">
  <circle cx="168.563" cy="73.1612" r="8.41271" stroke-width="0.5" stroke="black" fill="yellow"/>
  <circle cx="168.563" cy="73.1612" r="5.05167" stroke-width="0.5" stroke="yellow" fill="yellow"/>
   </g>
   <g id="cell116">
  <circle cx="812.779" cy="444.694" r="8.51252" stroke-width="0.5" stroke="black" fill="yellow"/>
  <circle cx="812.779" cy="444.694" r="5.12552" stroke-width="0.5" stroke="yellow" fill="yellow"/>
   </g>
   <g id="cell117">
  <circle cx="855.092" cy="369.889" r="3.75209" stroke-width="0.5" stroke="black" fill="yellow"/>
  <circle cx="855.092" cy="369.889" r="3.01917" stroke-width="0.5" stroke="black" fill="black"/>
   </g>
   <g id="cell118">
  <circle cx="938.304" cy="598.324" r="9.08642" stroke-width="0.5" stroke="black" fill="yellow"/>
  <circle cx="938.304" cy="598.324" r="5.51837" stroke-width="0.5" stroke="yellow" fill="yellow"/>
   </g>
   <g id="cell119">
  <circle cx="625.938" cy="52.5158" r="8.45606" stroke-width="0.5" stroke="black" fill="yellow"/>
  <circle cx="625.938" cy="52.5158" r="5.08296" stroke-width="0.5" stroke="yellow" fill="yellow"/>
   </g>
  </g>
 </g>
  <rect x="775" y="1035" width="200" height="10" stroke-width="2" stroke="rgb(255,255,255)" fill="rgb(0,0,0)"/>
  <text x="781.25" y="1028.75"
   font-family="Arial" font-size="25" fill="black" >
   200 &#956;m
  </text>
  <text x="25" y="1045"
   font-family="Arial" font-size="18.75" fill="black" >
   0 days, 0 hours, 0 minutes, and 9.8366 seconds
  </text>
  <rect x="0" y="70" width="1000" height="1000" stroke-width="2" stroke="rgb(0,0,0)" fill="none"/>
</svg>
