<?xml version="1.0" encoding="UTF-8" standalone="no"?>
<!-- Created with PhysiCell (http://PhysiCell.MathCancer.org/) -->
<svg 
 xmlns:dc="http://purl.org/dc/elements/1.1/" 
 xmlns:cc="http://creativecommons.org/ns#" 
 xmlns:rdf="http://www.w3.org/1999/02/22-rdf-syntax-ns#" 
 xmlns:svg="http://www.w3.org/2000/svg" 
 xmlns="http://www.w3.org/2000/svg" 
 version="1.1" 
 width="1000" 
 height="1070" 
 id="svg2">
  <rect x="0" y="0" width="1000" height="1070" stroke-width="2" stroke="white" fill="white"/>
  <text x="12.5" y="30"
   font-family="Arial" font-size="25" fill="black" >
   Current time: 0 days, 9 hours, and 0.00 minutes, z = 0.00 &#956;m
  </text>
  <text x="12.5" y="57.5"
   font-family="Arial" font-size="23.75" fill="black" >
   120 agents
  </text>
 <g id="tissue" 
    transform="translate(0,1070) scale(1,-1)">
  <g id="ECM">
  </g>
  <g id="cells">
   <g id="cell0">
  <circle cx="511.819" cy="573.652" r="10.3811" stroke-width="0.5" stroke="black" fill="grey"/>
  <circle cx="511.819" cy="573.652" r="6.26814" stroke-width="0.5" stroke="grey" fill="grey"/>
   </g>
   <g id="cell1">
  <circle cx="839.837" cy="610.74" r="1.19198" stroke-width="0.5" stroke="black" fill="grey"/>
  <circle cx="839.837" cy="610.74" r="1.1876" stroke-width="0.5" stroke="black" fill="black"/>
   </g>
   <g id="cell2">
  <circle cx="550.341" cy="824.071" r="2.52447" stroke-width="0.5" stroke="black" fill="grey"/>
  <circle cx="550.341" cy="824.071" r="2.37604" stroke-width="0.5" stroke="black" fill="black"/>
   </g>
   <g id="cell3">
  <circle cx="609.231" cy="638.404" r="10.3325" stroke-width="0.5" stroke="black" fill="grey"/>
  <circle cx="609.231" cy="638.404" r="6.24369" stroke-width="0.5" stroke="grey" fill="grey"/>
   </g>
   <g id="cell4">
  <circle cx="415.352" cy="304.555" r="1.98761" stroke-width="0.5" stroke="black" fill="grey"/>
  <circle cx="415.352" cy="304.555" r="1.8872" stroke-width="0.5" stroke="black" fill="black"/>
   </g>
   <g id="cell5">
  <circle cx="75.5167" cy="967.659" r="4.82816" stroke-width="0.5" stroke="black" fill="grey"/>
  <circle cx="75.5167" cy="967.659" r="3.53952" stroke-width="0.5" stroke="black" fill="black"/>
   </g>
   <g id="cell6">
  <circle cx="383.496" cy="477.516" r="10.3933" stroke-width="0.5" stroke="black" fill="grey"/>
  <circle cx="383.496" cy="477.516" r="6.27417" stroke-width="0.5" stroke="grey" fill="grey"/>
   </g>
   <g id="cell7">
  <circle cx="841.81" cy="550.454" r="10.1634" stroke-width="0.5" stroke="black" fill="grey"/>
  <circle cx="841.81" cy="550.454" r="6.1549" stroke-width="0.5" stroke="grey" fill="grey"/>
   </g>
   <g id="cell8">
  <circle cx="593.348" cy="417.253" r="10.0336" stroke-width="0.5" stroke="black" fill="grey"/>
  <circle cx="593.348" cy="417.253" r="6.08382" stroke-width="0.5" stroke="grey" fill="grey"/>
   </g>
   <g id="cell9">
  <circle cx="847.148" cy="85.0327" r="1.38109" stroke-width="0.5" stroke="black" fill="grey"/>
  <circle cx="847.148" cy="85.0327" r="1.3695" stroke-width="0.5" stroke="black" fill="black"/>
   </g>
   <g id="cell10">
  <circle cx="138.473" cy="636.908" r="10.2433" stroke-width="0.5" stroke="black" fill="grey"/>
  <circle cx="138.473" cy="636.908" r="6.19748" stroke-width="0.5" stroke="grey" fill="grey"/>
   </g>
   <g id="cell11">
  <circle cx="327.901" cy="837.707" r="9.7273" stroke-width="0.5" stroke="black" fill="grey"/>
  <circle cx="327.901" cy="837.707" r="5.90906" stroke-width="0.5" stroke="grey" fill="grey"/>
   </g>
   <g id="cell12">
  <circle cx="782.392" cy="134.503" r="1.92875" stroke-width="0.5" stroke="black" fill="grey"/>
  <circle cx="782.392" cy="134.503" r="1.8429" stroke-width="0.5" stroke="black" fill="black"/>
   </g>
   <g id="cell13">
  <circle cx="880.851" cy="956.12" r="2.13136" stroke-width="0.5" stroke="black" fill="grey"/>
  <circle cx="880.851" cy="956.12" r="2.01941" stroke-width="0.5" stroke="black" fill="black"/>
   </g>
   <g id="cell14">
  <circle cx="838.103" cy="829.667" r="2.85621" stroke-width="0.5" stroke="black" fill="grey"/>
  <circle cx="838.103" cy="829.667" r="2.58619" stroke-width="0.5" stroke="black" fill="black"/>
   </g>
   <g id="cell15">
  <circle cx="525.275" cy="767.583" r="2.8867" stroke-width="0.5" stroke="black" fill="grey"/>
  <circle cx="525.275" cy="767.583" r="2.59818" stroke-width="0.5" stroke="black" fill="black"/>
   </g>
   <g id="cell16">
  <circle cx="150.291" cy="737.642" r="10.2328" stroke-width="0.5" stroke="black" fill="grey"/>
  <circle cx="150.291" cy="737.642" r="6.19197" stroke-width="0.5" stroke="grey" fill="grey"/>
   </g>
   <g id="cell17">
  <circle cx="576.613" cy="145.199" r="1.34721" stroke-width="0.5" stroke="black" fill="grey"/>
  <circle cx="576.613" cy="145.199" r="1.33735" stroke-width="0.5" stroke="black" fill="black"/>
   </g>
   <g id="cell18">
  <circle cx="946.436" cy="699.367" r="9.00806" stroke-width="0.5" stroke="black" fill="grey"/>
  <circle cx="946.436" cy="699.367" r="5.46807" stroke-width="0.5" stroke="grey" fill="grey"/>
   </g>
   <g id="cell19">
  <circle cx="91.6991" cy="418.138" r="2.13013" stroke-width="0.5" stroke="black" fill="grey"/>
  <circle cx="91.6991" cy="418.138" r="2.01031" stroke-width="0.5" stroke="black" fill="black"/>
   </g>
   <g id="cell20">
  <circle cx="237.051" cy="172.536" r="9.7992" stroke-width="0.5" stroke="black" fill="grey"/>
  <circle cx="237.051" cy="172.536" r="5.95086" stroke-width="0.5" stroke="grey" fill="grey"/>
   </g>
   <g id="cell21">
  <circle cx="724.733" cy="441.273" r="2.2615" stroke-width="0.5" stroke="black" fill="grey"/>
  <circle cx="724.733" cy="441.273" r="2.07535" stroke-width="0.5" stroke="black" fill="black"/>
   </g>
   <g id="cell22">
  <circle cx="565.337" cy="126.183" r="1.25143" stroke-width="0.5" stroke="black" fill="grey"/>
  <circle cx="565.337" cy="126.183" r="1.24538" stroke-width="0.5" stroke="black" fill="black"/>
   </g>
   <g id="cell23">
  <circle cx="303.9" cy="607.146" r="1.92429" stroke-width="0.5" stroke="black" fill="grey"/>
  <circle cx="303.9" cy="607.146" r="1.88442" stroke-width="0.5" stroke="black" fill="black"/>
   </g>
   <g id="cell24">
  <circle cx="608.156" cy="222.418" r="10.3545" stroke-width="0.5" stroke="black" fill="grey"/>
  <circle cx="608.156" cy="222.418" r="6.25485" stroke-width="0.5" stroke="grey" fill="grey"/>
   </g>
   <g id="cell25">
  <circle cx="391.324" cy="976.029" r="1.91187" stroke-width="0.5" stroke="black" fill="grey"/>
  <circle cx="391.324" cy="976.029" r="1.83777" stroke-width="0.5" stroke="black" fill="black"/>
   </g>
   <g id="cell26">
  <circle cx="637.481" cy="467.898" r="10.3247" stroke-width="0.5" stroke="black" fill="grey"/>
  <circle cx="637.481" cy="467.898" r="6.23971" stroke-width="0.5" stroke="grey" fill="grey"/>
   </g>
   <g id="cell27">
  <circle cx="601.791" cy="449.353" r="1.20653" stroke-width="0.5" stroke="black" fill="grey"/>
  <circle cx="601.791" cy="449.353" r="1.20179" stroke-width="0.5" stroke="black" fill="black"/>
   </g>
   <g id="cell28">
  <circle cx="676.092" cy="133.275" r="10.2728" stroke-width="0.5" stroke="black" fill="grey"/>
  <circle cx="676.092" cy="133.275" r="6.21295" stroke-width="0.5" stroke="grey" fill="grey"/>
   </g>
   <g id="cell29">
  <circle cx="985.3" cy="657.371" r="10.34" stroke-width="0.5" stroke="black" fill="grey"/>
  <circle cx="985.3" cy="657.371" r="6.24753" stroke-width="0.5" stroke="grey" fill="grey"/>
   </g>
   <g id="cell30">
  <circle cx="721.658" cy="165.237" r="8.68937" stroke-width="0.5" stroke="black" fill="grey"/>
  <circle cx="721.658" cy="165.237" r="5.25417" stroke-width="0.5" stroke="grey" fill="grey"/>
   </g>
   <g id="cell31">
  <circle cx="385.224" cy="118.473" r="9.7992" stroke-width="0.5" stroke="black" fill="grey"/>
  <circle cx="385.224" cy="118.473" r="5.95086" stroke-width="0.5" stroke="grey" fill="grey"/>
   </g>
   <g id="cell32">
  <circle cx="319.499" cy="595.194" r="1.37564" stroke-width="0.5" stroke="black" fill="grey"/>
  <circle cx="319.499" cy="595.194" r="1.36569" stroke-width="0.5" stroke="black" fill="black"/>
   </g>
   <g id="cell33">
  <circle cx="310.636" cy="554.328" r="2.02023" stroke-width="0.5" stroke="black" fill="grey"/>
  <circle cx="310.636" cy="554.328" r="1.9691" stroke-width="0.5" stroke="black" fill="black"/>
   </g>
   <g id="cell34">
  <circle cx="435.362" cy="649.251" r="1.76957" stroke-width="0.5" stroke="black" fill="grey"/>
  <circle cx="435.362" cy="649.251" r="1.71615" stroke-width="0.5" stroke="black" fill="black"/>
   </g>
   <g id="cell35">
  <circle cx="943.211" cy="96.4989" r="8.41271" stroke-width="0.5" stroke="black" fill="grey"/>
  <circle cx="943.211" cy="96.4989" r="5.05167" stroke-width="0.5" stroke="grey" fill="grey"/>
   </g>
   <g id="cell36">
  <circle cx="208.916" cy="622.395" r="1.54796" stroke-width="0.5" stroke="black" fill="grey"/>
  <circle cx="208.916" cy="622.395" r="1.52398" stroke-width="0.5" stroke="black" fill="black"/>
   </g>
   <g id="cell37">
  <circle cx="991.105" cy="649.704" r="1.47065" stroke-width="0.5" stroke="black" fill="grey"/>
  <circle cx="991.105" cy="649.704" r="1.45328" stroke-width="0.5" stroke="black" fill="black"/>
   </g>
   <g id="cell38">
  <circle cx="228.983" cy="445.784" r="4.52779" stroke-width="0.5" stroke="black" fill="grey"/>
  <circle cx="228.983" cy="445.784" r="3.41311" stroke-width="0.5" stroke="black" fill="black"/>
   </g>
   <g id="cell39">
  <circle cx="496.525" cy="254.099" r="1.47065" stroke-width="0.5" stroke="black" fill="grey"/>
  <circle cx="496.525" cy="254.099" r="1.45328" stroke-width="0.5" stroke="black" fill="black"/>
   </g>
   <g id="cell40">
  <circle cx="174.357" cy="354.902" r="10.1879" stroke-width="0.5" stroke="black" fill="red"/>
  <circle cx="174.357" cy="354.902" r="6.16807" stroke-width="0.5" stroke="red" fill="red"/>
   </g>
   <g id="cell41">
  <circle cx="679.693" cy="689.354" r="10.2821" stroke-width="0.5" stroke="black" fill="red"/>
  <circle cx="679.693" cy="689.354" r="6.21778" stroke-width="0.5" stroke="red" fill="red"/>
   </g>
   <g id="cell42">
  <circle cx="170.828" cy="742.336" r="10.2821" stroke-width="0.5" stroke="black" fill="red"/>
  <circle cx="170.828" cy="742.336" r="6.21778" stroke-width="0.5" stroke="red" fill="red"/>
   </g>
   <g id="cell43">
  <circle cx="941.227" cy="361.92" r="9.90658" stroke-width="0.5" stroke="black" fill="red"/>
  <circle cx="941.227" cy="361.92" r="6.01243" stroke-width="0.5" stroke="red" fill="red"/>
   </g>
   <g id="cell44">
  <circle cx="819.757" cy="15.0288" r="10.1758" stroke-width="0.5" stroke="black" fill="red"/>
  <circle cx="819.757" cy="15.0288" r="6.16159" stroke-width="0.5" stroke="red" fill="red"/>
   </g>
   <g id="cell45">
  <circle cx="651.16" cy="828.836" r="9.5053" stroke-width="0.5" stroke="black" fill="red"/>
  <circle cx="651.16" cy="828.836" r="5.77744" stroke-width="0.5" stroke="red" fill="red"/>
   </g>
   <g id="cell46">
  <circle cx="55.0648" cy="943.684" r="10.3247" stroke-width="0.5" stroke="black" fill="red"/>
  <circle cx="55.0648" cy="943.684" r="6.23971" stroke-width="0.5" stroke="red" fill="red"/>
   </g>
   <g id="cell47">
  <circle cx="876.464" cy="435.397" r="10.2328" stroke-width="0.5" stroke="black" fill="red"/>
  <circle cx="876.464" cy="435.397" r="6.19197" stroke-width="0.5" stroke="red" fill="red"/>
   </g>
   <g id="cell48">
  <circle cx="945.414" cy="43.6109" r="10.3545" stroke-width="0.5" stroke="black" fill="red"/>
  <circle cx="945.414" cy="43.6109" r="6.25485" stroke-width="0.5" stroke="red" fill="red"/>
   </g>
   <g id="cell49">
  <circle cx="474.336" cy="772.67" r="9.92631" stroke-width="0.5" stroke="black" fill="red"/>
  <circle cx="474.336" cy="772.67" r="6.02363" stroke-width="0.5" stroke="red" fill="red"/>
   </g>
   <g id="cell50">
  <circle cx="25.9408" cy="468.368" r="10.3933" stroke-width="0.5" stroke="black" fill="red"/>
  <circle cx="25.9408" cy="468.368" r="6.27417" stroke-width="0.5" stroke="red" fill="red"/>
   </g>
   <g id="cell51">
  <circle cx="970.553" cy="128.784" r="10.3615" stroke-width="0.5" stroke="black" fill="red"/>
  <circle cx="970.553" cy="128.784" r="6.25834" stroke-width="0.5" stroke="red" fill="red"/>
   </g>
   <g id="cell52">
  <circle cx="289.862" cy="499.505" r="2.52098" stroke-width="0.5" stroke="black" fill="red"/>
  <circle cx="289.862" cy="499.505" r="2.229" stroke-width="0.5" stroke="black" fill="black"/>
   </g>
   <g id="cell53">
  <circle cx="706.342" cy="326.188" r="10.3247" stroke-width="0.5" stroke="black" fill="red"/>
  <circle cx="706.342" cy="326.188" r="6.23971" stroke-width="0.5" stroke="red" fill="red"/>
   </g>
   <g id="cell54">
  <circle cx="447.353" cy="941.297" r="10.0336" stroke-width="0.5" stroke="black" fill="red"/>
  <circle cx="447.353" cy="941.297" r="6.08382" stroke-width="0.5" stroke="red" fill="red"/>
   </g>
   <g id="cell55">
  <circle cx="238.049" cy="698.199" r="8.41271" stroke-width="0.5" stroke="black" fill="red"/>
  <circle cx="238.049" cy="698.199" r="5.05167" stroke-width="0.5" stroke="red" fill="red"/>
   </g>
   <g id="cell56">
  <circle cx="557.733" cy="805.76" r="10.1996" stroke-width="0.5" stroke="black" fill="red"/>
  <circle cx="557.733" cy="805.76" r="6.17434" stroke-width="0.5" stroke="red" fill="red"/>
   </g>
   <g id="cell57">
  <circle cx="477.645" cy="546.005" r="10.2632" stroke-width="0.5" stroke="black" fill="red"/>
  <circle cx="477.645" cy="546.005" r="6.20796" stroke-width="0.5" stroke="red" fill="red"/>
   </g>
   <g id="cell58">
  <circle cx="85.4084" cy="931.58" r="10.0497" stroke-width="0.5" stroke="black" fill="red"/>
  <circle cx="85.4084" cy="931.58" r="6.09278" stroke-width="0.5" stroke="red" fill="red"/>
   </g>
   <g id="cell59">
  <circle cx="94.38" cy="953.59" r="9.94548" stroke-width="0.5" stroke="black" fill="red"/>
  <circle cx="94.38" cy="953.59" r="6.03448" stroke-width="0.5" stroke="red" fill="red"/>
   </g>
   <g id="cell60">
  <circle cx="284.809" cy="38.3397" r="9.7992" stroke-width="0.5" stroke="black" fill="red"/>
  <circle cx="284.809" cy="38.3397" r="5.95086" stroke-width="0.5" stroke="red" fill="red"/>
   </g>
   <g id="cell61">
  <circle cx="845.074" cy="137.572" r="10.0497" stroke-width="0.5" stroke="black" fill="red"/>
  <circle cx="845.074" cy="137.572" r="6.09278" stroke-width="0.5" stroke="red" fill="red"/>
   </g>
   <g id="cell62">
  <circle cx="710.19" cy="815.848" r="8.41271" stroke-width="0.5" stroke="black" fill="red"/>
  <circle cx="710.19" cy="815.848" r="5.05167" stroke-width="0.5" stroke="red" fill="red"/>
   </g>
   <g id="cell63">
  <circle cx="308.179" cy="181.959" r="10.2433" stroke-width="0.5" stroke="black" fill="red"/>
  <circle cx="308.179" cy="181.959" r="6.19748" stroke-width="0.5" stroke="red" fill="red"/>
   </g>
   <g id="cell64">
  <circle cx="563.155" cy="547.075" r="8.41271" stroke-width="0.5" stroke="black" fill="red"/>
  <circle cx="563.155" cy="547.075" r="5.05167" stroke-width="0.5" stroke="red" fill="red"/>
   </g>
   <g id="cell65">
  <circle cx="212.107" cy="838.105" r="8.65127" stroke-width="0.5" stroke="black" fill="red"/>
  <circle cx="212.107" cy="838.105" r="5.2272" stroke-width="0.5" stroke="red" fill="red"/>
   </g>
   <g id="cell66">
  <circle cx="26.8177" cy="147.576" r="9.62199" stroke-width="0.5" stroke="black" fill="red"/>
  <circle cx="26.8177" cy="147.576" r="5.8471" stroke-width="0.5" stroke="red" fill="red"/>
   </g>
   <g id="cell67">
  <circle cx="519.052" cy="279.245" r="9.5053" stroke-width="0.5" stroke="black" fill="red"/>
  <circle cx="519.052" cy="279.245" r="5.77744" stroke-width="0.5" stroke="red" fill="red"/>
   </g>
   <g id="cell68">
  <circle cx="735.484" cy="270.265" r="10.2999" stroke-width="0.5" stroke="black" fill="red"/>
  <circle cx="735.484" cy="270.265" r="6.22699" stroke-width="0.5" stroke="red" fill="red"/>
   </g>
   <g id="cell69">
  <circle cx="431.278" cy="289.655" r="9.7992" stroke-width="0.5" stroke="black" fill="red"/>
  <circle cx="431.278" cy="289.655" r="5.95086" stroke-width="0.5" stroke="red" fill="red"/>
   </g>
   <g id="cell70">
  <circle cx="556.776" cy="399.399" r="9.94548" stroke-width="0.5" stroke="black" fill="red"/>
  <circle cx="556.776" cy="399.399" r="6.03448" stroke-width="0.5" stroke="red" fill="red"/>
   </g>
   <g id="cell71">
  <circle cx="882.196" cy="531.446" r="10.3545" stroke-width="0.5" stroke="black" fill="red"/>
  <circle cx="882.196" cy="531.446" r="6.25485" stroke-width="0.5" stroke="red" fill="red"/>
   </g>
   <g id="cell72">
  <circle cx="220" cy="890.689" r="10.211" stroke-width="0.5" stroke="black" fill="red"/>
  <circle cx="220" cy="890.689" r="6.18041" stroke-width="0.5" stroke="red" fill="red"/>
   </g>
   <g id="cell73">
  <circle cx="697.589" cy="467.626" r="10.3084" stroke-width="0.5" stroke="black" fill="red"/>
  <circle cx="697.589" cy="467.626" r="6.23137" stroke-width="0.5" stroke="red" fill="red"/>
   </g>
   <g id="cell74">
  <circle cx="834.415" cy="988.177" r="10.0336" stroke-width="0.5" stroke="black" fill="red"/>
  <circle cx="834.415" cy="988.177" r="6.08382" stroke-width="0.5" stroke="red" fill="red"/>
   </g>
   <g id="cell75">
  <circle cx="112.924" cy="328.699" r="10.2911" stroke-width="0.5" stroke="black" fill="red"/>
  <circle cx="112.924" cy="328.699" r="6.22246" stroke-width="0.5" stroke="red" fill="red"/>
   </g>
   <g id="cell76">
  <circle cx="796.565" cy="379.001" r="9.99984" stroke-width="0.5" stroke="black" fill="red"/>
  <circle cx="796.565" cy="379.001" r="6.06503" stroke-width="0.5" stroke="red" fill="red"/>
   </g>
   <g id="cell77">
  <circle cx="643.825" cy="862.27" r="10.1634" stroke-width="0.5" stroke="black" fill="red"/>
  <circle cx="643.825" cy="862.27" r="6.1549" stroke-width="0.5" stroke="red" fill="red"/>
   </g>
   <g id="cell78">
  <circle cx="602.837" cy="290.039" r="10.0806" stroke-width="0.5" stroke="black" fill="red"/>
  <circle cx="602.837" cy="290.039" r="6.10985" stroke-width="0.5" stroke="red" fill="red"/>
   </g>
   <g id="cell79">
  <circle cx="969.761" cy="705.014" r="9.53557" stroke-width="0.5" stroke="black" fill="red"/>
  <circle cx="969.761" cy="705.014" r="5.79561" stroke-width="0.5" stroke="red" fill="red"/>
   </g>
   <g id="cell80">
  <circle cx="745.904" cy="672.156" r="8.41271" stroke-width="0.5" stroke="black" fill="yellow"/>
  <circle cx="745.904" cy="672.156" r="5.05167" stroke-width="0.5" stroke="yellow" fill="yellow"/>
   </g>
   <g id="cell81">
  <circle cx="502.337" cy="977.815" r="8.41271" stroke-width="0.5" stroke="black" fill="yellow"/>
  <circle cx="502.337" cy="977.815" r="5.05167" stroke-width="0.5" stroke="yellow" fill="yellow"/>
   </g>
   <g id="cell82">
  <circle cx="654.915" cy="424.611" r="10.2328" stroke-width="0.5" stroke="black" fill="yellow"/>
  <circle cx="654.915" cy="424.611" r="6.19197" stroke-width="0.5" stroke="yellow" fill="yellow"/>
   </g>
   <g id="cell83">
  <circle cx="614.677" cy="595.375" r="10.1506" stroke-width="0.5" stroke="black" fill="yellow"/>
  <circle cx="614.677" cy="595.375" r="6.14798" stroke-width="0.5" stroke="yellow" fill="yellow"/>
   </g>
   <g id="cell84">
  <circle cx="34.7614" cy="478.911" r="9.62199" stroke-width="0.5" stroke="black" fill="yellow"/>
  <circle cx="34.7614" cy="478.911" r="5.8471" stroke-width="0.5" stroke="yellow" fill="yellow"/>
   </g>
   <g id="cell85">
  <circle cx="724.36" cy="652.995" r="10.3084" stroke-width="0.5" stroke="black" fill="yellow"/>
  <circle cx="724.36" cy="652.995" r="6.23137" stroke-width="0.5" stroke="yellow" fill="yellow"/>
   </g>
   <g id="cell86">
  <circle cx="267.322" cy="436.29" r="8.96831" stroke-width="0.5" stroke="black" fill="yellow"/>
  <circle cx="267.322" cy="436.29" r="5.44228" stroke-width="0.5" stroke="yellow" fill="yellow"/>
   </g>
   <g id="cell87">
  <circle cx="760.851" cy="415.992" r="10.3811" stroke-width="0.5" stroke="black" fill="yellow"/>
  <circle cx="760.851" cy="415.992" r="6.26814" stroke-width="0.5" stroke="yellow" fill="yellow"/>
   </g>
   <g id="cell88">
  <circle cx="138.445" cy="105.084" r="10.1098" stroke-width="0.5" stroke="black" fill="yellow"/>
  <circle cx="138.445" cy="105.084" r="6.12585" stroke-width="0.5" stroke="yellow" fill="yellow"/>
   </g>
   <g id="cell89">
  <circle cx="53.8661" cy="549.88" r="9.23685" stroke-width="0.5" stroke="black" fill="yellow"/>
  <circle cx="53.8661" cy="549.88" r="5.61315" stroke-width="0.5" stroke="yellow" fill="yellow"/>
   </g>
   <g id="cell90">
  <circle cx="576.381" cy="549.137" r="1.19198" stroke-width="0.5" stroke="black" fill="yellow"/>
  <circle cx="576.381" cy="549.137" r="1.1876" stroke-width="0.5" stroke="black" fill="black"/>
   </g>
   <g id="cell91">
  <circle cx="57.9281" cy="643.295" r="9.59391" stroke-width="0.5" stroke="black" fill="yellow"/>
  <circle cx="57.9281" cy="643.295" r="5.83043" stroke-width="0.5" stroke="yellow" fill="yellow"/>
   </g>
   <g id="cell92">
  <circle cx="660.872" cy="294.151" r="10.0806" stroke-width="0.5" stroke="black" fill="yellow"/>
  <circle cx="660.872" cy="294.151" r="6.10985" stroke-width="0.5" stroke="yellow" fill="yellow"/>
   </g>
   <g id="cell93">
  <circle cx="213.106" cy="902.229" r="10.3811" stroke-width="0.5" stroke="black" fill="yellow"/>
  <circle cx="213.106" cy="902.229" r="6.26814" stroke-width="0.5" stroke="yellow" fill="yellow"/>
   </g>
   <g id="cell94">
  <circle cx="377.421" cy="76.8116" r="9.86542" stroke-width="0.5" stroke="black" fill="yellow"/>
  <circle cx="377.421" cy="76.8116" r="5.98895" stroke-width="0.5" stroke="yellow" fill="yellow"/>
   </g>
   <g id="cell95">
  <circle cx="952.059" cy="892.578" r="9.96412" stroke-width="0.5" stroke="black" fill="yellow"/>
  <circle cx="952.059" cy="892.578" r="6.04499" stroke-width="0.5" stroke="yellow" fill="yellow"/>
   </g>
   <g id="cell96">
  <circle cx="799.568" cy="549.469" r="9.98223" stroke-width="0.5" stroke="black" fill="yellow"/>
  <circle cx="799.568" cy="549.469" r="6.05517" stroke-width="0.5" stroke="yellow" fill="yellow"/>
   </g>
   <g id="cell97">
  <circle cx="435.313" cy="119.516" r="8.7678" stroke-width="0.5" stroke="black" fill="yellow"/>
  <circle cx="435.313" cy="119.516" r="5.30857" stroke-width="0.5" stroke="yellow" fill="yellow"/>
   </g>
   <g id="cell98">
  <circle cx="942.408" cy="358.375" r="9.2729" stroke-width="0.5" stroke="black" fill="yellow"/>
  <circle cx="942.408" cy="358.375" r="5.63555" stroke-width="0.5" stroke="yellow" fill="yellow"/>
   </g>
   <g id="cell99">
  <circle cx="521.455" cy="988.961" r="9.5053" stroke-width="0.5" stroke="black" fill="yellow"/>
  <circle cx="521.455" cy="988.961" r="5.77744" stroke-width="0.5" stroke="yellow" fill="yellow"/>
   </g>
   <g id="cell100">
  <circle cx="147.284" cy="835.373" r="10.3166" stroke-width="0.5" stroke="black" fill="yellow"/>
  <circle cx="147.284" cy="835.373" r="6.23561" stroke-width="0.5" stroke="yellow" fill="yellow"/>
   </g>
   <g id="cell101">
  <circle cx="89.2629" cy="141.081" r="8.41271" stroke-width="0.5" stroke="black" fill="yellow"/>
  <circle cx="89.2629" cy="141.081" r="5.05167" stroke-width="0.5" stroke="yellow" fill="yellow"/>
   </g>
   <g id="cell102">
  <circle cx="619.352" cy="152.113" r="9.98223" stroke-width="0.5" stroke="black" fill="yellow"/>
  <circle cx="619.352" cy="152.113" r="6.05517" stroke-width="0.5" stroke="yellow" fill="yellow"/>
   </g>
   <g id="cell103">
  <circle cx="815.755" cy="876.108" r="8.41271" stroke-width="0.5" stroke="black" fill="yellow"/>
  <circle cx="815.755" cy="876.108" r="5.05167" stroke-width="0.5" stroke="yellow" fill="yellow"/>
   </g>
   <g id="cell104">
  <circle cx="800.818" cy="409.571" r="10.3682" stroke-width="0.5" stroke="black" fill="yellow"/>
  <circle cx="800.818" cy="409.571" r="6.26172" stroke-width="0.5" stroke="yellow" fill="yellow"/>
   </g>
   <g id="cell105">
  <circle cx="117.766" cy="423.672" r="8.41271" stroke-width="0.5" stroke="black" fill="yellow"/>
  <circle cx="117.766" cy="423.672" r="5.05167" stroke-width="0.5" stroke="yellow" fill="yellow"/>
   </g>
   <g id="cell106">
  <circle cx="29.1404" cy="971.894" r="10.2911" stroke-width="0.5" stroke="black" fill="yellow"/>
  <circle cx="29.1404" cy="971.894" r="6.22246" stroke-width="0.5" stroke="yellow" fill="yellow"/>
   </g>
   <g id="cell107">
  <circle cx="362.996" cy="461.561" r="8.41271" stroke-width="0.5" stroke="black" fill="yellow"/>
  <circle cx="362.996" cy="461.561" r="5.05167" stroke-width="0.5" stroke="yellow" fill="yellow"/>
   </g>
   <g id="cell108">
  <circle cx="699.757" cy="53.7205" r="10.3747" stroke-width="0.5" stroke="black" fill="yellow"/>
  <circle cx="699.757" cy="53.7205" r="6.26498" stroke-width="0.5" stroke="yellow" fill="yellow"/>
   </g>
   <g id="cell109">
  <circle cx="368.909" cy="955.295" r="9.94548" stroke-width="0.5" stroke="black" fill="yellow"/>
  <circle cx="368.909" cy="955.295" r="6.03448" stroke-width="0.5" stroke="yellow" fill="yellow"/>
   </g>
   <g id="cell110">
  <circle cx="844.41" cy="226.73" r="8.41271" stroke-width="0.5" stroke="black" fill="yellow"/>
  <circle cx="844.41" cy="226.73" r="5.05167" stroke-width="0.5" stroke="yellow" fill="yellow"/>
   </g>
   <g id="cell111">
  <circle cx="769.487" cy="369.19" r="8.7678" stroke-width="0.5" stroke="black" fill="yellow"/>
  <circle cx="769.487" cy="369.19" r="5.30857" stroke-width="0.5" stroke="yellow" fill="yellow"/>
   </g>
   <g id="cell112">
  <circle cx="738.1" cy="766.583" r="10.2999" stroke-width="0.5" stroke="black" fill="yellow"/>
  <circle cx="738.1" cy="766.583" r="6.22699" stroke-width="0.5" stroke="yellow" fill="yellow"/>
   </g>
   <g id="cell113">
  <circle cx="347.194" cy="522.062" r="1.29007" stroke-width="0.5" stroke="black" fill="yellow"/>
  <circle cx="347.194" cy="522.062" r="1.28393" stroke-width="0.5" stroke="black" fill="black"/>
   </g>
   <g id="cell114">
  <circle cx="31.5721" cy="353.457" r="9.86542" stroke-width="0.5" stroke="black" fill="yellow"/>
  <circle cx="31.5721" cy="353.457" r="5.98895" stroke-width="0.5" stroke="yellow" fill="yellow"/>
   </g>
   <g id="cell115">
  <circle cx="218.112" cy="29.6487" r="10.2221" stroke-width="0.5" stroke="black" fill="yellow"/>
  <circle cx="218.112" cy="29.6487" r="6.18628" stroke-width="0.5" stroke="yellow" fill="yellow"/>
   </g>
   <g id="cell116">
  <circle cx="804.123" cy="481.178" r="8.48289" stroke-width="0.5" stroke="black" fill="yellow"/>
  <circle cx="804.123" cy="481.178" r="5.10317" stroke-width="0.5" stroke="yellow" fill="yellow"/>
   </g>
   <g id="cell117">
  <circle cx="885.223" cy="356.399" r="8.88811" stroke-width="0.5" stroke="black" fill="yellow"/>
  <circle cx="885.223" cy="356.399" r="5.38958" stroke-width="0.5" stroke="yellow" fill="yellow"/>
   </g>
   <g id="cell118">
  <circle cx="898.156" cy="595.292" r="10.3325" stroke-width="0.5" stroke="black" fill="yellow"/>
  <circle cx="898.156" cy="595.292" r="6.24369" stroke-width="0.5" stroke="yellow" fill="yellow"/>
   </g>
   <g id="cell119">
  <circle cx="585.133" cy="38.5937" r="9.20015" stroke-width="0.5" stroke="black" fill="yellow"/>
  <circle cx="585.133" cy="38.5937" r="5.59022" stroke-width="0.5" stroke="yellow" fill="yellow"/>
   </g>
  </g>
 </g>
  <rect x="775" y="1035" width="200" height="10" stroke-width="2" stroke="rgb(255,255,255)" fill="rgb(0,0,0)"/>
  <text x="781.25" y="1028.75"
   font-family="Arial" font-size="25" fill="black" >
   200 &#956;m
  </text>
  <text x="25" y="1045"
   font-family="Arial" font-size="18.75" fill="black" >
   0 days, 0 hours, 0 minutes, and 36.2672 seconds
  </text>
  <rect x="0" y="70" width="1000" height="1000" stroke-width="2" stroke="rgb(0,0,0)" fill="none"/>
</svg>
