<?xml version="1.0" encoding="UTF-8" standalone="no"?>
<!-- Created with PhysiCell (http://PhysiCell.MathCancer.org/) -->
<svg 
 xmlns:dc="http://purl.org/dc/elements/1.1/" 
 xmlns:cc="http://creativecommons.org/ns#" 
 xmlns:rdf="http://www.w3.org/1999/02/22-rdf-syntax-ns#" 
 xmlns:svg="http://www.w3.org/2000/svg" 
 xmlns="http://www.w3.org/2000/svg" 
 version="1.1" 
 width="1000" 
 height="1070" 
 id="svg2">
  <rect x="0" y="0" width="1000" height="1070" stroke-width="2" stroke="white" fill="white"/>
  <text x="12.5" y="30"
   font-family="Arial" font-size="25" fill="black" >
   Current time: 0 days, 1 hours, and 30.00 minutes, z = 0.00 &#956;m
  </text>
  <text x="12.5" y="57.5"
   font-family="Arial" font-size="23.75" fill="black" >
   120 agents
  </text>
 <g id="tissue" 
    transform="translate(0,1070) scale(1,-1)">
  <g id="ECM">
  </g>
  <g id="cells">
   <g id="cell0">
  <circle cx="544.43" cy="588.612" r="8.80772" stroke-width="0.5" stroke="black" fill="grey"/>
  <circle cx="544.43" cy="588.612" r="5.33574" stroke-width="0.5" stroke="grey" fill="grey"/>
   </g>
   <g id="cell1">
  <circle cx="839.837" cy="610.74" r="4.64437" stroke-width="0.5" stroke="black" fill="grey"/>
  <circle cx="839.837" cy="610.74" r="3.17578" stroke-width="0.5" stroke="black" fill="black"/>
   </g>
   <g id="cell2">
  <circle cx="553.58" cy="841.014" r="8.84788" stroke-width="0.5" stroke="black" fill="grey"/>
  <circle cx="553.58" cy="841.014" r="5.36278" stroke-width="0.5" stroke="grey" fill="grey"/>
   </g>
   <g id="cell3">
  <circle cx="625.797" cy="633.09" r="8.54454" stroke-width="0.5" stroke="black" fill="grey"/>
  <circle cx="625.797" cy="633.09" r="5.14947" stroke-width="0.5" stroke="grey" fill="grey"/>
   </g>
   <g id="cell4">
  <circle cx="437.51" cy="307.817" r="8.41271" stroke-width="0.5" stroke="black" fill="grey"/>
  <circle cx="437.51" cy="307.817" r="5.05167" stroke-width="0.5" stroke="grey" fill="grey"/>
   </g>
   <g id="cell5">
  <circle cx="62.4016" cy="972.409" r="8.68937" stroke-width="0.5" stroke="black" fill="grey"/>
  <circle cx="62.4016" cy="972.409" r="5.25417" stroke-width="0.5" stroke="grey" fill="grey"/>
   </g>
   <g id="cell6">
  <circle cx="382.531" cy="488.233" r="8.88811" stroke-width="0.5" stroke="black" fill="grey"/>
  <circle cx="382.531" cy="488.233" r="5.38958" stroke-width="0.5" stroke="grey" fill="grey"/>
   </g>
   <g id="cell7">
  <circle cx="809.272" cy="531.06" r="8.41271" stroke-width="0.5" stroke="black" fill="grey"/>
  <circle cx="809.272" cy="531.06" r="5.05167" stroke-width="0.5" stroke="grey" fill="grey"/>
   </g>
   <g id="cell8">
  <circle cx="582.104" cy="401.095" r="8.41271" stroke-width="0.5" stroke="black" fill="grey"/>
  <circle cx="582.104" cy="401.095" r="5.05167" stroke-width="0.5" stroke="grey" fill="grey"/>
   </g>
   <g id="cell9">
  <circle cx="845.916" cy="81.6459" r="8.41271" stroke-width="0.5" stroke="black" fill="grey"/>
  <circle cx="845.916" cy="81.6459" r="5.05167" stroke-width="0.5" stroke="grey" fill="grey"/>
   </g>
   <g id="cell10">
  <circle cx="98.1157" cy="650.744" r="8.41271" stroke-width="0.5" stroke="black" fill="grey"/>
  <circle cx="98.1157" cy="650.744" r="5.05167" stroke-width="0.5" stroke="grey" fill="grey"/>
   </g>
   <g id="cell11">
  <circle cx="353.823" cy="824.417" r="8.41271" stroke-width="0.5" stroke="black" fill="grey"/>
  <circle cx="353.823" cy="824.417" r="5.05167" stroke-width="0.5" stroke="grey" fill="grey"/>
   </g>
   <g id="cell12">
  <circle cx="790.906" cy="133.781" r="8.41271" stroke-width="0.5" stroke="black" fill="grey"/>
  <circle cx="790.906" cy="133.781" r="5.05167" stroke-width="0.5" stroke="grey" fill="grey"/>
   </g>
   <g id="cell13">
  <circle cx="873.375" cy="974.257" r="8.41271" stroke-width="0.5" stroke="black" fill="grey"/>
  <circle cx="873.375" cy="974.257" r="5.05167" stroke-width="0.5" stroke="grey" fill="grey"/>
   </g>
   <g id="cell14">
  <circle cx="821.901" cy="809.978" r="8.41271" stroke-width="0.5" stroke="black" fill="grey"/>
  <circle cx="821.901" cy="809.978" r="5.05167" stroke-width="0.5" stroke="grey" fill="grey"/>
   </g>
   <g id="cell15">
  <circle cx="505.998" cy="773.436" r="8.41271" stroke-width="0.5" stroke="black" fill="grey"/>
  <circle cx="505.998" cy="773.436" r="5.05167" stroke-width="0.5" stroke="grey" fill="grey"/>
   </g>
   <g id="cell16">
  <circle cx="118.967" cy="729.967" r="8.41271" stroke-width="0.5" stroke="black" fill="grey"/>
  <circle cx="118.967" cy="729.967" r="5.05167" stroke-width="0.5" stroke="grey" fill="grey"/>
   </g>
   <g id="cell17">
  <circle cx="578.499" cy="147.76" r="8.41271" stroke-width="0.5" stroke="black" fill="grey"/>
  <circle cx="578.499" cy="147.76" r="5.05167" stroke-width="0.5" stroke="grey" fill="grey"/>
   </g>
   <g id="cell18">
  <circle cx="929.687" cy="740.416" r="8.41271" stroke-width="0.5" stroke="black" fill="grey"/>
  <circle cx="929.687" cy="740.416" r="5.05167" stroke-width="0.5" stroke="grey" fill="grey"/>
   </g>
   <g id="cell19">
  <circle cx="104.939" cy="413.931" r="8.41271" stroke-width="0.5" stroke="black" fill="grey"/>
  <circle cx="104.939" cy="413.931" r="5.05167" stroke-width="0.5" stroke="grey" fill="grey"/>
   </g>
   <g id="cell20">
  <circle cx="249.151" cy="185.946" r="8.41271" stroke-width="0.5" stroke="black" fill="grey"/>
  <circle cx="249.151" cy="185.946" r="5.05167" stroke-width="0.5" stroke="grey" fill="grey"/>
   </g>
   <g id="cell21">
  <circle cx="738.971" cy="446.083" r="8.41271" stroke-width="0.5" stroke="black" fill="grey"/>
  <circle cx="738.971" cy="446.083" r="5.05167" stroke-width="0.5" stroke="grey" fill="grey"/>
   </g>
   <g id="cell22">
  <circle cx="565.337" cy="126.183" r="5.95973" stroke-width="0.5" stroke="black" fill="grey"/>
  <circle cx="565.337" cy="126.183" r="3.76978" stroke-width="0.5" stroke="black" fill="black"/>
   </g>
   <g id="cell23">
  <circle cx="321.047" cy="619.702" r="8.65127" stroke-width="0.5" stroke="black" fill="grey"/>
  <circle cx="321.047" cy="619.702" r="5.2272" stroke-width="0.5" stroke="grey" fill="grey"/>
   </g>
   <g id="cell24">
  <circle cx="608.287" cy="219.828" r="8.65127" stroke-width="0.5" stroke="black" fill="grey"/>
  <circle cx="608.287" cy="219.828" r="5.2272" stroke-width="0.5" stroke="grey" fill="grey"/>
   </g>
   <g id="cell25">
  <circle cx="385.137" cy="953.385" r="8.41271" stroke-width="0.5" stroke="black" fill="grey"/>
  <circle cx="385.137" cy="953.385" r="5.05167" stroke-width="0.5" stroke="grey" fill="grey"/>
   </g>
   <g id="cell26">
  <circle cx="672.373" cy="460.566" r="8.51252" stroke-width="0.5" stroke="black" fill="grey"/>
  <circle cx="672.373" cy="460.566" r="5.12552" stroke-width="0.5" stroke="grey" fill="grey"/>
   </g>
   <g id="cell27">
  <circle cx="601.791" cy="449.353" r="4.90029" stroke-width="0.5" stroke="black" fill="grey"/>
  <circle cx="601.791" cy="449.353" r="3.29037" stroke-width="0.5" stroke="black" fill="black"/>
   </g>
   <g id="cell28">
  <circle cx="688.641" cy="106.134" r="8.41271" stroke-width="0.5" stroke="black" fill="grey"/>
  <circle cx="688.641" cy="106.134" r="5.05167" stroke-width="0.5" stroke="grey" fill="grey"/>
   </g>
   <g id="cell29">
  <circle cx="979.825" cy="655.973" r="8.57856" stroke-width="0.5" stroke="black" fill="grey"/>
  <circle cx="979.825" cy="655.973" r="5.17461" stroke-width="0.5" stroke="grey" fill="grey"/>
   </g>
   <g id="cell30">
  <circle cx="671.442" cy="173.569" r="8.41271" stroke-width="0.5" stroke="black" fill="grey"/>
  <circle cx="671.442" cy="173.569" r="5.05167" stroke-width="0.5" stroke="grey" fill="grey"/>
   </g>
   <g id="cell31">
  <circle cx="360.222" cy="128.107" r="8.41271" stroke-width="0.5" stroke="black" fill="grey"/>
  <circle cx="360.222" cy="128.107" r="5.05167" stroke-width="0.5" stroke="grey" fill="grey"/>
   </g>
   <g id="cell32">
  <circle cx="321.909" cy="594.859" r="8.41271" stroke-width="0.5" stroke="black" fill="grey"/>
  <circle cx="321.909" cy="594.859" r="5.05167" stroke-width="0.5" stroke="grey" fill="grey"/>
   </g>
   <g id="cell33">
  <circle cx="320.858" cy="567.113" r="8.65127" stroke-width="0.5" stroke="black" fill="grey"/>
  <circle cx="320.858" cy="567.113" r="5.2272" stroke-width="0.5" stroke="grey" fill="grey"/>
   </g>
   <g id="cell34">
  <circle cx="443.271" cy="632.034" r="8.41271" stroke-width="0.5" stroke="black" fill="grey"/>
  <circle cx="443.271" cy="632.034" r="5.05167" stroke-width="0.5" stroke="grey" fill="grey"/>
   </g>
   <g id="cell35">
  <circle cx="946.574" cy="90.4478" r="8.41271" stroke-width="0.5" stroke="black" fill="grey"/>
  <circle cx="946.574" cy="90.4478" r="5.05167" stroke-width="0.5" stroke="grey" fill="grey"/>
   </g>
   <g id="cell36">
  <circle cx="210.406" cy="626.836" r="8.41271" stroke-width="0.5" stroke="black" fill="grey"/>
  <circle cx="210.406" cy="626.836" r="5.05167" stroke-width="0.5" stroke="grey" fill="grey"/>
   </g>
   <g id="cell37">
  <circle cx="992.287" cy="640.115" r="8.41271" stroke-width="0.5" stroke="black" fill="grey"/>
  <circle cx="992.287" cy="640.115" r="5.05167" stroke-width="0.5" stroke="grey" fill="grey"/>
   </g>
   <g id="cell38">
  <circle cx="252.491" cy="415.194" r="8.84788" stroke-width="0.5" stroke="black" fill="grey"/>
  <circle cx="252.491" cy="415.194" r="5.36278" stroke-width="0.5" stroke="grey" fill="grey"/>
   </g>
   <g id="cell39">
  <circle cx="483.066" cy="248.861" r="8.41271" stroke-width="0.5" stroke="black" fill="grey"/>
  <circle cx="483.066" cy="248.861" r="5.05167" stroke-width="0.5" stroke="grey" fill="grey"/>
   </g>
   <g id="cell40">
  <circle cx="163.354" cy="340.183" r="8.41271" stroke-width="0.5" stroke="black" fill="red"/>
  <circle cx="163.354" cy="340.183" r="5.05167" stroke-width="0.5" stroke="red" fill="red"/>
   </g>
   <g id="cell41">
  <circle cx="669.35" cy="668.581" r="8.41271" stroke-width="0.5" stroke="black" fill="red"/>
  <circle cx="669.35" cy="668.581" r="5.05167" stroke-width="0.5" stroke="red" fill="red"/>
   </g>
   <g id="cell42">
  <circle cx="136.148" cy="780.644" r="8.41271" stroke-width="0.5" stroke="black" fill="red"/>
  <circle cx="136.148" cy="780.644" r="5.05167" stroke-width="0.5" stroke="red" fill="red"/>
   </g>
   <g id="cell43">
  <circle cx="947.787" cy="375.018" r="8.41271" stroke-width="0.5" stroke="black" fill="red"/>
  <circle cx="947.787" cy="375.018" r="5.05167" stroke-width="0.5" stroke="red" fill="red"/>
   </g>
   <g id="cell44">
  <circle cx="827.804" cy="24.1094" r="8.41271" stroke-width="0.5" stroke="black" fill="red"/>
  <circle cx="827.804" cy="24.1094" r="5.05167" stroke-width="0.5" stroke="red" fill="red"/>
   </g>
   <g id="cell45">
  <circle cx="638.429" cy="838.402" r="8.41271" stroke-width="0.5" stroke="black" fill="red"/>
  <circle cx="638.429" cy="838.402" r="5.05167" stroke-width="0.5" stroke="red" fill="red"/>
   </g>
   <g id="cell46">
  <circle cx="94.3935" cy="966.421" r="8.51252" stroke-width="0.5" stroke="black" fill="red"/>
  <circle cx="94.3935" cy="966.421" r="5.12552" stroke-width="0.5" stroke="red" fill="red"/>
   </g>
   <g id="cell47">
  <circle cx="892.142" cy="465.049" r="8.41271" stroke-width="0.5" stroke="black" fill="red"/>
  <circle cx="892.142" cy="465.049" r="5.05167" stroke-width="0.5" stroke="red" fill="red"/>
   </g>
   <g id="cell48">
  <circle cx="978.232" cy="47.3379" r="8.65127" stroke-width="0.5" stroke="black" fill="red"/>
  <circle cx="978.232" cy="47.3379" r="5.2272" stroke-width="0.5" stroke="red" fill="red"/>
   </g>
   <g id="cell49">
  <circle cx="452.501" cy="749.242" r="8.41271" stroke-width="0.5" stroke="black" fill="red"/>
  <circle cx="452.501" cy="749.242" r="5.05167" stroke-width="0.5" stroke="red" fill="red"/>
   </g>
   <g id="cell50">
  <circle cx="38.5881" cy="444.199" r="8.88811" stroke-width="0.5" stroke="black" fill="red"/>
  <circle cx="38.5881" cy="444.199" r="5.38958" stroke-width="0.5" stroke="red" fill="red"/>
   </g>
   <g id="cell51">
  <circle cx="979.958" cy="109.188" r="8.68937" stroke-width="0.5" stroke="black" fill="red"/>
  <circle cx="979.958" cy="109.188" r="5.25417" stroke-width="0.5" stroke="red" fill="red"/>
   </g>
   <g id="cell52">
  <circle cx="303.436" cy="477.523" r="8.41271" stroke-width="0.5" stroke="black" fill="red"/>
  <circle cx="303.436" cy="477.523" r="5.05167" stroke-width="0.5" stroke="red" fill="red"/>
   </g>
   <g id="cell53">
  <circle cx="692.676" cy="298.452" r="8.51252" stroke-width="0.5" stroke="black" fill="red"/>
  <circle cx="692.676" cy="298.452" r="5.12552" stroke-width="0.5" stroke="red" fill="red"/>
   </g>
   <g id="cell54">
  <circle cx="411.802" cy="916.985" r="8.41271" stroke-width="0.5" stroke="black" fill="red"/>
  <circle cx="411.802" cy="916.985" r="5.05167" stroke-width="0.5" stroke="red" fill="red"/>
   </g>
   <g id="cell55">
  <circle cx="219.401" cy="679.587" r="8.41271" stroke-width="0.5" stroke="black" fill="red"/>
  <circle cx="219.401" cy="679.587" r="5.05167" stroke-width="0.5" stroke="red" fill="red"/>
   </g>
   <g id="cell56">
  <circle cx="550.079" cy="854.605" r="8.41271" stroke-width="0.5" stroke="black" fill="red"/>
  <circle cx="550.079" cy="854.605" r="5.05167" stroke-width="0.5" stroke="red" fill="red"/>
   </g>
   <g id="cell57">
  <circle cx="506.281" cy="530.932" r="8.41271" stroke-width="0.5" stroke="black" fill="red"/>
  <circle cx="506.281" cy="530.932" r="5.05167" stroke-width="0.5" stroke="red" fill="red"/>
   </g>
   <g id="cell58">
  <circle cx="93.3085" cy="917.476" r="8.41271" stroke-width="0.5" stroke="black" fill="red"/>
  <circle cx="93.3085" cy="917.476" r="5.05167" stroke-width="0.5" stroke="red" fill="red"/>
   </g>
   <g id="cell59">
  <circle cx="89.6683" cy="932.348" r="8.41271" stroke-width="0.5" stroke="black" fill="red"/>
  <circle cx="89.6683" cy="932.348" r="5.05167" stroke-width="0.5" stroke="red" fill="red"/>
   </g>
   <g id="cell60">
  <circle cx="311.607" cy="14.9067" r="8.41271" stroke-width="0.5" stroke="black" fill="red"/>
  <circle cx="311.607" cy="14.9067" r="5.05167" stroke-width="0.5" stroke="red" fill="red"/>
   </g>
   <g id="cell61">
  <circle cx="840.669" cy="149.118" r="8.41271" stroke-width="0.5" stroke="black" fill="red"/>
  <circle cx="840.669" cy="149.118" r="5.05167" stroke-width="0.5" stroke="red" fill="red"/>
   </g>
   <g id="cell62">
  <circle cx="708.436" cy="825.433" r="8.41271" stroke-width="0.5" stroke="black" fill="red"/>
  <circle cx="708.436" cy="825.433" r="5.05167" stroke-width="0.5" stroke="red" fill="red"/>
   </g>
   <g id="cell63">
  <circle cx="279.007" cy="184.766" r="8.41271" stroke-width="0.5" stroke="black" fill="red"/>
  <circle cx="279.007" cy="184.766" r="5.05167" stroke-width="0.5" stroke="red" fill="red"/>
   </g>
   <g id="cell64">
  <circle cx="584.939" cy="546.075" r="8.41271" stroke-width="0.5" stroke="black" fill="red"/>
  <circle cx="584.939" cy="546.075" r="5.05167" stroke-width="0.5" stroke="red" fill="red"/>
   </g>
   <g id="cell65">
  <circle cx="172.028" cy="838.366" r="8.41271" stroke-width="0.5" stroke="black" fill="red"/>
  <circle cx="172.028" cy="838.366" r="5.05167" stroke-width="0.5" stroke="red" fill="red"/>
   </g>
   <g id="cell66">
  <circle cx="16.218" cy="143.14" r="8.41271" stroke-width="0.5" stroke="black" fill="red"/>
  <circle cx="16.218" cy="143.14" r="5.05167" stroke-width="0.5" stroke="red" fill="red"/>
   </g>
   <g id="cell67">
  <circle cx="552.233" cy="258.886" r="8.41271" stroke-width="0.5" stroke="black" fill="red"/>
  <circle cx="552.233" cy="258.886" r="5.05167" stroke-width="0.5" stroke="red" fill="red"/>
   </g>
   <g id="cell68">
  <circle cx="735.861" cy="275.611" r="8.4325" stroke-width="0.5" stroke="black" fill="red"/>
  <circle cx="735.861" cy="275.611" r="5.06552" stroke-width="0.5" stroke="red" fill="red"/>
   </g>
   <g id="cell69">
  <circle cx="435.24" cy="267.552" r="8.41271" stroke-width="0.5" stroke="black" fill="red"/>
  <circle cx="435.24" cy="267.552" r="5.05167" stroke-width="0.5" stroke="red" fill="red"/>
   </g>
   <g id="cell70">
  <circle cx="557.817" cy="398.558" r="8.41271" stroke-width="0.5" stroke="black" fill="red"/>
  <circle cx="557.817" cy="398.558" r="5.05167" stroke-width="0.5" stroke="red" fill="red"/>
   </g>
   <g id="cell71">
  <circle cx="887.873" cy="573.916" r="8.65127" stroke-width="0.5" stroke="black" fill="red"/>
  <circle cx="887.873" cy="573.916" r="5.2272" stroke-width="0.5" stroke="red" fill="red"/>
   </g>
   <g id="cell72">
  <circle cx="227.835" cy="876.73" r="8.41271" stroke-width="0.5" stroke="black" fill="red"/>
  <circle cx="227.835" cy="876.73" r="5.05167" stroke-width="0.5" stroke="red" fill="red"/>
   </g>
   <g id="cell73">
  <circle cx="673.289" cy="447.958" r="8.45606" stroke-width="0.5" stroke="black" fill="red"/>
  <circle cx="673.289" cy="447.958" r="5.08296" stroke-width="0.5" stroke="red" fill="red"/>
   </g>
   <g id="cell74">
  <circle cx="838.473" cy="989.903" r="8.41271" stroke-width="0.5" stroke="black" fill="red"/>
  <circle cx="838.473" cy="989.903" r="5.05167" stroke-width="0.5" stroke="red" fill="red"/>
   </g>
   <g id="cell75">
  <circle cx="110.57" cy="296.64" r="8.41271" stroke-width="0.5" stroke="black" fill="red"/>
  <circle cx="110.57" cy="296.64" r="5.05167" stroke-width="0.5" stroke="red" fill="red"/>
   </g>
   <g id="cell76">
  <circle cx="821.613" cy="399.911" r="8.41271" stroke-width="0.5" stroke="black" fill="red"/>
  <circle cx="821.613" cy="399.911" r="5.05167" stroke-width="0.5" stroke="red" fill="red"/>
   </g>
   <g id="cell77">
  <circle cx="663.617" cy="866.816" r="8.41271" stroke-width="0.5" stroke="black" fill="red"/>
  <circle cx="663.617" cy="866.816" r="5.05167" stroke-width="0.5" stroke="red" fill="red"/>
   </g>
   <g id="cell78">
  <circle cx="587.939" cy="314.532" r="8.41271" stroke-width="0.5" stroke="black" fill="red"/>
  <circle cx="587.939" cy="314.532" r="5.05167" stroke-width="0.5" stroke="red" fill="red"/>
   </g>
   <g id="cell79">
  <circle cx="966.13" cy="691.259" r="8.41271" stroke-width="0.5" stroke="black" fill="red"/>
  <circle cx="966.13" cy="691.259" r="5.05167" stroke-width="0.5" stroke="red" fill="red"/>
   </g>
   <g id="cell80">
  <circle cx="735.36" cy="664.154" r="8.41271" stroke-width="0.5" stroke="black" fill="yellow"/>
  <circle cx="735.36" cy="664.154" r="5.05167" stroke-width="0.5" stroke="yellow" fill="yellow"/>
   </g>
   <g id="cell81">
  <circle cx="514.836" cy="961.853" r="8.41271" stroke-width="0.5" stroke="black" fill="yellow"/>
  <circle cx="514.836" cy="961.853" r="5.05167" stroke-width="0.5" stroke="yellow" fill="yellow"/>
   </g>
   <g id="cell82">
  <circle cx="662.871" cy="402.997" r="8.41271" stroke-width="0.5" stroke="black" fill="yellow"/>
  <circle cx="662.871" cy="402.997" r="5.05167" stroke-width="0.5" stroke="yellow" fill="yellow"/>
   </g>
   <g id="cell83">
  <circle cx="617.292" cy="601.09" r="8.41271" stroke-width="0.5" stroke="black" fill="yellow"/>
  <circle cx="617.292" cy="601.09" r="5.05167" stroke-width="0.5" stroke="yellow" fill="yellow"/>
   </g>
   <g id="cell84">
  <circle cx="26.599" cy="475.347" r="8.41271" stroke-width="0.5" stroke="black" fill="yellow"/>
  <circle cx="26.599" cy="475.347" r="5.05167" stroke-width="0.5" stroke="yellow" fill="yellow"/>
   </g>
   <g id="cell85">
  <circle cx="711.799" cy="662.062" r="8.45606" stroke-width="0.5" stroke="black" fill="yellow"/>
  <circle cx="711.799" cy="662.062" r="5.08296" stroke-width="0.5" stroke="yellow" fill="yellow"/>
   </g>
   <g id="cell86">
  <circle cx="273.592" cy="388.636" r="8.41271" stroke-width="0.5" stroke="black" fill="yellow"/>
  <circle cx="273.592" cy="388.636" r="5.05167" stroke-width="0.5" stroke="yellow" fill="yellow"/>
   </g>
   <g id="cell87">
  <circle cx="758.993" cy="440.791" r="8.80772" stroke-width="0.5" stroke="black" fill="yellow"/>
  <circle cx="758.993" cy="440.791" r="5.33574" stroke-width="0.5" stroke="yellow" fill="yellow"/>
   </g>
   <g id="cell88">
  <circle cx="131.134" cy="107.151" r="8.41271" stroke-width="0.5" stroke="black" fill="yellow"/>
  <circle cx="131.134" cy="107.151" r="5.05167" stroke-width="0.5" stroke="yellow" fill="yellow"/>
   </g>
   <g id="cell89">
  <circle cx="84.1577" cy="557.908" r="8.41271" stroke-width="0.5" stroke="black" fill="yellow"/>
  <circle cx="84.1577" cy="557.908" r="5.05167" stroke-width="0.5" stroke="yellow" fill="yellow"/>
   </g>
   <g id="cell90">
  <circle cx="576.381" cy="549.137" r="4.64437" stroke-width="0.5" stroke="black" fill="yellow"/>
  <circle cx="576.381" cy="549.137" r="3.17578" stroke-width="0.5" stroke="black" fill="black"/>
   </g>
   <g id="cell91">
  <circle cx="40.0672" cy="649.997" r="8.41271" stroke-width="0.5" stroke="black" fill="yellow"/>
  <circle cx="40.0672" cy="649.997" r="5.05167" stroke-width="0.5" stroke="yellow" fill="yellow"/>
   </g>
   <g id="cell92">
  <circle cx="647.747" cy="308.458" r="8.41271" stroke-width="0.5" stroke="black" fill="yellow"/>
  <circle cx="647.747" cy="308.458" r="5.05167" stroke-width="0.5" stroke="yellow" fill="yellow"/>
   </g>
   <g id="cell93">
  <circle cx="210.864" cy="907.762" r="8.80772" stroke-width="0.5" stroke="black" fill="yellow"/>
  <circle cx="210.864" cy="907.762" r="5.33574" stroke-width="0.5" stroke="yellow" fill="yellow"/>
   </g>
   <g id="cell94">
  <circle cx="363.11" cy="82.7563" r="8.41271" stroke-width="0.5" stroke="black" fill="yellow"/>
  <circle cx="363.11" cy="82.7563" r="5.05167" stroke-width="0.5" stroke="yellow" fill="yellow"/>
   </g>
   <g id="cell95">
  <circle cx="983.724" cy="881.318" r="8.41271" stroke-width="0.5" stroke="black" fill="yellow"/>
  <circle cx="983.724" cy="881.318" r="5.05167" stroke-width="0.5" stroke="yellow" fill="yellow"/>
   </g>
   <g id="cell96">
  <circle cx="809.158" cy="522.834" r="8.41271" stroke-width="0.5" stroke="black" fill="yellow"/>
  <circle cx="809.158" cy="522.834" r="5.05167" stroke-width="0.5" stroke="yellow" fill="yellow"/>
   </g>
   <g id="cell97">
  <circle cx="450.61" cy="93.4525" r="8.41271" stroke-width="0.5" stroke="black" fill="yellow"/>
  <circle cx="450.61" cy="93.4525" r="5.05167" stroke-width="0.5" stroke="yellow" fill="yellow"/>
   </g>
   <g id="cell98">
  <circle cx="915.623" cy="348.859" r="8.41271" stroke-width="0.5" stroke="black" fill="yellow"/>
  <circle cx="915.623" cy="348.859" r="5.05167" stroke-width="0.5" stroke="yellow" fill="yellow"/>
   </g>
   <g id="cell99">
  <circle cx="472.786" cy="990.361" r="8.41271" stroke-width="0.5" stroke="black" fill="yellow"/>
  <circle cx="472.786" cy="990.361" r="5.05167" stroke-width="0.5" stroke="yellow" fill="yellow"/>
   </g>
   <g id="cell100">
  <circle cx="147.475" cy="890.564" r="8.48289" stroke-width="0.5" stroke="black" fill="yellow"/>
  <circle cx="147.475" cy="890.564" r="5.10317" stroke-width="0.5" stroke="yellow" fill="yellow"/>
   </g>
   <g id="cell101">
  <circle cx="39.92" cy="152.036" r="8.41271" stroke-width="0.5" stroke="black" fill="yellow"/>
  <circle cx="39.92" cy="152.036" r="5.05167" stroke-width="0.5" stroke="yellow" fill="yellow"/>
   </g>
   <g id="cell102">
  <circle cx="617.878" cy="157.582" r="8.41271" stroke-width="0.5" stroke="black" fill="yellow"/>
  <circle cx="617.878" cy="157.582" r="5.05167" stroke-width="0.5" stroke="yellow" fill="yellow"/>
   </g>
   <g id="cell103">
  <circle cx="794.137" cy="859.862" r="8.41271" stroke-width="0.5" stroke="black" fill="yellow"/>
  <circle cx="794.137" cy="859.862" r="5.05167" stroke-width="0.5" stroke="yellow" fill="yellow"/>
   </g>
   <g id="cell104">
  <circle cx="812.48" cy="425.96" r="8.72828" stroke-width="0.5" stroke="black" fill="yellow"/>
  <circle cx="812.48" cy="425.96" r="5.28134" stroke-width="0.5" stroke="yellow" fill="yellow"/>
   </g>
   <g id="cell105">
  <circle cx="132.922" cy="404.476" r="8.41271" stroke-width="0.5" stroke="black" fill="yellow"/>
  <circle cx="132.922" cy="404.476" r="5.05167" stroke-width="0.5" stroke="yellow" fill="yellow"/>
   </g>
   <g id="cell106">
  <circle cx="51.1835" cy="979.833" r="8.41271" stroke-width="0.5" stroke="black" fill="yellow"/>
  <circle cx="51.1835" cy="979.833" r="5.05167" stroke-width="0.5" stroke="yellow" fill="yellow"/>
   </g>
   <g id="cell107">
  <circle cx="372.872" cy="441.263" r="8.41271" stroke-width="0.5" stroke="black" fill="yellow"/>
  <circle cx="372.872" cy="441.263" r="5.05167" stroke-width="0.5" stroke="yellow" fill="yellow"/>
   </g>
   <g id="cell108">
  <circle cx="722.5" cy="60.5381" r="8.7678" stroke-width="0.5" stroke="black" fill="yellow"/>
  <circle cx="722.5" cy="60.5381" r="5.30857" stroke-width="0.5" stroke="yellow" fill="yellow"/>
   </g>
   <g id="cell109">
  <circle cx="382.417" cy="973.357" r="8.41271" stroke-width="0.5" stroke="black" fill="yellow"/>
  <circle cx="382.417" cy="973.357" r="5.05167" stroke-width="0.5" stroke="yellow" fill="yellow"/>
   </g>
   <g id="cell110">
  <circle cx="840.128" cy="224.428" r="8.41271" stroke-width="0.5" stroke="black" fill="yellow"/>
  <circle cx="840.128" cy="224.428" r="5.05167" stroke-width="0.5" stroke="yellow" fill="yellow"/>
   </g>
   <g id="cell111">
  <circle cx="768.988" cy="353.567" r="8.41271" stroke-width="0.5" stroke="black" fill="yellow"/>
  <circle cx="768.988" cy="353.567" r="5.05167" stroke-width="0.5" stroke="yellow" fill="yellow"/>
   </g>
   <g id="cell112">
  <circle cx="718.818" cy="756.861" r="8.4325" stroke-width="0.5" stroke="black" fill="yellow"/>
  <circle cx="718.818" cy="756.861" r="5.06552" stroke-width="0.5" stroke="yellow" fill="yellow"/>
   </g>
   <g id="cell113">
  <circle cx="347.194" cy="522.062" r="6.04637" stroke-width="0.5" stroke="black" fill="yellow"/>
  <circle cx="347.194" cy="522.062" r="3.84304" stroke-width="0.5" stroke="black" fill="black"/>
   </g>
   <g id="cell114">
  <circle cx="47.6045" cy="344.087" r="8.41271" stroke-width="0.5" stroke="black" fill="yellow"/>
  <circle cx="47.6045" cy="344.087" r="5.05167" stroke-width="0.5" stroke="yellow" fill="yellow"/>
   </g>
   <g id="cell115">
  <circle cx="183.715" cy="21.8806" r="8.41271" stroke-width="0.5" stroke="black" fill="yellow"/>
  <circle cx="183.715" cy="21.8806" r="5.05167" stroke-width="0.5" stroke="yellow" fill="yellow"/>
   </g>
   <g id="cell116">
  <circle cx="797.125" cy="475.659" r="8.41271" stroke-width="0.5" stroke="black" fill="yellow"/>
  <circle cx="797.125" cy="475.659" r="5.05167" stroke-width="0.5" stroke="yellow" fill="yellow"/>
   </g>
   <g id="cell117">
  <circle cx="876.209" cy="340.174" r="8.41271" stroke-width="0.5" stroke="black" fill="yellow"/>
  <circle cx="876.209" cy="340.174" r="5.05167" stroke-width="0.5" stroke="yellow" fill="yellow"/>
   </g>
   <g id="cell118">
  <circle cx="923.582" cy="613.689" r="8.54454" stroke-width="0.5" stroke="black" fill="yellow"/>
  <circle cx="923.582" cy="613.689" r="5.14947" stroke-width="0.5" stroke="yellow" fill="yellow"/>
   </g>
   <g id="cell119">
  <circle cx="586.596" cy="15.3474" r="8.41271" stroke-width="0.5" stroke="black" fill="yellow"/>
  <circle cx="586.596" cy="15.3474" r="5.05167" stroke-width="0.5" stroke="yellow" fill="yellow"/>
   </g>
  </g>
 </g>
  <rect x="775" y="1035" width="200" height="10" stroke-width="2" stroke="rgb(255,255,255)" fill="rgb(0,0,0)"/>
  <text x="781.25" y="1028.75"
   font-family="Arial" font-size="25" fill="black" >
   200 &#956;m
  </text>
  <text x="25" y="1045"
   font-family="Arial" font-size="18.75" fill="black" >
   0 days, 0 hours, 0 minutes, and 5.0719 seconds
  </text>
  <rect x="0" y="70" width="1000" height="1000" stroke-width="2" stroke="rgb(0,0,0)" fill="none"/>
</svg>
