<?xml version="1.0" encoding="UTF-8" standalone="no"?>
<!-- Created with PhysiCell (http://PhysiCell.MathCancer.org/) -->
<svg 
 xmlns:dc="http://purl.org/dc/elements/1.1/" 
 xmlns:cc="http://creativecommons.org/ns#" 
 xmlns:rdf="http://www.w3.org/1999/02/22-rdf-syntax-ns#" 
 xmlns:svg="http://www.w3.org/2000/svg" 
 xmlns="http://www.w3.org/2000/svg" 
 version="1.1" 
 width="1000" 
 height="1070" 
 id="svg2">
  <rect x="0" y="0" width="1000" height="1070" stroke-width="2" stroke="white" fill="white"/>
  <text x="12.5" y="30"
   font-family="Arial" font-size="25" fill="black" >
   Current time: 1 days, 0 hours, and 0.00 minutes, z = 0.00 &#956;m
  </text>
  <text x="12.5" y="57.5"
   font-family="Arial" font-size="23.75" fill="black" >
   157 agents
  </text>
 <g id="tissue" 
    transform="translate(0,1070) scale(1,-1)">
  <g id="ECM">
  </g>
  <g id="cells">
   <g id="cell0">
  <circle cx="508.247" cy="616.195" r="10.315" stroke-width="0.5" stroke="black" fill="grey"/>
  <circle cx="508.247" cy="616.195" r="6.23514" stroke-width="0.5" stroke="grey" fill="grey"/>
   </g>
   <g id="cell118">
  <circle cx="866.061" cy="572.624" r="8.40961" stroke-width="0.5" stroke="black" fill="yellow"/>
  <circle cx="866.061" cy="572.624" r="5.05081" stroke-width="0.5" stroke="yellow" fill="yellow"/>
   </g>
   <g id="cell100">
  <circle cx="133.921" cy="807.356" r="10.2889" stroke-width="0.5" stroke="black" fill="yellow"/>
  <circle cx="133.921" cy="807.356" r="6.22183" stroke-width="0.5" stroke="yellow" fill="yellow"/>
   </g>
   <g id="cell3">
  <circle cx="611.203" cy="628.412" r="10.2089" stroke-width="0.5" stroke="black" fill="grey"/>
  <circle cx="611.203" cy="628.412" r="6.17981" stroke-width="0.5" stroke="grey" fill="grey"/>
   </g>
   <g id="cell103">
  <circle cx="832.81" cy="871.542" r="10.4573" stroke-width="0.5" stroke="black" fill="yellow"/>
  <circle cx="832.81" cy="871.542" r="6.30507" stroke-width="0.5" stroke="yellow" fill="yellow"/>
   </g>
   <g id="cell135">
  <circle cx="175.839" cy="795.005" r="9.72485" stroke-width="0.5" stroke="black" fill="yellow"/>
  <circle cx="175.839" cy="795.005" r="5.90833" stroke-width="0.5" stroke="yellow" fill="yellow"/>
   </g>
   <g id="cell185">
  <circle cx="880.217" cy="415.236" r="8.39794" stroke-width="0.5" stroke="black" fill="yellow"/>
  <circle cx="880.217" cy="415.236" r="5.04681" stroke-width="0.5" stroke="yellow" fill="yellow"/>
   </g>
   <g id="cell7">
  <circle cx="860.066" cy="498.694" r="10.0619" stroke-width="0.5" stroke="black" fill="grey"/>
  <circle cx="860.066" cy="498.694" r="6.1004" stroke-width="0.5" stroke="grey" fill="grey"/>
   </g>
   <g id="cell8">
  <circle cx="587.455" cy="419.288" r="1.53453" stroke-width="0.5" stroke="black" fill="grey"/>
  <circle cx="587.455" cy="419.288" r="1.52812" stroke-width="0.5" stroke="black" fill="black"/>
   </g>
   <g id="cell112">
  <circle cx="760.33" cy="730.113" r="8.40925" stroke-width="0.5" stroke="black" fill="yellow"/>
  <circle cx="760.33" cy="730.113" r="5.0507" stroke-width="0.5" stroke="yellow" fill="yellow"/>
   </g>
   <g id="cell176">
  <circle cx="226.949" cy="69.7803" r="8.40378" stroke-width="0.5" stroke="black" fill="red"/>
  <circle cx="226.949" cy="69.7803" r="5.0489" stroke-width="0.5" stroke="red" fill="red"/>
   </g>
   <g id="cell186">
  <circle cx="68.3287" cy="574.138" r="8.39752" stroke-width="0.5" stroke="black" fill="yellow"/>
  <circle cx="68.3287" cy="574.138" r="5.04666" stroke-width="0.5" stroke="yellow" fill="yellow"/>
   </g>
   <g id="cell104">
  <circle cx="756.882" cy="412.553" r="10.2202" stroke-width="0.5" stroke="black" fill="yellow"/>
  <circle cx="756.882" cy="412.553" r="6.18577" stroke-width="0.5" stroke="yellow" fill="yellow"/>
   </g>
   <g id="cell102">
  <circle cx="597.774" cy="151.069" r="9.15696" stroke-width="0.5" stroke="black" fill="yellow"/>
  <circle cx="597.774" cy="151.069" r="5.56486" stroke-width="0.5" stroke="yellow" fill="yellow"/>
   </g>
   <g id="cell98">
  <circle cx="895.407" cy="401.789" r="8.60015" stroke-width="0.5" stroke="black" fill="yellow"/>
  <circle cx="895.407" cy="401.789" r="5.19585" stroke-width="0.5" stroke="yellow" fill="yellow"/>
   </g>
   <g id="cell97">
  <circle cx="416.417" cy="80.235" r="8.39144" stroke-width="0.5" stroke="black" fill="yellow"/>
  <circle cx="416.417" cy="80.235" r="5.04437" stroke-width="0.5" stroke="yellow" fill="yellow"/>
   </g>
   <g id="cell16">
  <circle cx="134.058" cy="713.645" r="10.1209" stroke-width="0.5" stroke="black" fill="grey"/>
  <circle cx="134.058" cy="713.645" r="6.1326" stroke-width="0.5" stroke="grey" fill="grey"/>
   </g>
   <g id="cell116">
  <circle cx="820.734" cy="422.647" r="8.38608" stroke-width="0.5" stroke="black" fill="yellow"/>
  <circle cx="820.734" cy="422.647" r="5.04229" stroke-width="0.5" stroke="yellow" fill="yellow"/>
   </g>
   <g id="cell177">
  <circle cx="451.326" cy="283.567" r="8.40378" stroke-width="0.5" stroke="black" fill="red"/>
  <circle cx="451.326" cy="283.567" r="5.0489" stroke-width="0.5" stroke="red" fill="red"/>
   </g>
   <g id="cell101">
  <circle cx="105.383" cy="166.622" r="10.5189" stroke-width="0.5" stroke="black" fill="yellow"/>
  <circle cx="105.383" cy="166.622" r="6.3332" stroke-width="0.5" stroke="yellow" fill="yellow"/>
   </g>
   <g id="cell184">
  <circle cx="538.641" cy="288.486" r="9.36709" stroke-width="0.5" stroke="black" fill="red"/>
  <circle cx="538.641" cy="288.486" r="5.69619" stroke-width="0.5" stroke="red" fill="red"/>
   </g>
   <g id="cell99">
  <circle cx="495.779" cy="981.154" r="9.03696" stroke-width="0.5" stroke="black" fill="yellow"/>
  <circle cx="495.779" cy="981.154" r="5.48984" stroke-width="0.5" stroke="yellow" fill="yellow"/>
   </g>
   <g id="cell115">
  <circle cx="209.78" cy="9.77972" r="9.69875" stroke-width="0.5" stroke="black" fill="yellow"/>
  <circle cx="209.78" cy="9.77972" r="5.89326" stroke-width="0.5" stroke="yellow" fill="yellow"/>
   </g>
   <g id="cell191">
  <circle cx="744.827" cy="127.461" r="8.39021" stroke-width="0.5" stroke="black" fill="grey"/>
  <circle cx="744.827" cy="127.461" r="5.0439" stroke-width="0.5" stroke="grey" fill="grey"/>
   </g>
   <g id="cell153">
  <circle cx="184.378" cy="392.006" r="10.0136" stroke-width="0.5" stroke="black" fill="red"/>
  <circle cx="184.378" cy="392.006" r="6.07357" stroke-width="0.5" stroke="red" fill="red"/>
   </g>
   <g id="cell105">
  <circle cx="62.6771" cy="408.732" r="10.4761" stroke-width="0.5" stroke="black" fill="yellow"/>
  <circle cx="62.6771" cy="408.732" r="6.31388" stroke-width="0.5" stroke="yellow" fill="yellow"/>
   </g>
   <g id="cell26">
  <circle cx="675.114" cy="475.281" r="9.16844" stroke-width="0.5" stroke="black" fill="grey"/>
  <circle cx="675.114" cy="475.281" r="5.58996" stroke-width="0.5" stroke="black" fill="black"/>
   </g>
   <g id="cell117">
  <circle cx="890.121" cy="398.037" r="8.39316" stroke-width="0.5" stroke="black" fill="yellow"/>
  <circle cx="890.121" cy="398.037" r="5.04503" stroke-width="0.5" stroke="yellow" fill="yellow"/>
   </g>
   <g id="cell28">
  <circle cx="699.002" cy="143.885" r="8.40895" stroke-width="0.5" stroke="black" fill="grey"/>
  <circle cx="699.002" cy="143.885" r="5.05061" stroke-width="0.5" stroke="grey" fill="grey"/>
   </g>
   <g id="cell29">
  <circle cx="937.648" cy="663.474" r="9.23435" stroke-width="0.5" stroke="black" fill="grey"/>
  <circle cx="937.648" cy="663.474" r="5.61239" stroke-width="0.5" stroke="grey" fill="grey"/>
   </g>
   <g id="cell30">
  <circle cx="720.583" cy="114.183" r="8.39021" stroke-width="0.5" stroke="black" fill="grey"/>
  <circle cx="720.583" cy="114.183" r="5.0439" stroke-width="0.5" stroke="grey" fill="grey"/>
   </g>
   <g id="cell190">
  <circle cx="423.838" cy="85.353" r="8.39144" stroke-width="0.5" stroke="black" fill="yellow"/>
  <circle cx="423.838" cy="85.353" r="5.04437" stroke-width="0.5" stroke="yellow" fill="yellow"/>
   </g>
   <g id="cell114">
  <circle cx="51.1746" cy="343.807" r="8.96109" stroke-width="0.5" stroke="black" fill="yellow"/>
  <circle cx="51.1746" cy="343.807" r="5.43989" stroke-width="0.5" stroke="yellow" fill="yellow"/>
   </g>
   <g id="cell107">
  <circle cx="373.784" cy="441.536" r="10.5117" stroke-width="0.5" stroke="black" fill="yellow"/>
  <circle cx="373.784" cy="441.536" r="6.33005" stroke-width="0.5" stroke="yellow" fill="yellow"/>
   </g>
   <g id="cell106">
  <circle cx="23.9987" cy="920.972" r="10.1609" stroke-width="0.5" stroke="black" fill="yellow"/>
  <circle cx="23.9987" cy="920.972" r="6.15419" stroke-width="0.5" stroke="yellow" fill="yellow"/>
   </g>
   <g id="cell35">
  <circle cx="945.016" cy="95.1513" r="10.4355" stroke-width="0.5" stroke="black" fill="grey"/>
  <circle cx="945.016" cy="95.1513" r="6.2947" stroke-width="0.5" stroke="grey" fill="grey"/>
   </g>
   <g id="cell109">
  <circle cx="367.231" cy="963.484" r="8.40537" stroke-width="0.5" stroke="black" fill="yellow"/>
  <circle cx="367.231" cy="963.484" r="5.04944" stroke-width="0.5" stroke="yellow" fill="yellow"/>
   </g>
   <g id="cell111">
  <circle cx="763.38" cy="374.21" r="8.39144" stroke-width="0.5" stroke="black" fill="yellow"/>
  <circle cx="763.38" cy="374.21" r="5.04437" stroke-width="0.5" stroke="yellow" fill="yellow"/>
   </g>
   <g id="cell131">
  <circle cx="644.264" cy="577.576" r="9.90435" stroke-width="0.5" stroke="black" fill="grey"/>
  <circle cx="644.264" cy="577.576" r="6.01178" stroke-width="0.5" stroke="grey" fill="grey"/>
   </g>
   <g id="cell110">
  <circle cx="882.353" cy="272.988" r="10.4984" stroke-width="0.5" stroke="black" fill="yellow"/>
  <circle cx="882.353" cy="272.988" r="6.32406" stroke-width="0.5" stroke="yellow" fill="yellow"/>
   </g>
   <g id="cell40">
  <circle cx="166.929" cy="401.945" r="9.862" stroke-width="0.5" stroke="black" fill="red"/>
  <circle cx="166.929" cy="401.945" r="5.9879" stroke-width="0.5" stroke="red" fill="red"/>
   </g>
   <g id="cell41">
  <circle cx="666.017" cy="726.463" r="9.97964" stroke-width="0.5" stroke="black" fill="red"/>
  <circle cx="666.017" cy="726.463" r="6.05439" stroke-width="0.5" stroke="red" fill="red"/>
   </g>
   <g id="cell42">
  <circle cx="144.792" cy="708.403" r="9.43965" stroke-width="0.5" stroke="black" fill="red"/>
  <circle cx="144.792" cy="708.403" r="5.73865" stroke-width="0.5" stroke="red" fill="red"/>
   </g>
   <g id="cell43">
  <circle cx="873.57" cy="415.936" r="9.43639" stroke-width="0.5" stroke="black" fill="red"/>
  <circle cx="873.57" cy="415.936" r="5.73752" stroke-width="0.5" stroke="red" fill="red"/>
   </g>
   <g id="cell44">
  <circle cx="851.042" cy="58.3213" r="9.50152" stroke-width="0.5" stroke="black" fill="red"/>
  <circle cx="851.042" cy="58.3213" r="5.77625" stroke-width="0.5" stroke="red" fill="red"/>
   </g>
   <g id="cell45">
  <circle cx="653.974" cy="819.385" r="8.40056" stroke-width="0.5" stroke="black" fill="red"/>
  <circle cx="653.974" cy="819.385" r="5.04776" stroke-width="0.5" stroke="red" fill="red"/>
   </g>
   <g id="cell46">
  <circle cx="54.403" cy="926.197" r="8.40953" stroke-width="0.5" stroke="black" fill="red"/>
  <circle cx="54.403" cy="926.197" r="5.05079" stroke-width="0.5" stroke="red" fill="red"/>
   </g>
   <g id="cell47">
  <circle cx="899.046" cy="454.274" r="9.7961" stroke-width="0.5" stroke="black" fill="red"/>
  <circle cx="899.046" cy="454.274" r="5.94991" stroke-width="0.5" stroke="red" fill="red"/>
   </g>
   <g id="cell48">
  <circle cx="923.461" cy="42.1938" r="10.2413" stroke-width="0.5" stroke="black" fill="red"/>
  <circle cx="923.461" cy="42.1938" r="6.19693" stroke-width="0.5" stroke="red" fill="red"/>
   </g>
   <g id="cell49">
  <circle cx="497.385" cy="796.434" r="8.76085" stroke-width="0.5" stroke="black" fill="red"/>
  <circle cx="497.385" cy="796.434" r="5.30632" stroke-width="0.5" stroke="red" fill="red"/>
   </g>
   <g id="cell50">
  <circle cx="9.72361" cy="432.451" r="9.64753" stroke-width="0.5" stroke="black" fill="red"/>
  <circle cx="9.72361" cy="432.451" r="5.86275" stroke-width="0.5" stroke="red" fill="red"/>
   </g>
   <g id="cell51">
  <circle cx="910.622" cy="123.825" r="10.1219" stroke-width="0.5" stroke="black" fill="red"/>
  <circle cx="910.622" cy="123.825" r="6.13292" stroke-width="0.5" stroke="red" fill="red"/>
   </g>
   <g id="cell96">
  <circle cx="823.551" cy="548.31" r="9.77074" stroke-width="0.5" stroke="black" fill="yellow"/>
  <circle cx="823.551" cy="548.31" r="5.9357" stroke-width="0.5" stroke="yellow" fill="yellow"/>
   </g>
   <g id="cell53">
  <circle cx="684.07" cy="305.002" r="10.2611" stroke-width="0.5" stroke="black" fill="red"/>
  <circle cx="684.07" cy="305.002" r="6.20735" stroke-width="0.5" stroke="red" fill="red"/>
   </g>
   <g id="cell54">
  <circle cx="429.481" cy="898.276" r="8.40632" stroke-width="0.5" stroke="black" fill="red"/>
  <circle cx="429.481" cy="898.276" r="5.04976" stroke-width="0.5" stroke="red" fill="red"/>
   </g>
   <g id="cell55">
  <circle cx="232.978" cy="657.686" r="10.5496" stroke-width="0.5" stroke="black" fill="red"/>
  <circle cx="232.978" cy="657.686" r="6.34633" stroke-width="0.5" stroke="red" fill="red"/>
   </g>
   <g id="cell56">
  <circle cx="584.304" cy="850.48" r="9.97899" stroke-width="0.5" stroke="black" fill="red"/>
  <circle cx="584.304" cy="850.48" r="6.05418" stroke-width="0.5" stroke="red" fill="red"/>
   </g>
   <g id="cell57">
  <circle cx="486.37" cy="541.3" r="10.047" stroke-width="0.5" stroke="black" fill="red"/>
  <circle cx="486.37" cy="541.3" r="6.09197" stroke-width="0.5" stroke="red" fill="red"/>
   </g>
   <g id="cell58">
  <circle cx="20.5349" cy="894.625" r="9.72265" stroke-width="0.5" stroke="black" fill="red"/>
  <circle cx="20.5349" cy="894.625" r="5.90759" stroke-width="0.5" stroke="red" fill="red"/>
   </g>
   <g id="cell59">
  <circle cx="57.2487" cy="973.583" r="9.8165" stroke-width="0.5" stroke="black" fill="red"/>
  <circle cx="57.2487" cy="973.583" r="5.96222" stroke-width="0.5" stroke="red" fill="red"/>
   </g>
   <g id="cell60">
  <circle cx="258.941" cy="61.1041" r="8.40378" stroke-width="0.5" stroke="black" fill="red"/>
  <circle cx="258.941" cy="61.1041" r="5.0489" stroke-width="0.5" stroke="red" fill="red"/>
   </g>
   <g id="cell61">
  <circle cx="828.598" cy="147.496" r="8.4065" stroke-width="0.5" stroke="black" fill="red"/>
  <circle cx="828.598" cy="147.496" r="5.04982" stroke-width="0.5" stroke="red" fill="red"/>
   </g>
   <g id="cell62">
  <circle cx="734.262" cy="819.261" r="9.7992" stroke-width="0.5" stroke="black" fill="red"/>
  <circle cx="734.262" cy="819.261" r="5.95086" stroke-width="0.5" stroke="red" fill="red"/>
   </g>
   <g id="cell63">
  <circle cx="330.672" cy="172.058" r="8.88445" stroke-width="0.5" stroke="black" fill="red"/>
  <circle cx="330.672" cy="172.058" r="5.38845" stroke-width="0.5" stroke="red" fill="red"/>
   </g>
   <g id="cell64">
  <circle cx="605.781" cy="551.276" r="10.1506" stroke-width="0.5" stroke="black" fill="red"/>
  <circle cx="605.781" cy="551.276" r="6.14798" stroke-width="0.5" stroke="red" fill="red"/>
   </g>
   <g id="cell188">
  <circle cx="872.24" cy="385.588" r="8.39316" stroke-width="0.5" stroke="black" fill="yellow"/>
  <circle cx="872.24" cy="385.588" r="5.04503" stroke-width="0.5" stroke="yellow" fill="yellow"/>
   </g>
   <g id="cell66">
  <circle cx="24.9599" cy="159.942" r="9.4968" stroke-width="0.5" stroke="black" fill="red"/>
  <circle cx="24.9599" cy="159.942" r="5.77456" stroke-width="0.5" stroke="red" fill="red"/>
   </g>
   <g id="cell67">
  <circle cx="517.357" cy="250.279" r="3.91261" stroke-width="0.5" stroke="black" fill="red"/>
  <circle cx="517.357" cy="250.279" r="2.85456" stroke-width="0.5" stroke="black" fill="black"/>
   </g>
   <g id="cell68">
  <circle cx="744.887" cy="241.617" r="9.81935" stroke-width="0.5" stroke="black" fill="red"/>
  <circle cx="744.887" cy="241.617" r="5.96319" stroke-width="0.5" stroke="red" fill="red"/>
   </g>
   <g id="cell69">
  <circle cx="443.355" cy="286.958" r="8.40378" stroke-width="0.5" stroke="black" fill="red"/>
  <circle cx="443.355" cy="286.958" r="5.0489" stroke-width="0.5" stroke="red" fill="red"/>
   </g>
   <g id="cell70">
  <circle cx="526.303" cy="342.352" r="9.00166" stroke-width="0.5" stroke="black" fill="red"/>
  <circle cx="526.303" cy="342.352" r="5.46598" stroke-width="0.5" stroke="red" fill="red"/>
   </g>
   <g id="cell71">
  <circle cx="856.414" cy="524.802" r="10.2613" stroke-width="0.5" stroke="black" fill="red"/>
  <circle cx="856.414" cy="524.802" r="6.20742" stroke-width="0.5" stroke="red" fill="red"/>
   </g>
   <g id="cell72">
  <circle cx="189.373" cy="894.271" r="10.0466" stroke-width="0.5" stroke="black" fill="red"/>
  <circle cx="189.373" cy="894.271" r="6.09184" stroke-width="0.5" stroke="red" fill="red"/>
   </g>
   <g id="cell73">
  <circle cx="666.128" cy="430.264" r="9.47165" stroke-width="0.5" stroke="black" fill="red"/>
  <circle cx="666.128" cy="430.264" r="5.75794" stroke-width="0.5" stroke="red" fill="red"/>
   </g>
   <g id="cell74">
  <circle cx="869.144" cy="945.325" r="8.40632" stroke-width="0.5" stroke="black" fill="red"/>
  <circle cx="869.144" cy="945.325" r="5.04976" stroke-width="0.5" stroke="red" fill="red"/>
   </g>
   <g id="cell75">
  <circle cx="110.801" cy="329.953" r="10.0144" stroke-width="0.5" stroke="black" fill="red"/>
  <circle cx="110.801" cy="329.953" r="6.07383" stroke-width="0.5" stroke="red" fill="red"/>
   </g>
   <g id="cell76">
  <circle cx="772.794" cy="406.329" r="8.50592" stroke-width="0.5" stroke="black" fill="red"/>
  <circle cx="772.794" cy="406.329" r="5.12351" stroke-width="0.5" stroke="red" fill="red"/>
   </g>
   <g id="cell77">
  <circle cx="633.96" cy="838.846" r="9.5317" stroke-width="0.5" stroke="black" fill="red"/>
  <circle cx="633.96" cy="838.846" r="5.79439" stroke-width="0.5" stroke="red" fill="red"/>
   </g>
   <g id="cell78">
  <circle cx="576.961" cy="290.508" r="9.40538" stroke-width="0.5" stroke="black" fill="red"/>
  <circle cx="576.961" cy="290.508" r="5.71831" stroke-width="0.5" stroke="red" fill="red"/>
   </g>
   <g id="cell79">
  <circle cx="965.996" cy="690.395" r="8.50099" stroke-width="0.5" stroke="black" fill="red"/>
  <circle cx="965.996" cy="690.395" r="5.12178" stroke-width="0.5" stroke="red" fill="red"/>
   </g>
   <g id="cell80">
  <circle cx="765.824" cy="678.9" r="10.4894" stroke-width="0.5" stroke="black" fill="yellow"/>
  <circle cx="765.824" cy="678.9" r="6.31998" stroke-width="0.5" stroke="yellow" fill="yellow"/>
   </g>
   <g id="cell81">
  <circle cx="507.319" cy="985.831" r="9.96412" stroke-width="0.5" stroke="black" fill="yellow"/>
  <circle cx="507.319" cy="985.831" r="6.04499" stroke-width="0.5" stroke="yellow" fill="yellow"/>
   </g>
   <g id="cell82">
  <circle cx="656.281" cy="432.913" r="10.185" stroke-width="0.5" stroke="black" fill="yellow"/>
  <circle cx="656.281" cy="432.913" r="6.16722" stroke-width="0.5" stroke="yellow" fill="yellow"/>
   </g>
   <g id="cell83">
  <circle cx="596.785" cy="577.332" r="9.79543" stroke-width="0.5" stroke="black" fill="yellow"/>
  <circle cx="596.785" cy="577.332" r="5.94969" stroke-width="0.5" stroke="yellow" fill="yellow"/>
   </g>
   <g id="cell84">
  <circle cx="14.8152" cy="519.674" r="8.641" stroke-width="0.5" stroke="black" fill="yellow"/>
  <circle cx="14.8152" cy="519.674" r="5.22382" stroke-width="0.5" stroke="yellow" fill="yellow"/>
   </g>
   <g id="cell85">
  <circle cx="773.725" cy="671.828" r="10.2198" stroke-width="0.5" stroke="black" fill="yellow"/>
  <circle cx="773.725" cy="671.828" r="6.18563" stroke-width="0.5" stroke="yellow" fill="yellow"/>
   </g>
   <g id="cell86">
  <circle cx="320.028" cy="455.862" r="8.39422" stroke-width="0.5" stroke="black" fill="yellow"/>
  <circle cx="320.028" cy="455.862" r="5.04543" stroke-width="0.5" stroke="yellow" fill="yellow"/>
   </g>
   <g id="cell87">
  <circle cx="743.762" cy="409.417" r="8.41016" stroke-width="0.5" stroke="black" fill="yellow"/>
  <circle cx="743.762" cy="409.417" r="5.05098" stroke-width="0.5" stroke="yellow" fill="yellow"/>
   </g>
   <g id="cell88">
  <circle cx="152.165" cy="105.459" r="3.46226" stroke-width="0.5" stroke="black" fill="yellow"/>
  <circle cx="152.165" cy="105.459" r="2.87651" stroke-width="0.5" stroke="black" fill="black"/>
   </g>
   <g id="cell89">
  <circle cx="83.724" cy="520.495" r="8.46795" stroke-width="0.5" stroke="black" fill="yellow"/>
  <circle cx="83.724" cy="520.495" r="5.09822" stroke-width="0.5" stroke="yellow" fill="yellow"/>
   </g>
   <g id="cell119">
  <circle cx="575.009" cy="35.5235" r="1.99352" stroke-width="0.5" stroke="black" fill="yellow"/>
  <circle cx="575.009" cy="35.5235" r="1.95857" stroke-width="0.5" stroke="black" fill="black"/>
   </g>
   <g id="cell91">
  <circle cx="23.2777" cy="667.029" r="8.40154" stroke-width="0.5" stroke="black" fill="yellow"/>
  <circle cx="23.2777" cy="667.029" r="5.04811" stroke-width="0.5" stroke="yellow" fill="yellow"/>
   </g>
   <g id="cell92">
  <circle cx="657.26" cy="303.297" r="9.58939" stroke-width="0.5" stroke="black" fill="yellow"/>
  <circle cx="657.26" cy="303.297" r="5.82899" stroke-width="0.5" stroke="yellow" fill="yellow"/>
   </g>
   <g id="cell93">
  <circle cx="246.111" cy="856.762" r="8.41016" stroke-width="0.5" stroke="black" fill="yellow"/>
  <circle cx="246.111" cy="856.762" r="5.05098" stroke-width="0.5" stroke="yellow" fill="yellow"/>
   </g>
   <g id="cell94">
  <circle cx="379.858" cy="93.1505" r="8.80023" stroke-width="0.5" stroke="black" fill="yellow"/>
  <circle cx="379.858" cy="93.1505" r="5.3333" stroke-width="0.5" stroke="yellow" fill="yellow"/>
   </g>
   <g id="cell95">
  <circle cx="955.657" cy="907.588" r="9.79394" stroke-width="0.5" stroke="black" fill="yellow"/>
  <circle cx="955.657" cy="907.588" r="5.94917" stroke-width="0.5" stroke="yellow" fill="yellow"/>
   </g>
   <g id="cell121">
  <circle cx="13.8609" cy="499.172" r="8.4103" stroke-width="0.5" stroke="black" fill="red"/>
  <circle cx="13.8609" cy="499.172" r="5.05102" stroke-width="0.5" stroke="red" fill="red"/>
   </g>
   <g id="cell122">
  <circle cx="736.026" cy="452.961" r="10.1861" stroke-width="0.5" stroke="black" fill="yellow"/>
  <circle cx="736.026" cy="452.961" r="6.16758" stroke-width="0.5" stroke="yellow" fill="yellow"/>
   </g>
   <g id="cell123">
  <circle cx="259.766" cy="905.169" r="8.41016" stroke-width="0.5" stroke="black" fill="yellow"/>
  <circle cx="259.766" cy="905.169" r="5.05098" stroke-width="0.5" stroke="yellow" fill="yellow"/>
   </g>
   <g id="cell124">
  <circle cx="505.71" cy="629.151" r="9.62004" stroke-width="0.5" stroke="black" fill="grey"/>
  <circle cx="505.71" cy="629.151" r="5.84653" stroke-width="0.5" stroke="grey" fill="grey"/>
   </g>
   <g id="cell125">
  <circle cx="786.161" cy="409.78" r="10.2614" stroke-width="0.5" stroke="black" fill="yellow"/>
  <circle cx="786.161" cy="409.78" r="6.20745" stroke-width="0.5" stroke="yellow" fill="yellow"/>
   </g>
   <g id="cell126">
  <circle cx="982.278" cy="174.475" r="9.53341" stroke-width="0.5" stroke="black" fill="red"/>
  <circle cx="982.278" cy="174.475" r="5.79496" stroke-width="0.5" stroke="red" fill="red"/>
   </g>
   <g id="cell127">
  <circle cx="892.397" cy="529.965" r="10.2201" stroke-width="0.5" stroke="black" fill="red"/>
  <circle cx="892.397" cy="529.965" r="6.18574" stroke-width="0.5" stroke="red" fill="red"/>
   </g>
   <g id="cell128">
  <circle cx="930.099" cy="30.1936" r="9.27055" stroke-width="0.5" stroke="black" fill="red"/>
  <circle cx="930.099" cy="30.1936" r="5.63484" stroke-width="0.5" stroke="red" fill="red"/>
   </g>
   <g id="cell129">
  <circle cx="969.654" cy="678.636" r="10.1613" stroke-width="0.5" stroke="black" fill="grey"/>
  <circle cx="969.654" cy="678.636" r="6.1543" stroke-width="0.5" stroke="grey" fill="grey"/>
   </g>
   <g id="cell130">
  <circle cx="902.943" cy="603.151" r="8.40961" stroke-width="0.5" stroke="black" fill="yellow"/>
  <circle cx="902.943" cy="603.151" r="5.05081" stroke-width="0.5" stroke="yellow" fill="yellow"/>
   </g>
   <g id="cell132">
  <circle cx="55.9144" cy="913.835" r="9.9432" stroke-width="0.5" stroke="black" fill="red"/>
  <circle cx="55.9144" cy="913.835" r="6.03381" stroke-width="0.5" stroke="red" fill="red"/>
   </g>
   <g id="cell133">
  <circle cx="659.266" cy="363.746" r="8.54145" stroke-width="0.5" stroke="black" fill="red"/>
  <circle cx="659.266" cy="363.746" r="5.14859" stroke-width="0.5" stroke="red" fill="red"/>
   </g>
   <g id="cell134">
  <circle cx="624.597" cy="436.457" r="3.91647" stroke-width="0.5" stroke="black" fill="grey"/>
  <circle cx="624.597" cy="436.457" r="2.85607" stroke-width="0.5" stroke="black" fill="black"/>
   </g>
   <g id="cell136">
  <circle cx="655.321" cy="435.296" r="9.61942" stroke-width="0.5" stroke="black" fill="red"/>
  <circle cx="655.321" cy="435.296" r="5.84632" stroke-width="0.5" stroke="red" fill="red"/>
   </g>
   <g id="cell137">
  <circle cx="782.73" cy="668.215" r="8.40934" stroke-width="0.5" stroke="black" fill="yellow"/>
  <circle cx="782.73" cy="668.215" r="5.05073" stroke-width="0.5" stroke="yellow" fill="yellow"/>
   </g>
   <g id="cell138">
  <circle cx="743.985" cy="230.663" r="10.2409" stroke-width="0.5" stroke="black" fill="red"/>
  <circle cx="743.985" cy="230.663" r="6.1968" stroke-width="0.5" stroke="red" fill="red"/>
   </g>
   <g id="cell139">
  <circle cx="801.41" cy="739.249" r="8.40925" stroke-width="0.5" stroke="black" fill="yellow"/>
  <circle cx="801.41" cy="739.249" r="5.0507" stroke-width="0.5" stroke="yellow" fill="yellow"/>
   </g>
   <g id="cell140">
  <circle cx="68.5568" cy="329.367" r="10.2197" stroke-width="0.5" stroke="black" fill="red"/>
  <circle cx="68.5568" cy="329.367" r="6.18558" stroke-width="0.5" stroke="red" fill="red"/>
   </g>
   <g id="cell141">
  <circle cx="33.1218" cy="975.026" r="10.1855" stroke-width="0.5" stroke="black" fill="yellow"/>
  <circle cx="33.1218" cy="975.026" r="6.16736" stroke-width="0.5" stroke="yellow" fill="yellow"/>
   </g>
   <g id="cell142">
  <circle cx="660.657" cy="667.12" r="8.40905" stroke-width="0.5" stroke="black" fill="red"/>
  <circle cx="660.657" cy="667.12" r="5.05064" stroke-width="0.5" stroke="red" fill="red"/>
   </g>
   <g id="cell143">
  <circle cx="124.572" cy="755.186" r="8.40905" stroke-width="0.5" stroke="black" fill="red"/>
  <circle cx="124.572" cy="755.186" r="5.05064" stroke-width="0.5" stroke="red" fill="red"/>
   </g>
   <g id="cell144">
  <circle cx="632.508" cy="160.962" r="10.0143" stroke-width="0.5" stroke="black" fill="grey"/>
  <circle cx="632.508" cy="160.962" r="6.07379" stroke-width="0.5" stroke="grey" fill="grey"/>
   </g>
   <g id="cell145">
  <circle cx="520.949" cy="530.314" r="8.40884" stroke-width="0.5" stroke="black" fill="red"/>
  <circle cx="520.949" cy="530.314" r="5.05057" stroke-width="0.5" stroke="red" fill="red"/>
   </g>
   <g id="cell146">
  <circle cx="324.511" cy="202.711" r="9.92337" stroke-width="0.5" stroke="black" fill="red"/>
  <circle cx="324.511" cy="202.711" r="6.02274" stroke-width="0.5" stroke="red" fill="red"/>
   </g>
   <g id="cell147">
  <circle cx="663.741" cy="414.059" r="8.4085" stroke-width="0.5" stroke="black" fill="yellow"/>
  <circle cx="663.741" cy="414.059" r="5.05047" stroke-width="0.5" stroke="yellow" fill="yellow"/>
   </g>
   <g id="cell148">
  <circle cx="173.961" cy="774.322" r="10.1968" stroke-width="0.5" stroke="black" fill="grey"/>
  <circle cx="173.961" cy="774.322" r="6.17349" stroke-width="0.5" stroke="grey" fill="grey"/>
   </g>
   <g id="cell149">
  <circle cx="868.427" cy="427.359" r="10.1209" stroke-width="0.5" stroke="black" fill="red"/>
  <circle cx="868.427" cy="427.359" r="6.1326" stroke-width="0.5" stroke="red" fill="red"/>
   </g>
   <g id="cell150">
  <circle cx="158.514" cy="41.6693" r="9.15917" stroke-width="0.5" stroke="black" fill="yellow"/>
  <circle cx="158.514" cy="41.6693" r="5.56563" stroke-width="0.5" stroke="yellow" fill="yellow"/>
   </g>
   <g id="cell151">
  <circle cx="217.345" cy="916.593" r="8.50818" stroke-width="0.5" stroke="black" fill="red"/>
  <circle cx="217.345" cy="916.593" r="5.12425" stroke-width="0.5" stroke="red" fill="red"/>
   </g>
   <g id="cell152">
  <circle cx="570.762" cy="848.681" r="10.0465" stroke-width="0.5" stroke="black" fill="red"/>
  <circle cx="570.762" cy="848.681" r="6.09181" stroke-width="0.5" stroke="red" fill="red"/>
   </g>
   <g id="cell154">
  <circle cx="851.775" cy="25.5444" r="9.08227" stroke-width="0.5" stroke="black" fill="red"/>
  <circle cx="851.775" cy="25.5444" r="5.51706" stroke-width="0.5" stroke="red" fill="red"/>
   </g>
   <g id="cell155">
  <circle cx="647.747" cy="867.714" r="9.9787" stroke-width="0.5" stroke="black" fill="red"/>
  <circle cx="647.747" cy="867.714" r="6.05409" stroke-width="0.5" stroke="red" fill="red"/>
   </g>
   <g id="cell156">
  <circle cx="889.737" cy="520.102" r="9.90299" stroke-width="0.5" stroke="black" fill="grey"/>
  <circle cx="889.737" cy="520.102" r="6.01133" stroke-width="0.5" stroke="grey" fill="grey"/>
   </g>
   <g id="cell157">
  <circle cx="595.724" cy="624" r="8.96382" stroke-width="0.5" stroke="black" fill="yellow"/>
  <circle cx="595.724" cy="624" r="5.44086" stroke-width="0.5" stroke="yellow" fill="yellow"/>
   </g>
   <g id="cell158">
  <circle cx="163.19" cy="140.34" r="3.91448" stroke-width="0.5" stroke="black" fill="yellow"/>
  <circle cx="163.19" cy="140.34" r="3.07859" stroke-width="0.5" stroke="black" fill="black"/>
   </g>
   <g id="cell159">
  <circle cx="682.411" cy="283.319" r="8.47711" stroke-width="0.5" stroke="black" fill="yellow"/>
  <circle cx="682.411" cy="283.319" r="5.10145" stroke-width="0.5" stroke="yellow" fill="yellow"/>
   </g>
   <g id="cell160">
  <circle cx="618.946" cy="269.02" r="9.11989" stroke-width="0.5" stroke="black" fill="red"/>
  <circle cx="618.946" cy="269.02" r="5.54121" stroke-width="0.5" stroke="red" fill="red"/>
   </g>
   <g id="cell161">
  <circle cx="39.9117" cy="929.436" r="2.97467" stroke-width="0.5" stroke="black" fill="red"/>
  <circle cx="39.9117" cy="929.436" r="2.45502" stroke-width="0.5" stroke="black" fill="black"/>
   </g>
   <g id="cell162">
  <circle cx="851.68" cy="133.47" r="9.97782" stroke-width="0.5" stroke="black" fill="red"/>
  <circle cx="851.68" cy="133.47" r="6.05379" stroke-width="0.5" stroke="red" fill="red"/>
   </g>
   <g id="cell163">
  <circle cx="428.063" cy="985.279" r="9.94091" stroke-width="0.5" stroke="black" fill="red"/>
  <circle cx="428.063" cy="985.279" r="6.03304" stroke-width="0.5" stroke="red" fill="red"/>
   </g>
   <g id="cell164">
  <circle cx="835.551" cy="951.921" r="8.40632" stroke-width="0.5" stroke="black" fill="red"/>
  <circle cx="835.551" cy="951.921" r="5.04976" stroke-width="0.5" stroke="red" fill="red"/>
   </g>
   <g id="cell165">
  <circle cx="837.919" cy="409.57" r="9.92145" stroke-width="0.5" stroke="black" fill="red"/>
  <circle cx="837.919" cy="409.57" r="6.0221" stroke-width="0.5" stroke="red" fill="red"/>
   </g>
   <g id="cell166">
  <circle cx="809.292" cy="533.87" r="9.90157" stroke-width="0.5" stroke="black" fill="yellow"/>
  <circle cx="809.292" cy="533.87" r="6.01084" stroke-width="0.5" stroke="yellow" fill="yellow"/>
   </g>
   <g id="cell167">
  <circle cx="642.814" cy="150.612" r="8.72183" stroke-width="0.5" stroke="black" fill="yellow"/>
  <circle cx="642.814" cy="150.612" r="5.27928" stroke-width="0.5" stroke="yellow" fill="yellow"/>
   </g>
   <g id="cell168">
  <circle cx="956.381" cy="902.88" r="9.64394" stroke-width="0.5" stroke="black" fill="yellow"/>
  <circle cx="956.381" cy="902.88" r="5.86154" stroke-width="0.5" stroke="yellow" fill="yellow"/>
   </g>
   <g id="cell169">
  <circle cx="370.219" cy="959.15" r="9.43673" stroke-width="0.5" stroke="black" fill="yellow"/>
  <circle cx="370.219" cy="959.15" r="5.73764" stroke-width="0.5" stroke="yellow" fill="yellow"/>
   </g>
   <g id="cell170">
  <circle cx="65.5424" cy="984.859" r="8.40537" stroke-width="0.5" stroke="black" fill="red"/>
  <circle cx="65.5424" cy="984.859" r="5.04944" stroke-width="0.5" stroke="red" fill="red"/>
   </g>
   <g id="cell171">
  <circle cx="550.228" cy="377.638" r="9.49955" stroke-width="0.5" stroke="black" fill="red"/>
  <circle cx="550.228" cy="377.638" r="5.77556" stroke-width="0.5" stroke="red" fill="red"/>
   </g>
   <g id="cell172">
  <circle cx="452.689" cy="786.594" r="9.55926" stroke-width="0.5" stroke="black" fill="red"/>
  <circle cx="452.689" cy="786.594" r="5.81136" stroke-width="0.5" stroke="red" fill="red"/>
   </g>
   <g id="cell173">
  <circle cx="941.253" cy="416.13" r="8.40494" stroke-width="0.5" stroke="black" fill="red"/>
  <circle cx="941.253" cy="416.13" r="5.04929" stroke-width="0.5" stroke="red" fill="red"/>
   </g>
   <g id="cell174">
  <circle cx="376.463" cy="90.729" r="8.4045" stroke-width="0.5" stroke="black" fill="yellow"/>
  <circle cx="376.463" cy="90.729" r="5.04914" stroke-width="0.5" stroke="yellow" fill="yellow"/>
   </g>
   <g id="cell175">
  <circle cx="34.2041" cy="322.119" r="9.64312" stroke-width="0.5" stroke="black" fill="yellow"/>
  <circle cx="34.2041" cy="322.119" r="5.86125" stroke-width="0.5" stroke="yellow" fill="yellow"/>
   </g>
   <g id="cell178">
  <circle cx="49.0554" cy="159.432" r="9.36812" stroke-width="0.5" stroke="black" fill="red"/>
  <circle cx="49.0554" cy="159.432" r="5.69658" stroke-width="0.5" stroke="red" fill="red"/>
   </g>
   <g id="cell179">
  <circle cx="26.3895" cy="488.137" r="8.40185" stroke-width="0.5" stroke="black" fill="yellow"/>
  <circle cx="26.3895" cy="488.137" r="5.04822" stroke-width="0.5" stroke="yellow" fill="yellow"/>
   </g>
   <g id="cell180">
  <circle cx="30.8892" cy="678.618" r="8.40154" stroke-width="0.5" stroke="black" fill="yellow"/>
  <circle cx="30.8892" cy="678.618" r="5.04811" stroke-width="0.5" stroke="yellow" fill="yellow"/>
   </g>
   <g id="cell181">
  <circle cx="980.978" cy="694.978" r="8.4009" stroke-width="0.5" stroke="black" fill="red"/>
  <circle cx="980.978" cy="694.978" r="5.04788" stroke-width="0.5" stroke="red" fill="red"/>
   </g>
   <g id="cell182">
  <circle cx="525.291" cy="972.229" r="8.40056" stroke-width="0.5" stroke="black" fill="yellow"/>
  <circle cx="525.291" cy="972.229" r="5.04776" stroke-width="0.5" stroke="yellow" fill="yellow"/>
   </g>
   <g id="cell183">
  <circle cx="650.988" cy="848.802" r="8.40056" stroke-width="0.5" stroke="black" fill="red"/>
  <circle cx="650.988" cy="848.802" r="5.04776" stroke-width="0.5" stroke="red" fill="red"/>
   </g>
   <g id="cell187">
  <circle cx="313.18" cy="453.748" r="8.39422" stroke-width="0.5" stroke="black" fill="yellow"/>
  <circle cx="313.18" cy="453.748" r="5.04543" stroke-width="0.5" stroke="yellow" fill="yellow"/>
   </g>
   <g id="cell189">
  <circle cx="778.759" cy="384.633" r="8.39144" stroke-width="0.5" stroke="black" fill="yellow"/>
  <circle cx="778.759" cy="384.633" r="5.04437" stroke-width="0.5" stroke="yellow" fill="yellow"/>
   </g>
   <g id="cell192">
  <circle cx="831.866" cy="435.782" r="8.38608" stroke-width="0.5" stroke="black" fill="yellow"/>
  <circle cx="831.866" cy="435.782" r="5.04229" stroke-width="0.5" stroke="yellow" fill="yellow"/>
   </g>
  </g>
 </g>
  <rect x="775" y="1035" width="200" height="10" stroke-width="2" stroke="rgb(255,255,255)" fill="rgb(0,0,0)"/>
  <text x="781.25" y="1028.75"
   font-family="Arial" font-size="25" fill="black" >
   200 &#956;m
  </text>
  <text x="25" y="1045"
   font-family="Arial" font-size="18.75" fill="black" >
   0 days, 0 hours, 1 minutes, and 42.9373 seconds
  </text>
  <rect x="0" y="70" width="1000" height="1000" stroke-width="2" stroke="rgb(0,0,0)" fill="none"/>
</svg>
