<?xml version="1.0" encoding="UTF-8" standalone="no"?>
<!-- Created with PhysiCell (http://PhysiCell.MathCancer.org/) -->
<svg 
 xmlns:dc="http://purl.org/dc/elements/1.1/" 
 xmlns:cc="http://creativecommons.org/ns#" 
 xmlns:rdf="http://www.w3.org/1999/02/22-rdf-syntax-ns#" 
 xmlns:svg="http://www.w3.org/2000/svg" 
 xmlns="http://www.w3.org/2000/svg" 
 version="1.1" 
 width="1000" 
 height="1070" 
 id="svg2">
  <rect x="0" y="0" width="1000" height="1070" stroke-width="2" stroke="white" fill="white"/>
  <text x="12.5" y="30"
   font-family="Arial" font-size="25" fill="black" >
   Current time: 0 days, 3 hours, and 0.00 minutes, z = 0.00 &#956;m
  </text>
  <text x="12.5" y="57.5"
   font-family="Arial" font-size="23.75" fill="black" >
   120 agents
  </text>
 <g id="tissue" 
    transform="translate(0,1070) scale(1,-1)">
  <g id="ECM">
  </g>
  <g id="cells">
   <g id="cell0">
  <circle cx="532.55" cy="580.013" r="9.37686" stroke-width="0.5" stroke="black" fill="grey"/>
  <circle cx="532.55" cy="580.013" r="5.69955" stroke-width="0.5" stroke="grey" fill="grey"/>
   </g>
   <g id="cell1">
  <circle cx="839.837" cy="610.74" r="2.91074" stroke-width="0.5" stroke="black" fill="grey"/>
  <circle cx="839.837" cy="610.74" r="2.42562" stroke-width="0.5" stroke="black" fill="black"/>
   </g>
   <g id="cell2">
  <circle cx="543.615" cy="830" r="9.41008" stroke-width="0.5" stroke="black" fill="grey"/>
  <circle cx="543.615" cy="830" r="5.71981" stroke-width="0.5" stroke="grey" fill="grey"/>
   </g>
   <g id="cell3">
  <circle cx="631.58" cy="635.338" r="9.12489" stroke-width="0.5" stroke="black" fill="grey"/>
  <circle cx="631.58" cy="635.338" r="5.54282" stroke-width="0.5" stroke="grey" fill="grey"/>
   </g>
   <g id="cell4">
  <circle cx="428.304" cy="313.386" r="8.41271" stroke-width="0.5" stroke="black" fill="grey"/>
  <circle cx="428.304" cy="313.386" r="5.05167" stroke-width="0.5" stroke="grey" fill="grey"/>
   </g>
   <g id="cell5">
  <circle cx="70.7992" cy="966.027" r="9.2729" stroke-width="0.5" stroke="black" fill="grey"/>
  <circle cx="70.7992" cy="966.027" r="5.63555" stroke-width="0.5" stroke="grey" fill="grey"/>
   </g>
   <g id="cell6">
  <circle cx="392.01" cy="483.653" r="9.44256" stroke-width="0.5" stroke="black" fill="grey"/>
  <circle cx="392.01" cy="483.653" r="5.73955" stroke-width="0.5" stroke="grey" fill="grey"/>
   </g>
   <g id="cell7">
  <circle cx="808.59" cy="535.204" r="8.48289" stroke-width="0.5" stroke="black" fill="grey"/>
  <circle cx="808.59" cy="535.204" r="5.10317" stroke-width="0.5" stroke="grey" fill="grey"/>
   </g>
   <g id="cell8">
  <circle cx="578.683" cy="401.64" r="8.41271" stroke-width="0.5" stroke="black" fill="grey"/>
  <circle cx="578.683" cy="401.64" r="5.05167" stroke-width="0.5" stroke="grey" fill="grey"/>
   </g>
   <g id="cell9">
  <circle cx="847.148" cy="85.0327" r="4.0657" stroke-width="0.5" stroke="black" fill="grey"/>
  <circle cx="847.148" cy="85.0327" r="2.92016" stroke-width="0.5" stroke="black" fill="black"/>
   </g>
   <g id="cell10">
  <circle cx="100.771" cy="645.924" r="8.72828" stroke-width="0.5" stroke="black" fill="grey"/>
  <circle cx="100.771" cy="645.924" r="5.28134" stroke-width="0.5" stroke="grey" fill="grey"/>
   </g>
   <g id="cell11">
  <circle cx="359.73" cy="842.222" r="8.41271" stroke-width="0.5" stroke="black" fill="grey"/>
  <circle cx="359.73" cy="842.222" r="5.05167" stroke-width="0.5" stroke="grey" fill="grey"/>
   </g>
   <g id="cell12">
  <circle cx="776.733" cy="126.985" r="8.41271" stroke-width="0.5" stroke="black" fill="grey"/>
  <circle cx="776.733" cy="126.985" r="5.05167" stroke-width="0.5" stroke="grey" fill="grey"/>
   </g>
   <g id="cell13">
  <circle cx="878.411" cy="961.786" r="8.41271" stroke-width="0.5" stroke="black" fill="grey"/>
  <circle cx="878.411" cy="961.786" r="5.05167" stroke-width="0.5" stroke="grey" fill="grey"/>
   </g>
   <g id="cell14">
  <circle cx="824.77" cy="814.497" r="8.84788" stroke-width="0.5" stroke="black" fill="grey"/>
  <circle cx="824.77" cy="814.497" r="5.36278" stroke-width="0.5" stroke="grey" fill="grey"/>
   </g>
   <g id="cell15">
  <circle cx="507.247" cy="775.081" r="8.65127" stroke-width="0.5" stroke="black" fill="grey"/>
  <circle cx="507.247" cy="775.081" r="5.2272" stroke-width="0.5" stroke="grey" fill="grey"/>
   </g>
   <g id="cell16">
  <circle cx="117.177" cy="722.761" r="8.68937" stroke-width="0.5" stroke="black" fill="grey"/>
  <circle cx="117.177" cy="722.761" r="5.25417" stroke-width="0.5" stroke="grey" fill="grey"/>
   </g>
   <g id="cell17">
  <circle cx="576.613" cy="145.199" r="3.78562" stroke-width="0.5" stroke="black" fill="grey"/>
  <circle cx="576.613" cy="145.199" r="2.80027" stroke-width="0.5" stroke="black" fill="black"/>
   </g>
   <g id="cell18">
  <circle cx="927.208" cy="744.231" r="8.41271" stroke-width="0.5" stroke="black" fill="grey"/>
  <circle cx="927.208" cy="744.231" r="5.05167" stroke-width="0.5" stroke="grey" fill="grey"/>
   </g>
   <g id="cell19">
  <circle cx="114.919" cy="413.983" r="8.41271" stroke-width="0.5" stroke="black" fill="grey"/>
  <circle cx="114.919" cy="413.983" r="5.05167" stroke-width="0.5" stroke="grey" fill="grey"/>
   </g>
   <g id="cell20">
  <circle cx="239.302" cy="170.937" r="8.41271" stroke-width="0.5" stroke="black" fill="grey"/>
  <circle cx="239.302" cy="170.937" r="5.05167" stroke-width="0.5" stroke="grey" fill="grey"/>
   </g>
   <g id="cell21">
  <circle cx="739.286" cy="442.588" r="8.41271" stroke-width="0.5" stroke="black" fill="grey"/>
  <circle cx="739.286" cy="442.588" r="5.05167" stroke-width="0.5" stroke="grey" fill="grey"/>
   </g>
   <g id="cell22">
  <circle cx="565.337" cy="126.183" r="3.19585" stroke-width="0.5" stroke="black" fill="grey"/>
  <circle cx="565.337" cy="126.183" r="2.55241" stroke-width="0.5" stroke="black" fill="black"/>
   </g>
   <g id="cell23">
  <circle cx="301.973" cy="611.763" r="9.23685" stroke-width="0.5" stroke="black" fill="grey"/>
  <circle cx="301.973" cy="611.763" r="5.61315" stroke-width="0.5" stroke="grey" fill="grey"/>
   </g>
   <g id="cell24">
  <circle cx="613.379" cy="229.469" r="9.23685" stroke-width="0.5" stroke="black" fill="grey"/>
  <circle cx="613.379" cy="229.469" r="5.61315" stroke-width="0.5" stroke="grey" fill="grey"/>
   </g>
   <g id="cell25">
  <circle cx="385.532" cy="971.76" r="8.41271" stroke-width="0.5" stroke="black" fill="grey"/>
  <circle cx="385.532" cy="971.76" r="5.05167" stroke-width="0.5" stroke="grey" fill="grey"/>
   </g>
   <g id="cell26">
  <circle cx="654.156" cy="475.812" r="9.08642" stroke-width="0.5" stroke="black" fill="grey"/>
  <circle cx="654.156" cy="475.812" r="5.51837" stroke-width="0.5" stroke="grey" fill="grey"/>
   </g>
   <g id="cell27">
  <circle cx="601.791" cy="449.353" r="2.97674" stroke-width="0.5" stroke="black" fill="grey"/>
  <circle cx="601.791" cy="449.353" r="2.45592" stroke-width="0.5" stroke="black" fill="black"/>
   </g>
   <g id="cell28">
  <circle cx="693.874" cy="120.321" r="8.84788" stroke-width="0.5" stroke="black" fill="grey"/>
  <circle cx="693.874" cy="120.321" r="5.36278" stroke-width="0.5" stroke="grey" fill="grey"/>
   </g>
   <g id="cell29">
  <circle cx="986.171" cy="664.377" r="9.16281" stroke-width="0.5" stroke="black" fill="grey"/>
  <circle cx="986.171" cy="664.377" r="5.56677" stroke-width="0.5" stroke="grey" fill="grey"/>
   </g>
   <g id="cell30">
  <circle cx="683.555" cy="180.8" r="8.41271" stroke-width="0.5" stroke="black" fill="grey"/>
  <circle cx="683.555" cy="180.8" r="5.05167" stroke-width="0.5" stroke="grey" fill="grey"/>
   </g>
   <g id="cell31">
  <circle cx="350.179" cy="123.035" r="8.41271" stroke-width="0.5" stroke="black" fill="grey"/>
  <circle cx="350.179" cy="123.035" r="5.05167" stroke-width="0.5" stroke="grey" fill="grey"/>
   </g>
   <g id="cell32">
  <circle cx="319.499" cy="595.194" r="3.85201" stroke-width="0.5" stroke="black" fill="grey"/>
  <circle cx="319.499" cy="595.194" r="2.85578" stroke-width="0.5" stroke="black" fill="black"/>
   </g>
   <g id="cell33">
  <circle cx="309.764" cy="556.603" r="9.23685" stroke-width="0.5" stroke="black" fill="grey"/>
  <circle cx="309.764" cy="556.603" r="5.61315" stroke-width="0.5" stroke="grey" fill="grey"/>
   </g>
   <g id="cell34">
  <circle cx="442.078" cy="632.113" r="8.41271" stroke-width="0.5" stroke="black" fill="grey"/>
  <circle cx="442.078" cy="632.113" r="5.05167" stroke-width="0.5" stroke="grey" fill="grey"/>
   </g>
   <g id="cell35">
  <circle cx="937.652" cy="92.1533" r="8.41271" stroke-width="0.5" stroke="black" fill="grey"/>
  <circle cx="937.652" cy="92.1533" r="5.05167" stroke-width="0.5" stroke="grey" fill="grey"/>
   </g>
   <g id="cell36">
  <circle cx="208.916" cy="622.395" r="7.00193" stroke-width="0.5" stroke="black" fill="grey"/>
  <circle cx="208.916" cy="622.395" r="4.27611" stroke-width="0.5" stroke="black" fill="black"/>
   </g>
   <g id="cell37">
  <circle cx="991.105" cy="649.704" r="5.19915" stroke-width="0.5" stroke="black" fill="grey"/>
  <circle cx="991.105" cy="649.704" r="3.42443" stroke-width="0.5" stroke="black" fill="black"/>
   </g>
   <g id="cell38">
  <circle cx="248.577" cy="421.792" r="9.41008" stroke-width="0.5" stroke="black" fill="grey"/>
  <circle cx="248.577" cy="421.792" r="5.71981" stroke-width="0.5" stroke="grey" fill="grey"/>
   </g>
   <g id="cell39">
  <circle cx="496.525" cy="254.099" r="5.19915" stroke-width="0.5" stroke="black" fill="grey"/>
  <circle cx="496.525" cy="254.099" r="3.42443" stroke-width="0.5" stroke="black" fill="black"/>
   </g>
   <g id="cell40">
  <circle cx="166.494" cy="341.008" r="8.54454" stroke-width="0.5" stroke="black" fill="red"/>
  <circle cx="166.494" cy="341.008" r="5.14947" stroke-width="0.5" stroke="red" fill="red"/>
   </g>
   <g id="cell41">
  <circle cx="668.456" cy="666.824" r="8.88811" stroke-width="0.5" stroke="black" fill="red"/>
  <circle cx="668.456" cy="666.824" r="5.38958" stroke-width="0.5" stroke="red" fill="red"/>
   </g>
   <g id="cell42">
  <circle cx="141.9" cy="771.881" r="8.88811" stroke-width="0.5" stroke="black" fill="red"/>
  <circle cx="141.9" cy="771.881" r="5.38958" stroke-width="0.5" stroke="red" fill="red"/>
   </g>
   <g id="cell43">
  <circle cx="932.516" cy="377.22" r="8.41271" stroke-width="0.5" stroke="black" fill="red"/>
  <circle cx="932.516" cy="377.22" r="5.05167" stroke-width="0.5" stroke="red" fill="red"/>
   </g>
   <g id="cell44">
  <circle cx="819.828" cy="15.6809" r="8.51252" stroke-width="0.5" stroke="black" fill="red"/>
  <circle cx="819.828" cy="15.6809" r="5.12552" stroke-width="0.5" stroke="red" fill="red"/>
   </g>
   <g id="cell45">
  <circle cx="623.974" cy="846.004" r="8.41271" stroke-width="0.5" stroke="black" fill="red"/>
  <circle cx="623.974" cy="846.004" r="5.05167" stroke-width="0.5" stroke="red" fill="red"/>
   </g>
   <g id="cell46">
  <circle cx="85.9526" cy="982.965" r="9.08642" stroke-width="0.5" stroke="black" fill="red"/>
  <circle cx="85.9526" cy="982.965" r="5.51837" stroke-width="0.5" stroke="red" fill="red"/>
   </g>
   <g id="cell47">
  <circle cx="893.875" cy="463.696" r="8.68937" stroke-width="0.5" stroke="black" fill="red"/>
  <circle cx="893.875" cy="463.696" r="5.25417" stroke-width="0.5" stroke="red" fill="red"/>
   </g>
   <g id="cell48">
  <circle cx="953.925" cy="41.1265" r="9.23685" stroke-width="0.5" stroke="black" fill="red"/>
  <circle cx="953.925" cy="41.1265" r="5.61315" stroke-width="0.5" stroke="red" fill="red"/>
   </g>
   <g id="cell49">
  <circle cx="460.827" cy="740.911" r="8.41271" stroke-width="0.5" stroke="black" fill="red"/>
  <circle cx="460.827" cy="740.911" r="5.05167" stroke-width="0.5" stroke="red" fill="red"/>
   </g>
   <g id="cell50">
  <circle cx="30.3218" cy="450.857" r="9.44256" stroke-width="0.5" stroke="black" fill="red"/>
  <circle cx="30.3218" cy="450.857" r="5.73955" stroke-width="0.5" stroke="red" fill="red"/>
   </g>
   <g id="cell51">
  <circle cx="963.289" cy="119.589" r="9.2729" stroke-width="0.5" stroke="black" fill="red"/>
  <circle cx="963.289" cy="119.589" r="5.63555" stroke-width="0.5" stroke="red" fill="red"/>
   </g>
   <g id="cell52">
  <circle cx="305.542" cy="487.028" r="8.41271" stroke-width="0.5" stroke="black" fill="red"/>
  <circle cx="305.542" cy="487.028" r="5.05167" stroke-width="0.5" stroke="red" fill="red"/>
   </g>
   <g id="cell53">
  <circle cx="709.669" cy="297.718" r="9.08642" stroke-width="0.5" stroke="black" fill="red"/>
  <circle cx="709.669" cy="297.718" r="5.51837" stroke-width="0.5" stroke="red" fill="red"/>
   </g>
   <g id="cell54">
  <circle cx="419.295" cy="921.124" r="8.41271" stroke-width="0.5" stroke="black" fill="red"/>
  <circle cx="419.295" cy="921.124" r="5.05167" stroke-width="0.5" stroke="red" fill="red"/>
   </g>
   <g id="cell55">
  <circle cx="226.768" cy="684.891" r="8.41271" stroke-width="0.5" stroke="black" fill="red"/>
  <circle cx="226.768" cy="684.891" r="5.05167" stroke-width="0.5" stroke="red" fill="red"/>
   </g>
   <g id="cell56">
  <circle cx="558.238" cy="848.1" r="8.57856" stroke-width="0.5" stroke="black" fill="red"/>
  <circle cx="558.238" cy="848.1" r="5.17461" stroke-width="0.5" stroke="red" fill="red"/>
   </g>
   <g id="cell57">
  <circle cx="498.884" cy="536.683" r="8.80772" stroke-width="0.5" stroke="black" fill="red"/>
  <circle cx="498.884" cy="536.683" r="5.33574" stroke-width="0.5" stroke="red" fill="red"/>
   </g>
   <g id="cell58">
  <circle cx="99.2197" cy="922.548" r="8.41271" stroke-width="0.5" stroke="black" fill="red"/>
  <circle cx="99.2197" cy="922.548" r="5.05167" stroke-width="0.5" stroke="red" fill="red"/>
   </g>
   <g id="cell59">
  <circle cx="91.5169" cy="932.337" r="8.41271" stroke-width="0.5" stroke="black" fill="red"/>
  <circle cx="91.5169" cy="932.337" r="5.05167" stroke-width="0.5" stroke="red" fill="red"/>
   </g>
   <g id="cell60">
  <circle cx="309.601" cy="28.3418" r="8.41271" stroke-width="0.5" stroke="black" fill="red"/>
  <circle cx="309.601" cy="28.3418" r="5.05167" stroke-width="0.5" stroke="red" fill="red"/>
   </g>
   <g id="cell61">
  <circle cx="840.173" cy="153.945" r="8.41271" stroke-width="0.5" stroke="black" fill="red"/>
  <circle cx="840.173" cy="153.945" r="5.05167" stroke-width="0.5" stroke="red" fill="red"/>
   </g>
   <g id="cell62">
  <circle cx="708.483" cy="825.528" r="8.41271" stroke-width="0.5" stroke="black" fill="red"/>
  <circle cx="708.483" cy="825.528" r="5.05167" stroke-width="0.5" stroke="red" fill="red"/>
   </g>
   <g id="cell63">
  <circle cx="286.749" cy="183.464" r="8.72828" stroke-width="0.5" stroke="black" fill="red"/>
  <circle cx="286.749" cy="183.464" r="5.28134" stroke-width="0.5" stroke="red" fill="red"/>
   </g>
   <g id="cell64">
  <circle cx="580.951" cy="543.943" r="8.41271" stroke-width="0.5" stroke="black" fill="red"/>
  <circle cx="580.951" cy="543.943" r="5.05167" stroke-width="0.5" stroke="red" fill="red"/>
   </g>
   <g id="cell65">
  <circle cx="173.331" cy="837.7" r="8.41271" stroke-width="0.5" stroke="black" fill="red"/>
  <circle cx="173.331" cy="837.7" r="5.05167" stroke-width="0.5" stroke="red" fill="red"/>
   </g>
   <g id="cell66">
  <circle cx="26.1832" cy="162.284" r="8.41271" stroke-width="0.5" stroke="black" fill="red"/>
  <circle cx="26.1832" cy="162.284" r="5.05167" stroke-width="0.5" stroke="red" fill="red"/>
   </g>
   <g id="cell67">
  <circle cx="542.757" cy="284.245" r="8.41271" stroke-width="0.5" stroke="black" fill="red"/>
  <circle cx="542.757" cy="284.245" r="5.05167" stroke-width="0.5" stroke="red" fill="red"/>
   </g>
   <g id="cell68">
  <circle cx="737.608" cy="292.921" r="8.96831" stroke-width="0.5" stroke="black" fill="red"/>
  <circle cx="737.608" cy="292.921" r="5.44228" stroke-width="0.5" stroke="red" fill="red"/>
   </g>
   <g id="cell69">
  <circle cx="436.2" cy="275.543" r="8.41271" stroke-width="0.5" stroke="black" fill="red"/>
  <circle cx="436.2" cy="275.543" r="5.05167" stroke-width="0.5" stroke="red" fill="red"/>
   </g>
   <g id="cell70">
  <circle cx="543.653" cy="390.727" r="8.41271" stroke-width="0.5" stroke="black" fill="red"/>
  <circle cx="543.653" cy="390.727" r="5.05167" stroke-width="0.5" stroke="red" fill="red"/>
   </g>
   <g id="cell71">
  <circle cx="882.656" cy="574.616" r="9.23685" stroke-width="0.5" stroke="black" fill="red"/>
  <circle cx="882.656" cy="574.616" r="5.61315" stroke-width="0.5" stroke="red" fill="red"/>
   </g>
   <g id="cell72">
  <circle cx="219.741" cy="876.141" r="8.61424" stroke-width="0.5" stroke="black" fill="red"/>
  <circle cx="219.741" cy="876.141" r="5.20061" stroke-width="0.5" stroke="red" fill="red"/>
   </g>
   <g id="cell73">
  <circle cx="661.764" cy="470.509" r="9.00806" stroke-width="0.5" stroke="black" fill="red"/>
  <circle cx="661.764" cy="470.509" r="5.46807" stroke-width="0.5" stroke="red" fill="red"/>
   </g>
   <g id="cell74">
  <circle cx="840.756" cy="983.354" r="8.41271" stroke-width="0.5" stroke="black" fill="red"/>
  <circle cx="840.756" cy="983.354" r="5.05167" stroke-width="0.5" stroke="red" fill="red"/>
   </g>
   <g id="cell75">
  <circle cx="102.834" cy="309.311" r="8.9283" stroke-width="0.5" stroke="black" fill="red"/>
  <circle cx="102.834" cy="309.311" r="5.4161" stroke-width="0.5" stroke="red" fill="red"/>
   </g>
   <g id="cell76">
  <circle cx="802.831" cy="395.256" r="8.41271" stroke-width="0.5" stroke="black" fill="red"/>
  <circle cx="802.831" cy="395.256" r="5.05167" stroke-width="0.5" stroke="red" fill="red"/>
   </g>
   <g id="cell77">
  <circle cx="651.137" cy="858.381" r="8.48289" stroke-width="0.5" stroke="black" fill="red"/>
  <circle cx="651.137" cy="858.381" r="5.10317" stroke-width="0.5" stroke="red" fill="red"/>
   </g>
   <g id="cell78">
  <circle cx="582.05" cy="315.029" r="8.41271" stroke-width="0.5" stroke="black" fill="red"/>
  <circle cx="582.05" cy="315.029" r="5.05167" stroke-width="0.5" stroke="red" fill="red"/>
   </g>
   <g id="cell79">
  <circle cx="970.306" cy="695.512" r="8.41271" stroke-width="0.5" stroke="black" fill="red"/>
  <circle cx="970.306" cy="695.512" r="5.05167" stroke-width="0.5" stroke="red" fill="red"/>
   </g>
   <g id="cell80">
  <circle cx="743.74" cy="674.718" r="8.41271" stroke-width="0.5" stroke="black" fill="yellow"/>
  <circle cx="743.74" cy="674.718" r="5.05167" stroke-width="0.5" stroke="yellow" fill="yellow"/>
   </g>
   <g id="cell81">
  <circle cx="508.31" cy="970.388" r="8.41271" stroke-width="0.5" stroke="black" fill="yellow"/>
  <circle cx="508.31" cy="970.388" r="5.05167" stroke-width="0.5" stroke="yellow" fill="yellow"/>
   </g>
   <g id="cell82">
  <circle cx="667.145" cy="415.546" r="8.68937" stroke-width="0.5" stroke="black" fill="yellow"/>
  <circle cx="667.145" cy="415.546" r="5.25417" stroke-width="0.5" stroke="yellow" fill="yellow"/>
   </g>
   <g id="cell83">
  <circle cx="615.371" cy="585.412" r="8.45606" stroke-width="0.5" stroke="black" fill="yellow"/>
  <circle cx="615.371" cy="585.412" r="5.08296" stroke-width="0.5" stroke="yellow" fill="yellow"/>
   </g>
   <g id="cell84">
  <circle cx="13.2596" cy="472.629" r="8.41271" stroke-width="0.5" stroke="black" fill="yellow"/>
  <circle cx="13.2596" cy="472.629" r="5.05167" stroke-width="0.5" stroke="yellow" fill="yellow"/>
   </g>
   <g id="cell85">
  <circle cx="718.219" cy="681.784" r="9.00806" stroke-width="0.5" stroke="black" fill="yellow"/>
  <circle cx="718.219" cy="681.784" r="5.46807" stroke-width="0.5" stroke="yellow" fill="yellow"/>
   </g>
   <g id="cell86">
  <circle cx="276.215" cy="391.74" r="8.41271" stroke-width="0.5" stroke="black" fill="yellow"/>
  <circle cx="276.215" cy="391.74" r="5.05167" stroke-width="0.5" stroke="yellow" fill="yellow"/>
   </g>
   <g id="cell87">
  <circle cx="761.889" cy="448.6" r="9.37686" stroke-width="0.5" stroke="black" fill="yellow"/>
  <circle cx="761.889" cy="448.6" r="5.69955" stroke-width="0.5" stroke="yellow" fill="yellow"/>
   </g>
   <g id="cell88">
  <circle cx="139.433" cy="98.5963" r="8.41271" stroke-width="0.5" stroke="black" fill="yellow"/>
  <circle cx="139.433" cy="98.5963" r="5.05167" stroke-width="0.5" stroke="yellow" fill="yellow"/>
   </g>
   <g id="cell89">
  <circle cx="75.059" cy="562.89" r="8.41271" stroke-width="0.5" stroke="black" fill="yellow"/>
  <circle cx="75.059" cy="562.89" r="5.05167" stroke-width="0.5" stroke="yellow" fill="yellow"/>
   </g>
   <g id="cell90">
  <circle cx="576.381" cy="549.137" r="2.91074" stroke-width="0.5" stroke="black" fill="yellow"/>
  <circle cx="576.381" cy="549.137" r="2.42562" stroke-width="0.5" stroke="black" fill="black"/>
   </g>
   <g id="cell91">
  <circle cx="37.4374" cy="647.072" r="8.41271" stroke-width="0.5" stroke="black" fill="yellow"/>
  <circle cx="37.4374" cy="647.072" r="5.05167" stroke-width="0.5" stroke="yellow" fill="yellow"/>
   </g>
   <g id="cell92">
  <circle cx="660.831" cy="298.423" r="8.41271" stroke-width="0.5" stroke="black" fill="yellow"/>
  <circle cx="660.831" cy="298.423" r="5.05167" stroke-width="0.5" stroke="yellow" fill="yellow"/>
   </g>
   <g id="cell93">
  <circle cx="212.719" cy="896.126" r="9.37686" stroke-width="0.5" stroke="black" fill="yellow"/>
  <circle cx="212.719" cy="896.126" r="5.69955" stroke-width="0.5" stroke="yellow" fill="yellow"/>
   </g>
   <g id="cell94">
  <circle cx="365.975" cy="78.6088" r="8.41271" stroke-width="0.5" stroke="black" fill="yellow"/>
  <circle cx="365.975" cy="78.6088" r="5.05167" stroke-width="0.5" stroke="yellow" fill="yellow"/>
   </g>
   <g id="cell95">
  <circle cx="972.856" cy="889.965" r="8.41271" stroke-width="0.5" stroke="black" fill="yellow"/>
  <circle cx="972.856" cy="889.965" r="5.05167" stroke-width="0.5" stroke="yellow" fill="yellow"/>
   </g>
   <g id="cell96">
  <circle cx="800.907" cy="523.897" r="8.41271" stroke-width="0.5" stroke="black" fill="yellow"/>
  <circle cx="800.907" cy="523.897" r="5.05167" stroke-width="0.5" stroke="yellow" fill="yellow"/>
   </g>
   <g id="cell97">
  <circle cx="438.607" cy="115.565" r="8.41271" stroke-width="0.5" stroke="black" fill="yellow"/>
  <circle cx="438.607" cy="115.565" r="5.05167" stroke-width="0.5" stroke="yellow" fill="yellow"/>
   </g>
   <g id="cell98">
  <circle cx="921.247" cy="338.662" r="8.41271" stroke-width="0.5" stroke="black" fill="yellow"/>
  <circle cx="921.247" cy="338.662" r="5.05167" stroke-width="0.5" stroke="yellow" fill="yellow"/>
   </g>
   <g id="cell99">
  <circle cx="485.789" cy="987.491" r="8.41271" stroke-width="0.5" stroke="black" fill="yellow"/>
  <circle cx="485.789" cy="987.491" r="5.05167" stroke-width="0.5" stroke="yellow" fill="yellow"/>
   </g>
   <g id="cell100">
  <circle cx="152.611" cy="875.006" r="9.04745" stroke-width="0.5" stroke="black" fill="yellow"/>
  <circle cx="152.611" cy="875.006" r="5.49345" stroke-width="0.5" stroke="yellow" fill="yellow"/>
   </g>
   <g id="cell101">
  <circle cx="51.1652" cy="150.355" r="8.41271" stroke-width="0.5" stroke="black" fill="yellow"/>
  <circle cx="51.1652" cy="150.355" r="5.05167" stroke-width="0.5" stroke="yellow" fill="yellow"/>
   </g>
   <g id="cell102">
  <circle cx="628.788" cy="161.231" r="8.41271" stroke-width="0.5" stroke="black" fill="yellow"/>
  <circle cx="628.788" cy="161.231" r="5.05167" stroke-width="0.5" stroke="yellow" fill="yellow"/>
   </g>
   <g id="cell103">
  <circle cx="796.195" cy="866.388" r="8.41271" stroke-width="0.5" stroke="black" fill="yellow"/>
  <circle cx="796.195" cy="866.388" r="5.05167" stroke-width="0.5" stroke="yellow" fill="yellow"/>
   </g>
   <g id="cell104">
  <circle cx="819.433" cy="434.044" r="9.30826" stroke-width="0.5" stroke="black" fill="yellow"/>
  <circle cx="819.433" cy="434.044" r="5.65742" stroke-width="0.5" stroke="yellow" fill="yellow"/>
   </g>
   <g id="cell105">
  <circle cx="137.998" cy="400.031" r="8.41271" stroke-width="0.5" stroke="black" fill="yellow"/>
  <circle cx="137.998" cy="400.031" r="5.05167" stroke-width="0.5" stroke="yellow" fill="yellow"/>
   </g>
   <g id="cell106">
  <circle cx="36.6523" cy="968.238" r="8.9283" stroke-width="0.5" stroke="black" fill="yellow"/>
  <circle cx="36.6523" cy="968.238" r="5.4161" stroke-width="0.5" stroke="yellow" fill="yellow"/>
   </g>
   <g id="cell107">
  <circle cx="378.147" cy="441.812" r="8.41271" stroke-width="0.5" stroke="black" fill="yellow"/>
  <circle cx="378.147" cy="441.812" r="5.05167" stroke-width="0.5" stroke="yellow" fill="yellow"/>
   </g>
   <g id="cell108">
  <circle cx="718.726" cy="69.3292" r="9.34292" stroke-width="0.5" stroke="black" fill="yellow"/>
  <circle cx="718.726" cy="69.3292" r="5.67875" stroke-width="0.5" stroke="yellow" fill="yellow"/>
   </g>
   <g id="cell109">
  <circle cx="376.914" cy="969.001" r="8.41271" stroke-width="0.5" stroke="black" fill="yellow"/>
  <circle cx="376.914" cy="969.001" r="5.05167" stroke-width="0.5" stroke="yellow" fill="yellow"/>
   </g>
   <g id="cell110">
  <circle cx="846.542" cy="241.473" r="8.41271" stroke-width="0.5" stroke="black" fill="yellow"/>
  <circle cx="846.542" cy="241.473" r="5.05167" stroke-width="0.5" stroke="yellow" fill="yellow"/>
   </g>
   <g id="cell111">
  <circle cx="773.435" cy="355.288" r="8.41271" stroke-width="0.5" stroke="black" fill="yellow"/>
  <circle cx="773.435" cy="355.288" r="5.05167" stroke-width="0.5" stroke="yellow" fill="yellow"/>
   </g>
   <g id="cell112">
  <circle cx="725.771" cy="754.765" r="8.96831" stroke-width="0.5" stroke="black" fill="yellow"/>
  <circle cx="725.771" cy="754.765" r="5.44228" stroke-width="0.5" stroke="yellow" fill="yellow"/>
   </g>
   <g id="cell113">
  <circle cx="347.194" cy="522.062" r="3.28516" stroke-width="0.5" stroke="black" fill="yellow"/>
  <circle cx="347.194" cy="522.062" r="2.63044" stroke-width="0.5" stroke="black" fill="black"/>
   </g>
   <g id="cell114">
  <circle cx="56.4621" cy="343.181" r="8.41271" stroke-width="0.5" stroke="black" fill="yellow"/>
  <circle cx="56.4621" cy="343.181" r="5.05167" stroke-width="0.5" stroke="yellow" fill="yellow"/>
   </g>
   <g id="cell115">
  <circle cx="193.96" cy="25.8367" r="8.65127" stroke-width="0.5" stroke="black" fill="yellow"/>
  <circle cx="193.96" cy="25.8367" r="5.2272" stroke-width="0.5" stroke="yellow" fill="yellow"/>
   </g>
   <g id="cell116">
  <circle cx="797.365" cy="477.161" r="8.41271" stroke-width="0.5" stroke="black" fill="yellow"/>
  <circle cx="797.365" cy="477.161" r="5.05167" stroke-width="0.5" stroke="yellow" fill="yellow"/>
   </g>
   <g id="cell117">
  <circle cx="878.893" cy="346.575" r="8.41271" stroke-width="0.5" stroke="black" fill="yellow"/>
  <circle cx="878.893" cy="346.575" r="5.05167" stroke-width="0.5" stroke="yellow" fill="yellow"/>
   </g>
   <g id="cell118">
  <circle cx="914.698" cy="608.435" r="9.12489" stroke-width="0.5" stroke="black" fill="yellow"/>
  <circle cx="914.698" cy="608.435" r="5.54282" stroke-width="0.5" stroke="yellow" fill="yellow"/>
   </g>
   <g id="cell119">
  <circle cx="589.223" cy="30.3375" r="8.41271" stroke-width="0.5" stroke="black" fill="yellow"/>
  <circle cx="589.223" cy="30.3375" r="5.05167" stroke-width="0.5" stroke="yellow" fill="yellow"/>
   </g>
  </g>
 </g>
  <rect x="775" y="1035" width="200" height="10" stroke-width="2" stroke="rgb(255,255,255)" fill="rgb(0,0,0)"/>
  <text x="781.25" y="1028.75"
   font-family="Arial" font-size="25" fill="black" >
   200 &#956;m
  </text>
  <text x="25" y="1045"
   font-family="Arial" font-size="18.75" fill="black" >
   0 days, 0 hours, 0 minutes, and 10.1262 seconds
  </text>
  <rect x="0" y="70" width="1000" height="1000" stroke-width="2" stroke="rgb(0,0,0)" fill="none"/>
</svg>
