<?xml version="1.0" encoding="UTF-8" standalone="no"?>
<!-- Created with PhysiCell (http://PhysiCell.MathCancer.org/) -->
<svg 
 xmlns:dc="http://purl.org/dc/elements/1.1/" 
 xmlns:cc="http://creativecommons.org/ns#" 
 xmlns:rdf="http://www.w3.org/1999/02/22-rdf-syntax-ns#" 
 xmlns:svg="http://www.w3.org/2000/svg" 
 xmlns="http://www.w3.org/2000/svg" 
 version="1.1" 
 width="1000" 
 height="1070" 
 id="svg2">
  <rect x="0" y="0" width="1000" height="1070" stroke-width="2" stroke="white" fill="white"/>
  <text x="12.5" y="30"
   font-family="Arial" font-size="25" fill="black" >
   Current time: 1 days, 0 hours, and 30.00 minutes, z = 0.00 &#956;m
  </text>
  <text x="12.5" y="57.5"
   font-family="Arial" font-size="23.75" fill="black" >
   156 agents
  </text>
 <g id="tissue" 
    transform="translate(0,1070) scale(1,-1)">
  <g id="ECM">
  </g>
  <g id="cells">
   <g id="cell0">
  <circle cx="508.739" cy="615.448" r="10.3531" stroke-width="0.5" stroke="black" fill="grey"/>
  <circle cx="508.739" cy="615.448" r="6.25445" stroke-width="0.5" stroke="grey" fill="grey"/>
   </g>
   <g id="cell118">
  <circle cx="857.03" cy="581.137" r="8.41002" stroke-width="0.5" stroke="black" fill="yellow"/>
  <circle cx="857.03" cy="581.137" r="5.05093" stroke-width="0.5" stroke="yellow" fill="yellow"/>
   </g>
   <g id="cell100">
  <circle cx="129.181" cy="807.435" r="10.3306" stroke-width="0.5" stroke="black" fill="yellow"/>
  <circle cx="129.181" cy="807.435" r="6.24315" stroke-width="0.5" stroke="yellow" fill="yellow"/>
   </g>
   <g id="cell3">
  <circle cx="609.049" cy="632.278" r="10.2614" stroke-width="0.5" stroke="black" fill="grey"/>
  <circle cx="609.049" cy="632.278" r="6.20745" stroke-width="0.5" stroke="grey" fill="grey"/>
   </g>
   <g id="cell103">
  <circle cx="828.032" cy="879.597" r="10.4761" stroke-width="0.5" stroke="black" fill="yellow"/>
  <circle cx="828.032" cy="879.597" r="6.31388" stroke-width="0.5" stroke="yellow" fill="yellow"/>
   </g>
   <g id="cell135">
  <circle cx="174.309" cy="793.932" r="9.84187" stroke-width="0.5" stroke="black" fill="yellow"/>
  <circle cx="174.309" cy="793.932" r="5.97604" stroke-width="0.5" stroke="yellow" fill="yellow"/>
   </g>
   <g id="cell185">
  <circle cx="881.253" cy="407.106" r="8.53209" stroke-width="0.5" stroke="black" fill="yellow"/>
  <circle cx="881.253" cy="407.106" r="5.14537" stroke-width="0.5" stroke="yellow" fill="yellow"/>
   </g>
   <g id="cell7">
  <circle cx="856.528" cy="501.401" r="10.1344" stroke-width="0.5" stroke="black" fill="grey"/>
  <circle cx="856.528" cy="501.401" r="6.13996" stroke-width="0.5" stroke="grey" fill="grey"/>
   </g>
   <g id="cell192">
  <circle cx="831.728" cy="434.578" r="8.38957" stroke-width="0.5" stroke="black" fill="yellow"/>
  <circle cx="831.728" cy="434.578" r="5.04365" stroke-width="0.5" stroke="yellow" fill="yellow"/>
   </g>
   <g id="cell112">
  <circle cx="755.681" cy="729.807" r="8.4097" stroke-width="0.5" stroke="black" fill="yellow"/>
  <circle cx="755.681" cy="729.807" r="5.05084" stroke-width="0.5" stroke="yellow" fill="yellow"/>
   </g>
   <g id="cell176">
  <circle cx="226.501" cy="73.602" r="8.40494" stroke-width="0.5" stroke="black" fill="red"/>
  <circle cx="226.501" cy="73.602" r="5.04929" stroke-width="0.5" stroke="red" fill="red"/>
   </g>
   <g id="cell186">
  <circle cx="69.0936" cy="576.31" r="8.3995" stroke-width="0.5" stroke="black" fill="yellow"/>
  <circle cx="69.0936" cy="576.31" r="5.04738" stroke-width="0.5" stroke="yellow" fill="yellow"/>
   </g>
   <g id="cell104">
  <circle cx="766.616" cy="413.333" r="10.2712" stroke-width="0.5" stroke="black" fill="yellow"/>
  <circle cx="766.616" cy="413.333" r="6.21252" stroke-width="0.5" stroke="yellow" fill="yellow"/>
   </g>
   <g id="cell102">
  <circle cx="601.811" cy="145.42" r="9.33802" stroke-width="0.5" stroke="black" fill="yellow"/>
  <circle cx="601.811" cy="145.42" r="5.67717" stroke-width="0.5" stroke="yellow" fill="yellow"/>
   </g>
   <g id="cell98">
  <circle cx="898.038" cy="403.387" r="8.79601" stroke-width="0.5" stroke="black" fill="yellow"/>
  <circle cx="898.038" cy="403.387" r="5.33175" stroke-width="0.5" stroke="yellow" fill="yellow"/>
   </g>
   <g id="cell97">
  <circle cx="421.245" cy="78.0939" r="8.52662" stroke-width="0.5" stroke="black" fill="yellow"/>
  <circle cx="421.245" cy="78.0939" r="5.14333" stroke-width="0.5" stroke="yellow" fill="yellow"/>
   </g>
   <g id="cell16">
  <circle cx="128.876" cy="712.565" r="10.1854" stroke-width="0.5" stroke="black" fill="grey"/>
  <circle cx="128.876" cy="712.565" r="6.16734" stroke-width="0.5" stroke="grey" fill="grey"/>
   </g>
   <g id="cell116">
  <circle cx="825.849" cy="422.508" r="8.38957" stroke-width="0.5" stroke="black" fill="yellow"/>
  <circle cx="825.849" cy="422.508" r="5.04365" stroke-width="0.5" stroke="yellow" fill="yellow"/>
   </g>
   <g id="cell177">
  <circle cx="446.721" cy="285.099" r="8.40494" stroke-width="0.5" stroke="black" fill="red"/>
  <circle cx="446.721" cy="285.099" r="5.04929" stroke-width="0.5" stroke="red" fill="red"/>
   </g>
   <g id="cell101">
  <circle cx="95.1361" cy="168.303" r="10.5295" stroke-width="0.5" stroke="black" fill="yellow"/>
  <circle cx="95.1361" cy="168.303" r="6.33783" stroke-width="0.5" stroke="yellow" fill="yellow"/>
   </g>
   <g id="cell184">
  <circle cx="541.47" cy="296.168" r="9.52735" stroke-width="0.5" stroke="black" fill="red"/>
  <circle cx="541.47" cy="296.168" r="5.79284" stroke-width="0.5" stroke="red" fill="red"/>
   </g>
   <g id="cell99">
  <circle cx="497.677" cy="977.587" r="9.22809" stroke-width="0.5" stroke="black" fill="yellow"/>
  <circle cx="497.677" cy="977.587" r="5.61017" stroke-width="0.5" stroke="yellow" fill="yellow"/>
   </g>
   <g id="cell115">
  <circle cx="213.062" cy="15.098" r="9.81913" stroke-width="0.5" stroke="black" fill="yellow"/>
  <circle cx="213.062" cy="15.098" r="5.96312" stroke-width="0.5" stroke="yellow" fill="yellow"/>
   </g>
   <g id="cell191">
  <circle cx="740.068" cy="129.37" r="8.39316" stroke-width="0.5" stroke="black" fill="grey"/>
  <circle cx="740.068" cy="129.37" r="5.04503" stroke-width="0.5" stroke="grey" fill="grey"/>
   </g>
   <g id="cell153">
  <circle cx="180.195" cy="387.463" r="10.0926" stroke-width="0.5" stroke="black" fill="red"/>
  <circle cx="180.195" cy="387.463" r="6.11713" stroke-width="0.5" stroke="red" fill="red"/>
   </g>
   <g id="cell105">
  <circle cx="57.6312" cy="413.513" r="10.4925" stroke-width="0.5" stroke="black" fill="yellow"/>
  <circle cx="57.6312" cy="413.513" r="6.32139" stroke-width="0.5" stroke="yellow" fill="yellow"/>
   </g>
   <g id="cell26">
  <circle cx="675.114" cy="475.281" r="6.27435" stroke-width="0.5" stroke="black" fill="grey"/>
  <circle cx="675.114" cy="475.281" r="4.17066" stroke-width="0.5" stroke="black" fill="black"/>
   </g>
   <g id="cell117">
  <circle cx="893.367" cy="389.416" r="8.39571" stroke-width="0.5" stroke="black" fill="yellow"/>
  <circle cx="893.367" cy="389.416" r="5.04599" stroke-width="0.5" stroke="yellow" fill="yellow"/>
   </g>
   <g id="cell28">
  <circle cx="697.4" cy="138.073" r="8.40944" stroke-width="0.5" stroke="black" fill="grey"/>
  <circle cx="697.4" cy="138.073" r="5.05076" stroke-width="0.5" stroke="grey" fill="grey"/>
   </g>
   <g id="cell29">
  <circle cx="946.107" cy="655.864" r="9.40798" stroke-width="0.5" stroke="black" fill="grey"/>
  <circle cx="946.107" cy="655.864" r="5.71919" stroke-width="0.5" stroke="grey" fill="grey"/>
   </g>
   <g id="cell30">
  <circle cx="720.26" cy="114.415" r="8.39316" stroke-width="0.5" stroke="black" fill="grey"/>
  <circle cx="720.26" cy="114.415" r="5.04503" stroke-width="0.5" stroke="grey" fill="grey"/>
   </g>
   <g id="cell190">
  <circle cx="427.321" cy="88.1425" r="8.39422" stroke-width="0.5" stroke="black" fill="yellow"/>
  <circle cx="427.321" cy="88.1425" r="5.04543" stroke-width="0.5" stroke="yellow" fill="yellow"/>
   </g>
   <g id="cell114">
  <circle cx="50.4675" cy="346.293" r="9.15679" stroke-width="0.5" stroke="black" fill="yellow"/>
  <circle cx="50.4675" cy="346.293" r="5.5648" stroke-width="0.5" stroke="yellow" fill="yellow"/>
   </g>
   <g id="cell107">
  <circle cx="388.379" cy="454.267" r="10.5233" stroke-width="0.5" stroke="black" fill="yellow"/>
  <circle cx="388.379" cy="454.267" r="6.33514" stroke-width="0.5" stroke="yellow" fill="yellow"/>
   </g>
   <g id="cell106">
  <circle cx="27.0656" cy="921.114" r="10.22" stroke-width="0.5" stroke="black" fill="yellow"/>
  <circle cx="27.0656" cy="921.114" r="6.18568" stroke-width="0.5" stroke="yellow" fill="yellow"/>
   </g>
   <g id="cell35">
  <circle cx="943.756" cy="92.1336" r="10.4573" stroke-width="0.5" stroke="black" fill="grey"/>
  <circle cx="943.756" cy="92.1336" r="6.30507" stroke-width="0.5" stroke="grey" fill="grey"/>
   </g>
   <g id="cell109">
  <circle cx="370.506" cy="968.428" r="8.40632" stroke-width="0.5" stroke="black" fill="yellow"/>
  <circle cx="370.506" cy="968.428" r="5.04976" stroke-width="0.5" stroke="yellow" fill="yellow"/>
   </g>
   <g id="cell111">
  <circle cx="766.557" cy="375.064" r="8.39422" stroke-width="0.5" stroke="black" fill="yellow"/>
  <circle cx="766.557" cy="375.064" r="5.04543" stroke-width="0.5" stroke="yellow" fill="yellow"/>
   </g>
   <g id="cell131">
  <circle cx="638.474" cy="576.831" r="9.99793" stroke-width="0.5" stroke="black" fill="grey"/>
  <circle cx="638.474" cy="576.831" r="6.06448" stroke-width="0.5" stroke="grey" fill="grey"/>
   </g>
   <g id="cell110">
  <circle cx="874.285" cy="278.675" r="10.5117" stroke-width="0.5" stroke="black" fill="yellow"/>
  <circle cx="874.285" cy="278.675" r="6.33005" stroke-width="0.5" stroke="yellow" fill="yellow"/>
   </g>
   <g id="cell40">
  <circle cx="167.993" cy="410.893" r="9.9612" stroke-width="0.5" stroke="black" fill="red"/>
  <circle cx="167.993" cy="410.893" r="6.04411" stroke-width="0.5" stroke="red" fill="red"/>
   </g>
   <g id="cell41">
  <circle cx="665.114" cy="721.522" r="10.0632" stroke-width="0.5" stroke="black" fill="red"/>
  <circle cx="665.114" cy="721.522" r="6.1008" stroke-width="0.5" stroke="red" fill="red"/>
   </g>
   <g id="cell42">
  <circle cx="153.199" cy="714.008" r="9.59146" stroke-width="0.5" stroke="black" fill="red"/>
  <circle cx="153.199" cy="714.008" r="5.82969" stroke-width="0.5" stroke="red" fill="red"/>
   </g>
   <g id="cell43">
  <circle cx="868.224" cy="423.246" r="9.58872" stroke-width="0.5" stroke="black" fill="red"/>
  <circle cx="868.224" cy="423.246" r="5.82876" stroke-width="0.5" stroke="red" fill="red"/>
   </g>
   <g id="cell44">
  <circle cx="850.978" cy="57.8368" r="9.64617" stroke-width="0.5" stroke="black" fill="red"/>
  <circle cx="850.978" cy="57.8368" r="5.86231" stroke-width="0.5" stroke="red" fill="red"/>
   </g>
   <g id="cell45">
  <circle cx="666.69" cy="812.254" r="8.40215" stroke-width="0.5" stroke="black" fill="red"/>
  <circle cx="666.69" cy="812.254" r="5.04833" stroke-width="0.5" stroke="red" fill="red"/>
   </g>
   <g id="cell46">
  <circle cx="55.9243" cy="915.917" r="8.40994" stroke-width="0.5" stroke="black" fill="red"/>
  <circle cx="55.9243" cy="915.917" r="5.05091" stroke-width="0.5" stroke="red" fill="red"/>
   </g>
   <g id="cell47">
  <circle cx="899.964" cy="461.97" r="9.90394" stroke-width="0.5" stroke="black" fill="red"/>
  <circle cx="899.964" cy="461.97" r="6.01164" stroke-width="0.5" stroke="red" fill="red"/>
   </g>
   <g id="cell48">
  <circle cx="929.136" cy="45.3309" r="10.2895" stroke-width="0.5" stroke="black" fill="red"/>
  <circle cx="929.136" cy="45.3309" r="6.222" stroke-width="0.5" stroke="red" fill="red"/>
   </g>
   <g id="cell49">
  <circle cx="494.077" cy="802.869" r="8.96253" stroke-width="0.5" stroke="black" fill="red"/>
  <circle cx="494.077" cy="802.869" r="5.44041" stroke-width="0.5" stroke="red" fill="red"/>
   </g>
   <g id="cell50">
  <circle cx="14.1146" cy="438.73" r="9.77433" stroke-width="0.5" stroke="black" fill="red"/>
  <circle cx="14.1146" cy="438.73" r="5.9369" stroke-width="0.5" stroke="red" fill="red"/>
   </g>
   <g id="cell51">
  <circle cx="903.478" cy="121.467" r="10.1862" stroke-width="0.5" stroke="black" fill="red"/>
  <circle cx="903.478" cy="121.467" r="6.16761" stroke-width="0.5" stroke="red" fill="red"/>
   </g>
   <g id="cell96">
  <circle cx="822.551" cy="549.42" r="9.88191" stroke-width="0.5" stroke="black" fill="yellow"/>
  <circle cx="822.551" cy="549.42" r="5.99951" stroke-width="0.5" stroke="yellow" fill="yellow"/>
   </g>
   <g id="cell53">
  <circle cx="694.03" cy="298.492" r="10.3065" stroke-width="0.5" stroke="black" fill="red"/>
  <circle cx="694.03" cy="298.492" r="6.23085" stroke-width="0.5" stroke="red" fill="red"/>
   </g>
   <g id="cell54">
  <circle cx="425.928" cy="907.077" r="8.40715" stroke-width="0.5" stroke="black" fill="red"/>
  <circle cx="425.928" cy="907.077" r="5.05003" stroke-width="0.5" stroke="red" fill="red"/>
   </g>
   <g id="cell55">
  <circle cx="233.269" cy="655.944" r="10.5561" stroke-width="0.5" stroke="black" fill="red"/>
  <circle cx="233.269" cy="655.944" r="6.34901" stroke-width="0.5" stroke="red" fill="red"/>
   </g>
   <g id="cell56">
  <circle cx="587.326" cy="844.03" r="10.0626" stroke-width="0.5" stroke="black" fill="red"/>
  <circle cx="587.326" cy="844.03" r="6.10062" stroke-width="0.5" stroke="red" fill="red"/>
   </g>
   <g id="cell57">
  <circle cx="483.724" cy="532.902" r="10.1215" stroke-width="0.5" stroke="black" fill="red"/>
  <circle cx="483.724" cy="532.902" r="6.13279" stroke-width="0.5" stroke="red" fill="red"/>
   </g>
   <g id="cell58">
  <circle cx="16.9049" cy="895.886" r="9.84001" stroke-width="0.5" stroke="black" fill="red"/>
  <circle cx="16.9049" cy="895.886" r="5.97542" stroke-width="0.5" stroke="red" fill="red"/>
   </g>
   <g id="cell59">
  <circle cx="64.8622" cy="967.486" r="9.92172" stroke-width="0.5" stroke="black" fill="red"/>
  <circle cx="64.8622" cy="967.486" r="6.02219" stroke-width="0.5" stroke="red" fill="red"/>
   </g>
   <g id="cell60">
  <circle cx="257.505" cy="58.6841" r="8.40494" stroke-width="0.5" stroke="black" fill="red"/>
  <circle cx="257.505" cy="58.6841" r="5.04929" stroke-width="0.5" stroke="red" fill="red"/>
   </g>
   <g id="cell61">
  <circle cx="824.137" cy="156.231" r="8.40731" stroke-width="0.5" stroke="black" fill="red"/>
  <circle cx="824.137" cy="156.231" r="5.05008" stroke-width="0.5" stroke="red" fill="red"/>
   </g>
   <g id="cell62">
  <circle cx="723.447" cy="811.568" r="9.90658" stroke-width="0.5" stroke="black" fill="red"/>
  <circle cx="723.447" cy="811.568" r="6.01243" stroke-width="0.5" stroke="red" fill="red"/>
   </g>
   <g id="cell63">
  <circle cx="338.241" cy="162.414" r="9.08337" stroke-width="0.5" stroke="black" fill="red"/>
  <circle cx="338.241" cy="162.414" r="5.51743" stroke-width="0.5" stroke="red" fill="red"/>
   </g>
   <g id="cell64">
  <circle cx="606.7" cy="556.092" r="10.211" stroke-width="0.5" stroke="black" fill="red"/>
  <circle cx="606.7" cy="556.092" r="6.18041" stroke-width="0.5" stroke="red" fill="red"/>
   </g>
   <g id="cell188">
  <circle cx="869.837" cy="385.904" r="8.39571" stroke-width="0.5" stroke="black" fill="yellow"/>
  <circle cx="869.837" cy="385.904" r="5.04599" stroke-width="0.5" stroke="yellow" fill="yellow"/>
   </g>
   <g id="cell66">
  <circle cx="26.4781" cy="155.316" r="9.64219" stroke-width="0.5" stroke="black" fill="red"/>
  <circle cx="26.4781" cy="155.316" r="5.86091" stroke-width="0.5" stroke="red" fill="red"/>
   </g>
   <g id="cell67">
  <circle cx="517.357" cy="250.279" r="3.36029" stroke-width="0.5" stroke="black" fill="red"/>
  <circle cx="517.357" cy="250.279" r="2.62218" stroke-width="0.5" stroke="black" fill="black"/>
   </g>
   <g id="cell68">
  <circle cx="740.221" cy="243.615" r="9.92414" stroke-width="0.5" stroke="black" fill="red"/>
  <circle cx="740.221" cy="243.615" r="6.023" stroke-width="0.5" stroke="red" fill="red"/>
   </g>
   <g id="cell69">
  <circle cx="451.822" cy="289.389" r="8.40494" stroke-width="0.5" stroke="black" fill="red"/>
  <circle cx="451.822" cy="289.389" r="5.04929" stroke-width="0.5" stroke="red" fill="red"/>
   </g>
   <g id="cell70">
  <circle cx="516.467" cy="349.675" r="9.1948" stroke-width="0.5" stroke="black" fill="red"/>
  <circle cx="516.467" cy="349.675" r="5.58849" stroke-width="0.5" stroke="red" fill="red"/>
   </g>
   <g id="cell71">
  <circle cx="865.126" cy="514.102" r="10.3067" stroke-width="0.5" stroke="black" fill="red"/>
  <circle cx="865.126" cy="514.102" r="6.23091" stroke-width="0.5" stroke="red" fill="red"/>
   </g>
   <g id="cell72">
  <circle cx="188.518" cy="900.685" r="10.1211" stroke-width="0.5" stroke="black" fill="red"/>
  <circle cx="188.518" cy="900.685" r="6.13268" stroke-width="0.5" stroke="red" fill="red"/>
   </g>
   <g id="cell73">
  <circle cx="670.055" cy="437.552" r="9.61975" stroke-width="0.5" stroke="black" fill="red"/>
  <circle cx="670.055" cy="437.552" r="5.84643" stroke-width="0.5" stroke="red" fill="red"/>
   </g>
   <g id="cell74">
  <circle cx="870.216" cy="940.918" r="8.40715" stroke-width="0.5" stroke="black" fill="red"/>
  <circle cx="870.216" cy="940.918" r="5.05003" stroke-width="0.5" stroke="red" fill="red"/>
   </g>
   <g id="cell75">
  <circle cx="116.274" cy="328.336" r="10.0933" stroke-width="0.5" stroke="black" fill="red"/>
  <circle cx="116.274" cy="328.336" r="6.11735" stroke-width="0.5" stroke="red" fill="red"/>
   </g>
   <g id="cell76">
  <circle cx="768.808" cy="401.166" r="8.68386" stroke-width="0.5" stroke="black" fill="red"/>
  <circle cx="768.808" cy="401.166" r="5.25245" stroke-width="0.5" stroke="red" fill="red"/>
   </g>
   <g id="cell77">
  <circle cx="627.398" cy="841.534" r="9.67276" stroke-width="0.5" stroke="black" fill="red"/>
  <circle cx="627.398" cy="841.534" r="5.878" stroke-width="0.5" stroke="red" fill="red"/>
   </g>
   <g id="cell78">
  <circle cx="577.832" cy="287.435" r="9.56115" stroke-width="0.5" stroke="black" fill="red"/>
  <circle cx="577.832" cy="287.435" r="5.81202" stroke-width="0.5" stroke="red" fill="red"/>
   </g>
   <g id="cell79">
  <circle cx="972.92" cy="691.549" r="8.67974" stroke-width="0.5" stroke="black" fill="red"/>
  <circle cx="972.92" cy="691.549" r="5.251" stroke-width="0.5" stroke="red" fill="red"/>
   </g>
   <g id="cell80">
  <circle cx="767.462" cy="678.557" r="10.5039" stroke-width="0.5" stroke="black" fill="yellow"/>
  <circle cx="767.462" cy="678.557" r="6.32657" stroke-width="0.5" stroke="yellow" fill="yellow"/>
   </g>
   <g id="cell81">
  <circle cx="505.937" cy="987.74" r="10.0497" stroke-width="0.5" stroke="black" fill="yellow"/>
  <circle cx="505.937" cy="987.74" r="6.09278" stroke-width="0.5" stroke="yellow" fill="yellow"/>
   </g>
   <g id="cell82">
  <circle cx="649.925" cy="435.68" r="10.2408" stroke-width="0.5" stroke="black" fill="yellow"/>
  <circle cx="649.925" cy="435.68" r="6.19676" stroke-width="0.5" stroke="yellow" fill="yellow"/>
   </g>
   <g id="cell83">
  <circle cx="592.898" cy="581.115" r="9.90337" stroke-width="0.5" stroke="black" fill="yellow"/>
  <circle cx="592.898" cy="581.115" r="6.01146" stroke-width="0.5" stroke="yellow" fill="yellow"/>
   </g>
   <g id="cell84">
  <circle cx="9.6377" cy="517.177" r="8.83934" stroke-width="0.5" stroke="black" fill="yellow"/>
  <circle cx="9.6377" cy="517.177" r="5.35994" stroke-width="0.5" stroke="yellow" fill="yellow"/>
   </g>
   <g id="cell85">
  <circle cx="777.667" cy="668.453" r="10.2708" stroke-width="0.5" stroke="black" fill="yellow"/>
  <circle cx="777.667" cy="668.453" r="6.2124" stroke-width="0.5" stroke="yellow" fill="yellow"/>
   </g>
   <g id="cell86">
  <circle cx="315.215" cy="464.597" r="8.39664" stroke-width="0.5" stroke="black" fill="yellow"/>
  <circle cx="315.215" cy="464.597" r="5.04633" stroke-width="0.5" stroke="yellow" fill="yellow"/>
   </g>
   <g id="cell87">
  <circle cx="750.714" cy="411.951" r="8.41049" stroke-width="0.5" stroke="black" fill="yellow"/>
  <circle cx="750.714" cy="411.951" r="5.05108" stroke-width="0.5" stroke="yellow" fill="yellow"/>
   </g>
   <g id="cell88">
  <circle cx="152.165" cy="105.459" r="3.11546" stroke-width="0.5" stroke="black" fill="yellow"/>
  <circle cx="152.165" cy="105.459" r="2.70686" stroke-width="0.5" stroke="black" fill="black"/>
   </g>
   <g id="cell89">
  <circle cx="78.0216" cy="516.484" r="8.63878" stroke-width="0.5" stroke="black" fill="yellow"/>
  <circle cx="78.0216" cy="516.484" r="5.22301" stroke-width="0.5" stroke="yellow" fill="yellow"/>
   </g>
   <g id="cell119">
  <circle cx="575.009" cy="35.5235" r="1.86902" stroke-width="0.5" stroke="black" fill="yellow"/>
  <circle cx="575.009" cy="35.5235" r="1.84566" stroke-width="0.5" stroke="black" fill="black"/>
   </g>
   <g id="cell91">
  <circle cx="17.9916" cy="663.27" r="8.403" stroke-width="0.5" stroke="black" fill="yellow"/>
  <circle cx="17.9916" cy="663.27" r="5.04863" stroke-width="0.5" stroke="yellow" fill="yellow"/>
   </g>
   <g id="cell92">
  <circle cx="659.376" cy="299.147" r="9.72347" stroke-width="0.5" stroke="black" fill="yellow"/>
  <circle cx="659.376" cy="299.147" r="5.90787" stroke-width="0.5" stroke="yellow" fill="yellow"/>
   </g>
   <g id="cell93">
  <circle cx="253.944" cy="856.82" r="8.41049" stroke-width="0.5" stroke="black" fill="yellow"/>
  <circle cx="253.944" cy="856.82" r="5.05108" stroke-width="0.5" stroke="yellow" fill="yellow"/>
   </g>
   <g id="cell94">
  <circle cx="390.367" cy="102.202" r="9.00183" stroke-width="0.5" stroke="black" fill="yellow"/>
  <circle cx="390.367" cy="102.202" r="5.46604" stroke-width="0.5" stroke="yellow" fill="yellow"/>
   </g>
   <g id="cell95">
  <circle cx="948.614" cy="911.453" r="9.9021" stroke-width="0.5" stroke="black" fill="yellow"/>
  <circle cx="948.614" cy="911.453" r="6.01103" stroke-width="0.5" stroke="yellow" fill="yellow"/>
   </g>
   <g id="cell121">
  <circle cx="9.98625" cy="493.048" r="8.41061" stroke-width="0.5" stroke="black" fill="red"/>
  <circle cx="9.98625" cy="493.048" r="5.05111" stroke-width="0.5" stroke="red" fill="red"/>
   </g>
   <g id="cell122">
  <circle cx="720.15" cy="451.79" r="10.2418" stroke-width="0.5" stroke="black" fill="yellow"/>
  <circle cx="720.15" cy="451.79" r="6.19706" stroke-width="0.5" stroke="yellow" fill="yellow"/>
   </g>
   <g id="cell123">
  <circle cx="264.119" cy="895.672" r="8.41049" stroke-width="0.5" stroke="black" fill="yellow"/>
  <circle cx="264.119" cy="895.672" r="5.05108" stroke-width="0.5" stroke="yellow" fill="yellow"/>
   </g>
   <g id="cell124">
  <circle cx="499.658" cy="634.668" r="9.75027" stroke-width="0.5" stroke="black" fill="grey"/>
  <circle cx="499.658" cy="634.668" r="5.92294" stroke-width="0.5" stroke="grey" fill="grey"/>
   </g>
   <g id="cell125">
  <circle cx="784.371" cy="418.204" r="10.3068" stroke-width="0.5" stroke="black" fill="yellow"/>
  <circle cx="784.371" cy="418.204" r="6.23094" stroke-width="0.5" stroke="yellow" fill="yellow"/>
   </g>
   <g id="cell126">
  <circle cx="980.814" cy="174.601" r="9.67421" stroke-width="0.5" stroke="black" fill="red"/>
  <circle cx="980.814" cy="174.601" r="5.87847" stroke-width="0.5" stroke="red" fill="red"/>
   </g>
   <g id="cell127">
  <circle cx="895.8" cy="525.389" r="10.2711" stroke-width="0.5" stroke="black" fill="red"/>
  <circle cx="895.8" cy="525.389" r="6.21249" stroke-width="0.5" stroke="red" fill="red"/>
   </g>
   <g id="cell128">
  <circle cx="934.448" cy="25.6234" r="9.44059" stroke-width="0.5" stroke="black" fill="red"/>
  <circle cx="934.448" cy="25.6234" r="5.73896" stroke-width="0.5" stroke="red" fill="red"/>
   </g>
   <g id="cell129">
  <circle cx="968.151" cy="671.989" r="10.2203" stroke-width="0.5" stroke="black" fill="grey"/>
  <circle cx="968.151" cy="671.989" r="6.18578" stroke-width="0.5" stroke="grey" fill="grey"/>
   </g>
   <g id="cell130">
  <circle cx="902.926" cy="606.174" r="8.41002" stroke-width="0.5" stroke="black" fill="yellow"/>
  <circle cx="902.926" cy="606.174" r="5.05093" stroke-width="0.5" stroke="yellow" fill="yellow"/>
   </g>
   <g id="cell132">
  <circle cx="63.1261" cy="915.423" r="10.0316" stroke-width="0.5" stroke="black" fill="red"/>
  <circle cx="63.1261" cy="915.423" r="6.08326" stroke-width="0.5" stroke="red" fill="red"/>
   </g>
   <g id="cell133">
  <circle cx="657.511" cy="366.331" r="8.72571" stroke-width="0.5" stroke="black" fill="red"/>
  <circle cx="657.511" cy="366.331" r="5.28058" stroke-width="0.5" stroke="red" fill="red"/>
   </g>
   <g id="cell134">
  <circle cx="624.597" cy="436.457" r="3.36322" stroke-width="0.5" stroke="black" fill="grey"/>
  <circle cx="624.597" cy="436.457" r="2.62344" stroke-width="0.5" stroke="black" fill="black"/>
   </g>
   <g id="cell136">
  <circle cx="652.282" cy="430.547" r="9.74974" stroke-width="0.5" stroke="black" fill="red"/>
  <circle cx="652.282" cy="430.547" r="5.92278" stroke-width="0.5" stroke="red" fill="red"/>
   </g>
   <g id="cell137">
  <circle cx="785.551" cy="662.718" r="8.40978" stroke-width="0.5" stroke="black" fill="yellow"/>
  <circle cx="785.551" cy="662.718" r="5.05086" stroke-width="0.5" stroke="yellow" fill="yellow"/>
   </g>
   <g id="cell138">
  <circle cx="734.348" cy="227.336" r="10.2891" stroke-width="0.5" stroke="black" fill="red"/>
  <circle cx="734.348" cy="227.336" r="6.22189" stroke-width="0.5" stroke="red" fill="red"/>
   </g>
   <g id="cell139">
  <circle cx="800.198" cy="739.359" r="8.4097" stroke-width="0.5" stroke="black" fill="yellow"/>
  <circle cx="800.198" cy="739.359" r="5.05084" stroke-width="0.5" stroke="yellow" fill="yellow"/>
   </g>
   <g id="cell140">
  <circle cx="69.7311" cy="334.895" r="10.2707" stroke-width="0.5" stroke="black" fill="red"/>
  <circle cx="69.7311" cy="334.895" r="6.21236" stroke-width="0.5" stroke="red" fill="red"/>
   </g>
   <g id="cell141">
  <circle cx="22.0328" cy="980.58" r="10.2412" stroke-width="0.5" stroke="black" fill="yellow"/>
  <circle cx="22.0328" cy="980.58" r="6.19688" stroke-width="0.5" stroke="yellow" fill="yellow"/>
   </g>
   <g id="cell142">
  <circle cx="666.64" cy="665.797" r="8.40953" stroke-width="0.5" stroke="black" fill="red"/>
  <circle cx="666.64" cy="665.797" r="5.05079" stroke-width="0.5" stroke="red" fill="red"/>
   </g>
   <g id="cell143">
  <circle cx="124.339" cy="748.372" r="8.40953" stroke-width="0.5" stroke="black" fill="red"/>
  <circle cx="124.339" cy="748.372" r="5.05079" stroke-width="0.5" stroke="red" fill="red"/>
   </g>
   <g id="cell144">
  <circle cx="637.897" cy="163.852" r="10.0932" stroke-width="0.5" stroke="black" fill="grey"/>
  <circle cx="637.897" cy="163.852" r="6.11731" stroke-width="0.5" stroke="grey" fill="grey"/>
   </g>
   <g id="cell145">
  <circle cx="522.458" cy="528.913" r="8.40934" stroke-width="0.5" stroke="black" fill="red"/>
  <circle cx="522.458" cy="528.913" r="5.05073" stroke-width="0.5" stroke="red" fill="red"/>
   </g>
   <g id="cell146">
  <circle cx="319.49" cy="203.145" r="10.0144" stroke-width="0.5" stroke="black" fill="red"/>
  <circle cx="319.49" cy="203.145" r="6.07383" stroke-width="0.5" stroke="red" fill="red"/>
   </g>
   <g id="cell147">
  <circle cx="661.281" cy="408.064" r="8.40905" stroke-width="0.5" stroke="black" fill="yellow"/>
  <circle cx="661.281" cy="408.064" r="5.05064" stroke-width="0.5" stroke="yellow" fill="yellow"/>
   </g>
   <g id="cell148">
  <circle cx="175.02" cy="769.813" r="10.2509" stroke-width="0.5" stroke="black" fill="grey"/>
  <circle cx="175.02" cy="769.813" r="6.20209" stroke-width="0.5" stroke="grey" fill="grey"/>
   </g>
   <g id="cell149">
  <circle cx="868.332" cy="430.938" r="10.1854" stroke-width="0.5" stroke="black" fill="red"/>
  <circle cx="868.332" cy="430.938" r="6.16734" stroke-width="0.5" stroke="red" fill="red"/>
   </g>
   <g id="cell150">
  <circle cx="157.3" cy="31.1263" r="9.33987" stroke-width="0.5" stroke="black" fill="yellow"/>
  <circle cx="157.3" cy="31.1263" r="5.67781" stroke-width="0.5" stroke="yellow" fill="yellow"/>
   </g>
   <g id="cell151">
  <circle cx="216.416" cy="915.841" r="8.68574" stroke-width="0.5" stroke="black" fill="red"/>
  <circle cx="216.416" cy="915.841" r="5.25308" stroke-width="0.5" stroke="red" fill="red"/>
   </g>
   <g id="cell152">
  <circle cx="578.377" cy="847.554" r="10.1211" stroke-width="0.5" stroke="black" fill="red"/>
  <circle cx="578.377" cy="847.554" r="6.13265" stroke-width="0.5" stroke="red" fill="red"/>
   </g>
   <g id="cell154">
  <circle cx="845.066" cy="14.569" r="9.26944" stroke-width="0.5" stroke="black" fill="red"/>
  <circle cx="845.066" cy="14.569" r="5.63447" stroke-width="0.5" stroke="red" fill="red"/>
   </g>
   <g id="cell155">
  <circle cx="644.814" cy="876.668" r="10.0624" stroke-width="0.5" stroke="black" fill="red"/>
  <circle cx="644.814" cy="876.668" r="6.10054" stroke-width="0.5" stroke="red" fill="red"/>
   </g>
   <g id="cell156">
  <circle cx="883.671" cy="523.61" r="9.99678" stroke-width="0.5" stroke="black" fill="grey"/>
  <circle cx="883.671" cy="523.61" r="6.0641" stroke-width="0.5" stroke="grey" fill="grey"/>
   </g>
   <g id="cell157">
  <circle cx="595.196" cy="628.447" r="9.15906" stroke-width="0.5" stroke="black" fill="yellow"/>
  <circle cx="595.196" cy="628.447" r="5.56559" stroke-width="0.5" stroke="yellow" fill="yellow"/>
   </g>
   <g id="cell158">
  <circle cx="163.19" cy="140.34" r="3.47178" stroke-width="0.5" stroke="black" fill="yellow"/>
  <circle cx="163.19" cy="140.34" r="2.88428" stroke-width="0.5" stroke="black" fill="black"/>
   </g>
   <g id="cell159">
  <circle cx="679.667" cy="280.442" r="8.64643" stroke-width="0.5" stroke="black" fill="yellow"/>
  <circle cx="679.667" cy="280.442" r="5.22573" stroke-width="0.5" stroke="yellow" fill="yellow"/>
   </g>
   <g id="cell160">
  <circle cx="610.629" cy="271.484" r="9.30408" stroke-width="0.5" stroke="black" fill="red"/>
  <circle cx="610.629" cy="271.484" r="5.65609" stroke-width="0.5" stroke="red" fill="red"/>
   </g>
   <g id="cell161">
  <circle cx="39.9117" cy="929.436" r="2.67266" stroke-width="0.5" stroke="black" fill="red"/>
  <circle cx="39.9117" cy="929.436" r="2.30969" stroke-width="0.5" stroke="black" fill="black"/>
   </g>
   <g id="cell162">
  <circle cx="852.78" cy="128.737" r="10.0616" stroke-width="0.5" stroke="black" fill="red"/>
  <circle cx="852.78" cy="128.737" r="6.10029" stroke-width="0.5" stroke="red" fill="red"/>
   </g>
   <g id="cell163">
  <circle cx="432.944" cy="977.94" r="10.0297" stroke-width="0.5" stroke="black" fill="red"/>
  <circle cx="432.944" cy="977.94" r="6.08262" stroke-width="0.5" stroke="red" fill="red"/>
   </g>
   <g id="cell164">
  <circle cx="834.327" cy="951.713" r="8.40715" stroke-width="0.5" stroke="black" fill="red"/>
  <circle cx="834.327" cy="951.713" r="5.05003" stroke-width="0.5" stroke="red" fill="red"/>
   </g>
   <g id="cell165">
  <circle cx="839.425" cy="401.727" r="10.0128" stroke-width="0.5" stroke="black" fill="red"/>
  <circle cx="839.425" cy="401.727" r="6.07329" stroke-width="0.5" stroke="red" fill="red"/>
   </g>
   <g id="cell166">
  <circle cx="807.046" cy="536.921" r="9.99556" stroke-width="0.5" stroke="black" fill="yellow"/>
  <circle cx="807.046" cy="536.921" r="6.0637" stroke-width="0.5" stroke="yellow" fill="yellow"/>
   </g>
   <g id="cell167">
  <circle cx="643.524" cy="155.845" r="8.92293" stroke-width="0.5" stroke="black" fill="yellow"/>
  <circle cx="643.524" cy="155.845" r="5.41438" stroke-width="0.5" stroke="yellow" fill="yellow"/>
   </g>
   <g id="cell168">
  <circle cx="953.32" cy="901.23" r="9.77128" stroke-width="0.5" stroke="black" fill="yellow"/>
  <circle cx="953.32" cy="901.23" r="5.93589" stroke-width="0.5" stroke="yellow" fill="yellow"/>
   </g>
   <g id="cell169">
  <circle cx="370.392" cy="965.075" r="9.589" stroke-width="0.5" stroke="black" fill="yellow"/>
  <circle cx="370.392" cy="965.075" r="5.82886" stroke-width="0.5" stroke="yellow" fill="yellow"/>
   </g>
   <g id="cell170">
  <circle cx="73.9243" cy="990.312" r="8.40632" stroke-width="0.5" stroke="black" fill="red"/>
  <circle cx="73.9243" cy="990.312" r="5.04976" stroke-width="0.5" stroke="red" fill="red"/>
   </g>
   <g id="cell171">
  <circle cx="546.719" cy="374.921" r="9.64451" stroke-width="0.5" stroke="black" fill="red"/>
  <circle cx="546.719" cy="374.921" r="5.86174" stroke-width="0.5" stroke="red" fill="red"/>
   </g>
   <g id="cell172">
  <circle cx="456.898" cy="788.243" r="9.69707" stroke-width="0.5" stroke="black" fill="red"/>
  <circle cx="456.898" cy="788.243" r="5.89268" stroke-width="0.5" stroke="red" fill="red"/>
   </g>
   <g id="cell173">
  <circle cx="941.762" cy="420.183" r="8.40596" stroke-width="0.5" stroke="black" fill="red"/>
  <circle cx="941.762" cy="420.183" r="5.04964" stroke-width="0.5" stroke="red" fill="red"/>
   </g>
   <g id="cell174">
  <circle cx="374.122" cy="100.57" r="8.40557" stroke-width="0.5" stroke="black" fill="yellow"/>
  <circle cx="374.122" cy="100.57" r="5.04951" stroke-width="0.5" stroke="yellow" fill="yellow"/>
   </g>
   <g id="cell175">
  <circle cx="26.8796" cy="313.845" r="9.77059" stroke-width="0.5" stroke="black" fill="yellow"/>
  <circle cx="26.8796" cy="313.845" r="5.93565" stroke-width="0.5" stroke="yellow" fill="yellow"/>
   </g>
   <g id="cell178">
  <circle cx="55.6338" cy="164.578" r="9.52822" stroke-width="0.5" stroke="black" fill="red"/>
  <circle cx="55.6338" cy="164.578" r="5.79316" stroke-width="0.5" stroke="red" fill="red"/>
   </g>
   <g id="cell179">
  <circle cx="26.6538" cy="495.536" r="8.40327" stroke-width="0.5" stroke="black" fill="yellow"/>
  <circle cx="26.6538" cy="495.536" r="5.04872" stroke-width="0.5" stroke="yellow" fill="yellow"/>
   </g>
   <g id="cell180">
  <circle cx="27.62" cy="674.971" r="8.403" stroke-width="0.5" stroke="black" fill="yellow"/>
  <circle cx="27.62" cy="674.971" r="5.04863" stroke-width="0.5" stroke="yellow" fill="yellow"/>
   </g>
   <g id="cell181">
  <circle cx="983.497" cy="697.512" r="8.40244" stroke-width="0.5" stroke="black" fill="red"/>
  <circle cx="983.497" cy="697.512" r="5.04843" stroke-width="0.5" stroke="red" fill="red"/>
   </g>
   <g id="cell182">
  <circle cx="523.752" cy="973.564" r="8.40215" stroke-width="0.5" stroke="black" fill="yellow"/>
  <circle cx="523.752" cy="973.564" r="5.04833" stroke-width="0.5" stroke="yellow" fill="yellow"/>
   </g>
   <g id="cell183">
  <circle cx="657.017" cy="851.834" r="8.40215" stroke-width="0.5" stroke="black" fill="red"/>
  <circle cx="657.017" cy="851.834" r="5.04833" stroke-width="0.5" stroke="red" fill="red"/>
   </g>
   <g id="cell187">
  <circle cx="316.318" cy="447.482" r="8.39664" stroke-width="0.5" stroke="black" fill="yellow"/>
  <circle cx="316.318" cy="447.482" r="5.04633" stroke-width="0.5" stroke="yellow" fill="yellow"/>
   </g>
   <g id="cell189">
  <circle cx="779.173" cy="385.89" r="8.46471" stroke-width="0.5" stroke="black" fill="yellow"/>
  <circle cx="779.173" cy="385.89" r="5.09701" stroke-width="0.5" stroke="yellow" fill="yellow"/>
   </g>
  </g>
 </g>
  <rect x="775" y="1035" width="200" height="10" stroke-width="2" stroke="rgb(255,255,255)" fill="rgb(0,0,0)"/>
  <text x="781.25" y="1028.75"
   font-family="Arial" font-size="25" fill="black" >
   200 &#956;m
  </text>
  <text x="25" y="1045"
   font-family="Arial" font-size="18.75" fill="black" >
   0 days, 0 hours, 1 minutes, and 45.2874 seconds
  </text>
  <rect x="0" y="70" width="1000" height="1000" stroke-width="2" stroke="rgb(0,0,0)" fill="none"/>
</svg>
