<?xml version="1.0" encoding="UTF-8" standalone="no"?>
<!-- Created with PhysiCell (http://PhysiCell.MathCancer.org/) -->
<svg 
 xmlns:dc="http://purl.org/dc/elements/1.1/" 
 xmlns:cc="http://creativecommons.org/ns#" 
 xmlns:rdf="http://www.w3.org/1999/02/22-rdf-syntax-ns#" 
 xmlns:svg="http://www.w3.org/2000/svg" 
 xmlns="http://www.w3.org/2000/svg" 
 version="1.1" 
 width="1000" 
 height="1070" 
 id="svg2">
  <rect x="0" y="0" width="1000" height="1070" stroke-width="2" stroke="white" fill="white"/>
  <text x="12.5" y="30"
   font-family="Arial" font-size="25" fill="black" >
   Current time: 1 days, 7 hours, and 0.00 minutes, z = 0.00 &#956;m
  </text>
  <text x="12.5" y="57.5"
   font-family="Arial" font-size="23.75" fill="black" >
   160 agents
  </text>
 <g id="tissue" 
    transform="translate(0,1070) scale(1,-1)">
  <g id="ECM">
  </g>
  <g id="cells">
   <g id="cell0">
  <circle cx="490.166" cy="608.476" r="10.5605" stroke-width="0.5" stroke="black" fill="grey"/>
  <circle cx="490.166" cy="608.476" r="6.35082" stroke-width="0.5" stroke="grey" fill="grey"/>
   </g>
   <g id="cell118">
  <circle cx="844.987" cy="582.631" r="8.57813" stroke-width="0.5" stroke="black" fill="yellow"/>
  <circle cx="844.987" cy="582.631" r="5.17451" stroke-width="0.5" stroke="yellow" fill="yellow"/>
   </g>
   <g id="cell100">
  <circle cx="126.462" cy="813.337" r="10.557" stroke-width="0.5" stroke="black" fill="yellow"/>
  <circle cx="126.462" cy="813.337" r="6.34943" stroke-width="0.5" stroke="yellow" fill="yellow"/>
   </g>
   <g id="cell3">
  <circle cx="653.079" cy="648.964" r="10.5464" stroke-width="0.5" stroke="black" fill="grey"/>
  <circle cx="653.079" cy="648.964" r="6.34506" stroke-width="0.5" stroke="grey" fill="grey"/>
   </g>
   <g id="cell103">
  <circle cx="810.637" cy="878.826" r="8.41695" stroke-width="0.5" stroke="black" fill="yellow"/>
  <circle cx="810.637" cy="878.826" r="5.06038" stroke-width="0.5" stroke="yellow" fill="yellow"/>
   </g>
   <g id="cell135">
  <circle cx="131.606" cy="796.067" r="10.4826" stroke-width="0.5" stroke="black" fill="yellow"/>
  <circle cx="131.606" cy="796.067" r="6.31696" stroke-width="0.5" stroke="yellow" fill="yellow"/>
   </g>
   <g id="cell185">
  <circle cx="838.602" cy="394.164" r="10.2418" stroke-width="0.5" stroke="black" fill="yellow"/>
  <circle cx="838.602" cy="394.164" r="6.19709" stroke-width="0.5" stroke="yellow" fill="yellow"/>
   </g>
   <g id="cell7">
  <circle cx="864.414" cy="477.325" r="10.527" stroke-width="0.5" stroke="black" fill="grey"/>
  <circle cx="864.414" cy="477.325" r="6.33685" stroke-width="0.5" stroke="grey" fill="grey"/>
   </g>
   <g id="cell192">
  <circle cx="816.677" cy="409.141" r="9.59102" stroke-width="0.5" stroke="black" fill="yellow"/>
  <circle cx="816.677" cy="409.141" r="5.82955" stroke-width="0.5" stroke="yellow" fill="yellow"/>
   </g>
   <g id="cell112">
  <circle cx="749.733" cy="728.273" r="1.72131" stroke-width="0.5" stroke="black" fill="yellow"/>
  <circle cx="749.733" cy="728.273" r="1.67579" stroke-width="0.5" stroke="black" fill="black"/>
   </g>
   <g id="cell176">
  <circle cx="270.172" cy="64.7699" r="10.187" stroke-width="0.5" stroke="black" fill="red"/>
  <circle cx="270.172" cy="64.7699" r="6.16784" stroke-width="0.5" stroke="red" fill="red"/>
   </g>
   <g id="cell186">
  <circle cx="79.3967" cy="540.962" r="8.41055" stroke-width="0.5" stroke="black" fill="yellow"/>
  <circle cx="79.3967" cy="540.962" r="5.05109" stroke-width="0.5" stroke="yellow" fill="yellow"/>
   </g>
   <g id="cell104">
  <circle cx="767.086" cy="434.65" r="10.5479" stroke-width="0.5" stroke="black" fill="yellow"/>
  <circle cx="767.086" cy="434.65" r="6.34568" stroke-width="0.5" stroke="yellow" fill="yellow"/>
   </g>
   <g id="cell102">
  <circle cx="629.208" cy="146.082" r="10.4041" stroke-width="0.5" stroke="black" fill="yellow"/>
  <circle cx="629.208" cy="146.082" r="6.27965" stroke-width="0.5" stroke="yellow" fill="yellow"/>
   </g>
   <g id="cell98">
  <circle cx="869.373" cy="372.628" r="10.307" stroke-width="0.5" stroke="black" fill="yellow"/>
  <circle cx="869.373" cy="372.628" r="6.23099" stroke-width="0.5" stroke="yellow" fill="yellow"/>
   </g>
   <g id="cell97">
  <circle cx="404.078" cy="99.9952" r="10.2412" stroke-width="0.5" stroke="black" fill="yellow"/>
  <circle cx="404.078" cy="99.9952" r="6.1969" stroke-width="0.5" stroke="yellow" fill="yellow"/>
   </g>
   <g id="cell16">
  <circle cx="131.186" cy="708.3" r="2.23231" stroke-width="0.5" stroke="black" fill="grey"/>
  <circle cx="131.186" cy="708.3" r="2.16193" stroke-width="0.5" stroke="black" fill="black"/>
   </g>
   <g id="cell116">
  <circle cx="817.174" cy="429.817" r="9.74912" stroke-width="0.5" stroke="black" fill="yellow"/>
  <circle cx="817.174" cy="429.817" r="5.92257" stroke-width="0.5" stroke="yellow" fill="yellow"/>
   </g>
   <g id="cell177">
  <circle cx="444.762" cy="297.659" r="9.23579" stroke-width="0.5" stroke="black" fill="red"/>
  <circle cx="444.762" cy="297.659" r="5.61285" stroke-width="0.5" stroke="red" fill="red"/>
   </g>
   <g id="cell101">
  <circle cx="107.317" cy="153.918" r="8.40378" stroke-width="0.5" stroke="black" fill="yellow"/>
  <circle cx="107.317" cy="153.918" r="5.0489" stroke-width="0.5" stroke="yellow" fill="yellow"/>
   </g>
   <g id="cell184">
  <circle cx="512.015" cy="300.698" r="10.4343" stroke-width="0.5" stroke="black" fill="red"/>
  <circle cx="512.015" cy="300.698" r="6.2944" stroke-width="0.5" stroke="red" fill="red"/>
   </g>
   <g id="cell99">
  <circle cx="480.017" cy="971.318" r="10.3861" stroke-width="0.5" stroke="black" fill="yellow"/>
  <circle cx="480.017" cy="971.318" r="6.2709" stroke-width="0.5" stroke="yellow" fill="yellow"/>
   </g>
   <g id="cell115">
  <circle cx="231.482" cy="36.2633" r="10.4792" stroke-width="0.5" stroke="black" fill="yellow"/>
  <circle cx="231.482" cy="36.2633" r="6.31539" stroke-width="0.5" stroke="yellow" fill="yellow"/>
   </g>
   <g id="cell191">
  <circle cx="748.343" cy="117.339" r="10.1612" stroke-width="0.5" stroke="black" fill="grey"/>
  <circle cx="748.343" cy="117.339" r="6.15427" stroke-width="0.5" stroke="grey" fill="grey"/>
   </g>
   <g id="cell153">
  <circle cx="191.163" cy="385.364" r="10.5207" stroke-width="0.5" stroke="black" fill="red"/>
  <circle cx="191.163" cy="385.364" r="6.33408" stroke-width="0.5" stroke="red" fill="red"/>
   </g>
   <g id="cell105">
  <circle cx="55.9005" cy="403.241" r="9.15137" stroke-width="0.5" stroke="black" fill="yellow"/>
  <circle cx="55.9005" cy="403.241" r="5.56279" stroke-width="0.5" stroke="yellow" fill="yellow"/>
   </g>
   <g id="cell26">
  <circle cx="675.114" cy="475.281" r="1.69403" stroke-width="0.5" stroke="black" fill="grey"/>
  <circle cx="675.114" cy="475.281" r="1.6803" stroke-width="0.5" stroke="black" fill="black"/>
   </g>
   <g id="cell117">
  <circle cx="884.556" cy="372.8" r="8.40994" stroke-width="0.5" stroke="black" fill="yellow"/>
  <circle cx="884.556" cy="372.8" r="5.05091" stroke-width="0.5" stroke="yellow" fill="yellow"/>
   </g>
   <g id="cell28">
  <circle cx="707.148" cy="100.124" r="8.41217" stroke-width="0.5" stroke="black" fill="grey"/>
  <circle cx="707.148" cy="100.124" r="5.05154" stroke-width="0.5" stroke="grey" fill="grey"/>
   </g>
   <g id="cell29">
  <circle cx="957.264" cy="655.162" r="10.4153" stroke-width="0.5" stroke="black" fill="grey"/>
  <circle cx="957.264" cy="655.162" r="6.28503" stroke-width="0.5" stroke="grey" fill="grey"/>
   </g>
   <g id="cell30">
  <circle cx="760.32" cy="117.305" r="9.19748" stroke-width="0.5" stroke="black" fill="grey"/>
  <circle cx="760.32" cy="117.305" r="5.58941" stroke-width="0.5" stroke="grey" fill="grey"/>
   </g>
   <g id="cell190">
  <circle cx="444.851" cy="129.789" r="8.4097" stroke-width="0.5" stroke="black" fill="yellow"/>
  <circle cx="444.851" cy="129.789" r="5.05084" stroke-width="0.5" stroke="yellow" fill="yellow"/>
   </g>
   <g id="cell114">
  <circle cx="43.5278" cy="371.536" r="10.374" stroke-width="0.5" stroke="black" fill="yellow"/>
  <circle cx="43.5278" cy="371.536" r="6.26478" stroke-width="0.5" stroke="yellow" fill="yellow"/>
   </g>
   <g id="cell107">
  <circle cx="384.296" cy="468.576" r="8.403" stroke-width="0.5" stroke="black" fill="yellow"/>
  <circle cx="384.296" cy="468.576" r="5.04863" stroke-width="0.5" stroke="yellow" fill="yellow"/>
   </g>
   <g id="cell106">
  <circle cx="38.1984" cy="921.01" r="10.5401" stroke-width="0.5" stroke="black" fill="yellow"/>
  <circle cx="38.1984" cy="921.01" r="6.34241" stroke-width="0.5" stroke="yellow" fill="yellow"/>
   </g>
   <g id="cell35">
  <circle cx="935.758" cy="45.6718" r="8.5971" stroke-width="0.5" stroke="black" fill="grey"/>
  <circle cx="935.758" cy="45.6718" r="5.1947" stroke-width="0.5" stroke="grey" fill="grey"/>
   </g>
   <g id="cell109">
  <circle cx="380.486" cy="983.415" r="9.9991" stroke-width="0.5" stroke="black" fill="yellow"/>
  <circle cx="380.486" cy="983.415" r="6.06483" stroke-width="0.5" stroke="yellow" fill="yellow"/>
   </g>
   <g id="cell111">
  <circle cx="793.913" cy="395.445" r="8.4097" stroke-width="0.5" stroke="black" fill="yellow"/>
  <circle cx="793.913" cy="395.445" r="5.05084" stroke-width="0.5" stroke="yellow" fill="yellow"/>
   </g>
   <g id="cell131">
  <circle cx="633.529" cy="574.363" r="10.5063" stroke-width="0.5" stroke="black" fill="grey"/>
  <circle cx="633.529" cy="574.363" r="6.3277" stroke-width="0.5" stroke="grey" fill="grey"/>
   </g>
   <g id="cell110">
  <circle cx="873.828" cy="259.238" r="8.40154" stroke-width="0.5" stroke="black" fill="yellow"/>
  <circle cx="873.828" cy="259.238" r="5.04811" stroke-width="0.5" stroke="yellow" fill="yellow"/>
   </g>
   <g id="cell40">
  <circle cx="152.09" cy="407.897" r="10.5008" stroke-width="0.5" stroke="black" fill="red"/>
  <circle cx="152.09" cy="407.897" r="6.32523" stroke-width="0.5" stroke="red" fill="red"/>
   </g>
   <g id="cell41">
  <circle cx="690.15" cy="713.057" r="10.5162" stroke-width="0.5" stroke="black" fill="red"/>
  <circle cx="690.15" cy="713.057" r="6.33211" stroke-width="0.5" stroke="red" fill="red"/>
   </g>
   <g id="cell42">
  <circle cx="162.621" cy="734.196" r="10.4442" stroke-width="0.5" stroke="black" fill="red"/>
  <circle cx="162.621" cy="734.196" r="6.29897" stroke-width="0.5" stroke="red" fill="red"/>
   </g>
   <g id="cell43">
  <circle cx="858.036" cy="387.046" r="10.4438" stroke-width="0.5" stroke="black" fill="red"/>
  <circle cx="858.036" cy="387.046" r="6.29886" stroke-width="0.5" stroke="red" fill="red"/>
   </g>
   <g id="cell44">
  <circle cx="840.028" cy="54.8508" r="10.4527" stroke-width="0.5" stroke="black" fill="red"/>
  <circle cx="840.028" cy="54.8508" r="6.30301" stroke-width="0.5" stroke="red" fill="red"/>
   </g>
   <g id="cell45">
  <circle cx="695.183" cy="813.817" r="9.7746" stroke-width="0.5" stroke="black" fill="red"/>
  <circle cx="695.183" cy="813.817" r="5.93699" stroke-width="0.5" stroke="red" fill="red"/>
   </g>
   <g id="cell46">
  <circle cx="46.2678" cy="899.496" r="9.56475" stroke-width="0.5" stroke="black" fill="red"/>
  <circle cx="46.2678" cy="899.496" r="5.81318" stroke-width="0.5" stroke="red" fill="red"/>
   </g>
   <g id="cell47">
  <circle cx="870.271" cy="449.841" r="10.4921" stroke-width="0.5" stroke="black" fill="red"/>
  <circle cx="870.271" cy="449.841" r="6.32129" stroke-width="0.5" stroke="red" fill="red"/>
   </g>
   <g id="cell48">
  <circle cx="948.164" cy="30.1315" r="10.5507" stroke-width="0.5" stroke="black" fill="red"/>
  <circle cx="948.164" cy="30.1315" r="6.34684" stroke-width="0.5" stroke="red" fill="red"/>
   </g>
   <g id="cell49">
  <circle cx="453.663" cy="799.398" r="10.3393" stroke-width="0.5" stroke="black" fill="red"/>
  <circle cx="453.663" cy="799.398" r="6.24735" stroke-width="0.5" stroke="red" fill="red"/>
   </g>
   <g id="cell50">
  <circle cx="22.2856" cy="441.14" r="10.4723" stroke-width="0.5" stroke="black" fill="red"/>
  <circle cx="22.2856" cy="441.14" r="6.31218" stroke-width="0.5" stroke="red" fill="red"/>
   </g>
   <g id="cell51">
  <circle cx="847.159" cy="142.076" r="10.5349" stroke-width="0.5" stroke="black" fill="red"/>
  <circle cx="847.159" cy="142.076" r="6.34021" stroke-width="0.5" stroke="red" fill="red"/>
   </g>
   <g id="cell96">
  <circle cx="842.555" cy="564.596" r="10.4887" stroke-width="0.5" stroke="black" fill="yellow"/>
  <circle cx="842.555" cy="564.596" r="6.31982" stroke-width="0.5" stroke="yellow" fill="yellow"/>
   </g>
   <g id="cell53">
  <circle cx="681.072" cy="281.444" r="10.5533" stroke-width="0.5" stroke="black" fill="red"/>
  <circle cx="681.072" cy="281.444" r="6.34792" stroke-width="0.5" stroke="red" fill="red"/>
   </g>
   <g id="cell54">
  <circle cx="424.288" cy="907.958" r="8.4118" stroke-width="0.5" stroke="black" fill="red"/>
  <circle cx="424.288" cy="907.958" r="5.05145" stroke-width="0.5" stroke="red" fill="red"/>
   </g>
   <g id="cell55">
  <circle cx="216.813" cy="647.04" r="8.40715" stroke-width="0.5" stroke="black" fill="red"/>
  <circle cx="216.813" cy="647.04" r="5.05003" stroke-width="0.5" stroke="red" fill="red"/>
   </g>
   <g id="cell56">
  <circle cx="627.969" cy="838.45" r="10.5161" stroke-width="0.5" stroke="black" fill="red"/>
  <circle cx="627.969" cy="838.45" r="6.33208" stroke-width="0.5" stroke="red" fill="red"/>
   </g>
   <g id="cell57">
  <circle cx="490.277" cy="521.316" r="10.5251" stroke-width="0.5" stroke="black" fill="red"/>
  <circle cx="490.277" cy="521.316" r="6.33598" stroke-width="0.5" stroke="red" fill="red"/>
   </g>
   <g id="cell58">
  <circle cx="30.1056" cy="867.043" r="10.4824" stroke-width="0.5" stroke="black" fill="red"/>
  <circle cx="30.1056" cy="867.043" r="6.31689" stroke-width="0.5" stroke="red" fill="red"/>
   </g>
   <g id="cell59">
  <circle cx="48.4252" cy="948.118" r="10.4948" stroke-width="0.5" stroke="black" fill="red"/>
  <circle cx="48.4252" cy="948.118" r="6.32258" stroke-width="0.5" stroke="red" fill="red"/>
   </g>
   <g id="cell60">
  <circle cx="212.767" cy="27.2323" r="10.187" stroke-width="0.5" stroke="black" fill="red"/>
  <circle cx="212.767" cy="27.2323" r="6.16784" stroke-width="0.5" stroke="red" fill="red"/>
   </g>
   <g id="cell61">
  <circle cx="803.831" cy="127.926" r="9.90594" stroke-width="0.5" stroke="black" fill="red"/>
  <circle cx="803.831" cy="127.926" r="6.01226" stroke-width="0.5" stroke="red" fill="red"/>
   </g>
   <g id="cell62">
  <circle cx="723.546" cy="794.969" r="10.4925" stroke-width="0.5" stroke="black" fill="red"/>
  <circle cx="723.546" cy="794.969" r="6.32139" stroke-width="0.5" stroke="red" fill="red"/>
   </g>
   <g id="cell63">
  <circle cx="347.578" cy="185.104" r="10.3611" stroke-width="0.5" stroke="black" fill="red"/>
  <circle cx="347.578" cy="185.104" r="6.25825" stroke-width="0.5" stroke="red" fill="red"/>
   </g>
   <g id="cell64">
  <circle cx="596.247" cy="551.308" r="10.5387" stroke-width="0.5" stroke="black" fill="red"/>
  <circle cx="596.247" cy="551.308" r="6.34177" stroke-width="0.5" stroke="red" fill="red"/>
   </g>
   <g id="cell188">
  <circle cx="855.441" cy="385.074" r="9.96214" stroke-width="0.5" stroke="black" fill="yellow"/>
  <circle cx="855.441" cy="385.074" r="6.04441" stroke-width="0.5" stroke="yellow" fill="yellow"/>
   </g>
   <g id="cell66">
  <circle cx="10.3797" cy="137.618" r="10.4521" stroke-width="0.5" stroke="black" fill="red"/>
  <circle cx="10.3797" cy="137.618" r="6.30286" stroke-width="0.5" stroke="red" fill="red"/>
   </g>
   <g id="cell67">
  <circle cx="517.357" cy="250.279" r="1.20583" stroke-width="0.5" stroke="black" fill="red"/>
  <circle cx="517.357" cy="250.279" r="1.2011" stroke-width="0.5" stroke="black" fill="black"/>
   </g>
   <g id="cell68">
  <circle cx="753.788" cy="216.663" r="10.4951" stroke-width="0.5" stroke="black" fill="red"/>
  <circle cx="753.788" cy="216.663" r="6.32267" stroke-width="0.5" stroke="red" fill="red"/>
   </g>
   <g id="cell69">
  <circle cx="459.332" cy="310.88" r="8.65006" stroke-width="0.5" stroke="black" fill="red"/>
  <circle cx="459.332" cy="310.88" r="5.22688" stroke-width="0.5" stroke="red" fill="red"/>
   </g>
   <g id="cell70">
  <circle cx="529.503" cy="371.777" r="10.3804" stroke-width="0.5" stroke="black" fill="red"/>
  <circle cx="529.503" cy="371.777" r="6.26797" stroke-width="0.5" stroke="red" fill="red"/>
   </g>
   <g id="cell71">
  <circle cx="898.005" cy="492.637" r="10.5534" stroke-width="0.5" stroke="black" fill="red"/>
  <circle cx="898.005" cy="492.637" r="6.34793" stroke-width="0.5" stroke="red" fill="red"/>
   </g>
   <g id="cell72">
  <circle cx="175.298" cy="926.084" r="10.525" stroke-width="0.5" stroke="black" fill="red"/>
  <circle cx="175.298" cy="926.084" r="6.33597" stroke-width="0.5" stroke="red" fill="red"/>
   </g>
   <g id="cell73">
  <circle cx="617.597" cy="460.322" r="10.4486" stroke-width="0.5" stroke="black" fill="red"/>
  <circle cx="617.597" cy="460.322" r="6.30104" stroke-width="0.5" stroke="red" fill="red"/>
   </g>
   <g id="cell74">
  <circle cx="859.287" cy="944.426" r="10.1627" stroke-width="0.5" stroke="black" fill="red"/>
  <circle cx="859.287" cy="944.426" r="6.15474" stroke-width="0.5" stroke="red" fill="red"/>
   </g>
   <g id="cell75">
  <circle cx="103.091" cy="297.243" r="10.5208" stroke-width="0.5" stroke="black" fill="red"/>
  <circle cx="103.091" cy="297.243" r="6.33411" stroke-width="0.5" stroke="red" fill="red"/>
   </g>
   <g id="cell76">
  <circle cx="776.183" cy="423.159" r="10.2814" stroke-width="0.5" stroke="black" fill="red"/>
  <circle cx="776.183" cy="423.159" r="6.21762" stroke-width="0.5" stroke="red" fill="red"/>
   </g>
   <g id="cell77">
  <circle cx="664.345" cy="840.91" r="10.4568" stroke-width="0.5" stroke="black" fill="red"/>
  <circle cx="664.345" cy="840.91" r="6.30495" stroke-width="0.5" stroke="red" fill="red"/>
   </g>
   <g id="cell78">
  <circle cx="594.681" cy="297.202" r="10.4395" stroke-width="0.5" stroke="black" fill="red"/>
  <circle cx="594.681" cy="297.202" r="6.29677" stroke-width="0.5" stroke="red" fill="red"/>
   </g>
   <g id="cell79">
  <circle cx="972.692" cy="694.001" r="10.281" stroke-width="0.5" stroke="black" fill="red"/>
  <circle cx="972.692" cy="694.001" r="6.21748" stroke-width="0.5" stroke="red" fill="red"/>
   </g>
   <g id="cell80">
  <circle cx="742.075" cy="703.013" r="9.07601" stroke-width="0.5" stroke="black" fill="yellow"/>
  <circle cx="742.075" cy="703.013" r="5.51479" stroke-width="0.5" stroke="yellow" fill="yellow"/>
   </g>
   <g id="cell81">
  <circle cx="499.63" cy="964.573" r="10.5142" stroke-width="0.5" stroke="black" fill="yellow"/>
  <circle cx="499.63" cy="964.573" r="6.33113" stroke-width="0.5" stroke="yellow" fill="yellow"/>
   </g>
   <g id="cell82">
  <circle cx="611.714" cy="397.62" r="10.5433" stroke-width="0.5" stroke="black" fill="yellow"/>
  <circle cx="611.714" cy="397.62" r="6.34376" stroke-width="0.5" stroke="yellow" fill="yellow"/>
   </g>
   <g id="cell83">
  <circle cx="589.989" cy="575.129" r="10.492" stroke-width="0.5" stroke="black" fill="yellow"/>
  <circle cx="589.989" cy="575.129" r="6.32127" stroke-width="0.5" stroke="yellow" fill="yellow"/>
   </g>
   <g id="cell84">
  <circle cx="16.3469" cy="510.396" r="10.3156" stroke-width="0.5" stroke="black" fill="yellow"/>
  <circle cx="16.3469" cy="510.396" r="6.23533" stroke-width="0.5" stroke="yellow" fill="yellow"/>
   </g>
   <g id="cell85">
  <circle cx="778.965" cy="674.664" r="2.33875" stroke-width="0.5" stroke="black" fill="yellow"/>
  <circle cx="778.965" cy="674.664" r="2.24877" stroke-width="0.5" stroke="black" fill="black"/>
   </g>
   <g id="cell86">
  <circle cx="325.489" cy="415.922" r="9.64737" stroke-width="0.5" stroke="black" fill="yellow"/>
  <circle cx="325.489" cy="415.922" r="5.8627" stroke-width="0.5" stroke="yellow" fill="yellow"/>
   </g>
   <g id="cell87">
  <circle cx="781.557" cy="395.507" r="9.79893" stroke-width="0.5" stroke="black" fill="yellow"/>
  <circle cx="781.557" cy="395.507" r="5.95079" stroke-width="0.5" stroke="yellow" fill="yellow"/>
   </g>
   <g id="cell200">
  <circle cx="974.25" cy="71.3183" r="8.39473" stroke-width="0.5" stroke="black" fill="grey"/>
  <circle cx="974.25" cy="71.3183" r="5.04562" stroke-width="0.5" stroke="grey" fill="grey"/>
   </g>
   <g id="cell89">
  <circle cx="47.8037" cy="538.055" r="10.2714" stroke-width="0.5" stroke="black" fill="yellow"/>
  <circle cx="47.8037" cy="538.055" r="6.21255" stroke-width="0.5" stroke="yellow" fill="yellow"/>
   </g>
   <g id="cell193">
  <circle cx="205.379" cy="666.941" r="9.79511" stroke-width="0.5" stroke="black" fill="red"/>
  <circle cx="205.379" cy="666.941" r="5.94957" stroke-width="0.5" stroke="red" fill="red"/>
   </g>
   <g id="cell91">
  <circle cx="14.3378" cy="646.524" r="9.34163" stroke-width="0.5" stroke="black" fill="yellow"/>
  <circle cx="14.3378" cy="646.524" r="5.67838" stroke-width="0.5" stroke="yellow" fill="yellow"/>
   </g>
   <g id="cell92">
  <circle cx="652.005" cy="283.61" r="10.4646" stroke-width="0.5" stroke="black" fill="yellow"/>
  <circle cx="652.005" cy="283.61" r="6.30863" stroke-width="0.5" stroke="yellow" fill="yellow"/>
   </g>
   <g id="cell93">
  <circle cx="212.432" cy="862.539" r="9.34262" stroke-width="0.5" stroke="black" fill="yellow"/>
  <circle cx="212.432" cy="862.539" r="5.67867" stroke-width="0.5" stroke="yellow" fill="yellow"/>
   </g>
   <g id="cell94">
  <circle cx="392.01" cy="95.1369" r="10.3466" stroke-width="0.5" stroke="black" fill="yellow"/>
  <circle cx="392.01" cy="95.1369" r="6.25105" stroke-width="0.5" stroke="yellow" fill="yellow"/>
   </g>
   <g id="cell95">
  <circle cx="943.362" cy="904.474" r="10.4918" stroke-width="0.5" stroke="black" fill="yellow"/>
  <circle cx="943.362" cy="904.474" r="6.32122" stroke-width="0.5" stroke="yellow" fill="yellow"/>
   </g>
   <g id="cell121">
  <circle cx="27.5726" cy="476.924" r="8.5442" stroke-width="0.5" stroke="black" fill="red"/>
  <circle cx="27.5726" cy="476.924" r="5.14939" stroke-width="0.5" stroke="red" fill="red"/>
   </g>
   <g id="cell122">
  <circle cx="704.301" cy="420.524" r="10.5434" stroke-width="0.5" stroke="black" fill="yellow"/>
  <circle cx="704.301" cy="420.524" r="6.34379" stroke-width="0.5" stroke="yellow" fill="yellow"/>
   </g>
   <g id="cell123">
  <circle cx="286.848" cy="899.664" r="9.19984" stroke-width="0.5" stroke="black" fill="yellow"/>
  <circle cx="286.848" cy="899.664" r="5.59014" stroke-width="0.5" stroke="yellow" fill="yellow"/>
   </g>
   <g id="cell124">
  <circle cx="476.969" cy="645.378" r="10.4687" stroke-width="0.5" stroke="black" fill="grey"/>
  <circle cx="476.969" cy="645.378" r="6.31047" stroke-width="0.5" stroke="grey" fill="grey"/>
   </g>
   <g id="cell125">
  <circle cx="800.905" cy="447.476" r="10.5534" stroke-width="0.5" stroke="black" fill="yellow"/>
  <circle cx="800.905" cy="447.476" r="6.34793" stroke-width="0.5" stroke="yellow" fill="yellow"/>
   </g>
   <g id="cell126">
  <circle cx="924.67" cy="188.685" r="10.457" stroke-width="0.5" stroke="black" fill="red"/>
  <circle cx="924.67" cy="188.685" r="6.30501" stroke-width="0.5" stroke="red" fill="red"/>
   </g>
   <g id="cell127">
  <circle cx="912.255" cy="556.307" r="10.5479" stroke-width="0.5" stroke="black" fill="red"/>
  <circle cx="912.255" cy="556.307" r="6.34568" stroke-width="0.5" stroke="red" fill="red"/>
   </g>
   <g id="cell128">
  <circle cx="931.351" cy="32.1394" r="10.4205" stroke-width="0.5" stroke="black" fill="red"/>
  <circle cx="931.351" cy="32.1394" r="6.28755" stroke-width="0.5" stroke="red" fill="red"/>
   </g>
   <g id="cell129">
  <circle cx="981.032" cy="676.633" r="3.56619" stroke-width="0.5" stroke="black" fill="grey"/>
  <circle cx="981.032" cy="676.633" r="3.00566" stroke-width="0.5" stroke="black" fill="black"/>
   </g>
   <g id="cell130">
  <circle cx="903.258" cy="608.548" r="8.41227" stroke-width="0.5" stroke="black" fill="yellow"/>
  <circle cx="903.258" cy="608.548" r="5.05157" stroke-width="0.5" stroke="yellow" fill="yellow"/>
   </g>
   <g id="cell132">
  <circle cx="56.9297" cy="918.119" r="10.5114" stroke-width="0.5" stroke="black" fill="red"/>
  <circle cx="56.9297" cy="918.119" r="6.32998" stroke-width="0.5" stroke="red" fill="red"/>
   </g>
   <g id="cell133">
  <circle cx="638.232" cy="389.113" r="10.2908" stroke-width="0.5" stroke="black" fill="red"/>
  <circle cx="638.232" cy="389.113" r="6.22239" stroke-width="0.5" stroke="red" fill="red"/>
   </g>
   <g id="cell134">
  <circle cx="624.597" cy="436.457" r="1.20639" stroke-width="0.5" stroke="black" fill="grey"/>
  <circle cx="624.597" cy="436.457" r="1.20165" stroke-width="0.5" stroke="black" fill="black"/>
   </g>
   <g id="cell136">
  <circle cx="655.859" cy="472.852" r="10.4686" stroke-width="0.5" stroke="black" fill="red"/>
  <circle cx="655.859" cy="472.852" r="6.31045" stroke-width="0.5" stroke="red" fill="red"/>
   </g>
   <g id="cell137">
  <circle cx="788.455" cy="654.842" r="10.0803" stroke-width="0.5" stroke="black" fill="yellow"/>
  <circle cx="788.455" cy="654.842" r="6.10976" stroke-width="0.5" stroke="yellow" fill="yellow"/>
   </g>
   <g id="cell138">
  <circle cx="726.61" cy="236.788" r="10.5506" stroke-width="0.5" stroke="black" fill="red"/>
  <circle cx="726.61" cy="236.788" r="6.34682" stroke-width="0.5" stroke="red" fill="red"/>
   </g>
   <g id="cell139">
  <circle cx="790.452" cy="748.473" r="8.72782" stroke-width="0.5" stroke="black" fill="yellow"/>
  <circle cx="790.452" cy="748.473" r="5.28122" stroke-width="0.5" stroke="yellow" fill="yellow"/>
   </g>
   <g id="cell140">
  <circle cx="79.542" cy="350.726" r="10.5478" stroke-width="0.5" stroke="black" fill="red"/>
  <circle cx="79.542" cy="350.726" r="6.34566" stroke-width="0.5" stroke="red" fill="red"/>
   </g>
   <g id="cell141">
  <circle cx="16.6876" cy="972.567" r="10.5433" stroke-width="0.5" stroke="black" fill="yellow"/>
  <circle cx="16.6876" cy="972.567" r="6.34377" stroke-width="0.5" stroke="yellow" fill="yellow"/>
   </g>
   <g id="cell142">
  <circle cx="716.223" cy="678.516" r="8.41219" stroke-width="0.5" stroke="black" fill="red"/>
  <circle cx="716.223" cy="678.516" r="5.05155" stroke-width="0.5" stroke="red" fill="red"/>
   </g>
   <g id="cell143">
  <circle cx="113.965" cy="706.704" r="9.9062" stroke-width="0.5" stroke="black" fill="red"/>
  <circle cx="113.965" cy="706.704" r="6.01234" stroke-width="0.5" stroke="red" fill="red"/>
   </g>
   <g id="cell144">
  <circle cx="649.239" cy="141.012" r="10.5208" stroke-width="0.5" stroke="black" fill="grey"/>
  <circle cx="649.239" cy="141.012" r="6.33411" stroke-width="0.5" stroke="grey" fill="grey"/>
   </g>
   <g id="cell145">
  <circle cx="540.468" cy="511.393" r="9.56467" stroke-width="0.5" stroke="black" fill="red"/>
  <circle cx="540.468" cy="511.393" r="5.81316" stroke-width="0.5" stroke="red" fill="red"/>
   </g>
   <g id="cell146">
  <circle cx="300.792" cy="195.706" r="10.5088" stroke-width="0.5" stroke="black" fill="red"/>
  <circle cx="300.792" cy="195.706" r="6.32884" stroke-width="0.5" stroke="red" fill="red"/>
   </g>
   <g id="cell147">
  <circle cx="658.518" cy="393.223" r="10.1234" stroke-width="0.5" stroke="black" fill="yellow"/>
  <circle cx="658.518" cy="393.223" r="6.13336" stroke-width="0.5" stroke="yellow" fill="yellow"/>
   </g>
   <g id="cell148">
  <circle cx="206.704" cy="749.481" r="10.5448" stroke-width="0.5" stroke="black" fill="grey"/>
  <circle cx="206.704" cy="749.481" r="6.34441" stroke-width="0.5" stroke="grey" fill="grey"/>
   </g>
   <g id="cell149">
  <circle cx="867.361" cy="447.261" r="10.5348" stroke-width="0.5" stroke="black" fill="red"/>
  <circle cx="867.361" cy="447.261" r="6.34018" stroke-width="0.5" stroke="red" fill="red"/>
   </g>
   <g id="cell150">
  <circle cx="159.151" cy="24.9444" r="10.4043" stroke-width="0.5" stroke="black" fill="yellow"/>
  <circle cx="159.151" cy="24.9444" r="6.27971" stroke-width="0.5" stroke="yellow" fill="yellow"/>
   </g>
   <g id="cell151">
  <circle cx="201.062" cy="898.56" r="10.2817" stroke-width="0.5" stroke="black" fill="red"/>
  <circle cx="201.062" cy="898.56" r="6.21768" stroke-width="0.5" stroke="red" fill="red"/>
   </g>
   <g id="cell152">
  <circle cx="598.784" cy="852.549" r="10.525" stroke-width="0.5" stroke="black" fill="red"/>
  <circle cx="598.784" cy="852.549" r="6.33597" stroke-width="0.5" stroke="red" fill="red"/>
   </g>
   <g id="cell154">
  <circle cx="888.307" cy="12.1157" r="10.3928" stroke-width="0.5" stroke="black" fill="red"/>
  <circle cx="888.307" cy="12.1157" r="6.27406" stroke-width="0.5" stroke="red" fill="red"/>
   </g>
   <g id="cell155">
  <circle cx="653.091" cy="897.415" r="10.5161" stroke-width="0.5" stroke="black" fill="red"/>
  <circle cx="653.091" cy="897.415" r="6.33207" stroke-width="0.5" stroke="red" fill="red"/>
   </g>
   <g id="cell156">
  <circle cx="886.715" cy="511.462" r="3.26726" stroke-width="0.5" stroke="black" fill="grey"/>
  <circle cx="886.715" cy="511.462" r="2.85187" stroke-width="0.5" stroke="black" fill="black"/>
   </g>
   <g id="cell157">
  <circle cx="623.547" cy="639.852" r="10.3743" stroke-width="0.5" stroke="black" fill="yellow"/>
  <circle cx="623.547" cy="639.852" r="6.26486" stroke-width="0.5" stroke="yellow" fill="yellow"/>
   </g>
   <g id="cell198">
  <circle cx="53.6172" cy="421.339" r="8.8356" stroke-width="0.5" stroke="black" fill="yellow"/>
  <circle cx="53.6172" cy="421.339" r="5.35855" stroke-width="0.5" stroke="yellow" fill="yellow"/>
   </g>
   <g id="cell159">
  <circle cx="671.264" cy="300.697" r="10.2722" stroke-width="0.5" stroke="black" fill="yellow"/>
  <circle cx="671.264" cy="300.697" r="6.21281" stroke-width="0.5" stroke="yellow" fill="yellow"/>
   </g>
   <g id="cell160">
  <circle cx="633.967" cy="294.024" r="10.3985" stroke-width="0.5" stroke="black" fill="red"/>
  <circle cx="633.967" cy="294.024" r="6.2769" stroke-width="0.5" stroke="red" fill="red"/>
   </g>
   <g id="cell199">
  <circle cx="823.171" cy="846.864" r="8.39708" stroke-width="0.5" stroke="black" fill="yellow"/>
  <circle cx="823.171" cy="846.864" r="5.0465" stroke-width="0.5" stroke="yellow" fill="yellow"/>
   </g>
   <g id="cell162">
  <circle cx="837.385" cy="107.759" r="10.516" stroke-width="0.5" stroke="black" fill="red"/>
  <circle cx="837.385" cy="107.759" r="6.33204" stroke-width="0.5" stroke="red" fill="red"/>
   </g>
   <g id="cell163">
  <circle cx="430.894" cy="956.941" r="10.5111" stroke-width="0.5" stroke="black" fill="red"/>
  <circle cx="430.894" cy="956.941" r="6.3299" stroke-width="0.5" stroke="red" fill="red"/>
   </g>
   <g id="cell164">
  <circle cx="824.905" cy="963.801" r="9.84329" stroke-width="0.5" stroke="black" fill="red"/>
  <circle cx="824.905" cy="963.801" r="5.97647" stroke-width="0.5" stroke="red" fill="red"/>
   </g>
   <g id="cell165">
  <circle cx="841.543" cy="399.992" r="10.5086" stroke-width="0.5" stroke="black" fill="red"/>
  <circle cx="841.543" cy="399.992" r="6.32877" stroke-width="0.5" stroke="red" fill="red"/>
   </g>
   <g id="cell166">
  <circle cx="783.684" cy="520.628" r="10.506" stroke-width="0.5" stroke="black" fill="yellow"/>
  <circle cx="783.684" cy="520.628" r="6.32761" stroke-width="0.5" stroke="yellow" fill="yellow"/>
   </g>
   <g id="cell167">
  <circle cx="642.669" cy="136.566" r="10.3318" stroke-width="0.5" stroke="black" fill="yellow"/>
  <circle cx="642.669" cy="136.566" r="6.24352" stroke-width="0.5" stroke="yellow" fill="yellow"/>
   </g>
   <g id="cell168">
  <circle cx="929.915" cy="889.465" r="10.4719" stroke-width="0.5" stroke="black" fill="yellow"/>
  <circle cx="929.915" cy="889.465" r="6.31207" stroke-width="0.5" stroke="yellow" fill="yellow"/>
   </g>
   <g id="cell169">
  <circle cx="347.634" cy="980.383" r="10.4439" stroke-width="0.5" stroke="black" fill="yellow"/>
  <circle cx="347.634" cy="980.383" r="6.29887" stroke-width="0.5" stroke="yellow" fill="yellow"/>
   </g>
   <g id="cell170">
  <circle cx="62.4092" cy="978.158" r="8.57755" stroke-width="0.5" stroke="black" fill="red"/>
  <circle cx="62.4092" cy="978.158" r="5.17435" stroke-width="0.5" stroke="red" fill="red"/>
   </g>
   <g id="cell171">
  <circle cx="527.855" cy="389.461" r="10.4525" stroke-width="0.5" stroke="black" fill="red"/>
  <circle cx="527.855" cy="389.461" r="6.30295" stroke-width="0.5" stroke="red" fill="red"/>
   </g>
   <g id="cell172">
  <circle cx="483.844" cy="781.342" r="10.4606" stroke-width="0.5" stroke="black" fill="red"/>
  <circle cx="483.844" cy="781.342" r="6.30677" stroke-width="0.5" stroke="red" fill="red"/>
   </g>
   <g id="cell173">
  <circle cx="958.377" cy="418.606" r="9.27198" stroke-width="0.5" stroke="black" fill="red"/>
  <circle cx="958.377" cy="418.606" r="5.63529" stroke-width="0.5" stroke="red" fill="red"/>
   </g>
   <g id="cell174">
  <circle cx="347.102" cy="98.4441" r="8.84682" stroke-width="0.5" stroke="black" fill="yellow"/>
  <circle cx="347.102" cy="98.4441" r="5.36248" stroke-width="0.5" stroke="yellow" fill="yellow"/>
   </g>
   <g id="cell175">
  <circle cx="23.3806" cy="314.501" r="10.4718" stroke-width="0.5" stroke="black" fill="yellow"/>
  <circle cx="23.3806" cy="314.501" r="6.31204" stroke-width="0.5" stroke="yellow" fill="yellow"/>
   </g>
   <g id="cell178">
  <circle cx="73.941" cy="173.997" r="10.4344" stroke-width="0.5" stroke="black" fill="red"/>
  <circle cx="73.941" cy="173.997" r="6.29443" stroke-width="0.5" stroke="red" fill="red"/>
   </g>
   <g id="cell179">
  <circle cx="9.4816" cy="488.599" r="9.99874" stroke-width="0.5" stroke="black" fill="yellow"/>
  <circle cx="9.4816" cy="488.599" r="6.06473" stroke-width="0.5" stroke="yellow" fill="yellow"/>
   </g>
   <g id="cell180">
  <circle cx="42.736" cy="687.034" r="8.41112" stroke-width="0.5" stroke="black" fill="yellow"/>
  <circle cx="42.736" cy="687.034" r="5.05126" stroke-width="0.5" stroke="yellow" fill="yellow"/>
   </g>
   <g id="cell181">
  <circle cx="988.203" cy="678.286" r="8.41103" stroke-width="0.5" stroke="black" fill="red"/>
  <circle cx="988.203" cy="678.286" r="5.05123" stroke-width="0.5" stroke="red" fill="red"/>
   </g>
   <g id="cell182">
  <circle cx="504.165" cy="953.411" r="8.41098" stroke-width="0.5" stroke="black" fill="yellow"/>
  <circle cx="504.165" cy="953.411" r="5.05122" stroke-width="0.5" stroke="yellow" fill="yellow"/>
   </g>
   <g id="cell183">
  <circle cx="638.524" cy="865.764" r="8.41098" stroke-width="0.5" stroke="black" fill="red"/>
  <circle cx="638.524" cy="865.764" r="5.05122" stroke-width="0.5" stroke="red" fill="red"/>
   </g>
   <g id="cell187">
  <circle cx="313.851" cy="444.799" r="9.81996" stroke-width="0.5" stroke="black" fill="yellow"/>
  <circle cx="313.851" cy="444.799" r="5.96339" stroke-width="0.5" stroke="yellow" fill="yellow"/>
   </g>
   <g id="cell189">
  <circle cx="782.9" cy="388.87" r="10.22" stroke-width="0.5" stroke="black" fill="yellow"/>
  <circle cx="782.9" cy="388.87" r="6.1857" stroke-width="0.5" stroke="yellow" fill="yellow"/>
   </g>
   <g id="cell194">
  <circle cx="102.351" cy="171.578" r="9.64258" stroke-width="0.5" stroke="black" fill="yellow"/>
  <circle cx="102.351" cy="171.578" r="5.86105" stroke-width="0.5" stroke="yellow" fill="yellow"/>
   </g>
   <g id="cell195">
  <circle cx="389.8" cy="442.309" r="8.95977" stroke-width="0.5" stroke="black" fill="yellow"/>
  <circle cx="389.8" cy="442.309" r="5.43941" stroke-width="0.5" stroke="yellow" fill="yellow"/>
   </g>
   <g id="cell196">
  <circle cx="888.996" cy="286.279" r="8.40154" stroke-width="0.5" stroke="black" fill="yellow"/>
  <circle cx="888.996" cy="286.279" r="5.04811" stroke-width="0.5" stroke="yellow" fill="yellow"/>
   </g>
   <g id="cell197">
  <circle cx="740.355" cy="695.254" r="8.40056" stroke-width="0.5" stroke="black" fill="yellow"/>
  <circle cx="740.355" cy="695.254" r="5.04776" stroke-width="0.5" stroke="yellow" fill="yellow"/>
   </g>
  </g>
 </g>
  <rect x="775" y="1035" width="200" height="10" stroke-width="2" stroke="rgb(255,255,255)" fill="rgb(0,0,0)"/>
  <text x="781.25" y="1028.75"
   font-family="Arial" font-size="25" fill="black" >
   200 &#956;m
  </text>
  <text x="25" y="1045"
   font-family="Arial" font-size="18.75" fill="black" >
   0 days, 0 hours, 2 minutes, and 17.6295 seconds
  </text>
  <rect x="0" y="70" width="1000" height="1000" stroke-width="2" stroke="rgb(0,0,0)" fill="none"/>
</svg>
