<?xml version="1.0" encoding="UTF-8" standalone="no"?>
<!-- Created with PhysiCell (http://PhysiCell.MathCancer.org/) -->
<svg 
 xmlns:dc="http://purl.org/dc/elements/1.1/" 
 xmlns:cc="http://creativecommons.org/ns#" 
 xmlns:rdf="http://www.w3.org/1999/02/22-rdf-syntax-ns#" 
 xmlns:svg="http://www.w3.org/2000/svg" 
 xmlns="http://www.w3.org/2000/svg" 
 version="1.1" 
 width="1000" 
 height="1070" 
 id="svg2">
  <rect x="0" y="0" width="1000" height="1070" stroke-width="2" stroke="white" fill="white"/>
  <text x="12.5" y="30"
   font-family="Arial" font-size="25" fill="black" >
   Current time: 1 days, 4 hours, and 0.00 minutes, z = 0.00 &#956;m
  </text>
  <text x="12.5" y="57.5"
   font-family="Arial" font-size="23.75" fill="black" >
   159 agents
  </text>
 <g id="tissue" 
    transform="translate(0,1070) scale(1,-1)">
  <g id="ECM">
  </g>
  <g id="cells">
   <g id="cell0">
  <circle cx="509.848" cy="625.609" r="10.5087" stroke-width="0.5" stroke="black" fill="grey"/>
  <circle cx="509.848" cy="625.609" r="6.32879" stroke-width="0.5" stroke="grey" fill="grey"/>
   </g>
   <g id="cell118">
  <circle cx="844.08" cy="578.656" r="8.41169" stroke-width="0.5" stroke="black" fill="yellow"/>
  <circle cx="844.08" cy="578.656" r="5.05142" stroke-width="0.5" stroke="yellow" fill="yellow"/>
   </g>
   <g id="cell100">
  <circle cx="121.821" cy="805.76" r="10.5005" stroke-width="0.5" stroke="black" fill="yellow"/>
  <circle cx="121.821" cy="805.76" r="6.32516" stroke-width="0.5" stroke="yellow" fill="yellow"/>
   </g>
   <g id="cell3">
  <circle cx="622.215" cy="644.52" r="10.4755" stroke-width="0.5" stroke="black" fill="grey"/>
  <circle cx="622.215" cy="644.52" r="6.31372" stroke-width="0.5" stroke="grey" fill="grey"/>
   </g>
   <g id="cell103">
  <circle cx="815.569" cy="866.057" r="10.5536" stroke-width="0.5" stroke="black" fill="yellow"/>
  <circle cx="815.569" cy="866.057" r="6.34799" stroke-width="0.5" stroke="yellow" fill="yellow"/>
   </g>
   <g id="cell135">
  <circle cx="145.587" cy="811.313" r="10.324" stroke-width="0.5" stroke="black" fill="yellow"/>
  <circle cx="145.587" cy="811.313" r="6.23953" stroke-width="0.5" stroke="yellow" fill="yellow"/>
   </g>
   <g id="cell185">
  <circle cx="872.456" cy="395.486" r="9.74832" stroke-width="0.5" stroke="black" fill="yellow"/>
  <circle cx="872.456" cy="395.486" r="5.92231" stroke-width="0.5" stroke="yellow" fill="yellow"/>
   </g>
   <g id="cell7">
  <circle cx="850.568" cy="487.732" r="10.4296" stroke-width="0.5" stroke="black" fill="grey"/>
  <circle cx="850.568" cy="487.732" r="6.29213" stroke-width="0.5" stroke="grey" fill="grey"/>
   </g>
   <g id="cell192">
  <circle cx="822.414" cy="424.575" r="8.50404" stroke-width="0.5" stroke="black" fill="yellow"/>
  <circle cx="822.414" cy="424.575" r="5.12286" stroke-width="0.5" stroke="yellow" fill="yellow"/>
   </g>
   <g id="cell112">
  <circle cx="749.733" cy="728.273" r="2.84738" stroke-width="0.5" stroke="black" fill="yellow"/>
  <circle cx="749.733" cy="728.273" r="2.39589" stroke-width="0.5" stroke="black" fill="black"/>
   </g>
   <g id="cell176">
  <circle cx="269.43" cy="46.7284" r="9.61975" stroke-width="0.5" stroke="black" fill="red"/>
  <circle cx="269.43" cy="46.7284" r="5.84643" stroke-width="0.5" stroke="red" fill="red"/>
   </g>
   <g id="cell186">
  <circle cx="70.6103" cy="551.046" r="8.40774" stroke-width="0.5" stroke="black" fill="yellow"/>
  <circle cx="70.6103" cy="551.046" r="5.05022" stroke-width="0.5" stroke="yellow" fill="yellow"/>
   </g>
   <g id="cell104">
  <circle cx="753.008" cy="410.229" r="10.479" stroke-width="0.5" stroke="black" fill="yellow"/>
  <circle cx="753.008" cy="410.229" r="6.31534" stroke-width="0.5" stroke="yellow" fill="yellow"/>
   </g>
   <g id="cell102">
  <circle cx="609.18" cy="171.117" r="10.1358" stroke-width="0.5" stroke="black" fill="yellow"/>
  <circle cx="609.18" cy="171.117" r="6.1404" stroke-width="0.5" stroke="yellow" fill="yellow"/>
   </g>
   <g id="cell98">
  <circle cx="887.819" cy="379.763" r="9.90309" stroke-width="0.5" stroke="black" fill="yellow"/>
  <circle cx="887.819" cy="379.763" r="6.01136" stroke-width="0.5" stroke="yellow" fill="yellow"/>
   </g>
   <g id="cell97">
  <circle cx="425.209" cy="92.9197" r="9.74675" stroke-width="0.5" stroke="black" fill="yellow"/>
  <circle cx="425.209" cy="92.9197" r="5.92177" stroke-width="0.5" stroke="yellow" fill="yellow"/>
   </g>
   <g id="cell16">
  <circle cx="131.186" cy="708.3" r="3.778" stroke-width="0.5" stroke="black" fill="grey"/>
  <circle cx="131.186" cy="708.3" r="3.09572" stroke-width="0.5" stroke="black" fill="black"/>
   </g>
   <g id="cell116">
  <circle cx="827.95" cy="415.713" r="8.72022" stroke-width="0.5" stroke="black" fill="yellow"/>
  <circle cx="827.95" cy="415.713" r="5.27871" stroke-width="0.5" stroke="yellow" fill="yellow"/>
   </g>
   <g id="cell177">
  <circle cx="441.328" cy="293.145" r="8.40978" stroke-width="0.5" stroke="black" fill="red"/>
  <circle cx="441.328" cy="293.145" r="5.05086" stroke-width="0.5" stroke="red" fill="red"/>
   </g>
   <g id="cell101">
  <circle cx="111.334" cy="149.826" r="8.39203" stroke-width="0.5" stroke="black" fill="yellow"/>
  <circle cx="111.334" cy="149.826" r="5.0446" stroke-width="0.5" stroke="yellow" fill="yellow"/>
   </g>
   <g id="cell184">
  <circle cx="520.196" cy="305.064" r="10.2083" stroke-width="0.5" stroke="black" fill="red"/>
  <circle cx="520.196" cy="305.064" r="6.17962" stroke-width="0.5" stroke="red" fill="red"/>
   </g>
   <g id="cell99">
  <circle cx="494.901" cy="987.148" r="10.0927" stroke-width="0.5" stroke="black" fill="yellow"/>
  <circle cx="494.901" cy="987.148" r="6.11716" stroke-width="0.5" stroke="yellow" fill="yellow"/>
   </g>
   <g id="cell115">
  <circle cx="223.178" cy="21.4214" r="10.3157" stroke-width="0.5" stroke="black" fill="yellow"/>
  <circle cx="223.178" cy="21.4214" r="6.23536" stroke-width="0.5" stroke="yellow" fill="yellow"/>
   </g>
   <g id="cell191">
  <circle cx="745.984" cy="126.674" r="9.55942" stroke-width="0.5" stroke="black" fill="grey"/>
  <circle cx="745.984" cy="126.674" r="5.81142" stroke-width="0.5" stroke="grey" fill="grey"/>
   </g>
   <g id="cell153">
  <circle cx="196.661" cy="386.794" r="10.4146" stroke-width="0.5" stroke="black" fill="red"/>
  <circle cx="196.661" cy="386.794" r="6.28483" stroke-width="0.5" stroke="red" fill="red"/>
   </g>
   <g id="cell105">
  <circle cx="55.639" cy="400.609" r="10.5596" stroke-width="0.5" stroke="black" fill="yellow"/>
  <circle cx="55.639" cy="400.609" r="6.35043" stroke-width="0.5" stroke="yellow" fill="yellow"/>
   </g>
   <g id="cell26">
  <circle cx="675.114" cy="475.281" r="2.55" stroke-width="0.5" stroke="black" fill="grey"/>
  <circle cx="675.114" cy="475.281" r="2.39948" stroke-width="0.5" stroke="black" fill="black"/>
   </g>
   <g id="cell117">
  <circle cx="888.038" cy="371.53" r="8.40632" stroke-width="0.5" stroke="black" fill="yellow"/>
  <circle cx="888.038" cy="371.53" r="5.04976" stroke-width="0.5" stroke="yellow" fill="yellow"/>
   </g>
   <g id="cell28">
  <circle cx="687.167" cy="126.386" r="8.41147" stroke-width="0.5" stroke="black" fill="grey"/>
  <circle cx="687.167" cy="126.386" r="5.05136" stroke-width="0.5" stroke="grey" fill="grey"/>
   </g>
   <g id="cell29">
  <circle cx="943.469" cy="629.365" r="10.1627" stroke-width="0.5" stroke="black" fill="grey"/>
  <circle cx="943.469" cy="629.365" r="6.15472" stroke-width="0.5" stroke="grey" fill="grey"/>
   </g>
   <g id="cell30">
  <circle cx="747.967" cy="131.57" r="8.40537" stroke-width="0.5" stroke="black" fill="grey"/>
  <circle cx="747.967" cy="131.57" r="5.04944" stroke-width="0.5" stroke="grey" fill="grey"/>
   </g>
   <g id="cell190">
  <circle cx="434.465" cy="112.623" r="8.40576" stroke-width="0.5" stroke="black" fill="yellow"/>
  <circle cx="434.465" cy="112.623" r="5.04957" stroke-width="0.5" stroke="yellow" fill="yellow"/>
   </g>
   <g id="cell114">
  <circle cx="77.4722" cy="370.011" r="10.0635" stroke-width="0.5" stroke="black" fill="yellow"/>
  <circle cx="77.4722" cy="370.011" r="6.10091" stroke-width="0.5" stroke="yellow" fill="yellow"/>
   </g>
   <g id="cell107">
  <circle cx="387.683" cy="465.567" r="8.39021" stroke-width="0.5" stroke="black" fill="yellow"/>
  <circle cx="387.683" cy="465.567" r="5.0439" stroke-width="0.5" stroke="yellow" fill="yellow"/>
   </g>
   <g id="cell106">
  <circle cx="11.5137" cy="924.974" r="10.4605" stroke-width="0.5" stroke="black" fill="yellow"/>
  <circle cx="11.5137" cy="924.974" r="6.30675" stroke-width="0.5" stroke="yellow" fill="yellow"/>
   </g>
   <g id="cell35">
  <circle cx="943.353" cy="88.2735" r="10.5467" stroke-width="0.5" stroke="black" fill="grey"/>
  <circle cx="943.353" cy="88.2735" r="6.34513" stroke-width="0.5" stroke="grey" fill="grey"/>
   </g>
   <g id="cell109">
  <circle cx="366.333" cy="979.98" r="9.19813" stroke-width="0.5" stroke="black" fill="yellow"/>
  <circle cx="366.333" cy="979.98" r="5.58962" stroke-width="0.5" stroke="yellow" fill="yellow"/>
   </g>
   <g id="cell111">
  <circle cx="780.077" cy="399.625" r="8.40576" stroke-width="0.5" stroke="black" fill="yellow"/>
  <circle cx="780.077" cy="399.625" r="5.04957" stroke-width="0.5" stroke="yellow" fill="yellow"/>
   </g>
   <g id="cell131">
  <circle cx="631.522" cy="598.707" r="10.3804" stroke-width="0.5" stroke="black" fill="grey"/>
  <circle cx="631.522" cy="598.707" r="6.26797" stroke-width="0.5" stroke="grey" fill="grey"/>
   </g>
   <g id="cell110">
  <circle cx="871.241" cy="280.112" r="8.38682" stroke-width="0.5" stroke="black" fill="yellow"/>
  <circle cx="871.241" cy="280.112" r="5.04258" stroke-width="0.5" stroke="yellow" fill="yellow"/>
   </g>
   <g id="cell40">
  <circle cx="169.654" cy="404.159" r="10.3672" stroke-width="0.5" stroke="black" fill="red"/>
  <circle cx="169.654" cy="404.159" r="6.26145" stroke-width="0.5" stroke="red" fill="red"/>
   </g>
   <g id="cell41">
  <circle cx="678.022" cy="709.797" r="10.404" stroke-width="0.5" stroke="black" fill="red"/>
  <circle cx="678.022" cy="709.797" r="6.27961" stroke-width="0.5" stroke="red" fill="red"/>
   </g>
   <g id="cell42">
  <circle cx="152.86" cy="708.199" r="10.232" stroke-width="0.5" stroke="black" fill="red"/>
  <circle cx="152.86" cy="708.199" r="6.19176" stroke-width="0.5" stroke="red" fill="red"/>
   </g>
   <g id="cell43">
  <circle cx="862.877" cy="398.604" r="10.2311" stroke-width="0.5" stroke="black" fill="red"/>
  <circle cx="862.877" cy="398.604" r="6.19149" stroke-width="0.5" stroke="red" fill="red"/>
   </g>
   <g id="cell44">
  <circle cx="840.518" cy="50.5512" r="10.2523" stroke-width="0.5" stroke="black" fill="red"/>
  <circle cx="840.518" cy="50.5512" r="6.20252" stroke-width="0.5" stroke="red" fill="red"/>
   </g>
   <g id="cell45">
  <circle cx="685.018" cy="811.176" r="8.76414" stroke-width="0.5" stroke="black" fill="red"/>
  <circle cx="685.018" cy="811.176" r="5.30745" stroke-width="0.5" stroke="red" fill="red"/>
   </g>
   <g id="cell46">
  <circle cx="33.6275" cy="910.579" r="8.48186" stroke-width="0.5" stroke="black" fill="red"/>
  <circle cx="33.6275" cy="910.579" r="5.10291" stroke-width="0.5" stroke="red" fill="red"/>
   </g>
   <g id="cell47">
  <circle cx="884.51" cy="453.938" r="10.3465" stroke-width="0.5" stroke="black" fill="red"/>
  <circle cx="884.51" cy="453.938" r="6.25101" stroke-width="0.5" stroke="red" fill="red"/>
   </g>
   <g id="cell48">
  <circle cx="936.881" cy="45.9644" r="10.4856" stroke-width="0.5" stroke="black" fill="red"/>
  <circle cx="936.881" cy="45.9644" r="6.31838" stroke-width="0.5" stroke="red" fill="red"/>
   </g>
   <g id="cell49">
  <circle cx="485.65" cy="804.232" r="9.98047" stroke-width="0.5" stroke="black" fill="red"/>
  <circle cx="485.65" cy="804.232" r="6.05466" stroke-width="0.5" stroke="red" fill="red"/>
   </g>
   <g id="cell50">
  <circle cx="29.1273" cy="445.063" r="10.2993" stroke-width="0.5" stroke="black" fill="red"/>
  <circle cx="29.1273" cy="445.063" r="6.22685" stroke-width="0.5" stroke="red" fill="red"/>
   </g>
   <g id="cell51">
  <circle cx="890.416" cy="131.063" r="10.4483" stroke-width="0.5" stroke="black" fill="red"/>
  <circle cx="890.416" cy="131.063" r="6.30097" stroke-width="0.5" stroke="red" fill="red"/>
   </g>
   <g id="cell96">
  <circle cx="827.845" cy="556.473" r="10.3385" stroke-width="0.5" stroke="black" fill="yellow"/>
  <circle cx="827.845" cy="556.473" r="6.24711" stroke-width="0.5" stroke="yellow" fill="yellow"/>
   </g>
   <g id="cell53">
  <circle cx="683.912" cy="283.159" r="10.4918" stroke-width="0.5" stroke="black" fill="red"/>
  <circle cx="683.912" cy="283.159" r="6.32122" stroke-width="0.5" stroke="red" fill="red"/>
   </g>
   <g id="cell54">
  <circle cx="419.972" cy="899.327" r="8.41061" stroke-width="0.5" stroke="black" fill="red"/>
  <circle cx="419.972" cy="899.327" r="5.05111" stroke-width="0.5" stroke="red" fill="red"/>
   </g>
   <g id="cell55">
  <circle cx="206.895" cy="658.812" r="8.39987" stroke-width="0.5" stroke="black" fill="red"/>
  <circle cx="206.895" cy="658.812" r="5.04751" stroke-width="0.5" stroke="red" fill="red"/>
   </g>
   <g id="cell56">
  <circle cx="605.977" cy="834.104" r="10.4038" stroke-width="0.5" stroke="black" fill="red"/>
  <circle cx="605.977" cy="834.104" r="6.27955" stroke-width="0.5" stroke="red" fill="red"/>
   </g>
   <g id="cell57">
  <circle cx="491.359" cy="513.748" r="10.425" stroke-width="0.5" stroke="black" fill="red"/>
  <circle cx="491.359" cy="513.748" r="6.28984" stroke-width="0.5" stroke="red" fill="red"/>
   </g>
   <g id="cell58">
  <circle cx="13.9847" cy="863.199" r="10.3233" stroke-width="0.5" stroke="black" fill="red"/>
  <circle cx="13.9847" cy="863.199" r="6.23934" stroke-width="0.5" stroke="red" fill="red"/>
   </g>
   <g id="cell59">
  <circle cx="74.1524" cy="957.895" r="10.3529" stroke-width="0.5" stroke="black" fill="red"/>
  <circle cx="74.1524" cy="957.895" r="6.25441" stroke-width="0.5" stroke="red" fill="red"/>
   </g>
   <g id="cell60">
  <circle cx="243.132" cy="49.88" r="9.61975" stroke-width="0.5" stroke="black" fill="red"/>
  <circle cx="243.132" cy="49.88" r="5.84643" stroke-width="0.5" stroke="red" fill="red"/>
   </g>
   <g id="cell61">
  <circle cx="813.637" cy="142.919" r="9.00628" stroke-width="0.5" stroke="black" fill="red"/>
  <circle cx="813.637" cy="142.919" r="5.46755" stroke-width="0.5" stroke="red" fill="red"/>
   </g>
   <g id="cell62">
  <circle cx="724.182" cy="796.014" r="10.3474" stroke-width="0.5" stroke="black" fill="red"/>
  <circle cx="724.182" cy="796.014" r="6.25125" stroke-width="0.5" stroke="red" fill="red"/>
   </g>
   <g id="cell63">
  <circle cx="346.396" cy="175.707" r="10.0326" stroke-width="0.5" stroke="black" fill="red"/>
  <circle cx="346.396" cy="175.707" r="6.08357" stroke-width="0.5" stroke="red" fill="red"/>
   </g>
   <g id="cell64">
  <circle cx="586.964" cy="558.853" r="10.4573" stroke-width="0.5" stroke="black" fill="red"/>
  <circle cx="586.964" cy="558.853" r="6.30507" stroke-width="0.5" stroke="red" fill="red"/>
   </g>
   <g id="cell188">
  <circle cx="867.886" cy="404.509" r="9.11946" stroke-width="0.5" stroke="black" fill="yellow"/>
  <circle cx="867.886" cy="404.509" r="5.54106" stroke-width="0.5" stroke="yellow" fill="yellow"/>
   </g>
   <g id="cell66">
  <circle cx="14.3638" cy="151.42" r="10.251" stroke-width="0.5" stroke="black" fill="red"/>
  <circle cx="14.3638" cy="151.42" r="6.20211" stroke-width="0.5" stroke="red" fill="red"/>
   </g>
   <g id="cell67">
  <circle cx="517.357" cy="250.279" r="1.76839" stroke-width="0.5" stroke="black" fill="red"/>
  <circle cx="517.357" cy="250.279" r="1.71516" stroke-width="0.5" stroke="black" fill="black"/>
   </g>
   <g id="cell68">
  <circle cx="750.128" cy="226.584" r="10.3538" stroke-width="0.5" stroke="black" fill="red"/>
  <circle cx="750.128" cy="226.584" r="6.25466" stroke-width="0.5" stroke="red" fill="red"/>
   </g>
   <g id="cell69">
  <circle cx="451.523" cy="295.54" r="8.40978" stroke-width="0.5" stroke="black" fill="red"/>
  <circle cx="451.523" cy="295.54" r="5.05086" stroke-width="0.5" stroke="red" fill="red"/>
   </g>
   <g id="cell70">
  <circle cx="509.05" cy="365.656" r="10.079" stroke-width="0.5" stroke="black" fill="red"/>
  <circle cx="509.05" cy="365.656" r="6.10937" stroke-width="0.5" stroke="red" fill="red"/>
   </g>
   <g id="cell71">
  <circle cx="888.478" cy="506.015" r="10.4919" stroke-width="0.5" stroke="black" fill="red"/>
  <circle cx="888.478" cy="506.015" r="6.32124" stroke-width="0.5" stroke="red" fill="red"/>
   </g>
   <g id="cell72">
  <circle cx="188.483" cy="894.306" r="10.4249" stroke-width="0.5" stroke="black" fill="red"/>
  <circle cx="188.483" cy="894.306" r="6.2898" stroke-width="0.5" stroke="red" fill="red"/>
   </g>
   <g id="cell73">
  <circle cx="640.344" cy="436.139" r="10.2425" stroke-width="0.5" stroke="black" fill="red"/>
  <circle cx="640.344" cy="436.139" r="6.19728" stroke-width="0.5" stroke="red" fill="red"/>
   </g>
   <g id="cell74">
  <circle cx="861.158" cy="964.281" r="9.56348" stroke-width="0.5" stroke="black" fill="red"/>
  <circle cx="861.158" cy="964.281" r="5.8128" stroke-width="0.5" stroke="red" fill="red"/>
   </g>
   <g id="cell75">
  <circle cx="103.981" cy="325.68" r="10.4148" stroke-width="0.5" stroke="black" fill="red"/>
  <circle cx="103.981" cy="325.68" r="6.2849" stroke-width="0.5" stroke="red" fill="red"/>
   </g>
   <g id="cell76">
  <circle cx="782.784" cy="411.013" r="9.84233" stroke-width="0.5" stroke="black" fill="red"/>
  <circle cx="782.784" cy="411.013" r="5.97618" stroke-width="0.5" stroke="red" fill="red"/>
   </g>
   <g id="cell77">
  <circle cx="655.465" cy="846.48" r="10.2621" stroke-width="0.5" stroke="black" fill="red"/>
  <circle cx="655.465" cy="846.48" r="6.20767" stroke-width="0.5" stroke="red" fill="red"/>
   </g>
   <g id="cell78">
  <circle cx="600.303" cy="264.075" r="10.2208" stroke-width="0.5" stroke="black" fill="red"/>
  <circle cx="600.303" cy="264.075" r="6.18593" stroke-width="0.5" stroke="red" fill="red"/>
   </g>
   <g id="cell79">
  <circle cx="979.019" cy="697.616" r="9.84113" stroke-width="0.5" stroke="black" fill="red"/>
  <circle cx="979.019" cy="697.616" r="5.97579" stroke-width="0.5" stroke="red" fill="red"/>
   </g>
   <g id="cell80">
  <circle cx="743.578" cy="694.936" r="10.5639" stroke-width="0.5" stroke="black" fill="yellow"/>
  <circle cx="743.578" cy="694.936" r="6.35212" stroke-width="0.5" stroke="yellow" fill="yellow"/>
   </g>
   <g id="cell81">
  <circle cx="496.948" cy="981.47" r="10.3991" stroke-width="0.5" stroke="black" fill="yellow"/>
  <circle cx="496.948" cy="981.47" r="6.27703" stroke-width="0.5" stroke="yellow" fill="yellow"/>
   </g>
   <g id="cell82">
  <circle cx="628.953" cy="410.417" r="10.468" stroke-width="0.5" stroke="black" fill="yellow"/>
  <circle cx="628.953" cy="410.417" r="6.3103" stroke-width="0.5" stroke="yellow" fill="yellow"/>
   </g>
   <g id="cell83">
  <circle cx="592.235" cy="565.403" r="10.3463" stroke-width="0.5" stroke="black" fill="yellow"/>
  <circle cx="592.235" cy="565.403" r="6.25095" stroke-width="0.5" stroke="yellow" fill="yellow"/>
   </g>
   <g id="cell84">
  <circle cx="20.221" cy="513.511" r="9.92375" stroke-width="0.5" stroke="black" fill="yellow"/>
  <circle cx="20.221" cy="513.511" r="6.02287" stroke-width="0.5" stroke="yellow" fill="yellow"/>
   </g>
   <g id="cell85">
  <circle cx="778.965" cy="674.664" r="4.0814" stroke-width="0.5" stroke="black" fill="yellow"/>
  <circle cx="778.965" cy="674.664" r="3.23223" stroke-width="0.5" stroke="black" fill="black"/>
   </g>
   <g id="cell86">
  <circle cx="314.372" cy="435.709" r="8.57275" stroke-width="0.5" stroke="black" fill="yellow"/>
  <circle cx="314.372" cy="435.709" r="5.17284" stroke-width="0.5" stroke="yellow" fill="yellow"/>
   </g>
   <g id="cell87">
  <circle cx="763.388" cy="390.289" r="8.80696" stroke-width="0.5" stroke="black" fill="yellow"/>
  <circle cx="763.388" cy="390.289" r="5.33554" stroke-width="0.5" stroke="yellow" fill="yellow"/>
   </g>
   <g id="cell88">
  <circle cx="152.165" cy="105.459" r="1.81232" stroke-width="0.5" stroke="black" fill="yellow"/>
  <circle cx="152.165" cy="105.459" r="1.78553" stroke-width="0.5" stroke="black" fill="black"/>
   </g>
   <g id="cell89">
  <circle cx="66.6282" cy="519.957" r="9.81824" stroke-width="0.5" stroke="black" fill="yellow"/>
  <circle cx="66.6282" cy="519.957" r="5.96282" stroke-width="0.5" stroke="yellow" fill="yellow"/>
   </g>
   <g id="cell193">
  <circle cx="202.223" cy="666.411" r="8.79601" stroke-width="0.5" stroke="black" fill="red"/>
  <circle cx="202.223" cy="666.411" r="5.33175" stroke-width="0.5" stroke="red" fill="red"/>
   </g>
   <g id="cell91">
  <circle cx="11.7519" cy="647.741" r="8.40905" stroke-width="0.5" stroke="black" fill="yellow"/>
  <circle cx="11.7519" cy="647.741" r="5.05064" stroke-width="0.5" stroke="yellow" fill="yellow"/>
   </g>
   <g id="cell92">
  <circle cx="660.691" cy="304.319" r="10.2808" stroke-width="0.5" stroke="black" fill="yellow"/>
  <circle cx="660.691" cy="304.319" r="6.21743" stroke-width="0.5" stroke="yellow" fill="yellow"/>
   </g>
   <g id="cell93">
  <circle cx="229.453" cy="856.897" r="8.41187" stroke-width="0.5" stroke="black" fill="yellow"/>
  <circle cx="229.453" cy="856.897" r="5.05147" stroke-width="0.5" stroke="yellow" fill="yellow"/>
   </g>
   <g id="cell94">
  <circle cx="386.844" cy="97.2813" r="9.99793" stroke-width="0.5" stroke="black" fill="yellow"/>
  <circle cx="386.844" cy="97.2813" r="6.06448" stroke-width="0.5" stroke="yellow" fill="yellow"/>
   </g>
   <g id="cell95">
  <circle cx="945.28" cy="904.111" r="10.3458" stroke-width="0.5" stroke="black" fill="yellow"/>
  <circle cx="945.28" cy="904.111" r="6.25082" stroke-width="0.5" stroke="yellow" fill="yellow"/>
   </g>
   <g id="cell121">
  <circle cx="15.9918" cy="483.119" r="8.41192" stroke-width="0.5" stroke="black" fill="red"/>
  <circle cx="15.9918" cy="483.119" r="5.05148" stroke-width="0.5" stroke="red" fill="red"/>
   </g>
   <g id="cell122">
  <circle cx="711.441" cy="439.706" r="10.4684" stroke-width="0.5" stroke="black" fill="yellow"/>
  <circle cx="711.441" cy="439.706" r="6.31039" stroke-width="0.5" stroke="yellow" fill="yellow"/>
   </g>
   <g id="cell123">
  <circle cx="262.029" cy="899.196" r="8.41187" stroke-width="0.5" stroke="black" fill="yellow"/>
  <circle cx="262.029" cy="899.196" r="5.05147" stroke-width="0.5" stroke="yellow" fill="yellow"/>
   </g>
   <g id="cell124">
  <circle cx="499.589" cy="636.859" r="10.2906" stroke-width="0.5" stroke="black" fill="grey"/>
  <circle cx="499.589" cy="636.859" r="6.22232" stroke-width="0.5" stroke="grey" fill="grey"/>
   </g>
   <g id="cell125">
  <circle cx="793.469" cy="425.389" r="10.4919" stroke-width="0.5" stroke="black" fill="yellow"/>
  <circle cx="793.469" cy="425.389" r="6.32124" stroke-width="0.5" stroke="yellow" fill="yellow"/>
   </g>
   <g id="cell126">
  <circle cx="952.889" cy="171.418" r="10.2626" stroke-width="0.5" stroke="black" fill="red"/>
  <circle cx="952.889" cy="171.418" r="6.2078" stroke-width="0.5" stroke="red" fill="red"/>
   </g>
   <g id="cell127">
  <circle cx="897.569" cy="541.131" r="10.479" stroke-width="0.5" stroke="black" fill="red"/>
  <circle cx="897.569" cy="541.131" r="6.31533" stroke-width="0.5" stroke="red" fill="red"/>
   </g>
   <g id="cell128">
  <circle cx="928.105" cy="25.9181" r="10.1752" stroke-width="0.5" stroke="black" fill="red"/>
  <circle cx="928.105" cy="25.9181" r="6.16142" stroke-width="0.5" stroke="red" fill="red"/>
   </g>
   <g id="cell129">
  <circle cx="978.633" cy="676.04" r="10.4606" stroke-width="0.5" stroke="black" fill="grey"/>
  <circle cx="978.633" cy="676.04" r="6.30678" stroke-width="0.5" stroke="grey" fill="grey"/>
   </g>
   <g id="cell130">
  <circle cx="907.143" cy="609.885" r="8.41169" stroke-width="0.5" stroke="black" fill="yellow"/>
  <circle cx="907.143" cy="609.885" r="5.05142" stroke-width="0.5" stroke="yellow" fill="yellow"/>
   </g>
   <g id="cell132">
  <circle cx="62.4104" cy="919.924" r="10.3926" stroke-width="0.5" stroke="black" fill="red"/>
  <circle cx="62.4104" cy="919.924" r="6.27399" stroke-width="0.5" stroke="red" fill="red"/>
   </g>
   <g id="cell133">
  <circle cx="650.803" cy="383.194" r="9.86465" stroke-width="0.5" stroke="black" fill="red"/>
  <circle cx="650.803" cy="383.194" r="5.98875" stroke-width="0.5" stroke="red" fill="red"/>
   </g>
   <g id="cell134">
  <circle cx="624.597" cy="436.457" r="1.76932" stroke-width="0.5" stroke="black" fill="grey"/>
  <circle cx="624.597" cy="436.457" r="1.71595" stroke-width="0.5" stroke="black" fill="black"/>
   </g>
   <g id="cell136">
  <circle cx="634.347" cy="452.069" r="10.2904" stroke-width="0.5" stroke="black" fill="red"/>
  <circle cx="634.347" cy="452.069" r="6.22227" stroke-width="0.5" stroke="red" fill="red"/>
   </g>
   <g id="cell137">
  <circle cx="803.612" cy="671.145" r="9.37597" stroke-width="0.5" stroke="black" fill="yellow"/>
  <circle cx="803.612" cy="671.145" r="5.6993" stroke-width="0.5" stroke="yellow" fill="yellow"/>
   </g>
   <g id="cell138">
  <circle cx="728.891" cy="236.257" r="10.4855" stroke-width="0.5" stroke="black" fill="red"/>
  <circle cx="728.891" cy="236.257" r="6.31834" stroke-width="0.5" stroke="red" fill="red"/>
   </g>
   <g id="cell139">
  <circle cx="780.81" cy="753.811" r="8.41157" stroke-width="0.5" stroke="black" fill="yellow"/>
  <circle cx="780.81" cy="753.811" r="5.05138" stroke-width="0.5" stroke="yellow" fill="yellow"/>
   </g>
   <g id="cell140">
  <circle cx="61.6677" cy="333.012" r="10.4788" stroke-width="0.5" stroke="black" fill="red"/>
  <circle cx="61.6677" cy="333.012" r="6.31529" stroke-width="0.5" stroke="red" fill="red"/>
   </g>
   <g id="cell141">
  <circle cx="17.456" cy="975.62" r="10.4682" stroke-width="0.5" stroke="black" fill="yellow"/>
  <circle cx="17.456" cy="975.62" r="6.31033" stroke-width="0.5" stroke="yellow" fill="yellow"/>
   </g>
   <g id="cell142">
  <circle cx="687.923" cy="682.176" r="8.41151" stroke-width="0.5" stroke="black" fill="red"/>
  <circle cx="687.923" cy="682.176" r="5.05137" stroke-width="0.5" stroke="red" fill="red"/>
   </g>
   <g id="cell143">
  <circle cx="115.65" cy="738.557" r="9.00701" stroke-width="0.5" stroke="black" fill="red"/>
  <circle cx="115.65" cy="738.557" r="5.46778" stroke-width="0.5" stroke="red" fill="red"/>
   </g>
   <g id="cell144">
  <circle cx="657.754" cy="149.002" r="10.4148" stroke-width="0.5" stroke="black" fill="grey"/>
  <circle cx="657.754" cy="149.002" r="6.28489" stroke-width="0.5" stroke="grey" fill="grey"/>
   </g>
   <g id="cell145">
  <circle cx="540.465" cy="531.576" r="8.48164" stroke-width="0.5" stroke="black" fill="red"/>
  <circle cx="540.465" cy="531.576" r="5.10285" stroke-width="0.5" stroke="red" fill="red"/>
   </g>
   <g id="cell146">
  <circle cx="320.972" cy="190.449" r="10.3864" stroke-width="0.5" stroke="black" fill="red"/>
  <circle cx="320.972" cy="190.449" r="6.27097" stroke-width="0.5" stroke="red" fill="red"/>
   </g>
   <g id="cell147">
  <circle cx="638.429" cy="391.268" r="9.47321" stroke-width="0.5" stroke="black" fill="yellow"/>
  <circle cx="638.429" cy="391.268" r="5.75844" stroke-width="0.5" stroke="yellow" fill="yellow"/>
   </g>
   <g id="cell148">
  <circle cx="182.944" cy="765.498" r="10.4717" stroke-width="0.5" stroke="black" fill="grey"/>
  <circle cx="182.944" cy="765.498" r="6.312" stroke-width="0.5" stroke="grey" fill="grey"/>
   </g>
   <g id="cell149">
  <circle cx="864.24" cy="445.427" r="10.448" stroke-width="0.5" stroke="black" fill="red"/>
  <circle cx="864.24" cy="445.427" r="6.30089" stroke-width="0.5" stroke="red" fill="red"/>
   </g>
   <g id="cell150">
  <circle cx="171.615" cy="34.8342" r="10.1364" stroke-width="0.5" stroke="black" fill="yellow"/>
  <circle cx="171.615" cy="34.8342" r="6.14058" stroke-width="0.5" stroke="yellow" fill="yellow"/>
   </g>
   <g id="cell151">
  <circle cx="210.004" cy="903.921" r="9.84289" stroke-width="0.5" stroke="black" fill="red"/>
  <circle cx="210.004" cy="903.921" r="5.97635" stroke-width="0.5" stroke="red" fill="red"/>
   </g>
   <g id="cell152">
  <circle cx="597.911" cy="841.568" r="10.4248" stroke-width="0.5" stroke="black" fill="red"/>
  <circle cx="597.911" cy="841.568" r="6.2898" stroke-width="0.5" stroke="red" fill="red"/>
   </g>
   <g id="cell154">
  <circle cx="864.862" cy="33.279" r="10.1087" stroke-width="0.5" stroke="black" fill="red"/>
  <circle cx="864.862" cy="33.279" r="6.12555" stroke-width="0.5" stroke="red" fill="red"/>
   </g>
   <g id="cell155">
  <circle cx="643.121" cy="903.033" r="10.4037" stroke-width="0.5" stroke="black" fill="red"/>
  <circle cx="643.121" cy="903.033" r="6.27953" stroke-width="0.5" stroke="red" fill="red"/>
   </g>
   <g id="cell156">
  <circle cx="885.551" cy="510.989" r="10.38" stroke-width="0.5" stroke="black" fill="grey"/>
  <circle cx="885.551" cy="510.989" r="6.26786" stroke-width="0.5" stroke="grey" fill="grey"/>
   </g>
   <g id="cell157">
  <circle cx="628.27" cy="623.213" r="10.0642" stroke-width="0.5" stroke="black" fill="yellow"/>
  <circle cx="628.27" cy="623.213" r="6.10113" stroke-width="0.5" stroke="yellow" fill="yellow"/>
   </g>
   <g id="cell158">
  <circle cx="163.19" cy="140.34" r="1.94003" stroke-width="0.5" stroke="black" fill="yellow"/>
  <circle cx="163.19" cy="140.34" r="1.89987" stroke-width="0.5" stroke="black" fill="black"/>
   </g>
   <g id="cell159">
  <circle cx="659.787" cy="307.724" r="9.82047" stroke-width="0.5" stroke="black" fill="yellow"/>
  <circle cx="659.787" cy="307.724" r="5.96355" stroke-width="0.5" stroke="yellow" fill="yellow"/>
   </g>
   <g id="cell160">
  <circle cx="603.792" cy="284.718" r="10.1225" stroke-width="0.5" stroke="black" fill="red"/>
  <circle cx="603.792" cy="284.718" r="6.1331" stroke-width="0.5" stroke="red" fill="red"/>
   </g>
   <g id="cell161">
  <circle cx="39.9117" cy="929.436" r="1.54736" stroke-width="0.5" stroke="black" fill="red"/>
  <circle cx="39.9117" cy="929.436" r="1.52343" stroke-width="0.5" stroke="black" fill="black"/>
   </g>
   <g id="cell162">
  <circle cx="840.596" cy="120.565" r="10.4034" stroke-width="0.5" stroke="black" fill="red"/>
  <circle cx="840.596" cy="120.565" r="6.27945" stroke-width="0.5" stroke="red" fill="red"/>
   </g>
   <g id="cell163">
  <circle cx="451.184" cy="971.631" r="10.3919" stroke-width="0.5" stroke="black" fill="red"/>
  <circle cx="451.184" cy="971.631" r="6.27379" stroke-width="0.5" stroke="red" fill="red"/>
   </g>
   <g id="cell164">
  <circle cx="813.505" cy="961.707" r="8.88623" stroke-width="0.5" stroke="black" fill="red"/>
  <circle cx="813.505" cy="961.707" r="5.38903" stroke-width="0.5" stroke="red" fill="red"/>
   </g>
   <g id="cell165">
  <circle cx="824.277" cy="396.767" r="10.3858" stroke-width="0.5" stroke="black" fill="red"/>
  <circle cx="824.277" cy="396.767" r="6.27081" stroke-width="0.5" stroke="red" fill="red"/>
   </g>
   <g id="cell166">
  <circle cx="801.773" cy="509.137" r="10.3796" stroke-width="0.5" stroke="black" fill="yellow"/>
  <circle cx="801.773" cy="509.137" r="6.26773" stroke-width="0.5" stroke="yellow" fill="yellow"/>
   </g>
   <g id="cell167">
  <circle cx="649.905" cy="139.119" r="9.96249" stroke-width="0.5" stroke="black" fill="yellow"/>
  <circle cx="649.905" cy="139.119" r="6.04452" stroke-width="0.5" stroke="yellow" fill="yellow"/>
   </g>
   <g id="cell168">
  <circle cx="931.381" cy="889.349" r="10.2983" stroke-width="0.5" stroke="black" fill="yellow"/>
  <circle cx="931.381" cy="889.349" r="6.22655" stroke-width="0.5" stroke="yellow" fill="yellow"/>
   </g>
   <g id="cell169">
  <circle cx="359.697" cy="971.494" r="10.2312" stroke-width="0.5" stroke="black" fill="yellow"/>
  <circle cx="359.697" cy="971.494" r="6.19152" stroke-width="0.5" stroke="yellow" fill="yellow"/>
   </g>
   <g id="cell170">
  <circle cx="69.2766" cy="985.557" r="8.4103" stroke-width="0.5" stroke="black" fill="red"/>
  <circle cx="69.2766" cy="985.557" r="5.05102" stroke-width="0.5" stroke="red" fill="red"/>
   </g>
   <g id="cell171">
  <circle cx="537.994" cy="390.431" r="10.2518" stroke-width="0.5" stroke="black" fill="red"/>
  <circle cx="537.994" cy="390.431" r="6.20235" stroke-width="0.5" stroke="red" fill="red"/>
   </g>
   <g id="cell172">
  <circle cx="473.038" cy="777.492" r="10.2711" stroke-width="0.5" stroke="black" fill="red"/>
  <circle cx="473.038" cy="777.492" r="6.21249" stroke-width="0.5" stroke="red" fill="red"/>
   </g>
   <g id="cell173">
  <circle cx="947.153" cy="424.189" r="8.41016" stroke-width="0.5" stroke="black" fill="red"/>
  <circle cx="947.153" cy="424.189" r="5.05098" stroke-width="0.5" stroke="red" fill="red"/>
   </g>
   <g id="cell174">
  <circle cx="376.824" cy="107.89" r="8.41002" stroke-width="0.5" stroke="black" fill="yellow"/>
  <circle cx="376.824" cy="107.89" r="5.05093" stroke-width="0.5" stroke="yellow" fill="yellow"/>
   </g>
   <g id="cell175">
  <circle cx="42.6456" cy="321.53" r="10.2981" stroke-width="0.5" stroke="black" fill="yellow"/>
  <circle cx="42.6456" cy="321.53" r="6.22648" stroke-width="0.5" stroke="yellow" fill="yellow"/>
   </g>
   <g id="cell178">
  <circle cx="55.9134" cy="155.626" r="10.2086" stroke-width="0.5" stroke="black" fill="red"/>
  <circle cx="55.9134" cy="155.626" r="6.17971" stroke-width="0.5" stroke="red" fill="red"/>
   </g>
   <g id="cell179">
  <circle cx="10.3574" cy="483.43" r="9.19717" stroke-width="0.5" stroke="black" fill="yellow"/>
  <circle cx="10.3574" cy="483.43" r="5.5893" stroke-width="0.5" stroke="yellow" fill="yellow"/>
   </g>
   <g id="cell180">
  <circle cx="38.5072" cy="674.007" r="8.40905" stroke-width="0.5" stroke="black" fill="yellow"/>
  <circle cx="38.5072" cy="674.007" r="5.05064" stroke-width="0.5" stroke="yellow" fill="yellow"/>
   </g>
   <g id="cell181">
  <circle cx="990.512" cy="683.436" r="8.40884" stroke-width="0.5" stroke="black" fill="red"/>
  <circle cx="990.512" cy="683.436" r="5.05057" stroke-width="0.5" stroke="red" fill="red"/>
   </g>
   <g id="cell182">
  <circle cx="522.002" cy="973.038" r="8.40873" stroke-width="0.5" stroke="black" fill="yellow"/>
  <circle cx="522.002" cy="973.038" r="5.05054" stroke-width="0.5" stroke="yellow" fill="yellow"/>
   </g>
   <g id="cell183">
  <circle cx="651.561" cy="861.22" r="8.40873" stroke-width="0.5" stroke="black" fill="red"/>
  <circle cx="651.561" cy="861.22" r="5.05054" stroke-width="0.5" stroke="red" fill="red"/>
   </g>
   <g id="cell187">
  <circle cx="315.567" cy="431.012" r="8.84242" stroke-width="0.5" stroke="black" fill="yellow"/>
  <circle cx="315.567" cy="431.012" r="5.36104" stroke-width="0.5" stroke="yellow" fill="yellow"/>
   </g>
   <g id="cell189">
  <circle cx="782.176" cy="380.018" r="9.69678" stroke-width="0.5" stroke="black" fill="yellow"/>
  <circle cx="782.176" cy="380.018" r="5.89258" stroke-width="0.5" stroke="yellow" fill="yellow"/>
   </g>
   <g id="cell194">
  <circle cx="102.304" cy="175.026" r="8.55867" stroke-width="0.5" stroke="black" fill="yellow"/>
  <circle cx="102.304" cy="175.026" r="5.16768" stroke-width="0.5" stroke="yellow" fill="yellow"/>
   </g>
   <g id="cell195">
  <circle cx="381.751" cy="454.871" r="8.39021" stroke-width="0.5" stroke="black" fill="yellow"/>
  <circle cx="381.751" cy="454.871" r="5.0439" stroke-width="0.5" stroke="yellow" fill="yellow"/>
   </g>
   <g id="cell196">
  <circle cx="870.908" cy="292.185" r="8.38682" stroke-width="0.5" stroke="black" fill="yellow"/>
  <circle cx="870.908" cy="292.185" r="5.04258" stroke-width="0.5" stroke="yellow" fill="yellow"/>
   </g>
  </g>
 </g>
  <rect x="775" y="1035" width="200" height="10" stroke-width="2" stroke="rgb(255,255,255)" fill="rgb(0,0,0)"/>
  <text x="781.25" y="1028.75"
   font-family="Arial" font-size="25" fill="black" >
   200 &#956;m
  </text>
  <text x="25" y="1045"
   font-family="Arial" font-size="18.75" fill="black" >
   0 days, 0 hours, 2 minutes, and 2.4520 seconds
  </text>
  <rect x="0" y="70" width="1000" height="1000" stroke-width="2" stroke="rgb(0,0,0)" fill="none"/>
</svg>
