<?xml version="1.0" encoding="UTF-8" standalone="no"?>
<!-- Created with PhysiCell (http://PhysiCell.MathCancer.org/) -->
<svg 
 xmlns:dc="http://purl.org/dc/elements/1.1/" 
 xmlns:cc="http://creativecommons.org/ns#" 
 xmlns:rdf="http://www.w3.org/1999/02/22-rdf-syntax-ns#" 
 xmlns:svg="http://www.w3.org/2000/svg" 
 xmlns="http://www.w3.org/2000/svg" 
 version="1.1" 
 width="1000" 
 height="1070" 
 id="svg2">
  <rect x="0" y="0" width="1000" height="1070" stroke-width="2" stroke="white" fill="white"/>
  <text x="12.5" y="30"
   font-family="Arial" font-size="25" fill="black" >
   Current time: 0 days, 15 hours, and 0.00 minutes, z = 0.00 &#956;m
  </text>
  <text x="12.5" y="57.5"
   font-family="Arial" font-size="23.75" fill="black" >
   96 agents
  </text>
 <g id="tissue" 
    transform="translate(0,1070) scale(1,-1)">
  <g id="ECM">
  </g>
  <g id="cells">
   <g id="cell0">
  <circle cx="515.523" cy="622.206" r="10.5596" stroke-width="0.5" stroke="black" fill="grey"/>
  <circle cx="515.523" cy="622.206" r="6.35043" stroke-width="0.5" stroke="grey" fill="grey"/>
   </g>
   <g id="cell118">
  <circle cx="900.656" cy="596.645" r="10.551" stroke-width="0.5" stroke="black" fill="yellow"/>
  <circle cx="900.656" cy="596.645" r="6.3469" stroke-width="0.5" stroke="yellow" fill="yellow"/>
   </g>
   <g id="cell100">
  <circle cx="129.158" cy="824.533" r="10.5482" stroke-width="0.5" stroke="black" fill="yellow"/>
  <circle cx="129.158" cy="824.533" r="6.34574" stroke-width="0.5" stroke="yellow" fill="yellow"/>
   </g>
   <g id="cell3">
  <circle cx="621.718" cy="602.994" r="10.551" stroke-width="0.5" stroke="black" fill="grey"/>
  <circle cx="621.718" cy="602.994" r="6.3469" stroke-width="0.5" stroke="grey" fill="grey"/>
   </g>
   <g id="cell103">
  <circle cx="843.738" cy="861.669" r="8.80772" stroke-width="0.5" stroke="black" fill="yellow"/>
  <circle cx="843.738" cy="861.669" r="5.33574" stroke-width="0.5" stroke="yellow" fill="yellow"/>
   </g>
   <g id="cell5">
  <circle cx="75.5167" cy="967.659" r="1.69225" stroke-width="0.5" stroke="black" fill="grey"/>
  <circle cx="75.5167" cy="967.659" r="1.67933" stroke-width="0.5" stroke="black" fill="black"/>
   </g>
   <g id="cell6">
  <circle cx="385.987" cy="484.758" r="4.11508" stroke-width="0.5" stroke="black" fill="grey"/>
  <circle cx="385.987" cy="484.758" r="3.25272" stroke-width="0.5" stroke="black" fill="black"/>
   </g>
   <g id="cell7">
  <circle cx="875.423" cy="521.586" r="10.5211" stroke-width="0.5" stroke="black" fill="grey"/>
  <circle cx="875.423" cy="521.586" r="6.33419" stroke-width="0.5" stroke="grey" fill="grey"/>
   </g>
   <g id="cell8">
  <circle cx="590.293" cy="419.256" r="10.4984" stroke-width="0.5" stroke="black" fill="grey"/>
  <circle cx="590.293" cy="419.256" r="6.32406" stroke-width="0.5" stroke="grey" fill="grey"/>
   </g>
   <g id="cell112">
  <circle cx="785.336" cy="751.909" r="10.5452" stroke-width="0.5" stroke="black" fill="yellow"/>
  <circle cx="785.336" cy="751.909" r="6.3445" stroke-width="0.5" stroke="yellow" fill="yellow"/>
   </g>
   <g id="cell10">
  <circle cx="134.269" cy="642.6" r="3.09307" stroke-width="0.5" stroke="black" fill="grey"/>
  <circle cx="134.269" cy="642.6" r="2.75827" stroke-width="0.5" stroke="black" fill="black"/>
   </g>
   <g id="cell11">
  <circle cx="330.059" cy="826.206" r="4.29201" stroke-width="0.5" stroke="black" fill="grey"/>
  <circle cx="330.059" cy="826.206" r="3.3186" stroke-width="0.5" stroke="black" fill="black"/>
   </g>
   <g id="cell104">
  <circle cx="781.712" cy="398.093" r="10.5573" stroke-width="0.5" stroke="black" fill="yellow"/>
  <circle cx="781.712" cy="398.093" r="6.3495" stroke-width="0.5" stroke="yellow" fill="yellow"/>
   </g>
   <g id="cell102">
  <circle cx="603.022" cy="174.128" r="10.4894" stroke-width="0.5" stroke="black" fill="yellow"/>
  <circle cx="603.022" cy="174.128" r="6.31998" stroke-width="0.5" stroke="yellow" fill="yellow"/>
   </g>
   <g id="cell98">
  <circle cx="923.43" cy="387.702" r="10.3615" stroke-width="0.5" stroke="black" fill="yellow"/>
  <circle cx="923.43" cy="387.702" r="6.25834" stroke-width="0.5" stroke="yellow" fill="yellow"/>
   </g>
   <g id="cell97">
  <circle cx="430.376" cy="110.312" r="10.2534" stroke-width="0.5" stroke="black" fill="yellow"/>
  <circle cx="430.376" cy="110.312" r="6.2028" stroke-width="0.5" stroke="yellow" fill="yellow"/>
   </g>
   <g id="cell16">
  <circle cx="157.159" cy="738.009" r="10.5333" stroke-width="0.5" stroke="black" fill="grey"/>
  <circle cx="157.159" cy="738.009" r="6.33948" stroke-width="0.5" stroke="grey" fill="grey"/>
   </g>
   <g id="cell116">
  <circle cx="821.013" cy="470.363" r="10.1634" stroke-width="0.5" stroke="black" fill="yellow"/>
  <circle cx="821.013" cy="470.363" r="6.1549" stroke-width="0.5" stroke="yellow" fill="yellow"/>
   </g>
   <g id="cell18">
  <circle cx="959.432" cy="705.774" r="2.87454" stroke-width="0.5" stroke="black" fill="grey"/>
  <circle cx="959.432" cy="705.774" r="2.60236" stroke-width="0.5" stroke="black" fill="black"/>
   </g>
   <g id="cell101">
  <circle cx="104.781" cy="146.113" r="9.53557" stroke-width="0.5" stroke="black" fill="yellow"/>
  <circle cx="104.781" cy="146.113" r="5.79561" stroke-width="0.5" stroke="yellow" fill="yellow"/>
   </g>
   <g id="cell20">
  <circle cx="235.256" cy="172.059" r="3.61164" stroke-width="0.5" stroke="black" fill="grey"/>
  <circle cx="235.256" cy="172.059" r="3.01951" stroke-width="0.5" stroke="black" fill="black"/>
   </g>
   <g id="cell99">
  <circle cx="504.061" cy="968.112" r="10.4048" stroke-width="0.5" stroke="black" fill="yellow"/>
  <circle cx="504.061" cy="968.112" r="6.27981" stroke-width="0.5" stroke="yellow" fill="yellow"/>
   </g>
   <g id="cell115">
  <circle cx="206.105" cy="12.4625" r="10.5314" stroke-width="0.5" stroke="black" fill="yellow"/>
  <circle cx="206.105" cy="12.4625" r="6.33867" stroke-width="0.5" stroke="yellow" fill="yellow"/>
   </g>
   <g id="cell108">
  <circle cx="708.096" cy="37.302" r="8.08312" stroke-width="0.5" stroke="black" fill="yellow"/>
  <circle cx="708.096" cy="37.302" r="5.02427" stroke-width="0.5" stroke="black" fill="black"/>
   </g>
   <g id="cell24">
  <circle cx="608.109" cy="222.435" r="2.00704" stroke-width="0.5" stroke="black" fill="grey"/>
  <circle cx="608.109" cy="222.435" r="1.96975" stroke-width="0.5" stroke="black" fill="black"/>
   </g>
   <g id="cell105">
  <circle cx="102.173" cy="435.136" r="9.00806" stroke-width="0.5" stroke="black" fill="yellow"/>
  <circle cx="102.173" cy="435.136" r="5.46807" stroke-width="0.5" stroke="yellow" fill="yellow"/>
   </g>
   <g id="cell26">
  <circle cx="647.374" cy="428.021" r="10.5496" stroke-width="0.5" stroke="black" fill="grey"/>
  <circle cx="647.374" cy="428.021" r="6.34633" stroke-width="0.5" stroke="grey" fill="grey"/>
   </g>
   <g id="cell117">
  <circle cx="890.606" cy="388.345" r="10.2821" stroke-width="0.5" stroke="black" fill="yellow"/>
  <circle cx="890.606" cy="388.345" r="6.21778" stroke-width="0.5" stroke="yellow" fill="yellow"/>
   </g>
   <g id="cell28">
  <circle cx="643.588" cy="142.587" r="10.5404" stroke-width="0.5" stroke="black" fill="grey"/>
  <circle cx="643.588" cy="142.587" r="6.34248" stroke-width="0.5" stroke="grey" fill="grey"/>
   </g>
   <g id="cell29">
  <circle cx="964.79" cy="696.503" r="10.5523" stroke-width="0.5" stroke="black" fill="grey"/>
  <circle cx="964.79" cy="696.503" r="6.34745" stroke-width="0.5" stroke="grey" fill="grey"/>
   </g>
   <g id="cell30">
  <circle cx="725.811" cy="141.058" r="10.2328" stroke-width="0.5" stroke="black" fill="grey"/>
  <circle cx="725.811" cy="141.058" r="6.19197" stroke-width="0.5" stroke="grey" fill="grey"/>
   </g>
   <g id="cell31">
  <circle cx="415.183" cy="106.704" r="10.4573" stroke-width="0.5" stroke="black" fill="grey"/>
  <circle cx="415.183" cy="106.704" r="6.30507" stroke-width="0.5" stroke="grey" fill="grey"/>
   </g>
   <g id="cell114">
  <circle cx="27.6759" cy="325.218" r="10.4689" stroke-width="0.5" stroke="black" fill="yellow"/>
  <circle cx="27.6759" cy="325.218" r="6.31053" stroke-width="0.5" stroke="yellow" fill="yellow"/>
   </g>
   <g id="cell107">
  <circle cx="378.876" cy="419.378" r="9.44256" stroke-width="0.5" stroke="black" fill="yellow"/>
  <circle cx="378.876" cy="419.378" r="5.73955" stroke-width="0.5" stroke="yellow" fill="yellow"/>
   </g>
   <g id="cell106">
  <circle cx="41.3095" cy="978.957" r="10.5436" stroke-width="0.5" stroke="black" fill="yellow"/>
  <circle cx="41.3095" cy="978.957" r="6.34385" stroke-width="0.5" stroke="yellow" fill="yellow"/>
   </g>
   <g id="cell35">
  <circle cx="922.542" cy="92.6134" r="8.61424" stroke-width="0.5" stroke="black" fill="grey"/>
  <circle cx="922.542" cy="92.6134" r="5.20061" stroke-width="0.5" stroke="grey" fill="grey"/>
   </g>
   <g id="cell109">
  <circle cx="371.102" cy="960.627" r="10.483" stroke-width="0.5" stroke="black" fill="yellow"/>
  <circle cx="371.102" cy="960.627" r="6.31703" stroke-width="0.5" stroke="yellow" fill="yellow"/>
   </g>
   <g id="cell111">
  <circle cx="757.141" cy="355.118" r="10.2534" stroke-width="0.5" stroke="black" fill="yellow"/>
  <circle cx="757.141" cy="355.118" r="6.2028" stroke-width="0.5" stroke="yellow" fill="yellow"/>
   </g>
   <g id="cell38">
  <circle cx="228.983" cy="445.784" r="1.65258" stroke-width="0.5" stroke="black" fill="grey"/>
  <circle cx="228.983" cy="445.784" r="1.64157" stroke-width="0.5" stroke="black" fill="black"/>
   </g>
   <g id="cell110">
  <circle cx="871.485" cy="248.989" r="9.2729" stroke-width="0.5" stroke="black" fill="yellow"/>
  <circle cx="871.485" cy="248.989" r="5.63555" stroke-width="0.5" stroke="yellow" fill="yellow"/>
   </g>
   <g id="cell40">
  <circle cx="167.444" cy="396.122" r="10.5254" stroke-width="0.5" stroke="black" fill="red"/>
  <circle cx="167.444" cy="396.122" r="6.33607" stroke-width="0.5" stroke="red" fill="red"/>
   </g>
   <g id="cell41">
  <circle cx="671.891" cy="684.248" r="10.542" stroke-width="0.5" stroke="black" fill="red"/>
  <circle cx="671.891" cy="684.248" r="6.34318" stroke-width="0.5" stroke="red" fill="red"/>
   </g>
   <g id="cell42">
  <circle cx="138.155" cy="732.469" r="10.542" stroke-width="0.5" stroke="black" fill="red"/>
  <circle cx="138.155" cy="732.469" r="6.34318" stroke-width="0.5" stroke="red" fill="red"/>
   </g>
   <g id="cell43">
  <circle cx="886.481" cy="389.269" r="10.4761" stroke-width="0.5" stroke="black" fill="red"/>
  <circle cx="886.481" cy="389.269" r="6.31388" stroke-width="0.5" stroke="red" fill="red"/>
   </g>
   <g id="cell44">
  <circle cx="817.425" cy="35.056" r="10.5233" stroke-width="0.5" stroke="black" fill="red"/>
  <circle cx="817.425" cy="35.056" r="6.33514" stroke-width="0.5" stroke="red" fill="red"/>
   </g>
   <g id="cell45">
  <circle cx="651.164" cy="832.777" r="10.4048" stroke-width="0.5" stroke="black" fill="red"/>
  <circle cx="651.164" cy="832.777" r="6.27981" stroke-width="0.5" stroke="red" fill="red"/>
   </g>
   <g id="cell46">
  <circle cx="59.2126" cy="913.911" r="10.5496" stroke-width="0.5" stroke="black" fill="red"/>
  <circle cx="59.2126" cy="913.911" r="6.34633" stroke-width="0.5" stroke="red" fill="red"/>
   </g>
   <g id="cell47">
  <circle cx="895.862" cy="426.189" r="10.5333" stroke-width="0.5" stroke="black" fill="red"/>
  <circle cx="895.862" cy="426.189" r="6.33948" stroke-width="0.5" stroke="red" fill="red"/>
   </g>
   <g id="cell48">
  <circle cx="917.125" cy="48.7118" r="10.5549" stroke-width="0.5" stroke="black" fill="red"/>
  <circle cx="917.125" cy="48.7118" r="6.34851" stroke-width="0.5" stroke="red" fill="red"/>
   </g>
   <g id="cell49">
  <circle cx="458.191" cy="787.146" r="10.4796" stroke-width="0.5" stroke="black" fill="red"/>
  <circle cx="458.191" cy="787.146" r="6.31548" stroke-width="0.5" stroke="red" fill="red"/>
   </g>
   <g id="cell50">
  <circle cx="14.4631" cy="486.176" r="10.5618" stroke-width="0.5" stroke="black" fill="red"/>
  <circle cx="14.4631" cy="486.176" r="6.3513" stroke-width="0.5" stroke="red" fill="red"/>
   </g>
   <g id="cell51">
  <circle cx="962.711" cy="136.577" r="10.5561" stroke-width="0.5" stroke="black" fill="red"/>
  <circle cx="962.711" cy="136.577" r="6.34901" stroke-width="0.5" stroke="red" fill="red"/>
   </g>
   <g id="cell96">
  <circle cx="792.45" cy="535.197" r="10.4894" stroke-width="0.5" stroke="black" fill="yellow"/>
  <circle cx="792.45" cy="535.197" r="6.31998" stroke-width="0.5" stroke="yellow" fill="yellow"/>
   </g>
   <g id="cell53">
  <circle cx="688.275" cy="342.481" r="10.5496" stroke-width="0.5" stroke="black" fill="red"/>
  <circle cx="688.275" cy="342.481" r="6.34633" stroke-width="0.5" stroke="red" fill="red"/>
   </g>
   <g id="cell54">
  <circle cx="442.879" cy="932.439" r="10.4984" stroke-width="0.5" stroke="black" fill="red"/>
  <circle cx="442.879" cy="932.439" r="6.32406" stroke-width="0.5" stroke="red" fill="red"/>
   </g>
   <g id="cell55">
  <circle cx="248.311" cy="718.202" r="9.94548" stroke-width="0.5" stroke="black" fill="red"/>
  <circle cx="248.311" cy="718.202" r="6.03448" stroke-width="0.5" stroke="red" fill="red"/>
   </g>
   <g id="cell56">
  <circle cx="546.294" cy="817.779" r="10.5275" stroke-width="0.5" stroke="black" fill="red"/>
  <circle cx="546.294" cy="817.779" r="6.33696" stroke-width="0.5" stroke="red" fill="red"/>
   </g>
   <g id="cell57">
  <circle cx="494.574" cy="552.332" r="10.5387" stroke-width="0.5" stroke="black" fill="red"/>
  <circle cx="494.574" cy="552.332" r="6.34177" stroke-width="0.5" stroke="red" fill="red"/>
   </g>
   <g id="cell58">
  <circle cx="60.8589" cy="925.108" r="10.5012" stroke-width="0.5" stroke="black" fill="red"/>
  <circle cx="60.8589" cy="925.108" r="6.32534" stroke-width="0.5" stroke="red" fill="red"/>
   </g>
   <g id="cell59">
  <circle cx="100.889" cy="959.481" r="10.483" stroke-width="0.5" stroke="black" fill="red"/>
  <circle cx="100.889" cy="959.481" r="6.31703" stroke-width="0.5" stroke="red" fill="red"/>
   </g>
   <g id="cell60">
  <circle cx="275.96" cy="50.3873" r="10.4573" stroke-width="0.5" stroke="black" fill="red"/>
  <circle cx="275.96" cy="50.3873" r="6.30507" stroke-width="0.5" stroke="red" fill="red"/>
   </g>
   <g id="cell61">
  <circle cx="835.278" cy="127.758" r="10.5012" stroke-width="0.5" stroke="black" fill="red"/>
  <circle cx="835.278" cy="127.758" r="6.32534" stroke-width="0.5" stroke="red" fill="red"/>
   </g>
   <g id="cell62">
  <circle cx="747.958" cy="810.261" r="8.41271" stroke-width="0.5" stroke="black" fill="red"/>
  <circle cx="747.958" cy="810.261" r="5.05167" stroke-width="0.5" stroke="red" fill="red"/>
   </g>
   <g id="cell63">
  <circle cx="313.322" cy="190.108" r="10.5352" stroke-width="0.5" stroke="black" fill="red"/>
  <circle cx="313.322" cy="190.108" r="6.34027" stroke-width="0.5" stroke="red" fill="red"/>
   </g>
   <g id="cell64">
  <circle cx="576.762" cy="553.339" r="8.41271" stroke-width="0.5" stroke="black" fill="red"/>
  <circle cx="576.762" cy="553.339" r="5.05167" stroke-width="0.5" stroke="red" fill="red"/>
   </g>
   <g id="cell65">
  <circle cx="190.302" cy="844.985" r="5.95777" stroke-width="0.5" stroke="black" fill="red"/>
  <circle cx="190.302" cy="844.985" r="4.03245" stroke-width="0.5" stroke="black" fill="black"/>
   </g>
   <g id="cell66">
  <circle cx="33.6133" cy="145.486" r="10.4258" stroke-width="0.5" stroke="black" fill="red"/>
  <circle cx="33.6133" cy="145.486" r="6.29005" stroke-width="0.5" stroke="red" fill="red"/>
   </g>
   <g id="cell67">
  <circle cx="513.158" cy="274.904" r="10.4048" stroke-width="0.5" stroke="black" fill="red"/>
  <circle cx="513.158" cy="274.904" r="6.27981" stroke-width="0.5" stroke="red" fill="red"/>
   </g>
   <g id="cell68">
  <circle cx="776.087" cy="256.712" r="10.5452" stroke-width="0.5" stroke="black" fill="red"/>
  <circle cx="776.087" cy="256.712" r="6.3445" stroke-width="0.5" stroke="red" fill="red"/>
   </g>
   <g id="cell69">
  <circle cx="439.677" cy="277.186" r="10.4573" stroke-width="0.5" stroke="black" fill="red"/>
  <circle cx="439.677" cy="277.186" r="6.30507" stroke-width="0.5" stroke="red" fill="red"/>
   </g>
   <g id="cell70">
  <circle cx="560.643" cy="384.698" r="10.483" stroke-width="0.5" stroke="black" fill="red"/>
  <circle cx="560.643" cy="384.698" r="6.31703" stroke-width="0.5" stroke="red" fill="red"/>
   </g>
   <g id="cell71">
  <circle cx="876.44" cy="533.012" r="10.5549" stroke-width="0.5" stroke="black" fill="red"/>
  <circle cx="876.44" cy="533.012" r="6.34851" stroke-width="0.5" stroke="red" fill="red"/>
   </g>
   <g id="cell72">
  <circle cx="214.734" cy="882.941" r="10.5295" stroke-width="0.5" stroke="black" fill="red"/>
  <circle cx="214.734" cy="882.941" r="6.33783" stroke-width="0.5" stroke="red" fill="red"/>
   </g>
   <g id="cell73">
  <circle cx="648.63" cy="445.587" r="10.5467" stroke-width="0.5" stroke="black" fill="red"/>
  <circle cx="648.63" cy="445.587" r="6.34513" stroke-width="0.5" stroke="red" fill="red"/>
   </g>
   <g id="cell74">
  <circle cx="847.013" cy="985.157" r="10.4984" stroke-width="0.5" stroke="black" fill="red"/>
  <circle cx="847.013" cy="985.157" r="6.32406" stroke-width="0.5" stroke="red" fill="red"/>
   </g>
   <g id="cell75">
  <circle cx="83.8678" cy="313.493" r="10.5436" stroke-width="0.5" stroke="black" fill="red"/>
  <circle cx="83.8678" cy="313.493" r="6.34385" stroke-width="0.5" stroke="red" fill="red"/>
   </g>
   <g id="cell76">
  <circle cx="802.483" cy="400.319" r="10.4925" stroke-width="0.5" stroke="black" fill="red"/>
  <circle cx="802.483" cy="400.319" r="6.32139" stroke-width="0.5" stroke="red" fill="red"/>
   </g>
   <g id="cell77">
  <circle cx="633.139" cy="849.551" r="10.5211" stroke-width="0.5" stroke="black" fill="red"/>
  <circle cx="633.139" cy="849.551" r="6.33419" stroke-width="0.5" stroke="red" fill="red"/>
   </g>
   <g id="cell78">
  <circle cx="589.978" cy="255.82" r="10.5066" stroke-width="0.5" stroke="black" fill="red"/>
  <circle cx="589.978" cy="255.82" r="6.32777" stroke-width="0.5" stroke="red" fill="red"/>
   </g>
   <g id="cell79">
  <circle cx="974.03" cy="725.928" r="10.4102" stroke-width="0.5" stroke="black" fill="red"/>
  <circle cx="974.03" cy="725.928" r="6.2825" stroke-width="0.5" stroke="red" fill="red"/>
   </g>
   <g id="cell80">
  <circle cx="741.563" cy="706.1" r="9.16281" stroke-width="0.5" stroke="black" fill="yellow"/>
  <circle cx="741.563" cy="706.1" r="5.56677" stroke-width="0.5" stroke="yellow" fill="yellow"/>
   </g>
   <g id="cell81">
  <circle cx="498.045" cy="991.787" r="8.41271" stroke-width="0.5" stroke="black" fill="yellow"/>
  <circle cx="498.045" cy="991.787" r="5.05167" stroke-width="0.5" stroke="yellow" fill="yellow"/>
   </g>
   <g id="cell82">
  <circle cx="673.69" cy="408.063" r="10.5333" stroke-width="0.5" stroke="black" fill="yellow"/>
  <circle cx="673.69" cy="408.063" r="6.33948" stroke-width="0.5" stroke="yellow" fill="yellow"/>
   </g>
   <g id="cell83">
  <circle cx="591.117" cy="594.625" r="10.5189" stroke-width="0.5" stroke="black" fill="yellow"/>
  <circle cx="591.117" cy="594.625" r="6.3332" stroke-width="0.5" stroke="yellow" fill="yellow"/>
   </g>
   <g id="cell84">
  <circle cx="34.9205" cy="500.386" r="10.4258" stroke-width="0.5" stroke="black" fill="yellow"/>
  <circle cx="34.9205" cy="500.386" r="6.29005" stroke-width="0.5" stroke="yellow" fill="yellow"/>
   </g>
   <g id="cell85">
  <circle cx="741.139" cy="656.856" r="10.5467" stroke-width="0.5" stroke="black" fill="yellow"/>
  <circle cx="741.139" cy="656.856" r="6.34513" stroke-width="0.5" stroke="yellow" fill="yellow"/>
   </g>
   <g id="cell86">
  <circle cx="279.894" cy="443.05" r="10.2999" stroke-width="0.5" stroke="black" fill="yellow"/>
  <circle cx="279.894" cy="443.05" r="6.22699" stroke-width="0.5" stroke="yellow" fill="yellow"/>
   </g>
   <g id="cell87">
  <circle cx="758.328" cy="418.484" r="10.5596" stroke-width="0.5" stroke="black" fill="yellow"/>
  <circle cx="758.328" cy="418.484" r="6.35043" stroke-width="0.5" stroke="yellow" fill="yellow"/>
   </g>
   <g id="cell88">
  <circle cx="149.913" cy="100.828" r="10.5117" stroke-width="0.5" stroke="black" fill="yellow"/>
  <circle cx="149.913" cy="100.828" r="6.33005" stroke-width="0.5" stroke="yellow" fill="yellow"/>
   </g>
   <g id="cell89">
  <circle cx="63.3356" cy="539.71" r="10.3545" stroke-width="0.5" stroke="black" fill="yellow"/>
  <circle cx="63.3356" cy="539.71" r="6.25485" stroke-width="0.5" stroke="yellow" fill="yellow"/>
   </g>
   <g id="cell119">
  <circle cx="566.992" cy="38.1511" r="10.3474" stroke-width="0.5" stroke="black" fill="yellow"/>
  <circle cx="566.992" cy="38.1511" r="6.25125" stroke-width="0.5" stroke="yellow" fill="yellow"/>
   </g>
   <g id="cell91">
  <circle cx="41.0263" cy="640.431" r="10.4208" stroke-width="0.5" stroke="black" fill="yellow"/>
  <circle cx="41.0263" cy="640.431" r="6.28762" stroke-width="0.5" stroke="yellow" fill="yellow"/>
   </g>
   <g id="cell92">
  <circle cx="634.385" cy="306.623" r="10.5066" stroke-width="0.5" stroke="black" fill="yellow"/>
  <circle cx="634.385" cy="306.623" r="6.32777" stroke-width="0.5" stroke="yellow" fill="yellow"/>
   </g>
   <g id="cell93">
  <circle cx="240.226" cy="881.914" r="10.5596" stroke-width="0.5" stroke="black" fill="yellow"/>
  <circle cx="240.226" cy="881.914" r="6.35043" stroke-width="0.5" stroke="yellow" fill="yellow"/>
   </g>
   <g id="cell94">
  <circle cx="357.993" cy="93.7801" r="10.4689" stroke-width="0.5" stroke="black" fill="yellow"/>
  <circle cx="357.993" cy="93.7801" r="6.31053" stroke-width="0.5" stroke="yellow" fill="yellow"/>
   </g>
   <g id="cell95">
  <circle cx="953.121" cy="905.495" r="10.4862" stroke-width="0.5" stroke="black" fill="yellow"/>
  <circle cx="953.121" cy="905.495" r="6.31853" stroke-width="0.5" stroke="yellow" fill="yellow"/>
   </g>
  </g>
 </g>
  <rect x="775" y="1035" width="200" height="10" stroke-width="2" stroke="rgb(255,255,255)" fill="rgb(0,0,0)"/>
  <text x="781.25" y="1028.75"
   font-family="Arial" font-size="25" fill="black" >
   200 &#956;m
  </text>
  <text x="25" y="1045"
   font-family="Arial" font-size="18.75" fill="black" >
   0 days, 0 hours, 1 minutes, and 2.9223 seconds
  </text>
  <rect x="0" y="70" width="1000" height="1000" stroke-width="2" stroke="rgb(0,0,0)" fill="none"/>
</svg>
