<?xml version="1.0" encoding="UTF-8" standalone="no"?>
<!-- Created with PhysiCell (http://PhysiCell.MathCancer.org/) -->
<svg 
 xmlns:dc="http://purl.org/dc/elements/1.1/" 
 xmlns:cc="http://creativecommons.org/ns#" 
 xmlns:rdf="http://www.w3.org/1999/02/22-rdf-syntax-ns#" 
 xmlns:svg="http://www.w3.org/2000/svg" 
 xmlns="http://www.w3.org/2000/svg" 
 version="1.1" 
 width="1000" 
 height="1070" 
 id="svg2">
  <rect x="0" y="0" width="1000" height="1070" stroke-width="2" stroke="white" fill="white"/>
  <text x="12.5" y="30"
   font-family="Arial" font-size="25" fill="black" >
   Current time: 0 days, 19 hours, and 0.00 minutes, z = 0.00 &#956;m
  </text>
  <text x="12.5" y="57.5"
   font-family="Arial" font-size="23.75" fill="black" >
   138 agents
  </text>
 <g id="tissue" 
    transform="translate(0,1070) scale(1,-1)">
  <g id="ECM">
  </g>
  <g id="cells">
   <g id="cell0">
  <circle cx="498.206" cy="639.226" r="9.40187" stroke-width="0.5" stroke="black" fill="grey"/>
  <circle cx="498.206" cy="639.226" r="5.71704" stroke-width="0.5" stroke="grey" fill="grey"/>
   </g>
   <g id="cell118">
  <circle cx="870.162" cy="614.547" r="8.40022" stroke-width="0.5" stroke="black" fill="yellow"/>
  <circle cx="870.162" cy="614.547" r="5.04764" stroke-width="0.5" stroke="yellow" fill="yellow"/>
   </g>
   <g id="cell100">
  <circle cx="141.374" cy="827.159" r="9.29747" stroke-width="0.5" stroke="black" fill="yellow"/>
  <circle cx="141.374" cy="827.159" r="5.65368" stroke-width="0.5" stroke="yellow" fill="yellow"/>
   </g>
   <g id="cell3">
  <circle cx="627.135" cy="587.059" r="8.99717" stroke-width="0.5" stroke="black" fill="grey"/>
  <circle cx="627.135" cy="587.059" r="5.46433" stroke-width="0.5" stroke="grey" fill="grey"/>
   </g>
   <g id="cell103">
  <circle cx="839.985" cy="841.911" r="9.99984" stroke-width="0.5" stroke="black" fill="yellow"/>
  <circle cx="839.985" cy="841.911" r="6.06503" stroke-width="0.5" stroke="yellow" fill="yellow"/>
   </g>
   <g id="cell135">
  <circle cx="160.923" cy="818.9" r="8.3995" stroke-width="0.5" stroke="black" fill="yellow"/>
  <circle cx="160.923" cy="818.9" r="5.04738" stroke-width="0.5" stroke="yellow" fill="yellow"/>
   </g>
   <g id="cell6">
  <circle cx="385.987" cy="484.758" r="2.05064" stroke-width="0.5" stroke="black" fill="grey"/>
  <circle cx="385.987" cy="484.758" r="2.00936" stroke-width="0.5" stroke="black" fill="black"/>
   </g>
   <g id="cell7">
  <circle cx="877.701" cy="518.364" r="8.55922" stroke-width="0.5" stroke="black" fill="grey"/>
  <circle cx="877.701" cy="518.364" r="5.16789" stroke-width="0.5" stroke="grey" fill="grey"/>
   </g>
   <g id="cell8">
  <circle cx="587.455" cy="419.288" r="3.10542" stroke-width="0.5" stroke="black" fill="grey"/>
  <circle cx="587.455" cy="419.288" r="2.76758" stroke-width="0.5" stroke="black" fill="black"/>
   </g>
   <g id="cell112">
  <circle cx="759.291" cy="760.068" r="8.39874" stroke-width="0.5" stroke="black" fill="yellow"/>
  <circle cx="759.291" cy="760.068" r="5.04711" stroke-width="0.5" stroke="yellow" fill="yellow"/>
   </g>
   <g id="cell10">
  <circle cx="134.269" cy="642.6" r="1.72931" stroke-width="0.5" stroke="black" fill="grey"/>
  <circle cx="134.269" cy="642.6" r="1.71502" stroke-width="0.5" stroke="black" fill="black"/>
   </g>
   <g id="cell11">
  <circle cx="330.059" cy="826.206" r="2.08787" stroke-width="0.5" stroke="black" fill="grey"/>
  <circle cx="330.059" cy="826.206" r="2.04047" stroke-width="0.5" stroke="black" fill="black"/>
   </g>
   <g id="cell104">
  <circle cx="761.327" cy="376.292" r="9.03807" stroke-width="0.5" stroke="black" fill="yellow"/>
  <circle cx="761.327" cy="376.292" r="5.49026" stroke-width="0.5" stroke="yellow" fill="yellow"/>
   </g>
   <g id="cell102">
  <circle cx="632.421" cy="157.49" r="10.5639" stroke-width="0.5" stroke="black" fill="yellow"/>
  <circle cx="632.421" cy="157.49" r="6.35212" stroke-width="0.5" stroke="yellow" fill="yellow"/>
   </g>
   <g id="cell98">
  <circle cx="910.818" cy="382.812" r="10.5233" stroke-width="0.5" stroke="black" fill="yellow"/>
  <circle cx="910.818" cy="382.812" r="6.33514" stroke-width="0.5" stroke="yellow" fill="yellow"/>
   </g>
   <g id="cell97">
  <circle cx="424.946" cy="121.132" r="10.4894" stroke-width="0.5" stroke="black" fill="yellow"/>
  <circle cx="424.946" cy="121.132" r="6.31998" stroke-width="0.5" stroke="yellow" fill="yellow"/>
   </g>
   <g id="cell16">
  <circle cx="138.787" cy="738.172" r="8.7125" stroke-width="0.5" stroke="black" fill="grey"/>
  <circle cx="138.787" cy="738.172" r="5.27584" stroke-width="0.5" stroke="grey" fill="grey"/>
   </g>
   <g id="cell116">
  <circle cx="830.744" cy="437.177" r="10.4613" stroke-width="0.5" stroke="black" fill="yellow"/>
  <circle cx="830.744" cy="437.177" r="6.30695" stroke-width="0.5" stroke="yellow" fill="yellow"/>
   </g>
   <g id="cell18">
  <circle cx="959.432" cy="705.774" r="1.62965" stroke-width="0.5" stroke="black" fill="grey"/>
  <circle cx="959.432" cy="705.774" r="1.6182" stroke-width="0.5" stroke="black" fill="black"/>
   </g>
   <g id="cell101">
  <circle cx="98.8165" cy="144.502" r="10.2632" stroke-width="0.5" stroke="black" fill="yellow"/>
  <circle cx="98.8165" cy="144.502" r="6.20796" stroke-width="0.5" stroke="yellow" fill="yellow"/>
   </g>
   <g id="cell20">
  <circle cx="235.256" cy="172.059" r="1.90176" stroke-width="0.5" stroke="black" fill="grey"/>
  <circle cx="235.256" cy="172.059" r="1.87484" stroke-width="0.5" stroke="black" fill="black"/>
   </g>
   <g id="cell99">
  <circle cx="515.481" cy="975.907" r="10.537" stroke-width="0.5" stroke="black" fill="yellow"/>
  <circle cx="515.481" cy="975.907" r="6.34103" stroke-width="0.5" stroke="yellow" fill="yellow"/>
   </g>
   <g id="cell115">
  <circle cx="193.641" cy="18.129" r="8.39523" stroke-width="0.5" stroke="black" fill="yellow"/>
  <circle cx="193.641" cy="18.129" r="5.04581" stroke-width="0.5" stroke="yellow" fill="yellow"/>
   </g>
   <g id="cell108">
  <circle cx="708.096" cy="37.302" r="2.53865" stroke-width="0.5" stroke="black" fill="yellow"/>
  <circle cx="708.096" cy="37.302" r="2.40282" stroke-width="0.5" stroke="black" fill="black"/>
   </g>
   <g id="cell153">
  <circle cx="186.98" cy="401.939" r="8.46419" stroke-width="0.5" stroke="black" fill="red"/>
  <circle cx="186.98" cy="401.939" r="5.09681" stroke-width="0.5" stroke="red" fill="red"/>
   </g>
   <g id="cell105">
  <circle cx="80.0022" cy="433.346" r="10.0806" stroke-width="0.5" stroke="black" fill="yellow"/>
  <circle cx="80.0022" cy="433.346" r="6.10985" stroke-width="0.5" stroke="yellow" fill="yellow"/>
   </g>
   <g id="cell26">
  <circle cx="659.866" cy="449.746" r="8.60199" stroke-width="0.5" stroke="black" fill="grey"/>
  <circle cx="659.866" cy="449.746" r="5.19653" stroke-width="0.5" stroke="grey" fill="grey"/>
   </g>
   <g id="cell117">
  <circle cx="877.757" cy="399.015" r="10.4984" stroke-width="0.5" stroke="black" fill="yellow"/>
  <circle cx="877.757" cy="399.015" r="6.32406" stroke-width="0.5" stroke="yellow" fill="yellow"/>
   </g>
   <g id="cell28">
  <circle cx="649.431" cy="144.573" r="8.39752" stroke-width="0.5" stroke="black" fill="grey"/>
  <circle cx="649.431" cy="144.573" r="5.04666" stroke-width="0.5" stroke="grey" fill="grey"/>
   </g>
   <g id="cell29">
  <circle cx="949.023" cy="677.131" r="8.40056" stroke-width="0.5" stroke="black" fill="grey"/>
  <circle cx="949.023" cy="677.131" r="5.04776" stroke-width="0.5" stroke="grey" fill="grey"/>
   </g>
   <g id="cell30">
  <circle cx="751.425" cy="128.314" r="10.483" stroke-width="0.5" stroke="black" fill="grey"/>
  <circle cx="751.425" cy="128.314" r="6.31703" stroke-width="0.5" stroke="grey" fill="grey"/>
   </g>
   <g id="cell31">
  <circle cx="415.138" cy="106.68" r="2.69286" stroke-width="0.5" stroke="black" fill="grey"/>
  <circle cx="415.138" cy="106.68" r="2.50987" stroke-width="0.5" stroke="black" fill="black"/>
   </g>
   <g id="cell114">
  <circle cx="40.206" cy="329.075" r="10.5573" stroke-width="0.5" stroke="black" fill="yellow"/>
  <circle cx="40.206" cy="329.075" r="6.3495" stroke-width="0.5" stroke="yellow" fill="yellow"/>
   </g>
   <g id="cell107">
  <circle cx="371.249" cy="417.645" r="10.2328" stroke-width="0.5" stroke="black" fill="yellow"/>
  <circle cx="371.249" cy="417.645" r="6.19197" stroke-width="0.5" stroke="yellow" fill="yellow"/>
   </g>
   <g id="cell106">
  <circle cx="51.2833" cy="954.106" r="8.83489" stroke-width="0.5" stroke="black" fill="yellow"/>
  <circle cx="51.2833" cy="954.106" r="5.35828" stroke-width="0.5" stroke="yellow" fill="yellow"/>
   </g>
   <g id="cell35">
  <circle cx="922.923" cy="84.0702" r="9.90658" stroke-width="0.5" stroke="black" fill="grey"/>
  <circle cx="922.923" cy="84.0702" r="6.01243" stroke-width="0.5" stroke="grey" fill="grey"/>
   </g>
   <g id="cell109">
  <circle cx="364.635" cy="957.288" r="10.5618" stroke-width="0.5" stroke="black" fill="yellow"/>
  <circle cx="364.635" cy="957.288" r="6.3513" stroke-width="0.5" stroke="yellow" fill="yellow"/>
   </g>
   <g id="cell111">
  <circle cx="774.158" cy="352.822" r="10.4894" stroke-width="0.5" stroke="black" fill="yellow"/>
  <circle cx="774.158" cy="352.822" r="6.31998" stroke-width="0.5" stroke="yellow" fill="yellow"/>
   </g>
   <g id="cell131">
  <circle cx="631.579" cy="585.004" r="8.40022" stroke-width="0.5" stroke="black" fill="grey"/>
  <circle cx="631.579" cy="585.004" r="5.04764" stroke-width="0.5" stroke="grey" fill="grey"/>
   </g>
   <g id="cell110">
  <circle cx="870.578" cy="278.699" r="10.1758" stroke-width="0.5" stroke="black" fill="yellow"/>
  <circle cx="870.578" cy="278.699" r="6.16159" stroke-width="0.5" stroke="yellow" fill="yellow"/>
   </g>
   <g id="cell40">
  <circle cx="154.824" cy="398.808" r="8.3937" stroke-width="0.5" stroke="black" fill="red"/>
  <circle cx="154.824" cy="398.808" r="5.04523" stroke-width="0.5" stroke="red" fill="red"/>
   </g>
   <g id="cell41">
  <circle cx="694.232" cy="714.325" r="8.4178" stroke-width="0.5" stroke="black" fill="red"/>
  <circle cx="694.232" cy="714.325" r="5.06069" stroke-width="0.5" stroke="red" fill="red"/>
   </g>
   <g id="cell42">
  <circle cx="151.346" cy="725.696" r="8.39794" stroke-width="0.5" stroke="black" fill="red"/>
  <circle cx="151.346" cy="725.696" r="5.04681" stroke-width="0.5" stroke="red" fill="red"/>
   </g>
   <g id="cell43">
  <circle cx="903.922" cy="411.385" r="10.5596" stroke-width="0.5" stroke="black" fill="red"/>
  <circle cx="903.922" cy="411.385" r="6.35043" stroke-width="0.5" stroke="red" fill="red"/>
   </g>
   <g id="cell44">
  <circle cx="839.102" cy="45.0483" r="8.39316" stroke-width="0.5" stroke="black" fill="red"/>
  <circle cx="839.102" cy="45.0483" r="5.04503" stroke-width="0.5" stroke="red" fill="red"/>
   </g>
   <g id="cell45">
  <circle cx="639.218" cy="838.207" r="10.537" stroke-width="0.5" stroke="black" fill="red"/>
  <circle cx="639.218" cy="838.207" r="6.34103" stroke-width="0.5" stroke="red" fill="red"/>
   </g>
   <g id="cell46">
  <circle cx="51.9967" cy="927.052" r="8.39987" stroke-width="0.5" stroke="black" fill="red"/>
  <circle cx="51.9967" cy="927.052" r="5.04751" stroke-width="0.5" stroke="red" fill="red"/>
   </g>
   <g id="cell47">
  <circle cx="896.108" cy="415.915" r="8.39571" stroke-width="0.5" stroke="black" fill="red"/>
  <circle cx="896.108" cy="415.915" r="5.04599" stroke-width="0.5" stroke="red" fill="red"/>
   </g>
   <g id="cell48">
  <circle cx="922.389" cy="36.2449" r="9.11513" stroke-width="0.5" stroke="black" fill="red"/>
  <circle cx="922.389" cy="36.2449" r="5.53948" stroke-width="0.5" stroke="red" fill="red"/>
   </g>
   <g id="cell49">
  <circle cx="475.338" cy="776.148" r="10.5607" stroke-width="0.5" stroke="black" fill="red"/>
  <circle cx="475.338" cy="776.148" r="6.35087" stroke-width="0.5" stroke="red" fill="red"/>
   </g>
   <g id="cell50">
  <circle cx="21.7618" cy="466.008" r="8.403" stroke-width="0.5" stroke="black" fill="red"/>
  <circle cx="21.7618" cy="466.008" r="5.04863" stroke-width="0.5" stroke="red" fill="red"/>
   </g>
   <g id="cell51">
  <circle cx="938.789" cy="142.622" r="8.71791" stroke-width="0.5" stroke="black" fill="red"/>
  <circle cx="938.789" cy="142.622" r="5.27787" stroke-width="0.5" stroke="red" fill="red"/>
   </g>
   <g id="cell96">
  <circle cx="803.227" cy="540.107" r="10.5639" stroke-width="0.5" stroke="black" fill="yellow"/>
  <circle cx="803.227" cy="540.107" r="6.35212" stroke-width="0.5" stroke="yellow" fill="yellow"/>
   </g>
   <g id="cell53">
  <circle cx="683.314" cy="320.405" r="9.18941" stroke-width="0.5" stroke="black" fill="red"/>
  <circle cx="683.314" cy="320.405" r="5.5865" stroke-width="0.5" stroke="red" fill="red"/>
   </g>
   <g id="cell54">
  <circle cx="438.015" cy="938.55" r="8.38682" stroke-width="0.5" stroke="black" fill="red"/>
  <circle cx="438.015" cy="938.55" r="5.04258" stroke-width="0.5" stroke="red" fill="red"/>
   </g>
   <g id="cell55">
  <circle cx="215.455" cy="700.277" r="10.3933" stroke-width="0.5" stroke="black" fill="red"/>
  <circle cx="215.455" cy="700.277" r="6.27417" stroke-width="0.5" stroke="red" fill="red"/>
   </g>
   <g id="cell56">
  <circle cx="564.047" cy="831.023" r="8.4141" stroke-width="0.5" stroke="black" fill="red"/>
  <circle cx="564.047" cy="831.023" r="5.05932" stroke-width="0.5" stroke="red" fill="red"/>
   </g>
   <g id="cell57">
  <circle cx="487.771" cy="554.995" r="8.52939" stroke-width="0.5" stroke="black" fill="red"/>
  <circle cx="487.771" cy="554.995" r="5.14438" stroke-width="0.5" stroke="red" fill="red"/>
   </g>
   <g id="cell58">
  <circle cx="33.9467" cy="913.974" r="8.38753" stroke-width="0.5" stroke="black" fill="red"/>
  <circle cx="33.9467" cy="913.974" r="5.04286" stroke-width="0.5" stroke="red" fill="red"/>
   </g>
   <g id="cell59">
  <circle cx="85.2619" cy="973.542" r="10.5618" stroke-width="0.5" stroke="black" fill="red"/>
  <circle cx="85.2619" cy="973.542" r="6.3513" stroke-width="0.5" stroke="red" fill="red"/>
   </g>
   <g id="cell60">
  <circle cx="257.241" cy="55.8799" r="10.5536" stroke-width="0.5" stroke="black" fill="red"/>
  <circle cx="257.241" cy="55.8799" r="6.34799" stroke-width="0.5" stroke="red" fill="red"/>
   </g>
   <g id="cell61">
  <circle cx="845.687" cy="121.369" r="8.38753" stroke-width="0.5" stroke="black" fill="red"/>
  <circle cx="845.687" cy="121.369" r="5.04286" stroke-width="0.5" stroke="red" fill="red"/>
   </g>
   <g id="cell62">
  <circle cx="722.878" cy="824.701" r="8.41271" stroke-width="0.5" stroke="black" fill="red"/>
  <circle cx="722.878" cy="824.701" r="5.05167" stroke-width="0.5" stroke="red" fill="red"/>
   </g>
   <g id="cell63">
  <circle cx="336.846" cy="167.555" r="8.39618" stroke-width="0.5" stroke="black" fill="red"/>
  <circle cx="336.846" cy="167.555" r="5.04616" stroke-width="0.5" stroke="red" fill="red"/>
   </g>
   <g id="cell64">
  <circle cx="585.841" cy="536.774" r="8.80772" stroke-width="0.5" stroke="black" fill="red"/>
  <circle cx="585.841" cy="536.774" r="5.33574" stroke-width="0.5" stroke="red" fill="red"/>
   </g>
   <g id="cell65">
  <circle cx="190.302" cy="844.985" r="2.33882" stroke-width="0.5" stroke="black" fill="red"/>
  <circle cx="190.302" cy="844.985" r="2.24401" stroke-width="0.5" stroke="black" fill="black"/>
   </g>
   <g id="cell66">
  <circle cx="42.5311" cy="178.82" r="10.5436" stroke-width="0.5" stroke="black" fill="red"/>
  <circle cx="42.5311" cy="178.82" r="6.34385" stroke-width="0.5" stroke="red" fill="red"/>
   </g>
   <g id="cell67">
  <circle cx="511.347" cy="250.698" r="10.537" stroke-width="0.5" stroke="black" fill="red"/>
  <circle cx="511.347" cy="250.698" r="6.34103" stroke-width="0.5" stroke="red" fill="red"/>
   </g>
   <g id="cell68">
  <circle cx="759.168" cy="249.956" r="8.39874" stroke-width="0.5" stroke="black" fill="red"/>
  <circle cx="759.168" cy="249.956" r="5.04711" stroke-width="0.5" stroke="red" fill="red"/>
   </g>
   <g id="cell69">
  <circle cx="441.748" cy="297.17" r="10.5536" stroke-width="0.5" stroke="black" fill="red"/>
  <circle cx="441.748" cy="297.17" r="6.34799" stroke-width="0.5" stroke="red" fill="red"/>
   </g>
   <g id="cell70">
  <circle cx="536.612" cy="357.103" r="10.5618" stroke-width="0.5" stroke="black" fill="red"/>
  <circle cx="536.612" cy="357.103" r="6.3513" stroke-width="0.5" stroke="red" fill="red"/>
   </g>
   <g id="cell71">
  <circle cx="869.627" cy="549.802" r="9.19055" stroke-width="0.5" stroke="black" fill="red"/>
  <circle cx="869.627" cy="549.802" r="5.58693" stroke-width="0.5" stroke="red" fill="red"/>
   </g>
   <g id="cell72">
  <circle cx="190.542" cy="862.687" r="8.52712" stroke-width="0.5" stroke="black" fill="red"/>
  <circle cx="190.542" cy="862.687" r="5.14352" stroke-width="0.5" stroke="red" fill="red"/>
   </g>
   <g id="cell73">
  <circle cx="634.447" cy="437.248" r="8.39913" stroke-width="0.5" stroke="black" fill="red"/>
  <circle cx="634.447" cy="437.248" r="5.04725" stroke-width="0.5" stroke="red" fill="red"/>
   </g>
   <g id="cell74">
  <circle cx="853.996" cy="974.745" r="8.38682" stroke-width="0.5" stroke="black" fill="red"/>
  <circle cx="853.996" cy="974.745" r="5.04258" stroke-width="0.5" stroke="red" fill="red"/>
   </g>
   <g id="cell75">
  <circle cx="89.105" cy="330.268" r="8.46876" stroke-width="0.5" stroke="black" fill="red"/>
  <circle cx="89.105" cy="330.268" r="5.09852" stroke-width="0.5" stroke="red" fill="red"/>
   </g>
   <g id="cell76">
  <circle cx="786.824" cy="404.868" r="8.38532" stroke-width="0.5" stroke="black" fill="red"/>
  <circle cx="786.824" cy="404.868" r="5.04199" stroke-width="0.5" stroke="red" fill="red"/>
   </g>
   <g id="cell77">
  <circle cx="634.762" cy="847.558" r="8.3926" stroke-width="0.5" stroke="black" fill="red"/>
  <circle cx="634.762" cy="847.558" r="5.04482" stroke-width="0.5" stroke="red" fill="red"/>
   </g>
   <g id="cell78">
  <circle cx="602.06" cy="264.88" r="8.38891" stroke-width="0.5" stroke="black" fill="red"/>
  <circle cx="602.06" cy="264.88" r="5.0434" stroke-width="0.5" stroke="red" fill="red"/>
   </g>
   <g id="cell79">
  <circle cx="968.251" cy="687.416" r="10.5387" stroke-width="0.5" stroke="black" fill="red"/>
  <circle cx="968.251" cy="687.416" r="6.34177" stroke-width="0.5" stroke="red" fill="red"/>
   </g>
   <g id="cell80">
  <circle cx="745.965" cy="694.327" r="10.1374" stroke-width="0.5" stroke="black" fill="yellow"/>
  <circle cx="745.965" cy="694.327" r="6.14084" stroke-width="0.5" stroke="yellow" fill="yellow"/>
   </g>
   <g id="cell81">
  <circle cx="490.037" cy="991.358" r="8.41271" stroke-width="0.5" stroke="black" fill="yellow"/>
  <circle cx="490.037" cy="991.358" r="5.05167" stroke-width="0.5" stroke="yellow" fill="yellow"/>
   </g>
   <g id="cell82">
  <circle cx="669.249" cy="427.812" r="8.91321" stroke-width="0.5" stroke="black" fill="yellow"/>
  <circle cx="669.249" cy="427.812" r="5.41077" stroke-width="0.5" stroke="yellow" fill="yellow"/>
   </g>
   <g id="cell83">
  <circle cx="604.219" cy="595.09" r="8.39203" stroke-width="0.5" stroke="black" fill="yellow"/>
  <circle cx="604.219" cy="595.09" r="5.0446" stroke-width="0.5" stroke="yellow" fill="yellow"/>
   </g>
   <g id="cell84">
  <circle cx="16.3494" cy="508.774" r="10.5436" stroke-width="0.5" stroke="black" fill="yellow"/>
  <circle cx="16.3494" cy="508.774" r="6.34385" stroke-width="0.5" stroke="yellow" fill="yellow"/>
   </g>
   <g id="cell85">
  <circle cx="748.491" cy="633.833" r="9.03571" stroke-width="0.5" stroke="black" fill="yellow"/>
  <circle cx="748.491" cy="633.833" r="5.48937" stroke-width="0.5" stroke="yellow" fill="yellow"/>
   </g>
   <g id="cell86">
  <circle cx="309.679" cy="457.777" r="10.5039" stroke-width="0.5" stroke="black" fill="yellow"/>
  <circle cx="309.679" cy="457.777" r="6.32657" stroke-width="0.5" stroke="yellow" fill="yellow"/>
   </g>
   <g id="cell87">
  <circle cx="754.027" cy="417.812" r="8.40244" stroke-width="0.5" stroke="black" fill="yellow"/>
  <circle cx="754.027" cy="417.812" r="5.04843" stroke-width="0.5" stroke="yellow" fill="yellow"/>
   </g>
   <g id="cell88">
  <circle cx="154.365" cy="113.854" r="8.39021" stroke-width="0.5" stroke="black" fill="yellow"/>
  <circle cx="154.365" cy="113.854" r="5.0439" stroke-width="0.5" stroke="yellow" fill="yellow"/>
   </g>
   <g id="cell89">
  <circle cx="65.2533" cy="536.202" r="10.5211" stroke-width="0.5" stroke="black" fill="yellow"/>
  <circle cx="65.2533" cy="536.202" r="6.33419" stroke-width="0.5" stroke="yellow" fill="yellow"/>
   </g>
   <g id="cell119">
  <circle cx="575.009" cy="35.5235" r="5.29478" stroke-width="0.5" stroke="black" fill="yellow"/>
  <circle cx="575.009" cy="35.5235" r="3.75371" stroke-width="0.5" stroke="black" fill="black"/>
   </g>
   <g id="cell91">
  <circle cx="44.8478" cy="643.306" r="10.542" stroke-width="0.5" stroke="black" fill="yellow"/>
  <circle cx="44.8478" cy="643.306" r="6.34318" stroke-width="0.5" stroke="yellow" fill="yellow"/>
   </g>
   <g id="cell92">
  <circle cx="632.771" cy="305.879" r="8.38891" stroke-width="0.5" stroke="black" fill="yellow"/>
  <circle cx="632.771" cy="305.879" r="5.0434" stroke-width="0.5" stroke="yellow" fill="yellow"/>
   </g>
   <g id="cell93">
  <circle cx="246.267" cy="884.7" r="8.40244" stroke-width="0.5" stroke="black" fill="yellow"/>
  <circle cx="246.267" cy="884.7" r="5.04843" stroke-width="0.5" stroke="yellow" fill="yellow"/>
   </g>
   <g id="cell94">
  <circle cx="364.639" cy="99.2127" r="10.5573" stroke-width="0.5" stroke="black" fill="yellow"/>
  <circle cx="364.639" cy="99.2127" r="6.3495" stroke-width="0.5" stroke="yellow" fill="yellow"/>
   </g>
   <g id="cell95">
  <circle cx="963.309" cy="908.087" r="10.5628" stroke-width="0.5" stroke="black" fill="yellow"/>
  <circle cx="963.309" cy="908.087" r="6.35171" stroke-width="0.5" stroke="yellow" fill="yellow"/>
   </g>
   <g id="cell121">
  <circle cx="8.03157" cy="497.367" r="8.403" stroke-width="0.5" stroke="black" fill="red"/>
  <circle cx="8.03157" cy="497.367" r="5.04863" stroke-width="0.5" stroke="red" fill="red"/>
   </g>
   <g id="cell122">
  <circle cx="747.555" cy="434.479" r="8.91918" stroke-width="0.5" stroke="black" fill="yellow"/>
  <circle cx="747.555" cy="434.479" r="5.41303" stroke-width="0.5" stroke="yellow" fill="yellow"/>
   </g>
   <g id="cell123">
  <circle cx="256.037" cy="878.298" r="8.40244" stroke-width="0.5" stroke="black" fill="yellow"/>
  <circle cx="256.037" cy="878.298" r="5.04843" stroke-width="0.5" stroke="yellow" fill="yellow"/>
   </g>
   <g id="cell124">
  <circle cx="512.568" cy="642.404" r="8.40244" stroke-width="0.5" stroke="black" fill="grey"/>
  <circle cx="512.568" cy="642.404" r="5.04843" stroke-width="0.5" stroke="grey" fill="grey"/>
   </g>
   <g id="cell125">
  <circle cx="799.338" cy="394.292" r="9.19107" stroke-width="0.5" stroke="black" fill="yellow"/>
  <circle cx="799.338" cy="394.292" r="5.58713" stroke-width="0.5" stroke="yellow" fill="yellow"/>
   </g>
   <g id="cell126">
  <circle cx="986.946" cy="150.814" r="8.40154" stroke-width="0.5" stroke="black" fill="red"/>
  <circle cx="986.946" cy="150.814" r="5.04811" stroke-width="0.5" stroke="red" fill="red"/>
   </g>
   <g id="cell127">
  <circle cx="880.907" cy="529.789" r="9.03753" stroke-width="0.5" stroke="black" fill="red"/>
  <circle cx="880.907" cy="529.789" r="5.49005" stroke-width="0.5" stroke="red" fill="red"/>
   </g>
   <g id="cell128">
  <circle cx="942.535" cy="63.7063" r="8.40123" stroke-width="0.5" stroke="black" fill="red"/>
  <circle cx="942.535" cy="63.7063" r="5.048" stroke-width="0.5" stroke="red" fill="red"/>
   </g>
   <g id="cell129">
  <circle cx="951.951" cy="666.216" r="8.8369" stroke-width="0.5" stroke="black" fill="grey"/>
  <circle cx="951.951" cy="666.216" r="5.35904" stroke-width="0.5" stroke="grey" fill="grey"/>
   </g>
   <g id="cell130">
  <circle cx="908.922" cy="595.351" r="8.40022" stroke-width="0.5" stroke="black" fill="yellow"/>
  <circle cx="908.922" cy="595.351" r="5.04764" stroke-width="0.5" stroke="yellow" fill="yellow"/>
   </g>
   <g id="cell132">
  <circle cx="72.8147" cy="913.744" r="8.39987" stroke-width="0.5" stroke="black" fill="red"/>
  <circle cx="72.8147" cy="913.744" r="5.04751" stroke-width="0.5" stroke="red" fill="red"/>
   </g>
   <g id="cell133">
  <circle cx="683.396" cy="354.06" r="8.39987" stroke-width="0.5" stroke="black" fill="red"/>
  <circle cx="683.396" cy="354.06" r="5.04751" stroke-width="0.5" stroke="red" fill="red"/>
   </g>
   <g id="cell134">
  <circle cx="634.304" cy="445.258" r="8.39987" stroke-width="0.5" stroke="black" fill="grey"/>
  <circle cx="634.304" cy="445.258" r="5.04751" stroke-width="0.5" stroke="grey" fill="grey"/>
   </g>
   <g id="cell136">
  <circle cx="642.567" cy="412.245" r="8.39913" stroke-width="0.5" stroke="black" fill="red"/>
  <circle cx="642.567" cy="412.245" r="5.04725" stroke-width="0.5" stroke="red" fill="red"/>
   </g>
   <g id="cell137">
  <circle cx="769.808" cy="682.506" r="8.39913" stroke-width="0.5" stroke="black" fill="yellow"/>
  <circle cx="769.808" cy="682.506" r="5.04725" stroke-width="0.5" stroke="yellow" fill="yellow"/>
   </g>
   <g id="cell138">
  <circle cx="760.082" cy="234.658" r="9.11302" stroke-width="0.5" stroke="black" fill="red"/>
  <circle cx="760.082" cy="234.658" r="5.53868" stroke-width="0.5" stroke="red" fill="red"/>
   </g>
   <g id="cell139">
  <circle cx="782.467" cy="732.88" r="8.39874" stroke-width="0.5" stroke="black" fill="yellow"/>
  <circle cx="782.467" cy="732.88" r="5.04711" stroke-width="0.5" stroke="yellow" fill="yellow"/>
   </g>
   <g id="cell140">
  <circle cx="99.0247" cy="339.481" r="9.03504" stroke-width="0.5" stroke="black" fill="red"/>
  <circle cx="99.0247" cy="339.481" r="5.48911" stroke-width="0.5" stroke="red" fill="red"/>
   </g>
   <g id="cell141">
  <circle cx="22.7914" cy="981.377" r="8.91555" stroke-width="0.5" stroke="black" fill="yellow"/>
  <circle cx="22.7914" cy="981.377" r="5.41167" stroke-width="0.5" stroke="yellow" fill="yellow"/>
   </g>
   <g id="cell142">
  <circle cx="694.522" cy="659.997" r="8.39794" stroke-width="0.5" stroke="black" fill="red"/>
  <circle cx="694.522" cy="659.997" r="5.04681" stroke-width="0.5" stroke="red" fill="red"/>
   </g>
   <g id="cell143">
  <circle cx="134.494" cy="725.411" r="8.39794" stroke-width="0.5" stroke="black" fill="red"/>
  <circle cx="134.494" cy="725.411" r="5.04681" stroke-width="0.5" stroke="red" fill="red"/>
   </g>
   <g id="cell144">
  <circle cx="644.228" cy="174.235" r="8.46795" stroke-width="0.5" stroke="black" fill="grey"/>
  <circle cx="644.228" cy="174.235" r="5.09822" stroke-width="0.5" stroke="grey" fill="grey"/>
   </g>
   <g id="cell145">
  <circle cx="503.95" cy="550.012" r="8.39708" stroke-width="0.5" stroke="black" fill="red"/>
  <circle cx="503.95" cy="550.012" r="5.0465" stroke-width="0.5" stroke="red" fill="red"/>
   </g>
   <g id="cell146">
  <circle cx="324.765" cy="194.123" r="8.39618" stroke-width="0.5" stroke="black" fill="red"/>
  <circle cx="324.765" cy="194.123" r="5.04616" stroke-width="0.5" stroke="red" fill="red"/>
   </g>
   <g id="cell147">
  <circle cx="662.309" cy="420.121" r="8.39571" stroke-width="0.5" stroke="black" fill="yellow"/>
  <circle cx="662.309" cy="420.121" r="5.04599" stroke-width="0.5" stroke="yellow" fill="yellow"/>
   </g>
   <g id="cell148">
  <circle cx="155.137" cy="749.863" r="8.95336" stroke-width="0.5" stroke="black" fill="grey"/>
  <circle cx="155.137" cy="749.863" r="5.43699" stroke-width="0.5" stroke="grey" fill="grey"/>
   </g>
   <g id="cell149">
  <circle cx="889.618" cy="432.436" r="8.7125" stroke-width="0.5" stroke="black" fill="red"/>
  <circle cx="889.618" cy="432.436" r="5.27584" stroke-width="0.5" stroke="red" fill="red"/>
   </g>
   <g id="cell150">
  <circle cx="189.806" cy="21.4057" r="8.39523" stroke-width="0.5" stroke="black" fill="yellow"/>
  <circle cx="189.806" cy="21.4057" r="5.04581" stroke-width="0.5" stroke="yellow" fill="yellow"/>
   </g>
   <g id="cell151">
  <circle cx="222.012" cy="888.585" r="8.39473" stroke-width="0.5" stroke="black" fill="red"/>
  <circle cx="222.012" cy="888.585" r="5.04562" stroke-width="0.5" stroke="red" fill="red"/>
   </g>
   <g id="cell152">
  <circle cx="562.243" cy="831.175" r="8.52662" stroke-width="0.5" stroke="black" fill="red"/>
  <circle cx="562.243" cy="831.175" r="5.14333" stroke-width="0.5" stroke="red" fill="red"/>
   </g>
   <g id="cell154">
  <circle cx="847.552" cy="37.7883" r="8.39316" stroke-width="0.5" stroke="black" fill="red"/>
  <circle cx="847.552" cy="37.7883" r="5.04503" stroke-width="0.5" stroke="red" fill="red"/>
   </g>
   <g id="cell155">
  <circle cx="647.901" cy="856.398" r="8.41249" stroke-width="0.5" stroke="black" fill="red"/>
  <circle cx="647.901" cy="856.398" r="5.05871" stroke-width="0.5" stroke="red" fill="red"/>
   </g>
   <g id="cell156">
  <circle cx="903.935" cy="523.319" r="8.3926" stroke-width="0.5" stroke="black" fill="grey"/>
  <circle cx="903.935" cy="523.319" r="5.04482" stroke-width="0.5" stroke="grey" fill="grey"/>
   </g>
   <g id="cell157">
  <circle cx="583.94" cy="607.137" r="8.39203" stroke-width="0.5" stroke="black" fill="yellow"/>
  <circle cx="583.94" cy="607.137" r="5.0446" stroke-width="0.5" stroke="yellow" fill="yellow"/>
   </g>
   <g id="cell158">
  <circle cx="153.177" cy="130.029" r="8.39021" stroke-width="0.5" stroke="black" fill="yellow"/>
  <circle cx="153.177" cy="130.029" r="5.0439" stroke-width="0.5" stroke="yellow" fill="yellow"/>
   </g>
   <g id="cell159">
  <circle cx="649.146" cy="281.605" r="8.38891" stroke-width="0.5" stroke="black" fill="yellow"/>
  <circle cx="649.146" cy="281.605" r="5.0434" stroke-width="0.5" stroke="yellow" fill="yellow"/>
   </g>
   <g id="cell160">
  <circle cx="607.192" cy="252.472" r="8.38891" stroke-width="0.5" stroke="black" fill="red"/>
  <circle cx="607.192" cy="252.472" r="5.0434" stroke-width="0.5" stroke="red" fill="red"/>
   </g>
   <g id="cell161">
  <circle cx="33.6153" cy="923.727" r="8.38753" stroke-width="0.5" stroke="black" fill="red"/>
  <circle cx="33.6153" cy="923.727" r="5.04286" stroke-width="0.5" stroke="red" fill="red"/>
   </g>
   <g id="cell162">
  <circle cx="834.535" cy="132.01" r="8.40744" stroke-width="0.5" stroke="black" fill="red"/>
  <circle cx="834.535" cy="132.01" r="5.05676" stroke-width="0.5" stroke="red" fill="red"/>
   </g>
   <g id="cell163">
  <circle cx="435.804" cy="955.5" r="8.38682" stroke-width="0.5" stroke="black" fill="red"/>
  <circle cx="435.804" cy="955.5" r="5.04258" stroke-width="0.5" stroke="red" fill="red"/>
   </g>
   <g id="cell164">
  <circle cx="853.561" cy="969.598" r="8.38682" stroke-width="0.5" stroke="black" fill="red"/>
  <circle cx="853.561" cy="969.598" r="5.04258" stroke-width="0.5" stroke="red" fill="red"/>
   </g>
   <g id="cell165">
  <circle cx="807.028" cy="397.601" r="8.38532" stroke-width="0.5" stroke="black" fill="red"/>
  <circle cx="807.028" cy="397.601" r="5.04199" stroke-width="0.5" stroke="red" fill="red"/>
   </g>
  </g>
 </g>
  <rect x="775" y="1035" width="200" height="10" stroke-width="2" stroke="rgb(255,255,255)" fill="rgb(0,0,0)"/>
  <text x="781.25" y="1028.75"
   font-family="Arial" font-size="25" fill="black" >
   200 &#956;m
  </text>
  <text x="25" y="1045"
   font-family="Arial" font-size="18.75" fill="black" >
   0 days, 0 hours, 1 minutes, and 21.4323 seconds
  </text>
  <rect x="0" y="70" width="1000" height="1000" stroke-width="2" stroke="rgb(0,0,0)" fill="none"/>
</svg>
