<?xml version="1.0" encoding="UTF-8" standalone="no"?>
<!-- Created with PhysiCell (http://PhysiCell.MathCancer.org/) -->
<svg 
 xmlns:dc="http://purl.org/dc/elements/1.1/" 
 xmlns:cc="http://creativecommons.org/ns#" 
 xmlns:rdf="http://www.w3.org/1999/02/22-rdf-syntax-ns#" 
 xmlns:svg="http://www.w3.org/2000/svg" 
 xmlns="http://www.w3.org/2000/svg" 
 version="1.1" 
 width="1000" 
 height="1070" 
 id="svg2">
  <rect x="0" y="0" width="1000" height="1070" stroke-width="2" stroke="white" fill="white"/>
  <text x="12.5" y="30"
   font-family="Arial" font-size="25" fill="black" >
   Current time: 0 days, 6 hours, and 0.00 minutes, z = 0.00 &#956;m
  </text>
  <text x="12.5" y="57.5"
   font-family="Arial" font-size="23.75" fill="black" >
   120 agents
  </text>
 <g id="tissue" 
    transform="translate(0,1070) scale(1,-1)">
  <g id="ECM">
  </g>
  <g id="cells">
   <g id="cell0">
  <circle cx="518.492" cy="588.127" r="10.0806" stroke-width="0.5" stroke="black" fill="grey"/>
  <circle cx="518.492" cy="588.127" r="6.10985" stroke-width="0.5" stroke="grey" fill="grey"/>
   </g>
   <g id="cell1">
  <circle cx="839.837" cy="610.74" r="1.74522" stroke-width="0.5" stroke="black" fill="grey"/>
  <circle cx="839.837" cy="610.74" r="1.69589" stroke-width="0.5" stroke="black" fill="black"/>
   </g>
   <g id="cell2">
  <circle cx="550.341" cy="824.071" r="4.8805" stroke-width="0.5" stroke="black" fill="grey"/>
  <circle cx="550.341" cy="824.071" r="3.53516" stroke-width="0.5" stroke="black" fill="black"/>
   </g>
   <g id="cell3">
  <circle cx="618.529" cy="626.018" r="9.96412" stroke-width="0.5" stroke="black" fill="grey"/>
  <circle cx="618.529" cy="626.018" r="6.04499" stroke-width="0.5" stroke="grey" fill="grey"/>
   </g>
   <g id="cell4">
  <circle cx="415.352" cy="304.555" r="3.66624" stroke-width="0.5" stroke="black" fill="grey"/>
  <circle cx="415.352" cy="304.555" r="2.75003" stroke-width="0.5" stroke="black" fill="black"/>
   </g>
   <g id="cell5">
  <circle cx="88.3574" cy="960.775" r="10.0336" stroke-width="0.5" stroke="black" fill="grey"/>
  <circle cx="88.3574" cy="960.775" r="6.08382" stroke-width="0.5" stroke="grey" fill="grey"/>
   </g>
   <g id="cell6">
  <circle cx="400.707" cy="482.713" r="10.1098" stroke-width="0.5" stroke="black" fill="grey"/>
  <circle cx="400.707" cy="482.713" r="6.12585" stroke-width="0.5" stroke="grey" fill="grey"/>
   </g>
   <g id="cell7">
  <circle cx="814.004" cy="540.516" r="9.5651" stroke-width="0.5" stroke="black" fill="grey"/>
  <circle cx="814.004" cy="540.516" r="5.81327" stroke-width="0.5" stroke="grey" fill="grey"/>
   </g>
   <g id="cell8">
  <circle cx="585.539" cy="417.204" r="9.2729" stroke-width="0.5" stroke="black" fill="grey"/>
  <circle cx="585.539" cy="417.204" r="5.63555" stroke-width="0.5" stroke="grey" fill="grey"/>
   </g>
   <g id="cell9">
  <circle cx="847.148" cy="85.0327" r="2.08246" stroke-width="0.5" stroke="black" fill="grey"/>
  <circle cx="847.148" cy="85.0327" r="1.95565" stroke-width="0.5" stroke="black" fill="black"/>
   </g>
   <g id="cell10">
  <circle cx="108.881" cy="641.83" r="9.75192" stroke-width="0.5" stroke="black" fill="grey"/>
  <circle cx="108.881" cy="641.83" r="5.92342" stroke-width="0.5" stroke="grey" fill="grey"/>
   </g>
   <g id="cell11">
  <circle cx="355.749" cy="834.66" r="8.68937" stroke-width="0.5" stroke="black" fill="grey"/>
  <circle cx="355.749" cy="834.66" r="5.25417" stroke-width="0.5" stroke="grey" fill="grey"/>
   </g>
   <g id="cell12">
  <circle cx="782.392" cy="134.503" r="3.45715" stroke-width="0.5" stroke="black" fill="grey"/>
  <circle cx="782.392" cy="134.503" r="2.66266" stroke-width="0.5" stroke="black" fill="black"/>
   </g>
   <g id="cell13">
  <circle cx="880.851" cy="956.12" r="3.96976" stroke-width="0.5" stroke="black" fill="grey"/>
  <circle cx="880.851" cy="956.12" r="2.95231" stroke-width="0.5" stroke="black" fill="black"/>
   </g>
   <g id="cell14">
  <circle cx="838.103" cy="829.667" r="7.51379" stroke-width="0.5" stroke="black" fill="grey"/>
  <circle cx="838.103" cy="829.667" r="4.72095" stroke-width="0.5" stroke="black" fill="black"/>
   </g>
   <g id="cell15">
  <circle cx="525.275" cy="767.583" r="8.06786" stroke-width="0.5" stroke="black" fill="grey"/>
  <circle cx="525.275" cy="767.583" r="4.98971" stroke-width="0.5" stroke="black" fill="black"/>
   </g>
   <g id="cell16">
  <circle cx="144.839" cy="730.394" r="9.7273" stroke-width="0.5" stroke="black" fill="grey"/>
  <circle cx="144.839" cy="730.394" r="5.90906" stroke-width="0.5" stroke="grey" fill="grey"/>
   </g>
   <g id="cell17">
  <circle cx="576.613" cy="145.199" r="2.01831" stroke-width="0.5" stroke="black" fill="grey"/>
  <circle cx="576.613" cy="145.199" r="1.90974" stroke-width="0.5" stroke="black" fill="black"/>
   </g>
   <g id="cell18">
  <circle cx="917.134" cy="727.072" r="8.41271" stroke-width="0.5" stroke="black" fill="grey"/>
  <circle cx="917.134" cy="727.072" r="5.05167" stroke-width="0.5" stroke="grey" fill="grey"/>
   </g>
   <g id="cell19">
  <circle cx="91.6991" cy="418.138" r="4.04662" stroke-width="0.5" stroke="black" fill="grey"/>
  <circle cx="91.6991" cy="418.138" r="2.96267" stroke-width="0.5" stroke="black" fill="black"/>
   </g>
   <g id="cell20">
  <circle cx="234.9" cy="179.957" r="8.80772" stroke-width="0.5" stroke="black" fill="grey"/>
  <circle cx="234.9" cy="179.957" r="5.33574" stroke-width="0.5" stroke="grey" fill="grey"/>
   </g>
   <g id="cell21">
  <circle cx="724.733" cy="441.273" r="5.19915" stroke-width="0.5" stroke="black" fill="grey"/>
  <circle cx="724.733" cy="441.273" r="3.42443" stroke-width="0.5" stroke="black" fill="black"/>
   </g>
   <g id="cell22">
  <circle cx="565.337" cy="126.183" r="1.84616" stroke-width="0.5" stroke="black" fill="grey"/>
  <circle cx="565.337" cy="126.183" r="1.7784" stroke-width="0.5" stroke="black" fill="black"/>
   </g>
   <g id="cell23">
  <circle cx="303.9" cy="607.146" r="3.09887" stroke-width="0.5" stroke="black" fill="grey"/>
  <circle cx="303.9" cy="607.146" r="2.69208" stroke-width="0.5" stroke="black" fill="black"/>
   </g>
   <g id="cell24">
  <circle cx="609.184" cy="239.282" r="10.0169" stroke-width="0.5" stroke="black" fill="grey"/>
  <circle cx="609.184" cy="239.282" r="6.07458" stroke-width="0.5" stroke="grey" fill="grey"/>
   </g>
   <g id="cell25">
  <circle cx="391.324" cy="976.029" r="3.33938" stroke-width="0.5" stroke="black" fill="grey"/>
  <circle cx="391.324" cy="976.029" r="2.64104" stroke-width="0.5" stroke="black" fill="black"/>
   </g>
   <g id="cell26">
  <circle cx="654.093" cy="464.738" r="9.94548" stroke-width="0.5" stroke="black" fill="grey"/>
  <circle cx="654.093" cy="464.738" r="6.03448" stroke-width="0.5" stroke="grey" fill="grey"/>
   </g>
   <g id="cell27">
  <circle cx="601.791" cy="449.353" r="1.76957" stroke-width="0.5" stroke="black" fill="grey"/>
  <circle cx="601.791" cy="449.353" r="1.71615" stroke-width="0.5" stroke="black" fill="black"/>
   </g>
   <g id="cell28">
  <circle cx="671.838" cy="130.668" r="9.82189" stroke-width="0.5" stroke="black" fill="grey"/>
  <circle cx="671.838" cy="130.668" r="5.96395" stroke-width="0.5" stroke="grey" fill="grey"/>
   </g>
   <g id="cell29">
  <circle cx="977.2" cy="669.151" r="9.98223" stroke-width="0.5" stroke="black" fill="grey"/>
  <circle cx="977.2" cy="669.151" r="6.05517" stroke-width="0.5" stroke="grey" fill="grey"/>
   </g>
   <g id="cell30">
  <circle cx="715.143" cy="159.255" r="8.41271" stroke-width="0.5" stroke="black" fill="grey"/>
  <circle cx="715.143" cy="159.255" r="5.05167" stroke-width="0.5" stroke="grey" fill="grey"/>
   </g>
   <g id="cell31">
  <circle cx="365.645" cy="116.109" r="8.80772" stroke-width="0.5" stroke="black" fill="grey"/>
  <circle cx="365.645" cy="116.109" r="5.33574" stroke-width="0.5" stroke="grey" fill="grey"/>
   </g>
   <g id="cell32">
  <circle cx="319.499" cy="595.194" r="2.05991" stroke-width="0.5" stroke="black" fill="grey"/>
  <circle cx="319.499" cy="595.194" r="1.9502" stroke-width="0.5" stroke="black" fill="black"/>
   </g>
   <g id="cell33">
  <circle cx="310.636" cy="554.328" r="3.32463" stroke-width="0.5" stroke="black" fill="grey"/>
  <circle cx="310.636" cy="554.328" r="2.81476" stroke-width="0.5" stroke="black" fill="black"/>
   </g>
   <g id="cell34">
  <circle cx="435.362" cy="649.251" r="2.97674" stroke-width="0.5" stroke="black" fill="grey"/>
  <circle cx="435.362" cy="649.251" r="2.45592" stroke-width="0.5" stroke="black" fill="black"/>
   </g>
   <g id="cell35">
  <circle cx="938.983" cy="80.6489" r="8.41271" stroke-width="0.5" stroke="black" fill="grey"/>
  <circle cx="938.983" cy="80.6489" r="5.05167" stroke-width="0.5" stroke="grey" fill="grey"/>
   </g>
   <g id="cell36">
  <circle cx="208.916" cy="622.395" r="2.42814" stroke-width="0.5" stroke="black" fill="grey"/>
  <circle cx="208.916" cy="622.395" r="2.17648" stroke-width="0.5" stroke="black" fill="black"/>
   </g>
   <g id="cell37">
  <circle cx="991.105" cy="649.704" r="2.2615" stroke-width="0.5" stroke="black" fill="grey"/>
  <circle cx="991.105" cy="649.704" r="2.07535" stroke-width="0.5" stroke="black" fill="black"/>
   </g>
   <g id="cell38">
  <circle cx="247.838" cy="438.627" r="10.0955" stroke-width="0.5" stroke="black" fill="grey"/>
  <circle cx="247.838" cy="438.627" r="6.11797" stroke-width="0.5" stroke="grey" fill="grey"/>
   </g>
   <g id="cell39">
  <circle cx="496.525" cy="254.099" r="2.2615" stroke-width="0.5" stroke="black" fill="grey"/>
  <circle cx="496.525" cy="254.099" r="2.07535" stroke-width="0.5" stroke="black" fill="black"/>
   </g>
   <g id="cell40">
  <circle cx="181.424" cy="353.094" r="9.62199" stroke-width="0.5" stroke="black" fill="red"/>
  <circle cx="181.424" cy="353.094" r="5.8471" stroke-width="0.5" stroke="red" fill="red"/>
   </g>
   <g id="cell41">
  <circle cx="674.05" cy="678.502" r="9.84395" stroke-width="0.5" stroke="black" fill="red"/>
  <circle cx="674.05" cy="678.502" r="5.97665" stroke-width="0.5" stroke="red" fill="red"/>
   </g>
   <g id="cell42">
  <circle cx="148.43" cy="747.776" r="9.84395" stroke-width="0.5" stroke="black" fill="red"/>
  <circle cx="148.43" cy="747.776" r="5.97665" stroke-width="0.5" stroke="red" fill="red"/>
   </g>
   <g id="cell43">
  <circle cx="943.587" cy="361.222" r="9.00806" stroke-width="0.5" stroke="black" fill="red"/>
  <circle cx="943.587" cy="361.222" r="5.46807" stroke-width="0.5" stroke="red" fill="red"/>
   </g>
   <g id="cell44">
  <circle cx="808.803" cy="15.8936" r="9.59391" stroke-width="0.5" stroke="black" fill="red"/>
  <circle cx="808.803" cy="15.8936" r="5.83043" stroke-width="0.5" stroke="red" fill="red"/>
   </g>
   <g id="cell45">
  <circle cx="625.609" cy="831.654" r="8.4325" stroke-width="0.5" stroke="black" fill="red"/>
  <circle cx="625.609" cy="831.654" r="5.06552" stroke-width="0.5" stroke="red" fill="red"/>
   </g>
   <g id="cell46">
  <circle cx="52.8378" cy="960.386" r="9.94548" stroke-width="0.5" stroke="black" fill="red"/>
  <circle cx="52.8378" cy="960.386" r="6.03448" stroke-width="0.5" stroke="red" fill="red"/>
   </g>
   <g id="cell47">
  <circle cx="888.731" cy="453.355" r="9.7273" stroke-width="0.5" stroke="black" fill="red"/>
  <circle cx="888.731" cy="453.355" r="5.90906" stroke-width="0.5" stroke="red" fill="red"/>
   </g>
   <g id="cell48">
  <circle cx="942.283" cy="24.0331" r="10.0169" stroke-width="0.5" stroke="black" fill="red"/>
  <circle cx="942.283" cy="24.0331" r="6.07458" stroke-width="0.5" stroke="red" fill="red"/>
   </g>
   <g id="cell49">
  <circle cx="468.566" cy="761.359" r="9.04745" stroke-width="0.5" stroke="black" fill="red"/>
  <circle cx="468.566" cy="761.359" r="5.49345" stroke-width="0.5" stroke="red" fill="red"/>
   </g>
   <g id="cell50">
  <circle cx="36.2423" cy="459.026" r="10.1098" stroke-width="0.5" stroke="black" fill="red"/>
  <circle cx="36.2423" cy="459.026" r="6.12585" stroke-width="0.5" stroke="red" fill="red"/>
   </g>
   <g id="cell51">
  <circle cx="985.2" cy="123.921" r="10.0336" stroke-width="0.5" stroke="black" fill="red"/>
  <circle cx="985.2" cy="123.921" r="6.08382" stroke-width="0.5" stroke="red" fill="red"/>
   </g>
   <g id="cell52">
  <circle cx="289.862" cy="499.505" r="8.41271" stroke-width="0.5" stroke="black" fill="red"/>
  <circle cx="289.862" cy="499.505" r="5.05167" stroke-width="0.5" stroke="black" fill="black"/>
   </g>
   <g id="cell53">
  <circle cx="703.778" cy="303.357" r="9.94548" stroke-width="0.5" stroke="black" fill="red"/>
  <circle cx="703.778" cy="303.357" r="6.03448" stroke-width="0.5" stroke="red" fill="red"/>
   </g>
   <g id="cell54">
  <circle cx="433.773" cy="954.183" r="9.2729" stroke-width="0.5" stroke="black" fill="red"/>
  <circle cx="433.773" cy="954.183" r="5.63555" stroke-width="0.5" stroke="red" fill="red"/>
   </g>
   <g id="cell55">
  <circle cx="232.218" cy="674.876" r="8.41271" stroke-width="0.5" stroke="black" fill="red"/>
  <circle cx="232.218" cy="674.876" r="5.05167" stroke-width="0.5" stroke="red" fill="red"/>
   </g>
   <g id="cell56">
  <circle cx="549.552" cy="815.354" r="9.64936" stroke-width="0.5" stroke="black" fill="red"/>
  <circle cx="549.552" cy="815.354" r="5.86329" stroke-width="0.5" stroke="red" fill="red"/>
   </g>
   <g id="cell57">
  <circle cx="486.752" cy="534.06" r="9.7992" stroke-width="0.5" stroke="black" fill="red"/>
  <circle cx="486.752" cy="534.06" r="5.95086" stroke-width="0.5" stroke="red" fill="red"/>
   </g>
   <g id="cell58">
  <circle cx="84.2213" cy="920.958" r="9.30826" stroke-width="0.5" stroke="black" fill="red"/>
  <circle cx="84.2213" cy="920.958" r="5.65742" stroke-width="0.5" stroke="red" fill="red"/>
   </g>
   <g id="cell59">
  <circle cx="84.4239" cy="933.811" r="9.08642" stroke-width="0.5" stroke="black" fill="red"/>
  <circle cx="84.4239" cy="933.811" r="5.51837" stroke-width="0.5" stroke="red" fill="red"/>
   </g>
   <g id="cell60">
  <circle cx="309.057" cy="26.9371" r="8.80772" stroke-width="0.5" stroke="black" fill="red"/>
  <circle cx="309.057" cy="26.9371" r="5.33574" stroke-width="0.5" stroke="red" fill="red"/>
   </g>
   <g id="cell61">
  <circle cx="830.492" cy="140.539" r="9.30826" stroke-width="0.5" stroke="black" fill="red"/>
  <circle cx="830.492" cy="140.539" r="5.65742" stroke-width="0.5" stroke="red" fill="red"/>
   </g>
   <g id="cell62">
  <circle cx="718.752" cy="817.512" r="8.41271" stroke-width="0.5" stroke="black" fill="red"/>
  <circle cx="718.752" cy="817.512" r="5.05167" stroke-width="0.5" stroke="red" fill="red"/>
   </g>
   <g id="cell63">
  <circle cx="283.638" cy="184.143" r="9.75192" stroke-width="0.5" stroke="black" fill="red"/>
  <circle cx="283.638" cy="184.143" r="5.92342" stroke-width="0.5" stroke="red" fill="red"/>
   </g>
   <g id="cell64">
  <circle cx="593.105" cy="528.992" r="8.41271" stroke-width="0.5" stroke="black" fill="red"/>
  <circle cx="593.105" cy="528.992" r="5.05167" stroke-width="0.5" stroke="red" fill="red"/>
   </g>
   <g id="cell65">
  <circle cx="185.918" cy="837.814" r="8.41271" stroke-width="0.5" stroke="black" fill="red"/>
  <circle cx="185.918" cy="837.814" r="5.05167" stroke-width="0.5" stroke="red" fill="red"/>
   </g>
   <g id="cell66">
  <circle cx="8.24009" cy="167.538" r="8.54454" stroke-width="0.5" stroke="black" fill="red"/>
  <circle cx="8.24009" cy="167.538" r="5.14947" stroke-width="0.5" stroke="red" fill="red"/>
   </g>
   <g id="cell67">
  <circle cx="542.58" cy="276.995" r="8.4325" stroke-width="0.5" stroke="black" fill="red"/>
  <circle cx="542.58" cy="276.995" r="5.06552" stroke-width="0.5" stroke="red" fill="red"/>
   </g>
   <g id="cell68">
  <circle cx="737.754" cy="285.919" r="9.88629" stroke-width="0.5" stroke="black" fill="red"/>
  <circle cx="737.754" cy="285.919" r="6.00088" stroke-width="0.5" stroke="red" fill="red"/>
   </g>
   <g id="cell69">
  <circle cx="422.665" cy="281.616" r="8.80772" stroke-width="0.5" stroke="black" fill="red"/>
  <circle cx="422.665" cy="281.616" r="5.33574" stroke-width="0.5" stroke="red" fill="red"/>
   </g>
   <g id="cell70">
  <circle cx="537.618" cy="405.471" r="9.08642" stroke-width="0.5" stroke="black" fill="red"/>
  <circle cx="537.618" cy="405.471" r="5.51837" stroke-width="0.5" stroke="red" fill="red"/>
   </g>
   <g id="cell71">
  <circle cx="893.65" cy="542.407" r="10.0169" stroke-width="0.5" stroke="black" fill="red"/>
  <circle cx="893.65" cy="542.407" r="6.07458" stroke-width="0.5" stroke="red" fill="red"/>
   </g>
   <g id="cell72">
  <circle cx="213.189" cy="873.63" r="9.67603" stroke-width="0.5" stroke="black" fill="red"/>
  <circle cx="213.189" cy="873.63" r="5.87901" stroke-width="0.5" stroke="red" fill="red"/>
   </g>
   <g id="cell73">
  <circle cx="683.439" cy="460.959" r="9.90658" stroke-width="0.5" stroke="black" fill="red"/>
  <circle cx="683.439" cy="460.959" r="6.01243" stroke-width="0.5" stroke="red" fill="red"/>
   </g>
   <g id="cell74">
  <circle cx="836.051" cy="988.988" r="9.2729" stroke-width="0.5" stroke="black" fill="red"/>
  <circle cx="836.051" cy="988.988" r="5.63555" stroke-width="0.5" stroke="red" fill="red"/>
   </g>
   <g id="cell75">
  <circle cx="90.5089" cy="314.987" r="9.86542" stroke-width="0.5" stroke="black" fill="red"/>
  <circle cx="90.5089" cy="314.987" r="5.98895" stroke-width="0.5" stroke="red" fill="red"/>
   </g>
   <g id="cell76">
  <circle cx="791.034" cy="371.594" r="9.20015" stroke-width="0.5" stroke="black" fill="red"/>
  <circle cx="791.034" cy="371.594" r="5.59022" stroke-width="0.5" stroke="red" fill="red"/>
   </g>
   <g id="cell77">
  <circle cx="640.558" cy="858.33" r="9.5651" stroke-width="0.5" stroke="black" fill="red"/>
  <circle cx="640.558" cy="858.33" r="5.81327" stroke-width="0.5" stroke="red" fill="red"/>
   </g>
   <g id="cell78">
  <circle cx="588.429" cy="295.609" r="9.37686" stroke-width="0.5" stroke="black" fill="red"/>
  <circle cx="588.429" cy="295.609" r="5.69955" stroke-width="0.5" stroke="red" fill="red"/>
   </g>
   <g id="cell79">
  <circle cx="973.953" cy="692.96" r="8.45606" stroke-width="0.5" stroke="black" fill="red"/>
  <circle cx="973.953" cy="692.96" r="5.08296" stroke-width="0.5" stroke="red" fill="red"/>
   </g>
   <g id="cell80">
  <circle cx="747.894" cy="683.402" r="8.41271" stroke-width="0.5" stroke="black" fill="yellow"/>
  <circle cx="747.894" cy="683.402" r="5.05167" stroke-width="0.5" stroke="yellow" fill="yellow"/>
   </g>
   <g id="cell81">
  <circle cx="495.75" cy="970.381" r="8.41271" stroke-width="0.5" stroke="black" fill="yellow"/>
  <circle cx="495.75" cy="970.381" r="5.05167" stroke-width="0.5" stroke="yellow" fill="yellow"/>
   </g>
   <g id="cell82">
  <circle cx="660.988" cy="410.811" r="9.7273" stroke-width="0.5" stroke="black" fill="yellow"/>
  <circle cx="660.988" cy="410.811" r="5.90906" stroke-width="0.5" stroke="yellow" fill="yellow"/>
   </g>
   <g id="cell83">
  <circle cx="591.328" cy="578.012" r="9.53557" stroke-width="0.5" stroke="black" fill="yellow"/>
  <circle cx="591.328" cy="578.012" r="5.79561" stroke-width="0.5" stroke="yellow" fill="yellow"/>
   </g>
   <g id="cell84">
  <circle cx="25.9108" cy="455.661" r="8.54454" stroke-width="0.5" stroke="black" fill="yellow"/>
  <circle cx="25.9108" cy="455.661" r="5.14947" stroke-width="0.5" stroke="yellow" fill="yellow"/>
   </g>
   <g id="cell85">
  <circle cx="733.917" cy="670.977" r="9.90658" stroke-width="0.5" stroke="black" fill="yellow"/>
  <circle cx="733.917" cy="670.977" r="6.01243" stroke-width="0.5" stroke="yellow" fill="yellow"/>
   </g>
   <g id="cell86">
  <circle cx="287.329" cy="421.965" r="8.41271" stroke-width="0.5" stroke="black" fill="yellow"/>
  <circle cx="287.329" cy="421.965" r="5.05167" stroke-width="0.5" stroke="yellow" fill="yellow"/>
   </g>
   <g id="cell87">
  <circle cx="760.907" cy="427.389" r="10.0806" stroke-width="0.5" stroke="black" fill="yellow"/>
  <circle cx="760.907" cy="427.389" r="6.10985" stroke-width="0.5" stroke="yellow" fill="yellow"/>
   </g>
   <g id="cell88">
  <circle cx="139.462" cy="102.606" r="9.44256" stroke-width="0.5" stroke="black" fill="yellow"/>
  <circle cx="139.462" cy="102.606" r="5.73955" stroke-width="0.5" stroke="yellow" fill="yellow"/>
   </g>
   <g id="cell89">
  <circle cx="62.8361" cy="555.445" r="8.41271" stroke-width="0.5" stroke="black" fill="yellow"/>
  <circle cx="62.8361" cy="555.445" r="5.05167" stroke-width="0.5" stroke="yellow" fill="yellow"/>
   </g>
   <g id="cell90">
  <circle cx="576.381" cy="549.137" r="1.74522" stroke-width="0.5" stroke="black" fill="yellow"/>
  <circle cx="576.381" cy="549.137" r="1.69589" stroke-width="0.5" stroke="black" fill="black"/>
   </g>
   <g id="cell91">
  <circle cx="44.6388" cy="638.857" r="8.51252" stroke-width="0.5" stroke="black" fill="yellow"/>
  <circle cx="44.6388" cy="638.857" r="5.12552" stroke-width="0.5" stroke="yellow" fill="yellow"/>
   </g>
   <g id="cell92">
  <circle cx="654.556" cy="285.835" r="9.37686" stroke-width="0.5" stroke="black" fill="yellow"/>
  <circle cx="654.556" cy="285.835" r="5.69955" stroke-width="0.5" stroke="yellow" fill="yellow"/>
   </g>
   <g id="cell93">
  <circle cx="208.839" cy="893.388" r="10.0806" stroke-width="0.5" stroke="black" fill="yellow"/>
  <circle cx="208.839" cy="893.388" r="6.10985" stroke-width="0.5" stroke="yellow" fill="yellow"/>
   </g>
   <g id="cell94">
  <circle cx="376.144" cy="62.5847" r="8.9283" stroke-width="0.5" stroke="black" fill="yellow"/>
  <circle cx="376.144" cy="62.5847" r="5.4161" stroke-width="0.5" stroke="yellow" fill="yellow"/>
   </g>
   <g id="cell95">
  <circle cx="962.328" cy="878.465" r="9.12489" stroke-width="0.5" stroke="black" fill="yellow"/>
  <circle cx="962.328" cy="878.465" r="5.54282" stroke-width="0.5" stroke="yellow" fill="yellow"/>
   </g>
   <g id="cell96">
  <circle cx="787.255" cy="531.632" r="9.16281" stroke-width="0.5" stroke="black" fill="yellow"/>
  <circle cx="787.255" cy="531.632" r="5.56677" stroke-width="0.5" stroke="yellow" fill="yellow"/>
   </g>
   <g id="cell97">
  <circle cx="424.408" cy="112.31" r="8.41271" stroke-width="0.5" stroke="black" fill="yellow"/>
  <circle cx="424.408" cy="112.31" r="5.05167" stroke-width="0.5" stroke="yellow" fill="yellow"/>
   </g>
   <g id="cell98">
  <circle cx="950.677" cy="332.182" r="8.41271" stroke-width="0.5" stroke="black" fill="yellow"/>
  <circle cx="950.677" cy="332.182" r="5.05167" stroke-width="0.5" stroke="yellow" fill="yellow"/>
   </g>
   <g id="cell99">
  <circle cx="499.63" cy="981.208" r="8.4325" stroke-width="0.5" stroke="black" fill="yellow"/>
  <circle cx="499.63" cy="981.208" r="5.06552" stroke-width="0.5" stroke="yellow" fill="yellow"/>
   </g>
   <g id="cell100">
  <circle cx="144.916" cy="830.879" r="9.92631" stroke-width="0.5" stroke="black" fill="yellow"/>
  <circle cx="144.916" cy="830.879" r="6.02363" stroke-width="0.5" stroke="yellow" fill="yellow"/>
   </g>
   <g id="cell101">
  <circle cx="76.0163" cy="149.521" r="8.41271" stroke-width="0.5" stroke="black" fill="yellow"/>
  <circle cx="76.0163" cy="149.521" r="5.05167" stroke-width="0.5" stroke="yellow" fill="yellow"/>
   </g>
   <g id="cell102">
  <circle cx="629.173" cy="151.973" r="9.16281" stroke-width="0.5" stroke="black" fill="yellow"/>
  <circle cx="629.173" cy="151.973" r="5.56677" stroke-width="0.5" stroke="yellow" fill="yellow"/>
   </g>
   <g id="cell103">
  <circle cx="792.84" cy="878.016" r="8.41271" stroke-width="0.5" stroke="black" fill="yellow"/>
  <circle cx="792.84" cy="878.016" r="5.05167" stroke-width="0.5" stroke="yellow" fill="yellow"/>
   </g>
   <g id="cell104">
  <circle cx="808.999" cy="417.324" r="10.0497" stroke-width="0.5" stroke="black" fill="yellow"/>
  <circle cx="808.999" cy="417.324" r="6.09278" stroke-width="0.5" stroke="yellow" fill="yellow"/>
   </g>
   <g id="cell105">
  <circle cx="135.58" cy="420.827" r="8.41271" stroke-width="0.5" stroke="black" fill="yellow"/>
  <circle cx="135.58" cy="420.827" r="5.05167" stroke-width="0.5" stroke="yellow" fill="yellow"/>
   </g>
   <g id="cell106">
  <circle cx="38.1724" cy="966.856" r="9.86542" stroke-width="0.5" stroke="black" fill="yellow"/>
  <circle cx="38.1724" cy="966.856" r="5.98895" stroke-width="0.5" stroke="yellow" fill="yellow"/>
   </g>
   <g id="cell107">
  <circle cx="368.264" cy="459.228" r="8.41271" stroke-width="0.5" stroke="black" fill="yellow"/>
  <circle cx="368.264" cy="459.228" r="5.05167" stroke-width="0.5" stroke="yellow" fill="yellow"/>
   </g>
   <g id="cell108">
  <circle cx="709.542" cy="38.9772" r="10.0654" stroke-width="0.5" stroke="black" fill="yellow"/>
  <circle cx="709.542" cy="38.9772" r="6.10145" stroke-width="0.5" stroke="yellow" fill="yellow"/>
   </g>
   <g id="cell109">
  <circle cx="361.542" cy="942.307" r="9.08642" stroke-width="0.5" stroke="black" fill="yellow"/>
  <circle cx="361.542" cy="942.307" r="5.51837" stroke-width="0.5" stroke="yellow" fill="yellow"/>
   </g>
   <g id="cell110">
  <circle cx="841.472" cy="238.543" r="8.41271" stroke-width="0.5" stroke="black" fill="yellow"/>
  <circle cx="841.472" cy="238.543" r="5.05167" stroke-width="0.5" stroke="yellow" fill="yellow"/>
   </g>
   <g id="cell111">
  <circle cx="771.805" cy="385.067" r="8.41271" stroke-width="0.5" stroke="black" fill="yellow"/>
  <circle cx="771.805" cy="385.067" r="5.05167" stroke-width="0.5" stroke="yellow" fill="yellow"/>
   </g>
   <g id="cell112">
  <circle cx="728.345" cy="778.692" r="9.88629" stroke-width="0.5" stroke="black" fill="yellow"/>
  <circle cx="728.345" cy="778.692" r="6.00088" stroke-width="0.5" stroke="yellow" fill="yellow"/>
   </g>
   <g id="cell113">
  <circle cx="347.194" cy="522.062" r="1.90227" stroke-width="0.5" stroke="black" fill="yellow"/>
  <circle cx="347.194" cy="522.062" r="1.83345" stroke-width="0.5" stroke="black" fill="black"/>
   </g>
   <g id="cell114">
  <circle cx="49.0975" cy="343.511" r="8.9283" stroke-width="0.5" stroke="black" fill="yellow"/>
  <circle cx="49.0975" cy="343.511" r="5.4161" stroke-width="0.5" stroke="yellow" fill="yellow"/>
   </g>
   <g id="cell115">
  <circle cx="186.118" cy="20.7162" r="9.70201" stroke-width="0.5" stroke="black" fill="yellow"/>
  <circle cx="186.118" cy="20.7162" r="5.89426" stroke-width="0.5" stroke="yellow" fill="yellow"/>
   </g>
   <g id="cell116">
  <circle cx="801.213" cy="474.68" r="8.41271" stroke-width="0.5" stroke="black" fill="yellow"/>
  <circle cx="801.213" cy="474.68" r="5.05167" stroke-width="0.5" stroke="yellow" fill="yellow"/>
   </g>
   <g id="cell117">
  <circle cx="875.996" cy="360.638" r="8.41271" stroke-width="0.5" stroke="black" fill="yellow"/>
  <circle cx="875.996" cy="360.638" r="5.05167" stroke-width="0.5" stroke="yellow" fill="yellow"/>
   </g>
   <g id="cell118">
  <circle cx="908.489" cy="606.641" r="9.96412" stroke-width="0.5" stroke="black" fill="yellow"/>
  <circle cx="908.489" cy="606.641" r="6.04499" stroke-width="0.5" stroke="yellow" fill="yellow"/>
   </g>
   <g id="cell119">
  <circle cx="589.384" cy="37.7828" r="8.41271" stroke-width="0.5" stroke="black" fill="yellow"/>
  <circle cx="589.384" cy="37.7828" r="5.05167" stroke-width="0.5" stroke="yellow" fill="yellow"/>
   </g>
  </g>
 </g>
  <rect x="775" y="1035" width="200" height="10" stroke-width="2" stroke="rgb(255,255,255)" fill="rgb(0,0,0)"/>
  <text x="781.25" y="1028.75"
   font-family="Arial" font-size="25" fill="black" >
   200 &#956;m
  </text>
  <text x="25" y="1045"
   font-family="Arial" font-size="18.75" fill="black" >
   0 days, 0 hours, 0 minutes, and 23.3109 seconds
  </text>
  <rect x="0" y="70" width="1000" height="1000" stroke-width="2" stroke="rgb(0,0,0)" fill="none"/>
</svg>
