<?xml version="1.0" encoding="UTF-8" standalone="no"?>
<!-- Created with PhysiCell (http://PhysiCell.MathCancer.org/) -->
<svg 
 xmlns:dc="http://purl.org/dc/elements/1.1/" 
 xmlns:cc="http://creativecommons.org/ns#" 
 xmlns:rdf="http://www.w3.org/1999/02/22-rdf-syntax-ns#" 
 xmlns:svg="http://www.w3.org/2000/svg" 
 xmlns="http://www.w3.org/2000/svg" 
 version="1.1" 
 width="1000" 
 height="1070" 
 id="svg2">
  <rect x="0" y="0" width="1000" height="1070" stroke-width="2" stroke="white" fill="white"/>
  <text x="12.5" y="30"
   font-family="Arial" font-size="25" fill="black" >
   Current time: 0 days, 9 hours, and 30.00 minutes, z = 0.00 &#956;m
  </text>
  <text x="12.5" y="57.5"
   font-family="Arial" font-size="23.75" fill="black" >
   117 agents
  </text>
 <g id="tissue" 
    transform="translate(0,1070) scale(1,-1)">
  <g id="ECM">
  </g>
  <g id="cells">
   <g id="cell0">
  <circle cx="510.314" cy="582.202" r="10.4102" stroke-width="0.5" stroke="black" fill="grey"/>
  <circle cx="510.314" cy="582.202" r="6.2825" stroke-width="0.5" stroke="grey" fill="grey"/>
   </g>
   <g id="cell118">
  <circle cx="896.596" cy="602.576" r="10.3682" stroke-width="0.5" stroke="black" fill="yellow"/>
  <circle cx="896.596" cy="602.576" r="6.26172" stroke-width="0.5" stroke="yellow" fill="yellow"/>
   </g>
   <g id="cell2">
  <circle cx="550.341" cy="824.071" r="2.33947" stroke-width="0.5" stroke="black" fill="grey"/>
  <circle cx="550.341" cy="824.071" r="2.23905" stroke-width="0.5" stroke="black" fill="black"/>
   </g>
   <g id="cell3">
  <circle cx="611.16" cy="639.371" r="10.3682" stroke-width="0.5" stroke="black" fill="grey"/>
  <circle cx="611.16" cy="639.371" r="6.26172" stroke-width="0.5" stroke="grey" fill="grey"/>
   </g>
   <g id="cell4">
  <circle cx="415.352" cy="304.555" r="1.84616" stroke-width="0.5" stroke="black" fill="grey"/>
  <circle cx="415.352" cy="304.555" r="1.7784" stroke-width="0.5" stroke="black" fill="black"/>
   </g>
   <g id="cell5">
  <circle cx="75.5167" cy="967.659" r="4.15361" stroke-width="0.5" stroke="black" fill="grey"/>
  <circle cx="75.5167" cy="967.659" r="3.25449" stroke-width="0.5" stroke="black" fill="black"/>
   </g>
   <g id="cell6">
  <circle cx="385.39" cy="482.578" r="10.4208" stroke-width="0.5" stroke="black" fill="grey"/>
  <circle cx="385.39" cy="482.578" r="6.28762" stroke-width="0.5" stroke="grey" fill="grey"/>
   </g>
   <g id="cell7">
  <circle cx="842.656" cy="546.693" r="10.2221" stroke-width="0.5" stroke="black" fill="grey"/>
  <circle cx="842.656" cy="546.693" r="6.18628" stroke-width="0.5" stroke="grey" fill="grey"/>
   </g>
   <g id="cell8">
  <circle cx="583.613" cy="420.263" r="10.1098" stroke-width="0.5" stroke="black" fill="grey"/>
  <circle cx="583.613" cy="420.263" r="6.12585" stroke-width="0.5" stroke="grey" fill="grey"/>
   </g>
   <g id="cell9">
  <circle cx="847.148" cy="85.0327" r="1.29827" stroke-width="0.5" stroke="black" fill="grey"/>
  <circle cx="847.148" cy="85.0327" r="1.29055" stroke-width="0.5" stroke="black" fill="black"/>
   </g>
   <g id="cell10">
  <circle cx="133.476" cy="637.733" r="10.2911" stroke-width="0.5" stroke="black" fill="grey"/>
  <circle cx="133.476" cy="637.733" r="6.22246" stroke-width="0.5" stroke="grey" fill="grey"/>
   </g>
   <g id="cell11">
  <circle cx="326.8" cy="827.403" r="9.84395" stroke-width="0.5" stroke="black" fill="grey"/>
  <circle cx="326.8" cy="827.403" r="5.97665" stroke-width="0.5" stroke="grey" fill="grey"/>
   </g>
   <g id="cell12">
  <circle cx="782.392" cy="134.503" r="1.79449" stroke-width="0.5" stroke="black" fill="grey"/>
  <circle cx="782.392" cy="134.503" r="1.73665" stroke-width="0.5" stroke="black" fill="black"/>
   </g>
   <g id="cell13">
  <circle cx="880.851" cy="956.12" r="1.97859" stroke-width="0.5" stroke="black" fill="grey"/>
  <circle cx="880.851" cy="956.12" r="1.90299" stroke-width="0.5" stroke="black" fill="black"/>
   </g>
   <g id="cell14">
  <circle cx="838.103" cy="829.667" r="2.62155" stroke-width="0.5" stroke="black" fill="grey"/>
  <circle cx="838.103" cy="829.667" r="2.43695" stroke-width="0.5" stroke="black" fill="black"/>
   </g>
   <g id="cell15">
  <circle cx="525.275" cy="767.583" r="2.64576" stroke-width="0.5" stroke="black" fill="grey"/>
  <circle cx="525.275" cy="767.583" r="2.44821" stroke-width="0.5" stroke="black" fill="black"/>
   </g>
   <g id="cell16">
  <circle cx="152.73" cy="739.912" r="10.2821" stroke-width="0.5" stroke="black" fill="grey"/>
  <circle cx="152.73" cy="739.912" r="6.21778" stroke-width="0.5" stroke="grey" fill="grey"/>
   </g>
   <g id="cell17">
  <circle cx="576.613" cy="145.199" r="1.26682" stroke-width="0.5" stroke="black" fill="grey"/>
  <circle cx="576.613" cy="145.199" r="1.26026" stroke-width="0.5" stroke="black" fill="black"/>
   </g>
   <g id="cell18">
  <circle cx="953.85" cy="703.578" r="9.20015" stroke-width="0.5" stroke="black" fill="grey"/>
  <circle cx="953.85" cy="703.578" r="5.59022" stroke-width="0.5" stroke="grey" fill="grey"/>
   </g>
   <g id="cell19">
  <circle cx="91.6991" cy="418.138" r="1.97541" stroke-width="0.5" stroke="black" fill="grey"/>
  <circle cx="91.6991" cy="418.138" r="1.8944" stroke-width="0.5" stroke="black" fill="black"/>
   </g>
   <g id="cell20">
  <circle cx="236.865" cy="174.038" r="9.90658" stroke-width="0.5" stroke="black" fill="grey"/>
  <circle cx="236.865" cy="174.038" r="6.01243" stroke-width="0.5" stroke="grey" fill="grey"/>
   </g>
   <g id="cell21">
  <circle cx="724.733" cy="441.273" r="2.08246" stroke-width="0.5" stroke="black" fill="grey"/>
  <circle cx="724.733" cy="441.273" r="1.95565" stroke-width="0.5" stroke="black" fill="black"/>
   </g>
   <g id="cell22">
  <circle cx="565.337" cy="126.183" r="1.17761" stroke-width="0.5" stroke="black" fill="grey"/>
  <circle cx="565.337" cy="126.183" r="1.17358" stroke-width="0.5" stroke="black" fill="black"/>
   </g>
   <g id="cell23">
  <circle cx="303.9" cy="607.146" r="1.80246" stroke-width="0.5" stroke="black" fill="grey"/>
  <circle cx="303.9" cy="607.146" r="1.77578" stroke-width="0.5" stroke="black" fill="black"/>
   </g>
   <g id="cell24">
  <circle cx="608.109" cy="222.435" r="7.35861" stroke-width="0.5" stroke="black" fill="grey"/>
  <circle cx="608.109" cy="222.435" r="4.68149" stroke-width="0.5" stroke="black" fill="black"/>
   </g>
   <g id="cell25">
  <circle cx="391.324" cy="976.029" r="1.78166" stroke-width="0.5" stroke="black" fill="grey"/>
  <circle cx="391.324" cy="976.029" r="1.73182" stroke-width="0.5" stroke="black" fill="black"/>
   </g>
   <g id="cell26">
  <circle cx="637.542" cy="457.288" r="10.3615" stroke-width="0.5" stroke="black" fill="grey"/>
  <circle cx="637.542" cy="457.288" r="6.25834" stroke-width="0.5" stroke="grey" fill="grey"/>
   </g>
   <g id="cell117">
  <circle cx="888.811" cy="360.627" r="9.08642" stroke-width="0.5" stroke="black" fill="yellow"/>
  <circle cx="888.811" cy="360.627" r="5.51837" stroke-width="0.5" stroke="yellow" fill="yellow"/>
   </g>
   <g id="cell28">
  <circle cx="678.229" cy="139.58" r="10.3166" stroke-width="0.5" stroke="black" fill="grey"/>
  <circle cx="678.229" cy="139.58" r="6.23561" stroke-width="0.5" stroke="grey" fill="grey"/>
   </g>
   <g id="cell29">
  <circle cx="988.402" cy="654.538" r="10.3747" stroke-width="0.5" stroke="black" fill="grey"/>
  <circle cx="988.402" cy="654.538" r="6.26498" stroke-width="0.5" stroke="grey" fill="grey"/>
   </g>
   <g id="cell30">
  <circle cx="719.122" cy="170.372" r="8.88811" stroke-width="0.5" stroke="black" fill="grey"/>
  <circle cx="719.122" cy="170.372" r="5.38958" stroke-width="0.5" stroke="grey" fill="grey"/>
   </g>
   <g id="cell31">
  <circle cx="384.67" cy="110.68" r="9.90658" stroke-width="0.5" stroke="black" fill="grey"/>
  <circle cx="384.67" cy="110.68" r="6.01243" stroke-width="0.5" stroke="grey" fill="grey"/>
   </g>
   <g id="cell32">
  <circle cx="319.499" cy="595.194" r="1.29359" stroke-width="0.5" stroke="black" fill="grey"/>
  <circle cx="319.499" cy="595.194" r="1.28695" stroke-width="0.5" stroke="black" fill="black"/>
   </g>
   <g id="cell33">
  <circle cx="310.636" cy="554.328" r="1.88983" stroke-width="0.5" stroke="black" fill="grey"/>
  <circle cx="310.636" cy="554.328" r="1.85558" stroke-width="0.5" stroke="black" fill="black"/>
   </g>
   <g id="cell34">
  <circle cx="435.362" cy="649.251" r="1.65305" stroke-width="0.5" stroke="black" fill="grey"/>
  <circle cx="435.362" cy="649.251" r="1.61721" stroke-width="0.5" stroke="black" fill="black"/>
   </g>
   <g id="cell35">
  <circle cx="943.28" cy="95.1365" r="8.41271" stroke-width="0.5" stroke="black" fill="grey"/>
  <circle cx="943.28" cy="95.1365" r="5.05167" stroke-width="0.5" stroke="grey" fill="grey"/>
   </g>
   <g id="cell36">
  <circle cx="208.916" cy="622.395" r="1.45214" stroke-width="0.5" stroke="black" fill="grey"/>
  <circle cx="208.916" cy="622.395" r="1.43612" stroke-width="0.5" stroke="black" fill="black"/>
   </g>
   <g id="cell37">
  <circle cx="991.105" cy="649.704" r="1.38109" stroke-width="0.5" stroke="black" fill="grey"/>
  <circle cx="991.105" cy="649.704" r="1.3695" stroke-width="0.5" stroke="black" fill="black"/>
   </g>
   <g id="cell38">
  <circle cx="228.983" cy="445.784" r="3.95232" stroke-width="0.5" stroke="black" fill="grey"/>
  <circle cx="228.983" cy="445.784" r="3.16976" stroke-width="0.5" stroke="black" fill="black"/>
   </g>
   <g id="cell39">
  <circle cx="496.525" cy="254.099" r="1.38109" stroke-width="0.5" stroke="black" fill="grey"/>
  <circle cx="496.525" cy="254.099" r="1.3695" stroke-width="0.5" stroke="black" fill="black"/>
   </g>
   <g id="cell40">
  <circle cx="181.01" cy="353.054" r="10.2433" stroke-width="0.5" stroke="black" fill="red"/>
  <circle cx="181.01" cy="353.054" r="6.19748" stroke-width="0.5" stroke="red" fill="red"/>
   </g>
   <g id="cell41">
  <circle cx="681.502" cy="691.852" r="10.3247" stroke-width="0.5" stroke="black" fill="red"/>
  <circle cx="681.502" cy="691.852" r="6.23971" stroke-width="0.5" stroke="red" fill="red"/>
   </g>
   <g id="cell42">
  <circle cx="171.694" cy="731.762" r="10.3247" stroke-width="0.5" stroke="black" fill="red"/>
  <circle cx="171.694" cy="731.762" r="6.23971" stroke-width="0.5" stroke="red" fill="red"/>
   </g>
   <g id="cell43">
  <circle cx="931.109" cy="371.096" r="9.99984" stroke-width="0.5" stroke="black" fill="red"/>
  <circle cx="931.109" cy="371.096" r="6.06503" stroke-width="0.5" stroke="red" fill="red"/>
   </g>
   <g id="cell44">
  <circle cx="816.162" cy="12.7488" r="10.2328" stroke-width="0.5" stroke="black" fill="red"/>
  <circle cx="816.162" cy="12.7488" r="6.19197" stroke-width="0.5" stroke="red" fill="red"/>
   </g>
   <g id="cell45">
  <circle cx="646.041" cy="825.748" r="9.64936" stroke-width="0.5" stroke="black" fill="red"/>
  <circle cx="646.041" cy="825.748" r="5.86329" stroke-width="0.5" stroke="red" fill="red"/>
   </g>
   <g id="cell46">
  <circle cx="50.1205" cy="944.319" r="10.3615" stroke-width="0.5" stroke="black" fill="red"/>
  <circle cx="50.1205" cy="944.319" r="6.25834" stroke-width="0.5" stroke="red" fill="red"/>
   </g>
   <g id="cell47">
  <circle cx="873.826" cy="437.526" r="10.2821" stroke-width="0.5" stroke="black" fill="red"/>
  <circle cx="873.826" cy="437.526" r="6.21778" stroke-width="0.5" stroke="red" fill="red"/>
   </g>
   <g id="cell48">
  <circle cx="944.378" cy="49.269" r="10.3873" stroke-width="0.5" stroke="black" fill="red"/>
  <circle cx="944.378" cy="49.269" r="6.2712" stroke-width="0.5" stroke="red" fill="red"/>
   </g>
   <g id="cell49">
  <circle cx="474.606" cy="778.818" r="10.0169" stroke-width="0.5" stroke="black" fill="red"/>
  <circle cx="474.606" cy="778.818" r="6.07458" stroke-width="0.5" stroke="red" fill="red"/>
   </g>
   <g id="cell50">
  <circle cx="27.6004" cy="472.458" r="10.4208" stroke-width="0.5" stroke="black" fill="red"/>
  <circle cx="27.6004" cy="472.458" r="6.28762" stroke-width="0.5" stroke="red" fill="red"/>
   </g>
   <g id="cell51">
  <circle cx="978.661" cy="137.169" r="10.3933" stroke-width="0.5" stroke="black" fill="red"/>
  <circle cx="978.661" cy="137.169" r="6.27417" stroke-width="0.5" stroke="red" fill="red"/>
   </g>
   <g id="cell52">
  <circle cx="289.862" cy="499.505" r="2.30099" stroke-width="0.5" stroke="black" fill="red"/>
  <circle cx="289.862" cy="499.505" r="2.10017" stroke-width="0.5" stroke="black" fill="black"/>
   </g>
   <g id="cell53">
  <circle cx="705.393" cy="338.118" r="10.3615" stroke-width="0.5" stroke="black" fill="red"/>
  <circle cx="705.393" cy="338.118" r="6.25834" stroke-width="0.5" stroke="red" fill="red"/>
   </g>
   <g id="cell54">
  <circle cx="445.262" cy="941.162" r="10.1098" stroke-width="0.5" stroke="black" fill="red"/>
  <circle cx="445.262" cy="941.162" r="6.12585" stroke-width="0.5" stroke="red" fill="red"/>
   </g>
   <g id="cell55">
  <circle cx="241.648" cy="694.674" r="8.41271" stroke-width="0.5" stroke="black" fill="red"/>
  <circle cx="241.648" cy="694.674" r="5.05167" stroke-width="0.5" stroke="red" fill="red"/>
   </g>
   <g id="cell56">
  <circle cx="552.752" cy="801.342" r="10.2534" stroke-width="0.5" stroke="black" fill="red"/>
  <circle cx="552.752" cy="801.342" r="6.2028" stroke-width="0.5" stroke="red" fill="red"/>
   </g>
   <g id="cell57">
  <circle cx="480.833" cy="553.728" r="10.3084" stroke-width="0.5" stroke="black" fill="red"/>
  <circle cx="480.833" cy="553.728" r="6.23137" stroke-width="0.5" stroke="red" fill="red"/>
   </g>
   <g id="cell58">
  <circle cx="84.5068" cy="933.64" r="10.1238" stroke-width="0.5" stroke="black" fill="red"/>
  <circle cx="84.5068" cy="933.64" r="6.13347" stroke-width="0.5" stroke="red" fill="red"/>
   </g>
   <g id="cell59">
  <circle cx="85.5853" cy="951.614" r="10.0336" stroke-width="0.5" stroke="black" fill="red"/>
  <circle cx="85.5853" cy="951.614" r="6.08382" stroke-width="0.5" stroke="red" fill="red"/>
   </g>
   <g id="cell60">
  <circle cx="274.975" cy="32.6536" r="9.90658" stroke-width="0.5" stroke="black" fill="red"/>
  <circle cx="274.975" cy="32.6536" r="6.01243" stroke-width="0.5" stroke="red" fill="red"/>
   </g>
   <g id="cell61">
  <circle cx="849.487" cy="135.916" r="10.1238" stroke-width="0.5" stroke="black" fill="red"/>
  <circle cx="849.487" cy="135.916" r="6.13347" stroke-width="0.5" stroke="red" fill="red"/>
   </g>
   <g id="cell62">
  <circle cx="707.818" cy="824.723" r="8.41271" stroke-width="0.5" stroke="black" fill="red"/>
  <circle cx="707.818" cy="824.723" r="5.05167" stroke-width="0.5" stroke="red" fill="red"/>
   </g>
   <g id="cell63">
  <circle cx="311.33" cy="182.053" r="10.2911" stroke-width="0.5" stroke="black" fill="red"/>
  <circle cx="311.33" cy="182.053" r="6.22246" stroke-width="0.5" stroke="red" fill="red"/>
   </g>
   <g id="cell64">
  <circle cx="565.229" cy="545.151" r="8.41271" stroke-width="0.5" stroke="black" fill="red"/>
  <circle cx="565.229" cy="545.151" r="5.05167" stroke-width="0.5" stroke="red" fill="red"/>
   </g>
   <g id="cell65">
  <circle cx="213.922" cy="843.416" r="8.84788" stroke-width="0.5" stroke="black" fill="red"/>
  <circle cx="213.922" cy="843.416" r="5.36278" stroke-width="0.5" stroke="red" fill="red"/>
   </g>
   <g id="cell66">
  <circle cx="34.384" cy="143.771" r="9.75192" stroke-width="0.5" stroke="black" fill="red"/>
  <circle cx="34.384" cy="143.771" r="5.92342" stroke-width="0.5" stroke="red" fill="red"/>
   </g>
   <g id="cell67">
  <circle cx="518.503" cy="279.05" r="9.64936" stroke-width="0.5" stroke="black" fill="red"/>
  <circle cx="518.503" cy="279.05" r="5.86329" stroke-width="0.5" stroke="red" fill="red"/>
   </g>
   <g id="cell68">
  <circle cx="740.961" cy="273.274" r="10.34" stroke-width="0.5" stroke="black" fill="red"/>
  <circle cx="740.961" cy="273.274" r="6.24753" stroke-width="0.5" stroke="red" fill="red"/>
   </g>
   <g id="cell69">
  <circle cx="430.916" cy="280.866" r="9.90658" stroke-width="0.5" stroke="black" fill="red"/>
  <circle cx="430.916" cy="280.866" r="6.01243" stroke-width="0.5" stroke="red" fill="red"/>
   </g>
   <g id="cell70">
  <circle cx="563.335" cy="403.744" r="10.0336" stroke-width="0.5" stroke="black" fill="red"/>
  <circle cx="563.335" cy="403.744" r="6.08382" stroke-width="0.5" stroke="red" fill="red"/>
   </g>
   <g id="cell71">
  <circle cx="887.851" cy="529.74" r="10.3873" stroke-width="0.5" stroke="black" fill="red"/>
  <circle cx="887.851" cy="529.74" r="6.2712" stroke-width="0.5" stroke="red" fill="red"/>
   </g>
   <g id="cell72">
  <circle cx="225.303" cy="882.069" r="10.2632" stroke-width="0.5" stroke="black" fill="red"/>
  <circle cx="225.303" cy="882.069" r="6.20796" stroke-width="0.5" stroke="red" fill="red"/>
   </g>
   <g id="cell73">
  <circle cx="696.705" cy="470.812" r="10.3474" stroke-width="0.5" stroke="black" fill="red"/>
  <circle cx="696.705" cy="470.812" r="6.25125" stroke-width="0.5" stroke="red" fill="red"/>
   </g>
   <g id="cell74">
  <circle cx="827.246" cy="990.518" r="10.1098" stroke-width="0.5" stroke="black" fill="red"/>
  <circle cx="827.246" cy="990.518" r="6.12585" stroke-width="0.5" stroke="red" fill="red"/>
   </g>
   <g id="cell75">
  <circle cx="108.655" cy="326.326" r="10.3325" stroke-width="0.5" stroke="black" fill="red"/>
  <circle cx="108.655" cy="326.326" r="6.24369" stroke-width="0.5" stroke="red" fill="red"/>
   </g>
   <g id="cell76">
  <circle cx="792.436" cy="382.008" r="10.0806" stroke-width="0.5" stroke="black" fill="red"/>
  <circle cx="792.436" cy="382.008" r="6.10985" stroke-width="0.5" stroke="red" fill="red"/>
   </g>
   <g id="cell77">
  <circle cx="640.258" cy="856.502" r="10.2221" stroke-width="0.5" stroke="black" fill="red"/>
  <circle cx="640.258" cy="856.502" r="6.18628" stroke-width="0.5" stroke="red" fill="red"/>
   </g>
   <g id="cell78">
  <circle cx="601.93" cy="283.872" r="10.1506" stroke-width="0.5" stroke="black" fill="red"/>
  <circle cx="601.93" cy="283.872" r="6.14798" stroke-width="0.5" stroke="red" fill="red"/>
   </g>
   <g id="cell79">
  <circle cx="962.369" cy="714.717" r="9.67603" stroke-width="0.5" stroke="black" fill="red"/>
  <circle cx="962.369" cy="714.717" r="5.87901" stroke-width="0.5" stroke="red" fill="red"/>
   </g>
   <g id="cell80">
  <circle cx="738.854" cy="675.996" r="8.41271" stroke-width="0.5" stroke="black" fill="yellow"/>
  <circle cx="738.854" cy="675.996" r="5.05167" stroke-width="0.5" stroke="yellow" fill="yellow"/>
   </g>
   <g id="cell81">
  <circle cx="505.47" cy="983.581" r="8.41271" stroke-width="0.5" stroke="black" fill="yellow"/>
  <circle cx="505.47" cy="983.581" r="5.05167" stroke-width="0.5" stroke="yellow" fill="yellow"/>
   </g>
   <g id="cell82">
  <circle cx="658.533" cy="431.08" r="10.2821" stroke-width="0.5" stroke="black" fill="yellow"/>
  <circle cx="658.533" cy="431.08" r="6.21778" stroke-width="0.5" stroke="yellow" fill="yellow"/>
   </g>
   <g id="cell83">
  <circle cx="612.967" cy="594.379" r="10.211" stroke-width="0.5" stroke="black" fill="yellow"/>
  <circle cx="612.967" cy="594.379" r="6.18041" stroke-width="0.5" stroke="yellow" fill="yellow"/>
   </g>
   <g id="cell84">
  <circle cx="32.7785" cy="485.449" r="9.75192" stroke-width="0.5" stroke="black" fill="yellow"/>
  <circle cx="32.7785" cy="485.449" r="5.92342" stroke-width="0.5" stroke="yellow" fill="yellow"/>
   </g>
   <g id="cell85">
  <circle cx="712.962" cy="658.989" r="10.3474" stroke-width="0.5" stroke="black" fill="yellow"/>
  <circle cx="712.962" cy="658.989" r="6.25125" stroke-width="0.5" stroke="yellow" fill="yellow"/>
   </g>
   <g id="cell86">
  <circle cx="257.836" cy="423.991" r="9.16281" stroke-width="0.5" stroke="black" fill="yellow"/>
  <circle cx="257.836" cy="423.991" r="5.56677" stroke-width="0.5" stroke="yellow" fill="yellow"/>
   </g>
   <g id="cell87">
  <circle cx="762.713" cy="418.699" r="10.4102" stroke-width="0.5" stroke="black" fill="yellow"/>
  <circle cx="762.713" cy="418.699" r="6.2825" stroke-width="0.5" stroke="yellow" fill="yellow"/>
   </g>
   <g id="cell88">
  <circle cx="145.633" cy="102.545" r="10.1758" stroke-width="0.5" stroke="black" fill="yellow"/>
  <circle cx="145.633" cy="102.545" r="6.16159" stroke-width="0.5" stroke="yellow" fill="yellow"/>
   </g>
   <g id="cell89">
  <circle cx="54.1753" cy="553.866" r="9.41008" stroke-width="0.5" stroke="black" fill="yellow"/>
  <circle cx="54.1753" cy="553.866" r="5.71981" stroke-width="0.5" stroke="yellow" fill="yellow"/>
   </g>
   <g id="cell119">
  <circle cx="573.635" cy="29.4952" r="9.37686" stroke-width="0.5" stroke="black" fill="yellow"/>
  <circle cx="573.635" cy="29.4952" r="5.69955" stroke-width="0.5" stroke="yellow" fill="yellow"/>
   </g>
   <g id="cell91">
  <circle cx="60.4016" cy="647.021" r="9.7273" stroke-width="0.5" stroke="black" fill="yellow"/>
  <circle cx="60.4016" cy="647.021" r="5.90906" stroke-width="0.5" stroke="yellow" fill="yellow"/>
   </g>
   <g id="cell92">
  <circle cx="656.524" cy="298.081" r="10.1506" stroke-width="0.5" stroke="black" fill="yellow"/>
  <circle cx="656.524" cy="298.081" r="6.14798" stroke-width="0.5" stroke="yellow" fill="yellow"/>
   </g>
   <g id="cell93">
  <circle cx="210.785" cy="902.192" r="10.4102" stroke-width="0.5" stroke="black" fill="yellow"/>
  <circle cx="210.785" cy="902.192" r="6.2825" stroke-width="0.5" stroke="yellow" fill="yellow"/>
   </g>
   <g id="cell94">
  <circle cx="376.563" cy="79.9302" r="9.96412" stroke-width="0.5" stroke="black" fill="yellow"/>
  <circle cx="376.563" cy="79.9302" r="6.04499" stroke-width="0.5" stroke="yellow" fill="yellow"/>
   </g>
   <g id="cell95">
  <circle cx="957.165" cy="892.336" r="10.0497" stroke-width="0.5" stroke="black" fill="yellow"/>
  <circle cx="957.165" cy="892.336" r="6.09278" stroke-width="0.5" stroke="yellow" fill="yellow"/>
   </g>
   <g id="cell96">
  <circle cx="796.54" cy="547.683" r="10.0654" stroke-width="0.5" stroke="black" fill="yellow"/>
  <circle cx="796.54" cy="547.683" r="6.10145" stroke-width="0.5" stroke="yellow" fill="yellow"/>
   </g>
   <g id="cell97">
  <circle cx="430.727" cy="119.637" r="8.96831" stroke-width="0.5" stroke="black" fill="yellow"/>
  <circle cx="430.727" cy="119.637" r="5.44228" stroke-width="0.5" stroke="yellow" fill="yellow"/>
   </g>
   <g id="cell98">
  <circle cx="943.879" cy="373.56" r="9.44256" stroke-width="0.5" stroke="black" fill="yellow"/>
  <circle cx="943.879" cy="373.56" r="5.73955" stroke-width="0.5" stroke="yellow" fill="yellow"/>
   </g>
   <g id="cell99">
  <circle cx="516.766" cy="985.695" r="9.64936" stroke-width="0.5" stroke="black" fill="yellow"/>
  <circle cx="516.766" cy="985.695" r="5.86329" stroke-width="0.5" stroke="yellow" fill="yellow"/>
   </g>
   <g id="cell100">
  <circle cx="145.887" cy="830.313" r="10.3545" stroke-width="0.5" stroke="black" fill="yellow"/>
  <circle cx="145.887" cy="830.313" r="6.25485" stroke-width="0.5" stroke="yellow" fill="yellow"/>
   </g>
   <g id="cell101">
  <circle cx="83.3665" cy="135.32" r="8.41271" stroke-width="0.5" stroke="black" fill="yellow"/>
  <circle cx="83.3665" cy="135.32" r="5.05167" stroke-width="0.5" stroke="yellow" fill="yellow"/>
   </g>
   <g id="cell102">
  <circle cx="621.511" cy="159.101" r="10.0654" stroke-width="0.5" stroke="black" fill="yellow"/>
  <circle cx="621.511" cy="159.101" r="6.10145" stroke-width="0.5" stroke="yellow" fill="yellow"/>
   </g>
   <g id="cell103">
  <circle cx="819.743" cy="875.098" r="8.41271" stroke-width="0.5" stroke="black" fill="yellow"/>
  <circle cx="819.743" cy="875.098" r="5.05167" stroke-width="0.5" stroke="yellow" fill="yellow"/>
   </g>
   <g id="cell104">
  <circle cx="798.996" cy="409.12" r="10.3991" stroke-width="0.5" stroke="black" fill="yellow"/>
  <circle cx="798.996" cy="409.12" r="6.27703" stroke-width="0.5" stroke="yellow" fill="yellow"/>
   </g>
   <g id="cell105">
  <circle cx="119.568" cy="415.067" r="8.41271" stroke-width="0.5" stroke="black" fill="yellow"/>
  <circle cx="119.568" cy="415.067" r="5.05167" stroke-width="0.5" stroke="yellow" fill="yellow"/>
   </g>
   <g id="cell106">
  <circle cx="28.961" cy="970.64" r="10.3325" stroke-width="0.5" stroke="black" fill="yellow"/>
  <circle cx="28.961" cy="970.64" r="6.24369" stroke-width="0.5" stroke="yellow" fill="yellow"/>
   </g>
   <g id="cell107">
  <circle cx="367.162" cy="453.293" r="8.41271" stroke-width="0.5" stroke="black" fill="yellow"/>
  <circle cx="367.162" cy="453.293" r="5.05167" stroke-width="0.5" stroke="yellow" fill="yellow"/>
   </g>
   <g id="cell108">
  <circle cx="701.203" cy="50.166" r="10.4048" stroke-width="0.5" stroke="black" fill="yellow"/>
  <circle cx="701.203" cy="50.166" r="6.27981" stroke-width="0.5" stroke="yellow" fill="yellow"/>
   </g>
   <g id="cell109">
  <circle cx="371.094" cy="944.025" r="10.0336" stroke-width="0.5" stroke="black" fill="yellow"/>
  <circle cx="371.094" cy="944.025" r="6.08382" stroke-width="0.5" stroke="yellow" fill="yellow"/>
   </g>
   <g id="cell110">
  <circle cx="845.116" cy="227.588" r="8.41271" stroke-width="0.5" stroke="black" fill="yellow"/>
  <circle cx="845.116" cy="227.588" r="5.05167" stroke-width="0.5" stroke="yellow" fill="yellow"/>
   </g>
   <g id="cell111">
  <circle cx="770.15" cy="373.242" r="8.96831" stroke-width="0.5" stroke="black" fill="yellow"/>
  <circle cx="770.15" cy="373.242" r="5.44228" stroke-width="0.5" stroke="yellow" fill="yellow"/>
   </g>
   <g id="cell112">
  <circle cx="738.774" cy="772.228" r="10.34" stroke-width="0.5" stroke="black" fill="yellow"/>
  <circle cx="738.774" cy="772.228" r="6.24753" stroke-width="0.5" stroke="yellow" fill="yellow"/>
   </g>
   <g id="cell113">
  <circle cx="347.194" cy="522.062" r="1.214" stroke-width="0.5" stroke="black" fill="yellow"/>
  <circle cx="347.194" cy="522.062" r="1.20991" stroke-width="0.5" stroke="black" fill="black"/>
   </g>
   <g id="cell114">
  <circle cx="22.8754" cy="354.334" r="9.96412" stroke-width="0.5" stroke="black" fill="yellow"/>
  <circle cx="22.8754" cy="354.334" r="6.04499" stroke-width="0.5" stroke="yellow" fill="yellow"/>
   </g>
   <g id="cell115">
  <circle cx="220.14" cy="24.365" r="10.2728" stroke-width="0.5" stroke="black" fill="yellow"/>
  <circle cx="220.14" cy="24.365" r="6.21295" stroke-width="0.5" stroke="yellow" fill="yellow"/>
   </g>
   <g id="cell116">
  <circle cx="809.552" cy="488.328" r="8.65127" stroke-width="0.5" stroke="black" fill="yellow"/>
  <circle cx="809.552" cy="488.328" r="5.2272" stroke-width="0.5" stroke="yellow" fill="yellow"/>
   </g>
  </g>
 </g>
  <rect x="775" y="1035" width="200" height="10" stroke-width="2" stroke="rgb(255,255,255)" fill="rgb(0,0,0)"/>
  <text x="781.25" y="1028.75"
   font-family="Arial" font-size="25" fill="black" >
   200 &#956;m
  </text>
  <text x="25" y="1045"
   font-family="Arial" font-size="18.75" fill="black" >
   0 days, 0 hours, 0 minutes, and 38.2776 seconds
  </text>
  <rect x="0" y="70" width="1000" height="1000" stroke-width="2" stroke="rgb(0,0,0)" fill="none"/>
</svg>
