<?xml version="1.0" encoding="UTF-8" standalone="no"?>
<!-- Created with PhysiCell (http://PhysiCell.MathCancer.org/) -->
<svg 
 xmlns:dc="http://purl.org/dc/elements/1.1/" 
 xmlns:cc="http://creativecommons.org/ns#" 
 xmlns:rdf="http://www.w3.org/1999/02/22-rdf-syntax-ns#" 
 xmlns:svg="http://www.w3.org/2000/svg" 
 xmlns="http://www.w3.org/2000/svg" 
 version="1.1" 
 width="1000" 
 height="1070" 
 id="svg2">
  <rect x="0" y="0" width="1000" height="1070" stroke-width="2" stroke="white" fill="white"/>
  <text x="12.5" y="30"
   font-family="Arial" font-size="25" fill="black" >
   Current time: 0 days, 21 hours, and 30.00 minutes, z = 0.00 &#956;m
  </text>
  <text x="12.5" y="57.5"
   font-family="Arial" font-size="23.75" fill="black" >
   154 agents
  </text>
 <g id="tissue" 
    transform="translate(0,1070) scale(1,-1)">
  <g id="ECM">
  </g>
  <g id="cells">
   <g id="cell0">
  <circle cx="508.724" cy="647.363" r="10.0133" stroke-width="0.5" stroke="black" fill="grey"/>
  <circle cx="508.724" cy="647.363" r="6.07347" stroke-width="0.5" stroke="grey" fill="grey"/>
   </g>
   <g id="cell118">
  <circle cx="858.862" cy="593.038" r="8.4065" stroke-width="0.5" stroke="black" fill="yellow"/>
  <circle cx="858.862" cy="593.038" r="5.04982" stroke-width="0.5" stroke="yellow" fill="yellow"/>
   </g>
   <g id="cell100">
  <circle cx="137.805" cy="797.128" r="9.95944" stroke-width="0.5" stroke="black" fill="yellow"/>
  <circle cx="137.805" cy="797.128" r="6.04352" stroke-width="0.5" stroke="yellow" fill="yellow"/>
   </g>
   <g id="cell3">
  <circle cx="616.467" cy="616.692" r="9.79462" stroke-width="0.5" stroke="black" fill="grey"/>
  <circle cx="616.467" cy="616.692" r="5.94941" stroke-width="0.5" stroke="grey" fill="grey"/>
   </g>
   <g id="cell103">
  <circle cx="834.275" cy="863.406" r="10.3084" stroke-width="0.5" stroke="black" fill="yellow"/>
  <circle cx="834.275" cy="863.406" r="6.23137" stroke-width="0.5" stroke="yellow" fill="yellow"/>
   </g>
   <g id="cell135">
  <circle cx="155.253" cy="799.383" r="8.88223" stroke-width="0.5" stroke="black" fill="yellow"/>
  <circle cx="155.253" cy="799.383" r="5.38769" stroke-width="0.5" stroke="yellow" fill="yellow"/>
   </g>
   <g id="cell6">
  <circle cx="385.987" cy="484.758" r="1.49866" stroke-width="0.5" stroke="black" fill="grey"/>
  <circle cx="385.987" cy="484.758" r="1.4932" stroke-width="0.5" stroke="black" fill="black"/>
   </g>
   <g id="cell7">
  <circle cx="883.786" cy="499.1" r="9.49748" stroke-width="0.5" stroke="black" fill="grey"/>
  <circle cx="883.786" cy="499.1" r="5.77481" stroke-width="0.5" stroke="grey" fill="grey"/>
   </g>
   <g id="cell8">
  <circle cx="587.455" cy="419.288" r="2.10469" stroke-width="0.5" stroke="black" fill="grey"/>
  <circle cx="587.455" cy="419.288" r="2.05635" stroke-width="0.5" stroke="black" fill="black"/>
   </g>
   <g id="cell112">
  <circle cx="746.581" cy="745.126" r="8.40576" stroke-width="0.5" stroke="black" fill="yellow"/>
  <circle cx="746.581" cy="745.126" r="5.04957" stroke-width="0.5" stroke="yellow" fill="yellow"/>
   </g>
   <g id="cell176">
  <circle cx="245.099" cy="80.5864" r="8.39473" stroke-width="0.5" stroke="black" fill="red"/>
  <circle cx="245.099" cy="80.5864" r="5.04562" stroke-width="0.5" stroke="red" fill="red"/>
   </g>
   <g id="cell11">
  <circle cx="330.059" cy="826.206" r="1.5226" stroke-width="0.5" stroke="black" fill="grey"/>
  <circle cx="330.059" cy="826.206" r="1.51632" stroke-width="0.5" stroke="black" fill="black"/>
   </g>
   <g id="cell104">
  <circle cx="761.266" cy="395.647" r="9.81792" stroke-width="0.5" stroke="black" fill="yellow"/>
  <circle cx="761.266" cy="395.647" r="5.96272" stroke-width="0.5" stroke="yellow" fill="yellow"/>
   </g>
   <g id="cell102">
  <circle cx="612.346" cy="165.18" r="8.39874" stroke-width="0.5" stroke="black" fill="yellow"/>
  <circle cx="612.346" cy="165.18" r="5.04711" stroke-width="0.5" stroke="yellow" fill="yellow"/>
   </g>
   <g id="cell98">
  <circle cx="889.542" cy="384.364" r="10.5618" stroke-width="0.5" stroke="black" fill="yellow"/>
  <circle cx="889.542" cy="384.364" r="6.3513" stroke-width="0.5" stroke="yellow" fill="yellow"/>
   </g>
   <g id="cell97">
  <circle cx="434.853" cy="103.084" r="10.5452" stroke-width="0.5" stroke="black" fill="yellow"/>
  <circle cx="434.853" cy="103.084" r="6.3445" stroke-width="0.5" stroke="yellow" fill="yellow"/>
   </g>
   <g id="cell16">
  <circle cx="134.527" cy="727.524" r="9.61554" stroke-width="0.5" stroke="black" fill="grey"/>
  <circle cx="134.527" cy="727.524" r="5.84498" stroke-width="0.5" stroke="grey" fill="grey"/>
   </g>
   <g id="cell116">
  <circle cx="812.441" cy="439.415" r="10.5314" stroke-width="0.5" stroke="black" fill="yellow"/>
  <circle cx="812.441" cy="439.415" r="6.33867" stroke-width="0.5" stroke="yellow" fill="yellow"/>
   </g>
   <g id="cell177">
  <circle cx="451.674" cy="297.667" r="8.39473" stroke-width="0.5" stroke="black" fill="red"/>
  <circle cx="451.674" cy="297.667" r="5.04562" stroke-width="0.5" stroke="red" fill="red"/>
   </g>
   <g id="cell101">
  <circle cx="111.094" cy="154.416" r="10.4355" stroke-width="0.5" stroke="black" fill="yellow"/>
  <circle cx="111.094" cy="154.416" r="6.2947" stroke-width="0.5" stroke="yellow" fill="yellow"/>
   </g>
   <g id="cell184">
  <circle cx="514.297" cy="273.373" r="8.43184" stroke-width="0.5" stroke="black" fill="red"/>
  <circle cx="514.297" cy="273.373" r="5.0745" stroke-width="0.5" stroke="red" fill="red"/>
   </g>
   <g id="cell99">
  <circle cx="506.956" cy="978.713" r="8.38823" stroke-width="0.5" stroke="black" fill="yellow"/>
  <circle cx="506.956" cy="978.713" r="5.04313" stroke-width="0.5" stroke="yellow" fill="yellow"/>
   </g>
   <g id="cell115">
  <circle cx="192.566" cy="19.6384" r="8.84003" stroke-width="0.5" stroke="black" fill="yellow"/>
  <circle cx="192.566" cy="19.6384" r="5.36019" stroke-width="0.5" stroke="yellow" fill="yellow"/>
   </g>
   <g id="cell108">
  <circle cx="708.096" cy="37.302" r="1.80407" stroke-width="0.5" stroke="black" fill="yellow"/>
  <circle cx="708.096" cy="37.302" r="1.78558" stroke-width="0.5" stroke="black" fill="black"/>
   </g>
   <g id="cell153">
  <circle cx="169.165" cy="416.97" r="9.40253" stroke-width="0.5" stroke="black" fill="red"/>
  <circle cx="169.165" cy="416.97" r="5.71729" stroke-width="0.5" stroke="red" fill="red"/>
   </g>
   <g id="cell105">
  <circle cx="81.1484" cy="414.895" r="10.3474" stroke-width="0.5" stroke="black" fill="yellow"/>
  <circle cx="81.1484" cy="414.895" r="6.25125" stroke-width="0.5" stroke="yellow" fill="yellow"/>
   </g>
   <g id="cell26">
  <circle cx="652.389" cy="464.482" r="9.5306" stroke-width="0.5" stroke="black" fill="grey"/>
  <circle cx="652.389" cy="464.482" r="5.79401" stroke-width="0.5" stroke="grey" fill="grey"/>
   </g>
   <g id="cell117">
  <circle cx="885.602" cy="384.897" r="10.5496" stroke-width="0.5" stroke="black" fill="yellow"/>
  <circle cx="885.602" cy="384.897" r="6.34633" stroke-width="0.5" stroke="yellow" fill="yellow"/>
   </g>
   <g id="cell28">
  <circle cx="690.658" cy="135.312" r="8.40516" stroke-width="0.5" stroke="black" fill="grey"/>
  <circle cx="690.658" cy="135.312" r="5.04937" stroke-width="0.5" stroke="grey" fill="grey"/>
   </g>
   <g id="cell29">
  <circle cx="934.318" cy="656.592" r="8.40667" stroke-width="0.5" stroke="black" fill="grey"/>
  <circle cx="934.318" cy="656.592" r="5.04987" stroke-width="0.5" stroke="grey" fill="grey"/>
   </g>
   <g id="cell30">
  <circle cx="755.012" cy="124.222" r="10.542" stroke-width="0.5" stroke="black" fill="grey"/>
  <circle cx="755.012" cy="124.222" r="6.34318" stroke-width="0.5" stroke="grey" fill="grey"/>
   </g>
   <g id="cell31">
  <circle cx="415.138" cy="106.68" r="1.89034" stroke-width="0.5" stroke="black" fill="grey"/>
  <circle cx="415.138" cy="106.68" r="1.86512" stroke-width="0.5" stroke="black" fill="black"/>
   </g>
   <g id="cell114">
  <circle cx="57.6949" cy="331.886" r="8.39618" stroke-width="0.5" stroke="black" fill="yellow"/>
  <circle cx="57.6949" cy="331.886" r="5.04616" stroke-width="0.5" stroke="yellow" fill="yellow"/>
   </g>
   <g id="cell107">
  <circle cx="369.845" cy="438.528" r="10.4208" stroke-width="0.5" stroke="black" fill="yellow"/>
  <circle cx="369.845" cy="438.528" r="6.28762" stroke-width="0.5" stroke="yellow" fill="yellow"/>
   </g>
   <g id="cell106">
  <circle cx="25.2264" cy="929.664" r="9.69664" stroke-width="0.5" stroke="black" fill="yellow"/>
  <circle cx="25.2264" cy="929.664" r="5.89253" stroke-width="0.5" stroke="yellow" fill="yellow"/>
   </g>
   <g id="cell35">
  <circle cx="934.883" cy="69.3249" r="10.2632" stroke-width="0.5" stroke="black" fill="grey"/>
  <circle cx="934.883" cy="69.3249" r="6.20796" stroke-width="0.5" stroke="grey" fill="grey"/>
   </g>
   <g id="cell109">
  <circle cx="363.777" cy="973.984" r="8.39794" stroke-width="0.5" stroke="black" fill="yellow"/>
  <circle cx="363.777" cy="973.984" r="5.04681" stroke-width="0.5" stroke="yellow" fill="yellow"/>
   </g>
   <g id="cell111">
  <circle cx="772.271" cy="353.701" r="10.5452" stroke-width="0.5" stroke="black" fill="yellow"/>
  <circle cx="772.271" cy="353.701" r="6.3445" stroke-width="0.5" stroke="yellow" fill="yellow"/>
   </g>
   <g id="cell131">
  <circle cx="641.443" cy="594.217" r="9.19495" stroke-width="0.5" stroke="black" fill="grey"/>
  <circle cx="641.443" cy="594.217" r="5.58854" stroke-width="0.5" stroke="grey" fill="grey"/>
   </g>
   <g id="cell110">
  <circle cx="872.718" cy="277.438" r="10.3933" stroke-width="0.5" stroke="black" fill="yellow"/>
  <circle cx="872.718" cy="277.438" r="6.27417" stroke-width="0.5" stroke="yellow" fill="yellow"/>
   </g>
   <g id="cell40">
  <circle cx="152.079" cy="408.808" r="9.11686" stroke-width="0.5" stroke="black" fill="red"/>
  <circle cx="152.079" cy="408.808" r="5.54012" stroke-width="0.5" stroke="red" fill="red"/>
   </g>
   <g id="cell41">
  <circle cx="690.555" cy="716.243" r="9.33696" stroke-width="0.5" stroke="black" fill="red"/>
  <circle cx="690.555" cy="716.243" r="5.6768" stroke-width="0.5" stroke="red" fill="red"/>
   </g>
   <g id="cell42">
  <circle cx="157.045" cy="719.801" r="8.50535" stroke-width="0.5" stroke="black" fill="red"/>
  <circle cx="157.045" cy="719.801" r="5.12331" stroke-width="0.5" stroke="red" fill="red"/>
   </g>
   <g id="cell43">
  <circle cx="877.311" cy="397.435" r="8.49726" stroke-width="0.5" stroke="black" fill="red"/>
  <circle cx="877.311" cy="397.435" r="5.12042" stroke-width="0.5" stroke="red" fill="red"/>
   </g>
   <g id="cell44">
  <circle cx="848.985" cy="70.0943" r="8.56922" stroke-width="0.5" stroke="black" fill="red"/>
  <circle cx="848.985" cy="70.0943" r="5.17161" stroke-width="0.5" stroke="red" fill="red"/>
   </g>
   <g id="cell45">
  <circle cx="638.411" cy="842.856" r="8.38823" stroke-width="0.5" stroke="black" fill="red"/>
  <circle cx="638.411" cy="842.856" r="5.04313" stroke-width="0.5" stroke="red" fill="red"/>
   </g>
   <g id="cell46">
  <circle cx="47.1276" cy="940.74" r="8.40632" stroke-width="0.5" stroke="black" fill="red"/>
  <circle cx="47.1276" cy="940.74" r="5.04976" stroke-width="0.5" stroke="red" fill="red"/>
   </g>
   <g id="cell47">
  <circle cx="878.508" cy="435.978" r="9.0007" stroke-width="0.5" stroke="black" fill="red"/>
  <circle cx="878.508" cy="435.978" r="5.46563" stroke-width="0.5" stroke="red" fill="red"/>
   </g>
   <g id="cell48">
  <circle cx="932.725" cy="41.9451" r="9.86126" stroke-width="0.5" stroke="black" fill="red"/>
  <circle cx="932.725" cy="41.9451" r="5.98765" stroke-width="0.5" stroke="red" fill="red"/>
   </g>
   <g id="cell49">
  <circle cx="495.76" cy="769.924" r="8.39752" stroke-width="0.5" stroke="black" fill="red"/>
  <circle cx="495.76" cy="769.924" r="5.04666" stroke-width="0.5" stroke="red" fill="red"/>
   </g>
   <g id="cell50">
  <circle cx="16.9939" cy="460.355" r="8.76335" stroke-width="0.5" stroke="black" fill="red"/>
  <circle cx="16.9939" cy="460.355" r="5.30719" stroke-width="0.5" stroke="red" fill="red"/>
   </g>
   <g id="cell51">
  <circle cx="916.871" cy="141.732" r="9.61775" stroke-width="0.5" stroke="black" fill="red"/>
  <circle cx="916.871" cy="141.732" r="5.84576" stroke-width="0.5" stroke="red" fill="red"/>
   </g>
   <g id="cell96">
  <circle cx="814.72" cy="553.118" r="8.95602" stroke-width="0.5" stroke="black" fill="yellow"/>
  <circle cx="814.72" cy="553.118" r="5.43801" stroke-width="0.5" stroke="yellow" fill="yellow"/>
   </g>
   <g id="cell53">
  <circle cx="690.236" cy="311.689" r="9.90197" stroke-width="0.5" stroke="black" fill="red"/>
  <circle cx="690.236" cy="311.689" r="6.01098" stroke-width="0.5" stroke="red" fill="red"/>
   </g>
   <g id="cell54">
  <circle cx="427.149" cy="927.87" r="8.39987" stroke-width="0.5" stroke="black" fill="red"/>
  <circle cx="427.149" cy="927.87" r="5.04751" stroke-width="0.5" stroke="red" fill="red"/>
   </g>
   <g id="cell55">
  <circle cx="229.156" cy="674.649" r="10.4984" stroke-width="0.5" stroke="black" fill="red"/>
  <circle cx="229.156" cy="674.649" r="6.32406" stroke-width="0.5" stroke="red" fill="red"/>
   </g>
   <g id="cell56">
  <circle cx="563.428" cy="853.659" r="9.33547" stroke-width="0.5" stroke="black" fill="red"/>
  <circle cx="563.428" cy="853.659" r="5.67626" stroke-width="0.5" stroke="red" fill="red"/>
   </g>
   <g id="cell57">
  <circle cx="474.316" cy="551.181" r="9.46818" stroke-width="0.5" stroke="black" fill="red"/>
  <circle cx="474.316" cy="551.181" r="5.75674" stroke-width="0.5" stroke="red" fill="red"/>
   </g>
   <g id="cell58">
  <circle cx="41.0519" cy="907.267" r="8.87693" stroke-width="0.5" stroke="black" fill="red"/>
  <circle cx="41.0519" cy="907.267" r="5.38575" stroke-width="0.5" stroke="red" fill="red"/>
   </g>
   <g id="cell59">
  <circle cx="92.0097" cy="982.62" r="9.03468" stroke-width="0.5" stroke="black" fill="red"/>
  <circle cx="92.0097" cy="982.62" r="5.48898" stroke-width="0.5" stroke="red" fill="red"/>
   </g>
   <g id="cell60">
  <circle cx="262.655" cy="55.0855" r="8.39473" stroke-width="0.5" stroke="black" fill="red"/>
  <circle cx="262.655" cy="55.0855" r="5.04562" stroke-width="0.5" stroke="red" fill="red"/>
   </g>
   <g id="cell61">
  <circle cx="836.87" cy="128.437" r="8.40022" stroke-width="0.5" stroke="black" fill="red"/>
  <circle cx="836.87" cy="128.437" r="5.04764" stroke-width="0.5" stroke="red" fill="red"/>
   </g>
   <g id="cell62">
  <circle cx="726.298" cy="818.96" r="9.00806" stroke-width="0.5" stroke="black" fill="red"/>
  <circle cx="726.298" cy="818.96" r="5.46807" stroke-width="0.5" stroke="red" fill="red"/>
   </g>
   <g id="cell63">
  <circle cx="331.434" cy="150.285" r="8.4045" stroke-width="0.5" stroke="black" fill="red"/>
  <circle cx="331.434" cy="150.285" r="5.04914" stroke-width="0.5" stroke="red" fill="red"/>
   </g>
   <g id="cell64">
  <circle cx="591.702" cy="549.923" r="9.67603" stroke-width="0.5" stroke="black" fill="red"/>
  <circle cx="591.702" cy="549.923" r="5.87901" stroke-width="0.5" stroke="red" fill="red"/>
   </g>
   <g id="cell65">
  <circle cx="190.302" cy="844.985" r="1.68033" stroke-width="0.5" stroke="black" fill="red"/>
  <circle cx="190.302" cy="844.985" r="1.66758" stroke-width="0.5" stroke="black" fill="black"/>
   </g>
   <g id="cell66">
  <circle cx="38.098" cy="167.663" r="8.55752" stroke-width="0.5" stroke="black" fill="red"/>
  <circle cx="38.098" cy="167.663" r="5.16724" stroke-width="0.5" stroke="red" fill="red"/>
   </g>
   <g id="cell67">
  <circle cx="523.438" cy="255.838" r="8.38823" stroke-width="0.5" stroke="black" fill="red"/>
  <circle cx="523.438" cy="255.838" r="5.04313" stroke-width="0.5" stroke="red" fill="red"/>
   </g>
   <g id="cell68">
  <circle cx="751.818" cy="227.566" r="9.04145" stroke-width="0.5" stroke="black" fill="red"/>
  <circle cx="751.818" cy="227.566" r="5.49149" stroke-width="0.5" stroke="red" fill="red"/>
   </g>
   <g id="cell69">
  <circle cx="443.333" cy="279.248" r="8.39473" stroke-width="0.5" stroke="black" fill="red"/>
  <circle cx="443.333" cy="279.248" r="5.04562" stroke-width="0.5" stroke="red" fill="red"/>
   </g>
   <g id="cell70">
  <circle cx="528.65" cy="341.059" r="8.39794" stroke-width="0.5" stroke="black" fill="red"/>
  <circle cx="528.65" cy="341.059" r="5.04681" stroke-width="0.5" stroke="red" fill="red"/>
   </g>
   <g id="cell71">
  <circle cx="870.82" cy="538.341" r="9.90246" stroke-width="0.5" stroke="black" fill="red"/>
  <circle cx="870.82" cy="538.341" r="6.01115" stroke-width="0.5" stroke="red" fill="red"/>
   </g>
   <g id="cell72">
  <circle cx="196.153" cy="865.343" r="9.46726" stroke-width="0.5" stroke="black" fill="red"/>
  <circle cx="196.153" cy="865.343" r="5.75641" stroke-width="0.5" stroke="red" fill="red"/>
   </g>
   <g id="cell73">
  <circle cx="659.947" cy="420.689" r="8.53799" stroke-width="0.5" stroke="black" fill="red"/>
  <circle cx="659.947" cy="420.689" r="5.14746" stroke-width="0.5" stroke="red" fill="red"/>
   </g>
   <g id="cell74">
  <circle cx="859.331" cy="972.098" r="8.39987" stroke-width="0.5" stroke="black" fill="red"/>
  <circle cx="859.331" cy="972.098" r="5.04751" stroke-width="0.5" stroke="red" fill="red"/>
   </g>
   <g id="cell75">
  <circle cx="102.556" cy="326.283" r="9.40437" stroke-width="0.5" stroke="black" fill="red"/>
  <circle cx="102.556" cy="326.283" r="5.71795" stroke-width="0.5" stroke="red" fill="red"/>
   </g>
   <g id="cell76">
  <circle cx="789.819" cy="404.447" r="8.39913" stroke-width="0.5" stroke="black" fill="red"/>
  <circle cx="789.819" cy="404.447" r="5.04725" stroke-width="0.5" stroke="red" fill="red"/>
   </g>
   <g id="cell77">
  <circle cx="644.329" cy="848.976" r="8.60472" stroke-width="0.5" stroke="black" fill="red"/>
  <circle cx="644.329" cy="848.976" r="5.19752" stroke-width="0.5" stroke="red" fill="red"/>
   </g>
   <g id="cell78">
  <circle cx="593.572" cy="274.485" r="8.47127" stroke-width="0.5" stroke="black" fill="red"/>
  <circle cx="593.572" cy="274.485" r="5.09943" stroke-width="0.5" stroke="red" fill="red"/>
   </g>
   <g id="cell79">
  <circle cx="970.608" cy="681.642" r="8.38891" stroke-width="0.5" stroke="black" fill="red"/>
  <circle cx="970.608" cy="681.642" r="5.0434" stroke-width="0.5" stroke="red" fill="red"/>
   </g>
   <g id="cell80">
  <circle cx="749.357" cy="677.825" r="10.3747" stroke-width="0.5" stroke="black" fill="yellow"/>
  <circle cx="749.357" cy="677.825" r="6.26498" stroke-width="0.5" stroke="yellow" fill="yellow"/>
   </g>
   <g id="cell81">
  <circle cx="499.06" cy="985.119" r="9.30826" stroke-width="0.5" stroke="black" fill="yellow"/>
  <circle cx="499.06" cy="985.119" r="5.65742" stroke-width="0.5" stroke="yellow" fill="yellow"/>
   </g>
   <g id="cell82">
  <circle cx="666.525" cy="433.878" r="9.74564" stroke-width="0.5" stroke="black" fill="yellow"/>
  <circle cx="666.525" cy="433.878" r="5.92137" stroke-width="0.5" stroke="yellow" fill="yellow"/>
   </g>
   <g id="cell83">
  <circle cx="585.175" cy="570.99" r="8.99911" stroke-width="0.5" stroke="black" fill="yellow"/>
  <circle cx="585.175" cy="570.99" r="5.46505" stroke-width="0.5" stroke="yellow" fill="yellow"/>
   </g>
   <g id="cell84">
  <circle cx="13.7873" cy="515.733" r="8.39083" stroke-width="0.5" stroke="black" fill="yellow"/>
  <circle cx="13.7873" cy="515.733" r="5.04414" stroke-width="0.5" stroke="yellow" fill="yellow"/>
   </g>
   <g id="cell85">
  <circle cx="761.589" cy="659.921" r="9.81693" stroke-width="0.5" stroke="black" fill="yellow"/>
  <circle cx="761.589" cy="659.921" r="5.96238" stroke-width="0.5" stroke="yellow" fill="yellow"/>
   </g>
   <g id="cell86">
  <circle cx="310.065" cy="462.747" r="10.5523" stroke-width="0.5" stroke="black" fill="yellow"/>
  <circle cx="310.065" cy="462.747" r="6.34745" stroke-width="0.5" stroke="yellow" fill="yellow"/>
   </g>
   <g id="cell87">
  <circle cx="745.568" cy="406.461" r="8.4076" stroke-width="0.5" stroke="black" fill="yellow"/>
  <circle cx="745.568" cy="406.461" r="5.05018" stroke-width="0.5" stroke="yellow" fill="yellow"/>
   </g>
   <g id="cell88">
  <circle cx="153.555" cy="105.149" r="9.29914" stroke-width="0.5" stroke="black" fill="yellow"/>
  <circle cx="153.555" cy="105.149" r="5.65431" stroke-width="0.5" stroke="yellow" fill="yellow"/>
   </g>
   <g id="cell89">
  <circle cx="75.0511" cy="543.273" r="10.5607" stroke-width="0.5" stroke="black" fill="yellow"/>
  <circle cx="75.0511" cy="543.273" r="6.35087" stroke-width="0.5" stroke="yellow" fill="yellow"/>
   </g>
   <g id="cell119">
  <circle cx="575.009" cy="35.5235" r="2.88503" stroke-width="0.5" stroke="black" fill="yellow"/>
  <circle cx="575.009" cy="35.5235" r="2.63572" stroke-width="0.5" stroke="black" fill="black"/>
   </g>
   <g id="cell91">
  <circle cx="35.2688" cy="658.968" r="8.39021" stroke-width="0.5" stroke="black" fill="yellow"/>
  <circle cx="35.2688" cy="658.968" r="5.0439" stroke-width="0.5" stroke="yellow" fill="yellow"/>
   </g>
   <g id="cell92">
  <circle cx="644.207" cy="293.295" r="8.6783" stroke-width="0.5" stroke="black" fill="yellow"/>
  <circle cx="644.207" cy="293.295" r="5.25047" stroke-width="0.5" stroke="yellow" fill="yellow"/>
   </g>
   <g id="cell93">
  <circle cx="251.14" cy="859.838" r="8.4076" stroke-width="0.5" stroke="black" fill="yellow"/>
  <circle cx="251.14" cy="859.838" r="5.05018" stroke-width="0.5" stroke="yellow" fill="yellow"/>
   </g>
   <g id="cell94">
  <circle cx="370.943" cy="91.5507" r="8.39618" stroke-width="0.5" stroke="black" fill="yellow"/>
  <circle cx="370.943" cy="91.5507" r="5.04616" stroke-width="0.5" stroke="yellow" fill="yellow"/>
   </g>
   <g id="cell95">
  <circle cx="965.663" cy="909.518" r="8.99553" stroke-width="0.5" stroke="black" fill="yellow"/>
  <circle cx="965.663" cy="909.518" r="5.4637" stroke-width="0.5" stroke="yellow" fill="yellow"/>
   </g>
   <g id="cell121">
  <circle cx="12.1081" cy="496.855" r="8.40788" stroke-width="0.5" stroke="black" fill="red"/>
  <circle cx="12.1081" cy="496.855" r="5.05027" stroke-width="0.5" stroke="red" fill="red"/>
   </g>
   <g id="cell122">
  <circle cx="746.98" cy="448.835" r="9.74812" stroke-width="0.5" stroke="black" fill="yellow"/>
  <circle cx="746.98" cy="448.835" r="5.92224" stroke-width="0.5" stroke="yellow" fill="yellow"/>
   </g>
   <g id="cell123">
  <circle cx="267.232" cy="894.665" r="8.4076" stroke-width="0.5" stroke="black" fill="yellow"/>
  <circle cx="267.232" cy="894.665" r="5.05018" stroke-width="0.5" stroke="yellow" fill="yellow"/>
   </g>
   <g id="cell124">
  <circle cx="506.802" cy="645.52" r="8.72353" stroke-width="0.5" stroke="black" fill="grey"/>
  <circle cx="506.802" cy="645.52" r="5.27987" stroke-width="0.5" stroke="grey" fill="grey"/>
   </g>
   <g id="cell125">
  <circle cx="793.167" cy="389.757" r="9.90268" stroke-width="0.5" stroke="black" fill="yellow"/>
  <circle cx="793.167" cy="389.757" r="6.01123" stroke-width="0.5" stroke="yellow" fill="yellow"/>
   </g>
   <g id="cell126">
  <circle cx="988.518" cy="161.666" r="8.60894" stroke-width="0.5" stroke="black" fill="red"/>
  <circle cx="988.518" cy="161.666" r="5.19899" stroke-width="0.5" stroke="red" fill="red"/>
   </g>
   <g id="cell127">
  <circle cx="890.703" cy="521.594" r="9.8177" stroke-width="0.5" stroke="black" fill="red"/>
  <circle cx="890.703" cy="521.594" r="5.96264" stroke-width="0.5" stroke="red" fill="red"/>
   </g>
   <g id="cell128">
  <circle cx="931.366" cy="53.3875" r="8.407" stroke-width="0.5" stroke="black" fill="red"/>
  <circle cx="931.366" cy="53.3875" r="5.04998" stroke-width="0.5" stroke="red" fill="red"/>
   </g>
   <g id="cell129">
  <circle cx="956.263" cy="670.254" r="9.69746" stroke-width="0.5" stroke="black" fill="grey"/>
  <circle cx="956.263" cy="670.254" r="5.89282" stroke-width="0.5" stroke="grey" fill="grey"/>
   </g>
   <g id="cell130">
  <circle cx="901.443" cy="597.847" r="8.4065" stroke-width="0.5" stroke="black" fill="yellow"/>
  <circle cx="901.443" cy="597.847" r="5.04982" stroke-width="0.5" stroke="yellow" fill="yellow"/>
   </g>
   <g id="cell132">
  <circle cx="61.1273" cy="905.503" r="9.26764" stroke-width="0.5" stroke="black" fill="red"/>
  <circle cx="61.1273" cy="905.503" r="5.63384" stroke-width="0.5" stroke="red" fill="red"/>
   </g>
   <g id="cell133">
  <circle cx="673.422" cy="365.342" r="8.40632" stroke-width="0.5" stroke="black" fill="red"/>
  <circle cx="673.422" cy="365.342" r="5.04976" stroke-width="0.5" stroke="red" fill="red"/>
   </g>
   <g id="cell134">
  <circle cx="619.063" cy="441.017" r="8.40632" stroke-width="0.5" stroke="black" fill="grey"/>
  <circle cx="619.063" cy="441.017" r="5.04976" stroke-width="0.5" stroke="grey" fill="grey"/>
   </g>
   <g id="cell136">
  <circle cx="650.165" cy="426.271" r="8.72201" stroke-width="0.5" stroke="black" fill="red"/>
  <circle cx="650.165" cy="426.271" r="5.27934" stroke-width="0.5" stroke="red" fill="red"/>
   </g>
   <g id="cell137">
  <circle cx="772.648" cy="667.874" r="8.40596" stroke-width="0.5" stroke="black" fill="yellow"/>
  <circle cx="772.648" cy="667.874" r="5.04964" stroke-width="0.5" stroke="yellow" fill="yellow"/>
   </g>
   <g id="cell138">
  <circle cx="755.233" cy="236.782" r="9.86037" stroke-width="0.5" stroke="black" fill="red"/>
  <circle cx="755.233" cy="236.782" r="5.98734" stroke-width="0.5" stroke="red" fill="red"/>
   </g>
   <g id="cell139">
  <circle cx="781.893" cy="731.636" r="8.40576" stroke-width="0.5" stroke="black" fill="yellow"/>
  <circle cx="781.893" cy="731.636" r="5.04957" stroke-width="0.5" stroke="yellow" fill="yellow"/>
   </g>
   <g id="cell140">
  <circle cx="93.6749" cy="320.975" r="9.81665" stroke-width="0.5" stroke="black" fill="red"/>
  <circle cx="93.6749" cy="320.975" r="5.96228" stroke-width="0.5" stroke="red" fill="red"/>
   </g>
   <g id="cell141">
  <circle cx="32.5838" cy="974.85" r="9.7466" stroke-width="0.5" stroke="black" fill="yellow"/>
  <circle cx="32.5838" cy="974.85" r="5.92172" stroke-width="0.5" stroke="yellow" fill="yellow"/>
   </g>
   <g id="cell142">
  <circle cx="667.381" cy="656.458" r="8.40537" stroke-width="0.5" stroke="black" fill="red"/>
  <circle cx="667.381" cy="656.458" r="5.04944" stroke-width="0.5" stroke="red" fill="red"/>
   </g>
   <g id="cell143">
  <circle cx="132.014" cy="728.423" r="8.40537" stroke-width="0.5" stroke="black" fill="red"/>
  <circle cx="132.014" cy="728.423" r="5.04944" stroke-width="0.5" stroke="red" fill="red"/>
   </g>
   <g id="cell144">
  <circle cx="630.242" cy="159.425" r="9.40404" stroke-width="0.5" stroke="black" fill="grey"/>
  <circle cx="630.242" cy="159.425" r="5.71783" stroke-width="0.5" stroke="grey" fill="grey"/>
   </g>
   <g id="cell145">
  <circle cx="512.678" cy="548.444" r="8.40494" stroke-width="0.5" stroke="black" fill="red"/>
  <circle cx="512.678" cy="548.444" r="5.04929" stroke-width="0.5" stroke="red" fill="red"/>
   </g>
   <g id="cell146">
  <circle cx="326.684" cy="203.067" r="9.23004" stroke-width="0.5" stroke="black" fill="red"/>
  <circle cx="326.684" cy="203.067" r="5.61089" stroke-width="0.5" stroke="red" fill="red"/>
   </g>
   <g id="cell147">
  <circle cx="657.523" cy="411.287" r="8.40427" stroke-width="0.5" stroke="black" fill="yellow"/>
  <circle cx="657.523" cy="411.287" r="5.04906" stroke-width="0.5" stroke="yellow" fill="yellow"/>
   </g>
   <g id="cell148">
  <circle cx="169.172" cy="752.936" r="9.76963" stroke-width="0.5" stroke="black" fill="grey"/>
  <circle cx="169.172" cy="752.936" r="5.93531" stroke-width="0.5" stroke="grey" fill="grey"/>
   </g>
   <g id="cell149">
  <circle cx="873.632" cy="435.684" r="9.61554" stroke-width="0.5" stroke="black" fill="red"/>
  <circle cx="873.632" cy="435.684" r="5.84498" stroke-width="0.5" stroke="red" fill="red"/>
   </g>
   <g id="cell150">
  <circle cx="169.937" cy="25.0853" r="8.40403" stroke-width="0.5" stroke="black" fill="yellow"/>
  <circle cx="169.937" cy="25.0853" r="5.04898" stroke-width="0.5" stroke="yellow" fill="yellow"/>
   </g>
   <g id="cell151">
  <circle cx="218.355" cy="899.06" r="8.40378" stroke-width="0.5" stroke="black" fill="red"/>
  <circle cx="218.355" cy="899.06" r="5.0489" stroke-width="0.5" stroke="red" fill="red"/>
   </g>
   <g id="cell152">
  <circle cx="572.423" cy="832.75" r="9.46706" stroke-width="0.5" stroke="black" fill="red"/>
  <circle cx="572.423" cy="832.75" r="5.75634" stroke-width="0.5" stroke="red" fill="red"/>
   </g>
   <g id="cell154">
  <circle cx="845.736" cy="26.9722" r="8.403" stroke-width="0.5" stroke="black" fill="red"/>
  <circle cx="845.736" cy="26.9722" r="5.04863" stroke-width="0.5" stroke="red" fill="red"/>
   </g>
   <g id="cell155">
  <circle cx="650.534" cy="870.652" r="9.33482" stroke-width="0.5" stroke="black" fill="red"/>
  <circle cx="650.534" cy="870.652" r="5.67602" stroke-width="0.5" stroke="red" fill="red"/>
   </g>
   <g id="cell156">
  <circle cx="897.828" cy="510.688" r="9.1918" stroke-width="0.5" stroke="black" fill="grey"/>
  <circle cx="897.828" cy="510.688" r="5.5874" stroke-width="0.5" stroke="grey" fill="grey"/>
   </g>
   <g id="cell157">
  <circle cx="588.277" cy="594.233" r="8.40244" stroke-width="0.5" stroke="black" fill="yellow"/>
  <circle cx="588.277" cy="594.233" r="5.04843" stroke-width="0.5" stroke="yellow" fill="yellow"/>
   </g>
   <g id="cell158">
  <circle cx="168.369" cy="129.703" r="9.1534" stroke-width="0.5" stroke="black" fill="yellow"/>
  <circle cx="168.369" cy="129.703" r="5.56356" stroke-width="0.5" stroke="yellow" fill="yellow"/>
   </g>
   <g id="cell159">
  <circle cx="660.379" cy="281.442" r="8.4009" stroke-width="0.5" stroke="black" fill="yellow"/>
  <circle cx="660.379" cy="281.442" r="5.04788" stroke-width="0.5" stroke="yellow" fill="yellow"/>
   </g>
   <g id="cell160">
  <circle cx="618.268" cy="266.358" r="8.4009" stroke-width="0.5" stroke="black" fill="red"/>
  <circle cx="618.268" cy="266.358" r="5.04788" stroke-width="0.5" stroke="red" fill="red"/>
   </g>
   <g id="cell161">
  <circle cx="36.6417" cy="936.742" r="8.40022" stroke-width="0.5" stroke="black" fill="red"/>
  <circle cx="36.6417" cy="936.742" r="5.04764" stroke-width="0.5" stroke="red" fill="red"/>
   </g>
   <g id="cell162">
  <circle cx="847.891" cy="135.569" r="9.3328" stroke-width="0.5" stroke="black" fill="red"/>
  <circle cx="847.891" cy="135.569" r="5.67526" stroke-width="0.5" stroke="red" fill="red"/>
   </g>
   <g id="cell163">
  <circle cx="417.985" cy="963.32" r="9.26233" stroke-width="0.5" stroke="black" fill="red"/>
  <circle cx="417.985" cy="963.32" r="5.63189" stroke-width="0.5" stroke="red" fill="red"/>
   </g>
   <g id="cell164">
  <circle cx="846.119" cy="958.685" r="8.39987" stroke-width="0.5" stroke="black" fill="red"/>
  <circle cx="846.119" cy="958.685" r="5.04751" stroke-width="0.5" stroke="red" fill="red"/>
   </g>
   <g id="cell165">
  <circle cx="813.912" cy="388.861" r="9.22559" stroke-width="0.5" stroke="black" fill="red"/>
  <circle cx="813.912" cy="388.861" r="5.60923" stroke-width="0.5" stroke="red" fill="red"/>
   </g>
   <g id="cell166">
  <circle cx="803.441" cy="538.901" r="9.18847" stroke-width="0.5" stroke="black" fill="yellow"/>
  <circle cx="803.441" cy="538.901" r="5.58615" stroke-width="0.5" stroke="yellow" fill="yellow"/>
   </g>
   <g id="cell167">
  <circle cx="630.904" cy="140.546" r="8.39874" stroke-width="0.5" stroke="black" fill="yellow"/>
  <circle cx="630.904" cy="140.546" r="5.04711" stroke-width="0.5" stroke="yellow" fill="yellow"/>
   </g>
   <g id="cell168">
  <circle cx="966.787" cy="909.444" r="8.75458" stroke-width="0.5" stroke="black" fill="yellow"/>
  <circle cx="966.787" cy="909.444" r="5.30402" stroke-width="0.5" stroke="yellow" fill="yellow"/>
   </g>
   <g id="cell169">
  <circle cx="355.362" cy="963.917" r="8.49809" stroke-width="0.5" stroke="black" fill="yellow"/>
  <circle cx="355.362" cy="963.917" r="5.12073" stroke-width="0.5" stroke="yellow" fill="yellow"/>
   </g>
   <g id="cell170">
  <circle cx="74.3631" cy="980.638" r="8.39794" stroke-width="0.5" stroke="black" fill="red"/>
  <circle cx="74.3631" cy="980.638" r="5.04681" stroke-width="0.5" stroke="red" fill="red"/>
   </g>
   <g id="cell171">
  <circle cx="544.831" cy="367.016" r="8.56435" stroke-width="0.5" stroke="black" fill="red"/>
  <circle cx="544.831" cy="367.016" r="5.16984" stroke-width="0.5" stroke="red" fill="red"/>
   </g>
   <g id="cell172">
  <circle cx="470.416" cy="775.506" r="8.6369" stroke-width="0.5" stroke="black" fill="red"/>
  <circle cx="470.416" cy="775.506" r="5.22231" stroke-width="0.5" stroke="red" fill="red"/>
   </g>
   <g id="cell173">
  <circle cx="929.51" cy="424.2" r="8.39708" stroke-width="0.5" stroke="black" fill="red"/>
  <circle cx="929.51" cy="424.2" r="5.0465" stroke-width="0.5" stroke="red" fill="red"/>
   </g>
   <g id="cell174">
  <circle cx="382.808" cy="104.966" r="8.39618" stroke-width="0.5" stroke="black" fill="yellow"/>
  <circle cx="382.808" cy="104.966" r="5.04616" stroke-width="0.5" stroke="yellow" fill="yellow"/>
   </g>
   <g id="cell175">
  <circle cx="36.4066" cy="312.644" r="8.75259" stroke-width="0.5" stroke="black" fill="yellow"/>
  <circle cx="36.4066" cy="312.644" r="5.30326" stroke-width="0.5" stroke="yellow" fill="yellow"/>
   </g>
   <g id="cell178">
  <circle cx="43.1867" cy="176.606" r="8.43441" stroke-width="0.5" stroke="black" fill="red"/>
  <circle cx="43.1867" cy="176.606" r="5.0755" stroke-width="0.5" stroke="red" fill="red"/>
   </g>
   <g id="cell179">
  <circle cx="28.4429" cy="510.807" r="8.39083" stroke-width="0.5" stroke="black" fill="yellow"/>
  <circle cx="28.4429" cy="510.807" r="5.04414" stroke-width="0.5" stroke="yellow" fill="yellow"/>
   </g>
   <g id="cell180">
  <circle cx="34.3917" cy="661.534" r="8.39021" stroke-width="0.5" stroke="black" fill="yellow"/>
  <circle cx="34.3917" cy="661.534" r="5.0439" stroke-width="0.5" stroke="yellow" fill="yellow"/>
   </g>
   <g id="cell181">
  <circle cx="974.762" cy="673.076" r="8.38891" stroke-width="0.5" stroke="black" fill="red"/>
  <circle cx="974.762" cy="673.076" r="5.0434" stroke-width="0.5" stroke="red" fill="red"/>
   </g>
   <g id="cell182">
  <circle cx="523.382" cy="985.685" r="8.38823" stroke-width="0.5" stroke="black" fill="yellow"/>
  <circle cx="523.382" cy="985.685" r="5.04313" stroke-width="0.5" stroke="yellow" fill="yellow"/>
   </g>
   <g id="cell183">
  <circle cx="650.097" cy="825.762" r="8.38823" stroke-width="0.5" stroke="black" fill="red"/>
  <circle cx="650.097" cy="825.762" r="5.04313" stroke-width="0.5" stroke="red" fill="red"/>
   </g>
  </g>
 </g>
  <rect x="775" y="1035" width="200" height="10" stroke-width="2" stroke="rgb(255,255,255)" fill="rgb(0,0,0)"/>
  <text x="781.25" y="1028.75"
   font-family="Arial" font-size="25" fill="black" >
   200 &#956;m
  </text>
  <text x="25" y="1045"
   font-family="Arial" font-size="18.75" fill="black" >
   0 days, 0 hours, 1 minutes, and 32.6232 seconds
  </text>
  <rect x="0" y="70" width="1000" height="1000" stroke-width="2" stroke="rgb(0,0,0)" fill="none"/>
</svg>
