<?xml version="1.0" encoding="UTF-8" standalone="no"?>
<!-- Created with PhysiCell (http://PhysiCell.MathCancer.org/) -->
<svg 
 xmlns:dc="http://purl.org/dc/elements/1.1/" 
 xmlns:cc="http://creativecommons.org/ns#" 
 xmlns:rdf="http://www.w3.org/1999/02/22-rdf-syntax-ns#" 
 xmlns:svg="http://www.w3.org/2000/svg" 
 xmlns="http://www.w3.org/2000/svg" 
 version="1.1" 
 width="1000" 
 height="1070" 
 id="svg2">
  <rect x="0" y="0" width="1000" height="1070" stroke-width="2" stroke="white" fill="white"/>
  <text x="12.5" y="30"
   font-family="Arial" font-size="25" fill="black" >
   Current time: 1 days, 11 hours, and 30.00 minutes, z = 0.00 &#956;m
  </text>
  <text x="12.5" y="57.5"
   font-family="Arial" font-size="23.75" fill="black" >
   202 agents
  </text>
 <g id="tissue" 
    transform="translate(0,1070) scale(1,-1)">
  <g id="ECM">
  </g>
  <g id="cells">
   <g id="cell0">
  <circle cx="476.676" cy="617.84" r="8.40397" stroke-width="0.5" stroke="black" fill="grey"/>
  <circle cx="476.676" cy="617.84" r="5.04897" stroke-width="0.5" stroke="grey" fill="grey"/>
   </g>
   <g id="cell118">
  <circle cx="842.915" cy="576.312" r="9.98214" stroke-width="0.5" stroke="black" fill="yellow"/>
  <circle cx="842.915" cy="576.312" r="6.05515" stroke-width="0.5" stroke="yellow" fill="yellow"/>
   </g>
   <g id="cell100">
  <circle cx="117.468" cy="803.419" r="8.4032" stroke-width="0.5" stroke="black" fill="yellow"/>
  <circle cx="117.468" cy="803.419" r="5.0487" stroke-width="0.5" stroke="yellow" fill="yellow"/>
   </g>
   <g id="cell3">
  <circle cx="661.783" cy="655.046" r="8.40084" stroke-width="0.5" stroke="black" fill="grey"/>
  <circle cx="661.783" cy="655.046" r="5.04787" stroke-width="0.5" stroke="grey" fill="grey"/>
   </g>
   <g id="cell103">
  <circle cx="833.368" cy="866.716" r="9.88307" stroke-width="0.5" stroke="black" fill="yellow"/>
  <circle cx="833.368" cy="866.716" r="5.9999" stroke-width="0.5" stroke="yellow" fill="yellow"/>
   </g>
   <g id="cell135">
  <circle cx="129.968" cy="803.377" r="8.38675" stroke-width="0.5" stroke="black" fill="yellow"/>
  <circle cx="129.968" cy="803.377" r="5.04256" stroke-width="0.5" stroke="yellow" fill="yellow"/>
   </g>
   <g id="cell185">
  <circle cx="821.677" cy="388.932" r="10.5008" stroke-width="0.5" stroke="black" fill="yellow"/>
  <circle cx="821.677" cy="388.932" r="6.32525" stroke-width="0.5" stroke="yellow" fill="yellow"/>
   </g>
   <g id="cell7">
  <circle cx="830.961" cy="464.457" r="8.39654" stroke-width="0.5" stroke="black" fill="grey"/>
  <circle cx="830.961" cy="464.457" r="5.04631" stroke-width="0.5" stroke="grey" fill="grey"/>
   </g>
   <g id="cell192">
  <circle cx="819.131" cy="412.962" r="10.324" stroke-width="0.5" stroke="black" fill="yellow"/>
  <circle cx="819.131" cy="412.962" r="6.23953" stroke-width="0.5" stroke="yellow" fill="yellow"/>
   </g>
   <g id="cell231">
  <circle cx="464.86" cy="960.441" r="8.3937" stroke-width="0.5" stroke="black" fill="yellow"/>
  <circle cx="464.86" cy="960.441" r="5.04523" stroke-width="0.5" stroke="yellow" fill="yellow"/>
   </g>
   <g id="cell176">
  <circle cx="252.856" cy="50.8247" r="10.486" stroke-width="0.5" stroke="black" fill="red"/>
  <circle cx="252.856" cy="50.8247" r="6.31848" stroke-width="0.5" stroke="red" fill="red"/>
   </g>
   <g id="cell186">
  <circle cx="81.8776" cy="560.122" r="9.04692" stroke-width="0.5" stroke="black" fill="yellow"/>
  <circle cx="81.8776" cy="560.122" r="5.4933" stroke-width="0.5" stroke="yellow" fill="yellow"/>
   </g>
   <g id="cell104">
  <circle cx="789.604" cy="416.287" r="8.40117" stroke-width="0.5" stroke="black" fill="yellow"/>
  <circle cx="789.604" cy="416.287" r="5.04799" stroke-width="0.5" stroke="yellow" fill="yellow"/>
   </g>
   <g id="cell102">
  <circle cx="667.93" cy="155.682" r="10.545" stroke-width="0.5" stroke="black" fill="yellow"/>
  <circle cx="667.93" cy="155.682" r="6.34446" stroke-width="0.5" stroke="yellow" fill="yellow"/>
   </g>
   <g id="cell98">
  <circle cx="881.158" cy="373.166" r="10.5185" stroke-width="0.5" stroke="black" fill="yellow"/>
  <circle cx="881.158" cy="373.166" r="6.33311" stroke-width="0.5" stroke="yellow" fill="yellow"/>
   </g>
   <g id="cell97">
  <circle cx="419.971" cy="99.7676" r="10.5006" stroke-width="0.5" stroke="black" fill="yellow"/>
  <circle cx="419.971" cy="99.7676" r="6.3252" stroke-width="0.5" stroke="yellow" fill="yellow"/>
   </g>
   <g id="cell237">
  <circle cx="648.047" cy="610.392" r="8.39196" stroke-width="0.5" stroke="black" fill="grey"/>
  <circle cx="648.047" cy="610.392" r="5.04458" stroke-width="0.5" stroke="grey" fill="grey"/>
   </g>
   <g id="cell116">
  <circle cx="793.258" cy="462.307" r="10.3675" stroke-width="0.5" stroke="black" fill="yellow"/>
  <circle cx="793.258" cy="462.307" r="6.26153" stroke-width="0.5" stroke="yellow" fill="yellow"/>
   </g>
   <g id="cell177">
  <circle cx="442.667" cy="325.78" r="10.2218" stroke-width="0.5" stroke="black" fill="red"/>
  <circle cx="442.667" cy="325.78" r="6.18622" stroke-width="0.5" stroke="red" fill="red"/>
   </g>
   <g id="cell101">
  <circle cx="145.92" cy="143.474" r="8.68698" stroke-width="0.5" stroke="black" fill="yellow"/>
  <circle cx="145.92" cy="143.474" r="5.25348" stroke-width="0.5" stroke="yellow" fill="yellow"/>
   </g>
   <g id="cell184">
  <circle cx="511.488" cy="315.411" r="10.5533" stroke-width="0.5" stroke="black" fill="red"/>
  <circle cx="511.488" cy="315.411" r="6.34791" stroke-width="0.5" stroke="red" fill="red"/>
   </g>
   <g id="cell99">
  <circle cx="508.991" cy="985.411" r="10.5401" stroke-width="0.5" stroke="black" fill="yellow"/>
  <circle cx="508.991" cy="985.411" r="6.34241" stroke-width="0.5" stroke="yellow" fill="yellow"/>
   </g>
   <g id="cell115">
  <circle cx="246.192" cy="51.6536" r="8.38599" stroke-width="0.5" stroke="black" fill="yellow"/>
  <circle cx="246.192" cy="51.6536" r="5.04227" stroke-width="0.5" stroke="yellow" fill="yellow"/>
   </g>
   <g id="cell191">
  <circle cx="753.315" cy="125.572" r="10.479" stroke-width="0.5" stroke="black" fill="grey"/>
  <circle cx="753.315" cy="125.572" r="6.31534" stroke-width="0.5" stroke="grey" fill="grey"/>
   </g>
   <g id="cell153">
  <circle cx="196.127" cy="367.11" r="8.39513" stroke-width="0.5" stroke="black" fill="red"/>
  <circle cx="196.127" cy="367.11" r="5.04579" stroke-width="0.5" stroke="red" fill="red"/>
   </g>
   <g id="cell105">
  <circle cx="74.4121" cy="402.732" r="10.197" stroke-width="0.5" stroke="black" fill="yellow"/>
  <circle cx="74.4121" cy="402.732" r="6.17357" stroke-width="0.5" stroke="yellow" fill="yellow"/>
   </g>
   <g id="cell211">
  <circle cx="670.769" cy="649.001" r="8.95787" stroke-width="0.5" stroke="black" fill="grey"/>
  <circle cx="670.769" cy="649.001" r="5.43872" stroke-width="0.5" stroke="grey" fill="grey"/>
   </g>
   <g id="cell117">
  <circle cx="858.032" cy="368.745" r="8.41192" stroke-width="0.5" stroke="black" fill="yellow"/>
  <circle cx="858.032" cy="368.745" r="5.05148" stroke-width="0.5" stroke="yellow" fill="yellow"/>
   </g>
   <g id="cell28">
  <circle cx="695.743" cy="107.395" r="9.12476" stroke-width="0.5" stroke="black" fill="grey"/>
  <circle cx="695.743" cy="107.395" r="5.54278" stroke-width="0.5" stroke="grey" fill="grey"/>
   </g>
   <g id="cell29">
  <circle cx="968.708" cy="647.953" r="10.5481" stroke-width="0.5" stroke="black" fill="grey"/>
  <circle cx="968.708" cy="647.953" r="6.34572" stroke-width="0.5" stroke="grey" fill="grey"/>
   </g>
   <g id="cell30">
  <circle cx="761.109" cy="138.496" r="10.2104" stroke-width="0.5" stroke="black" fill="grey"/>
  <circle cx="761.109" cy="138.496" r="6.18025" stroke-width="0.5" stroke="grey" fill="grey"/>
   </g>
   <g id="cell190">
  <circle cx="442.347" cy="138.054" r="8.41185" stroke-width="0.5" stroke="black" fill="yellow"/>
  <circle cx="442.347" cy="138.054" r="5.05146" stroke-width="0.5" stroke="yellow" fill="yellow"/>
   </g>
   <g id="cell114">
  <circle cx="58.0416" cy="367.259" r="10.5368" stroke-width="0.5" stroke="black" fill="yellow"/>
  <circle cx="58.0416" cy="367.259" r="6.34098" stroke-width="0.5" stroke="yellow" fill="yellow"/>
   </g>
   <g id="cell107">
  <circle cx="394.422" cy="496.462" r="9.37463" stroke-width="0.5" stroke="black" fill="yellow"/>
  <circle cx="394.422" cy="496.462" r="5.69888" stroke-width="0.5" stroke="yellow" fill="yellow"/>
   </g>
   <g id="cell106">
  <circle cx="33.5927" cy="906.177" r="8.83587" stroke-width="0.5" stroke="black" fill="yellow"/>
  <circle cx="33.5927" cy="906.177" r="5.35866" stroke-width="0.5" stroke="yellow" fill="yellow"/>
   </g>
   <g id="cell35">
  <circle cx="935.201" cy="48.4257" r="9.99622" stroke-width="0.5" stroke="black" fill="grey"/>
  <circle cx="935.201" cy="48.4257" r="6.06392" stroke-width="0.5" stroke="grey" fill="grey"/>
   </g>
   <g id="cell109">
  <circle cx="393.238" cy="985.046" r="10.4353" stroke-width="0.5" stroke="black" fill="yellow"/>
  <circle cx="393.238" cy="985.046" r="6.29465" stroke-width="0.5" stroke="yellow" fill="yellow"/>
   </g>
   <g id="cell111">
  <circle cx="793.318" cy="415.874" r="8.41185" stroke-width="0.5" stroke="black" fill="yellow"/>
  <circle cx="793.318" cy="415.874" r="5.05146" stroke-width="0.5" stroke="yellow" fill="yellow"/>
   </g>
   <g id="cell131">
  <circle cx="643.45" cy="585.661" r="8.63165" stroke-width="0.5" stroke="black" fill="grey"/>
  <circle cx="643.45" cy="585.661" r="5.2203" stroke-width="0.5" stroke="grey" fill="grey"/>
   </g>
   <g id="cell110">
  <circle cx="897.3" cy="249.11" r="9.79685" stroke-width="0.5" stroke="black" fill="yellow"/>
  <circle cx="897.3" cy="249.11" r="5.95016" stroke-width="0.5" stroke="yellow" fill="yellow"/>
   </g>
   <g id="cell40">
  <circle cx="167.728" cy="417.782" r="8.39073" stroke-width="0.5" stroke="black" fill="red"/>
  <circle cx="167.728" cy="417.782" r="5.04412" stroke-width="0.5" stroke="red" fill="red"/>
   </g>
   <g id="cell41">
  <circle cx="681.598" cy="732.625" r="8.39415" stroke-width="0.5" stroke="black" fill="red"/>
  <circle cx="681.598" cy="732.625" r="5.04541" stroke-width="0.5" stroke="red" fill="red"/>
   </g>
   <g id="cell42">
  <circle cx="142.608" cy="723.145" r="10.556" stroke-width="0.5" stroke="black" fill="red"/>
  <circle cx="142.608" cy="723.145" r="6.34899" stroke-width="0.5" stroke="red" fill="red"/>
   </g>
   <g id="cell43">
  <circle cx="876.171" cy="387.673" r="10.5559" stroke-width="0.5" stroke="black" fill="red"/>
  <circle cx="876.171" cy="387.673" r="6.34896" stroke-width="0.5" stroke="red" fill="red"/>
   </g>
   <g id="cell44">
  <circle cx="836.644" cy="46.7254" r="10.5584" stroke-width="0.5" stroke="black" fill="red"/>
  <circle cx="836.644" cy="46.7254" r="6.34994" stroke-width="0.5" stroke="red" fill="red"/>
   </g>
   <g id="cell45">
  <circle cx="700.278" cy="820.86" r="10.3744" stroke-width="0.5" stroke="black" fill="red"/>
  <circle cx="700.278" cy="820.86" r="6.2649" stroke-width="0.5" stroke="red" fill="red"/>
   </g>
   <g id="cell46">
  <circle cx="76.7128" cy="914.105" r="10.3166" stroke-width="0.5" stroke="black" fill="red"/>
  <circle cx="76.7128" cy="914.105" r="6.23559" stroke-width="0.5" stroke="red" fill="red"/>
   </g>
   <g id="cell47">
  <circle cx="909.177" cy="459.844" r="8.38882" stroke-width="0.5" stroke="black" fill="red"/>
  <circle cx="909.177" cy="459.844" r="5.04338" stroke-width="0.5" stroke="red" fill="red"/>
   </g>
   <g id="cell48">
  <circle cx="950.323" cy="26.4204" r="8.40179" stroke-width="0.5" stroke="black" fill="red"/>
  <circle cx="950.323" cy="26.4204" r="5.04821" stroke-width="0.5" stroke="red" fill="red"/>
   </g>
   <g id="cell49">
  <circle cx="466.865" cy="809.049" r="10.5273" stroke-width="0.5" stroke="black" fill="red"/>
  <circle cx="466.865" cy="809.049" r="6.33692" stroke-width="0.5" stroke="red" fill="red"/>
   </g>
   <g id="cell50">
  <circle cx="17.2317" cy="432.633" r="10.5638" stroke-width="0.5" stroke="black" fill="red"/>
  <circle cx="17.2317" cy="432.633" r="6.3521" stroke-width="0.5" stroke="red" fill="red"/>
   </g>
   <g id="cell51">
  <circle cx="849.513" cy="160.097" r="8.39829" stroke-width="0.5" stroke="black" fill="red"/>
  <circle cx="849.513" cy="160.097" r="5.04695" stroke-width="0.5" stroke="red" fill="red"/>
   </g>
   <g id="cell96">
  <circle cx="827.125" cy="563.511" r="8.38809" stroke-width="0.5" stroke="black" fill="yellow"/>
  <circle cx="827.125" cy="563.511" r="5.0431" stroke-width="0.5" stroke="yellow" fill="yellow"/>
   </g>
   <g id="cell53">
  <circle cx="660.108" cy="260.655" r="8.40237" stroke-width="0.5" stroke="black" fill="red"/>
  <circle cx="660.108" cy="260.655" r="5.04842" stroke-width="0.5" stroke="red" fill="red"/>
   </g>
   <g id="cell54">
  <circle cx="416.649" cy="926.06" r="8.41245" stroke-width="0.5" stroke="black" fill="red"/>
  <circle cx="416.649" cy="926.06" r="5.05161" stroke-width="0.5" stroke="red" fill="red"/>
   </g>
   <g id="cell55">
  <circle cx="203.411" cy="643.116" r="9.44129" stroke-width="0.5" stroke="black" fill="red"/>
  <circle cx="203.411" cy="643.116" r="5.73918" stroke-width="0.5" stroke="red" fill="red"/>
   </g>
   <g id="cell56">
  <circle cx="661.982" cy="839.882" r="8.39413" stroke-width="0.5" stroke="black" fill="red"/>
  <circle cx="661.982" cy="839.882" r="5.04541" stroke-width="0.5" stroke="red" fill="red"/>
   </g>
   <g id="cell57">
  <circle cx="468.524" cy="543.792" r="8.3961" stroke-width="0.5" stroke="black" fill="red"/>
  <circle cx="468.524" cy="543.792" r="5.04615" stroke-width="0.5" stroke="red" fill="red"/>
   </g>
   <g id="cell58">
  <circle cx="10.3392" cy="859.792" r="8.38669" stroke-width="0.5" stroke="black" fill="red"/>
  <circle cx="10.3392" cy="859.792" r="5.04255" stroke-width="0.5" stroke="red" fill="red"/>
   </g>
   <g id="cell59">
  <circle cx="38.162" cy="918.189" r="8.38942" stroke-width="0.5" stroke="black" fill="red"/>
  <circle cx="38.162" cy="918.189" r="5.04362" stroke-width="0.5" stroke="red" fill="red"/>
   </g>
   <g id="cell60">
  <circle cx="225.303" cy="30.9061" r="4.57139" stroke-width="0.5" stroke="black" fill="red"/>
  <circle cx="225.303" cy="30.9061" r="3.44006" stroke-width="0.5" stroke="black" fill="black"/>
   </g>
   <g id="cell61">
  <circle cx="780.45" cy="130.36" r="10.4101" stroke-width="0.5" stroke="black" fill="red"/>
  <circle cx="780.45" cy="130.36" r="6.28246" stroke-width="0.5" stroke="red" fill="red"/>
   </g>
   <g id="cell62">
  <circle cx="723.664" cy="814.432" r="8.38891" stroke-width="0.5" stroke="black" fill="red"/>
  <circle cx="723.664" cy="814.432" r="5.0434" stroke-width="0.5" stroke="red" fill="red"/>
   </g>
   <g id="cell63">
  <circle cx="337.5" cy="166.245" r="10.5332" stroke-width="0.5" stroke="black" fill="red"/>
  <circle cx="337.5" cy="166.245" r="6.33946" stroke-width="0.5" stroke="red" fill="red"/>
   </g>
   <g id="cell64">
  <circle cx="636.323" cy="517.037" r="8.39913" stroke-width="0.5" stroke="black" fill="red"/>
  <circle cx="636.323" cy="517.037" r="5.04725" stroke-width="0.5" stroke="red" fill="red"/>
   </g>
   <g id="cell188">
  <circle cx="862.522" cy="401.742" r="10.4253" stroke-width="0.5" stroke="black" fill="yellow"/>
  <circle cx="862.522" cy="401.742" r="6.28992" stroke-width="0.5" stroke="yellow" fill="yellow"/>
   </g>
   <g id="cell66">
  <circle cx="29.3018" cy="123.344" r="10.5582" stroke-width="0.5" stroke="black" fill="red"/>
  <circle cx="29.3018" cy="123.344" r="6.3499" stroke-width="0.5" stroke="red" fill="red"/>
   </g>
   <g id="cell197">
  <circle cx="738.241" cy="686.675" r="9.56243" stroke-width="0.5" stroke="black" fill="yellow"/>
  <circle cx="738.241" cy="686.675" r="5.81245" stroke-width="0.5" stroke="yellow" fill="yellow"/>
   </g>
   <g id="cell68">
  <circle cx="768.753" cy="227.006" r="8.3895" stroke-width="0.5" stroke="black" fill="red"/>
  <circle cx="768.753" cy="227.006" r="5.04364" stroke-width="0.5" stroke="red" fill="red"/>
   </g>
   <g id="cell69">
  <circle cx="410.201" cy="278.282" r="10.0167" stroke-width="0.5" stroke="black" fill="red"/>
  <circle cx="410.201" cy="278.282" r="6.07451" stroke-width="0.5" stroke="red" fill="red"/>
   </g>
   <g id="cell70">
  <circle cx="521.974" cy="376.613" r="10.5385" stroke-width="0.5" stroke="black" fill="red"/>
  <circle cx="521.974" cy="376.613" r="6.34173" stroke-width="0.5" stroke="red" fill="red"/>
   </g>
   <g id="cell71">
  <circle cx="933.412" cy="507.31" r="8.87886" stroke-width="0.5" stroke="black" fill="red"/>
  <circle cx="933.412" cy="507.31" r="5.38648" stroke-width="0.5" stroke="red" fill="red"/>
   </g>
   <g id="cell72">
  <circle cx="189.225" cy="919.924" r="8.39609" stroke-width="0.5" stroke="black" fill="red"/>
  <circle cx="189.225" cy="919.924" r="5.04614" stroke-width="0.5" stroke="red" fill="red"/>
   </g>
   <g id="cell73">
  <circle cx="615.257" cy="438.33" r="10.5572" stroke-width="0.5" stroke="black" fill="red"/>
  <circle cx="615.257" cy="438.33" r="6.34948" stroke-width="0.5" stroke="red" fill="red"/>
   </g>
   <g id="cell74">
  <circle cx="856.097" cy="944.811" r="10.4794" stroke-width="0.5" stroke="black" fill="red"/>
  <circle cx="856.097" cy="944.811" r="6.31545" stroke-width="0.5" stroke="red" fill="red"/>
   </g>
   <g id="cell75">
  <circle cx="124.114" cy="298.858" r="8.43869" stroke-width="0.5" stroke="black" fill="red"/>
  <circle cx="124.114" cy="298.858" r="5.07714" stroke-width="0.5" stroke="red" fill="red"/>
   </g>
   <g id="cell76">
  <circle cx="766.242" cy="420.385" r="10.5116" stroke-width="0.5" stroke="black" fill="red"/>
  <circle cx="766.242" cy="420.385" r="6.33001" stroke-width="0.5" stroke="red" fill="red"/>
   </g>
   <g id="cell77">
  <circle cx="683.737" cy="819.381" r="10.5595" stroke-width="0.5" stroke="black" fill="red"/>
  <circle cx="683.737" cy="819.381" r="6.3504" stroke-width="0.5" stroke="red" fill="red"/>
   </g>
   <g id="cell78">
  <circle cx="588.662" cy="286.303" r="10.5547" stroke-width="0.5" stroke="black" fill="red"/>
  <circle cx="588.662" cy="286.303" r="6.34847" stroke-width="0.5" stroke="red" fill="red"/>
   </g>
   <g id="cell79">
  <circle cx="989.686" cy="693.056" r="10.5114" stroke-width="0.5" stroke="black" fill="red"/>
  <circle cx="989.686" cy="693.056" r="6.32998" stroke-width="0.5" stroke="red" fill="red"/>
   </g>
   <g id="cell80">
  <circle cx="743.712" cy="718.083" r="10.1734" stroke-width="0.5" stroke="black" fill="yellow"/>
  <circle cx="743.712" cy="718.083" r="6.1609" stroke-width="0.5" stroke="yellow" fill="yellow"/>
   </g>
   <g id="cell81">
  <circle cx="484.213" cy="959.773" r="8.3937" stroke-width="0.5" stroke="black" fill="yellow"/>
  <circle cx="484.213" cy="959.773" r="5.04523" stroke-width="0.5" stroke="yellow" fill="yellow"/>
   </g>
   <g id="cell82">
  <circle cx="618.318" cy="397.245" r="8.60225" stroke-width="0.5" stroke="black" fill="yellow"/>
  <circle cx="618.318" cy="397.245" r="5.19664" stroke-width="0.5" stroke="yellow" fill="yellow"/>
   </g>
   <g id="cell83">
  <circle cx="586.665" cy="596.581" r="8.3888" stroke-width="0.5" stroke="black" fill="yellow"/>
  <circle cx="586.665" cy="596.581" r="5.04337" stroke-width="0.5" stroke="yellow" fill="yellow"/>
   </g>
   <g id="cell84">
  <circle cx="13.9785" cy="481.702" r="10.5208" stroke-width="0.5" stroke="black" fill="yellow"/>
  <circle cx="13.9785" cy="481.702" r="6.33412" stroke-width="0.5" stroke="yellow" fill="yellow"/>
   </g>
   <g id="cell238">
  <circle cx="154.692" cy="390.245" r="8.39073" stroke-width="0.5" stroke="black" fill="red"/>
  <circle cx="154.692" cy="390.245" r="5.04412" stroke-width="0.5" stroke="red" fill="red"/>
   </g>
   <g id="cell86">
  <circle cx="346.476" cy="421.839" r="10.3395" stroke-width="0.5" stroke="black" fill="yellow"/>
  <circle cx="346.476" cy="421.839" r="6.24741" stroke-width="0.5" stroke="yellow" fill="yellow"/>
   </g>
   <g id="cell87">
  <circle cx="797.834" cy="385.367" r="10.381" stroke-width="0.5" stroke="black" fill="yellow"/>
  <circle cx="797.834" cy="385.367" r="6.26813" stroke-width="0.5" stroke="yellow" fill="yellow"/>
   </g>
   <g id="cell200">
  <circle cx="988.089" cy="103.515" r="8.4076" stroke-width="0.5" stroke="black" fill="grey"/>
  <circle cx="988.089" cy="103.515" r="5.05018" stroke-width="0.5" stroke="grey" fill="grey"/>
   </g>
   <g id="cell89">
  <circle cx="34.6599" cy="568.243" r="10.5088" stroke-width="0.5" stroke="black" fill="yellow"/>
  <circle cx="34.6599" cy="568.243" r="6.32883" stroke-width="0.5" stroke="yellow" fill="yellow"/>
   </g>
   <g id="cell193">
  <circle cx="175.552" cy="669.349" r="10.3801" stroke-width="0.5" stroke="black" fill="red"/>
  <circle cx="175.552" cy="669.349" r="6.26787" stroke-width="0.5" stroke="red" fill="red"/>
   </g>
   <g id="cell91">
  <circle cx="16.143" cy="623.352" r="10.2531" stroke-width="0.5" stroke="black" fill="yellow"/>
  <circle cx="16.143" cy="623.352" r="6.20273" stroke-width="0.5" stroke="yellow" fill="yellow"/>
   </g>
   <g id="cell92">
  <circle cx="685.432" cy="259.001" r="10.5616" stroke-width="0.5" stroke="black" fill="yellow"/>
  <circle cx="685.432" cy="259.001" r="6.35126" stroke-width="0.5" stroke="yellow" fill="yellow"/>
   </g>
   <g id="cell93">
  <circle cx="214.453" cy="852.543" r="10.2533" stroke-width="0.5" stroke="black" fill="yellow"/>
  <circle cx="214.453" cy="852.543" r="6.20279" stroke-width="0.5" stroke="yellow" fill="yellow"/>
   </g>
   <g id="cell94">
  <circle cx="390.824" cy="101.293" r="10.5293" stroke-width="0.5" stroke="black" fill="yellow"/>
  <circle cx="390.824" cy="101.293" r="6.33778" stroke-width="0.5" stroke="yellow" fill="yellow"/>
   </g>
   <g id="cell95">
  <circle cx="936.303" cy="893.589" r="8.38876" stroke-width="0.5" stroke="black" fill="yellow"/>
  <circle cx="936.303" cy="893.589" r="5.04336" stroke-width="0.5" stroke="yellow" fill="yellow"/>
   </g>
   <g id="cell121">
  <circle cx="38.8087" cy="481.059" r="9.96405" stroke-width="0.5" stroke="black" fill="red"/>
  <circle cx="38.8087" cy="481.059" r="6.04497" stroke-width="0.5" stroke="red" fill="red"/>
   </g>
   <g id="cell122">
  <circle cx="691.881" cy="407.974" r="8.40017" stroke-width="0.5" stroke="black" fill="yellow"/>
  <circle cx="691.881" cy="407.974" r="5.04763" stroke-width="0.5" stroke="yellow" fill="yellow"/>
   </g>
   <g id="cell123">
  <circle cx="307.681" cy="905.115" r="10.2109" stroke-width="0.5" stroke="black" fill="yellow"/>
  <circle cx="307.681" cy="905.115" r="6.18039" stroke-width="0.5" stroke="yellow" fill="yellow"/>
   </g>
   <g id="cell124">
  <circle cx="451.055" cy="635.132" r="10.5628" stroke-width="0.5" stroke="black" fill="grey"/>
  <circle cx="451.055" cy="635.132" r="6.3517" stroke-width="0.5" stroke="grey" fill="grey"/>
   </g>
   <g id="cell125">
  <circle cx="798.737" cy="452.822" r="9.52754" stroke-width="0.5" stroke="black" fill="yellow"/>
  <circle cx="798.737" cy="452.822" r="5.79291" stroke-width="0.5" stroke="yellow" fill="yellow"/>
   </g>
   <g id="cell126">
  <circle cx="933.87" cy="188.181" r="10.5596" stroke-width="0.5" stroke="black" fill="red"/>
  <circle cx="933.87" cy="188.181" r="6.35041" stroke-width="0.5" stroke="red" fill="red"/>
   </g>
   <g id="cell127">
  <circle cx="905.766" cy="562.454" r="8.53335" stroke-width="0.5" stroke="black" fill="red"/>
  <circle cx="905.766" cy="562.454" r="5.14584" stroke-width="0.5" stroke="red" fill="red"/>
   </g>
   <g id="cell128">
  <circle cx="927.613" cy="37.5055" r="10.5495" stroke-width="0.5" stroke="black" fill="red"/>
  <circle cx="927.613" cy="37.5055" r="6.34631" stroke-width="0.5" stroke="red" fill="red"/>
   </g>
   <g id="cell129">
  <circle cx="981.032" cy="676.633" r="1.77617" stroke-width="0.5" stroke="black" fill="grey"/>
  <circle cx="981.032" cy="676.633" r="1.75929" stroke-width="0.5" stroke="black" fill="black"/>
   </g>
   <g id="cell130">
  <circle cx="947.646" cy="596.865" r="8.41258" stroke-width="0.5" stroke="black" fill="yellow"/>
  <circle cx="947.646" cy="596.865" r="5.05164" stroke-width="0.5" stroke="yellow" fill="yellow"/>
   </g>
   <g id="cell132">
  <circle cx="65.3312" cy="931.832" r="8.39309" stroke-width="0.5" stroke="black" fill="red"/>
  <circle cx="65.3312" cy="931.832" r="5.04501" stroke-width="0.5" stroke="red" fill="red"/>
   </g>
   <g id="cell133">
  <circle cx="657.291" cy="386.186" r="10.5141" stroke-width="0.5" stroke="black" fill="red"/>
  <circle cx="657.291" cy="386.186" r="6.33112" stroke-width="0.5" stroke="red" fill="red"/>
   </g>
   <g id="cell201">
  <circle cx="497.077" cy="601.798" r="9.72076" stroke-width="0.5" stroke="black" fill="grey"/>
  <circle cx="497.077" cy="601.798" r="5.90693" stroke-width="0.5" stroke="grey" fill="grey"/>
   </g>
   <g id="cell136">
  <circle cx="685.55" cy="487.875" r="10.5628" stroke-width="0.5" stroke="black" fill="red"/>
  <circle cx="685.55" cy="487.875" r="6.3517" stroke-width="0.5" stroke="red" fill="red"/>
   </g>
   <g id="cell137">
  <circle cx="749.603" cy="670.537" r="10.4572" stroke-width="0.5" stroke="black" fill="yellow"/>
  <circle cx="749.603" cy="670.537" r="6.30505" stroke-width="0.5" stroke="yellow" fill="yellow"/>
   </g>
   <g id="cell138">
  <circle cx="699.803" cy="244.581" r="8.56805" stroke-width="0.5" stroke="black" fill="red"/>
  <circle cx="699.803" cy="244.581" r="5.1712" stroke-width="0.5" stroke="red" fill="red"/>
   </g>
   <g id="cell139">
  <circle cx="793.503" cy="743.117" r="10.0496" stroke-width="0.5" stroke="black" fill="yellow"/>
  <circle cx="793.503" cy="743.117" r="6.09275" stroke-width="0.5" stroke="yellow" fill="yellow"/>
   </g>
   <g id="cell140">
  <circle cx="106.97" cy="344.953" r="8.64034" stroke-width="0.5" stroke="black" fill="red"/>
  <circle cx="106.97" cy="344.953" r="5.22359" stroke-width="0.5" stroke="red" fill="red"/>
   </g>
   <g id="cell141">
  <circle cx="16.0013" cy="988.206" r="9.26256" stroke-width="0.5" stroke="black" fill="yellow"/>
  <circle cx="16.0013" cy="988.206" r="5.63199" stroke-width="0.5" stroke="yellow" fill="yellow"/>
   </g>
   <g id="cell142">
  <circle cx="694.399" cy="684.51" r="8.41256" stroke-width="0.5" stroke="black" fill="red"/>
  <circle cx="694.399" cy="684.51" r="5.05164" stroke-width="0.5" stroke="red" fill="red"/>
   </g>
   <g id="cell143">
  <circle cx="119.673" cy="715.194" r="10.4101" stroke-width="0.5" stroke="black" fill="red"/>
  <circle cx="119.673" cy="715.194" r="6.28248" stroke-width="0.5" stroke="red" fill="red"/>
   </g>
   <g id="cell144">
  <circle cx="653.883" cy="146.254" r="8.39515" stroke-width="0.5" stroke="black" fill="grey"/>
  <circle cx="653.883" cy="146.254" r="5.04579" stroke-width="0.5" stroke="grey" fill="grey"/>
   </g>
   <g id="cell145">
  <circle cx="551.416" cy="503.252" r="10.3165" stroke-width="0.5" stroke="black" fill="red"/>
  <circle cx="551.416" cy="503.252" r="6.23558" stroke-width="0.5" stroke="red" fill="red"/>
   </g>
   <g id="cell146">
  <circle cx="299.959" cy="193.378" r="8.39251" stroke-width="0.5" stroke="black" fill="red"/>
  <circle cx="299.959" cy="193.378" r="5.0448" stroke-width="0.5" stroke="red" fill="red"/>
   </g>
   <g id="cell147">
  <circle cx="673.815" cy="381.793" r="10.4688" stroke-width="0.5" stroke="black" fill="yellow"/>
  <circle cx="673.815" cy="381.793" r="6.3105" stroke-width="0.5" stroke="yellow" fill="yellow"/>
   </g>
   <g id="cell148">
  <circle cx="241.812" cy="766.634" r="9.36702" stroke-width="0.5" stroke="black" fill="grey"/>
  <circle cx="241.812" cy="766.634" r="5.69618" stroke-width="0.5" stroke="grey" fill="grey"/>
   </g>
   <g id="cell149">
  <circle cx="877.862" cy="461.951" r="8.39826" stroke-width="0.5" stroke="black" fill="red"/>
  <circle cx="877.862" cy="461.951" r="5.04694" stroke-width="0.5" stroke="red" fill="red"/>
   </g>
   <g id="cell150">
  <circle cx="176.953" cy="42.5829" r="10.5451" stroke-width="0.5" stroke="black" fill="yellow"/>
  <circle cx="176.953" cy="42.5829" r="6.34447" stroke-width="0.5" stroke="yellow" fill="yellow"/>
   </g>
   <g id="cell151">
  <circle cx="207.886" cy="884.18" r="10.5116" stroke-width="0.5" stroke="black" fill="red"/>
  <circle cx="207.886" cy="884.18" r="6.33002" stroke-width="0.5" stroke="red" fill="red"/>
   </g>
   <g id="cell152">
  <circle cx="598.895" cy="877.282" r="8.91354" stroke-width="0.5" stroke="black" fill="red"/>
  <circle cx="598.895" cy="877.282" r="5.41091" stroke-width="0.5" stroke="red" fill="red"/>
   </g>
   <g id="cell154">
  <circle cx="882.326" cy="24.5298" r="10.5419" stroke-width="0.5" stroke="black" fill="red"/>
  <circle cx="882.326" cy="24.5298" r="6.34315" stroke-width="0.5" stroke="red" fill="red"/>
   </g>
   <g id="cell155">
  <circle cx="653.185" cy="883.728" r="8.39412" stroke-width="0.5" stroke="black" fill="red"/>
  <circle cx="653.185" cy="883.728" r="5.04541" stroke-width="0.5" stroke="red" fill="red"/>
   </g>
   <g id="cell156">
  <circle cx="886.715" cy="511.462" r="1.68272" stroke-width="0.5" stroke="black" fill="grey"/>
  <circle cx="886.715" cy="511.462" r="1.67064" stroke-width="0.5" stroke="black" fill="black"/>
   </g>
   <g id="cell157">
  <circle cx="615.335" cy="641.107" r="10.5368" stroke-width="0.5" stroke="black" fill="yellow"/>
  <circle cx="615.335" cy="641.107" r="6.341" stroke-width="0.5" stroke="yellow" fill="yellow"/>
   </g>
   <g id="cell198">
  <circle cx="66.4077" cy="418.798" r="10.0928" stroke-width="0.5" stroke="black" fill="yellow"/>
  <circle cx="66.4077" cy="418.798" r="6.11718" stroke-width="0.5" stroke="yellow" fill="yellow"/>
   </g>
   <g id="cell159">
  <circle cx="694.815" cy="277.888" r="10.5091" stroke-width="0.5" stroke="black" fill="yellow"/>
  <circle cx="694.815" cy="277.888" r="6.32889" stroke-width="0.5" stroke="yellow" fill="yellow"/>
   </g>
   <g id="cell160">
  <circle cx="635.389" cy="304.369" r="10.5435" stroke-width="0.5" stroke="black" fill="red"/>
  <circle cx="635.389" cy="304.369" r="6.34381" stroke-width="0.5" stroke="red" fill="red"/>
   </g>
   <g id="cell199">
  <circle cx="820.371" cy="861.696" r="8.42808" stroke-width="0.5" stroke="black" fill="yellow"/>
  <circle cx="820.371" cy="861.696" r="5.06425" stroke-width="0.5" stroke="yellow" fill="yellow"/>
   </g>
   <g id="cell162">
  <circle cx="847.695" cy="79.5184" r="8.39409" stroke-width="0.5" stroke="black" fill="red"/>
  <circle cx="847.695" cy="79.5184" r="5.0454" stroke-width="0.5" stroke="red" fill="red"/>
   </g>
   <g id="cell163">
  <circle cx="424.17" cy="964.328" r="8.39302" stroke-width="0.5" stroke="black" fill="red"/>
  <circle cx="424.17" cy="964.328" r="5.045" stroke-width="0.5" stroke="red" fill="red"/>
   </g>
   <g id="cell164">
  <circle cx="823.825" cy="962.253" r="10.3931" stroke-width="0.5" stroke="black" fill="red"/>
  <circle cx="823.825" cy="962.253" r="6.27413" stroke-width="0.5" stroke="red" fill="red"/>
   </g>
   <g id="cell165">
  <circle cx="820.499" cy="384.68" r="8.39246" stroke-width="0.5" stroke="black" fill="red"/>
  <circle cx="820.499" cy="384.68" r="5.04478" stroke-width="0.5" stroke="red" fill="red"/>
   </g>
   <g id="cell166">
  <circle cx="761.895" cy="486.359" r="8.39188" stroke-width="0.5" stroke="black" fill="yellow"/>
  <circle cx="761.895" cy="486.359" r="5.04457" stroke-width="0.5" stroke="yellow" fill="yellow"/>
   </g>
   <g id="cell167">
  <circle cx="600.888" cy="120.229" r="10.5252" stroke-width="0.5" stroke="black" fill="yellow"/>
  <circle cx="600.888" cy="120.229" r="6.33603" stroke-width="0.5" stroke="yellow" fill="yellow"/>
   </g>
   <g id="cell168">
  <circle cx="921.805" cy="877.024" r="10.5637" stroke-width="0.5" stroke="black" fill="yellow"/>
  <circle cx="921.805" cy="877.024" r="6.35207" stroke-width="0.5" stroke="yellow" fill="yellow"/>
   </g>
   <g id="cell169">
  <circle cx="325.345" cy="973.743" r="10.5559" stroke-width="0.5" stroke="black" fill="yellow"/>
  <circle cx="325.345" cy="973.743" r="6.34897" stroke-width="0.5" stroke="yellow" fill="yellow"/>
   </g>
   <g id="cell170">
  <circle cx="49.6849" cy="989.418" r="9.98202" stroke-width="0.5" stroke="black" fill="red"/>
  <circle cx="49.6849" cy="989.418" r="6.05511" stroke-width="0.5" stroke="red" fill="red"/>
   </g>
   <g id="cell171">
  <circle cx="509.149" cy="381.123" r="10.5583" stroke-width="0.5" stroke="black" fill="red"/>
  <circle cx="509.149" cy="381.123" r="6.34993" stroke-width="0.5" stroke="red" fill="red"/>
   </g>
   <g id="cell172">
  <circle cx="468.215" cy="798.268" r="10.5605" stroke-width="0.5" stroke="black" fill="red"/>
  <circle cx="468.215" cy="798.268" r="6.35082" stroke-width="0.5" stroke="red" fill="red"/>
   </g>
   <g id="cell173">
  <circle cx="986.479" cy="435.356" r="10.2326" stroke-width="0.5" stroke="black" fill="red"/>
  <circle cx="986.479" cy="435.356" r="6.19192" stroke-width="0.5" stroke="red" fill="red"/>
   </g>
   <g id="cell174">
  <circle cx="353.593" cy="116.192" r="10.0952" stroke-width="0.5" stroke="black" fill="yellow"/>
  <circle cx="353.593" cy="116.192" r="6.11792" stroke-width="0.5" stroke="yellow" fill="yellow"/>
   </g>
   <g id="cell175">
  <circle cx="38.8629" cy="292.312" r="10.5636" stroke-width="0.5" stroke="black" fill="yellow"/>
  <circle cx="38.8629" cy="292.312" r="6.35207" stroke-width="0.5" stroke="yellow" fill="yellow"/>
   </g>
   <g id="cell178">
  <circle cx="68.3326" cy="162.014" r="10.5533" stroke-width="0.5" stroke="black" fill="red"/>
  <circle cx="68.3326" cy="162.014" r="6.34792" stroke-width="0.5" stroke="red" fill="red"/>
   </g>
   <g id="cell179">
  <circle cx="12.9335" cy="499.756" r="10.4352" stroke-width="0.5" stroke="black" fill="yellow"/>
  <circle cx="12.9335" cy="499.756" r="6.29463" stroke-width="0.5" stroke="yellow" fill="yellow"/>
   </g>
   <g id="cell180">
  <circle cx="38.9033" cy="708.216" r="8.41225" stroke-width="0.5" stroke="black" fill="yellow"/>
  <circle cx="38.9033" cy="708.216" r="5.05156" stroke-width="0.5" stroke="yellow" fill="yellow"/>
   </g>
   <g id="cell181">
  <circle cx="972.974" cy="677.684" r="9.44217" stroke-width="0.5" stroke="black" fill="red"/>
  <circle cx="972.974" cy="677.684" r="5.73944" stroke-width="0.5" stroke="red" fill="red"/>
   </g>
   <g id="cell182">
  <circle cx="503.011" cy="930.176" r="8.54406" stroke-width="0.5" stroke="black" fill="yellow"/>
  <circle cx="503.011" cy="930.176" r="5.14935" stroke-width="0.5" stroke="yellow" fill="yellow"/>
   </g>
   <g id="cell183">
  <circle cx="649.584" cy="870.932" r="8.41221" stroke-width="0.5" stroke="black" fill="red"/>
  <circle cx="649.584" cy="870.932" r="5.05155" stroke-width="0.5" stroke="red" fill="red"/>
   </g>
   <g id="cell187">
  <circle cx="276.413" cy="417.349" r="10.3868" stroke-width="0.5" stroke="black" fill="yellow"/>
  <circle cx="276.413" cy="417.349" r="6.27108" stroke-width="0.5" stroke="yellow" fill="yellow"/>
   </g>
   <g id="cell189">
  <circle cx="786.617" cy="412.556" r="10.4949" stroke-width="0.5" stroke="black" fill="yellow"/>
  <circle cx="786.617" cy="412.556" r="6.32261" stroke-width="0.5" stroke="yellow" fill="yellow"/>
   </g>
   <g id="cell194">
  <circle cx="108.198" cy="141.926" r="10.3383" stroke-width="0.5" stroke="black" fill="yellow"/>
  <circle cx="108.198" cy="141.926" r="6.24706" stroke-width="0.5" stroke="yellow" fill="yellow"/>
   </g>
   <g id="cell195">
  <circle cx="388.949" cy="443.353" r="10.1355" stroke-width="0.5" stroke="black" fill="yellow"/>
  <circle cx="388.949" cy="443.353" r="6.1403" stroke-width="0.5" stroke="yellow" fill="yellow"/>
   </g>
   <g id="cell196">
  <circle cx="919.409" cy="284.045" r="8.92547" stroke-width="0.5" stroke="black" fill="yellow"/>
  <circle cx="919.409" cy="284.045" r="5.41525" stroke-width="0.5" stroke="yellow" fill="yellow"/>
   </g>
   <g id="cell202">
  <circle cx="103.983" cy="842.027" r="8.4032" stroke-width="0.5" stroke="black" fill="yellow"/>
  <circle cx="103.983" cy="842.027" r="5.0487" stroke-width="0.5" stroke="yellow" fill="yellow"/>
   </g>
   <g id="cell203">
  <circle cx="856.142" cy="456.866" r="8.83855" stroke-width="0.5" stroke="black" fill="yellow"/>
  <circle cx="856.142" cy="456.866" r="5.35965" stroke-width="0.5" stroke="yellow" fill="yellow"/>
   </g>
   <g id="cell204">
  <circle cx="898.891" cy="495.739" r="9.46616" stroke-width="0.5" stroke="black" fill="red"/>
  <circle cx="898.891" cy="495.739" r="5.75602" stroke-width="0.5" stroke="red" fill="red"/>
   </g>
   <g id="cell205">
  <circle cx="656.608" cy="283.543" r="8.40237" stroke-width="0.5" stroke="black" fill="red"/>
  <circle cx="656.608" cy="283.543" r="5.04842" stroke-width="0.5" stroke="red" fill="red"/>
   </g>
   <g id="cell206">
  <circle cx="965.547" cy="10.29" r="8.40179" stroke-width="0.5" stroke="black" fill="red"/>
  <circle cx="965.547" cy="10.29" r="5.04821" stroke-width="0.5" stroke="red" fill="red"/>
   </g>
   <g id="cell207">
  <circle cx="732.913" cy="264.943" r="8.75774" stroke-width="0.5" stroke="black" fill="red"/>
  <circle cx="732.913" cy="264.943" r="5.30521" stroke-width="0.5" stroke="red" fill="red"/>
   </g>
   <g id="cell208">
  <circle cx="66.1958" cy="372.151" r="8.40115" stroke-width="0.5" stroke="black" fill="red"/>
  <circle cx="66.1958" cy="372.151" r="5.04798" stroke-width="0.5" stroke="red" fill="red"/>
   </g>
   <g id="cell209">
  <circle cx="912.192" cy="573.1" r="8.40117" stroke-width="0.5" stroke="black" fill="red"/>
  <circle cx="912.192" cy="573.1" r="5.04799" stroke-width="0.5" stroke="red" fill="red"/>
   </g>
   <g id="cell210">
  <circle cx="741.609" cy="465.644" r="8.40117" stroke-width="0.5" stroke="black" fill="yellow"/>
  <circle cx="741.609" cy="465.644" r="5.04799" stroke-width="0.5" stroke="yellow" fill="yellow"/>
   </g>
   <g id="cell212">
  <circle cx="188.223" cy="718.256" r="8.6779" stroke-width="0.5" stroke="black" fill="grey"/>
  <circle cx="188.223" cy="718.256" r="5.25034" stroke-width="0.5" stroke="grey" fill="grey"/>
   </g>
   <g id="cell213">
  <circle cx="13.1788" cy="988.433" r="8.40015" stroke-width="0.5" stroke="black" fill="yellow"/>
  <circle cx="13.1788" cy="988.433" r="5.04763" stroke-width="0.5" stroke="yellow" fill="yellow"/>
   </g>
   <g id="cell214">
  <circle cx="731.2" cy="435.751" r="8.40017" stroke-width="0.5" stroke="black" fill="yellow"/>
  <circle cx="731.2" cy="435.751" r="5.04763" stroke-width="0.5" stroke="yellow" fill="yellow"/>
   </g>
   <g id="cell215">
  <circle cx="630.364" cy="387.453" r="8.40013" stroke-width="0.5" stroke="black" fill="yellow"/>
  <circle cx="630.364" cy="387.453" r="5.04762" stroke-width="0.5" stroke="yellow" fill="yellow"/>
   </g>
   <g id="cell216">
  <circle cx="30.756" cy="913.032" r="8.39943" stroke-width="0.5" stroke="black" fill="yellow"/>
  <circle cx="30.756" cy="913.032" r="5.04737" stroke-width="0.5" stroke="yellow" fill="yellow"/>
   </g>
   <g id="cell217">
  <circle cx="609.836" cy="542.159" r="8.39913" stroke-width="0.5" stroke="black" fill="red"/>
  <circle cx="609.836" cy="542.159" r="5.04725" stroke-width="0.5" stroke="red" fill="red"/>
   </g>
   <g id="cell218">
  <circle cx="861.81" cy="154.66" r="9.15066" stroke-width="0.5" stroke="black" fill="red"/>
  <circle cx="861.81" cy="154.66" r="5.56253" stroke-width="0.5" stroke="red" fill="red"/>
   </g>
   <g id="cell219">
  <circle cx="840.889" cy="426.53" r="8.79454" stroke-width="0.5" stroke="black" fill="red"/>
  <circle cx="840.889" cy="426.53" r="5.3312" stroke-width="0.5" stroke="red" fill="red"/>
   </g>
   <g id="cell220">
  <circle cx="831.398" cy="454.091" r="8.39654" stroke-width="0.5" stroke="black" fill="grey"/>
  <circle cx="831.398" cy="454.091" r="5.04631" stroke-width="0.5" stroke="grey" fill="grey"/>
   </g>
   <g id="cell221">
  <circle cx="178.341" cy="935.958" r="8.39609" stroke-width="0.5" stroke="black" fill="red"/>
  <circle cx="178.341" cy="935.958" r="5.04614" stroke-width="0.5" stroke="red" fill="red"/>
   </g>
   <g id="cell222">
  <circle cx="471.634" cy="521.309" r="8.63557" stroke-width="0.5" stroke="black" fill="red"/>
  <circle cx="471.634" cy="521.309" r="5.22181" stroke-width="0.5" stroke="red" fill="red"/>
   </g>
   <g id="cell223">
  <circle cx="598.865" cy="844.937" r="8.39609" stroke-width="0.5" stroke="black" fill="red"/>
  <circle cx="598.865" cy="844.937" r="5.04614" stroke-width="0.5" stroke="red" fill="red"/>
   </g>
   <g id="cell224">
  <circle cx="92.2211" cy="293.832" r="8.39516" stroke-width="0.5" stroke="black" fill="red"/>
  <circle cx="92.2211" cy="293.832" r="5.04579" stroke-width="0.5" stroke="red" fill="red"/>
   </g>
   <g id="cell225">
  <circle cx="196.294" cy="380.037" r="8.39513" stroke-width="0.5" stroke="black" fill="red"/>
  <circle cx="196.294" cy="380.037" r="5.04579" stroke-width="0.5" stroke="red" fill="red"/>
   </g>
   <g id="cell226">
  <circle cx="646.342" cy="153.27" r="8.39515" stroke-width="0.5" stroke="black" fill="grey"/>
  <circle cx="646.342" cy="153.27" r="5.04579" stroke-width="0.5" stroke="grey" fill="grey"/>
   </g>
   <g id="cell227">
  <circle cx="664.514" cy="833.309" r="8.39413" stroke-width="0.5" stroke="black" fill="red"/>
  <circle cx="664.514" cy="833.309" r="5.04541" stroke-width="0.5" stroke="red" fill="red"/>
   </g>
   <g id="cell228">
  <circle cx="652.63" cy="875.208" r="8.52652" stroke-width="0.5" stroke="black" fill="red"/>
  <circle cx="652.63" cy="875.208" r="5.14331" stroke-width="0.5" stroke="red" fill="red"/>
   </g>
   <g id="cell229">
  <circle cx="834.124" cy="96.1912" r="8.39409" stroke-width="0.5" stroke="black" fill="red"/>
  <circle cx="834.124" cy="96.1912" r="5.0454" stroke-width="0.5" stroke="red" fill="red"/>
   </g>
   <g id="cell230">
  <circle cx="698.383" cy="770.518" r="8.39415" stroke-width="0.5" stroke="black" fill="red"/>
  <circle cx="698.383" cy="770.518" r="5.04541" stroke-width="0.5" stroke="red" fill="red"/>
   </g>
   <g id="cell232">
  <circle cx="59.8137" cy="925.296" r="8.39309" stroke-width="0.5" stroke="black" fill="red"/>
  <circle cx="59.8137" cy="925.296" r="5.04501" stroke-width="0.5" stroke="red" fill="red"/>
   </g>
   <g id="cell233">
  <circle cx="413.964" cy="956.051" r="8.4933" stroke-width="0.5" stroke="black" fill="red"/>
  <circle cx="413.964" cy="956.051" r="5.11894" stroke-width="0.5" stroke="red" fill="red"/>
   </g>
   <g id="cell234">
  <circle cx="834.271" cy="386.125" r="8.39246" stroke-width="0.5" stroke="black" fill="red"/>
  <circle cx="834.271" cy="386.125" r="5.04478" stroke-width="0.5" stroke="red" fill="red"/>
   </g>
   <g id="cell235">
  <circle cx="290.653" cy="228.61" r="8.39251" stroke-width="0.5" stroke="black" fill="red"/>
  <circle cx="290.653" cy="228.61" r="5.0448" stroke-width="0.5" stroke="red" fill="red"/>
   </g>
   <g id="cell236">
  <circle cx="762.555" cy="531.15" r="8.52435" stroke-width="0.5" stroke="black" fill="yellow"/>
  <circle cx="762.555" cy="531.15" r="5.14249" stroke-width="0.5" stroke="yellow" fill="yellow"/>
   </g>
   <g id="cell239">
  <circle cx="39.809" cy="925.576" r="8.45998" stroke-width="0.5" stroke="black" fill="red"/>
  <circle cx="39.809" cy="925.576" r="5.09522" stroke-width="0.5" stroke="red" fill="red"/>
   </g>
   <g id="cell240">
  <circle cx="767.546" cy="238.116" r="8.3895" stroke-width="0.5" stroke="black" fill="red"/>
  <circle cx="767.546" cy="238.116" r="5.04364" stroke-width="0.5" stroke="red" fill="red"/>
   </g>
   <g id="cell241">
  <circle cx="573.396" cy="570.277" r="8.3888" stroke-width="0.5" stroke="black" fill="yellow"/>
  <circle cx="573.396" cy="570.277" r="5.04337" stroke-width="0.5" stroke="yellow" fill="yellow"/>
   </g>
   <g id="cell242">
  <circle cx="742.83" cy="817.395" r="8.38891" stroke-width="0.5" stroke="black" fill="red"/>
  <circle cx="742.83" cy="817.395" r="5.0434" stroke-width="0.5" stroke="red" fill="red"/>
   </g>
   <g id="cell243">
  <circle cx="942.347" cy="895.828" r="8.38876" stroke-width="0.5" stroke="black" fill="yellow"/>
  <circle cx="942.347" cy="895.828" r="5.04336" stroke-width="0.5" stroke="yellow" fill="yellow"/>
   </g>
   <g id="cell244">
  <circle cx="884.956" cy="455.268" r="8.38882" stroke-width="0.5" stroke="black" fill="red"/>
  <circle cx="884.956" cy="455.268" r="5.04338" stroke-width="0.5" stroke="red" fill="red"/>
   </g>
   <g id="cell245">
  <circle cx="837.272" cy="557.792" r="8.38809" stroke-width="0.5" stroke="black" fill="yellow"/>
  <circle cx="837.272" cy="557.792" r="5.0431" stroke-width="0.5" stroke="yellow" fill="yellow"/>
   </g>
   <g id="cell246">
  <circle cx="10.6759" cy="855.491" r="8.38669" stroke-width="0.5" stroke="black" fill="red"/>
  <circle cx="10.6759" cy="855.491" r="5.04255" stroke-width="0.5" stroke="red" fill="red"/>
   </g>
   <g id="cell247">
  <circle cx="140.188" cy="798.574" r="8.38675" stroke-width="0.5" stroke="black" fill="yellow"/>
  <circle cx="140.188" cy="798.574" r="5.04256" stroke-width="0.5" stroke="yellow" fill="yellow"/>
   </g>
   <g id="cell248">
  <circle cx="254.004" cy="54.0103" r="8.38599" stroke-width="0.5" stroke="black" fill="yellow"/>
  <circle cx="254.004" cy="54.0103" r="5.04227" stroke-width="0.5" stroke="yellow" fill="yellow"/>
   </g>
  </g>
 </g>
  <rect x="775" y="1035" width="200" height="10" stroke-width="2" stroke="rgb(255,255,255)" fill="rgb(0,0,0)"/>
  <text x="781.25" y="1028.75"
   font-family="Arial" font-size="25" fill="black" >
   200 &#956;m
  </text>
  <text x="25" y="1045"
   font-family="Arial" font-size="18.75" fill="black" >
   0 days, 0 hours, 2 minutes, and 37.1262 seconds
  </text>
  <rect x="0" y="70" width="1000" height="1000" stroke-width="2" stroke="rgb(0,0,0)" fill="none"/>
</svg>
