<?xml version="1.0" encoding="UTF-8" standalone="no"?>
<!-- Created with PhysiCell (http://PhysiCell.MathCancer.org/) -->
<svg 
 xmlns:dc="http://purl.org/dc/elements/1.1/" 
 xmlns:cc="http://creativecommons.org/ns#" 
 xmlns:rdf="http://www.w3.org/1999/02/22-rdf-syntax-ns#" 
 xmlns:svg="http://www.w3.org/2000/svg" 
 xmlns="http://www.w3.org/2000/svg" 
 version="1.1" 
 width="1000" 
 height="1070" 
 id="svg2">
  <rect x="0" y="0" width="1000" height="1070" stroke-width="2" stroke="white" fill="white"/>
  <text x="12.5" y="30"
   font-family="Arial" font-size="25" fill="black" >
   Current time: 1 days, 4 hours, and 30.00 minutes, z = 0.00 &#956;m
  </text>
  <text x="12.5" y="57.5"
   font-family="Arial" font-size="23.75" fill="black" >
   161 agents
  </text>
 <g id="tissue" 
    transform="translate(0,1070) scale(1,-1)">
  <g id="ECM">
  </g>
  <g id="cells">
   <g id="cell0">
  <circle cx="507.756" cy="623.695" r="10.5207" stroke-width="0.5" stroke="black" fill="grey"/>
  <circle cx="507.756" cy="623.695" r="6.33407" stroke-width="0.5" stroke="grey" fill="grey"/>
   </g>
   <g id="cell118">
  <circle cx="843.453" cy="574.044" r="8.41182" stroke-width="0.5" stroke="black" fill="yellow"/>
  <circle cx="843.453" cy="574.044" r="5.05145" stroke-width="0.5" stroke="yellow" fill="yellow"/>
   </g>
   <g id="cell100">
  <circle cx="126.657" cy="802.152" r="10.5136" stroke-width="0.5" stroke="black" fill="yellow"/>
  <circle cx="126.657" cy="802.152" r="6.33098" stroke-width="0.5" stroke="yellow" fill="yellow"/>
   </g>
   <g id="cell3">
  <circle cx="637.482" cy="642.371" r="10.4919" stroke-width="0.5" stroke="black" fill="grey"/>
  <circle cx="637.482" cy="642.371" r="6.32124" stroke-width="0.5" stroke="grey" fill="grey"/>
   </g>
   <g id="cell103">
  <circle cx="819.242" cy="868.749" r="10.5596" stroke-width="0.5" stroke="black" fill="yellow"/>
  <circle cx="819.242" cy="868.749" r="6.35043" stroke-width="0.5" stroke="yellow" fill="yellow"/>
   </g>
   <g id="cell135">
  <circle cx="129.235" cy="811.483" r="10.3608" stroke-width="0.5" stroke="black" fill="yellow"/>
  <circle cx="129.235" cy="811.483" r="6.25818" stroke-width="0.5" stroke="yellow" fill="yellow"/>
   </g>
   <g id="cell185">
  <circle cx="863.291" cy="393.219" r="9.86236" stroke-width="0.5" stroke="black" fill="yellow"/>
  <circle cx="863.291" cy="393.219" r="5.98802" stroke-width="0.5" stroke="yellow" fill="yellow"/>
   </g>
   <g id="cell7">
  <circle cx="844.904" cy="486.629" r="10.4522" stroke-width="0.5" stroke="black" fill="grey"/>
  <circle cx="844.904" cy="486.629" r="6.30288" stroke-width="0.5" stroke="grey" fill="grey"/>
   </g>
   <g id="cell192">
  <circle cx="827.427" cy="420.712" r="8.68229" stroke-width="0.5" stroke="black" fill="yellow"/>
  <circle cx="827.427" cy="420.712" r="5.25191" stroke-width="0.5" stroke="yellow" fill="yellow"/>
   </g>
   <g id="cell112">
  <circle cx="749.733" cy="728.273" r="2.56983" stroke-width="0.5" stroke="black" fill="yellow"/>
  <circle cx="749.733" cy="728.273" r="2.25568" stroke-width="0.5" stroke="black" fill="black"/>
   </g>
   <g id="cell176">
  <circle cx="269.826" cy="53.5731" r="9.75002" stroke-width="0.5" stroke="black" fill="red"/>
  <circle cx="269.826" cy="53.5731" r="5.92287" stroke-width="0.5" stroke="red" fill="red"/>
   </g>
   <g id="cell186">
  <circle cx="72.6495" cy="548.094" r="8.40839" stroke-width="0.5" stroke="black" fill="yellow"/>
  <circle cx="72.6495" cy="548.094" r="5.05043" stroke-width="0.5" stroke="yellow" fill="yellow"/>
   </g>
   <g id="cell104">
  <circle cx="755.9" cy="413.018" r="10.495" stroke-width="0.5" stroke="black" fill="yellow"/>
  <circle cx="755.9" cy="413.018" r="6.32262" stroke-width="0.5" stroke="yellow" fill="yellow"/>
   </g>
   <g id="cell102">
  <circle cx="605.32" cy="163.719" r="10.1983" stroke-width="0.5" stroke="black" fill="yellow"/>
  <circle cx="605.32" cy="163.719" r="6.17397" stroke-width="0.5" stroke="yellow" fill="yellow"/>
   </g>
   <g id="cell98">
  <circle cx="882.596" cy="375.338" r="9.99686" stroke-width="0.5" stroke="black" fill="yellow"/>
  <circle cx="882.596" cy="375.338" r="6.06413" stroke-width="0.5" stroke="yellow" fill="yellow"/>
   </g>
   <g id="cell97">
  <circle cx="414.232" cy="95.645" r="9.86102" stroke-width="0.5" stroke="black" fill="yellow"/>
  <circle cx="414.232" cy="95.645" r="5.98757" stroke-width="0.5" stroke="yellow" fill="yellow"/>
   </g>
   <g id="cell16">
  <circle cx="131.186" cy="708.3" r="3.38823" stroke-width="0.5" stroke="black" fill="grey"/>
  <circle cx="131.186" cy="708.3" r="2.91112" stroke-width="0.5" stroke="black" fill="black"/>
   </g>
   <g id="cell116">
  <circle cx="828.29" cy="416.675" r="8.92159" stroke-width="0.5" stroke="black" fill="yellow"/>
  <circle cx="828.29" cy="416.675" r="5.41391" stroke-width="0.5" stroke="yellow" fill="yellow"/>
   </g>
   <g id="cell177">
  <circle cx="445.818" cy="285.255" r="8.41016" stroke-width="0.5" stroke="black" fill="red"/>
  <circle cx="445.818" cy="285.255" r="5.05098" stroke-width="0.5" stroke="red" fill="red"/>
   </g>
   <g id="cell101">
  <circle cx="104.123" cy="150.545" r="8.39473" stroke-width="0.5" stroke="black" fill="yellow"/>
  <circle cx="104.123" cy="150.545" r="5.04562" stroke-width="0.5" stroke="yellow" fill="yellow"/>
   </g>
   <g id="cell184">
  <circle cx="522.873" cy="298.435" r="10.2609" stroke-width="0.5" stroke="black" fill="red"/>
  <circle cx="522.873" cy="298.435" r="6.20729" stroke-width="0.5" stroke="red" fill="red"/>
   </g>
   <g id="cell99">
  <circle cx="493.798" cy="983.45" r="10.161" stroke-width="0.5" stroke="black" fill="yellow"/>
  <circle cx="493.798" cy="983.45" r="6.15421" stroke-width="0.5" stroke="yellow" fill="yellow"/>
   </g>
   <g id="cell115">
  <circle cx="223.314" cy="20.0854" r="10.3537" stroke-width="0.5" stroke="black" fill="yellow"/>
  <circle cx="223.314" cy="20.0854" r="6.25464" stroke-width="0.5" stroke="yellow" fill="yellow"/>
   </g>
   <g id="cell191">
  <circle cx="745.158" cy="132.202" r="9.6972" stroke-width="0.5" stroke="black" fill="grey"/>
  <circle cx="745.158" cy="132.202" r="5.89273" stroke-width="0.5" stroke="grey" fill="grey"/>
   </g>
   <g id="cell153">
  <circle cx="192.504" cy="383.362" r="10.4392" stroke-width="0.5" stroke="black" fill="red"/>
  <circle cx="192.504" cy="383.362" r="6.29668" stroke-width="0.5" stroke="red" fill="red"/>
   </g>
   <g id="cell105">
  <circle cx="52.4303" cy="399.962" r="8.38532" stroke-width="0.5" stroke="black" fill="yellow"/>
  <circle cx="52.4303" cy="399.962" r="5.04199" stroke-width="0.5" stroke="yellow" fill="yellow"/>
   </g>
   <g id="cell26">
  <circle cx="675.114" cy="475.281" r="2.36298" stroke-width="0.5" stroke="black" fill="grey"/>
  <circle cx="675.114" cy="475.281" r="2.26114" stroke-width="0.5" stroke="black" fill="black"/>
   </g>
   <g id="cell117">
  <circle cx="887.406" cy="373.51" r="8.40715" stroke-width="0.5" stroke="black" fill="yellow"/>
  <circle cx="887.406" cy="373.51" r="5.05003" stroke-width="0.5" stroke="yellow" fill="yellow"/>
   </g>
   <g id="cell28">
  <circle cx="686.859" cy="120.554" r="8.41163" stroke-width="0.5" stroke="black" fill="grey"/>
  <circle cx="686.859" cy="120.554" r="5.0514" stroke-width="0.5" stroke="grey" fill="grey"/>
   </g>
   <g id="cell29">
  <circle cx="952.145" cy="635.089" r="10.2215" stroke-width="0.5" stroke="black" fill="grey"/>
  <circle cx="952.145" cy="635.089" r="6.18613" stroke-width="0.5" stroke="grey" fill="grey"/>
   </g>
   <g id="cell30">
  <circle cx="754.858" cy="129.271" r="8.40632" stroke-width="0.5" stroke="black" fill="grey"/>
  <circle cx="754.858" cy="129.271" r="5.04976" stroke-width="0.5" stroke="grey" fill="grey"/>
   </g>
   <g id="cell190">
  <circle cx="445.111" cy="114.817" r="8.40667" stroke-width="0.5" stroke="black" fill="yellow"/>
  <circle cx="445.111" cy="114.817" r="5.04987" stroke-width="0.5" stroke="yellow" fill="yellow"/>
   </g>
   <g id="cell114">
  <circle cx="68.7683" cy="370.75" r="10.1358" stroke-width="0.5" stroke="black" fill="yellow"/>
  <circle cx="68.7683" cy="370.75" r="6.14039" stroke-width="0.5" stroke="yellow" fill="yellow"/>
   </g>
   <g id="cell107">
  <circle cx="376.334" cy="469.493" r="8.39316" stroke-width="0.5" stroke="black" fill="yellow"/>
  <circle cx="376.334" cy="469.493" r="5.04503" stroke-width="0.5" stroke="yellow" fill="yellow"/>
   </g>
   <g id="cell106">
  <circle cx="16.4643" cy="921.198" r="10.4789" stroke-width="0.5" stroke="black" fill="yellow"/>
  <circle cx="16.4643" cy="921.198" r="6.31532" stroke-width="0.5" stroke="yellow" fill="yellow"/>
   </g>
   <g id="cell35">
  <circle cx="941.922" cy="79.3837" r="10.5536" stroke-width="0.5" stroke="black" fill="grey"/>
  <circle cx="941.922" cy="79.3837" r="6.34799" stroke-width="0.5" stroke="grey" fill="grey"/>
   </g>
   <g id="cell109">
  <circle cx="365.971" cy="982.682" r="9.37517" stroke-width="0.5" stroke="black" fill="yellow"/>
  <circle cx="365.971" cy="982.682" r="5.69905" stroke-width="0.5" stroke="yellow" fill="yellow"/>
   </g>
   <g id="cell111">
  <circle cx="783.639" cy="401.258" r="8.40667" stroke-width="0.5" stroke="black" fill="yellow"/>
  <circle cx="783.639" cy="401.258" r="5.04987" stroke-width="0.5" stroke="yellow" fill="yellow"/>
   </g>
   <g id="cell131">
  <circle cx="635.464" cy="593.677" r="10.4097" stroke-width="0.5" stroke="black" fill="grey"/>
  <circle cx="635.464" cy="593.677" r="6.28235" stroke-width="0.5" stroke="grey" fill="grey"/>
   </g>
   <g id="cell110">
  <circle cx="862.463" cy="276.116" r="8.39021" stroke-width="0.5" stroke="black" fill="yellow"/>
  <circle cx="862.463" cy="276.116" r="5.0439" stroke-width="0.5" stroke="yellow" fill="yellow"/>
   </g>
   <g id="cell40">
  <circle cx="167.593" cy="401.45" r="10.3982" stroke-width="0.5" stroke="black" fill="red"/>
  <circle cx="167.593" cy="401.45" r="6.2768" stroke-width="0.5" stroke="red" fill="red"/>
   </g>
   <g id="cell41">
  <circle cx="683.956" cy="704.51" r="10.43" stroke-width="0.5" stroke="black" fill="red"/>
  <circle cx="683.956" cy="704.51" r="6.29224" stroke-width="0.5" stroke="red" fill="red"/>
   </g>
   <g id="cell42">
  <circle cx="158.846" cy="709.652" r="10.2814" stroke-width="0.5" stroke="black" fill="red"/>
  <circle cx="158.846" cy="709.652" r="6.2176" stroke-width="0.5" stroke="red" fill="red"/>
   </g>
   <g id="cell43">
  <circle cx="854.878" cy="394.409" r="10.2806" stroke-width="0.5" stroke="black" fill="red"/>
  <circle cx="854.878" cy="394.409" r="6.21737" stroke-width="0.5" stroke="red" fill="red"/>
   </g>
   <g id="cell44">
  <circle cx="834.776" cy="47.1719" r="10.299" stroke-width="0.5" stroke="black" fill="red"/>
  <circle cx="834.776" cy="47.1719" r="6.22674" stroke-width="0.5" stroke="red" fill="red"/>
   </g>
   <g id="cell45">
  <circle cx="681.896" cy="809.319" r="8.96527" stroke-width="0.5" stroke="black" fill="red"/>
  <circle cx="681.896" cy="809.319" r="5.44135" stroke-width="0.5" stroke="red" fill="red"/>
   </g>
   <g id="cell46">
  <circle cx="33.4508" cy="912.488" r="8.6504" stroke-width="0.5" stroke="black" fill="red"/>
  <circle cx="33.4508" cy="912.488" r="5.22698" stroke-width="0.5" stroke="red" fill="red"/>
   </g>
   <g id="cell47">
  <circle cx="884.853" cy="449.458" r="10.3803" stroke-width="0.5" stroke="black" fill="red"/>
  <circle cx="884.853" cy="449.458" r="6.26794" stroke-width="0.5" stroke="red" fill="red"/>
   </g>
   <g id="cell48">
  <circle cx="929.54" cy="37.3373" r="10.5007" stroke-width="0.5" stroke="black" fill="red"/>
  <circle cx="929.54" cy="37.3373" r="6.32521" stroke-width="0.5" stroke="red" fill="red"/>
   </g>
   <g id="cell49">
  <circle cx="475.127" cy="802.402" r="10.0639" stroke-width="0.5" stroke="black" fill="red"/>
  <circle cx="475.127" cy="802.402" r="6.10103" stroke-width="0.5" stroke="red" fill="red"/>
   </g>
   <g id="cell50">
  <circle cx="31.6008" cy="441.954" r="10.3396" stroke-width="0.5" stroke="black" fill="red"/>
  <circle cx="31.6008" cy="441.954" r="6.24742" stroke-width="0.5" stroke="red" fill="red"/>
   </g>
   <g id="cell51">
  <circle cx="880.719" cy="130.788" r="10.4684" stroke-width="0.5" stroke="black" fill="red"/>
  <circle cx="880.719" cy="130.788" r="6.3104" stroke-width="0.5" stroke="red" fill="red"/>
   </g>
   <g id="cell96">
  <circle cx="825.13" cy="558.773" r="10.3734" stroke-width="0.5" stroke="black" fill="yellow"/>
  <circle cx="825.13" cy="558.773" r="6.26463" stroke-width="0.5" stroke="yellow" fill="yellow"/>
   </g>
   <g id="cell53">
  <circle cx="684.044" cy="282.62" r="10.506" stroke-width="0.5" stroke="black" fill="red"/>
  <circle cx="684.044" cy="282.62" r="6.32762" stroke-width="0.5" stroke="red" fill="red"/>
   </g>
   <g id="cell54">
  <circle cx="421.498" cy="901.776" r="8.41088" stroke-width="0.5" stroke="black" fill="red"/>
  <circle cx="421.498" cy="901.776" r="5.05119" stroke-width="0.5" stroke="red" fill="red"/>
   </g>
   <g id="cell55">
  <circle cx="198.678" cy="660.378" r="8.40154" stroke-width="0.5" stroke="black" fill="red"/>
  <circle cx="198.678" cy="660.378" r="5.04811" stroke-width="0.5" stroke="red" fill="red"/>
   </g>
   <g id="cell56">
  <circle cx="620.019" cy="832.811" r="10.4298" stroke-width="0.5" stroke="black" fill="red"/>
  <circle cx="620.019" cy="832.811" r="6.29219" stroke-width="0.5" stroke="red" fill="red"/>
   </g>
   <g id="cell57">
  <circle cx="489.473" cy="512.278" r="10.4482" stroke-width="0.5" stroke="black" fill="red"/>
  <circle cx="489.473" cy="512.278" r="6.30094" stroke-width="0.5" stroke="red" fill="red"/>
   </g>
   <g id="cell58">
  <circle cx="12.6484" cy="867.604" r="10.3603" stroke-width="0.5" stroke="black" fill="red"/>
  <circle cx="12.6484" cy="867.604" r="6.25803" stroke-width="0.5" stroke="red" fill="red"/>
   </g>
   <g id="cell59">
  <circle cx="65.1791" cy="949.9" r="10.3859" stroke-width="0.5" stroke="black" fill="red"/>
  <circle cx="65.1791" cy="949.9" r="6.27083" stroke-width="0.5" stroke="red" fill="red"/>
   </g>
   <g id="cell60">
  <circle cx="239.358" cy="42.0702" r="9.75002" stroke-width="0.5" stroke="black" fill="red"/>
  <circle cx="239.358" cy="42.0702" r="5.92287" stroke-width="0.5" stroke="red" fill="red"/>
   </g>
   <g id="cell61">
  <circle cx="817.925" cy="138.895" r="9.19866" stroke-width="0.5" stroke="black" fill="red"/>
  <circle cx="817.925" cy="138.895" r="5.58979" stroke-width="0.5" stroke="red" fill="red"/>
   </g>
   <g id="cell62">
  <circle cx="727.364" cy="798.666" r="10.3811" stroke-width="0.5" stroke="black" fill="red"/>
  <circle cx="727.364" cy="798.666" r="6.26814" stroke-width="0.5" stroke="red" fill="red"/>
   </g>
   <g id="cell63">
  <circle cx="343.201" cy="178.253" r="10.109" stroke-width="0.5" stroke="black" fill="red"/>
  <circle cx="343.201" cy="178.253" r="6.12563" stroke-width="0.5" stroke="red" fill="red"/>
   </g>
   <g id="cell64">
  <circle cx="586.153" cy="554.478" r="10.4761" stroke-width="0.5" stroke="black" fill="red"/>
  <circle cx="586.153" cy="554.478" r="6.31388" stroke-width="0.5" stroke="red" fill="red"/>
   </g>
   <g id="cell188">
  <circle cx="864.764" cy="395.189" r="9.30372" stroke-width="0.5" stroke="black" fill="yellow"/>
  <circle cx="864.764" cy="395.189" r="5.65596" stroke-width="0.5" stroke="yellow" fill="yellow"/>
   </g>
   <g id="cell66">
  <circle cx="13.8396" cy="153.78" r="10.2978" stroke-width="0.5" stroke="black" fill="red"/>
  <circle cx="13.8396" cy="153.78" r="6.2264" stroke-width="0.5" stroke="red" fill="red"/>
   </g>
   <g id="cell67">
  <circle cx="517.357" cy="250.279" r="1.65199" stroke-width="0.5" stroke="black" fill="red"/>
  <circle cx="517.357" cy="250.279" r="1.61629" stroke-width="0.5" stroke="black" fill="black"/>
   </g>
   <g id="cell68">
  <circle cx="750.084" cy="240.045" r="10.3866" stroke-width="0.5" stroke="black" fill="red"/>
  <circle cx="750.084" cy="240.045" r="6.27104" stroke-width="0.5" stroke="red" fill="red"/>
   </g>
   <g id="cell69">
  <circle cx="452.041" cy="306.762" r="8.41016" stroke-width="0.5" stroke="black" fill="red"/>
  <circle cx="452.041" cy="306.762" r="5.05098" stroke-width="0.5" stroke="red" fill="red"/>
   </g>
   <g id="cell70">
  <circle cx="515.109" cy="369.685" r="10.1491" stroke-width="0.5" stroke="black" fill="red"/>
  <circle cx="515.109" cy="369.685" r="6.14758" stroke-width="0.5" stroke="red" fill="red"/>
   </g>
   <g id="cell71">
  <circle cx="884.713" cy="502.479" r="10.5061" stroke-width="0.5" stroke="black" fill="red"/>
  <circle cx="884.713" cy="502.479" r="6.32764" stroke-width="0.5" stroke="red" fill="red"/>
   </g>
   <g id="cell72">
  <circle cx="184.41" cy="894.386" r="10.4481" stroke-width="0.5" stroke="black" fill="red"/>
  <circle cx="184.41" cy="894.386" r="6.30091" stroke-width="0.5" stroke="red" fill="red"/>
   </g>
   <g id="cell73">
  <circle cx="639.636" cy="441.754" r="10.2905" stroke-width="0.5" stroke="black" fill="red"/>
  <circle cx="639.636" cy="441.754" r="6.2223" stroke-width="0.5" stroke="red" fill="red"/>
   </g>
   <g id="cell74">
  <circle cx="860.589" cy="966.652" r="9.70063" stroke-width="0.5" stroke="black" fill="red"/>
  <circle cx="860.589" cy="966.652" r="5.89387" stroke-width="0.5" stroke="red" fill="red"/>
   </g>
   <g id="cell75">
  <circle cx="109.185" cy="319.262" r="10.4394" stroke-width="0.5" stroke="black" fill="red"/>
  <circle cx="109.185" cy="319.262" r="6.29674" stroke-width="0.5" stroke="red" fill="red"/>
   </g>
   <g id="cell76">
  <circle cx="779.068" cy="408.714" r="9.9441" stroke-width="0.5" stroke="black" fill="red"/>
  <circle cx="779.068" cy="408.714" r="6.03409" stroke-width="0.5" stroke="red" fill="red"/>
   </g>
   <g id="cell77">
  <circle cx="658.697" cy="842.121" r="10.3074" stroke-width="0.5" stroke="black" fill="red"/>
  <circle cx="658.697" cy="842.121" r="6.23112" stroke-width="0.5" stroke="red" fill="red"/>
   </g>
   <g id="cell78">
  <circle cx="594.108" cy="273.663" r="10.2717" stroke-width="0.5" stroke="black" fill="red"/>
  <circle cx="594.108" cy="273.663" r="6.21265" stroke-width="0.5" stroke="red" fill="red"/>
   </g>
   <g id="cell79">
  <circle cx="987.843" cy="699.931" r="9.94307" stroke-width="0.5" stroke="black" fill="red"/>
  <circle cx="987.843" cy="699.931" r="6.03377" stroke-width="0.5" stroke="red" fill="red"/>
   </g>
   <g id="cell80">
  <circle cx="740.242" cy="692.195" r="8.38823" stroke-width="0.5" stroke="black" fill="yellow"/>
  <circle cx="740.242" cy="692.195" r="5.04313" stroke-width="0.5" stroke="yellow" fill="yellow"/>
   </g>
   <g id="cell81">
  <circle cx="495.204" cy="980.452" r="10.4258" stroke-width="0.5" stroke="black" fill="yellow"/>
  <circle cx="495.204" cy="980.452" r="6.29005" stroke-width="0.5" stroke="yellow" fill="yellow"/>
   </g>
   <g id="cell82">
  <circle cx="621.307" cy="407.309" r="10.4854" stroke-width="0.5" stroke="black" fill="yellow"/>
  <circle cx="621.307" cy="407.309" r="6.31833" stroke-width="0.5" stroke="yellow" fill="yellow"/>
   </g>
   <g id="cell83">
  <circle cx="589.842" cy="567.515" r="10.3801" stroke-width="0.5" stroke="black" fill="yellow"/>
  <circle cx="589.842" cy="567.515" r="6.26789" stroke-width="0.5" stroke="yellow" fill="yellow"/>
   </g>
   <g id="cell84">
  <circle cx="14.6403" cy="515.617" r="10.0148" stroke-width="0.5" stroke="black" fill="yellow"/>
  <circle cx="14.6403" cy="515.617" r="6.07394" stroke-width="0.5" stroke="yellow" fill="yellow"/>
   </g>
   <g id="cell85">
  <circle cx="778.965" cy="674.664" r="3.62732" stroke-width="0.5" stroke="black" fill="yellow"/>
  <circle cx="778.965" cy="674.664" r="3.03082" stroke-width="0.5" stroke="black" fill="black"/>
   </g>
   <g id="cell86">
  <circle cx="309.569" cy="430.781" r="8.76296" stroke-width="0.5" stroke="black" fill="yellow"/>
  <circle cx="309.569" cy="430.781" r="5.30706" stroke-width="0.5" stroke="yellow" fill="yellow"/>
   </g>
   <g id="cell87">
  <circle cx="768.445" cy="395.034" r="9.00742" stroke-width="0.5" stroke="black" fill="yellow"/>
  <circle cx="768.445" cy="395.034" r="5.4679" stroke-width="0.5" stroke="yellow" fill="yellow"/>
   </g>
   <g id="cell88">
  <circle cx="152.165" cy="105.459" r="1.70048" stroke-width="0.5" stroke="black" fill="yellow"/>
  <circle cx="152.165" cy="105.459" r="1.68259" stroke-width="0.5" stroke="black" fill="black"/>
   </g>
   <g id="cell89">
  <circle cx="63.5969" cy="532.48" r="9.9232" stroke-width="0.5" stroke="black" fill="yellow"/>
  <circle cx="63.5969" cy="532.48" r="6.02269" stroke-width="0.5" stroke="yellow" fill="yellow"/>
   </g>
   <g id="cell193">
  <circle cx="208.654" cy="667.707" r="8.99832" stroke-width="0.5" stroke="black" fill="red"/>
  <circle cx="208.654" cy="667.707" r="5.46476" stroke-width="0.5" stroke="red" fill="red"/>
   </g>
   <g id="cell91">
  <circle cx="8.34858" cy="655.361" r="8.42933" stroke-width="0.5" stroke="black" fill="yellow"/>
  <circle cx="8.34858" cy="655.361" r="5.06464" stroke-width="0.5" stroke="yellow" fill="yellow"/>
   </g>
   <g id="cell92">
  <circle cx="658.845" cy="305.886" r="10.3236" stroke-width="0.5" stroke="black" fill="yellow"/>
  <circle cx="658.845" cy="305.886" r="6.23941" stroke-width="0.5" stroke="yellow" fill="yellow"/>
   </g>
   <g id="cell93">
  <circle cx="226.155" cy="849.392" r="8.43177" stroke-width="0.5" stroke="black" fill="yellow"/>
  <circle cx="226.155" cy="849.392" r="5.06535" stroke-width="0.5" stroke="yellow" fill="yellow"/>
   </g>
   <g id="cell94">
  <circle cx="391.425" cy="98.2362" r="10.079" stroke-width="0.5" stroke="black" fill="yellow"/>
  <circle cx="391.425" cy="98.2362" r="6.10938" stroke-width="0.5" stroke="yellow" fill="yellow"/>
   </g>
   <g id="cell95">
  <circle cx="937.383" cy="903.938" r="10.3798" stroke-width="0.5" stroke="black" fill="yellow"/>
  <circle cx="937.383" cy="903.938" r="6.26778" stroke-width="0.5" stroke="yellow" fill="yellow"/>
   </g>
   <g id="cell121">
  <circle cx="19.3518" cy="489.536" r="8.41202" stroke-width="0.5" stroke="black" fill="red"/>
  <circle cx="19.3518" cy="489.536" r="5.0515" stroke-width="0.5" stroke="red" fill="red"/>
   </g>
   <g id="cell122">
  <circle cx="703.501" cy="436.47" r="10.4857" stroke-width="0.5" stroke="black" fill="yellow"/>
  <circle cx="703.501" cy="436.47" r="6.31842" stroke-width="0.5" stroke="yellow" fill="yellow"/>
   </g>
   <g id="cell123">
  <circle cx="257.218" cy="898.637" r="8.41198" stroke-width="0.5" stroke="black" fill="yellow"/>
  <circle cx="257.218" cy="898.637" r="5.05149" stroke-width="0.5" stroke="yellow" fill="yellow"/>
   </g>
   <g id="cell124">
  <circle cx="488.118" cy="635.213" r="10.332" stroke-width="0.5" stroke="black" fill="grey"/>
  <circle cx="488.118" cy="635.213" r="6.24356" stroke-width="0.5" stroke="grey" fill="grey"/>
   </g>
   <g id="cell125">
  <circle cx="796.546" cy="420.528" r="10.5061" stroke-width="0.5" stroke="black" fill="yellow"/>
  <circle cx="796.546" cy="420.528" r="6.32765" stroke-width="0.5" stroke="yellow" fill="yellow"/>
   </g>
   <g id="cell126">
  <circle cx="944.092" cy="170.473" r="10.3079" stroke-width="0.5" stroke="black" fill="red"/>
  <circle cx="944.092" cy="170.473" r="6.23123" stroke-width="0.5" stroke="red" fill="red"/>
   </g>
   <g id="cell127">
  <circle cx="897.08" cy="543.27" r="10.4949" stroke-width="0.5" stroke="black" fill="red"/>
  <circle cx="897.08" cy="543.27" r="6.32262" stroke-width="0.5" stroke="red" fill="red"/>
   </g>
   <g id="cell128">
  <circle cx="938.496" cy="25.1644" r="10.2323" stroke-width="0.5" stroke="black" fill="red"/>
  <circle cx="938.496" cy="25.1644" r="6.19183" stroke-width="0.5" stroke="red" fill="red"/>
   </g>
   <g id="cell129">
  <circle cx="981.073" cy="676.603" r="10.479" stroke-width="0.5" stroke="black" fill="grey"/>
  <circle cx="981.073" cy="676.603" r="6.31535" stroke-width="0.5" stroke="grey" fill="grey"/>
   </g>
   <g id="cell130">
  <circle cx="905.884" cy="615.982" r="8.41182" stroke-width="0.5" stroke="black" fill="yellow"/>
  <circle cx="905.884" cy="615.982" r="5.05145" stroke-width="0.5" stroke="yellow" fill="yellow"/>
   </g>
   <g id="cell132">
  <circle cx="58.9966" cy="921.216" r="10.4202" stroke-width="0.5" stroke="black" fill="red"/>
  <circle cx="58.9966" cy="921.216" r="6.28747" stroke-width="0.5" stroke="red" fill="red"/>
   </g>
   <g id="cell133">
  <circle cx="648.788" cy="383.036" r="9.96347" stroke-width="0.5" stroke="black" fill="red"/>
  <circle cx="648.788" cy="383.036" r="6.04482" stroke-width="0.5" stroke="red" fill="red"/>
   </g>
   <g id="cell134">
  <circle cx="624.597" cy="436.457" r="1.65283" stroke-width="0.5" stroke="black" fill="grey"/>
  <circle cx="624.597" cy="436.457" r="1.61703" stroke-width="0.5" stroke="black" fill="black"/>
   </g>
   <g id="cell136">
  <circle cx="643.299" cy="450.657" r="10.3318" stroke-width="0.5" stroke="black" fill="red"/>
  <circle cx="643.299" cy="450.657" r="6.24352" stroke-width="0.5" stroke="red" fill="red"/>
   </g>
   <g id="cell137">
  <circle cx="801.763" cy="667.497" r="9.53482" stroke-width="0.5" stroke="black" fill="yellow"/>
  <circle cx="801.763" cy="667.497" r="5.7954" stroke-width="0.5" stroke="yellow" fill="yellow"/>
   </g>
   <g id="cell138">
  <circle cx="732.146" cy="238.918" r="10.5006" stroke-width="0.5" stroke="black" fill="red"/>
  <circle cx="732.146" cy="238.918" r="6.32518" stroke-width="0.5" stroke="red" fill="red"/>
   </g>
   <g id="cell139">
  <circle cx="787.565" cy="753.466" r="8.41172" stroke-width="0.5" stroke="black" fill="yellow"/>
  <circle cx="787.565" cy="753.466" r="5.05142" stroke-width="0.5" stroke="yellow" fill="yellow"/>
   </g>
   <g id="cell140">
  <circle cx="66.2424" cy="334.497" r="10.4948" stroke-width="0.5" stroke="black" fill="red"/>
  <circle cx="66.2424" cy="334.497" r="6.32258" stroke-width="0.5" stroke="red" fill="red"/>
   </g>
   <g id="cell141">
  <circle cx="16.2235" cy="971.049" r="10.4856" stroke-width="0.5" stroke="black" fill="yellow"/>
  <circle cx="16.2235" cy="971.049" r="6.31837" stroke-width="0.5" stroke="yellow" fill="yellow"/>
   </g>
   <g id="cell142">
  <circle cx="688.966" cy="679.155" r="8.41166" stroke-width="0.5" stroke="black" fill="red"/>
  <circle cx="688.966" cy="679.155" r="5.05141" stroke-width="0.5" stroke="red" fill="red"/>
   </g>
   <g id="cell143">
  <circle cx="118.892" cy="731.58" r="9.19927" stroke-width="0.5" stroke="black" fill="red"/>
  <circle cx="118.892" cy="731.58" r="5.58997" stroke-width="0.5" stroke="red" fill="red"/>
   </g>
   <g id="cell144">
  <circle cx="658.349" cy="142.142" r="10.4394" stroke-width="0.5" stroke="black" fill="grey"/>
  <circle cx="658.349" cy="142.142" r="6.29673" stroke-width="0.5" stroke="grey" fill="grey"/>
   </g>
   <g id="cell145">
  <circle cx="547.756" cy="531.441" r="8.65022" stroke-width="0.5" stroke="black" fill="red"/>
  <circle cx="547.756" cy="531.441" r="5.22692" stroke-width="0.5" stroke="red" fill="red"/>
   </g>
   <g id="cell146">
  <circle cx="314.034" cy="189.773" r="10.4148" stroke-width="0.5" stroke="black" fill="red"/>
  <circle cx="314.034" cy="189.773" r="6.2849" stroke-width="0.5" stroke="red" fill="red"/>
   </g>
   <g id="cell147">
  <circle cx="640.167" cy="393.221" r="9.62107" stroke-width="0.5" stroke="black" fill="yellow"/>
  <circle cx="640.167" cy="393.221" r="5.84685" stroke-width="0.5" stroke="yellow" fill="yellow"/>
   </g>
   <g id="cell148">
  <circle cx="181.228" cy="762.846" r="10.4886" stroke-width="0.5" stroke="black" fill="grey"/>
  <circle cx="181.228" cy="762.846" r="6.31978" stroke-width="0.5" stroke="grey" fill="grey"/>
   </g>
   <g id="cell149">
  <circle cx="864.486" cy="447.521" r="10.4681" stroke-width="0.5" stroke="black" fill="red"/>
  <circle cx="864.486" cy="447.521" r="6.31033" stroke-width="0.5" stroke="red" fill="red"/>
   </g>
   <g id="cell150">
  <circle cx="179.467" cy="33.5432" r="10.1988" stroke-width="0.5" stroke="black" fill="yellow"/>
  <circle cx="179.467" cy="33.5432" r="6.17412" stroke-width="0.5" stroke="yellow" fill="yellow"/>
   </g>
   <g id="cell151">
  <circle cx="214.292" cy="895.271" r="9.94457" stroke-width="0.5" stroke="black" fill="red"/>
  <circle cx="214.292" cy="895.271" r="6.03423" stroke-width="0.5" stroke="red" fill="red"/>
   </g>
   <g id="cell152">
  <circle cx="599.798" cy="840.569" r="10.4481" stroke-width="0.5" stroke="black" fill="red"/>
  <circle cx="599.798" cy="840.569" r="6.3009" stroke-width="0.5" stroke="red" fill="red"/>
   </g>
   <g id="cell154">
  <circle cx="873.405" cy="33.2534" r="10.1749" stroke-width="0.5" stroke="black" fill="red"/>
  <circle cx="873.405" cy="33.2534" r="6.16134" stroke-width="0.5" stroke="red" fill="red"/>
   </g>
   <g id="cell155">
  <circle cx="647.547" cy="901.738" r="10.4298" stroke-width="0.5" stroke="black" fill="red"/>
  <circle cx="647.547" cy="901.738" r="6.29217" stroke-width="0.5" stroke="red" fill="red"/>
   </g>
   <g id="cell156">
  <circle cx="886.715" cy="511.462" r="7.96835" stroke-width="0.5" stroke="black" fill="grey"/>
  <circle cx="886.715" cy="511.462" r="4.97143" stroke-width="0.5" stroke="black" fill="black"/>
   </g>
   <g id="cell157">
  <circle cx="627.182" cy="628.192" r="10.1364" stroke-width="0.5" stroke="black" fill="yellow"/>
  <circle cx="627.182" cy="628.192" r="6.14057" stroke-width="0.5" stroke="yellow" fill="yellow"/>
   </g>
   <g id="cell158">
  <circle cx="163.19" cy="140.34" r="1.81721" stroke-width="0.5" stroke="black" fill="yellow"/>
  <circle cx="163.19" cy="140.34" r="1.79034" stroke-width="0.5" stroke="black" fill="black"/>
   </g>
   <g id="cell159">
  <circle cx="664.604" cy="292.697" r="9.9251" stroke-width="0.5" stroke="black" fill="yellow"/>
  <circle cx="664.604" cy="292.697" r="6.02329" stroke-width="0.5" stroke="yellow" fill="yellow"/>
   </g>
   <g id="cell160">
  <circle cx="609.624" cy="289.96" r="10.1867" stroke-width="0.5" stroke="black" fill="red"/>
  <circle cx="609.624" cy="289.96" r="6.16776" stroke-width="0.5" stroke="red" fill="red"/>
   </g>
   <g id="cell161">
  <circle cx="39.9117" cy="929.436" r="1.45159" stroke-width="0.5" stroke="black" fill="red"/>
  <circle cx="39.9117" cy="929.436" r="1.43561" stroke-width="0.5" stroke="black" fill="black"/>
   </g>
   <g id="cell162">
  <circle cx="839.731" cy="115.304" r="10.4295" stroke-width="0.5" stroke="black" fill="red"/>
  <circle cx="839.731" cy="115.304" r="6.2921" stroke-width="0.5" stroke="red" fill="red"/>
   </g>
   <g id="cell163">
  <circle cx="449.66" cy="970.075" r="10.4196" stroke-width="0.5" stroke="black" fill="red"/>
  <circle cx="449.66" cy="970.075" r="6.2873" stroke-width="0.5" stroke="red" fill="red"/>
   </g>
   <g id="cell164">
  <circle cx="814.267" cy="954.327" r="9.08485" stroke-width="0.5" stroke="black" fill="red"/>
  <circle cx="814.267" cy="954.327" r="5.51791" stroke-width="0.5" stroke="red" fill="red"/>
   </g>
   <g id="cell165">
  <circle cx="833.622" cy="396.672" r="10.4143" stroke-width="0.5" stroke="black" fill="red"/>
  <circle cx="833.622" cy="396.672" r="6.28476" stroke-width="0.5" stroke="red" fill="red"/>
   </g>
   <g id="cell166">
  <circle cx="802.052" cy="502.851" r="10.4089" stroke-width="0.5" stroke="black" fill="yellow"/>
  <circle cx="802.052" cy="502.851" r="6.28215" stroke-width="0.5" stroke="yellow" fill="yellow"/>
   </g>
   <g id="cell167">
  <circle cx="654.745" cy="141.483" r="10.0483" stroke-width="0.5" stroke="black" fill="yellow"/>
  <circle cx="654.745" cy="141.483" r="6.09239" stroke-width="0.5" stroke="yellow" fill="yellow"/>
   </g>
   <g id="cell168">
  <circle cx="939.175" cy="895.197" r="10.3387" stroke-width="0.5" stroke="black" fill="yellow"/>
  <circle cx="939.175" cy="895.197" r="6.24716" stroke-width="0.5" stroke="yellow" fill="yellow"/>
   </g>
   <g id="cell169">
  <circle cx="357.437" cy="971.586" r="10.2807" stroke-width="0.5" stroke="black" fill="yellow"/>
  <circle cx="357.437" cy="971.586" r="6.2174" stroke-width="0.5" stroke="yellow" fill="yellow"/>
   </g>
   <g id="cell170">
  <circle cx="67.4614" cy="983.158" r="8.41061" stroke-width="0.5" stroke="black" fill="red"/>
  <circle cx="67.4614" cy="983.158" r="5.05111" stroke-width="0.5" stroke="red" fill="red"/>
   </g>
   <g id="cell171">
  <circle cx="535.581" cy="398.124" r="10.2985" stroke-width="0.5" stroke="black" fill="red"/>
  <circle cx="535.581" cy="398.124" r="6.2266" stroke-width="0.5" stroke="red" fill="red"/>
   </g>
   <g id="cell172">
  <circle cx="474.855" cy="781.078" r="10.3152" stroke-width="0.5" stroke="black" fill="red"/>
  <circle cx="474.855" cy="781.078" r="6.23521" stroke-width="0.5" stroke="red" fill="red"/>
   </g>
   <g id="cell173">
  <circle cx="951.687" cy="422.52" r="8.41049" stroke-width="0.5" stroke="black" fill="red"/>
  <circle cx="951.687" cy="422.52" r="5.05108" stroke-width="0.5" stroke="red" fill="red"/>
   </g>
   <g id="cell174">
  <circle cx="363.94" cy="105.889" r="8.41036" stroke-width="0.5" stroke="black" fill="yellow"/>
  <circle cx="363.94" cy="105.889" r="5.05104" stroke-width="0.5" stroke="yellow" fill="yellow"/>
   </g>
   <g id="cell175">
  <circle cx="41.9518" cy="320.072" r="10.3385" stroke-width="0.5" stroke="black" fill="yellow"/>
  <circle cx="41.9518" cy="320.072" r="6.2471" stroke-width="0.5" stroke="yellow" fill="yellow"/>
   </g>
   <g id="cell178">
  <circle cx="61.4461" cy="161.115" r="10.2612" stroke-width="0.5" stroke="black" fill="red"/>
  <circle cx="61.4461" cy="161.115" r="6.20737" stroke-width="0.5" stroke="red" fill="red"/>
   </g>
   <g id="cell179">
  <circle cx="10.0963" cy="489.29" r="9.37437" stroke-width="0.5" stroke="black" fill="yellow"/>
  <circle cx="10.0963" cy="489.29" r="5.69879" stroke-width="0.5" stroke="yellow" fill="yellow"/>
   </g>
   <g id="cell180">
  <circle cx="39.206" cy="672.449" r="8.40953" stroke-width="0.5" stroke="black" fill="yellow"/>
  <circle cx="39.206" cy="672.449" r="5.05079" stroke-width="0.5" stroke="yellow" fill="yellow"/>
   </g>
   <g id="cell181">
  <circle cx="988.269" cy="679.388" r="8.40934" stroke-width="0.5" stroke="black" fill="red"/>
  <circle cx="988.269" cy="679.388" r="5.05073" stroke-width="0.5" stroke="red" fill="red"/>
   </g>
   <g id="cell182">
  <circle cx="523.053" cy="973.845" r="8.40925" stroke-width="0.5" stroke="black" fill="yellow"/>
  <circle cx="523.053" cy="973.845" r="5.0507" stroke-width="0.5" stroke="yellow" fill="yellow"/>
   </g>
   <g id="cell183">
  <circle cx="654.091" cy="865.174" r="8.40925" stroke-width="0.5" stroke="black" fill="red"/>
  <circle cx="654.091" cy="865.174" r="5.0507" stroke-width="0.5" stroke="red" fill="red"/>
   </g>
   <g id="cell187">
  <circle cx="310.952" cy="432.084" r="9.04291" stroke-width="0.5" stroke="black" fill="yellow"/>
  <circle cx="310.952" cy="432.084" r="5.492" stroke-width="0.5" stroke="yellow" fill="yellow"/>
   </g>
   <g id="cell189">
  <circle cx="781.735" cy="389.102" r="9.81746" stroke-width="0.5" stroke="black" fill="yellow"/>
  <circle cx="781.735" cy="389.102" r="5.96256" stroke-width="0.5" stroke="yellow" fill="yellow"/>
   </g>
   <g id="cell194">
  <circle cx="110.796" cy="167.209" r="8.75125" stroke-width="0.5" stroke="black" fill="yellow"/>
  <circle cx="110.796" cy="167.209" r="5.30275" stroke-width="0.5" stroke="yellow" fill="yellow"/>
   </g>
   <g id="cell195">
  <circle cx="388.632" cy="455.814" r="8.39316" stroke-width="0.5" stroke="black" fill="yellow"/>
  <circle cx="388.632" cy="455.814" r="5.04503" stroke-width="0.5" stroke="yellow" fill="yellow"/>
   </g>
   <g id="cell196">
  <circle cx="871.551" cy="284.783" r="8.39021" stroke-width="0.5" stroke="black" fill="yellow"/>
  <circle cx="871.551" cy="284.783" r="5.0439" stroke-width="0.5" stroke="yellow" fill="yellow"/>
   </g>
   <g id="cell197">
  <circle cx="731.867" cy="704.566" r="8.38823" stroke-width="0.5" stroke="black" fill="yellow"/>
  <circle cx="731.867" cy="704.566" r="5.04313" stroke-width="0.5" stroke="yellow" fill="yellow"/>
   </g>
   <g id="cell198">
  <circle cx="57.8966" cy="411.007" r="8.38532" stroke-width="0.5" stroke="black" fill="yellow"/>
  <circle cx="57.8966" cy="411.007" r="5.04199" stroke-width="0.5" stroke="yellow" fill="yellow"/>
   </g>
  </g>
 </g>
  <rect x="775" y="1035" width="200" height="10" stroke-width="2" stroke="rgb(255,255,255)" fill="rgb(0,0,0)"/>
  <text x="781.25" y="1028.75"
   font-family="Arial" font-size="25" fill="black" >
   200 &#956;m
  </text>
  <text x="25" y="1045"
   font-family="Arial" font-size="18.75" fill="black" >
   0 days, 0 hours, 2 minutes, and 6.1296 seconds
  </text>
  <rect x="0" y="70" width="1000" height="1000" stroke-width="2" stroke="rgb(0,0,0)" fill="none"/>
</svg>
