<?xml version="1.0" encoding="UTF-8" standalone="no"?>
<!-- Created with PhysiCell (http://PhysiCell.MathCancer.org/) -->
<svg 
 xmlns:dc="http://purl.org/dc/elements/1.1/" 
 xmlns:cc="http://creativecommons.org/ns#" 
 xmlns:rdf="http://www.w3.org/1999/02/22-rdf-syntax-ns#" 
 xmlns:svg="http://www.w3.org/2000/svg" 
 xmlns="http://www.w3.org/2000/svg" 
 version="1.1" 
 width="1000" 
 height="1070" 
 id="svg2">
  <rect x="0" y="0" width="1000" height="1070" stroke-width="2" stroke="white" fill="white"/>
  <text x="12.5" y="30"
   font-family="Arial" font-size="25" fill="black" >
   Current time: 0 days, 17 hours, and 30.00 minutes, z = 0.00 &#956;m
  </text>
  <text x="12.5" y="57.5"
   font-family="Arial" font-size="23.75" fill="black" >
   125 agents
  </text>
 <g id="tissue" 
    transform="translate(0,1070) scale(1,-1)">
  <g id="ECM">
  </g>
  <g id="cells">
   <g id="cell0">
  <circle cx="509.029" cy="635.854" r="8.83376" stroke-width="0.5" stroke="black" fill="grey"/>
  <circle cx="509.029" cy="635.854" r="5.35785" stroke-width="0.5" stroke="grey" fill="grey"/>
   </g>
   <g id="cell118">
  <circle cx="872.081" cy="615.962" r="8.3937" stroke-width="0.5" stroke="black" fill="yellow"/>
  <circle cx="872.081" cy="615.962" r="5.04523" stroke-width="0.5" stroke="yellow" fill="yellow"/>
   </g>
   <g id="cell100">
  <circle cx="134.799" cy="831.622" r="8.7096" stroke-width="0.5" stroke="black" fill="yellow"/>
  <circle cx="134.799" cy="831.622" r="5.27472" stroke-width="0.5" stroke="yellow" fill="yellow"/>
   </g>
   <g id="cell3">
  <circle cx="625.004" cy="587.604" r="8.43724" stroke-width="0.5" stroke="black" fill="grey"/>
  <circle cx="625.004" cy="587.604" r="5.07658" stroke-width="0.5" stroke="grey" fill="grey"/>
   </g>
   <g id="cell103">
  <circle cx="825.611" cy="843.751" r="9.67603" stroke-width="0.5" stroke="black" fill="yellow"/>
  <circle cx="825.611" cy="843.751" r="5.87901" stroke-width="0.5" stroke="yellow" fill="yellow"/>
   </g>
   <g id="cell135">
  <circle cx="154.998" cy="828.166" r="8.3926" stroke-width="0.5" stroke="black" fill="yellow"/>
  <circle cx="154.998" cy="828.166" r="5.04482" stroke-width="0.5" stroke="yellow" fill="yellow"/>
   </g>
   <g id="cell6">
  <circle cx="385.987" cy="484.758" r="2.53667" stroke-width="0.5" stroke="black" fill="grey"/>
  <circle cx="385.987" cy="484.758" r="2.40117" stroke-width="0.5" stroke="black" fill="black"/>
   </g>
   <g id="cell7">
  <circle cx="891.915" cy="516.498" r="10.5607" stroke-width="0.5" stroke="black" fill="grey"/>
  <circle cx="891.915" cy="516.498" r="6.35087" stroke-width="0.5" stroke="grey" fill="grey"/>
   </g>
   <g id="cell8">
  <circle cx="587.455" cy="419.288" r="4.33613" stroke-width="0.5" stroke="black" fill="grey"/>
  <circle cx="587.455" cy="419.288" r="3.34528" stroke-width="0.5" stroke="black" fill="black"/>
   </g>
   <g id="cell112">
  <circle cx="775.519" cy="746.148" r="8.39144" stroke-width="0.5" stroke="black" fill="yellow"/>
  <circle cx="775.519" cy="746.148" r="5.04437" stroke-width="0.5" stroke="yellow" fill="yellow"/>
   </g>
   <g id="cell10">
  <circle cx="134.269" cy="642.6" r="2.09731" stroke-width="0.5" stroke="black" fill="grey"/>
  <circle cx="134.269" cy="642.6" r="2.04943" stroke-width="0.5" stroke="black" fill="black"/>
   </g>
   <g id="cell11">
  <circle cx="330.059" cy="826.206" r="2.59329" stroke-width="0.5" stroke="black" fill="grey"/>
  <circle cx="330.059" cy="826.206" r="2.43836" stroke-width="0.5" stroke="black" fill="black"/>
   </g>
   <g id="cell104">
  <circle cx="768.295" cy="375.77" r="8.46664" stroke-width="0.5" stroke="black" fill="yellow"/>
  <circle cx="768.295" cy="375.77" r="5.09773" stroke-width="0.5" stroke="yellow" fill="yellow"/>
   </g>
   <g id="cell102">
  <circle cx="621.028" cy="159.783" r="10.5452" stroke-width="0.5" stroke="black" fill="yellow"/>
  <circle cx="621.028" cy="159.783" r="6.3445" stroke-width="0.5" stroke="yellow" fill="yellow"/>
   </g>
   <g id="cell98">
  <circle cx="913.117" cy="368.891" r="10.483" stroke-width="0.5" stroke="black" fill="yellow"/>
  <circle cx="913.117" cy="368.891" r="6.31703" stroke-width="0.5" stroke="yellow" fill="yellow"/>
   </g>
   <g id="cell97">
  <circle cx="423.424" cy="114.677" r="10.4307" stroke-width="0.5" stroke="black" fill="yellow"/>
  <circle cx="423.424" cy="114.677" r="6.29241" stroke-width="0.5" stroke="yellow" fill="yellow"/>
   </g>
   <g id="cell16">
  <circle cx="149.691" cy="742.248" r="8.38682" stroke-width="0.5" stroke="black" fill="grey"/>
  <circle cx="149.691" cy="742.248" r="5.04258" stroke-width="0.5" stroke="grey" fill="grey"/>
   </g>
   <g id="cell116">
  <circle cx="823.899" cy="442.219" r="10.3873" stroke-width="0.5" stroke="black" fill="yellow"/>
  <circle cx="823.899" cy="442.219" r="6.2712" stroke-width="0.5" stroke="yellow" fill="yellow"/>
   </g>
   <g id="cell18">
  <circle cx="959.432" cy="705.774" r="1.97217" stroke-width="0.5" stroke="black" fill="grey"/>
  <circle cx="959.432" cy="705.774" r="1.93373" stroke-width="0.5" stroke="black" fill="black"/>
   </g>
   <g id="cell101">
  <circle cx="105.824" cy="136.618" r="10.0806" stroke-width="0.5" stroke="black" fill="yellow"/>
  <circle cx="105.824" cy="136.618" r="6.10985" stroke-width="0.5" stroke="yellow" fill="yellow"/>
   </g>
   <g id="cell20">
  <circle cx="235.256" cy="172.059" r="2.32969" stroke-width="0.5" stroke="black" fill="grey"/>
  <circle cx="235.256" cy="172.059" r="2.24041" stroke-width="0.5" stroke="black" fill="black"/>
   </g>
   <g id="cell99">
  <circle cx="516.248" cy="983.369" r="10.5039" stroke-width="0.5" stroke="black" fill="yellow"/>
  <circle cx="516.248" cy="983.369" r="6.32657" stroke-width="0.5" stroke="yellow" fill="yellow"/>
   </g>
   <g id="cell115">
  <circle cx="194.405" cy="27.6394" r="8.38608" stroke-width="0.5" stroke="black" fill="yellow"/>
  <circle cx="194.405" cy="27.6394" r="5.04229" stroke-width="0.5" stroke="yellow" fill="yellow"/>
   </g>
   <g id="cell108">
  <circle cx="708.096" cy="37.302" r="3.29574" stroke-width="0.5" stroke="black" fill="yellow"/>
  <circle cx="708.096" cy="37.302" r="2.87238" stroke-width="0.5" stroke="black" fill="black"/>
   </g>
   <g id="cell24">
  <circle cx="608.109" cy="222.435" r="1.46869" stroke-width="0.5" stroke="black" fill="grey"/>
  <circle cx="608.109" cy="222.435" r="1.46376" stroke-width="0.5" stroke="black" fill="black"/>
   </g>
   <g id="cell105">
  <circle cx="91.6314" cy="433.714" r="9.7992" stroke-width="0.5" stroke="black" fill="yellow"/>
  <circle cx="91.6314" cy="433.714" r="5.95086" stroke-width="0.5" stroke="yellow" fill="yellow"/>
   </g>
   <g id="cell26">
  <circle cx="657.475" cy="446.204" r="8.39316" stroke-width="0.5" stroke="black" fill="grey"/>
  <circle cx="657.475" cy="446.204" r="5.04503" stroke-width="0.5" stroke="grey" fill="grey"/>
   </g>
   <g id="cell117">
  <circle cx="873.889" cy="394.786" r="10.4446" stroke-width="0.5" stroke="black" fill="yellow"/>
  <circle cx="873.889" cy="394.786" r="6.29905" stroke-width="0.5" stroke="yellow" fill="yellow"/>
   </g>
   <g id="cell28">
  <circle cx="641.866" cy="144.098" r="8.38957" stroke-width="0.5" stroke="black" fill="grey"/>
  <circle cx="641.866" cy="144.098" r="5.04365" stroke-width="0.5" stroke="grey" fill="grey"/>
   </g>
   <g id="cell29">
  <circle cx="960.936" cy="673.832" r="8.39422" stroke-width="0.5" stroke="black" fill="grey"/>
  <circle cx="960.936" cy="673.832" r="5.04543" stroke-width="0.5" stroke="grey" fill="grey"/>
   </g>
   <g id="cell30">
  <circle cx="732.38" cy="143.077" r="10.4208" stroke-width="0.5" stroke="black" fill="grey"/>
  <circle cx="732.38" cy="143.077" r="6.28762" stroke-width="0.5" stroke="grey" fill="grey"/>
   </g>
   <g id="cell31">
  <circle cx="415.138" cy="106.68" r="3.56196" stroke-width="0.5" stroke="black" fill="grey"/>
  <circle cx="415.138" cy="106.68" r="3.00275" stroke-width="0.5" stroke="black" fill="black"/>
   </g>
   <g id="cell114">
  <circle cx="39.332" cy="328.987" r="10.5352" stroke-width="0.5" stroke="black" fill="yellow"/>
  <circle cx="39.332" cy="328.987" r="6.34027" stroke-width="0.5" stroke="yellow" fill="yellow"/>
   </g>
   <g id="cell107">
  <circle cx="380.456" cy="416.012" r="10.0336" stroke-width="0.5" stroke="black" fill="yellow"/>
  <circle cx="380.456" cy="416.012" r="6.08382" stroke-width="0.5" stroke="yellow" fill="yellow"/>
   </g>
   <g id="cell106">
  <circle cx="44.6953" cy="962.192" r="8.39083" stroke-width="0.5" stroke="black" fill="yellow"/>
  <circle cx="44.6953" cy="962.192" r="5.04414" stroke-width="0.5" stroke="yellow" fill="yellow"/>
   </g>
   <g id="cell35">
  <circle cx="907.052" cy="94.616" r="9.53557" stroke-width="0.5" stroke="black" fill="grey"/>
  <circle cx="907.052" cy="94.616" r="5.79561" stroke-width="0.5" stroke="grey" fill="grey"/>
   </g>
   <g id="cell109">
  <circle cx="367.964" cy="960.423" r="10.542" stroke-width="0.5" stroke="black" fill="yellow"/>
  <circle cx="367.964" cy="960.423" r="6.34318" stroke-width="0.5" stroke="yellow" fill="yellow"/>
   </g>
   <g id="cell111">
  <circle cx="763.64" cy="357.239" r="10.4307" stroke-width="0.5" stroke="black" fill="yellow"/>
  <circle cx="763.64" cy="357.239" r="6.29241" stroke-width="0.5" stroke="yellow" fill="yellow"/>
   </g>
   <g id="cell131">
  <circle cx="635.962" cy="618.765" r="8.3937" stroke-width="0.5" stroke="black" fill="grey"/>
  <circle cx="635.962" cy="618.765" r="5.04523" stroke-width="0.5" stroke="grey" fill="grey"/>
   </g>
   <g id="cell110">
  <circle cx="864.627" cy="267.694" r="9.94548" stroke-width="0.5" stroke="black" fill="yellow"/>
  <circle cx="864.627" cy="267.694" r="6.03448" stroke-width="0.5" stroke="yellow" fill="yellow"/>
   </g>
   <g id="cell40">
  <circle cx="173.461" cy="404.188" r="10.5628" stroke-width="0.5" stroke="black" fill="red"/>
  <circle cx="173.461" cy="404.188" r="6.35171" stroke-width="0.5" stroke="red" fill="red"/>
   </g>
   <g id="cell41">
  <circle cx="705.013" cy="701.712" r="8.39021" stroke-width="0.5" stroke="black" fill="red"/>
  <circle cx="705.013" cy="701.712" r="5.0439" stroke-width="0.5" stroke="red" fill="red"/>
   </g>
   <g id="cell42">
  <circle cx="144.861" cy="730.368" r="8.39021" stroke-width="0.5" stroke="black" fill="red"/>
  <circle cx="144.861" cy="730.368" r="5.0439" stroke-width="0.5" stroke="red" fill="red"/>
   </g>
   <g id="cell43">
  <circle cx="901.878" cy="408.049" r="10.5387" stroke-width="0.5" stroke="black" fill="red"/>
  <circle cx="901.878" cy="408.049" r="6.34177" stroke-width="0.5" stroke="red" fill="red"/>
   </g>
   <g id="cell44">
  <circle cx="839.245" cy="41.0278" r="10.5618" stroke-width="0.5" stroke="black" fill="red"/>
  <circle cx="839.245" cy="41.0278" r="6.3513" stroke-width="0.5" stroke="red" fill="red"/>
   </g>
   <g id="cell45">
  <circle cx="639.125" cy="832.567" r="10.5039" stroke-width="0.5" stroke="black" fill="red"/>
  <circle cx="639.125" cy="832.567" r="6.32657" stroke-width="0.5" stroke="red" fill="red"/>
   </g>
   <g id="cell46">
  <circle cx="47.7193" cy="932.544" r="8.39316" stroke-width="0.5" stroke="black" fill="red"/>
  <circle cx="47.7193" cy="932.544" r="5.04503" stroke-width="0.5" stroke="red" fill="red"/>
   </g>
   <g id="cell47">
  <circle cx="903.195" cy="422.599" r="8.38682" stroke-width="0.5" stroke="black" fill="red"/>
  <circle cx="903.195" cy="422.599" r="5.04258" stroke-width="0.5" stroke="red" fill="red"/>
   </g>
   <g id="cell48">
  <circle cx="921.56" cy="48.9203" r="8.5276" stroke-width="0.5" stroke="black" fill="red"/>
  <circle cx="921.56" cy="48.9203" r="5.1437" stroke-width="0.5" stroke="red" fill="red"/>
   </g>
   <g id="cell49">
  <circle cx="470.072" cy="777.221" r="10.5404" stroke-width="0.5" stroke="black" fill="red"/>
  <circle cx="470.072" cy="777.221" r="6.34248" stroke-width="0.5" stroke="red" fill="red"/>
   </g>
   <g id="cell50">
  <circle cx="21.8704" cy="472.662" r="8.39794" stroke-width="0.5" stroke="black" fill="red"/>
  <circle cx="21.8704" cy="472.662" r="5.04681" stroke-width="0.5" stroke="red" fill="red"/>
   </g>
   <g id="cell51">
  <circle cx="944.111" cy="144.658" r="8.39571" stroke-width="0.5" stroke="black" fill="red"/>
  <circle cx="944.111" cy="144.658" r="5.04599" stroke-width="0.5" stroke="red" fill="red"/>
   </g>
   <g id="cell96">
  <circle cx="787.116" cy="540.019" r="10.5452" stroke-width="0.5" stroke="black" fill="yellow"/>
  <circle cx="787.116" cy="540.019" r="6.3445" stroke-width="0.5" stroke="yellow" fill="yellow"/>
   </g>
   <g id="cell53">
  <circle cx="682.995" cy="322.308" r="8.59559" stroke-width="0.5" stroke="black" fill="red"/>
  <circle cx="682.995" cy="322.308" r="5.19412" stroke-width="0.5" stroke="red" fill="red"/>
   </g>
   <g id="cell54">
  <circle cx="421.352" cy="954.083" r="10.5496" stroke-width="0.5" stroke="black" fill="red"/>
  <circle cx="421.352" cy="954.083" r="6.34633" stroke-width="0.5" stroke="red" fill="red"/>
   </g>
   <g id="cell55">
  <circle cx="230.564" cy="717.453" r="10.2821" stroke-width="0.5" stroke="black" fill="red"/>
  <circle cx="230.564" cy="717.453" r="6.21778" stroke-width="0.5" stroke="red" fill="red"/>
   </g>
   <g id="cell56">
  <circle cx="574.793" cy="830.655" r="10.5639" stroke-width="0.5" stroke="black" fill="red"/>
  <circle cx="574.793" cy="830.655" r="6.35212" stroke-width="0.5" stroke="red" fill="red"/>
   </g>
   <g id="cell57">
  <circle cx="487.249" cy="551.569" r="8.38891" stroke-width="0.5" stroke="black" fill="red"/>
  <circle cx="487.249" cy="551.569" r="5.0434" stroke-width="0.5" stroke="red" fill="red"/>
   </g>
   <g id="cell58">
  <circle cx="38.2891" cy="916.987" r="10.551" stroke-width="0.5" stroke="black" fill="red"/>
  <circle cx="38.2891" cy="916.987" r="6.3469" stroke-width="0.5" stroke="red" fill="red"/>
   </g>
   <g id="cell59">
  <circle cx="92.1436" cy="974.119" r="10.542" stroke-width="0.5" stroke="black" fill="red"/>
  <circle cx="92.1436" cy="974.119" r="6.34318" stroke-width="0.5" stroke="red" fill="red"/>
   </g>
   <g id="cell60">
  <circle cx="266.415" cy="49.4617" r="10.5295" stroke-width="0.5" stroke="black" fill="red"/>
  <circle cx="266.415" cy="49.4617" r="6.33783" stroke-width="0.5" stroke="red" fill="red"/>
   </g>
   <g id="cell61">
  <circle cx="843.03" cy="127.634" r="10.551" stroke-width="0.5" stroke="black" fill="red"/>
  <circle cx="843.03" cy="127.634" r="6.3469" stroke-width="0.5" stroke="red" fill="red"/>
   </g>
   <g id="cell62">
  <circle cx="730.112" cy="819.716" r="8.41271" stroke-width="0.5" stroke="black" fill="red"/>
  <circle cx="730.112" cy="819.716" r="5.05167" stroke-width="0.5" stroke="red" fill="red"/>
   </g>
   <g id="cell63">
  <circle cx="328.794" cy="171.857" r="8.38753" stroke-width="0.5" stroke="black" fill="red"/>
  <circle cx="328.794" cy="171.857" r="5.04286" stroke-width="0.5" stroke="red" fill="red"/>
   </g>
   <g id="cell64">
  <circle cx="578.251" cy="546.179" r="8.41271" stroke-width="0.5" stroke="black" fill="red"/>
  <circle cx="578.251" cy="546.179" r="5.05167" stroke-width="0.5" stroke="red" fill="red"/>
   </g>
   <g id="cell65">
  <circle cx="190.302" cy="844.985" r="2.98308" stroke-width="0.5" stroke="black" fill="red"/>
  <circle cx="190.302" cy="844.985" r="2.68184" stroke-width="0.5" stroke="black" fill="black"/>
   </g>
   <g id="cell66">
  <circle cx="38.1308" cy="168.411" r="10.5142" stroke-width="0.5" stroke="black" fill="red"/>
  <circle cx="38.1308" cy="168.411" r="6.33113" stroke-width="0.5" stroke="red" fill="red"/>
   </g>
   <g id="cell67">
  <circle cx="521.323" cy="245.701" r="10.5039" stroke-width="0.5" stroke="black" fill="red"/>
  <circle cx="521.323" cy="245.701" r="6.32657" stroke-width="0.5" stroke="red" fill="red"/>
   </g>
   <g id="cell68">
  <circle cx="773.154" cy="251.101" r="8.39144" stroke-width="0.5" stroke="black" fill="red"/>
  <circle cx="773.154" cy="251.101" r="5.04437" stroke-width="0.5" stroke="red" fill="red"/>
   </g>
   <g id="cell69">
  <circle cx="441.568" cy="288.371" r="10.5295" stroke-width="0.5" stroke="black" fill="red"/>
  <circle cx="441.568" cy="288.371" r="6.33783" stroke-width="0.5" stroke="red" fill="red"/>
   </g>
   <g id="cell70">
  <circle cx="545.736" cy="372.264" r="10.542" stroke-width="0.5" stroke="black" fill="red"/>
  <circle cx="545.736" cy="372.264" r="6.34318" stroke-width="0.5" stroke="red" fill="red"/>
   </g>
   <g id="cell71">
  <circle cx="872.616" cy="539.304" r="8.59757" stroke-width="0.5" stroke="black" fill="red"/>
  <circle cx="872.616" cy="539.304" r="5.19488" stroke-width="0.5" stroke="red" fill="red"/>
   </g>
   <g id="cell72">
  <circle cx="201.548" cy="876.268" r="8.38532" stroke-width="0.5" stroke="black" fill="red"/>
  <circle cx="201.548" cy="876.268" r="5.04199" stroke-width="0.5" stroke="red" fill="red"/>
   </g>
   <g id="cell73">
  <circle cx="646.199" cy="430.418" r="8.39203" stroke-width="0.5" stroke="black" fill="red"/>
  <circle cx="646.199" cy="430.418" r="5.0446" stroke-width="0.5" stroke="red" fill="red"/>
   </g>
   <g id="cell74">
  <circle cx="855.713" cy="984.256" r="10.5496" stroke-width="0.5" stroke="black" fill="red"/>
  <circle cx="855.713" cy="984.256" r="6.34633" stroke-width="0.5" stroke="red" fill="red"/>
   </g>
   <g id="cell75">
  <circle cx="101.376" cy="323.459" r="8.39083" stroke-width="0.5" stroke="black" fill="red"/>
  <circle cx="101.376" cy="323.459" r="5.04414" stroke-width="0.5" stroke="red" fill="red"/>
   </g>
   <g id="cell76">
  <circle cx="795.913" cy="386.117" r="10.5467" stroke-width="0.5" stroke="black" fill="red"/>
  <circle cx="795.913" cy="386.117" r="6.34513" stroke-width="0.5" stroke="red" fill="red"/>
   </g>
   <g id="cell77">
  <circle cx="642.383" cy="851.504" r="10.5607" stroke-width="0.5" stroke="black" fill="red"/>
  <circle cx="642.383" cy="851.504" r="6.35087" stroke-width="0.5" stroke="red" fill="red"/>
   </g>
   <g id="cell78">
  <circle cx="602.88" cy="250.366" r="10.5536" stroke-width="0.5" stroke="black" fill="red"/>
  <circle cx="602.88" cy="250.366" r="6.34799" stroke-width="0.5" stroke="red" fill="red"/>
   </g>
   <g id="cell79">
  <circle cx="965.089" cy="697.392" r="10.5066" stroke-width="0.5" stroke="black" fill="red"/>
  <circle cx="965.089" cy="697.392" r="6.32777" stroke-width="0.5" stroke="red" fill="red"/>
   </g>
   <g id="cell80">
  <circle cx="746.881" cy="702.068" r="9.88629" stroke-width="0.5" stroke="black" fill="yellow"/>
  <circle cx="746.881" cy="702.068" r="6.00088" stroke-width="0.5" stroke="yellow" fill="yellow"/>
   </g>
   <g id="cell81">
  <circle cx="491.914" cy="982.434" r="8.41271" stroke-width="0.5" stroke="black" fill="yellow"/>
  <circle cx="491.914" cy="982.434" r="5.05167" stroke-width="0.5" stroke="yellow" fill="yellow"/>
   </g>
   <g id="cell82">
  <circle cx="670.119" cy="425.092" r="8.38682" stroke-width="0.5" stroke="black" fill="yellow"/>
  <circle cx="670.119" cy="425.092" r="5.04258" stroke-width="0.5" stroke="yellow" fill="yellow"/>
   </g>
   <g id="cell83">
  <circle cx="598.791" cy="600.759" r="10.5596" stroke-width="0.5" stroke="black" fill="yellow"/>
  <circle cx="598.791" cy="600.759" r="6.35043" stroke-width="0.5" stroke="yellow" fill="yellow"/>
   </g>
   <g id="cell84">
  <circle cx="21.0639" cy="497.976" r="10.5142" stroke-width="0.5" stroke="black" fill="yellow"/>
  <circle cx="21.0639" cy="497.976" r="6.33113" stroke-width="0.5" stroke="yellow" fill="yellow"/>
   </g>
   <g id="cell85">
  <circle cx="745.297" cy="656.393" r="8.46255" stroke-width="0.5" stroke="black" fill="yellow"/>
  <circle cx="745.297" cy="656.393" r="5.09619" stroke-width="0.5" stroke="yellow" fill="yellow"/>
   </g>
   <g id="cell86">
  <circle cx="303.71" cy="451.607" r="10.4531" stroke-width="0.5" stroke="black" fill="yellow"/>
  <circle cx="303.71" cy="451.607" r="6.30312" stroke-width="0.5" stroke="yellow" fill="yellow"/>
   </g>
   <g id="cell87">
  <circle cx="756.032" cy="418.238" r="8.39708" stroke-width="0.5" stroke="black" fill="yellow"/>
  <circle cx="756.032" cy="418.238" r="5.0465" stroke-width="0.5" stroke="yellow" fill="yellow"/>
   </g>
   <g id="cell88">
  <circle cx="154.523" cy="113.146" r="10.5561" stroke-width="0.5" stroke="black" fill="yellow"/>
  <circle cx="154.523" cy="113.146" r="6.34901" stroke-width="0.5" stroke="yellow" fill="yellow"/>
   </g>
   <g id="cell89">
  <circle cx="66.754" cy="540.995" r="10.4796" stroke-width="0.5" stroke="black" fill="yellow"/>
  <circle cx="66.754" cy="540.995" r="6.31548" stroke-width="0.5" stroke="yellow" fill="yellow"/>
   </g>
   <g id="cell119">
  <circle cx="571.67" cy="33.5185" r="10.4761" stroke-width="0.5" stroke="black" fill="yellow"/>
  <circle cx="571.67" cy="33.5185" r="6.31388" stroke-width="0.5" stroke="yellow" fill="yellow"/>
   </g>
   <g id="cell91">
  <circle cx="34.6448" cy="649.175" r="10.5117" stroke-width="0.5" stroke="black" fill="yellow"/>
  <circle cx="34.6448" cy="649.175" r="6.33005" stroke-width="0.5" stroke="yellow" fill="yellow"/>
   </g>
   <g id="cell92">
  <circle cx="631.684" cy="308.5" r="10.5536" stroke-width="0.5" stroke="black" fill="yellow"/>
  <circle cx="631.684" cy="308.5" r="6.34799" stroke-width="0.5" stroke="yellow" fill="yellow"/>
   </g>
   <g id="cell93">
  <circle cx="248.41" cy="900.618" r="8.39708" stroke-width="0.5" stroke="black" fill="yellow"/>
  <circle cx="248.41" cy="900.618" r="5.0465" stroke-width="0.5" stroke="yellow" fill="yellow"/>
   </g>
   <g id="cell94">
  <circle cx="371.393" cy="92.6972" r="10.5352" stroke-width="0.5" stroke="black" fill="yellow"/>
  <circle cx="371.393" cy="92.6972" r="6.34027" stroke-width="0.5" stroke="yellow" fill="yellow"/>
   </g>
   <g id="cell95">
  <circle cx="970.869" cy="921.668" r="10.5436" stroke-width="0.5" stroke="black" fill="yellow"/>
  <circle cx="970.869" cy="921.668" r="6.34385" stroke-width="0.5" stroke="yellow" fill="yellow"/>
   </g>
   <g id="cell121">
  <circle cx="10.7497" cy="494.152" r="8.39794" stroke-width="0.5" stroke="black" fill="red"/>
  <circle cx="10.7497" cy="494.152" r="5.04681" stroke-width="0.5" stroke="red" fill="red"/>
   </g>
   <g id="cell122">
  <circle cx="752.46" cy="440.065" r="8.39708" stroke-width="0.5" stroke="black" fill="yellow"/>
  <circle cx="752.46" cy="440.065" r="5.0465" stroke-width="0.5" stroke="yellow" fill="yellow"/>
   </g>
   <g id="cell123">
  <circle cx="253.061" cy="881.107" r="8.39708" stroke-width="0.5" stroke="black" fill="yellow"/>
  <circle cx="253.061" cy="881.107" r="5.0465" stroke-width="0.5" stroke="yellow" fill="yellow"/>
   </g>
   <g id="cell124">
  <circle cx="518.85" cy="639.947" r="8.39708" stroke-width="0.5" stroke="black" fill="grey"/>
  <circle cx="518.85" cy="639.947" r="5.0465" stroke-width="0.5" stroke="grey" fill="grey"/>
   </g>
   <g id="cell125">
  <circle cx="789.164" cy="397.417" r="8.59848" stroke-width="0.5" stroke="black" fill="yellow"/>
  <circle cx="789.164" cy="397.417" r="5.19522" stroke-width="0.5" stroke="yellow" fill="yellow"/>
   </g>
   <g id="cell126">
  <circle cx="976.353" cy="156.837" r="8.39571" stroke-width="0.5" stroke="black" fill="red"/>
  <circle cx="976.353" cy="156.837" r="5.04599" stroke-width="0.5" stroke="red" fill="red"/>
   </g>
   <g id="cell127">
  <circle cx="880.881" cy="526.672" r="8.4657" stroke-width="0.5" stroke="black" fill="red"/>
  <circle cx="880.881" cy="526.672" r="5.09738" stroke-width="0.5" stroke="red" fill="red"/>
   </g>
   <g id="cell128">
  <circle cx="929.681" cy="49.3076" r="8.39523" stroke-width="0.5" stroke="black" fill="red"/>
  <circle cx="929.681" cy="49.3076" r="5.04581" stroke-width="0.5" stroke="red" fill="red"/>
   </g>
   <g id="cell129">
  <circle cx="947.081" cy="681.35" r="8.39422" stroke-width="0.5" stroke="black" fill="grey"/>
  <circle cx="947.081" cy="681.35" r="5.04543" stroke-width="0.5" stroke="grey" fill="grey"/>
   </g>
   <g id="cell130">
  <circle cx="896.513" cy="595.944" r="8.3937" stroke-width="0.5" stroke="black" fill="yellow"/>
  <circle cx="896.513" cy="595.944" r="5.04523" stroke-width="0.5" stroke="yellow" fill="yellow"/>
   </g>
   <g id="cell132">
  <circle cx="74.361" cy="917.711" r="8.39316" stroke-width="0.5" stroke="black" fill="red"/>
  <circle cx="74.361" cy="917.711" r="5.04503" stroke-width="0.5" stroke="red" fill="red"/>
   </g>
   <g id="cell133">
  <circle cx="701.44" cy="369.571" r="8.39316" stroke-width="0.5" stroke="black" fill="red"/>
  <circle cx="701.44" cy="369.571" r="5.04503" stroke-width="0.5" stroke="red" fill="red"/>
   </g>
   <g id="cell134">
  <circle cx="638.338" cy="451.127" r="8.39316" stroke-width="0.5" stroke="black" fill="grey"/>
  <circle cx="638.338" cy="451.127" r="5.04503" stroke-width="0.5" stroke="grey" fill="grey"/>
   </g>
   <g id="cell136">
  <circle cx="654.846" cy="422.282" r="8.39203" stroke-width="0.5" stroke="black" fill="red"/>
  <circle cx="654.846" cy="422.282" r="5.0446" stroke-width="0.5" stroke="red" fill="red"/>
   </g>
   <g id="cell137">
  <circle cx="760.559" cy="673.78" r="8.39203" stroke-width="0.5" stroke="black" fill="yellow"/>
  <circle cx="760.559" cy="673.78" r="5.0446" stroke-width="0.5" stroke="yellow" fill="yellow"/>
   </g>
   <g id="cell138">
  <circle cx="764.071" cy="228.886" r="8.52392" stroke-width="0.5" stroke="black" fill="red"/>
  <circle cx="764.071" cy="228.886" r="5.1423" stroke-width="0.5" stroke="red" fill="red"/>
   </g>
   <g id="cell139">
  <circle cx="775.076" cy="744.8" r="8.39144" stroke-width="0.5" stroke="black" fill="yellow"/>
  <circle cx="775.076" cy="744.8" r="5.04437" stroke-width="0.5" stroke="yellow" fill="yellow"/>
   </g>
   <g id="cell140">
  <circle cx="103.744" cy="330.513" r="8.46137" stroke-width="0.5" stroke="black" fill="red"/>
  <circle cx="103.744" cy="330.513" r="5.09574" stroke-width="0.5" stroke="red" fill="red"/>
   </g>
   <g id="cell141">
  <circle cx="45.0504" cy="984.064" r="8.39083" stroke-width="0.5" stroke="black" fill="yellow"/>
  <circle cx="45.0504" cy="984.064" r="5.04414" stroke-width="0.5" stroke="yellow" fill="yellow"/>
   </g>
   <g id="cell142">
  <circle cx="696.398" cy="674.151" r="8.39021" stroke-width="0.5" stroke="black" fill="red"/>
  <circle cx="696.398" cy="674.151" r="5.0439" stroke-width="0.5" stroke="red" fill="red"/>
   </g>
   <g id="cell143">
  <circle cx="150.307" cy="723.761" r="8.39021" stroke-width="0.5" stroke="black" fill="red"/>
  <circle cx="150.307" cy="723.761" r="5.0439" stroke-width="0.5" stroke="red" fill="red"/>
   </g>
   <g id="cell144">
  <circle cx="642.029" cy="166.75" r="8.38957" stroke-width="0.5" stroke="black" fill="grey"/>
  <circle cx="642.029" cy="166.75" r="5.04365" stroke-width="0.5" stroke="grey" fill="grey"/>
   </g>
   <g id="cell145">
  <circle cx="484.817" cy="556.647" r="8.38891" stroke-width="0.5" stroke="black" fill="red"/>
  <circle cx="484.817" cy="556.647" r="5.0434" stroke-width="0.5" stroke="red" fill="red"/>
   </g>
   <g id="cell146">
  <circle cx="328.702" cy="186.706" r="8.38753" stroke-width="0.5" stroke="black" fill="red"/>
  <circle cx="328.702" cy="186.706" r="5.04286" stroke-width="0.5" stroke="red" fill="red"/>
   </g>
   <g id="cell147">
  <circle cx="667.092" cy="419.09" r="8.38682" stroke-width="0.5" stroke="black" fill="yellow"/>
  <circle cx="667.092" cy="419.09" r="5.04258" stroke-width="0.5" stroke="yellow" fill="yellow"/>
   </g>
   <g id="cell148">
  <circle cx="152.085" cy="749.404" r="8.40673" stroke-width="0.5" stroke="black" fill="grey"/>
  <circle cx="152.085" cy="749.404" r="5.05648" stroke-width="0.5" stroke="grey" fill="grey"/>
   </g>
   <g id="cell149">
  <circle cx="887.757" cy="420.701" r="8.38682" stroke-width="0.5" stroke="black" fill="red"/>
  <circle cx="887.757" cy="420.701" r="5.04258" stroke-width="0.5" stroke="red" fill="red"/>
   </g>
   <g id="cell150">
  <circle cx="189.831" cy="15.5818" r="8.38608" stroke-width="0.5" stroke="black" fill="yellow"/>
  <circle cx="189.831" cy="15.5818" r="5.04229" stroke-width="0.5" stroke="yellow" fill="yellow"/>
   </g>
   <g id="cell151">
  <circle cx="218.566" cy="880.272" r="8.38532" stroke-width="0.5" stroke="black" fill="red"/>
  <circle cx="218.566" cy="880.272" r="5.04199" stroke-width="0.5" stroke="red" fill="red"/>
   </g>
  </g>
 </g>
  <rect x="775" y="1035" width="200" height="10" stroke-width="2" stroke="rgb(255,255,255)" fill="rgb(0,0,0)"/>
  <text x="781.25" y="1028.75"
   font-family="Arial" font-size="25" fill="black" >
   200 &#956;m
  </text>
  <text x="25" y="1045"
   font-family="Arial" font-size="18.75" fill="black" >
   0 days, 0 hours, 1 minutes, and 14.1188 seconds
  </text>
  <rect x="0" y="70" width="1000" height="1000" stroke-width="2" stroke="rgb(0,0,0)" fill="none"/>
</svg>
