<?xml version="1.0" encoding="UTF-8" standalone="no"?>
<!-- Created with PhysiCell (http://PhysiCell.MathCancer.org/) -->
<svg 
 xmlns:dc="http://purl.org/dc/elements/1.1/" 
 xmlns:cc="http://creativecommons.org/ns#" 
 xmlns:rdf="http://www.w3.org/1999/02/22-rdf-syntax-ns#" 
 xmlns:svg="http://www.w3.org/2000/svg" 
 xmlns="http://www.w3.org/2000/svg" 
 version="1.1" 
 width="1000" 
 height="1070" 
 id="svg2">
  <rect x="0" y="0" width="1000" height="1070" stroke-width="2" stroke="white" fill="white"/>
  <text x="12.5" y="30"
   font-family="Arial" font-size="25" fill="black" >
   Current time: 0 days, 14 hours, and 30.00 minutes, z = 0.00 &#956;m
  </text>
  <text x="12.5" y="57.5"
   font-family="Arial" font-size="23.75" fill="black" >
   97 agents
  </text>
 <g id="tissue" 
    transform="translate(0,1070) scale(1,-1)">
  <g id="ECM">
  </g>
  <g id="cells">
   <g id="cell0">
  <circle cx="505.983" cy="616.175" r="10.5536" stroke-width="0.5" stroke="black" fill="grey"/>
  <circle cx="505.983" cy="616.175" r="6.34799" stroke-width="0.5" stroke="grey" fill="grey"/>
   </g>
   <g id="cell118">
  <circle cx="903.941" cy="605.785" r="10.5436" stroke-width="0.5" stroke="black" fill="yellow"/>
  <circle cx="903.941" cy="605.785" r="6.34385" stroke-width="0.5" stroke="yellow" fill="yellow"/>
   </g>
   <g id="cell100">
  <circle cx="136.258" cy="833.969" r="10.5404" stroke-width="0.5" stroke="black" fill="yellow"/>
  <circle cx="136.258" cy="833.969" r="6.34248" stroke-width="0.5" stroke="yellow" fill="yellow"/>
   </g>
   <g id="cell3">
  <circle cx="617.406" cy="609.261" r="10.5436" stroke-width="0.5" stroke="black" fill="grey"/>
  <circle cx="617.406" cy="609.261" r="6.34385" stroke-width="0.5" stroke="grey" fill="grey"/>
   </g>
   <g id="cell103">
  <circle cx="843.725" cy="859.238" r="8.61424" stroke-width="0.5" stroke="black" fill="yellow"/>
  <circle cx="843.725" cy="859.238" r="5.20061" stroke-width="0.5" stroke="yellow" fill="yellow"/>
   </g>
   <g id="cell5">
  <circle cx="75.5167" cy="967.659" r="1.80144" stroke-width="0.5" stroke="black" fill="grey"/>
  <circle cx="75.5167" cy="967.659" r="1.78207" stroke-width="0.5" stroke="black" fill="black"/>
   </g>
   <g id="cell6">
  <circle cx="385.987" cy="484.758" r="4.75136" stroke-width="0.5" stroke="black" fill="grey"/>
  <circle cx="385.987" cy="484.758" r="3.5201" stroke-width="0.5" stroke="black" fill="black"/>
   </g>
   <g id="cell7">
  <circle cx="887.553" cy="525.611" r="10.5092" stroke-width="0.5" stroke="black" fill="grey"/>
  <circle cx="887.553" cy="525.611" r="6.32893" stroke-width="0.5" stroke="grey" fill="grey"/>
   </g>
   <g id="cell8">
  <circle cx="596.891" cy="410.837" r="10.483" stroke-width="0.5" stroke="black" fill="grey"/>
  <circle cx="596.891" cy="410.837" r="6.31703" stroke-width="0.5" stroke="grey" fill="grey"/>
   </g>
   <g id="cell112">
  <circle cx="793.997" cy="756.12" r="10.537" stroke-width="0.5" stroke="black" fill="yellow"/>
  <circle cx="793.997" cy="756.12" r="6.34103" stroke-width="0.5" stroke="yellow" fill="yellow"/>
   </g>
   <g id="cell10">
  <circle cx="134.269" cy="642.6" r="3.41178" stroke-width="0.5" stroke="black" fill="grey"/>
  <circle cx="134.269" cy="642.6" r="2.92849" stroke-width="0.5" stroke="black" fill="black"/>
   </g>
   <g id="cell11">
  <circle cx="330.059" cy="826.206" r="5.03938" stroke-width="0.5" stroke="black" fill="grey"/>
  <circle cx="330.059" cy="826.206" r="3.63614" stroke-width="0.5" stroke="black" fill="black"/>
   </g>
   <g id="cell104">
  <circle cx="789.441" cy="399.044" r="10.551" stroke-width="0.5" stroke="black" fill="yellow"/>
  <circle cx="789.441" cy="399.044" r="6.3469" stroke-width="0.5" stroke="yellow" fill="yellow"/>
   </g>
   <g id="cell102">
  <circle cx="604.441" cy="177.463" r="10.4726" stroke-width="0.5" stroke="black" fill="yellow"/>
  <circle cx="604.441" cy="177.463" r="6.31223" stroke-width="0.5" stroke="yellow" fill="yellow"/>
   </g>
   <g id="cell98">
  <circle cx="921.332" cy="390.956" r="10.3247" stroke-width="0.5" stroke="black" fill="yellow"/>
  <circle cx="921.332" cy="390.956" r="6.23971" stroke-width="0.5" stroke="yellow" fill="yellow"/>
   </g>
   <g id="cell97">
  <circle cx="439.111" cy="105.598" r="10.1996" stroke-width="0.5" stroke="black" fill="yellow"/>
  <circle cx="439.111" cy="105.598" r="6.17434" stroke-width="0.5" stroke="yellow" fill="yellow"/>
   </g>
   <g id="cell16">
  <circle cx="155.388" cy="734.374" r="10.5233" stroke-width="0.5" stroke="black" fill="grey"/>
  <circle cx="155.388" cy="734.374" r="6.33514" stroke-width="0.5" stroke="grey" fill="grey"/>
   </g>
   <g id="cell116">
  <circle cx="824.626" cy="470.006" r="10.0955" stroke-width="0.5" stroke="black" fill="yellow"/>
  <circle cx="824.626" cy="470.006" r="6.11797" stroke-width="0.5" stroke="yellow" fill="yellow"/>
   </g>
   <g id="cell18">
  <circle cx="959.432" cy="705.774" r="3.15697" stroke-width="0.5" stroke="black" fill="grey"/>
  <circle cx="959.432" cy="705.774" r="2.76227" stroke-width="0.5" stroke="black" fill="black"/>
   </g>
   <g id="cell101">
  <circle cx="97.7457" cy="144.553" r="9.37686" stroke-width="0.5" stroke="black" fill="yellow"/>
  <circle cx="97.7457" cy="144.553" r="5.69955" stroke-width="0.5" stroke="yellow" fill="yellow"/>
   </g>
   <g id="cell20">
  <circle cx="235.256" cy="172.059" r="4.06303" stroke-width="0.5" stroke="black" fill="grey"/>
  <circle cx="235.256" cy="172.059" r="3.22001" stroke-width="0.5" stroke="black" fill="black"/>
   </g>
   <g id="cell99">
  <circle cx="508.6" cy="961.826" r="10.3747" stroke-width="0.5" stroke="black" fill="yellow"/>
  <circle cx="508.6" cy="961.826" r="6.26498" stroke-width="0.5" stroke="yellow" fill="yellow"/>
   </g>
   <g id="cell115">
  <circle cx="200.257" cy="9.77677" r="10.5211" stroke-width="0.5" stroke="black" fill="yellow"/>
  <circle cx="200.257" cy="9.77677" r="6.33419" stroke-width="0.5" stroke="yellow" fill="yellow"/>
   </g>
   <g id="cell108">
  <circle cx="704.685" cy="39.2753" r="10.5523" stroke-width="0.5" stroke="black" fill="yellow"/>
  <circle cx="704.685" cy="39.2753" r="6.34745" stroke-width="0.5" stroke="yellow" fill="yellow"/>
   </g>
   <g id="cell24">
  <circle cx="608.109" cy="222.435" r="2.14591" stroke-width="0.5" stroke="black" fill="grey"/>
  <circle cx="608.109" cy="222.435" r="2.09025" stroke-width="0.5" stroke="black" fill="black"/>
   </g>
   <g id="cell105">
  <circle cx="97.9358" cy="438.007" r="8.80772" stroke-width="0.5" stroke="black" fill="yellow"/>
  <circle cx="97.9358" cy="438.007" r="5.33574" stroke-width="0.5" stroke="yellow" fill="yellow"/>
   </g>
   <g id="cell26">
  <circle cx="637.721" cy="436.452" r="10.542" stroke-width="0.5" stroke="black" fill="grey"/>
  <circle cx="637.721" cy="436.452" r="6.34318" stroke-width="0.5" stroke="grey" fill="grey"/>
   </g>
   <g id="cell117">
  <circle cx="895.542" cy="385.75" r="10.2328" stroke-width="0.5" stroke="black" fill="yellow"/>
  <circle cx="895.542" cy="385.75" r="6.19197" stroke-width="0.5" stroke="yellow" fill="yellow"/>
   </g>
   <g id="cell28">
  <circle cx="645.981" cy="140.064" r="10.5314" stroke-width="0.5" stroke="black" fill="grey"/>
  <circle cx="645.981" cy="140.064" r="6.33867" stroke-width="0.5" stroke="grey" fill="grey"/>
   </g>
   <g id="cell29">
  <circle cx="961.331" cy="691.662" r="10.5452" stroke-width="0.5" stroke="black" fill="grey"/>
  <circle cx="961.331" cy="691.662" r="6.3445" stroke-width="0.5" stroke="grey" fill="grey"/>
   </g>
   <g id="cell30">
  <circle cx="725.923" cy="141.512" r="10.1758" stroke-width="0.5" stroke="black" fill="grey"/>
  <circle cx="725.923" cy="141.512" r="6.16159" stroke-width="0.5" stroke="grey" fill="grey"/>
   </g>
   <g id="cell31">
  <circle cx="411.599" cy="106.976" r="10.4355" stroke-width="0.5" stroke="black" fill="grey"/>
  <circle cx="411.599" cy="106.976" r="6.2947" stroke-width="0.5" stroke="grey" fill="grey"/>
   </g>
   <g id="cell114">
  <circle cx="31.7266" cy="329.996" r="10.4489" stroke-width="0.5" stroke="black" fill="yellow"/>
  <circle cx="31.7266" cy="329.996" r="6.30112" stroke-width="0.5" stroke="yellow" fill="yellow"/>
   </g>
   <g id="cell107">
  <circle cx="386.766" cy="416.392" r="9.2729" stroke-width="0.5" stroke="black" fill="yellow"/>
  <circle cx="386.766" cy="416.392" r="5.63555" stroke-width="0.5" stroke="yellow" fill="yellow"/>
   </g>
   <g id="cell106">
  <circle cx="42.3915" cy="973.004" r="10.5352" stroke-width="0.5" stroke="black" fill="yellow"/>
  <circle cx="42.3915" cy="973.004" r="6.34027" stroke-width="0.5" stroke="yellow" fill="yellow"/>
   </g>
   <g id="cell35">
  <circle cx="924.389" cy="98.2067" r="8.45606" stroke-width="0.5" stroke="black" fill="grey"/>
  <circle cx="924.389" cy="98.2067" r="5.08296" stroke-width="0.5" stroke="grey" fill="grey"/>
   </g>
   <g id="cell109">
  <circle cx="361.205" cy="958.307" r="10.4651" stroke-width="0.5" stroke="black" fill="yellow"/>
  <circle cx="361.205" cy="958.307" r="6.30877" stroke-width="0.5" stroke="yellow" fill="yellow"/>
   </g>
   <g id="cell111">
  <circle cx="753.009" cy="358.86" r="10.1996" stroke-width="0.5" stroke="black" fill="yellow"/>
  <circle cx="753.009" cy="358.86" r="6.17434" stroke-width="0.5" stroke="yellow" fill="yellow"/>
   </g>
   <g id="cell38">
  <circle cx="228.983" cy="445.784" r="1.7585" stroke-width="0.5" stroke="black" fill="grey"/>
  <circle cx="228.983" cy="445.784" r="1.742" stroke-width="0.5" stroke="black" fill="black"/>
   </g>
   <g id="cell110">
  <circle cx="872.351" cy="249.522" r="9.08642" stroke-width="0.5" stroke="black" fill="yellow"/>
  <circle cx="872.351" cy="249.522" r="5.51837" stroke-width="0.5" stroke="yellow" fill="yellow"/>
   </g>
   <g id="cell40">
  <circle cx="165.039" cy="393.919" r="10.5142" stroke-width="0.5" stroke="black" fill="red"/>
  <circle cx="165.039" cy="393.919" r="6.33113" stroke-width="0.5" stroke="red" fill="red"/>
   </g>
   <g id="cell41">
  <circle cx="675.129" cy="685.652" r="10.5333" stroke-width="0.5" stroke="black" fill="red"/>
  <circle cx="675.129" cy="685.652" r="6.33948" stroke-width="0.5" stroke="red" fill="red"/>
   </g>
   <g id="cell42">
  <circle cx="139.872" cy="731.391" r="10.5333" stroke-width="0.5" stroke="black" fill="red"/>
  <circle cx="139.872" cy="731.391" r="6.33948" stroke-width="0.5" stroke="red" fill="red"/>
   </g>
   <g id="cell43">
  <circle cx="893.907" cy="392.815" r="10.4573" stroke-width="0.5" stroke="black" fill="red"/>
  <circle cx="893.907" cy="392.815" r="6.30507" stroke-width="0.5" stroke="red" fill="red"/>
   </g>
   <g id="cell44">
  <circle cx="818.567" cy="27.6586" r="10.5117" stroke-width="0.5" stroke="black" fill="red"/>
  <circle cx="818.567" cy="27.6586" r="6.33005" stroke-width="0.5" stroke="red" fill="red"/>
   </g>
   <g id="cell45">
  <circle cx="653.066" cy="831.528" r="10.3747" stroke-width="0.5" stroke="black" fill="red"/>
  <circle cx="653.066" cy="831.528" r="6.26498" stroke-width="0.5" stroke="red" fill="red"/>
   </g>
   <g id="cell46">
  <circle cx="51.5" cy="914.793" r="10.542" stroke-width="0.5" stroke="black" fill="red"/>
  <circle cx="51.5" cy="914.793" r="6.34318" stroke-width="0.5" stroke="red" fill="red"/>
   </g>
   <g id="cell47">
  <circle cx="892.784" cy="419.771" r="10.5233" stroke-width="0.5" stroke="black" fill="red"/>
  <circle cx="892.784" cy="419.771" r="6.33514" stroke-width="0.5" stroke="red" fill="red"/>
   </g>
   <g id="cell48">
  <circle cx="911.04" cy="46.2149" r="10.5482" stroke-width="0.5" stroke="black" fill="red"/>
  <circle cx="911.04" cy="46.2149" r="6.34574" stroke-width="0.5" stroke="red" fill="red"/>
   </g>
   <g id="cell49">
  <circle cx="455.62" cy="789.706" r="10.4613" stroke-width="0.5" stroke="black" fill="red"/>
  <circle cx="455.62" cy="789.706" r="6.30695" stroke-width="0.5" stroke="red" fill="red"/>
   </g>
   <g id="cell50">
  <circle cx="20.5195" cy="488.408" r="10.5561" stroke-width="0.5" stroke="black" fill="red"/>
  <circle cx="20.5195" cy="488.408" r="6.34901" stroke-width="0.5" stroke="red" fill="red"/>
   </g>
   <g id="cell51">
  <circle cx="963.944" cy="128.753" r="10.5496" stroke-width="0.5" stroke="black" fill="red"/>
  <circle cx="963.944" cy="128.753" r="6.34633" stroke-width="0.5" stroke="red" fill="red"/>
   </g>
   <g id="cell52">
  <circle cx="289.862" cy="499.505" r="1.16344" stroke-width="0.5" stroke="black" fill="red"/>
  <circle cx="289.862" cy="499.505" r="1.15973" stroke-width="0.5" stroke="black" fill="black"/>
   </g>
   <g id="cell53">
  <circle cx="689.722" cy="342.461" r="10.542" stroke-width="0.5" stroke="black" fill="red"/>
  <circle cx="689.722" cy="342.461" r="6.34318" stroke-width="0.5" stroke="red" fill="red"/>
   </g>
   <g id="cell54">
  <circle cx="446.317" cy="931.299" r="10.483" stroke-width="0.5" stroke="black" fill="red"/>
  <circle cx="446.317" cy="931.299" r="6.31703" stroke-width="0.5" stroke="red" fill="red"/>
   </g>
   <g id="cell55">
  <circle cx="254.248" cy="715.834" r="9.84395" stroke-width="0.5" stroke="black" fill="red"/>
  <circle cx="254.248" cy="715.834" r="5.97665" stroke-width="0.5" stroke="red" fill="red"/>
   </g>
   <g id="cell56">
  <circle cx="545.819" cy="812.38" r="10.5166" stroke-width="0.5" stroke="black" fill="red"/>
  <circle cx="545.819" cy="812.38" r="6.33218" stroke-width="0.5" stroke="red" fill="red"/>
   </g>
   <g id="cell57">
  <circle cx="495.165" cy="558.26" r="10.5295" stroke-width="0.5" stroke="black" fill="red"/>
  <circle cx="495.165" cy="558.26" r="6.33783" stroke-width="0.5" stroke="red" fill="red"/>
   </g>
   <g id="cell58">
  <circle cx="60.3146" cy="922.209" r="10.4862" stroke-width="0.5" stroke="black" fill="red"/>
  <circle cx="60.3146" cy="922.209" r="6.31853" stroke-width="0.5" stroke="red" fill="red"/>
   </g>
   <g id="cell59">
  <circle cx="94.8644" cy="948.835" r="10.4651" stroke-width="0.5" stroke="black" fill="red"/>
  <circle cx="94.8644" cy="948.835" r="6.30877" stroke-width="0.5" stroke="red" fill="red"/>
   </g>
   <g id="cell60">
  <circle cx="270.936" cy="49.9671" r="10.4355" stroke-width="0.5" stroke="black" fill="red"/>
  <circle cx="270.936" cy="49.9671" r="6.2947" stroke-width="0.5" stroke="red" fill="red"/>
   </g>
   <g id="cell61">
  <circle cx="833.6" cy="126.12" r="10.4862" stroke-width="0.5" stroke="black" fill="red"/>
  <circle cx="833.6" cy="126.12" r="6.31853" stroke-width="0.5" stroke="red" fill="red"/>
   </g>
   <g id="cell62">
  <circle cx="746.582" cy="804.045" r="8.41271" stroke-width="0.5" stroke="black" fill="red"/>
  <circle cx="746.582" cy="804.045" r="5.05167" stroke-width="0.5" stroke="red" fill="red"/>
   </g>
   <g id="cell63">
  <circle cx="311.414" cy="196.472" r="10.5254" stroke-width="0.5" stroke="black" fill="red"/>
  <circle cx="311.414" cy="196.472" r="6.33607" stroke-width="0.5" stroke="red" fill="red"/>
   </g>
   <g id="cell64">
  <circle cx="575.98" cy="554.159" r="8.41271" stroke-width="0.5" stroke="black" fill="red"/>
  <circle cx="575.98" cy="554.159" r="5.05167" stroke-width="0.5" stroke="red" fill="red"/>
   </g>
   <g id="cell65">
  <circle cx="190.302" cy="844.985" r="8.45623" stroke-width="0.5" stroke="black" fill="red"/>
  <circle cx="190.302" cy="844.985" r="5.2106" stroke-width="0.5" stroke="black" fill="black"/>
   </g>
   <g id="cell66">
  <circle cx="32.4738" cy="147.527" r="10.3991" stroke-width="0.5" stroke="black" fill="red"/>
  <circle cx="32.4738" cy="147.527" r="6.27703" stroke-width="0.5" stroke="red" fill="red"/>
   </g>
   <g id="cell67">
  <circle cx="513.982" cy="266.588" r="10.3747" stroke-width="0.5" stroke="black" fill="red"/>
  <circle cx="513.982" cy="266.588" r="6.26498" stroke-width="0.5" stroke="red" fill="red"/>
   </g>
   <g id="cell68">
  <circle cx="774.581" cy="254.942" r="10.537" stroke-width="0.5" stroke="black" fill="red"/>
  <circle cx="774.581" cy="254.942" r="6.34103" stroke-width="0.5" stroke="red" fill="red"/>
   </g>
   <g id="cell69">
  <circle cx="434.721" cy="279.354" r="10.4355" stroke-width="0.5" stroke="black" fill="red"/>
  <circle cx="434.721" cy="279.354" r="6.2947" stroke-width="0.5" stroke="red" fill="red"/>
   </g>
   <g id="cell70">
  <circle cx="560.679" cy="387.636" r="10.4651" stroke-width="0.5" stroke="black" fill="red"/>
  <circle cx="560.679" cy="387.636" r="6.30877" stroke-width="0.5" stroke="red" fill="red"/>
   </g>
   <g id="cell71">
  <circle cx="876.979" cy="526.805" r="10.5482" stroke-width="0.5" stroke="black" fill="red"/>
  <circle cx="876.979" cy="526.805" r="6.34574" stroke-width="0.5" stroke="red" fill="red"/>
   </g>
   <g id="cell72">
  <circle cx="219.549" cy="880.49" r="10.5189" stroke-width="0.5" stroke="black" fill="red"/>
  <circle cx="219.549" cy="880.49" r="6.3332" stroke-width="0.5" stroke="red" fill="red"/>
   </g>
   <g id="cell73">
  <circle cx="653.745" cy="448.536" r="10.5387" stroke-width="0.5" stroke="black" fill="red"/>
  <circle cx="653.745" cy="448.536" r="6.34177" stroke-width="0.5" stroke="red" fill="red"/>
   </g>
   <g id="cell74">
  <circle cx="844.05" cy="984.638" r="10.483" stroke-width="0.5" stroke="black" fill="red"/>
  <circle cx="844.05" cy="984.638" r="6.31703" stroke-width="0.5" stroke="red" fill="red"/>
   </g>
   <g id="cell75">
  <circle cx="100.166" cy="307.8" r="10.5352" stroke-width="0.5" stroke="black" fill="red"/>
  <circle cx="100.166" cy="307.8" r="6.34027" stroke-width="0.5" stroke="red" fill="red"/>
   </g>
   <g id="cell76">
  <circle cx="807.192" cy="400.149" r="10.4761" stroke-width="0.5" stroke="black" fill="red"/>
  <circle cx="807.192" cy="400.149" r="6.31388" stroke-width="0.5" stroke="red" fill="red"/>
   </g>
   <g id="cell77">
  <circle cx="631.297" cy="844.85" r="10.5092" stroke-width="0.5" stroke="black" fill="red"/>
  <circle cx="631.297" cy="844.85" r="6.32893" stroke-width="0.5" stroke="red" fill="red"/>
   </g>
   <g id="cell78">
  <circle cx="593.125" cy="267.225" r="10.4925" stroke-width="0.5" stroke="black" fill="red"/>
  <circle cx="593.125" cy="267.225" r="6.32139" stroke-width="0.5" stroke="red" fill="red"/>
   </g>
   <g id="cell79">
  <circle cx="970.004" cy="721.655" r="10.3811" stroke-width="0.5" stroke="black" fill="red"/>
  <circle cx="970.004" cy="721.655" r="6.26814" stroke-width="0.5" stroke="red" fill="red"/>
   </g>
   <g id="cell80">
  <circle cx="750.905" cy="698.15" r="8.96831" stroke-width="0.5" stroke="black" fill="yellow"/>
  <circle cx="750.905" cy="698.15" r="5.44228" stroke-width="0.5" stroke="yellow" fill="yellow"/>
   </g>
   <g id="cell81">
  <circle cx="503.347" cy="986.585" r="8.41271" stroke-width="0.5" stroke="black" fill="yellow"/>
  <circle cx="503.347" cy="986.585" r="5.05167" stroke-width="0.5" stroke="yellow" fill="yellow"/>
   </g>
   <g id="cell82">
  <circle cx="674.384" cy="401.813" r="10.5233" stroke-width="0.5" stroke="black" fill="yellow"/>
  <circle cx="674.384" cy="401.813" r="6.33514" stroke-width="0.5" stroke="yellow" fill="yellow"/>
   </g>
   <g id="cell83">
  <circle cx="601.041" cy="592.591" r="10.5066" stroke-width="0.5" stroke="black" fill="yellow"/>
  <circle cx="601.041" cy="592.591" r="6.32777" stroke-width="0.5" stroke="yellow" fill="yellow"/>
   </g>
   <g id="cell84">
  <circle cx="32.015" cy="493.165" r="10.3991" stroke-width="0.5" stroke="black" fill="yellow"/>
  <circle cx="32.015" cy="493.165" r="6.27703" stroke-width="0.5" stroke="yellow" fill="yellow"/>
   </g>
   <g id="cell85">
  <circle cx="744.407" cy="656.192" r="10.5387" stroke-width="0.5" stroke="black" fill="yellow"/>
  <circle cx="744.407" cy="656.192" r="6.34177" stroke-width="0.5" stroke="yellow" fill="yellow"/>
   </g>
   <g id="cell86">
  <circle cx="277.121" cy="437.333" r="10.2534" stroke-width="0.5" stroke="black" fill="yellow"/>
  <circle cx="277.121" cy="437.333" r="6.2028" stroke-width="0.5" stroke="yellow" fill="yellow"/>
   </g>
   <g id="cell87">
  <circle cx="763.222" cy="418.087" r="10.5536" stroke-width="0.5" stroke="black" fill="yellow"/>
  <circle cx="763.222" cy="418.087" r="6.34799" stroke-width="0.5" stroke="yellow" fill="yellow"/>
   </g>
   <g id="cell88">
  <circle cx="145.813" cy="100.827" r="10.4984" stroke-width="0.5" stroke="black" fill="yellow"/>
  <circle cx="145.813" cy="100.827" r="6.32406" stroke-width="0.5" stroke="yellow" fill="yellow"/>
   </g>
   <g id="cell89">
  <circle cx="56.8225" cy="536.027" r="10.3166" stroke-width="0.5" stroke="black" fill="yellow"/>
  <circle cx="56.8225" cy="536.027" r="6.23561" stroke-width="0.5" stroke="yellow" fill="yellow"/>
   </g>
   <g id="cell119">
  <circle cx="565.454" cy="34.2383" r="10.3084" stroke-width="0.5" stroke="black" fill="yellow"/>
  <circle cx="565.454" cy="34.2383" r="6.23137" stroke-width="0.5" stroke="yellow" fill="yellow"/>
   </g>
   <g id="cell91">
  <circle cx="41.5349" cy="646.712" r="10.3933" stroke-width="0.5" stroke="black" fill="yellow"/>
  <circle cx="41.5349" cy="646.712" r="6.27417" stroke-width="0.5" stroke="yellow" fill="yellow"/>
   </g>
   <g id="cell92">
  <circle cx="629.244" cy="303.129" r="10.4925" stroke-width="0.5" stroke="black" fill="yellow"/>
  <circle cx="629.244" cy="303.129" r="6.32139" stroke-width="0.5" stroke="yellow" fill="yellow"/>
   </g>
   <g id="cell93">
  <circle cx="246.129" cy="879.644" r="10.5536" stroke-width="0.5" stroke="black" fill="yellow"/>
  <circle cx="246.129" cy="879.644" r="6.34799" stroke-width="0.5" stroke="yellow" fill="yellow"/>
   </g>
   <g id="cell94">
  <circle cx="356.761" cy="88.4683" r="10.4489" stroke-width="0.5" stroke="black" fill="yellow"/>
  <circle cx="356.761" cy="88.4683" r="6.30112" stroke-width="0.5" stroke="yellow" fill="yellow"/>
   </g>
   <g id="cell95">
  <circle cx="960.651" cy="913.579" r="10.4689" stroke-width="0.5" stroke="black" fill="yellow"/>
  <circle cx="960.651" cy="913.579" r="6.31053" stroke-width="0.5" stroke="yellow" fill="yellow"/>
   </g>
   <g id="cell96">
  <circle cx="789.164" cy="543.658" r="10.4726" stroke-width="0.5" stroke="black" fill="yellow"/>
  <circle cx="789.164" cy="543.658" r="6.31223" stroke-width="0.5" stroke="yellow" fill="yellow"/>
   </g>
  </g>
 </g>
  <rect x="775" y="1035" width="200" height="10" stroke-width="2" stroke="rgb(255,255,255)" fill="rgb(0,0,0)"/>
  <text x="781.25" y="1028.75"
   font-family="Arial" font-size="25" fill="black" >
   200 &#956;m
  </text>
  <text x="25" y="1045"
   font-family="Arial" font-size="18.75" fill="black" >
   0 days, 0 hours, 1 minutes, and 0.5981 seconds
  </text>
  <rect x="0" y="70" width="1000" height="1000" stroke-width="2" stroke="rgb(0,0,0)" fill="none"/>
</svg>
