<?xml version="1.0" encoding="UTF-8" standalone="no"?>
<!-- Created with PhysiCell (http://PhysiCell.MathCancer.org/) -->
<svg 
 xmlns:dc="http://purl.org/dc/elements/1.1/" 
 xmlns:cc="http://creativecommons.org/ns#" 
 xmlns:rdf="http://www.w3.org/1999/02/22-rdf-syntax-ns#" 
 xmlns:svg="http://www.w3.org/2000/svg" 
 xmlns="http://www.w3.org/2000/svg" 
 version="1.1" 
 width="1000" 
 height="1070" 
 id="svg2">
  <rect x="0" y="0" width="1000" height="1070" stroke-width="2" stroke="white" fill="white"/>
  <text x="12.5" y="30"
   font-family="Arial" font-size="25" fill="black" >
   Current time: 1 days, 6 hours, and 30.00 minutes, z = 0.00 &#956;m
  </text>
  <text x="12.5" y="57.5"
   font-family="Arial" font-size="23.75" fill="black" >
   161 agents
  </text>
 <g id="tissue" 
    transform="translate(0,1070) scale(1,-1)">
  <g id="ECM">
  </g>
  <g id="cells">
   <g id="cell0">
  <circle cx="484.061" cy="616.104" r="10.5546" stroke-width="0.5" stroke="black" fill="grey"/>
  <circle cx="484.061" cy="616.104" r="6.34844" stroke-width="0.5" stroke="grey" fill="grey"/>
   </g>
   <g id="cell118">
  <circle cx="848.225" cy="580.446" r="8.432" stroke-width="0.5" stroke="black" fill="yellow"/>
  <circle cx="848.225" cy="580.446" r="5.06541" stroke-width="0.5" stroke="yellow" fill="yellow"/>
   </g>
   <g id="cell100">
  <circle cx="121.237" cy="801.411" r="10.5506" stroke-width="0.5" stroke="black" fill="yellow"/>
  <circle cx="121.237" cy="801.411" r="6.34682" stroke-width="0.5" stroke="yellow" fill="yellow"/>
   </g>
   <g id="cell3">
  <circle cx="662.021" cy="652.425" r="10.5384" stroke-width="0.5" stroke="black" fill="grey"/>
  <circle cx="662.021" cy="652.425" r="6.34169" stroke-width="0.5" stroke="grey" fill="grey"/>
   </g>
   <g id="cell103">
  <circle cx="811.801" cy="877.448" r="8.39473" stroke-width="0.5" stroke="black" fill="yellow"/>
  <circle cx="811.801" cy="877.448" r="5.04562" stroke-width="0.5" stroke="yellow" fill="yellow"/>
   </g>
   <g id="cell135">
  <circle cx="138.238" cy="800.969" r="10.4648" stroke-width="0.5" stroke="black" fill="yellow"/>
  <circle cx="138.238" cy="800.969" r="6.30868" stroke-width="0.5" stroke="yellow" fill="yellow"/>
   </g>
   <g id="cell185">
  <circle cx="846.882" cy="398.644" r="10.1862" stroke-width="0.5" stroke="black" fill="yellow"/>
  <circle cx="846.882" cy="398.644" r="6.16761" stroke-width="0.5" stroke="yellow" fill="yellow"/>
   </g>
   <g id="cell7">
  <circle cx="858.755" cy="483.302" r="10.516" stroke-width="0.5" stroke="black" fill="grey"/>
  <circle cx="858.755" cy="483.302" r="6.33206" stroke-width="0.5" stroke="grey" fill="grey"/>
   </g>
   <g id="cell192">
  <circle cx="813.626" cy="414.157" r="9.43912" stroke-width="0.5" stroke="black" fill="yellow"/>
  <circle cx="813.626" cy="414.157" r="5.73848" stroke-width="0.5" stroke="yellow" fill="yellow"/>
   </g>
   <g id="cell112">
  <circle cx="749.733" cy="728.273" r="1.84604" stroke-width="0.5" stroke="black" fill="yellow"/>
  <circle cx="749.733" cy="728.273" r="1.77831" stroke-width="0.5" stroke="black" fill="black"/>
   </g>
   <g id="cell176">
  <circle cx="271.167" cy="62.0935" r="10.1228" stroke-width="0.5" stroke="black" fill="red"/>
  <circle cx="271.167" cy="62.0935" r="6.13319" stroke-width="0.5" stroke="red" fill="red"/>
   </g>
   <g id="cell186">
  <circle cx="78.1534" cy="539.182" r="8.41023" stroke-width="0.5" stroke="black" fill="yellow"/>
  <circle cx="78.1534" cy="539.182" r="5.051" stroke-width="0.5" stroke="yellow" fill="yellow"/>
   </g>
   <g id="cell104">
  <circle cx="758.85" cy="430.532" r="10.5401" stroke-width="0.5" stroke="black" fill="yellow"/>
  <circle cx="758.85" cy="430.532" r="6.34242" stroke-width="0.5" stroke="yellow" fill="yellow"/>
   </g>
   <g id="cell102">
  <circle cx="614.533" cy="153.19" r="10.374" stroke-width="0.5" stroke="black" fill="yellow"/>
  <circle cx="614.533" cy="153.19" r="6.26479" stroke-width="0.5" stroke="yellow" fill="yellow"/>
   </g>
   <g id="cell98">
  <circle cx="873.769" cy="375.603" r="10.2616" stroke-width="0.5" stroke="black" fill="yellow"/>
  <circle cx="873.769" cy="375.603" r="6.20751" stroke-width="0.5" stroke="yellow" fill="yellow"/>
   </g>
   <g id="cell97">
  <circle cx="402.025" cy="108.616" r="10.1855" stroke-width="0.5" stroke="black" fill="yellow"/>
  <circle cx="402.025" cy="108.616" r="6.16738" stroke-width="0.5" stroke="yellow" fill="yellow"/>
   </g>
   <g id="cell16">
  <circle cx="131.186" cy="708.3" r="2.39868" stroke-width="0.5" stroke="black" fill="grey"/>
  <circle cx="131.186" cy="708.3" r="2.2942" stroke-width="0.5" stroke="black" fill="black"/>
   </g>
   <g id="cell116">
  <circle cx="827.157" cy="422.938" r="9.61869" stroke-width="0.5" stroke="black" fill="yellow"/>
  <circle cx="827.157" cy="422.938" r="5.84608" stroke-width="0.5" stroke="yellow" fill="yellow"/>
   </g>
   <g id="cell177">
  <circle cx="440.562" cy="290.454" r="9.04619" stroke-width="0.5" stroke="black" fill="red"/>
  <circle cx="440.562" cy="290.454" r="5.49309" stroke-width="0.5" stroke="red" fill="red"/>
   </g>
   <g id="cell101">
  <circle cx="96.4013" cy="154.259" r="8.40244" stroke-width="0.5" stroke="black" fill="yellow"/>
  <circle cx="96.4013" cy="154.259" r="5.04843" stroke-width="0.5" stroke="yellow" fill="yellow"/>
   </g>
   <g id="cell184">
  <circle cx="516.724" cy="295.324" r="10.4089" stroke-width="0.5" stroke="black" fill="red"/>
  <circle cx="516.724" cy="295.324" r="6.28215" stroke-width="0.5" stroke="red" fill="red"/>
   </g>
   <g id="cell99">
  <circle cx="479.967" cy="975.871" r="10.3532" stroke-width="0.5" stroke="black" fill="yellow"/>
  <circle cx="479.967" cy="975.871" r="6.2545" stroke-width="0.5" stroke="yellow" fill="yellow"/>
   </g>
   <g id="cell115">
  <circle cx="226.627" cy="25.3959" r="10.4608" stroke-width="0.5" stroke="black" fill="yellow"/>
  <circle cx="226.627" cy="25.3959" r="6.30683" stroke-width="0.5" stroke="yellow" fill="yellow"/>
   </g>
   <g id="cell191">
  <circle cx="745.166" cy="124.651" r="10.0929" stroke-width="0.5" stroke="black" fill="grey"/>
  <circle cx="745.166" cy="124.651" r="6.11723" stroke-width="0.5" stroke="grey" fill="grey"/>
   </g>
   <g id="cell153">
  <circle cx="192.733" cy="383.891" r="10.5087" stroke-width="0.5" stroke="black" fill="red"/>
  <circle cx="192.733" cy="383.891" r="6.32881" stroke-width="0.5" stroke="red" fill="red"/>
   </g>
   <g id="cell105">
  <circle cx="57.8498" cy="406.521" r="8.95457" stroke-width="0.5" stroke="black" fill="yellow"/>
  <circle cx="57.8498" cy="406.521" r="5.43745" stroke-width="0.5" stroke="yellow" fill="yellow"/>
   </g>
   <g id="cell26">
  <circle cx="675.114" cy="475.281" r="1.80368" stroke-width="0.5" stroke="black" fill="grey"/>
  <circle cx="675.114" cy="475.281" r="1.7831" stroke-width="0.5" stroke="black" fill="black"/>
   </g>
   <g id="cell117">
  <circle cx="884.342" cy="370.745" r="8.40953" stroke-width="0.5" stroke="black" fill="yellow"/>
  <circle cx="884.342" cy="370.745" r="5.05079" stroke-width="0.5" stroke="yellow" fill="yellow"/>
   </g>
   <g id="cell28">
  <circle cx="711.663" cy="105.924" r="8.41209" stroke-width="0.5" stroke="black" fill="grey"/>
  <circle cx="711.663" cy="105.924" r="5.05152" stroke-width="0.5" stroke="grey" fill="grey"/>
   </g>
   <g id="cell29">
  <circle cx="963.151" cy="653.299" r="10.3869" stroke-width="0.5" stroke="black" fill="grey"/>
  <circle cx="963.151" cy="653.299" r="6.27113" stroke-width="0.5" stroke="grey" fill="grey"/>
   </g>
   <g id="cell30">
  <circle cx="752.607" cy="119.307" r="9.00487" stroke-width="0.5" stroke="black" fill="grey"/>
  <circle cx="752.607" cy="119.307" r="5.46709" stroke-width="0.5" stroke="grey" fill="grey"/>
   </g>
   <g id="cell190">
  <circle cx="454.012" cy="124.108" r="8.40925" stroke-width="0.5" stroke="black" fill="yellow"/>
  <circle cx="454.012" cy="124.108" r="5.0507" stroke-width="0.5" stroke="yellow" fill="yellow"/>
   </g>
   <g id="cell114">
  <circle cx="51.8467" cy="368.478" r="10.3391" stroke-width="0.5" stroke="black" fill="yellow"/>
  <circle cx="51.8467" cy="368.478" r="6.2473" stroke-width="0.5" stroke="yellow" fill="yellow"/>
   </g>
   <g id="cell107">
  <circle cx="375.763" cy="468.292" r="8.40154" stroke-width="0.5" stroke="black" fill="yellow"/>
  <circle cx="375.763" cy="468.292" r="5.04811" stroke-width="0.5" stroke="yellow" fill="yellow"/>
   </g>
   <g id="cell106">
  <circle cx="40.2721" cy="923.997" r="10.5311" stroke-width="0.5" stroke="black" fill="yellow"/>
  <circle cx="40.2721" cy="923.997" r="6.33858" stroke-width="0.5" stroke="yellow" fill="yellow"/>
   </g>
   <g id="cell35">
  <circle cx="943.347" cy="49.1857" r="8.43559" stroke-width="0.5" stroke="black" fill="grey"/>
  <circle cx="943.347" cy="49.1857" r="5.07595" stroke-width="0.5" stroke="grey" fill="grey"/>
   </g>
   <g id="cell109">
  <circle cx="380.21" cy="990.013" r="9.90571" stroke-width="0.5" stroke="black" fill="yellow"/>
  <circle cx="380.21" cy="990.013" r="6.0122" stroke-width="0.5" stroke="yellow" fill="yellow"/>
   </g>
   <g id="cell111">
  <circle cx="794.984" cy="398.239" r="8.40925" stroke-width="0.5" stroke="black" fill="yellow"/>
  <circle cx="794.984" cy="398.239" r="5.0507" stroke-width="0.5" stroke="yellow" fill="yellow"/>
   </g>
   <g id="cell131">
  <circle cx="632.309" cy="579.864" r="10.4921" stroke-width="0.5" stroke="black" fill="grey"/>
  <circle cx="632.309" cy="579.864" r="6.32131" stroke-width="0.5" stroke="grey" fill="grey"/>
   </g>
   <g id="cell110">
  <circle cx="877.589" cy="264.725" r="8.39987" stroke-width="0.5" stroke="black" fill="yellow"/>
  <circle cx="877.589" cy="264.725" r="5.04751" stroke-width="0.5" stroke="yellow" fill="yellow"/>
   </g>
   <g id="cell40">
  <circle cx="153.8" cy="403.516" r="10.4857" stroke-width="0.5" stroke="black" fill="red"/>
  <circle cx="153.8" cy="403.516" r="6.31841" stroke-width="0.5" stroke="red" fill="red"/>
   </g>
   <g id="cell41">
  <circle cx="684.127" cy="707.264" r="10.5036" stroke-width="0.5" stroke="black" fill="red"/>
  <circle cx="684.127" cy="707.264" r="6.32648" stroke-width="0.5" stroke="red" fill="red"/>
   </g>
   <g id="cell42">
  <circle cx="168.613" cy="729.574" r="10.4204" stroke-width="0.5" stroke="black" fill="red"/>
  <circle cx="168.613" cy="729.574" r="6.28752" stroke-width="0.5" stroke="red" fill="red"/>
   </g>
   <g id="cell43">
  <circle cx="863.185" cy="391.624" r="10.4199" stroke-width="0.5" stroke="black" fill="red"/>
  <circle cx="863.185" cy="391.624" r="6.2874" stroke-width="0.5" stroke="red" fill="red"/>
   </g>
   <g id="cell44">
  <circle cx="837.213" cy="48.9523" r="10.4302" stroke-width="0.5" stroke="black" fill="red"/>
  <circle cx="837.213" cy="48.9523" r="6.29228" stroke-width="0.5" stroke="red" fill="red"/>
   </g>
   <g id="cell45">
  <circle cx="695.869" cy="813.503" r="9.64785" stroke-width="0.5" stroke="black" fill="red"/>
  <circle cx="695.869" cy="813.503" r="5.86285" stroke-width="0.5" stroke="red" fill="red"/>
   </g>
   <g id="cell46">
  <circle cx="48.3005" cy="898.03" r="9.40966" stroke-width="0.5" stroke="black" fill="red"/>
  <circle cx="48.3005" cy="898.03" r="5.7197" stroke-width="0.5" stroke="red" fill="red"/>
   </g>
   <g id="cell47">
  <circle cx="865.112" cy="447.161" r="10.4757" stroke-width="0.5" stroke="black" fill="red"/>
  <circle cx="865.112" cy="447.161" r="6.31378" stroke-width="0.5" stroke="red" fill="red"/>
   </g>
   <g id="cell48">
  <circle cx="947.441" cy="32.4909" r="10.5433" stroke-width="0.5" stroke="black" fill="red"/>
  <circle cx="947.441" cy="32.4909" r="6.34378" stroke-width="0.5" stroke="red" fill="red"/>
   </g>
   <g id="cell49">
  <circle cx="457.955" cy="794.91" r="10.299" stroke-width="0.5" stroke="black" fill="red"/>
  <circle cx="457.955" cy="794.91" r="6.22677" stroke-width="0.5" stroke="red" fill="red"/>
   </g>
   <g id="cell50">
  <circle cx="29.4589" cy="435.061" r="10.4529" stroke-width="0.5" stroke="black" fill="red"/>
  <circle cx="29.4589" cy="435.061" r="6.30306" stroke-width="0.5" stroke="red" fill="red"/>
   </g>
   <g id="cell51">
  <circle cx="856.93" cy="146.396" r="10.5251" stroke-width="0.5" stroke="black" fill="red"/>
  <circle cx="856.93" cy="146.396" r="6.336" stroke-width="0.5" stroke="red" fill="red"/>
   </g>
   <g id="cell96">
  <circle cx="843.989" cy="557.372" r="10.4718" stroke-width="0.5" stroke="black" fill="yellow"/>
  <circle cx="843.989" cy="557.372" r="6.31205" stroke-width="0.5" stroke="yellow" fill="yellow"/>
   </g>
   <g id="cell53">
  <circle cx="688.715" cy="291.297" r="10.5464" stroke-width="0.5" stroke="black" fill="red"/>
  <circle cx="688.715" cy="291.297" r="6.34505" stroke-width="0.5" stroke="red" fill="red"/>
   </g>
   <g id="cell54">
  <circle cx="423.494" cy="912.872" r="8.41166" stroke-width="0.5" stroke="black" fill="red"/>
  <circle cx="423.494" cy="912.872" r="5.05141" stroke-width="0.5" stroke="red" fill="red"/>
   </g>
   <g id="cell55">
  <circle cx="212.439" cy="652.381" r="8.40632" stroke-width="0.5" stroke="black" fill="red"/>
  <circle cx="212.439" cy="652.381" r="5.04976" stroke-width="0.5" stroke="red" fill="red"/>
   </g>
   <g id="cell56">
  <circle cx="619.257" cy="832.356" r="10.5035" stroke-width="0.5" stroke="black" fill="red"/>
  <circle cx="619.257" cy="832.356" r="6.32646" stroke-width="0.5" stroke="red" fill="red"/>
   </g>
   <g id="cell57">
  <circle cx="484.769" cy="517.772" r="10.5138" stroke-width="0.5" stroke="black" fill="red"/>
  <circle cx="484.769" cy="517.772" r="6.33104" stroke-width="0.5" stroke="red" fill="red"/>
   </g>
   <g id="cell58">
  <circle cx="24.9955" cy="864.568" r="10.4645" stroke-width="0.5" stroke="black" fill="red"/>
  <circle cx="24.9955" cy="864.568" r="6.3086" stroke-width="0.5" stroke="red" fill="red"/>
   </g>
   <g id="cell59">
  <circle cx="55.213" cy="944.568" r="10.4788" stroke-width="0.5" stroke="black" fill="red"/>
  <circle cx="55.213" cy="944.568" r="6.31529" stroke-width="0.5" stroke="red" fill="red"/>
   </g>
   <g id="cell60">
  <circle cx="215.121" cy="32.0723" r="10.1228" stroke-width="0.5" stroke="black" fill="red"/>
  <circle cx="215.121" cy="32.0723" r="6.13319" stroke-width="0.5" stroke="red" fill="red"/>
   </g>
   <g id="cell61">
  <circle cx="799.893" cy="125.724" r="9.79845" stroke-width="0.5" stroke="black" fill="red"/>
  <circle cx="799.893" cy="125.724" r="5.95065" stroke-width="0.5" stroke="red" fill="red"/>
   </g>
   <g id="cell62">
  <circle cx="717.091" cy="789.845" r="10.4761" stroke-width="0.5" stroke="black" fill="red"/>
  <circle cx="717.091" cy="789.845" r="6.31388" stroke-width="0.5" stroke="red" fill="red"/>
   </g>
   <g id="cell63">
  <circle cx="341.632" cy="175.11" r="10.3242" stroke-width="0.5" stroke="black" fill="red"/>
  <circle cx="341.632" cy="175.11" r="6.2396" stroke-width="0.5" stroke="red" fill="red"/>
   </g>
   <g id="cell64">
  <circle cx="594.289" cy="550.338" r="10.5295" stroke-width="0.5" stroke="black" fill="red"/>
  <circle cx="594.289" cy="550.338" r="6.33783" stroke-width="0.5" stroke="red" fill="red"/>
   </g>
   <g id="cell188">
  <circle cx="863.165" cy="380.443" r="9.8631" stroke-width="0.5" stroke="black" fill="yellow"/>
  <circle cx="863.165" cy="380.443" r="5.98827" stroke-width="0.5" stroke="yellow" fill="yellow"/>
   </g>
   <g id="cell66">
  <circle cx="15.8898" cy="139.987" r="10.4295" stroke-width="0.5" stroke="black" fill="red"/>
  <circle cx="15.8898" cy="139.987" r="6.2921" stroke-width="0.5" stroke="red" fill="red"/>
   </g>
   <g id="cell67">
  <circle cx="517.357" cy="250.279" r="1.28168" stroke-width="0.5" stroke="black" fill="red"/>
  <circle cx="517.357" cy="250.279" r="1.27458" stroke-width="0.5" stroke="black" fill="black"/>
   </g>
   <g id="cell68">
  <circle cx="749.271" cy="216.386" r="10.4792" stroke-width="0.5" stroke="black" fill="red"/>
  <circle cx="749.271" cy="216.386" r="6.3154" stroke-width="0.5" stroke="red" fill="red"/>
   </g>
   <g id="cell69">
  <circle cx="457.027" cy="313.212" r="8.48145" stroke-width="0.5" stroke="black" fill="red"/>
  <circle cx="457.027" cy="313.212" r="5.1028" stroke-width="0.5" stroke="red" fill="red"/>
   </g>
   <g id="cell70">
  <circle cx="527.709" cy="368.779" r="10.3466" stroke-width="0.5" stroke="black" fill="red"/>
  <circle cx="527.709" cy="368.779" r="6.25105" stroke-width="0.5" stroke="red" fill="red"/>
   </g>
   <g id="cell71">
  <circle cx="893.071" cy="499.132" r="10.5464" stroke-width="0.5" stroke="black" fill="red"/>
  <circle cx="893.071" cy="499.132" r="6.34506" stroke-width="0.5" stroke="red" fill="red"/>
   </g>
   <g id="cell72">
  <circle cx="177.36" cy="925.147" r="10.5137" stroke-width="0.5" stroke="black" fill="red"/>
  <circle cx="177.36" cy="925.147" r="6.33102" stroke-width="0.5" stroke="red" fill="red"/>
   </g>
   <g id="cell73">
  <circle cx="619.723" cy="459.704" r="10.4254" stroke-width="0.5" stroke="black" fill="red"/>
  <circle cx="619.723" cy="459.704" r="6.28997" stroke-width="0.5" stroke="red" fill="red"/>
   </g>
   <g id="cell74">
  <circle cx="862.419" cy="936.239" r="10.0947" stroke-width="0.5" stroke="black" fill="red"/>
  <circle cx="862.419" cy="936.239" r="6.11778" stroke-width="0.5" stroke="red" fill="red"/>
   </g>
   <g id="cell75">
  <circle cx="105.024" cy="306.318" r="10.5088" stroke-width="0.5" stroke="black" fill="red"/>
  <circle cx="105.024" cy="306.318" r="6.32884" stroke-width="0.5" stroke="red" fill="red"/>
   </g>
   <g id="cell76">
  <circle cx="782.743" cy="421.316" r="10.2321" stroke-width="0.5" stroke="black" fill="red"/>
  <circle cx="782.743" cy="421.316" r="6.19178" stroke-width="0.5" stroke="red" fill="red"/>
   </g>
   <g id="cell77">
  <circle cx="664.111" cy="842.948" r="10.4349" stroke-width="0.5" stroke="black" fill="red"/>
  <circle cx="664.111" cy="842.948" r="6.29456" stroke-width="0.5" stroke="red" fill="red"/>
   </g>
   <g id="cell78">
  <circle cx="591.91" cy="290.866" r="10.415" stroke-width="0.5" stroke="black" fill="red"/>
  <circle cx="591.91" cy="290.866" r="6.28494" stroke-width="0.5" stroke="red" fill="red"/>
   </g>
   <g id="cell79">
  <circle cx="979.47" cy="686.889" r="10.2315" stroke-width="0.5" stroke="black" fill="red"/>
  <circle cx="979.47" cy="686.889" r="6.19161" stroke-width="0.5" stroke="red" fill="red"/>
   </g>
   <g id="cell80">
  <circle cx="734.937" cy="702.8" r="8.8756" stroke-width="0.5" stroke="black" fill="yellow"/>
  <circle cx="734.937" cy="702.8" r="5.38525" stroke-width="0.5" stroke="yellow" fill="yellow"/>
   </g>
   <g id="cell81">
  <circle cx="501.549" cy="966.853" r="10.5012" stroke-width="0.5" stroke="black" fill="yellow"/>
  <circle cx="501.549" cy="966.853" r="6.32534" stroke-width="0.5" stroke="yellow" fill="yellow"/>
   </g>
   <g id="cell82">
  <circle cx="612.908" cy="406.572" r="10.5347" stroke-width="0.5" stroke="black" fill="yellow"/>
  <circle cx="612.908" cy="406.572" r="6.34016" stroke-width="0.5" stroke="yellow" fill="yellow"/>
   </g>
   <g id="cell83">
  <circle cx="595.866" cy="582.625" r="10.4756" stroke-width="0.5" stroke="black" fill="yellow"/>
  <circle cx="595.866" cy="582.625" r="6.31375" stroke-width="0.5" stroke="yellow" fill="yellow"/>
   </g>
   <g id="cell84">
  <circle cx="20.7119" cy="520.25" r="10.2716" stroke-width="0.5" stroke="black" fill="yellow"/>
  <circle cx="20.7119" cy="520.25" r="6.21263" stroke-width="0.5" stroke="yellow" fill="yellow"/>
   </g>
   <g id="cell85">
  <circle cx="778.965" cy="674.664" r="2.51958" stroke-width="0.5" stroke="black" fill="yellow"/>
  <circle cx="778.965" cy="674.664" r="2.38635" stroke-width="0.5" stroke="black" fill="black"/>
   </g>
   <g id="cell86">
  <circle cx="323.362" cy="412.674" r="9.50294" stroke-width="0.5" stroke="black" fill="yellow"/>
  <circle cx="323.362" cy="412.674" r="5.77673" stroke-width="0.5" stroke="yellow" fill="yellow"/>
   </g>
   <g id="cell87">
  <circle cx="785.446" cy="397.251" r="9.67571" stroke-width="0.5" stroke="black" fill="yellow"/>
  <circle cx="785.446" cy="397.251" r="5.87893" stroke-width="0.5" stroke="yellow" fill="yellow"/>
   </g>
   <g id="cell200">
  <circle cx="971.083" cy="70.1117" r="8.39203" stroke-width="0.5" stroke="black" fill="grey"/>
  <circle cx="971.083" cy="70.1117" r="5.0446" stroke-width="0.5" stroke="grey" fill="grey"/>
   </g>
   <g id="cell89">
  <circle cx="51.3295" cy="534.708" r="10.2204" stroke-width="0.5" stroke="black" fill="yellow"/>
  <circle cx="51.3295" cy="534.708" r="6.18581" stroke-width="0.5" stroke="yellow" fill="yellow"/>
   </g>
   <g id="cell193">
  <circle cx="208.036" cy="661.836" r="9.6712" stroke-width="0.5" stroke="black" fill="red"/>
  <circle cx="208.036" cy="661.836" r="5.87747" stroke-width="0.5" stroke="red" fill="red"/>
   </g>
   <g id="cell91">
  <circle cx="15.5477" cy="656.24" r="9.16127" stroke-width="0.5" stroke="black" fill="yellow"/>
  <circle cx="15.5477" cy="656.24" r="5.56632" stroke-width="0.5" stroke="yellow" fill="yellow"/>
   </g>
   <g id="cell92">
  <circle cx="655.141" cy="283.054" r="10.4439" stroke-width="0.5" stroke="black" fill="yellow"/>
  <circle cx="655.141" cy="283.054" r="6.29889" stroke-width="0.5" stroke="yellow" fill="yellow"/>
   </g>
   <g id="cell93">
  <circle cx="210.938" cy="848.295" r="9.16246" stroke-width="0.5" stroke="black" fill="yellow"/>
  <circle cx="210.938" cy="848.295" r="5.56668" stroke-width="0.5" stroke="yellow" fill="yellow"/>
   </g>
   <g id="cell94">
  <circle cx="393.564" cy="94.9564" r="10.3075" stroke-width="0.5" stroke="black" fill="yellow"/>
  <circle cx="393.564" cy="94.9564" r="6.23113" stroke-width="0.5" stroke="yellow" fill="yellow"/>
   </g>
   <g id="cell95">
  <circle cx="941.226" cy="898.293" r="10.4754" stroke-width="0.5" stroke="black" fill="yellow"/>
  <circle cx="941.226" cy="898.293" r="6.31369" stroke-width="0.5" stroke="yellow" fill="yellow"/>
   </g>
   <g id="cell121">
  <circle cx="21.4358" cy="485.301" r="8.41231" stroke-width="0.5" stroke="black" fill="red"/>
  <circle cx="21.4358" cy="485.301" r="5.05158" stroke-width="0.5" stroke="red" fill="red"/>
   </g>
   <g id="cell122">
  <circle cx="699.694" cy="417.354" r="10.5349" stroke-width="0.5" stroke="black" fill="yellow"/>
  <circle cx="699.694" cy="417.354" r="6.34021" stroke-width="0.5" stroke="yellow" fill="yellow"/>
   </g>
   <g id="cell123">
  <circle cx="284.229" cy="898.774" r="9.00769" stroke-width="0.5" stroke="black" fill="yellow"/>
  <circle cx="284.229" cy="898.774" r="5.46798" stroke-width="0.5" stroke="yellow" fill="yellow"/>
   </g>
   <g id="cell124">
  <circle cx="482.21" cy="641.766" r="10.4486" stroke-width="0.5" stroke="black" fill="grey"/>
  <circle cx="482.21" cy="641.766" r="6.30105" stroke-width="0.5" stroke="grey" fill="grey"/>
   </g>
   <g id="cell125">
  <circle cx="800.706" cy="439.2" r="10.5464" stroke-width="0.5" stroke="black" fill="yellow"/>
  <circle cx="800.706" cy="439.2" r="6.34506" stroke-width="0.5" stroke="yellow" fill="yellow"/>
   </g>
   <g id="cell126">
  <circle cx="937.559" cy="189.292" r="10.4352" stroke-width="0.5" stroke="black" fill="red"/>
  <circle cx="937.559" cy="189.292" r="6.29463" stroke-width="0.5" stroke="red" fill="red"/>
   </g>
   <g id="cell127">
  <circle cx="914.933" cy="558.768" r="10.5401" stroke-width="0.5" stroke="black" fill="red"/>
  <circle cx="914.933" cy="558.768" r="6.34241" stroke-width="0.5" stroke="red" fill="red"/>
   </g>
   <g id="cell128">
  <circle cx="922.011" cy="35.6224" r="10.393" stroke-width="0.5" stroke="black" fill="red"/>
  <circle cx="922.011" cy="35.6224" r="6.27409" stroke-width="0.5" stroke="red" fill="red"/>
   </g>
   <g id="cell129">
  <circle cx="981.032" cy="676.633" r="4.00042" stroke-width="0.5" stroke="black" fill="grey"/>
  <circle cx="981.032" cy="676.633" r="3.20166" stroke-width="0.5" stroke="black" fill="black"/>
   </g>
   <g id="cell130">
  <circle cx="902.679" cy="612.879" r="8.4122" stroke-width="0.5" stroke="black" fill="yellow"/>
  <circle cx="902.679" cy="612.879" r="5.05155" stroke-width="0.5" stroke="yellow" fill="yellow"/>
   </g>
   <g id="cell132">
  <circle cx="52.4301" cy="917.958" r="10.498" stroke-width="0.5" stroke="black" fill="red"/>
  <circle cx="52.4301" cy="917.958" r="6.32398" stroke-width="0.5" stroke="red" fill="red"/>
   </g>
   <g id="cell133">
  <circle cx="646.101" cy="389.33" r="10.2429" stroke-width="0.5" stroke="black" fill="red"/>
  <circle cx="646.101" cy="389.33" r="6.19739" stroke-width="0.5" stroke="red" fill="red"/>
   </g>
   <g id="cell134">
  <circle cx="624.597" cy="436.457" r="1.28228" stroke-width="0.5" stroke="black" fill="grey"/>
  <circle cx="624.597" cy="436.457" r="1.27517" stroke-width="0.5" stroke="black" fill="black"/>
   </g>
   <g id="cell136">
  <circle cx="653.639" cy="465.758" r="10.4486" stroke-width="0.5" stroke="black" fill="red"/>
  <circle cx="653.639" cy="465.758" r="6.30103" stroke-width="0.5" stroke="red" fill="red"/>
   </g>
   <g id="cell137">
  <circle cx="794.232" cy="660.506" r="9.99944" stroke-width="0.5" stroke="black" fill="yellow"/>
  <circle cx="794.232" cy="660.506" r="6.06493" stroke-width="0.5" stroke="yellow" fill="yellow"/>
   </g>
   <g id="cell138">
  <circle cx="730.486" cy="231.786" r="10.5433" stroke-width="0.5" stroke="black" fill="red"/>
  <circle cx="730.486" cy="231.786" r="6.34376" stroke-width="0.5" stroke="red" fill="red"/>
   </g>
   <g id="cell139">
  <circle cx="783.104" cy="754.617" r="8.54399" stroke-width="0.5" stroke="black" fill="yellow"/>
  <circle cx="783.104" cy="754.617" r="5.14934" stroke-width="0.5" stroke="yellow" fill="yellow"/>
   </g>
   <g id="cell140">
  <circle cx="75.1949" cy="342.582" r="10.54" stroke-width="0.5" stroke="black" fill="red"/>
  <circle cx="75.1949" cy="342.582" r="6.3424" stroke-width="0.5" stroke="red" fill="red"/>
   </g>
   <g id="cell141">
  <circle cx="14.9992" cy="973.828" r="10.5348" stroke-width="0.5" stroke="black" fill="yellow"/>
  <circle cx="14.9992" cy="973.828" r="6.34018" stroke-width="0.5" stroke="yellow" fill="yellow"/>
   </g>
   <g id="cell142">
  <circle cx="707.635" cy="676.218" r="8.41211" stroke-width="0.5" stroke="black" fill="red"/>
  <circle cx="707.635" cy="676.218" r="5.05153" stroke-width="0.5" stroke="red" fill="red"/>
   </g>
   <g id="cell143">
  <circle cx="116.743" cy="710.605" r="9.79876" stroke-width="0.5" stroke="black" fill="red"/>
  <circle cx="116.743" cy="710.605" r="5.95074" stroke-width="0.5" stroke="red" fill="red"/>
   </g>
   <g id="cell144">
  <circle cx="652.988" cy="142.849" r="10.5088" stroke-width="0.5" stroke="black" fill="grey"/>
  <circle cx="652.988" cy="142.849" r="6.32883" stroke-width="0.5" stroke="grey" fill="grey"/>
   </g>
   <g id="cell145">
  <circle cx="537.385" cy="514.558" r="9.40957" stroke-width="0.5" stroke="black" fill="red"/>
  <circle cx="537.385" cy="514.558" r="5.71968" stroke-width="0.5" stroke="red" fill="red"/>
   </g>
   <g id="cell146">
  <circle cx="309.338" cy="193.012" r="10.495" stroke-width="0.5" stroke="black" fill="red"/>
  <circle cx="309.338" cy="193.012" r="6.32264" stroke-width="0.5" stroke="red" fill="red"/>
   </g>
   <g id="cell147">
  <circle cx="652.36" cy="394.582" r="10.0492" stroke-width="0.5" stroke="black" fill="yellow"/>
  <circle cx="652.36" cy="394.582" r="6.09265" stroke-width="0.5" stroke="yellow" fill="yellow"/>
   </g>
   <g id="cell148">
  <circle cx="196.585" cy="751.899" r="10.5365" stroke-width="0.5" stroke="black" fill="grey"/>
  <circle cx="196.585" cy="751.899" r="6.34092" stroke-width="0.5" stroke="grey" fill="grey"/>
   </g>
   <g id="cell149">
  <circle cx="865.898" cy="446.951" r="10.525" stroke-width="0.5" stroke="black" fill="red"/>
  <circle cx="865.898" cy="446.951" r="6.33596" stroke-width="0.5" stroke="red" fill="red"/>
   </g>
   <g id="cell150">
  <circle cx="160.204" cy="31.6979" r="10.3743" stroke-width="0.5" stroke="black" fill="yellow"/>
  <circle cx="160.204" cy="31.6979" r="6.26487" stroke-width="0.5" stroke="yellow" fill="yellow"/>
   </g>
   <g id="cell151">
  <circle cx="201.163" cy="903.688" r="10.2323" stroke-width="0.5" stroke="black" fill="red"/>
  <circle cx="201.163" cy="903.688" r="6.19185" stroke-width="0.5" stroke="red" fill="red"/>
   </g>
   <g id="cell152">
  <circle cx="597.325" cy="854.62" r="10.5137" stroke-width="0.5" stroke="black" fill="red"/>
  <circle cx="597.325" cy="854.62" r="6.33102" stroke-width="0.5" stroke="red" fill="red"/>
   </g>
   <g id="cell154">
  <circle cx="891.021" cy="17.3088" r="10.3609" stroke-width="0.5" stroke="black" fill="red"/>
  <circle cx="891.021" cy="17.3088" r="6.25821" stroke-width="0.5" stroke="red" fill="red"/>
   </g>
   <g id="cell155">
  <circle cx="651.733" cy="904.742" r="10.5034" stroke-width="0.5" stroke="black" fill="red"/>
  <circle cx="651.733" cy="904.742" r="6.32644" stroke-width="0.5" stroke="red" fill="red"/>
   </g>
   <g id="cell156">
  <circle cx="886.715" cy="511.462" r="3.62613" stroke-width="0.5" stroke="black" fill="grey"/>
  <circle cx="886.715" cy="511.462" r="3.02997" stroke-width="0.5" stroke="black" fill="black"/>
   </g>
   <g id="cell157">
  <circle cx="627.998" cy="652.424" r="10.3395" stroke-width="0.5" stroke="black" fill="yellow"/>
  <circle cx="627.998" cy="652.424" r="6.24739" stroke-width="0.5" stroke="yellow" fill="yellow"/>
   </g>
   <g id="cell158">
  <circle cx="163.19" cy="140.34" r="1.41715" stroke-width="0.5" stroke="black" fill="yellow"/>
  <circle cx="163.19" cy="140.34" r="1.41184" stroke-width="0.5" stroke="black" fill="black"/>
   </g>
   <g id="cell159">
  <circle cx="676.968" cy="301.323" r="10.2214" stroke-width="0.5" stroke="black" fill="yellow"/>
  <circle cx="676.968" cy="301.323" r="6.18612" stroke-width="0.5" stroke="yellow" fill="yellow"/>
   </g>
   <g id="cell160">
  <circle cx="620.647" cy="289.339" r="10.3676" stroke-width="0.5" stroke="black" fill="red"/>
  <circle cx="620.647" cy="289.339" r="6.26155" stroke-width="0.5" stroke="red" fill="red"/>
   </g>
   <g id="cell199">
  <circle cx="828.041" cy="857.819" r="8.39473" stroke-width="0.5" stroke="black" fill="yellow"/>
  <circle cx="828.041" cy="857.819" r="5.04562" stroke-width="0.5" stroke="yellow" fill="yellow"/>
   </g>
   <g id="cell162">
  <circle cx="843.795" cy="106.674" r="10.5033" stroke-width="0.5" stroke="black" fill="red"/>
  <circle cx="843.795" cy="106.674" r="6.32641" stroke-width="0.5" stroke="red" fill="red"/>
   </g>
   <g id="cell163">
  <circle cx="428.125" cy="961.168" r="10.4977" stroke-width="0.5" stroke="black" fill="red"/>
  <circle cx="428.125" cy="961.168" r="6.32389" stroke-width="0.5" stroke="red" fill="red"/>
   </g>
   <g id="cell164">
  <circle cx="828.615" cy="963.499" r="9.72651" stroke-width="0.5" stroke="black" fill="red"/>
  <circle cx="828.615" cy="963.499" r="5.90885" stroke-width="0.5" stroke="red" fill="red"/>
   </g>
   <g id="cell165">
  <circle cx="840.869" cy="395.15" r="10.4948" stroke-width="0.5" stroke="black" fill="red"/>
  <circle cx="840.869" cy="395.15" r="6.32257" stroke-width="0.5" stroke="red" fill="red"/>
   </g>
   <g id="cell166">
  <circle cx="788.632" cy="512.934" r="10.4917" stroke-width="0.5" stroke="black" fill="yellow"/>
  <circle cx="788.632" cy="512.934" r="6.3212" stroke-width="0.5" stroke="yellow" fill="yellow"/>
   </g>
   <g id="cell167">
  <circle cx="644.018" cy="141.759" r="10.2904" stroke-width="0.5" stroke="black" fill="yellow"/>
  <circle cx="644.018" cy="141.759" r="6.22226" stroke-width="0.5" stroke="yellow" fill="yellow"/>
   </g>
   <g id="cell168">
  <circle cx="940.062" cy="884.273" r="10.4524" stroke-width="0.5" stroke="black" fill="yellow"/>
  <circle cx="940.062" cy="884.273" r="6.30293" stroke-width="0.5" stroke="yellow" fill="yellow"/>
   </g>
   <g id="cell169">
  <circle cx="340.866" cy="983.786" r="10.42" stroke-width="0.5" stroke="black" fill="yellow"/>
  <circle cx="340.866" cy="983.786" r="6.28741" stroke-width="0.5" stroke="yellow" fill="yellow"/>
   </g>
   <g id="cell170">
  <circle cx="58.461" cy="985.872" r="8.4313" stroke-width="0.5" stroke="black" fill="red"/>
  <circle cx="58.461" cy="985.872" r="5.06522" stroke-width="0.5" stroke="red" fill="red"/>
   </g>
   <g id="cell171">
  <circle cx="525.716" cy="390.191" r="10.4299" stroke-width="0.5" stroke="black" fill="red"/>
  <circle cx="525.716" cy="390.191" r="6.29221" stroke-width="0.5" stroke="red" fill="red"/>
   </g>
   <g id="cell172">
  <circle cx="477.449" cy="784.383" r="10.4393" stroke-width="0.5" stroke="black" fill="red"/>
  <circle cx="477.449" cy="784.383" r="6.2967" stroke-width="0.5" stroke="red" fill="red"/>
   </g>
   <g id="cell173">
  <circle cx="957.445" cy="420.982" r="9.08533" stroke-width="0.5" stroke="black" fill="red"/>
  <circle cx="957.445" cy="420.982" r="5.51806" stroke-width="0.5" stroke="red" fill="red"/>
   </g>
   <g id="cell174">
  <circle cx="352.676" cy="97.6354" r="8.65" stroke-width="0.5" stroke="black" fill="yellow"/>
  <circle cx="352.676" cy="97.6354" r="5.22686" stroke-width="0.5" stroke="yellow" fill="yellow"/>
   </g>
   <g id="cell175">
  <circle cx="27.9912" cy="326.106" r="10.4523" stroke-width="0.5" stroke="black" fill="yellow"/>
  <circle cx="27.9912" cy="326.106" r="6.3029" stroke-width="0.5" stroke="yellow" fill="yellow"/>
   </g>
   <g id="cell178">
  <circle cx="67.0789" cy="169.315" r="10.4091" stroke-width="0.5" stroke="black" fill="red"/>
  <circle cx="67.0789" cy="169.315" r="6.28219" stroke-width="0.5" stroke="red" fill="red"/>
   </g>
   <g id="cell179">
  <circle cx="12.6401" cy="487.282" r="9.9053" stroke-width="0.5" stroke="black" fill="yellow"/>
  <circle cx="12.6401" cy="487.282" r="6.01207" stroke-width="0.5" stroke="yellow" fill="yellow"/>
   </g>
   <g id="cell180">
  <circle cx="41.8017" cy="686.491" r="8.41088" stroke-width="0.5" stroke="black" fill="yellow"/>
  <circle cx="41.8017" cy="686.491" r="5.05119" stroke-width="0.5" stroke="yellow" fill="yellow"/>
   </g>
   <g id="cell181">
  <circle cx="992.345" cy="685.536" r="8.41078" stroke-width="0.5" stroke="black" fill="red"/>
  <circle cx="992.345" cy="685.536" r="5.05116" stroke-width="0.5" stroke="red" fill="red"/>
   </g>
   <g id="cell182">
  <circle cx="512.493" cy="954.566" r="8.41072" stroke-width="0.5" stroke="black" fill="yellow"/>
  <circle cx="512.493" cy="954.566" r="5.05114" stroke-width="0.5" stroke="yellow" fill="yellow"/>
   </g>
   <g id="cell183">
  <circle cx="639.474" cy="871.524" r="8.41072" stroke-width="0.5" stroke="black" fill="red"/>
  <circle cx="639.474" cy="871.524" r="5.05114" stroke-width="0.5" stroke="red" fill="red"/>
   </g>
   <g id="cell187">
  <circle cx="318.122" cy="436.704" r="9.69974" stroke-width="0.5" stroke="black" fill="yellow"/>
  <circle cx="318.122" cy="436.704" r="5.89359" stroke-width="0.5" stroke="yellow" fill="yellow"/>
   </g>
   <g id="cell189">
  <circle cx="781.895" cy="387.316" r="10.161" stroke-width="0.5" stroke="black" fill="yellow"/>
  <circle cx="781.895" cy="387.316" r="6.15421" stroke-width="0.5" stroke="yellow" fill="yellow"/>
   </g>
   <g id="cell194">
  <circle cx="105.067" cy="170.886" r="9.49726" stroke-width="0.5" stroke="black" fill="yellow"/>
  <circle cx="105.067" cy="170.886" r="5.77473" stroke-width="0.5" stroke="yellow" fill="yellow"/>
   </g>
   <g id="cell195">
  <circle cx="389.709" cy="434.198" r="8.75752" stroke-width="0.5" stroke="black" fill="yellow"/>
  <circle cx="389.709" cy="434.198" r="5.30512" stroke-width="0.5" stroke="yellow" fill="yellow"/>
   </g>
   <g id="cell196">
  <circle cx="884.592" cy="283.047" r="8.39987" stroke-width="0.5" stroke="black" fill="yellow"/>
  <circle cx="884.592" cy="283.047" r="5.04751" stroke-width="0.5" stroke="yellow" fill="yellow"/>
   </g>
   <g id="cell197">
  <circle cx="735.991" cy="702.406" r="8.39874" stroke-width="0.5" stroke="black" fill="yellow"/>
  <circle cx="735.991" cy="702.406" r="5.04711" stroke-width="0.5" stroke="yellow" fill="yellow"/>
   </g>
   <g id="cell198">
  <circle cx="63.6573" cy="419.835" r="8.63649" stroke-width="0.5" stroke="black" fill="yellow"/>
  <circle cx="63.6573" cy="419.835" r="5.22215" stroke-width="0.5" stroke="yellow" fill="yellow"/>
   </g>
  </g>
 </g>
  <rect x="775" y="1035" width="200" height="10" stroke-width="2" stroke="rgb(255,255,255)" fill="rgb(0,0,0)"/>
  <text x="781.25" y="1028.75"
   font-family="Arial" font-size="25" fill="black" >
   200 &#956;m
  </text>
  <text x="25" y="1045"
   font-family="Arial" font-size="18.75" fill="black" >
   0 days, 0 hours, 2 minutes, and 15.6102 seconds
  </text>
  <rect x="0" y="70" width="1000" height="1000" stroke-width="2" stroke="rgb(0,0,0)" fill="none"/>
</svg>
