<?xml version="1.0" encoding="UTF-8" standalone="no"?>
<!-- Created with PhysiCell (http://PhysiCell.MathCancer.org/) -->
<svg 
 xmlns:dc="http://purl.org/dc/elements/1.1/" 
 xmlns:cc="http://creativecommons.org/ns#" 
 xmlns:rdf="http://www.w3.org/1999/02/22-rdf-syntax-ns#" 
 xmlns:svg="http://www.w3.org/2000/svg" 
 xmlns="http://www.w3.org/2000/svg" 
 version="1.1" 
 width="1000" 
 height="1070" 
 id="svg2">
  <rect x="0" y="0" width="1000" height="1070" stroke-width="2" stroke="white" fill="white"/>
  <text x="12.5" y="30"
   font-family="Arial" font-size="25" fill="black" >
   Current time: 0 days, 5 hours, and 0.00 minutes, z = 0.00 &#956;m
  </text>
  <text x="12.5" y="57.5"
   font-family="Arial" font-size="23.75" fill="black" >
   120 agents
  </text>
 <g id="tissue" 
    transform="translate(0,1070) scale(1,-1)">
  <g id="ECM">
  </g>
  <g id="cells">
   <g id="cell0">
  <circle cx="527.06" cy="583.756" r="9.90658" stroke-width="0.5" stroke="black" fill="grey"/>
  <circle cx="527.06" cy="583.756" r="6.01243" stroke-width="0.5" stroke="grey" fill="grey"/>
   </g>
   <g id="cell1">
  <circle cx="839.837" cy="610.74" r="2.01831" stroke-width="0.5" stroke="black" fill="grey"/>
  <circle cx="839.837" cy="610.74" r="1.90974" stroke-width="0.5" stroke="black" fill="black"/>
   </g>
   <g id="cell2">
  <circle cx="550.341" cy="824.071" r="9.02907" stroke-width="0.5" stroke="black" fill="grey"/>
  <circle cx="550.341" cy="824.071" r="5.51145" stroke-width="0.5" stroke="black" fill="black"/>
   </g>
   <g id="cell3">
  <circle cx="620.871" cy="624.011" r="9.75192" stroke-width="0.5" stroke="black" fill="grey"/>
  <circle cx="620.871" cy="624.011" r="5.92342" stroke-width="0.5" stroke="grey" fill="grey"/>
   </g>
   <g id="cell4">
  <circle cx="415.352" cy="304.555" r="5.95973" stroke-width="0.5" stroke="black" fill="grey"/>
  <circle cx="415.352" cy="304.555" r="3.76978" stroke-width="0.5" stroke="black" fill="black"/>
   </g>
   <g id="cell5">
  <circle cx="79.2573" cy="959.809" r="9.84395" stroke-width="0.5" stroke="black" fill="grey"/>
  <circle cx="79.2573" cy="959.809" r="5.97665" stroke-width="0.5" stroke="grey" fill="grey"/>
   </g>
   <g id="cell6">
  <circle cx="395.972" cy="477.12" r="9.94548" stroke-width="0.5" stroke="black" fill="grey"/>
  <circle cx="395.972" cy="477.12" r="6.03448" stroke-width="0.5" stroke="grey" fill="grey"/>
   </g>
   <g id="cell7">
  <circle cx="817.214" cy="542.806" r="9.23685" stroke-width="0.5" stroke="black" fill="grey"/>
  <circle cx="817.214" cy="542.806" r="5.61315" stroke-width="0.5" stroke="grey" fill="grey"/>
   </g>
   <g id="cell8">
  <circle cx="592.216" cy="400.955" r="8.88811" stroke-width="0.5" stroke="black" fill="grey"/>
  <circle cx="592.216" cy="400.955" r="5.38958" stroke-width="0.5" stroke="grey" fill="grey"/>
   </g>
   <g id="cell9">
  <circle cx="847.148" cy="85.0327" r="2.47369" stroke-width="0.5" stroke="black" fill="grey"/>
  <circle cx="847.148" cy="85.0327" r="2.20257" stroke-width="0.5" stroke="black" fill="black"/>
   </g>
   <g id="cell10">
  <circle cx="114.875" cy="644.463" r="9.4743" stroke-width="0.5" stroke="black" fill="grey"/>
  <circle cx="114.875" cy="644.463" r="5.75875" stroke-width="0.5" stroke="grey" fill="grey"/>
   </g>
   <g id="cell11">
  <circle cx="367.036" cy="834.024" r="8.41271" stroke-width="0.5" stroke="black" fill="grey"/>
  <circle cx="367.036" cy="834.024" r="5.05167" stroke-width="0.5" stroke="grey" fill="grey"/>
   </g>
   <g id="cell12">
  <circle cx="782.392" cy="134.503" r="5.19915" stroke-width="0.5" stroke="black" fill="grey"/>
  <circle cx="782.392" cy="134.503" r="3.42443" stroke-width="0.5" stroke="black" fill="black"/>
   </g>
   <g id="cell13">
  <circle cx="880.851" cy="956.12" r="6.61565" stroke-width="0.5" stroke="black" fill="grey"/>
  <circle cx="880.851" cy="956.12" r="4.13807" stroke-width="0.5" stroke="black" fill="black"/>
   </g>
   <g id="cell14">
  <circle cx="840.351" cy="813.078" r="9.5651" stroke-width="0.5" stroke="black" fill="grey"/>
  <circle cx="840.351" cy="813.078" r="5.81327" stroke-width="0.5" stroke="grey" fill="grey"/>
   </g>
   <g id="cell15">
  <circle cx="516.176" cy="769.384" r="9.41008" stroke-width="0.5" stroke="black" fill="grey"/>
  <circle cx="516.176" cy="769.384" r="5.71981" stroke-width="0.5" stroke="grey" fill="grey"/>
   </g>
   <g id="cell16">
  <circle cx="131.973" cy="728.731" r="9.44256" stroke-width="0.5" stroke="black" fill="grey"/>
  <circle cx="131.973" cy="728.731" r="5.73955" stroke-width="0.5" stroke="grey" fill="grey"/>
   </g>
   <g id="cell17">
  <circle cx="576.613" cy="145.199" r="2.38423" stroke-width="0.5" stroke="black" fill="grey"/>
  <circle cx="576.613" cy="145.199" r="2.15073" stroke-width="0.5" stroke="black" fill="black"/>
   </g>
   <g id="cell18">
  <circle cx="919.731" cy="728.471" r="8.41271" stroke-width="0.5" stroke="black" fill="grey"/>
  <circle cx="919.731" cy="728.471" r="5.05167" stroke-width="0.5" stroke="grey" fill="grey"/>
   </g>
   <g id="cell19">
  <circle cx="91.6991" cy="418.138" r="7.11015" stroke-width="0.5" stroke="black" fill="grey"/>
  <circle cx="91.6991" cy="418.138" r="4.36379" stroke-width="0.5" stroke="black" fill="black"/>
   </g>
   <g id="cell20">
  <circle cx="240.107" cy="184.619" r="8.45606" stroke-width="0.5" stroke="black" fill="grey"/>
  <circle cx="240.107" cy="184.619" r="5.08296" stroke-width="0.5" stroke="grey" fill="grey"/>
   </g>
   <g id="cell21">
  <circle cx="738.177" cy="436.789" r="8.41271" stroke-width="0.5" stroke="black" fill="grey"/>
  <circle cx="738.177" cy="436.789" r="5.05167" stroke-width="0.5" stroke="grey" fill="grey"/>
   </g>
   <g id="cell22">
  <circle cx="565.337" cy="126.183" r="2.15065" stroke-width="0.5" stroke="black" fill="grey"/>
  <circle cx="565.337" cy="126.183" r="2.00267" stroke-width="0.5" stroke="black" fill="black"/>
   </g>
   <g id="cell23">
  <circle cx="303.9" cy="607.146" r="3.88299" stroke-width="0.5" stroke="black" fill="grey"/>
  <circle cx="303.9" cy="607.146" r="3.05338" stroke-width="0.5" stroke="black" fill="black"/>
   </g>
   <g id="cell24">
  <circle cx="619.558" cy="242.048" r="9.82189" stroke-width="0.5" stroke="black" fill="grey"/>
  <circle cx="619.558" cy="242.048" r="5.96395" stroke-width="0.5" stroke="grey" fill="grey"/>
   </g>
   <g id="cell25">
  <circle cx="391.324" cy="976.029" r="4.70993" stroke-width="0.5" stroke="black" fill="grey"/>
  <circle cx="391.324" cy="976.029" r="3.22975" stroke-width="0.5" stroke="black" fill="black"/>
   </g>
   <g id="cell26">
  <circle cx="658.262" cy="463.07" r="9.7273" stroke-width="0.5" stroke="black" fill="grey"/>
  <circle cx="658.262" cy="463.07" r="5.90906" stroke-width="0.5" stroke="grey" fill="grey"/>
   </g>
   <g id="cell27">
  <circle cx="601.791" cy="449.353" r="2.04991" stroke-width="0.5" stroke="black" fill="grey"/>
  <circle cx="601.791" cy="449.353" r="1.93256" stroke-width="0.5" stroke="black" fill="black"/>
   </g>
   <g id="cell28">
  <circle cx="687.542" cy="125.662" r="9.5651" stroke-width="0.5" stroke="black" fill="grey"/>
  <circle cx="687.542" cy="125.662" r="5.81327" stroke-width="0.5" stroke="grey" fill="grey"/>
   </g>
   <g id="cell29">
  <circle cx="984.89" cy="666.886" r="9.77588" stroke-width="0.5" stroke="black" fill="grey"/>
  <circle cx="984.89" cy="666.886" r="5.93735" stroke-width="0.5" stroke="grey" fill="grey"/>
   </g>
   <g id="cell30">
  <circle cx="696.958" cy="172.138" r="8.41271" stroke-width="0.5" stroke="black" fill="grey"/>
  <circle cx="696.958" cy="172.138" r="5.05167" stroke-width="0.5" stroke="grey" fill="grey"/>
   </g>
   <g id="cell31">
  <circle cx="366.318" cy="116.504" r="8.45606" stroke-width="0.5" stroke="black" fill="grey"/>
  <circle cx="366.318" cy="116.504" r="5.08296" stroke-width="0.5" stroke="grey" fill="grey"/>
   </g>
   <g id="cell32">
  <circle cx="319.499" cy="595.194" r="2.43237" stroke-width="0.5" stroke="black" fill="grey"/>
  <circle cx="319.499" cy="595.194" r="2.19628" stroke-width="0.5" stroke="black" fill="black"/>
   </g>
   <g id="cell33">
  <circle cx="310.636" cy="554.328" r="4.25752" stroke-width="0.5" stroke="black" fill="grey"/>
  <circle cx="310.636" cy="554.328" r="3.2226" stroke-width="0.5" stroke="black" fill="black"/>
   </g>
   <g id="cell34">
  <circle cx="435.362" cy="649.251" r="3.9178" stroke-width="0.5" stroke="black" fill="grey"/>
  <circle cx="435.362" cy="649.251" r="2.85647" stroke-width="0.5" stroke="black" fill="black"/>
   </g>
   <g id="cell35">
  <circle cx="939.631" cy="85.5404" r="8.41271" stroke-width="0.5" stroke="black" fill="grey"/>
  <circle cx="939.631" cy="85.5404" r="5.05167" stroke-width="0.5" stroke="grey" fill="grey"/>
   </g>
   <g id="cell36">
  <circle cx="208.916" cy="622.395" r="2.97674" stroke-width="0.5" stroke="black" fill="grey"/>
  <circle cx="208.916" cy="622.395" r="2.45592" stroke-width="0.5" stroke="black" fill="black"/>
   </g>
   <g id="cell37">
  <circle cx="991.105" cy="649.704" r="2.72971" stroke-width="0.5" stroke="black" fill="grey"/>
  <circle cx="991.105" cy="649.704" r="2.33853" stroke-width="0.5" stroke="black" fill="black"/>
   </g>
   <g id="cell38">
  <circle cx="239.216" cy="439.982" r="9.92631" stroke-width="0.5" stroke="black" fill="grey"/>
  <circle cx="239.216" cy="439.982" r="6.02363" stroke-width="0.5" stroke="grey" fill="grey"/>
   </g>
   <g id="cell39">
  <circle cx="496.525" cy="254.099" r="2.72971" stroke-width="0.5" stroke="black" fill="grey"/>
  <circle cx="496.525" cy="254.099" r="2.33853" stroke-width="0.5" stroke="black" fill="black"/>
   </g>
   <g id="cell40">
  <circle cx="180.331" cy="341.44" r="9.30826" stroke-width="0.5" stroke="black" fill="red"/>
  <circle cx="180.331" cy="341.44" r="5.65742" stroke-width="0.5" stroke="red" fill="red"/>
   </g>
   <g id="cell41">
  <circle cx="669.935" cy="667.644" r="9.59391" stroke-width="0.5" stroke="black" fill="red"/>
  <circle cx="669.935" cy="667.644" r="5.83043" stroke-width="0.5" stroke="red" fill="red"/>
   </g>
   <g id="cell42">
  <circle cx="155.727" cy="745.277" r="9.59391" stroke-width="0.5" stroke="black" fill="red"/>
  <circle cx="155.727" cy="745.277" r="5.83043" stroke-width="0.5" stroke="red" fill="red"/>
   </g>
   <g id="cell43">
  <circle cx="940.004" cy="362.924" r="8.61424" stroke-width="0.5" stroke="black" fill="red"/>
  <circle cx="940.004" cy="362.924" r="5.20061" stroke-width="0.5" stroke="red" fill="red"/>
   </g>
   <g id="cell44">
  <circle cx="812.871" cy="17.4909" r="9.2729" stroke-width="0.5" stroke="black" fill="red"/>
  <circle cx="812.871" cy="17.4909" r="5.63555" stroke-width="0.5" stroke="red" fill="red"/>
   </g>
   <g id="cell45">
  <circle cx="627.038" cy="835.31" r="8.41271" stroke-width="0.5" stroke="black" fill="red"/>
  <circle cx="627.038" cy="835.31" r="5.05167" stroke-width="0.5" stroke="red" fill="red"/>
   </g>
   <g id="cell46">
  <circle cx="67.8199" cy="973.225" r="9.7273" stroke-width="0.5" stroke="black" fill="red"/>
  <circle cx="67.8199" cy="973.225" r="5.90906" stroke-width="0.5" stroke="red" fill="red"/>
   </g>
   <g id="cell47">
  <circle cx="886.616" cy="458.143" r="9.44256" stroke-width="0.5" stroke="black" fill="red"/>
  <circle cx="886.616" cy="458.143" r="5.73955" stroke-width="0.5" stroke="red" fill="red"/>
   </g>
   <g id="cell48">
  <circle cx="942.162" cy="31.2744" r="9.82189" stroke-width="0.5" stroke="black" fill="red"/>
  <circle cx="942.162" cy="31.2744" r="5.96395" stroke-width="0.5" stroke="red" fill="red"/>
   </g>
   <g id="cell49">
  <circle cx="464.975" cy="759.13" r="8.65127" stroke-width="0.5" stroke="black" fill="red"/>
  <circle cx="464.975" cy="759.13" r="5.2272" stroke-width="0.5" stroke="red" fill="red"/>
   </g>
   <g id="cell50">
  <circle cx="39.6594" cy="448.309" r="9.94548" stroke-width="0.5" stroke="black" fill="red"/>
  <circle cx="39.6594" cy="448.309" r="6.03448" stroke-width="0.5" stroke="red" fill="red"/>
   </g>
   <g id="cell51">
  <circle cx="972.825" cy="111.997" r="9.84395" stroke-width="0.5" stroke="black" fill="red"/>
  <circle cx="972.825" cy="111.997" r="5.97665" stroke-width="0.5" stroke="red" fill="red"/>
   </g>
   <g id="cell52">
  <circle cx="298.347" cy="499.508" r="8.41271" stroke-width="0.5" stroke="black" fill="red"/>
  <circle cx="298.347" cy="499.508" r="5.05167" stroke-width="0.5" stroke="red" fill="red"/>
   </g>
   <g id="cell53">
  <circle cx="708.589" cy="294.643" r="9.7273" stroke-width="0.5" stroke="black" fill="red"/>
  <circle cx="708.589" cy="294.643" r="5.90906" stroke-width="0.5" stroke="red" fill="red"/>
   </g>
   <g id="cell54">
  <circle cx="433.41" cy="939.865" r="8.88811" stroke-width="0.5" stroke="black" fill="red"/>
  <circle cx="433.41" cy="939.865" r="5.38958" stroke-width="0.5" stroke="red" fill="red"/>
   </g>
   <g id="cell55">
  <circle cx="235.149" cy="690.676" r="8.41271" stroke-width="0.5" stroke="black" fill="red"/>
  <circle cx="235.149" cy="690.676" r="5.05167" stroke-width="0.5" stroke="red" fill="red"/>
   </g>
   <g id="cell56">
  <circle cx="551.834" cy="831.583" r="9.34292" stroke-width="0.5" stroke="black" fill="red"/>
  <circle cx="551.834" cy="831.583" r="5.67875" stroke-width="0.5" stroke="red" fill="red"/>
   </g>
   <g id="cell57">
  <circle cx="488.634" cy="532.238" r="9.53557" stroke-width="0.5" stroke="black" fill="red"/>
  <circle cx="488.634" cy="532.238" r="5.79561" stroke-width="0.5" stroke="red" fill="red"/>
   </g>
   <g id="cell58">
  <circle cx="94.5837" cy="926.529" r="8.9283" stroke-width="0.5" stroke="black" fill="red"/>
  <circle cx="94.5837" cy="926.529" r="5.4161" stroke-width="0.5" stroke="red" fill="red"/>
   </g>
   <g id="cell59">
  <circle cx="85.1827" cy="938.822" r="8.68937" stroke-width="0.5" stroke="black" fill="red"/>
  <circle cx="85.1827" cy="938.822" r="5.25417" stroke-width="0.5" stroke="red" fill="red"/>
   </g>
   <g id="cell60">
  <circle cx="305.765" cy="20.6468" r="8.45606" stroke-width="0.5" stroke="black" fill="red"/>
  <circle cx="305.765" cy="20.6468" r="5.08296" stroke-width="0.5" stroke="red" fill="red"/>
   </g>
   <g id="cell61">
  <circle cx="833.566" cy="146.153" r="8.9283" stroke-width="0.5" stroke="black" fill="red"/>
  <circle cx="833.566" cy="146.153" r="5.4161" stroke-width="0.5" stroke="red" fill="red"/>
   </g>
   <g id="cell62">
  <circle cx="714.97" cy="825.854" r="8.41271" stroke-width="0.5" stroke="black" fill="red"/>
  <circle cx="714.97" cy="825.854" r="5.05167" stroke-width="0.5" stroke="red" fill="red"/>
   </g>
   <g id="cell63">
  <circle cx="290.641" cy="194.078" r="9.4743" stroke-width="0.5" stroke="black" fill="red"/>
  <circle cx="290.641" cy="194.078" r="5.75875" stroke-width="0.5" stroke="red" fill="red"/>
   </g>
   <g id="cell64">
  <circle cx="590.354" cy="534.593" r="8.41271" stroke-width="0.5" stroke="black" fill="red"/>
  <circle cx="590.354" cy="534.593" r="5.05167" stroke-width="0.5" stroke="red" fill="red"/>
   </g>
   <g id="cell65">
  <circle cx="187.056" cy="838.46" r="8.41271" stroke-width="0.5" stroke="black" fill="red"/>
  <circle cx="187.056" cy="838.46" r="5.05167" stroke-width="0.5" stroke="red" fill="red"/>
   </g>
   <g id="cell66">
  <circle cx="12.0791" cy="162.313" r="8.41271" stroke-width="0.5" stroke="black" fill="red"/>
  <circle cx="12.0791" cy="162.313" r="5.05167" stroke-width="0.5" stroke="red" fill="red"/>
   </g>
   <g id="cell67">
  <circle cx="540.466" cy="283.083" r="8.41271" stroke-width="0.5" stroke="black" fill="red"/>
  <circle cx="540.466" cy="283.083" r="5.05167" stroke-width="0.5" stroke="red" fill="red"/>
   </g>
   <g id="cell68">
  <circle cx="740.842" cy="272.75" r="9.64936" stroke-width="0.5" stroke="black" fill="red"/>
  <circle cx="740.842" cy="272.75" r="5.86329" stroke-width="0.5" stroke="red" fill="red"/>
   </g>
   <g id="cell69">
  <circle cx="428.006" cy="272.475" r="8.45606" stroke-width="0.5" stroke="black" fill="red"/>
  <circle cx="428.006" cy="272.475" r="5.08296" stroke-width="0.5" stroke="red" fill="red"/>
   </g>
   <g id="cell70">
  <circle cx="544.806" cy="403.261" r="8.68937" stroke-width="0.5" stroke="black" fill="red"/>
  <circle cx="544.806" cy="403.261" r="5.25417" stroke-width="0.5" stroke="red" fill="red"/>
   </g>
   <g id="cell71">
  <circle cx="891.393" cy="563.495" r="9.82189" stroke-width="0.5" stroke="black" fill="red"/>
  <circle cx="891.393" cy="563.495" r="5.96395" stroke-width="0.5" stroke="red" fill="red"/>
   </g>
   <g id="cell72">
  <circle cx="212.784" cy="876.194" r="9.37686" stroke-width="0.5" stroke="black" fill="red"/>
  <circle cx="212.784" cy="876.194" r="5.69955" stroke-width="0.5" stroke="red" fill="red"/>
   </g>
   <g id="cell73">
  <circle cx="675.919" cy="466.123" r="9.67603" stroke-width="0.5" stroke="black" fill="red"/>
  <circle cx="675.919" cy="466.123" r="5.87901" stroke-width="0.5" stroke="red" fill="red"/>
   </g>
   <g id="cell74">
  <circle cx="840.803" cy="985.087" r="8.88811" stroke-width="0.5" stroke="black" fill="red"/>
  <circle cx="840.803" cy="985.087" r="5.38958" stroke-width="0.5" stroke="red" fill="red"/>
   </g>
   <g id="cell75">
  <circle cx="86.6927" cy="307.788" r="9.62199" stroke-width="0.5" stroke="black" fill="red"/>
  <circle cx="86.6927" cy="307.788" r="5.8471" stroke-width="0.5" stroke="red" fill="red"/>
   </g>
   <g id="cell76">
  <circle cx="795.093" cy="377.18" r="8.80772" stroke-width="0.5" stroke="black" fill="red"/>
  <circle cx="795.093" cy="377.18" r="5.33574" stroke-width="0.5" stroke="red" fill="red"/>
   </g>
   <g id="cell77">
  <circle cx="640.806" cy="868.993" r="9.23685" stroke-width="0.5" stroke="black" fill="red"/>
  <circle cx="640.806" cy="868.993" r="5.61315" stroke-width="0.5" stroke="red" fill="red"/>
   </g>
   <g id="cell78">
  <circle cx="571.83" cy="302.78" r="9.00806" stroke-width="0.5" stroke="black" fill="red"/>
  <circle cx="571.83" cy="302.78" r="5.46807" stroke-width="0.5" stroke="red" fill="red"/>
   </g>
   <g id="cell79">
  <circle cx="972.546" cy="700.911" r="8.41271" stroke-width="0.5" stroke="black" fill="red"/>
  <circle cx="972.546" cy="700.911" r="5.05167" stroke-width="0.5" stroke="red" fill="red"/>
   </g>
   <g id="cell80">
  <circle cx="744.233" cy="675.64" r="8.41271" stroke-width="0.5" stroke="black" fill="yellow"/>
  <circle cx="744.233" cy="675.64" r="5.05167" stroke-width="0.5" stroke="yellow" fill="yellow"/>
   </g>
   <g id="cell81">
  <circle cx="491.269" cy="968.662" r="8.41271" stroke-width="0.5" stroke="black" fill="yellow"/>
  <circle cx="491.269" cy="968.662" r="5.05167" stroke-width="0.5" stroke="yellow" fill="yellow"/>
   </g>
   <g id="cell82">
  <circle cx="657.95" cy="407.513" r="9.44256" stroke-width="0.5" stroke="black" fill="yellow"/>
  <circle cx="657.95" cy="407.513" r="5.73955" stroke-width="0.5" stroke="yellow" fill="yellow"/>
   </g>
   <g id="cell83">
  <circle cx="603.433" cy="579.353" r="9.20015" stroke-width="0.5" stroke="black" fill="yellow"/>
  <circle cx="603.433" cy="579.353" r="5.59022" stroke-width="0.5" stroke="yellow" fill="yellow"/>
   </g>
   <g id="cell84">
  <circle cx="20.4316" cy="450.98" r="8.41271" stroke-width="0.5" stroke="black" fill="yellow"/>
  <circle cx="20.4316" cy="450.98" r="5.05167" stroke-width="0.5" stroke="yellow" fill="yellow"/>
   </g>
   <g id="cell85">
  <circle cx="722.023" cy="677.7" r="9.67603" stroke-width="0.5" stroke="black" fill="yellow"/>
  <circle cx="722.023" cy="677.7" r="5.87901" stroke-width="0.5" stroke="yellow" fill="yellow"/>
   </g>
   <g id="cell86">
  <circle cx="277.943" cy="416.814" r="8.41271" stroke-width="0.5" stroke="black" fill="yellow"/>
  <circle cx="277.943" cy="416.814" r="5.05167" stroke-width="0.5" stroke="yellow" fill="yellow"/>
   </g>
   <g id="cell87">
  <circle cx="769.272" cy="433.521" r="9.90658" stroke-width="0.5" stroke="black" fill="yellow"/>
  <circle cx="769.272" cy="433.521" r="6.01243" stroke-width="0.5" stroke="yellow" fill="yellow"/>
   </g>
   <g id="cell88">
  <circle cx="138.06" cy="91.9622" r="9.08642" stroke-width="0.5" stroke="black" fill="yellow"/>
  <circle cx="138.06" cy="91.9622" r="5.51837" stroke-width="0.5" stroke="yellow" fill="yellow"/>
   </g>
   <g id="cell89">
  <circle cx="64.4221" cy="562.243" r="8.41271" stroke-width="0.5" stroke="black" fill="yellow"/>
  <circle cx="64.4221" cy="562.243" r="5.05167" stroke-width="0.5" stroke="yellow" fill="yellow"/>
   </g>
   <g id="cell90">
  <circle cx="576.381" cy="549.137" r="2.01831" stroke-width="0.5" stroke="black" fill="yellow"/>
  <circle cx="576.381" cy="549.137" r="1.90974" stroke-width="0.5" stroke="black" fill="black"/>
   </g>
   <g id="cell91">
  <circle cx="51.22" cy="641.011" r="8.41271" stroke-width="0.5" stroke="black" fill="yellow"/>
  <circle cx="51.22" cy="641.011" r="5.05167" stroke-width="0.5" stroke="yellow" fill="yellow"/>
   </g>
   <g id="cell92">
  <circle cx="667.668" cy="278.746" r="9.00806" stroke-width="0.5" stroke="black" fill="yellow"/>
  <circle cx="667.668" cy="278.746" r="5.46807" stroke-width="0.5" stroke="yellow" fill="yellow"/>
   </g>
   <g id="cell93">
  <circle cx="203.489" cy="897.885" r="9.90658" stroke-width="0.5" stroke="black" fill="yellow"/>
  <circle cx="203.489" cy="897.885" r="6.01243" stroke-width="0.5" stroke="yellow" fill="yellow"/>
   </g>
   <g id="cell94">
  <circle cx="379.558" cy="74.4604" r="8.54454" stroke-width="0.5" stroke="black" fill="yellow"/>
  <circle cx="379.558" cy="74.4604" r="5.14947" stroke-width="0.5" stroke="yellow" fill="yellow"/>
   </g>
   <g id="cell95">
  <circle cx="974.284" cy="877.445" r="8.72828" stroke-width="0.5" stroke="black" fill="yellow"/>
  <circle cx="974.284" cy="877.445" r="5.28134" stroke-width="0.5" stroke="yellow" fill="yellow"/>
   </g>
   <g id="cell96">
  <circle cx="795.52" cy="533.172" r="8.7678" stroke-width="0.5" stroke="black" fill="yellow"/>
  <circle cx="795.52" cy="533.172" r="5.30857" stroke-width="0.5" stroke="yellow" fill="yellow"/>
   </g>
   <g id="cell97">
  <circle cx="444.187" cy="111.672" r="8.41271" stroke-width="0.5" stroke="black" fill="yellow"/>
  <circle cx="444.187" cy="111.672" r="5.05167" stroke-width="0.5" stroke="yellow" fill="yellow"/>
   </g>
   <g id="cell98">
  <circle cx="935.82" cy="332.604" r="8.41271" stroke-width="0.5" stroke="black" fill="yellow"/>
  <circle cx="935.82" cy="332.604" r="5.05167" stroke-width="0.5" stroke="yellow" fill="yellow"/>
   </g>
   <g id="cell99">
  <circle cx="499.343" cy="980.308" r="8.41271" stroke-width="0.5" stroke="black" fill="yellow"/>
  <circle cx="499.343" cy="980.308" r="5.05167" stroke-width="0.5" stroke="yellow" fill="yellow"/>
   </g>
   <g id="cell100">
  <circle cx="142.013" cy="843.352" r="9.70201" stroke-width="0.5" stroke="black" fill="yellow"/>
  <circle cx="142.013" cy="843.352" r="5.89426" stroke-width="0.5" stroke="yellow" fill="yellow"/>
   </g>
   <g id="cell101">
  <circle cx="64.4692" cy="149.265" r="8.41271" stroke-width="0.5" stroke="black" fill="yellow"/>
  <circle cx="64.4692" cy="149.265" r="5.05167" stroke-width="0.5" stroke="yellow" fill="yellow"/>
   </g>
   <g id="cell102">
  <circle cx="635.97" cy="151.033" r="8.7678" stroke-width="0.5" stroke="black" fill="yellow"/>
  <circle cx="635.97" cy="151.033" r="5.30857" stroke-width="0.5" stroke="yellow" fill="yellow"/>
   </g>
   <g id="cell103">
  <circle cx="799.926" cy="880.898" r="8.41271" stroke-width="0.5" stroke="black" fill="yellow"/>
  <circle cx="799.926" cy="880.898" r="5.05167" stroke-width="0.5" stroke="yellow" fill="yellow"/>
   </g>
   <g id="cell104">
  <circle cx="812.776" cy="418.3" r="9.86542" stroke-width="0.5" stroke="black" fill="yellow"/>
  <circle cx="812.776" cy="418.3" r="5.98895" stroke-width="0.5" stroke="yellow" fill="yellow"/>
   </g>
   <g id="cell105">
  <circle cx="145.788" cy="417.162" r="8.41271" stroke-width="0.5" stroke="black" fill="yellow"/>
  <circle cx="145.788" cy="417.162" r="5.05167" stroke-width="0.5" stroke="yellow" fill="yellow"/>
   </g>
   <g id="cell106">
  <circle cx="28.9514" cy="972.088" r="9.62199" stroke-width="0.5" stroke="black" fill="yellow"/>
  <circle cx="28.9514" cy="972.088" r="5.8471" stroke-width="0.5" stroke="yellow" fill="yellow"/>
   </g>
   <g id="cell107">
  <circle cx="381.498" cy="464.619" r="8.41271" stroke-width="0.5" stroke="black" fill="yellow"/>
  <circle cx="381.498" cy="464.619" r="5.05167" stroke-width="0.5" stroke="yellow" fill="yellow"/>
   </g>
   <g id="cell108">
  <circle cx="715.356" cy="46.0139" r="9.88629" stroke-width="0.5" stroke="black" fill="yellow"/>
  <circle cx="715.356" cy="46.0139" r="6.00088" stroke-width="0.5" stroke="yellow" fill="yellow"/>
   </g>
   <g id="cell109">
  <circle cx="369.636" cy="949.318" r="8.68937" stroke-width="0.5" stroke="black" fill="yellow"/>
  <circle cx="369.636" cy="949.318" r="5.25417" stroke-width="0.5" stroke="yellow" fill="yellow"/>
   </g>
   <g id="cell110">
  <circle cx="837.296" cy="244.126" r="8.41271" stroke-width="0.5" stroke="black" fill="yellow"/>
  <circle cx="837.296" cy="244.126" r="5.05167" stroke-width="0.5" stroke="yellow" fill="yellow"/>
   </g>
   <g id="cell111">
  <circle cx="762.497" cy="369.346" r="8.41271" stroke-width="0.5" stroke="black" fill="yellow"/>
  <circle cx="762.497" cy="369.346" r="5.05167" stroke-width="0.5" stroke="yellow" fill="yellow"/>
   </g>
   <g id="cell112">
  <circle cx="734.884" cy="771.711" r="9.64936" stroke-width="0.5" stroke="black" fill="yellow"/>
  <circle cx="734.884" cy="771.711" r="5.86329" stroke-width="0.5" stroke="yellow" fill="yellow"/>
   </g>
   <g id="cell113">
  <circle cx="347.194" cy="522.062" r="2.21502" stroke-width="0.5" stroke="black" fill="yellow"/>
  <circle cx="347.194" cy="522.062" r="2.06466" stroke-width="0.5" stroke="black" fill="black"/>
   </g>
   <g id="cell114">
  <circle cx="47.882" cy="342.843" r="8.54454" stroke-width="0.5" stroke="black" fill="yellow"/>
  <circle cx="47.882" cy="342.843" r="5.14947" stroke-width="0.5" stroke="yellow" fill="yellow"/>
   </g>
   <g id="cell115">
  <circle cx="195.452" cy="21.4403" r="9.41008" stroke-width="0.5" stroke="black" fill="yellow"/>
  <circle cx="195.452" cy="21.4403" r="5.71981" stroke-width="0.5" stroke="yellow" fill="yellow"/>
   </g>
   <g id="cell116">
  <circle cx="802.104" cy="477.67" r="8.41271" stroke-width="0.5" stroke="black" fill="yellow"/>
  <circle cx="802.104" cy="477.67" r="5.05167" stroke-width="0.5" stroke="yellow" fill="yellow"/>
   </g>
   <g id="cell117">
  <circle cx="882.692" cy="356.289" r="8.41271" stroke-width="0.5" stroke="black" fill="yellow"/>
  <circle cx="882.692" cy="356.289" r="5.05167" stroke-width="0.5" stroke="yellow" fill="yellow"/>
   </g>
   <g id="cell118">
  <circle cx="907.912" cy="620.311" r="9.75192" stroke-width="0.5" stroke="black" fill="yellow"/>
  <circle cx="907.912" cy="620.311" r="5.92342" stroke-width="0.5" stroke="yellow" fill="yellow"/>
   </g>
   <g id="cell119">
  <circle cx="592.639" cy="23.7425" r="8.41271" stroke-width="0.5" stroke="black" fill="yellow"/>
  <circle cx="592.639" cy="23.7425" r="5.05167" stroke-width="0.5" stroke="yellow" fill="yellow"/>
   </g>
  </g>
 </g>
  <rect x="775" y="1035" width="200" height="10" stroke-width="2" stroke="rgb(255,255,255)" fill="rgb(0,0,0)"/>
  <text x="781.25" y="1028.75"
   font-family="Arial" font-size="25" fill="black" >
   200 &#956;m
  </text>
  <text x="25" y="1045"
   font-family="Arial" font-size="18.75" fill="black" >
   0 days, 0 hours, 0 minutes, and 18.8398 seconds
  </text>
  <rect x="0" y="70" width="1000" height="1000" stroke-width="2" stroke="rgb(0,0,0)" fill="none"/>
</svg>
