<?xml version="1.0" encoding="UTF-8" standalone="no"?>
<!-- Created with PhysiCell (http://PhysiCell.MathCancer.org/) -->
<svg 
 xmlns:dc="http://purl.org/dc/elements/1.1/" 
 xmlns:cc="http://creativecommons.org/ns#" 
 xmlns:rdf="http://www.w3.org/1999/02/22-rdf-syntax-ns#" 
 xmlns:svg="http://www.w3.org/2000/svg" 
 xmlns="http://www.w3.org/2000/svg" 
 version="1.1" 
 width="1000" 
 height="1070" 
 id="svg2">
  <rect x="0" y="0" width="1000" height="1070" stroke-width="2" stroke="white" fill="white"/>
  <text x="12.5" y="30"
   font-family="Arial" font-size="25" fill="black" >
   Current time: 1 days, 11 hours, and 0.00 minutes, z = 0.00 &#956;m
  </text>
  <text x="12.5" y="57.5"
   font-family="Arial" font-size="23.75" fill="black" >
   198 agents
  </text>
 <g id="tissue" 
    transform="translate(0,1070) scale(1,-1)">
  <g id="ECM">
  </g>
  <g id="cells">
   <g id="cell0">
  <circle cx="476.033" cy="619.158" r="8.40266" stroke-width="0.5" stroke="black" fill="grey"/>
  <circle cx="476.033" cy="619.158" r="5.04852" stroke-width="0.5" stroke="grey" fill="grey"/>
   </g>
   <g id="cell118">
  <circle cx="848.032" cy="576.681" r="9.88618" stroke-width="0.5" stroke="black" fill="yellow"/>
  <circle cx="848.032" cy="576.681" r="6.00085" stroke-width="0.5" stroke="yellow" fill="yellow"/>
   </g>
   <g id="cell100">
  <circle cx="121.461" cy="812.806" r="8.40177" stroke-width="0.5" stroke="black" fill="yellow"/>
  <circle cx="121.461" cy="812.806" r="5.04821" stroke-width="0.5" stroke="yellow" fill="yellow"/>
   </g>
   <g id="cell3">
  <circle cx="658.038" cy="658.075" r="8.39905" stroke-width="0.5" stroke="black" fill="grey"/>
  <circle cx="658.038" cy="658.075" r="5.04723" stroke-width="0.5" stroke="grey" fill="grey"/>
   </g>
   <g id="cell103">
  <circle cx="825.159" cy="868.43" r="9.7721" stroke-width="0.5" stroke="black" fill="yellow"/>
  <circle cx="825.159" cy="868.43" r="5.93617" stroke-width="0.5" stroke="yellow" fill="yellow"/>
   </g>
   <g id="cell135">
  <circle cx="125.841" cy="795.243" r="10.5617" stroke-width="0.5" stroke="black" fill="yellow"/>
  <circle cx="125.841" cy="795.243" r="6.35128" stroke-width="0.5" stroke="yellow" fill="yellow"/>
   </g>
   <g id="cell185">
  <circle cx="819.894" cy="384.742" r="10.4858" stroke-width="0.5" stroke="black" fill="yellow"/>
  <circle cx="819.894" cy="384.742" r="6.31842" stroke-width="0.5" stroke="yellow" fill="yellow"/>
   </g>
   <g id="cell7">
  <circle cx="834.813" cy="461.017" r="8.3941" stroke-width="0.5" stroke="black" fill="grey"/>
  <circle cx="834.813" cy="461.017" r="5.0454" stroke-width="0.5" stroke="grey" fill="grey"/>
   </g>
   <g id="cell192">
  <circle cx="812.193" cy="409.282" r="10.2813" stroke-width="0.5" stroke="black" fill="yellow"/>
  <circle cx="812.193" cy="409.282" r="6.21757" stroke-width="0.5" stroke="yellow" fill="yellow"/>
   </g>
   <g id="cell231">
  <circle cx="467.3" cy="956.289" r="8.39083" stroke-width="0.5" stroke="black" fill="yellow"/>
  <circle cx="467.3" cy="956.289" r="5.04414" stroke-width="0.5" stroke="yellow" fill="yellow"/>
   </g>
   <g id="cell176">
  <circle cx="256.208" cy="50.5484" r="10.4686" stroke-width="0.5" stroke="black" fill="red"/>
  <circle cx="256.208" cy="50.5484" r="6.31046" stroke-width="0.5" stroke="red" fill="red"/>
   </g>
   <g id="cell186">
  <circle cx="79.8588" cy="563.339" r="8.84724" stroke-width="0.5" stroke="black" fill="yellow"/>
  <circle cx="79.8588" cy="563.339" r="5.3626" stroke-width="0.5" stroke="yellow" fill="yellow"/>
   </g>
   <g id="cell104">
  <circle cx="785.448" cy="427.103" r="8.39944" stroke-width="0.5" stroke="black" fill="yellow"/>
  <circle cx="785.448" cy="427.103" r="5.04737" stroke-width="0.5" stroke="yellow" fill="yellow"/>
   </g>
   <g id="cell102">
  <circle cx="666.605" cy="151.922" r="10.5368" stroke-width="0.5" stroke="black" fill="yellow"/>
  <circle cx="666.605" cy="151.922" r="6.34098" stroke-width="0.5" stroke="yellow" fill="yellow"/>
   </g>
   <g id="cell98">
  <circle cx="873.79" cy="376.2" r="10.5062" stroke-width="0.5" stroke="black" fill="yellow"/>
  <circle cx="873.79" cy="376.2" r="6.32766" stroke-width="0.5" stroke="yellow" fill="yellow"/>
   </g>
   <g id="cell97">
  <circle cx="411.388" cy="99.716" r="10.4856" stroke-width="0.5" stroke="black" fill="yellow"/>
  <circle cx="411.388" cy="99.716" r="6.31837" stroke-width="0.5" stroke="yellow" fill="yellow"/>
   </g>
   <g id="cell237">
  <circle cx="645.885" cy="608.093" r="8.38884" stroke-width="0.5" stroke="black" fill="grey"/>
  <circle cx="645.885" cy="608.093" r="5.04338" stroke-width="0.5" stroke="grey" fill="grey"/>
   </g>
   <g id="cell116">
  <circle cx="786.126" cy="458.058" r="10.3316" stroke-width="0.5" stroke="black" fill="yellow"/>
  <circle cx="786.126" cy="458.058" r="6.24347" stroke-width="0.5" stroke="yellow" fill="yellow"/>
   </g>
   <g id="cell177">
  <circle cx="443.48" cy="332.303" r="10.1631" stroke-width="0.5" stroke="black" fill="red"/>
  <circle cx="443.48" cy="332.303" r="6.15483" stroke-width="0.5" stroke="red" fill="red"/>
   </g>
   <g id="cell101">
  <circle cx="148.48" cy="147.521" r="8.50966" stroke-width="0.5" stroke="black" fill="yellow"/>
  <circle cx="148.48" cy="147.521" r="5.12472" stroke-width="0.5" stroke="yellow" fill="yellow"/>
   </g>
   <g id="cell184">
  <circle cx="500.085" cy="317.279" r="10.5463" stroke-width="0.5" stroke="black" fill="red"/>
  <circle cx="500.085" cy="317.279" r="6.34504" stroke-width="0.5" stroke="red" fill="red"/>
   </g>
   <g id="cell99">
  <circle cx="503.333" cy="983.173" r="10.5311" stroke-width="0.5" stroke="black" fill="yellow"/>
  <circle cx="503.333" cy="983.173" r="6.33858" stroke-width="0.5" stroke="yellow" fill="yellow"/>
   </g>
   <g id="cell115">
  <circle cx="245.901" cy="54.1631" r="10.5606" stroke-width="0.5" stroke="black" fill="yellow"/>
  <circle cx="245.901" cy="54.1631" r="6.35084" stroke-width="0.5" stroke="yellow" fill="yellow"/>
   </g>
   <g id="cell191">
  <circle cx="753.188" cy="127.123" r="10.4606" stroke-width="0.5" stroke="black" fill="grey"/>
  <circle cx="753.188" cy="127.123" r="6.30677" stroke-width="0.5" stroke="grey" fill="grey"/>
   </g>
   <g id="cell153">
  <circle cx="190.481" cy="370.57" r="8.39249" stroke-width="0.5" stroke="black" fill="red"/>
  <circle cx="190.481" cy="370.57" r="5.04479" stroke-width="0.5" stroke="red" fill="red"/>
   </g>
   <g id="cell105">
  <circle cx="70.2487" cy="410.652" r="10.1343" stroke-width="0.5" stroke="black" fill="yellow"/>
  <circle cx="70.2487" cy="410.652" r="6.13993" stroke-width="0.5" stroke="yellow" fill="yellow"/>
   </g>
   <g id="cell211">
  <circle cx="676.262" cy="645.415" r="8.75523" stroke-width="0.5" stroke="black" fill="grey"/>
  <circle cx="676.262" cy="645.415" r="5.30428" stroke-width="0.5" stroke="grey" fill="grey"/>
   </g>
   <g id="cell117">
  <circle cx="867.458" cy="367.731" r="8.4118" stroke-width="0.5" stroke="black" fill="yellow"/>
  <circle cx="867.458" cy="367.731" r="5.05145" stroke-width="0.5" stroke="yellow" fill="yellow"/>
   </g>
   <g id="cell28">
  <circle cx="692.706" cy="115.738" r="8.92814" stroke-width="0.5" stroke="black" fill="grey"/>
  <circle cx="692.706" cy="115.738" r="5.41606" stroke-width="0.5" stroke="grey" fill="grey"/>
   </g>
   <g id="cell29">
  <circle cx="958.09" cy="652.967" r="10.5403" stroke-width="0.5" stroke="black" fill="grey"/>
  <circle cx="958.09" cy="652.967" r="6.34246" stroke-width="0.5" stroke="grey" fill="grey"/>
   </g>
   <g id="cell30">
  <circle cx="763.277" cy="126.402" r="10.1498" stroke-width="0.5" stroke="black" fill="grey"/>
  <circle cx="763.277" cy="126.402" r="6.1478" stroke-width="0.5" stroke="grey" fill="grey"/>
   </g>
   <g id="cell190">
  <circle cx="441.13" cy="136.477" r="8.41172" stroke-width="0.5" stroke="black" fill="yellow"/>
  <circle cx="441.13" cy="136.477" r="5.05142" stroke-width="0.5" stroke="yellow" fill="yellow"/>
   </g>
   <g id="cell114">
  <circle cx="55.5724" cy="360.562" r="10.5272" stroke-width="0.5" stroke="black" fill="yellow"/>
  <circle cx="55.5724" cy="360.562" r="6.33691" stroke-width="0.5" stroke="yellow" fill="yellow"/>
   </g>
   <g id="cell107">
  <circle cx="387.711" cy="500.398" r="9.19748" stroke-width="0.5" stroke="black" fill="yellow"/>
  <circle cx="387.711" cy="500.398" r="5.58941" stroke-width="0.5" stroke="yellow" fill="yellow"/>
   </g>
   <g id="cell106">
  <circle cx="35.5269" cy="902.882" r="8.63682" stroke-width="0.5" stroke="black" fill="yellow"/>
  <circle cx="35.5269" cy="902.882" r="5.22229" stroke-width="0.5" stroke="yellow" fill="yellow"/>
   </g>
   <g id="cell35">
  <circle cx="941.896" cy="58.3435" r="9.90234" stroke-width="0.5" stroke="black" fill="grey"/>
  <circle cx="941.896" cy="58.3435" r="6.01111" stroke-width="0.5" stroke="grey" fill="grey"/>
   </g>
   <g id="cell109">
  <circle cx="386.929" cy="983.166" r="10.41" stroke-width="0.5" stroke="black" fill="yellow"/>
  <circle cx="386.929" cy="983.166" r="6.28244" stroke-width="0.5" stroke="yellow" fill="yellow"/>
   </g>
   <g id="cell111">
  <circle cx="795.781" cy="421.92" r="8.41172" stroke-width="0.5" stroke="black" fill="yellow"/>
  <circle cx="795.781" cy="421.92" r="5.05142" stroke-width="0.5" stroke="yellow" fill="yellow"/>
   </g>
   <g id="cell131">
  <circle cx="652.883" cy="595.579" r="8.45941" stroke-width="0.5" stroke="black" fill="grey"/>
  <circle cx="652.883" cy="595.579" r="5.09499" stroke-width="0.5" stroke="grey" fill="grey"/>
   </g>
   <g id="cell110">
  <circle cx="903.156" cy="248.355" r="9.67326" stroke-width="0.5" stroke="black" fill="yellow"/>
  <circle cx="903.156" cy="248.355" r="5.87817" stroke-width="0.5" stroke="yellow" fill="yellow"/>
   </g>
   <g id="cell40">
  <circle cx="168.51" cy="412.987" r="8.38742" stroke-width="0.5" stroke="black" fill="red"/>
  <circle cx="168.51" cy="412.987" r="5.04283" stroke-width="0.5" stroke="red" fill="red"/>
   </g>
   <g id="cell41">
  <circle cx="689.024" cy="746.091" r="8.39135" stroke-width="0.5" stroke="black" fill="red"/>
  <circle cx="689.024" cy="746.091" r="5.04435" stroke-width="0.5" stroke="red" fill="red"/>
   </g>
   <g id="cell42">
  <circle cx="153.17" cy="734.41" r="10.5495" stroke-width="0.5" stroke="black" fill="red"/>
  <circle cx="153.17" cy="734.41" r="6.3463" stroke-width="0.5" stroke="red" fill="red"/>
   </g>
   <g id="cell43">
  <circle cx="873.104" cy="386.823" r="10.5493" stroke-width="0.5" stroke="black" fill="red"/>
  <circle cx="873.104" cy="386.823" r="6.34627" stroke-width="0.5" stroke="red" fill="red"/>
   </g>
   <g id="cell44">
  <circle cx="831.827" cy="46.2994" r="10.5522" stroke-width="0.5" stroke="black" fill="red"/>
  <circle cx="831.827" cy="46.2994" r="6.34742" stroke-width="0.5" stroke="red" fill="red"/>
   </g>
   <g id="cell45">
  <circle cx="696.231" cy="816.92" r="10.3397" stroke-width="0.5" stroke="black" fill="red"/>
  <circle cx="696.231" cy="816.92" r="6.24744" stroke-width="0.5" stroke="red" fill="red"/>
   </g>
   <g id="cell46">
  <circle cx="71.1155" cy="917.023" r="10.2727" stroke-width="0.5" stroke="black" fill="red"/>
  <circle cx="71.1155" cy="917.023" r="6.21293" stroke-width="0.5" stroke="red" fill="red"/>
   </g>
   <g id="cell47">
  <circle cx="913.074" cy="463.397" r="8.38522" stroke-width="0.5" stroke="black" fill="red"/>
  <circle cx="913.074" cy="463.397" r="5.04197" stroke-width="0.5" stroke="red" fill="red"/>
   </g>
   <g id="cell48">
  <circle cx="957.809" cy="29.3922" r="8.40015" stroke-width="0.5" stroke="black" fill="red"/>
  <circle cx="957.809" cy="29.3922" r="5.04763" stroke-width="0.5" stroke="red" fill="red"/>
   </g>
   <g id="cell49">
  <circle cx="463.664" cy="807.61" r="10.5163" stroke-width="0.5" stroke="black" fill="red"/>
  <circle cx="463.664" cy="807.61" r="6.33213" stroke-width="0.5" stroke="red" fill="red"/>
   </g>
   <g id="cell50">
  <circle cx="20.2759" cy="432.867" r="10.5584" stroke-width="0.5" stroke="black" fill="red"/>
  <circle cx="20.2759" cy="432.867" r="6.34995" stroke-width="0.5" stroke="red" fill="red"/>
   </g>
   <g id="cell51">
  <circle cx="850.947" cy="162.395" r="8.39612" stroke-width="0.5" stroke="black" fill="red"/>
  <circle cx="850.947" cy="162.395" r="5.04615" stroke-width="0.5" stroke="red" fill="red"/>
   </g>
   <g id="cell96">
  <circle cx="829.86" cy="560.479" r="10.5636" stroke-width="0.5" stroke="black" fill="yellow"/>
  <circle cx="829.86" cy="560.479" r="6.35207" stroke-width="0.5" stroke="yellow" fill="yellow"/>
   </g>
   <g id="cell53">
  <circle cx="666.652" cy="259.446" r="8.40082" stroke-width="0.5" stroke="black" fill="red"/>
  <circle cx="666.652" cy="259.446" r="5.04787" stroke-width="0.5" stroke="red" fill="red"/>
   </g>
   <g id="cell54">
  <circle cx="421.581" cy="927.843" r="8.41241" stroke-width="0.5" stroke="black" fill="red"/>
  <circle cx="421.581" cy="927.843" r="5.0516" stroke-width="0.5" stroke="red" fill="red"/>
   </g>
   <g id="cell55">
  <circle cx="198.526" cy="637.248" r="9.27139" stroke-width="0.5" stroke="black" fill="red"/>
  <circle cx="198.526" cy="637.248" r="5.63511" stroke-width="0.5" stroke="red" fill="red"/>
   </g>
   <g id="cell56">
  <circle cx="660.176" cy="842.503" r="8.39133" stroke-width="0.5" stroke="black" fill="red"/>
  <circle cx="660.176" cy="842.503" r="5.04435" stroke-width="0.5" stroke="red" fill="red"/>
   </g>
   <g id="cell57">
  <circle cx="464.197" cy="535.615" r="8.3936" stroke-width="0.5" stroke="black" fill="red"/>
  <circle cx="464.197" cy="535.615" r="5.04521" stroke-width="0.5" stroke="red" fill="red"/>
   </g>
   <g id="cell58">
  <circle cx="12.5642" cy="857.689" r="10.5616" stroke-width="0.5" stroke="black" fill="red"/>
  <circle cx="12.5642" cy="857.689" r="6.35126" stroke-width="0.5" stroke="red" fill="red"/>
   </g>
   <g id="cell59">
  <circle cx="40.8175" cy="921.781" r="8.3859" stroke-width="0.5" stroke="black" fill="red"/>
  <circle cx="40.8175" cy="921.781" r="5.04225" stroke-width="0.5" stroke="red" fill="red"/>
   </g>
   <g id="cell60">
  <circle cx="225.303" cy="30.9061" r="5.50801" stroke-width="0.5" stroke="black" fill="red"/>
  <circle cx="225.303" cy="30.9061" r="3.84617" stroke-width="0.5" stroke="black" fill="black"/>
   </g>
   <g id="cell61">
  <circle cx="786.968" cy="125.737" r="10.3809" stroke-width="0.5" stroke="black" fill="red"/>
  <circle cx="786.968" cy="125.737" r="6.2681" stroke-width="0.5" stroke="red" fill="red"/>
   </g>
   <g id="cell62">
  <circle cx="727.442" cy="811.946" r="8.38532" stroke-width="0.5" stroke="black" fill="red"/>
  <circle cx="727.442" cy="811.946" r="5.04199" stroke-width="0.5" stroke="red" fill="red"/>
   </g>
   <g id="cell63">
  <circle cx="347.992" cy="162.697" r="10.5232" stroke-width="0.5" stroke="black" fill="red"/>
  <circle cx="347.992" cy="162.697" r="6.33512" stroke-width="0.5" stroke="red" fill="red"/>
   </g>
   <g id="cell64">
  <circle cx="630.368" cy="519.991" r="8.39708" stroke-width="0.5" stroke="black" fill="red"/>
  <circle cx="630.368" cy="519.991" r="5.0465" stroke-width="0.5" stroke="red" fill="red"/>
   </g>
   <g id="cell188">
  <circle cx="868.494" cy="393.222" r="10.3985" stroke-width="0.5" stroke="black" fill="yellow"/>
  <circle cx="868.494" cy="393.222" r="6.27688" stroke-width="0.5" stroke="yellow" fill="yellow"/>
   </g>
   <g id="cell66">
  <circle cx="26.062" cy="135.965" r="10.552" stroke-width="0.5" stroke="black" fill="red"/>
  <circle cx="26.062" cy="135.965" r="6.34737" stroke-width="0.5" stroke="red" fill="red"/>
   </g>
   <g id="cell197">
  <circle cx="738.814" cy="684.874" r="9.4069" stroke-width="0.5" stroke="black" fill="yellow"/>
  <circle cx="738.814" cy="684.874" r="5.71883" stroke-width="0.5" stroke="yellow" fill="yellow"/>
   </g>
   <g id="cell68">
  <circle cx="767.442" cy="226.671" r="8.38599" stroke-width="0.5" stroke="black" fill="red"/>
  <circle cx="767.442" cy="226.671" r="5.04227" stroke-width="0.5" stroke="red" fill="red"/>
   </g>
   <g id="cell69">
  <circle cx="422.226" cy="285.062" r="9.926" stroke-width="0.5" stroke="black" fill="red"/>
  <circle cx="422.226" cy="285.062" r="6.02355" stroke-width="0.5" stroke="red" fill="red"/>
   </g>
   <g id="cell70">
  <circle cx="523.736" cy="362.668" r="10.5293" stroke-width="0.5" stroke="black" fill="red"/>
  <circle cx="523.736" cy="362.668" r="6.33778" stroke-width="0.5" stroke="red" fill="red"/>
   </g>
   <g id="cell71">
  <circle cx="927.182" cy="503.515" r="8.67823" stroke-width="0.5" stroke="black" fill="red"/>
  <circle cx="927.182" cy="503.515" r="5.25046" stroke-width="0.5" stroke="red" fill="red"/>
   </g>
   <g id="cell72">
  <circle cx="189.147" cy="912.385" r="8.39359" stroke-width="0.5" stroke="black" fill="red"/>
  <circle cx="189.147" cy="912.385" r="5.04521" stroke-width="0.5" stroke="red" fill="red"/>
   </g>
   <g id="cell73">
  <circle cx="610.267" cy="429.017" r="10.5509" stroke-width="0.5" stroke="black" fill="red"/>
  <circle cx="610.267" cy="429.017" r="6.34688" stroke-width="0.5" stroke="red" fill="red"/>
   </g>
   <g id="cell74">
  <circle cx="855.781" cy="945.476" r="10.4611" stroke-width="0.5" stroke="black" fill="red"/>
  <circle cx="855.781" cy="945.476" r="6.3069" stroke-width="0.5" stroke="red" fill="red"/>
   </g>
   <g id="cell75">
  <circle cx="119.555" cy="301.104" r="8.39251" stroke-width="0.5" stroke="black" fill="red"/>
  <circle cx="119.555" cy="301.104" r="5.0448" stroke-width="0.5" stroke="red" fill="red"/>
   </g>
   <g id="cell76">
  <circle cx="767.737" cy="419.349" r="10.4982" stroke-width="0.5" stroke="black" fill="red"/>
  <circle cx="767.737" cy="419.349" r="6.32402" stroke-width="0.5" stroke="red" fill="red"/>
   </g>
   <g id="cell77">
  <circle cx="690.668" cy="817.013" r="10.5535" stroke-width="0.5" stroke="black" fill="red"/>
  <circle cx="690.668" cy="817.013" r="6.34795" stroke-width="0.5" stroke="red" fill="red"/>
   </g>
   <g id="cell78">
  <circle cx="589.374" cy="296.277" r="10.548" stroke-width="0.5" stroke="black" fill="red"/>
  <circle cx="589.374" cy="296.277" r="6.3457" stroke-width="0.5" stroke="red" fill="red"/>
   </g>
   <g id="cell79">
  <circle cx="988.563" cy="695.307" r="10.498" stroke-width="0.5" stroke="black" fill="red"/>
  <circle cx="988.563" cy="695.307" r="6.32398" stroke-width="0.5" stroke="red" fill="red"/>
   </g>
   <g id="cell80">
  <circle cx="746.579" cy="722.452" r="10.1071" stroke-width="0.5" stroke="black" fill="yellow"/>
  <circle cx="746.579" cy="722.452" r="6.12503" stroke-width="0.5" stroke="yellow" fill="yellow"/>
   </g>
   <g id="cell81">
  <circle cx="478.944" cy="959.889" r="8.39083" stroke-width="0.5" stroke="black" fill="yellow"/>
  <circle cx="478.944" cy="959.889" r="5.04414" stroke-width="0.5" stroke="yellow" fill="yellow"/>
   </g>
   <g id="cell82">
  <circle cx="608.426" cy="393.583" r="8.44175" stroke-width="0.5" stroke="black" fill="yellow"/>
  <circle cx="608.426" cy="393.583" r="5.07827" stroke-width="0.5" stroke="yellow" fill="yellow"/>
   </g>
   <g id="cell83">
  <circle cx="592.32" cy="595.366" r="8.3852" stroke-width="0.5" stroke="black" fill="yellow"/>
  <circle cx="592.32" cy="595.366" r="5.04196" stroke-width="0.5" stroke="yellow" fill="yellow"/>
   </g>
   <g id="cell84">
  <circle cx="11.5019" cy="487.552" r="10.5089" stroke-width="0.5" stroke="black" fill="yellow"/>
  <circle cx="11.5019" cy="487.552" r="6.32885" stroke-width="0.5" stroke="yellow" fill="yellow"/>
   </g>
   <g id="cell238">
  <circle cx="153.587" cy="392.474" r="8.38742" stroke-width="0.5" stroke="black" fill="red"/>
  <circle cx="153.587" cy="392.474" r="5.04283" stroke-width="0.5" stroke="red" fill="red"/>
   </g>
   <g id="cell86">
  <circle cx="347.597" cy="416.448" r="10.2993" stroke-width="0.5" stroke="black" fill="yellow"/>
  <circle cx="347.597" cy="416.448" r="6.22684" stroke-width="0.5" stroke="yellow" fill="yellow"/>
   </g>
   <g id="cell87">
  <circle cx="793.175" cy="389.466" r="10.3473" stroke-width="0.5" stroke="black" fill="yellow"/>
  <circle cx="793.175" cy="389.466" r="6.25123" stroke-width="0.5" stroke="yellow" fill="yellow"/>
   </g>
   <g id="cell200">
  <circle cx="991.918" cy="96.2492" r="8.40683" stroke-width="0.5" stroke="black" fill="grey"/>
  <circle cx="991.918" cy="96.2492" r="5.04993" stroke-width="0.5" stroke="grey" fill="grey"/>
   </g>
   <g id="cell89">
  <circle cx="42.3243" cy="557.498" r="10.495" stroke-width="0.5" stroke="black" fill="yellow"/>
  <circle cx="42.3243" cy="557.498" r="6.32264" stroke-width="0.5" stroke="yellow" fill="yellow"/>
   </g>
   <g id="cell193">
  <circle cx="181.933" cy="671.89" r="10.3462" stroke-width="0.5" stroke="black" fill="red"/>
  <circle cx="181.933" cy="671.89" r="6.25093" stroke-width="0.5" stroke="red" fill="red"/>
   </g>
   <g id="cell91">
  <circle cx="18.3357" cy="625.678" r="10.1993" stroke-width="0.5" stroke="black" fill="yellow"/>
  <circle cx="18.3357" cy="625.678" r="6.17425" stroke-width="0.5" stroke="yellow" fill="yellow"/>
   </g>
   <g id="cell92">
  <circle cx="682.331" cy="266.377" r="10.5559" stroke-width="0.5" stroke="black" fill="yellow"/>
  <circle cx="682.331" cy="266.377" r="6.34897" stroke-width="0.5" stroke="yellow" fill="yellow"/>
   </g>
   <g id="cell93">
  <circle cx="221.58" cy="852.531" r="10.1995" stroke-width="0.5" stroke="black" fill="yellow"/>
  <circle cx="221.58" cy="852.531" r="6.17432" stroke-width="0.5" stroke="yellow" fill="yellow"/>
   </g>
   <g id="cell94">
  <circle cx="386.834" cy="95.5435" r="10.5186" stroke-width="0.5" stroke="black" fill="yellow"/>
  <circle cx="386.834" cy="95.5435" r="6.33315" stroke-width="0.5" stroke="yellow" fill="yellow"/>
   </g>
   <g id="cell95">
  <circle cx="939.255" cy="893.308" r="8.38515" stroke-width="0.5" stroke="black" fill="yellow"/>
  <circle cx="939.255" cy="893.308" r="5.04195" stroke-width="0.5" stroke="yellow" fill="yellow"/>
   </g>
   <g id="cell121">
  <circle cx="42.7662" cy="485.795" r="9.86533" stroke-width="0.5" stroke="black" fill="red"/>
  <circle cx="42.7662" cy="485.795" r="5.98893" stroke-width="0.5" stroke="red" fill="red"/>
   </g>
   <g id="cell122">
  <circle cx="691.297" cy="412.93" r="8.39828" stroke-width="0.5" stroke="black" fill="yellow"/>
  <circle cx="691.297" cy="412.93" r="5.04695" stroke-width="0.5" stroke="yellow" fill="yellow"/>
   </g>
   <g id="cell123">
  <circle cx="305.353" cy="906.601" r="10.1505" stroke-width="0.5" stroke="black" fill="yellow"/>
  <circle cx="305.353" cy="906.601" r="6.14797" stroke-width="0.5" stroke="yellow" fill="yellow"/>
   </g>
   <g id="cell124">
  <circle cx="454.249" cy="645.153" r="10.5572" stroke-width="0.5" stroke="black" fill="grey"/>
  <circle cx="454.249" cy="645.153" r="6.34948" stroke-width="0.5" stroke="grey" fill="grey"/>
   </g>
   <g id="cell125">
  <circle cx="805.388" cy="447.618" r="9.36731" stroke-width="0.5" stroke="black" fill="yellow"/>
  <circle cx="805.388" cy="447.618" r="5.69628" stroke-width="0.5" stroke="yellow" fill="yellow"/>
   </g>
   <g id="cell126">
  <circle cx="927.567" cy="186.866" r="10.5535" stroke-width="0.5" stroke="black" fill="red"/>
  <circle cx="927.567" cy="186.866" r="6.34797" stroke-width="0.5" stroke="red" fill="red"/>
   </g>
   <g id="cell127">
  <circle cx="907.432" cy="562.115" r="8.39943" stroke-width="0.5" stroke="black" fill="red"/>
  <circle cx="907.432" cy="562.115" r="5.04737" stroke-width="0.5" stroke="red" fill="red"/>
   </g>
   <g id="cell128">
  <circle cx="931.023" cy="34.2545" r="10.542" stroke-width="0.5" stroke="black" fill="red"/>
  <circle cx="931.023" cy="34.2545" r="6.34316" stroke-width="0.5" stroke="red" fill="red"/>
   </g>
   <g id="cell129">
  <circle cx="981.032" cy="676.633" r="1.89221" stroke-width="0.5" stroke="black" fill="grey"/>
  <circle cx="981.032" cy="676.633" r="1.86692" stroke-width="0.5" stroke="black" fill="black"/>
   </g>
   <g id="cell130">
  <circle cx="941.363" cy="598.126" r="8.41256" stroke-width="0.5" stroke="black" fill="yellow"/>
  <circle cx="941.363" cy="598.126" r="5.05164" stroke-width="0.5" stroke="yellow" fill="yellow"/>
   </g>
   <g id="cell132">
  <circle cx="61.5909" cy="932.821" r="8.39013" stroke-width="0.5" stroke="black" fill="red"/>
  <circle cx="61.5909" cy="932.821" r="5.04388" stroke-width="0.5" stroke="red" fill="red"/>
   </g>
   <g id="cell133">
  <circle cx="654.878" cy="383.95" r="10.5011" stroke-width="0.5" stroke="black" fill="red"/>
  <circle cx="654.878" cy="383.95" r="6.32532" stroke-width="0.5" stroke="red" fill="red"/>
   </g>
   <g id="cell201">
  <circle cx="497.071" cy="613.867" r="9.58619" stroke-width="0.5" stroke="black" fill="grey"/>
  <circle cx="497.071" cy="613.867" r="5.82785" stroke-width="0.5" stroke="grey" fill="grey"/>
   </g>
   <g id="cell136">
  <circle cx="680.203" cy="483.233" r="10.5572" stroke-width="0.5" stroke="black" fill="red"/>
  <circle cx="680.203" cy="483.233" r="6.34948" stroke-width="0.5" stroke="red" fill="red"/>
   </g>
   <g id="cell137">
  <circle cx="767.084" cy="666.346" r="10.4353" stroke-width="0.5" stroke="black" fill="yellow"/>
  <circle cx="767.084" cy="666.346" r="6.29467" stroke-width="0.5" stroke="yellow" fill="yellow"/>
   </g>
   <g id="cell138">
  <circle cx="699.972" cy="254.018" r="8.41999" stroke-width="0.5" stroke="black" fill="red"/>
  <circle cx="699.972" cy="254.018" r="5.0615" stroke-width="0.5" stroke="red" fill="red"/>
   </g>
   <g id="cell139">
  <circle cx="794.853" cy="734.626" r="9.964" stroke-width="0.5" stroke="black" fill="yellow"/>
  <circle cx="794.853" cy="734.626" r="6.04496" stroke-width="0.5" stroke="yellow" fill="yellow"/>
   </g>
   <g id="cell140">
  <circle cx="100.158" cy="353.267" r="8.46982" stroke-width="0.5" stroke="black" fill="red"/>
  <circle cx="100.158" cy="353.267" r="5.09892" stroke-width="0.5" stroke="red" fill="red"/>
   </g>
   <g id="cell141">
  <circle cx="18.9367" cy="983.399" r="9.07403" stroke-width="0.5" stroke="black" fill="yellow"/>
  <circle cx="18.9367" cy="983.399" r="5.51405" stroke-width="0.5" stroke="yellow" fill="yellow"/>
   </g>
   <g id="cell142">
  <circle cx="695.997" cy="689.374" r="8.41254" stroke-width="0.5" stroke="black" fill="red"/>
  <circle cx="695.997" cy="689.374" r="5.05163" stroke-width="0.5" stroke="red" fill="red"/>
   </g>
   <g id="cell143">
  <circle cx="112.725" cy="714.376" r="10.381" stroke-width="0.5" stroke="black" fill="red"/>
  <circle cx="112.725" cy="714.376" r="6.26812" stroke-width="0.5" stroke="red" fill="red"/>
   </g>
   <g id="cell144">
  <circle cx="657.157" cy="147.116" r="8.39251" stroke-width="0.5" stroke="black" fill="grey"/>
  <circle cx="657.157" cy="147.116" r="5.0448" stroke-width="0.5" stroke="grey" fill="grey"/>
   </g>
   <g id="cell145">
  <circle cx="556.866" cy="508.094" r="10.2727" stroke-width="0.5" stroke="black" fill="red"/>
  <circle cx="556.866" cy="508.094" r="6.21293" stroke-width="0.5" stroke="red" fill="red"/>
   </g>
   <g id="cell146">
  <circle cx="293.666" cy="192.689" r="8.38947" stroke-width="0.5" stroke="black" fill="red"/>
  <circle cx="293.666" cy="192.689" r="5.04363" stroke-width="0.5" stroke="red" fill="red"/>
   </g>
   <g id="cell147">
  <circle cx="676.183" cy="384.472" r="10.4488" stroke-width="0.5" stroke="black" fill="yellow"/>
  <circle cx="676.183" cy="384.472" r="6.30109" stroke-width="0.5" stroke="yellow" fill="yellow"/>
   </g>
   <g id="cell148">
  <circle cx="235.367" cy="758.201" r="9.18839" stroke-width="0.5" stroke="black" fill="grey"/>
  <circle cx="235.367" cy="758.201" r="5.58613" stroke-width="0.5" stroke="grey" fill="grey"/>
   </g>
   <g id="cell149">
  <circle cx="869.927" cy="465.355" r="8.39608" stroke-width="0.5" stroke="black" fill="red"/>
  <circle cx="869.927" cy="465.355" r="5.04614" stroke-width="0.5" stroke="red" fill="red"/>
   </g>
   <g id="cell150">
  <circle cx="180.871" cy="44.3407" r="10.5368" stroke-width="0.5" stroke="black" fill="yellow"/>
  <circle cx="180.871" cy="44.3407" r="6.341" stroke-width="0.5" stroke="yellow" fill="yellow"/>
   </g>
   <g id="cell151">
  <circle cx="206.967" cy="890.508" r="10.4982" stroke-width="0.5" stroke="black" fill="red"/>
  <circle cx="206.967" cy="890.508" r="6.32403" stroke-width="0.5" stroke="red" fill="red"/>
   </g>
   <g id="cell152">
  <circle cx="603.728" cy="871.367" r="8.71052" stroke-width="0.5" stroke="black" fill="red"/>
  <circle cx="603.728" cy="871.367" r="5.27509" stroke-width="0.5" stroke="red" fill="red"/>
   </g>
   <g id="cell154">
  <circle cx="885.46" cy="25.2775" r="10.5332" stroke-width="0.5" stroke="black" fill="red"/>
  <circle cx="885.46" cy="25.2775" r="6.33945" stroke-width="0.5" stroke="red" fill="red"/>
   </g>
   <g id="cell155">
  <circle cx="657.458" cy="880.34" r="8.39132" stroke-width="0.5" stroke="black" fill="red"/>
  <circle cx="657.458" cy="880.34" r="5.04435" stroke-width="0.5" stroke="red" fill="red"/>
   </g>
   <g id="cell156">
  <circle cx="886.715" cy="511.462" r="1.79095" stroke-width="0.5" stroke="black" fill="grey"/>
  <circle cx="886.715" cy="511.462" r="1.77285" stroke-width="0.5" stroke="black" fill="black"/>
   </g>
   <g id="cell157">
  <circle cx="608.796" cy="647.44" r="10.5273" stroke-width="0.5" stroke="black" fill="yellow"/>
  <circle cx="608.796" cy="647.44" r="6.33693" stroke-width="0.5" stroke="yellow" fill="yellow"/>
   </g>
   <g id="cell198">
  <circle cx="70.3996" cy="415.456" r="10.0138" stroke-width="0.5" stroke="black" fill="yellow"/>
  <circle cx="70.3996" cy="415.456" r="6.07363" stroke-width="0.5" stroke="yellow" fill="yellow"/>
   </g>
   <g id="cell159">
  <circle cx="694.95" cy="272.755" r="10.4953" stroke-width="0.5" stroke="black" fill="yellow"/>
  <circle cx="694.95" cy="272.755" r="6.32271" stroke-width="0.5" stroke="yellow" fill="yellow"/>
   </g>
   <g id="cell160">
  <circle cx="637.411" cy="307.829" r="10.535" stroke-width="0.5" stroke="black" fill="red"/>
  <circle cx="637.411" cy="307.829" r="6.34023" stroke-width="0.5" stroke="red" fill="red"/>
   </g>
   <g id="cell199">
  <circle cx="820.057" cy="853.929" r="8.4076" stroke-width="0.5" stroke="black" fill="yellow"/>
  <circle cx="820.057" cy="853.929" r="5.05018" stroke-width="0.5" stroke="yellow" fill="yellow"/>
   </g>
   <g id="cell162">
  <circle cx="850.174" cy="81.904" r="8.39129" stroke-width="0.5" stroke="black" fill="red"/>
  <circle cx="850.174" cy="81.904" r="5.04434" stroke-width="0.5" stroke="red" fill="red"/>
   </g>
   <g id="cell163">
  <circle cx="420.962" cy="965.997" r="8.39006" stroke-width="0.5" stroke="black" fill="red"/>
  <circle cx="420.962" cy="965.997" r="5.04387" stroke-width="0.5" stroke="red" fill="red"/>
   </g>
   <g id="cell164">
  <circle cx="813.51" cy="971.246" r="10.3613" stroke-width="0.5" stroke="black" fill="red"/>
  <circle cx="813.51" cy="971.246" r="6.25829" stroke-width="0.5" stroke="red" fill="red"/>
   </g>
   <g id="cell165">
  <circle cx="826.016" cy="389.485" r="8.38941" stroke-width="0.5" stroke="black" fill="red"/>
  <circle cx="826.016" cy="389.485" r="5.04362" stroke-width="0.5" stroke="red" fill="red"/>
   </g>
   <g id="cell166">
  <circle cx="759.973" cy="486.08" r="8.38874" stroke-width="0.5" stroke="black" fill="yellow"/>
  <circle cx="759.973" cy="486.08" r="5.04336" stroke-width="0.5" stroke="yellow" fill="yellow"/>
   </g>
   <g id="cell167">
  <circle cx="602.234" cy="122.923" r="10.514" stroke-width="0.5" stroke="black" fill="yellow"/>
  <circle cx="602.234" cy="122.923" r="6.33109" stroke-width="0.5" stroke="yellow" fill="yellow"/>
   </g>
   <g id="cell168">
  <circle cx="918.859" cy="880.912" r="10.5583" stroke-width="0.5" stroke="black" fill="yellow"/>
  <circle cx="918.859" cy="880.912" r="6.34992" stroke-width="0.5" stroke="yellow" fill="yellow"/>
   </g>
   <g id="cell169">
  <circle cx="324.884" cy="979.919" r="10.5494" stroke-width="0.5" stroke="black" fill="yellow"/>
  <circle cx="324.884" cy="979.919" r="6.34628" stroke-width="0.5" stroke="yellow" fill="yellow"/>
   </g>
   <g id="cell170">
  <circle cx="36.0146" cy="985.151" r="9.88604" stroke-width="0.5" stroke="black" fill="red"/>
  <circle cx="36.0146" cy="985.151" r="6.00081" stroke-width="0.5" stroke="red" fill="red"/>
   </g>
   <g id="cell171">
  <circle cx="506.963" cy="381.483" r="10.5521" stroke-width="0.5" stroke="black" fill="red"/>
  <circle cx="506.963" cy="381.483" r="6.3474" stroke-width="0.5" stroke="red" fill="red"/>
   </g>
   <g id="cell172">
  <circle cx="463.468" cy="799.898" r="10.5547" stroke-width="0.5" stroke="black" fill="red"/>
  <circle cx="463.468" cy="799.898" r="6.34845" stroke-width="0.5" stroke="red" fill="red"/>
   </g>
   <g id="cell173">
  <circle cx="985.688" cy="435.358" r="10.1756" stroke-width="0.5" stroke="black" fill="red"/>
  <circle cx="985.688" cy="435.358" r="6.16153" stroke-width="0.5" stroke="red" fill="red"/>
   </g>
   <g id="cell174">
  <circle cx="359.1" cy="111.077" r="10.0167" stroke-width="0.5" stroke="black" fill="yellow"/>
  <circle cx="359.1" cy="111.077" r="6.07451" stroke-width="0.5" stroke="yellow" fill="yellow"/>
   </g>
   <g id="cell175">
  <circle cx="34.744" cy="297.707" r="10.5582" stroke-width="0.5" stroke="black" fill="yellow"/>
  <circle cx="34.744" cy="297.707" r="6.34991" stroke-width="0.5" stroke="yellow" fill="yellow"/>
   </g>
   <g id="cell178">
  <circle cx="75.2084" cy="168.774" r="10.5464" stroke-width="0.5" stroke="black" fill="red"/>
  <circle cx="75.2084" cy="168.774" r="6.34505" stroke-width="0.5" stroke="red" fill="red"/>
   </g>
   <g id="cell179">
  <circle cx="18.3655" cy="499.044" r="10.4099" stroke-width="0.5" stroke="black" fill="yellow"/>
  <circle cx="18.3655" cy="499.044" r="6.28242" stroke-width="0.5" stroke="yellow" fill="yellow"/>
   </g>
   <g id="cell180">
  <circle cx="32.9719" cy="707.421" r="8.41219" stroke-width="0.5" stroke="black" fill="yellow"/>
  <circle cx="32.9719" cy="707.421" r="5.05155" stroke-width="0.5" stroke="yellow" fill="yellow"/>
   </g>
   <g id="cell181">
  <circle cx="978.427" cy="680.507" r="9.27244" stroke-width="0.5" stroke="black" fill="red"/>
  <circle cx="978.427" cy="680.507" r="5.63543" stroke-width="0.5" stroke="red" fill="red"/>
   </g>
   <g id="cell182">
  <circle cx="496.029" cy="940.326" r="8.41214" stroke-width="0.5" stroke="black" fill="yellow"/>
  <circle cx="496.029" cy="940.326" r="5.05154" stroke-width="0.5" stroke="yellow" fill="yellow"/>
   </g>
   <g id="cell183">
  <circle cx="645.875" cy="864.538" r="8.41214" stroke-width="0.5" stroke="black" fill="red"/>
  <circle cx="645.875" cy="864.538" r="5.05154" stroke-width="0.5" stroke="red" fill="red"/>
   </g>
   <g id="cell187">
  <circle cx="279.952" cy="424.729" r="10.354" stroke-width="0.5" stroke="black" fill="yellow"/>
  <circle cx="279.952" cy="424.729" r="6.25471" stroke-width="0.5" stroke="yellow" fill="yellow"/>
   </g>
   <g id="cell189">
  <circle cx="790.903" cy="406.684" r="10.479" stroke-width="0.5" stroke="black" fill="yellow"/>
  <circle cx="790.903" cy="406.684" r="6.31532" stroke-width="0.5" stroke="yellow" fill="yellow"/>
   </g>
   <g id="cell194">
  <circle cx="99.8986" cy="151.092" r="10.2979" stroke-width="0.5" stroke="black" fill="yellow"/>
  <circle cx="99.8986" cy="151.092" r="6.22643" stroke-width="0.5" stroke="yellow" fill="yellow"/>
   </g>
   <g id="cell195">
  <circle cx="389.142" cy="442.187" r="10.0632" stroke-width="0.5" stroke="black" fill="yellow"/>
  <circle cx="389.142" cy="442.187" r="6.1008" stroke-width="0.5" stroke="yellow" fill="yellow"/>
   </g>
   <g id="cell196">
  <circle cx="910.656" cy="283.442" r="8.72488" stroke-width="0.5" stroke="black" fill="yellow"/>
  <circle cx="910.656" cy="283.442" r="5.28032" stroke-width="0.5" stroke="yellow" fill="yellow"/>
   </g>
   <g id="cell202">
  <circle cx="104.844" cy="844.534" r="8.40177" stroke-width="0.5" stroke="black" fill="yellow"/>
  <circle cx="104.844" cy="844.534" r="5.04821" stroke-width="0.5" stroke="yellow" fill="yellow"/>
   </g>
   <g id="cell203">
  <circle cx="854.06" cy="454.706" r="8.64004" stroke-width="0.5" stroke="black" fill="yellow"/>
  <circle cx="854.06" cy="454.706" r="5.22348" stroke-width="0.5" stroke="yellow" fill="yellow"/>
   </g>
   <g id="cell204">
  <circle cx="908.719" cy="490.867" r="9.29856" stroke-width="0.5" stroke="black" fill="red"/>
  <circle cx="908.719" cy="490.867" r="5.6541" stroke-width="0.5" stroke="red" fill="red"/>
   </g>
   <g id="cell205">
  <circle cx="664.355" cy="282.624" r="8.40082" stroke-width="0.5" stroke="black" fill="red"/>
  <circle cx="664.355" cy="282.624" r="5.04787" stroke-width="0.5" stroke="red" fill="red"/>
   </g>
   <g id="cell206">
  <circle cx="959.353" cy="15.9587" r="8.40015" stroke-width="0.5" stroke="black" fill="red"/>
  <circle cx="959.353" cy="15.9587" r="5.04763" stroke-width="0.5" stroke="red" fill="red"/>
   </g>
   <g id="cell207">
  <circle cx="728.838" cy="264.686" r="8.56647" stroke-width="0.5" stroke="black" fill="red"/>
  <circle cx="728.838" cy="264.686" r="5.17063" stroke-width="0.5" stroke="red" fill="red"/>
   </g>
   <g id="cell208">
  <circle cx="68.464" cy="368.108" r="8.39942" stroke-width="0.5" stroke="black" fill="red"/>
  <circle cx="68.464" cy="368.108" r="5.04736" stroke-width="0.5" stroke="red" fill="red"/>
   </g>
   <g id="cell209">
  <circle cx="919.644" cy="573.547" r="8.39943" stroke-width="0.5" stroke="black" fill="red"/>
  <circle cx="919.644" cy="573.547" r="5.04737" stroke-width="0.5" stroke="red" fill="red"/>
   </g>
   <g id="cell210">
  <circle cx="740.325" cy="459.83" r="8.39944" stroke-width="0.5" stroke="black" fill="yellow"/>
  <circle cx="740.325" cy="459.83" r="5.04737" stroke-width="0.5" stroke="yellow" fill="yellow"/>
   </g>
   <g id="cell212">
  <circle cx="198.795" cy="722.119" r="8.49878" stroke-width="0.5" stroke="black" fill="grey"/>
  <circle cx="198.795" cy="722.119" r="5.12099" stroke-width="0.5" stroke="grey" fill="grey"/>
   </g>
   <g id="cell213">
  <circle cx="15.866" cy="989.742" r="8.39826" stroke-width="0.5" stroke="black" fill="yellow"/>
  <circle cx="15.866" cy="989.742" r="5.04694" stroke-width="0.5" stroke="yellow" fill="yellow"/>
   </g>
   <g id="cell214">
  <circle cx="728.986" cy="434.982" r="8.39828" stroke-width="0.5" stroke="black" fill="yellow"/>
  <circle cx="728.986" cy="434.982" r="5.04695" stroke-width="0.5" stroke="yellow" fill="yellow"/>
   </g>
   <g id="cell215">
  <circle cx="623.768" cy="396.286" r="8.39824" stroke-width="0.5" stroke="black" fill="yellow"/>
  <circle cx="623.768" cy="396.286" r="5.04694" stroke-width="0.5" stroke="yellow" fill="yellow"/>
   </g>
   <g id="cell216">
  <circle cx="26.1151" cy="915.193" r="8.39743" stroke-width="0.5" stroke="black" fill="yellow"/>
  <circle cx="26.1151" cy="915.193" r="5.04664" stroke-width="0.5" stroke="yellow" fill="yellow"/>
   </g>
   <g id="cell217">
  <circle cx="605.418" cy="538.64" r="8.39708" stroke-width="0.5" stroke="black" fill="red"/>
  <circle cx="605.418" cy="538.64" r="5.0465" stroke-width="0.5" stroke="red" fill="red"/>
   </g>
   <g id="cell218">
  <circle cx="860.086" cy="154.036" r="8.95372" stroke-width="0.5" stroke="black" fill="red"/>
  <circle cx="860.086" cy="154.036" r="5.43713" stroke-width="0.5" stroke="red" fill="red"/>
   </g>
   <g id="cell219">
  <circle cx="848.174" cy="423.19" r="8.59839" stroke-width="0.5" stroke="black" fill="red"/>
  <circle cx="848.174" cy="423.19" r="5.1952" stroke-width="0.5" stroke="red" fill="red"/>
   </g>
   <g id="cell220">
  <circle cx="834.987" cy="466.279" r="8.3941" stroke-width="0.5" stroke="black" fill="grey"/>
  <circle cx="834.987" cy="466.279" r="5.0454" stroke-width="0.5" stroke="grey" fill="grey"/>
   </g>
   <g id="cell221">
  <circle cx="177.738" cy="926.834" r="8.39359" stroke-width="0.5" stroke="black" fill="red"/>
  <circle cx="177.738" cy="926.834" r="5.04521" stroke-width="0.5" stroke="red" fill="red"/>
   </g>
   <g id="cell222">
  <circle cx="470.476" cy="514.698" r="8.4641" stroke-width="0.5" stroke="black" fill="red"/>
  <circle cx="470.476" cy="514.698" r="5.09679" stroke-width="0.5" stroke="red" fill="red"/>
   </g>
   <g id="cell223">
  <circle cx="603.546" cy="843.124" r="8.39359" stroke-width="0.5" stroke="black" fill="red"/>
  <circle cx="603.546" cy="843.124" r="5.04521" stroke-width="0.5" stroke="red" fill="red"/>
   </g>
   <g id="cell224">
  <circle cx="94.0396" cy="297.77" r="8.39251" stroke-width="0.5" stroke="black" fill="red"/>
  <circle cx="94.0396" cy="297.77" r="5.0448" stroke-width="0.5" stroke="red" fill="red"/>
   </g>
   <g id="cell225">
  <circle cx="203.502" cy="381.158" r="8.39249" stroke-width="0.5" stroke="black" fill="red"/>
  <circle cx="203.502" cy="381.158" r="5.04479" stroke-width="0.5" stroke="red" fill="red"/>
   </g>
   <g id="cell226">
  <circle cx="648.876" cy="146.608" r="8.39251" stroke-width="0.5" stroke="black" fill="grey"/>
  <circle cx="648.876" cy="146.608" r="5.0448" stroke-width="0.5" stroke="grey" fill="grey"/>
   </g>
   <g id="cell227">
  <circle cx="649.715" cy="826.631" r="8.39133" stroke-width="0.5" stroke="black" fill="red"/>
  <circle cx="649.715" cy="826.631" r="5.04435" stroke-width="0.5" stroke="red" fill="red"/>
   </g>
   <g id="cell228">
  <circle cx="646.362" cy="882.789" r="8.39132" stroke-width="0.5" stroke="black" fill="red"/>
  <circle cx="646.362" cy="882.789" r="5.04435" stroke-width="0.5" stroke="red" fill="red"/>
   </g>
   <g id="cell229">
  <circle cx="838.986" cy="98.3541" r="8.39129" stroke-width="0.5" stroke="black" fill="red"/>
  <circle cx="838.986" cy="98.3541" r="5.04434" stroke-width="0.5" stroke="red" fill="red"/>
   </g>
   <g id="cell230">
  <circle cx="689.522" cy="767.399" r="8.39135" stroke-width="0.5" stroke="black" fill="red"/>
  <circle cx="689.522" cy="767.399" r="5.04435" stroke-width="0.5" stroke="red" fill="red"/>
   </g>
   <g id="cell232">
  <circle cx="57.3541" cy="926.195" r="8.39013" stroke-width="0.5" stroke="black" fill="red"/>
  <circle cx="57.3541" cy="926.195" r="5.04388" stroke-width="0.5" stroke="red" fill="red"/>
   </g>
   <g id="cell233">
  <circle cx="418.003" cy="948.895" r="8.39006" stroke-width="0.5" stroke="black" fill="red"/>
  <circle cx="418.003" cy="948.895" r="5.04387" stroke-width="0.5" stroke="red" fill="red"/>
   </g>
   <g id="cell234">
  <circle cx="826.626" cy="382.905" r="8.38941" stroke-width="0.5" stroke="black" fill="red"/>
  <circle cx="826.626" cy="382.905" r="5.04362" stroke-width="0.5" stroke="red" fill="red"/>
   </g>
   <g id="cell235">
  <circle cx="288.156" cy="219.43" r="8.38947" stroke-width="0.5" stroke="black" fill="red"/>
  <circle cx="288.156" cy="219.43" r="5.04363" stroke-width="0.5" stroke="red" fill="red"/>
   </g>
   <g id="cell236">
  <circle cx="764.248" cy="518.916" r="8.38874" stroke-width="0.5" stroke="black" fill="yellow"/>
  <circle cx="764.248" cy="518.916" r="5.04336" stroke-width="0.5" stroke="yellow" fill="yellow"/>
   </g>
   <g id="cell239">
  <circle cx="45.7014" cy="928.847" r="8.3859" stroke-width="0.5" stroke="black" fill="red"/>
  <circle cx="45.7014" cy="928.847" r="5.04225" stroke-width="0.5" stroke="red" fill="red"/>
   </g>
   <g id="cell240">
  <circle cx="770.233" cy="239.617" r="8.38599" stroke-width="0.5" stroke="black" fill="red"/>
  <circle cx="770.233" cy="239.617" r="5.04227" stroke-width="0.5" stroke="red" fill="red"/>
   </g>
   <g id="cell241">
  <circle cx="580.329" cy="579.884" r="8.3852" stroke-width="0.5" stroke="black" fill="yellow"/>
  <circle cx="580.329" cy="579.884" r="5.04196" stroke-width="0.5" stroke="yellow" fill="yellow"/>
   </g>
   <g id="cell242">
  <circle cx="738.626" cy="813.897" r="8.38532" stroke-width="0.5" stroke="black" fill="red"/>
  <circle cx="738.626" cy="813.897" r="5.04199" stroke-width="0.5" stroke="red" fill="red"/>
   </g>
   <g id="cell243">
  <circle cx="952.823" cy="895.786" r="8.38515" stroke-width="0.5" stroke="black" fill="yellow"/>
  <circle cx="952.823" cy="895.786" r="5.04195" stroke-width="0.5" stroke="yellow" fill="yellow"/>
   </g>
   <g id="cell244">
  <circle cx="895.179" cy="455.75" r="8.38522" stroke-width="0.5" stroke="black" fill="red"/>
  <circle cx="895.179" cy="455.75" r="5.04197" stroke-width="0.5" stroke="red" fill="red"/>
   </g>
  </g>
 </g>
  <rect x="775" y="1035" width="200" height="10" stroke-width="2" stroke="rgb(255,255,255)" fill="rgb(0,0,0)"/>
  <text x="781.25" y="1028.75"
   font-family="Arial" font-size="25" fill="black" >
   200 &#956;m
  </text>
  <text x="25" y="1045"
   font-family="Arial" font-size="18.75" fill="black" >
   0 days, 0 hours, 2 minutes, and 34.8209 seconds
  </text>
  <rect x="0" y="70" width="1000" height="1000" stroke-width="2" stroke="rgb(0,0,0)" fill="none"/>
</svg>
