<?xml version="1.0" encoding="UTF-8" standalone="no"?>
<!-- Created with PhysiCell (http://PhysiCell.MathCancer.org/) -->
<svg 
 xmlns:dc="http://purl.org/dc/elements/1.1/" 
 xmlns:cc="http://creativecommons.org/ns#" 
 xmlns:rdf="http://www.w3.org/1999/02/22-rdf-syntax-ns#" 
 xmlns:svg="http://www.w3.org/2000/svg" 
 xmlns="http://www.w3.org/2000/svg" 
 version="1.1" 
 width="1000" 
 height="1070" 
 id="svg2">
  <rect x="0" y="0" width="1000" height="1070" stroke-width="2" stroke="white" fill="white"/>
  <text x="12.5" y="30"
   font-family="Arial" font-size="25" fill="black" >
   Current time: 0 days, 8 hours, and 0.00 minutes, z = 0.00 &#956;m
  </text>
  <text x="12.5" y="57.5"
   font-family="Arial" font-size="23.75" fill="black" >
   120 agents
  </text>
 <g id="tissue" 
    transform="translate(0,1070) scale(1,-1)">
  <g id="ECM">
  </g>
  <g id="cells">
   <g id="cell0">
  <circle cx="522.821" cy="572.376" r="10.3084" stroke-width="0.5" stroke="black" fill="grey"/>
  <circle cx="522.821" cy="572.376" r="6.23137" stroke-width="0.5" stroke="grey" fill="grey"/>
   </g>
   <g id="cell1">
  <circle cx="839.837" cy="610.74" r="1.34721" stroke-width="0.5" stroke="black" fill="grey"/>
  <circle cx="839.837" cy="610.74" r="1.33735" stroke-width="0.5" stroke="black" fill="black"/>
   </g>
   <g id="cell2">
  <circle cx="550.341" cy="824.071" r="2.9939" stroke-width="0.5" stroke="black" fill="grey"/>
  <circle cx="550.341" cy="824.071" r="2.676" stroke-width="0.5" stroke="black" fill="black"/>
   </g>
   <g id="cell3">
  <circle cx="614.622" cy="630.65" r="10.2433" stroke-width="0.5" stroke="black" fill="grey"/>
  <circle cx="614.622" cy="630.65" r="6.19748" stroke-width="0.5" stroke="grey" fill="grey"/>
   </g>
   <g id="cell4">
  <circle cx="415.352" cy="304.555" r="2.34188" stroke-width="0.5" stroke="black" fill="grey"/>
  <circle cx="415.352" cy="304.555" r="2.12529" stroke-width="0.5" stroke="black" fill="black"/>
   </g>
   <g id="cell5">
  <circle cx="75.5167" cy="967.659" r="8.55595" stroke-width="0.5" stroke="black" fill="grey"/>
  <circle cx="75.5167" cy="967.659" r="5.26371" stroke-width="0.5" stroke="black" fill="black"/>
   </g>
   <g id="cell6">
  <circle cx="386.994" cy="482.608" r="10.3247" stroke-width="0.5" stroke="black" fill="grey"/>
  <circle cx="386.994" cy="482.608" r="6.23971" stroke-width="0.5" stroke="grey" fill="grey"/>
   </g>
   <g id="cell7">
  <circle cx="827.242" cy="545.511" r="10.0169" stroke-width="0.5" stroke="black" fill="grey"/>
  <circle cx="827.242" cy="545.511" r="6.07458" stroke-width="0.5" stroke="grey" fill="grey"/>
   </g>
   <g id="cell8">
  <circle cx="589.333" cy="415.451" r="9.84395" stroke-width="0.5" stroke="black" fill="grey"/>
  <circle cx="589.333" cy="415.451" r="5.97665" stroke-width="0.5" stroke="grey" fill="grey"/>
   </g>
   <g id="cell9">
  <circle cx="847.148" cy="85.0327" r="1.56818" stroke-width="0.5" stroke="black" fill="grey"/>
  <circle cx="847.148" cy="85.0327" r="1.54219" stroke-width="0.5" stroke="black" fill="black"/>
   </g>
   <g id="cell10">
  <circle cx="133.68" cy="635.074" r="10.1238" stroke-width="0.5" stroke="black" fill="grey"/>
  <circle cx="133.68" cy="635.074" r="6.13347" stroke-width="0.5" stroke="grey" fill="grey"/>
   </g>
   <g id="cell11">
  <circle cx="332.396" cy="846.946" r="9.44256" stroke-width="0.5" stroke="black" fill="grey"/>
  <circle cx="332.396" cy="846.946" r="5.73955" stroke-width="0.5" stroke="grey" fill="grey"/>
   </g>
   <g id="cell12">
  <circle cx="782.392" cy="134.503" r="2.2615" stroke-width="0.5" stroke="black" fill="grey"/>
  <circle cx="782.392" cy="134.503" r="2.07535" stroke-width="0.5" stroke="black" fill="black"/>
   </g>
   <g id="cell13">
  <circle cx="880.851" cy="956.12" r="2.51527" stroke-width="0.5" stroke="black" fill="grey"/>
  <circle cx="880.851" cy="956.12" r="2.27421" stroke-width="0.5" stroke="black" fill="black"/>
   </g>
   <g id="cell14">
  <circle cx="838.103" cy="829.667" r="3.47862" stroke-width="0.5" stroke="black" fill="grey"/>
  <circle cx="838.103" cy="829.667" r="2.91624" stroke-width="0.5" stroke="black" fill="black"/>
   </g>
   <g id="cell15">
  <circle cx="525.275" cy="767.583" r="3.5297" stroke-width="0.5" stroke="black" fill="grey"/>
  <circle cx="525.275" cy="767.583" r="2.93103" stroke-width="0.5" stroke="black" fill="black"/>
   </g>
   <g id="cell16">
  <circle cx="155.42" cy="726.608" r="10.1098" stroke-width="0.5" stroke="black" fill="grey"/>
  <circle cx="155.42" cy="726.608" r="6.12585" stroke-width="0.5" stroke="grey" fill="grey"/>
   </g>
   <g id="cell17">
  <circle cx="576.613" cy="145.199" r="1.52812" stroke-width="0.5" stroke="black" fill="grey"/>
  <circle cx="576.613" cy="145.199" r="1.50599" stroke-width="0.5" stroke="black" fill="black"/>
   </g>
   <g id="cell18">
  <circle cx="937.363" cy="701.706" r="8.61424" stroke-width="0.5" stroke="black" fill="grey"/>
  <circle cx="937.363" cy="701.706" r="5.20061" stroke-width="0.5" stroke="grey" fill="grey"/>
   </g>
   <g id="cell19">
  <circle cx="91.6991" cy="418.138" r="2.5212" stroke-width="0.5" stroke="black" fill="grey"/>
  <circle cx="91.6991" cy="418.138" r="2.26402" stroke-width="0.5" stroke="black" fill="black"/>
   </g>
   <g id="cell20">
  <circle cx="235.233" cy="175.932" r="9.53557" stroke-width="0.5" stroke="black" fill="grey"/>
  <circle cx="235.233" cy="175.932" r="5.79561" stroke-width="0.5" stroke="grey" fill="grey"/>
   </g>
   <g id="cell21">
  <circle cx="724.733" cy="441.273" r="2.72971" stroke-width="0.5" stroke="black" fill="grey"/>
  <circle cx="724.733" cy="441.273" r="2.33853" stroke-width="0.5" stroke="black" fill="black"/>
   </g>
   <g id="cell22">
  <circle cx="565.337" cy="126.183" r="1.41604" stroke-width="0.5" stroke="black" fill="grey"/>
  <circle cx="565.337" cy="126.183" r="1.40242" stroke-width="0.5" stroke="black" fill="black"/>
   </g>
   <g id="cell23">
  <circle cx="303.9" cy="607.146" r="2.21041" stroke-width="0.5" stroke="black" fill="grey"/>
  <circle cx="303.9" cy="607.146" r="2.12204" stroke-width="0.5" stroke="black" fill="black"/>
   </g>
   <g id="cell24">
  <circle cx="612.245" cy="227.978" r="10.2728" stroke-width="0.5" stroke="black" fill="grey"/>
  <circle cx="612.245" cy="227.978" r="6.21295" stroke-width="0.5" stroke="grey" fill="grey"/>
   </g>
   <g id="cell25">
  <circle cx="391.324" cy="976.029" r="2.23106" stroke-width="0.5" stroke="black" fill="grey"/>
  <circle cx="391.324" cy="976.029" r="2.06954" stroke-width="0.5" stroke="black" fill="black"/>
   </g>
   <g id="cell26">
  <circle cx="648.94" cy="473.818" r="10.2328" stroke-width="0.5" stroke="black" fill="grey"/>
  <circle cx="648.94" cy="473.818" r="6.19197" stroke-width="0.5" stroke="grey" fill="grey"/>
   </g>
   <g id="cell27">
  <circle cx="601.791" cy="449.353" r="1.36402" stroke-width="0.5" stroke="black" fill="grey"/>
  <circle cx="601.791" cy="449.353" r="1.35333" stroke-width="0.5" stroke="black" fill="black"/>
   </g>
   <g id="cell28">
  <circle cx="680.276" cy="134.76" r="10.1634" stroke-width="0.5" stroke="black" fill="grey"/>
  <circle cx="680.276" cy="134.76" r="6.1549" stroke-width="0.5" stroke="grey" fill="grey"/>
   </g>
   <g id="cell29">
  <circle cx="975.585" cy="657.12" r="10.2534" stroke-width="0.5" stroke="black" fill="grey"/>
  <circle cx="975.585" cy="657.12" r="6.2028" stroke-width="0.5" stroke="grey" fill="grey"/>
   </g>
   <g id="cell30">
  <circle cx="729.625" cy="164.971" r="8.41271" stroke-width="0.5" stroke="black" fill="grey"/>
  <circle cx="729.625" cy="164.971" r="5.05167" stroke-width="0.5" stroke="grey" fill="grey"/>
   </g>
   <g id="cell31">
  <circle cx="386.04" cy="112.935" r="9.53557" stroke-width="0.5" stroke="black" fill="grey"/>
  <circle cx="386.04" cy="112.935" r="5.79561" stroke-width="0.5" stroke="grey" fill="grey"/>
   </g>
   <g id="cell32">
  <circle cx="319.499" cy="595.194" r="1.56025" stroke-width="0.5" stroke="black" fill="grey"/>
  <circle cx="319.499" cy="595.194" r="1.53789" stroke-width="0.5" stroke="black" fill="black"/>
   </g>
   <g id="cell33">
  <circle cx="310.636" cy="554.328" r="2.33024" stroke-width="0.5" stroke="black" fill="grey"/>
  <circle cx="310.636" cy="554.328" r="2.2174" stroke-width="0.5" stroke="black" fill="black"/>
   </g>
   <g id="cell34">
  <circle cx="435.362" cy="649.251" r="2.04991" stroke-width="0.5" stroke="black" fill="grey"/>
  <circle cx="435.362" cy="649.251" r="1.93256" stroke-width="0.5" stroke="black" fill="black"/>
   </g>
   <g id="cell35">
  <circle cx="940.472" cy="88.6839" r="8.41271" stroke-width="0.5" stroke="black" fill="grey"/>
  <circle cx="940.472" cy="88.6839" r="5.05167" stroke-width="0.5" stroke="grey" fill="grey"/>
   </g>
   <g id="cell36">
  <circle cx="208.916" cy="622.395" r="1.76957" stroke-width="0.5" stroke="black" fill="grey"/>
  <circle cx="208.916" cy="622.395" r="1.71615" stroke-width="0.5" stroke="black" fill="black"/>
   </g>
   <g id="cell37">
  <circle cx="991.105" cy="649.704" r="1.67536" stroke-width="0.5" stroke="black" fill="grey"/>
  <circle cx="991.105" cy="649.704" r="1.63653" stroke-width="0.5" stroke="black" fill="black"/>
   </g>
   <g id="cell38">
  <circle cx="228.983" cy="445.784" r="7.30838" stroke-width="0.5" stroke="black" fill="grey"/>
  <circle cx="228.983" cy="445.784" r="4.65537" stroke-width="0.5" stroke="black" fill="black"/>
   </g>
   <g id="cell39">
  <circle cx="496.525" cy="254.099" r="1.67536" stroke-width="0.5" stroke="black" fill="grey"/>
  <circle cx="496.525" cy="254.099" r="1.63653" stroke-width="0.5" stroke="black" fill="black"/>
   </g>
   <g id="cell40">
  <circle cx="171.009" cy="355.307" r="10.0497" stroke-width="0.5" stroke="black" fill="red"/>
  <circle cx="171.009" cy="355.307" r="6.09278" stroke-width="0.5" stroke="red" fill="red"/>
   </g>
   <g id="cell41">
  <circle cx="680.319" cy="678.674" r="10.1758" stroke-width="0.5" stroke="black" fill="red"/>
  <circle cx="680.319" cy="678.674" r="6.16159" stroke-width="0.5" stroke="red" fill="red"/>
   </g>
   <g id="cell42">
  <circle cx="164.02" cy="752.567" r="10.1758" stroke-width="0.5" stroke="black" fill="red"/>
  <circle cx="164.02" cy="752.567" r="6.16159" stroke-width="0.5" stroke="red" fill="red"/>
   </g>
   <g id="cell43">
  <circle cx="937.998" cy="355.898" r="9.67603" stroke-width="0.5" stroke="black" fill="red"/>
  <circle cx="937.998" cy="355.898" r="5.87901" stroke-width="0.5" stroke="red" fill="red"/>
   </g>
   <g id="cell44">
  <circle cx="813.194" cy="11.1371" r="10.0336" stroke-width="0.5" stroke="black" fill="red"/>
  <circle cx="813.194" cy="11.1371" r="6.08382" stroke-width="0.5" stroke="red" fill="red"/>
   </g>
   <g id="cell45">
  <circle cx="644.819" cy="827.304" r="9.16281" stroke-width="0.5" stroke="black" fill="red"/>
  <circle cx="644.819" cy="827.304" r="5.56677" stroke-width="0.5" stroke="red" fill="red"/>
   </g>
   <g id="cell46">
  <circle cx="50.0987" cy="944.804" r="10.2328" stroke-width="0.5" stroke="black" fill="red"/>
  <circle cx="50.0987" cy="944.804" r="6.19197" stroke-width="0.5" stroke="red" fill="red"/>
   </g>
   <g id="cell47">
  <circle cx="879.999" cy="444.676" r="10.1098" stroke-width="0.5" stroke="black" fill="red"/>
  <circle cx="879.999" cy="444.676" r="6.12585" stroke-width="0.5" stroke="red" fill="red"/>
   </g>
   <g id="cell48">
  <circle cx="940.001" cy="44.1001" r="10.2728" stroke-width="0.5" stroke="black" fill="red"/>
  <circle cx="940.001" cy="44.1001" r="6.21295" stroke-width="0.5" stroke="red" fill="red"/>
   </g>
   <g id="cell49">
  <circle cx="475.328" cy="758.814" r="9.70201" stroke-width="0.5" stroke="black" fill="red"/>
  <circle cx="475.328" cy="758.814" r="5.89426" stroke-width="0.5" stroke="red" fill="red"/>
   </g>
   <g id="cell50">
  <circle cx="19.2978" cy="458.449" r="10.3247" stroke-width="0.5" stroke="black" fill="red"/>
  <circle cx="19.2978" cy="458.449" r="6.23971" stroke-width="0.5" stroke="red" fill="red"/>
   </g>
   <g id="cell51">
  <circle cx="970.055" cy="131.008" r="10.2821" stroke-width="0.5" stroke="black" fill="red"/>
  <circle cx="970.055" cy="131.008" r="6.21778" stroke-width="0.5" stroke="red" fill="red"/>
   </g>
   <g id="cell52">
  <circle cx="289.862" cy="499.505" r="3.11891" stroke-width="0.5" stroke="black" fill="red"/>
  <circle cx="289.862" cy="499.505" r="2.51913" stroke-width="0.5" stroke="black" fill="black"/>
   </g>
   <g id="cell53">
  <circle cx="698.559" cy="313.155" r="10.2328" stroke-width="0.5" stroke="black" fill="red"/>
  <circle cx="698.559" cy="313.155" r="6.19197" stroke-width="0.5" stroke="red" fill="red"/>
   </g>
   <g id="cell54">
  <circle cx="442.509" cy="951.291" r="9.84395" stroke-width="0.5" stroke="black" fill="red"/>
  <circle cx="442.509" cy="951.291" r="5.97665" stroke-width="0.5" stroke="red" fill="red"/>
   </g>
   <g id="cell55">
  <circle cx="227.567" cy="690.01" r="8.41271" stroke-width="0.5" stroke="black" fill="red"/>
  <circle cx="227.567" cy="690.01" r="5.05167" stroke-width="0.5" stroke="red" fill="red"/>
   </g>
   <g id="cell56">
  <circle cx="556.423" cy="808.818" r="10.0654" stroke-width="0.5" stroke="black" fill="red"/>
  <circle cx="556.423" cy="808.818" r="6.10145" stroke-width="0.5" stroke="red" fill="red"/>
   </g>
   <g id="cell57">
  <circle cx="477.264" cy="539.696" r="10.1506" stroke-width="0.5" stroke="black" fill="red"/>
  <circle cx="477.264" cy="539.696" r="6.14798" stroke-width="0.5" stroke="red" fill="red"/>
   </g>
   <g id="cell58">
  <circle cx="80.9921" cy="920.893" r="9.86542" stroke-width="0.5" stroke="black" fill="red"/>
  <circle cx="80.9921" cy="920.893" r="5.98895" stroke-width="0.5" stroke="red" fill="red"/>
   </g>
   <g id="cell59">
  <circle cx="82.1604" cy="952.008" r="9.7273" stroke-width="0.5" stroke="black" fill="red"/>
  <circle cx="82.1604" cy="952.008" r="5.90906" stroke-width="0.5" stroke="red" fill="red"/>
   </g>
   <g id="cell60">
  <circle cx="296.26" cy="36.5843" r="9.53557" stroke-width="0.5" stroke="black" fill="red"/>
  <circle cx="296.26" cy="36.5843" r="5.79561" stroke-width="0.5" stroke="red" fill="red"/>
   </g>
   <g id="cell61">
  <circle cx="847.273" cy="133.308" r="9.86542" stroke-width="0.5" stroke="black" fill="red"/>
  <circle cx="847.273" cy="133.308" r="5.98895" stroke-width="0.5" stroke="red" fill="red"/>
   </g>
   <g id="cell62">
  <circle cx="718.182" cy="821.29" r="8.41271" stroke-width="0.5" stroke="black" fill="red"/>
  <circle cx="718.182" cy="821.29" r="5.05167" stroke-width="0.5" stroke="red" fill="red"/>
   </g>
   <g id="cell63">
  <circle cx="294.697" cy="181.821" r="10.1238" stroke-width="0.5" stroke="black" fill="red"/>
  <circle cx="294.697" cy="181.821" r="6.13347" stroke-width="0.5" stroke="red" fill="red"/>
   </g>
   <g id="cell64">
  <circle cx="573.531" cy="545.284" r="8.41271" stroke-width="0.5" stroke="black" fill="red"/>
  <circle cx="573.531" cy="545.284" r="5.05167" stroke-width="0.5" stroke="red" fill="red"/>
   </g>
   <g id="cell65">
  <circle cx="203.861" cy="843.999" r="8.41271" stroke-width="0.5" stroke="black" fill="red"/>
  <circle cx="203.861" cy="843.999" r="5.05167" stroke-width="0.5" stroke="red" fill="red"/>
   </g>
   <g id="cell66">
  <circle cx="28.4511" cy="150.335" r="9.30826" stroke-width="0.5" stroke="black" fill="red"/>
  <circle cx="28.4511" cy="150.335" r="5.65742" stroke-width="0.5" stroke="red" fill="red"/>
   </g>
   <g id="cell67">
  <circle cx="530.217" cy="277.195" r="9.16281" stroke-width="0.5" stroke="black" fill="red"/>
  <circle cx="530.217" cy="277.195" r="5.56677" stroke-width="0.5" stroke="red" fill="red"/>
   </g>
   <g id="cell68">
  <circle cx="722.834" cy="278.39" r="10.1996" stroke-width="0.5" stroke="black" fill="red"/>
  <circle cx="722.834" cy="278.39" r="6.17434" stroke-width="0.5" stroke="red" fill="red"/>
   </g>
   <g id="cell69">
  <circle cx="443.773" cy="284.136" r="9.53557" stroke-width="0.5" stroke="black" fill="red"/>
  <circle cx="443.773" cy="284.136" r="5.79561" stroke-width="0.5" stroke="red" fill="red"/>
   </g>
   <g id="cell70">
  <circle cx="540.629" cy="395.352" r="9.7273" stroke-width="0.5" stroke="black" fill="red"/>
  <circle cx="540.629" cy="395.352" r="5.90906" stroke-width="0.5" stroke="red" fill="red"/>
   </g>
   <g id="cell71">
  <circle cx="906.046" cy="539.56" r="10.2728" stroke-width="0.5" stroke="black" fill="red"/>
  <circle cx="906.046" cy="539.56" r="6.21295" stroke-width="0.5" stroke="red" fill="red"/>
   </g>
   <g id="cell72">
  <circle cx="213.664" cy="883.724" r="10.0806" stroke-width="0.5" stroke="black" fill="red"/>
  <circle cx="213.664" cy="883.724" r="6.10985" stroke-width="0.5" stroke="red" fill="red"/>
   </g>
   <g id="cell73">
  <circle cx="695.243" cy="477.308" r="10.211" stroke-width="0.5" stroke="black" fill="red"/>
  <circle cx="695.243" cy="477.308" r="6.18041" stroke-width="0.5" stroke="red" fill="red"/>
   </g>
   <g id="cell74">
  <circle cx="833.773" cy="979.679" r="9.84395" stroke-width="0.5" stroke="black" fill="red"/>
  <circle cx="833.773" cy="979.679" r="5.97665" stroke-width="0.5" stroke="red" fill="red"/>
   </g>
   <g id="cell75">
  <circle cx="95.0468" cy="320.652" r="10.1879" stroke-width="0.5" stroke="black" fill="red"/>
  <circle cx="95.0468" cy="320.652" r="6.16807" stroke-width="0.5" stroke="red" fill="red"/>
   </g>
   <g id="cell76">
  <circle cx="805.134" cy="377.498" r="9.7992" stroke-width="0.5" stroke="black" fill="red"/>
  <circle cx="805.134" cy="377.498" r="5.95086" stroke-width="0.5" stroke="red" fill="red"/>
   </g>
   <g id="cell77">
  <circle cx="638.211" cy="854.946" r="10.0169" stroke-width="0.5" stroke="black" fill="red"/>
  <circle cx="638.211" cy="854.946" r="6.07458" stroke-width="0.5" stroke="red" fill="red"/>
   </g>
   <g id="cell78">
  <circle cx="599.282" cy="302.889" r="9.90658" stroke-width="0.5" stroke="black" fill="red"/>
  <circle cx="599.282" cy="302.889" r="6.01243" stroke-width="0.5" stroke="red" fill="red"/>
   </g>
   <g id="cell79">
  <circle cx="972.214" cy="703.619" r="9.20015" stroke-width="0.5" stroke="black" fill="red"/>
  <circle cx="972.214" cy="703.619" r="5.59022" stroke-width="0.5" stroke="red" fill="red"/>
   </g>
   <g id="cell80">
  <circle cx="749.982" cy="675.244" r="8.41271" stroke-width="0.5" stroke="black" fill="yellow"/>
  <circle cx="749.982" cy="675.244" r="5.05167" stroke-width="0.5" stroke="yellow" fill="yellow"/>
   </g>
   <g id="cell81">
  <circle cx="500.159" cy="977.212" r="8.41271" stroke-width="0.5" stroke="black" fill="yellow"/>
  <circle cx="500.159" cy="977.212" r="5.05167" stroke-width="0.5" stroke="yellow" fill="yellow"/>
   </g>
   <g id="cell82">
  <circle cx="656.998" cy="425.558" r="10.1098" stroke-width="0.5" stroke="black" fill="yellow"/>
  <circle cx="656.998" cy="425.558" r="6.12585" stroke-width="0.5" stroke="yellow" fill="yellow"/>
   </g>
   <g id="cell83">
  <circle cx="614.532" cy="591.777" r="9.99984" stroke-width="0.5" stroke="black" fill="yellow"/>
  <circle cx="614.532" cy="591.777" r="6.06503" stroke-width="0.5" stroke="yellow" fill="yellow"/>
   </g>
   <g id="cell84">
  <circle cx="22.3639" cy="468.221" r="9.30826" stroke-width="0.5" stroke="black" fill="yellow"/>
  <circle cx="22.3639" cy="468.221" r="5.65742" stroke-width="0.5" stroke="yellow" fill="yellow"/>
   </g>
   <g id="cell85">
  <circle cx="728.293" cy="652.328" r="10.211" stroke-width="0.5" stroke="black" fill="yellow"/>
  <circle cx="728.293" cy="652.328" r="6.18041" stroke-width="0.5" stroke="yellow" fill="yellow"/>
   </g>
   <g id="cell86">
  <circle cx="265.371" cy="429.801" r="8.57856" stroke-width="0.5" stroke="black" fill="yellow"/>
  <circle cx="265.371" cy="429.801" r="5.17461" stroke-width="0.5" stroke="yellow" fill="yellow"/>
   </g>
   <g id="cell87">
  <circle cx="751.953" cy="422.563" r="10.3084" stroke-width="0.5" stroke="black" fill="yellow"/>
  <circle cx="751.953" cy="422.563" r="6.23137" stroke-width="0.5" stroke="yellow" fill="yellow"/>
   </g>
   <g id="cell88">
  <circle cx="141.951" cy="96.8466" r="9.94548" stroke-width="0.5" stroke="black" fill="yellow"/>
  <circle cx="141.951" cy="96.8466" r="6.03448" stroke-width="0.5" stroke="yellow" fill="yellow"/>
   </g>
   <g id="cell89">
  <circle cx="59.3433" cy="556.965" r="8.84788" stroke-width="0.5" stroke="black" fill="yellow"/>
  <circle cx="59.3433" cy="556.965" r="5.36278" stroke-width="0.5" stroke="yellow" fill="yellow"/>
   </g>
   <g id="cell90">
  <circle cx="576.381" cy="549.137" r="1.34721" stroke-width="0.5" stroke="black" fill="yellow"/>
  <circle cx="576.381" cy="549.137" r="1.33735" stroke-width="0.5" stroke="black" fill="black"/>
   </g>
   <g id="cell91">
  <circle cx="55.5692" cy="648.714" r="9.2729" stroke-width="0.5" stroke="black" fill="yellow"/>
  <circle cx="55.5692" cy="648.714" r="5.63555" stroke-width="0.5" stroke="yellow" fill="yellow"/>
   </g>
   <g id="cell92">
  <circle cx="658.636" cy="297.427" r="9.90658" stroke-width="0.5" stroke="black" fill="yellow"/>
  <circle cx="658.636" cy="297.427" r="6.01243" stroke-width="0.5" stroke="yellow" fill="yellow"/>
   </g>
   <g id="cell93">
  <circle cx="210.519" cy="886.84" r="10.3084" stroke-width="0.5" stroke="black" fill="yellow"/>
  <circle cx="210.519" cy="886.84" r="6.23137" stroke-width="0.5" stroke="yellow" fill="yellow"/>
   </g>
   <g id="cell94">
  <circle cx="378.83" cy="69.183" r="9.62199" stroke-width="0.5" stroke="black" fill="yellow"/>
  <circle cx="378.83" cy="69.183" r="5.8471" stroke-width="0.5" stroke="yellow" fill="yellow"/>
   </g>
   <g id="cell95">
  <circle cx="959.651" cy="891.257" r="9.75192" stroke-width="0.5" stroke="black" fill="yellow"/>
  <circle cx="959.651" cy="891.257" r="5.92342" stroke-width="0.5" stroke="yellow" fill="yellow"/>
   </g>
   <g id="cell96">
  <circle cx="804.53" cy="537.607" r="9.77588" stroke-width="0.5" stroke="black" fill="yellow"/>
  <circle cx="804.53" cy="537.607" r="5.93735" stroke-width="0.5" stroke="yellow" fill="yellow"/>
   </g>
   <g id="cell97">
  <circle cx="430.12" cy="113.858" r="8.4325" stroke-width="0.5" stroke="black" fill="yellow"/>
  <circle cx="430.12" cy="113.858" r="5.06552" stroke-width="0.5" stroke="yellow" fill="yellow"/>
   </g>
   <g id="cell98">
  <circle cx="944.923" cy="339.759" r="8.88811" stroke-width="0.5" stroke="black" fill="yellow"/>
  <circle cx="944.923" cy="339.759" r="5.38958" stroke-width="0.5" stroke="yellow" fill="yellow"/>
   </g>
   <g id="cell99">
  <circle cx="529.471" cy="968.898" r="9.16281" stroke-width="0.5" stroke="black" fill="yellow"/>
  <circle cx="529.471" cy="968.898" r="5.56677" stroke-width="0.5" stroke="yellow" fill="yellow"/>
   </g>
   <g id="cell100">
  <circle cx="149.934" cy="836.252" r="10.2221" stroke-width="0.5" stroke="black" fill="yellow"/>
  <circle cx="149.934" cy="836.252" r="6.18628" stroke-width="0.5" stroke="yellow" fill="yellow"/>
   </g>
   <g id="cell101">
  <circle cx="85.0547" cy="145.755" r="8.41271" stroke-width="0.5" stroke="black" fill="yellow"/>
  <circle cx="85.0547" cy="145.755" r="5.05167" stroke-width="0.5" stroke="yellow" fill="yellow"/>
   </g>
   <g id="cell102">
  <circle cx="623.026" cy="156.586" r="9.77588" stroke-width="0.5" stroke="black" fill="yellow"/>
  <circle cx="623.026" cy="156.586" r="5.93735" stroke-width="0.5" stroke="yellow" fill="yellow"/>
   </g>
   <g id="cell103">
  <circle cx="814.009" cy="876.129" r="8.41271" stroke-width="0.5" stroke="black" fill="yellow"/>
  <circle cx="814.009" cy="876.129" r="5.05167" stroke-width="0.5" stroke="yellow" fill="yellow"/>
   </g>
   <g id="cell104">
  <circle cx="806.301" cy="412.747" r="10.2911" stroke-width="0.5" stroke="black" fill="yellow"/>
  <circle cx="806.301" cy="412.747" r="6.22246" stroke-width="0.5" stroke="yellow" fill="yellow"/>
   </g>
   <g id="cell105">
  <circle cx="129.877" cy="422.303" r="8.41271" stroke-width="0.5" stroke="black" fill="yellow"/>
  <circle cx="129.877" cy="422.303" r="5.05167" stroke-width="0.5" stroke="yellow" fill="yellow"/>
   </g>
   <g id="cell106">
  <circle cx="28.668" cy="977.501" r="10.1879" stroke-width="0.5" stroke="black" fill="yellow"/>
  <circle cx="28.668" cy="977.501" r="6.16807" stroke-width="0.5" stroke="yellow" fill="yellow"/>
   </g>
   <g id="cell107">
  <circle cx="348.687" cy="464.769" r="8.41271" stroke-width="0.5" stroke="black" fill="yellow"/>
  <circle cx="348.687" cy="464.769" r="5.05167" stroke-width="0.5" stroke="yellow" fill="yellow"/>
   </g>
   <g id="cell108">
  <circle cx="701.869" cy="52.6753" r="10.2999" stroke-width="0.5" stroke="black" fill="yellow"/>
  <circle cx="701.869" cy="52.6753" r="6.22699" stroke-width="0.5" stroke="yellow" fill="yellow"/>
   </g>
   <g id="cell109">
  <circle cx="368.993" cy="951.101" r="9.7273" stroke-width="0.5" stroke="black" fill="yellow"/>
  <circle cx="368.993" cy="951.101" r="5.90906" stroke-width="0.5" stroke="yellow" fill="yellow"/>
   </g>
   <g id="cell110">
  <circle cx="849.096" cy="223.139" r="8.41271" stroke-width="0.5" stroke="black" fill="yellow"/>
  <circle cx="849.096" cy="223.139" r="5.05167" stroke-width="0.5" stroke="yellow" fill="yellow"/>
   </g>
   <g id="cell111">
  <circle cx="762.914" cy="368.678" r="8.4325" stroke-width="0.5" stroke="black" fill="yellow"/>
  <circle cx="762.914" cy="368.678" r="5.06552" stroke-width="0.5" stroke="yellow" fill="yellow"/>
   </g>
   <g id="cell112">
  <circle cx="739.634" cy="756.719" r="10.1996" stroke-width="0.5" stroke="black" fill="yellow"/>
  <circle cx="739.634" cy="756.719" r="6.17434" stroke-width="0.5" stroke="yellow" fill="yellow"/>
   </g>
   <g id="cell113">
  <circle cx="347.194" cy="522.062" r="1.45966" stroke-width="0.5" stroke="black" fill="yellow"/>
  <circle cx="347.194" cy="522.062" r="1.44583" stroke-width="0.5" stroke="black" fill="black"/>
   </g>
   <g id="cell114">
  <circle cx="45.0921" cy="340.544" r="9.62199" stroke-width="0.5" stroke="black" fill="yellow"/>
  <circle cx="45.0921" cy="340.544" r="5.8471" stroke-width="0.5" stroke="yellow" fill="yellow"/>
   </g>
   <g id="cell115">
  <circle cx="199.079" cy="26.1724" r="10.0955" stroke-width="0.5" stroke="black" fill="yellow"/>
  <circle cx="199.079" cy="26.1724" r="6.11797" stroke-width="0.5" stroke="yellow" fill="yellow"/>
   </g>
   <g id="cell116">
  <circle cx="797.997" cy="483.246" r="8.41271" stroke-width="0.5" stroke="black" fill="yellow"/>
  <circle cx="797.997" cy="483.246" r="5.05167" stroke-width="0.5" stroke="yellow" fill="yellow"/>
   </g>
   <g id="cell117">
  <circle cx="890.476" cy="361.707" r="8.51252" stroke-width="0.5" stroke="black" fill="yellow"/>
  <circle cx="890.476" cy="361.707" r="5.12552" stroke-width="0.5" stroke="yellow" fill="yellow"/>
   </g>
   <g id="cell118">
  <circle cx="895.157" cy="590.623" r="10.2433" stroke-width="0.5" stroke="black" fill="yellow"/>
  <circle cx="895.157" cy="590.623" r="6.19748" stroke-width="0.5" stroke="yellow" fill="yellow"/>
   </g>
   <g id="cell119">
  <circle cx="597.61" cy="35.0172" r="8.80772" stroke-width="0.5" stroke="black" fill="yellow"/>
  <circle cx="597.61" cy="35.0172" r="5.33574" stroke-width="0.5" stroke="yellow" fill="yellow"/>
   </g>
  </g>
 </g>
  <rect x="775" y="1035" width="200" height="10" stroke-width="2" stroke="rgb(255,255,255)" fill="rgb(0,0,0)"/>
  <text x="781.25" y="1028.75"
   font-family="Arial" font-size="25" fill="black" >
   200 &#956;m
  </text>
  <text x="25" y="1045"
   font-family="Arial" font-size="18.75" fill="black" >
   0 days, 0 hours, 0 minutes, and 32.2518 seconds
  </text>
  <rect x="0" y="70" width="1000" height="1000" stroke-width="2" stroke="rgb(0,0,0)" fill="none"/>
</svg>
