<?xml version="1.0" encoding="UTF-8" standalone="no"?>
<!-- Created with PhysiCell (http://PhysiCell.MathCancer.org/) -->
<svg 
 xmlns:dc="http://purl.org/dc/elements/1.1/" 
 xmlns:cc="http://creativecommons.org/ns#" 
 xmlns:rdf="http://www.w3.org/1999/02/22-rdf-syntax-ns#" 
 xmlns:svg="http://www.w3.org/2000/svg" 
 xmlns="http://www.w3.org/2000/svg" 
 version="1.1" 
 width="1000" 
 height="1070" 
 id="svg2">
  <rect x="0" y="0" width="1000" height="1070" stroke-width="2" stroke="white" fill="white"/>
  <text x="12.5" y="30"
   font-family="Arial" font-size="25" fill="black" >
   Current time: 0 days, 16 hours, and 0.00 minutes, z = 0.00 &#956;m
  </text>
  <text x="12.5" y="57.5"
   font-family="Arial" font-size="23.75" fill="black" >
   104 agents
  </text>
 <g id="tissue" 
    transform="translate(0,1070) scale(1,-1)">
  <g id="ECM">
  </g>
  <g id="cells">
   <g id="cell0">
  <circle cx="503.938" cy="624.963" r="8.38891" stroke-width="0.5" stroke="black" fill="grey"/>
  <circle cx="503.938" cy="624.963" r="5.0434" stroke-width="0.5" stroke="grey" fill="grey"/>
   </g>
   <g id="cell118">
  <circle cx="897.838" cy="601.421" r="10.5628" stroke-width="0.5" stroke="black" fill="yellow"/>
  <circle cx="897.838" cy="601.421" r="6.35171" stroke-width="0.5" stroke="yellow" fill="yellow"/>
   </g>
   <g id="cell100">
  <circle cx="134.239" cy="827.451" r="10.5607" stroke-width="0.5" stroke="black" fill="yellow"/>
  <circle cx="134.239" cy="827.451" r="6.35087" stroke-width="0.5" stroke="yellow" fill="yellow"/>
   </g>
   <g id="cell3">
  <circle cx="619.418" cy="597.538" r="10.5628" stroke-width="0.5" stroke="black" fill="grey"/>
  <circle cx="619.418" cy="597.538" r="6.35171" stroke-width="0.5" stroke="grey" fill="grey"/>
   </g>
   <g id="cell103">
  <circle cx="836.431" cy="847.043" r="9.20015" stroke-width="0.5" stroke="black" fill="yellow"/>
  <circle cx="836.431" cy="847.043" r="5.59022" stroke-width="0.5" stroke="yellow" fill="yellow"/>
   </g>
   <g id="cell5">
  <circle cx="75.5167" cy="967.659" r="1.49702" stroke-width="0.5" stroke="black" fill="grey"/>
  <circle cx="75.5167" cy="967.659" r="1.49129" stroke-width="0.5" stroke="black" fill="black"/>
   </g>
   <g id="cell6">
  <circle cx="385.987" cy="484.758" r="3.29278" stroke-width="0.5" stroke="black" fill="grey"/>
  <circle cx="385.987" cy="484.758" r="2.87041" stroke-width="0.5" stroke="black" fill="black"/>
   </g>
   <g id="cell7">
  <circle cx="875.389" cy="523.438" r="10.5404" stroke-width="0.5" stroke="black" fill="grey"/>
  <circle cx="875.389" cy="523.438" r="6.34248" stroke-width="0.5" stroke="grey" fill="grey"/>
   </g>
   <g id="cell8">
  <circle cx="587.455" cy="419.288" r="9.57567" stroke-width="0.5" stroke="black" fill="grey"/>
  <circle cx="587.455" cy="419.288" r="5.79709" stroke-width="0.5" stroke="black" fill="black"/>
   </g>
   <g id="cell112">
  <circle cx="773.556" cy="745.401" r="10.5585" stroke-width="0.5" stroke="black" fill="yellow"/>
  <circle cx="773.556" cy="745.401" r="6.34997" stroke-width="0.5" stroke="yellow" fill="yellow"/>
   </g>
   <g id="cell10">
  <circle cx="134.269" cy="642.6" r="2.60555" stroke-width="0.5" stroke="black" fill="grey"/>
  <circle cx="134.269" cy="642.6" r="2.44906" stroke-width="0.5" stroke="black" fill="black"/>
   </g>
   <g id="cell11">
  <circle cx="330.059" cy="826.206" r="3.39436" stroke-width="0.5" stroke="black" fill="grey"/>
  <circle cx="330.059" cy="826.206" r="2.91567" stroke-width="0.5" stroke="black" fill="black"/>
   </g>
   <g id="cell104">
  <circle cx="762.391" cy="394.536" r="8.38753" stroke-width="0.5" stroke="black" fill="yellow"/>
  <circle cx="762.391" cy="394.536" r="5.04286" stroke-width="0.5" stroke="yellow" fill="yellow"/>
   </g>
   <g id="cell102">
  <circle cx="607.552" cy="182.228" r="10.5166" stroke-width="0.5" stroke="black" fill="yellow"/>
  <circle cx="607.552" cy="182.228" r="6.33218" stroke-width="0.5" stroke="yellow" fill="yellow"/>
   </g>
   <g id="cell98">
  <circle cx="913.277" cy="381.049" r="10.4208" stroke-width="0.5" stroke="black" fill="yellow"/>
  <circle cx="913.277" cy="381.049" r="6.28762" stroke-width="0.5" stroke="yellow" fill="yellow"/>
   </g>
   <g id="cell97">
  <circle cx="430.198" cy="120.454" r="10.34" stroke-width="0.5" stroke="black" fill="yellow"/>
  <circle cx="430.198" cy="120.454" r="6.24753" stroke-width="0.5" stroke="yellow" fill="yellow"/>
   </g>
   <g id="cell16">
  <circle cx="159.25" cy="748.308" r="10.5496" stroke-width="0.5" stroke="black" fill="grey"/>
  <circle cx="159.25" cy="748.308" r="6.34633" stroke-width="0.5" stroke="grey" fill="grey"/>
   </g>
   <g id="cell116">
  <circle cx="819.029" cy="457.29" r="10.2728" stroke-width="0.5" stroke="black" fill="yellow"/>
  <circle cx="819.029" cy="457.29" r="6.21295" stroke-width="0.5" stroke="yellow" fill="yellow"/>
   </g>
   <g id="cell18">
  <circle cx="959.432" cy="705.774" r="2.43712" stroke-width="0.5" stroke="black" fill="grey"/>
  <circle cx="959.432" cy="705.774" r="2.31079" stroke-width="0.5" stroke="black" fill="black"/>
   </g>
   <g id="cell101">
  <circle cx="107.115" cy="128.626" r="9.7992" stroke-width="0.5" stroke="black" fill="yellow"/>
  <circle cx="107.115" cy="128.626" r="5.95086" stroke-width="0.5" stroke="yellow" fill="yellow"/>
   </g>
   <g id="cell20">
  <circle cx="235.256" cy="172.059" r="2.96209" stroke-width="0.5" stroke="black" fill="grey"/>
  <circle cx="235.256" cy="172.059" r="2.67748" stroke-width="0.5" stroke="black" fill="black"/>
   </g>
   <g id="cell99">
  <circle cx="515.482" cy="976.504" r="10.4531" stroke-width="0.5" stroke="black" fill="yellow"/>
  <circle cx="515.482" cy="976.504" r="6.30312" stroke-width="0.5" stroke="yellow" fill="yellow"/>
   </g>
   <g id="cell115">
  <circle cx="200.098" cy="22.6854" r="10.5482" stroke-width="0.5" stroke="black" fill="yellow"/>
  <circle cx="200.098" cy="22.6854" r="6.34574" stroke-width="0.5" stroke="yellow" fill="yellow"/>
   </g>
   <g id="cell108">
  <circle cx="708.096" cy="37.302" r="4.75668" stroke-width="0.5" stroke="black" fill="yellow"/>
  <circle cx="708.096" cy="37.302" r="3.52272" stroke-width="0.5" stroke="black" fill="black"/>
   </g>
   <g id="cell24">
  <circle cx="608.109" cy="222.435" r="1.76582" stroke-width="0.5" stroke="black" fill="grey"/>
  <circle cx="608.109" cy="222.435" r="1.74918" stroke-width="0.5" stroke="black" fill="black"/>
   </g>
   <g id="cell105">
  <circle cx="96.9347" cy="423.207" r="9.37686" stroke-width="0.5" stroke="black" fill="yellow"/>
  <circle cx="96.9347" cy="423.207" r="5.69955" stroke-width="0.5" stroke="yellow" fill="yellow"/>
   </g>
   <g id="cell26">
  <circle cx="645.37" cy="439.461" r="10.5618" stroke-width="0.5" stroke="black" fill="grey"/>
  <circle cx="645.37" cy="439.461" r="6.3513" stroke-width="0.5" stroke="grey" fill="grey"/>
   </g>
   <g id="cell117">
  <circle cx="890.567" cy="398.789" r="10.3615" stroke-width="0.5" stroke="black" fill="yellow"/>
  <circle cx="890.567" cy="398.789" r="6.25834" stroke-width="0.5" stroke="yellow" fill="yellow"/>
   </g>
   <g id="cell28">
  <circle cx="638.002" cy="156.813" r="10.5549" stroke-width="0.5" stroke="black" fill="grey"/>
  <circle cx="638.002" cy="156.813" r="6.34851" stroke-width="0.5" stroke="grey" fill="grey"/>
   </g>
   <g id="cell29">
  <circle cx="965.469" cy="686.418" r="10.5639" stroke-width="0.5" stroke="black" fill="grey"/>
  <circle cx="965.469" cy="686.418" r="6.35212" stroke-width="0.5" stroke="grey" fill="grey"/>
   </g>
   <g id="cell30">
  <circle cx="740.414" cy="143.157" r="10.3247" stroke-width="0.5" stroke="black" fill="grey"/>
  <circle cx="740.414" cy="143.157" r="6.23971" stroke-width="0.5" stroke="grey" fill="grey"/>
   </g>
   <g id="cell31">
  <circle cx="415.138" cy="106.68" r="5.52018" stroke-width="0.5" stroke="black" fill="grey"/>
  <circle cx="415.138" cy="106.68" r="3.85261" stroke-width="0.5" stroke="black" fill="black"/>
   </g>
   <g id="cell114">
  <circle cx="39.4098" cy="320.277" r="10.5012" stroke-width="0.5" stroke="black" fill="yellow"/>
  <circle cx="39.4098" cy="320.277" r="6.32534" stroke-width="0.5" stroke="yellow" fill="yellow"/>
   </g>
   <g id="cell107">
  <circle cx="373.328" cy="419.206" r="9.7273" stroke-width="0.5" stroke="black" fill="yellow"/>
  <circle cx="373.328" cy="419.206" r="5.90906" stroke-width="0.5" stroke="yellow" fill="yellow"/>
   </g>
   <g id="cell106">
  <circle cx="38.0487" cy="967.251" r="10.5573" stroke-width="0.5" stroke="black" fill="yellow"/>
  <circle cx="38.0487" cy="967.251" r="6.3495" stroke-width="0.5" stroke="yellow" fill="yellow"/>
   </g>
   <g id="cell35">
  <circle cx="916.661" cy="93.9781" r="9.00806" stroke-width="0.5" stroke="black" fill="grey"/>
  <circle cx="916.661" cy="93.9781" r="5.46807" stroke-width="0.5" stroke="grey" fill="grey"/>
   </g>
   <g id="cell109">
  <circle cx="371.605" cy="957.948" r="10.5117" stroke-width="0.5" stroke="black" fill="yellow"/>
  <circle cx="371.605" cy="957.948" r="6.33005" stroke-width="0.5" stroke="yellow" fill="yellow"/>
   </g>
   <g id="cell111">
  <circle cx="756.986" cy="363.004" r="10.34" stroke-width="0.5" stroke="black" fill="yellow"/>
  <circle cx="756.986" cy="363.004" r="6.24753" stroke-width="0.5" stroke="yellow" fill="yellow"/>
   </g>
   <g id="cell38">
  <circle cx="228.983" cy="445.784" r="1.46264" stroke-width="0.5" stroke="black" fill="grey"/>
  <circle cx="228.983" cy="445.784" r="1.45776" stroke-width="0.5" stroke="black" fill="black"/>
   </g>
   <g id="cell110">
  <circle cx="866.293" cy="257.886" r="9.59391" stroke-width="0.5" stroke="black" fill="yellow"/>
  <circle cx="866.293" cy="257.886" r="5.83043" stroke-width="0.5" stroke="yellow" fill="yellow"/>
   </g>
   <g id="cell40">
  <circle cx="173.341" cy="399.353" r="10.5436" stroke-width="0.5" stroke="black" fill="red"/>
  <circle cx="173.341" cy="399.353" r="6.34385" stroke-width="0.5" stroke="red" fill="red"/>
   </g>
   <g id="cell41">
  <circle cx="688.66" cy="677.023" r="10.5561" stroke-width="0.5" stroke="black" fill="red"/>
  <circle cx="688.66" cy="677.023" r="6.34901" stroke-width="0.5" stroke="red" fill="red"/>
   </g>
   <g id="cell42">
  <circle cx="136.69" cy="727.669" r="10.5561" stroke-width="0.5" stroke="black" fill="red"/>
  <circle cx="136.69" cy="727.669" r="6.34901" stroke-width="0.5" stroke="red" fill="red"/>
   </g>
   <g id="cell43">
  <circle cx="892.784" cy="390.674" r="10.5066" stroke-width="0.5" stroke="black" fill="red"/>
  <circle cx="892.784" cy="390.674" r="6.32777" stroke-width="0.5" stroke="red" fill="red"/>
   </g>
   <g id="cell44">
  <circle cx="826.525" cy="31.995" r="10.542" stroke-width="0.5" stroke="black" fill="red"/>
  <circle cx="826.525" cy="31.995" r="6.34318" stroke-width="0.5" stroke="red" fill="red"/>
   </g>
   <g id="cell45">
  <circle cx="642.523" cy="837.062" r="10.4531" stroke-width="0.5" stroke="black" fill="red"/>
  <circle cx="642.523" cy="837.062" r="6.30312" stroke-width="0.5" stroke="red" fill="red"/>
   </g>
   <g id="cell46">
  <circle cx="59.1131" cy="922.317" r="10.5618" stroke-width="0.5" stroke="black" fill="red"/>
  <circle cx="59.1131" cy="922.317" r="6.3513" stroke-width="0.5" stroke="red" fill="red"/>
   </g>
   <g id="cell47">
  <circle cx="894.908" cy="427.903" r="10.5496" stroke-width="0.5" stroke="black" fill="red"/>
  <circle cx="894.908" cy="427.903" r="6.34633" stroke-width="0.5" stroke="red" fill="red"/>
   </g>
   <g id="cell48">
  <circle cx="921.093" cy="45.5107" r="8.38608" stroke-width="0.5" stroke="black" fill="red"/>
  <circle cx="921.093" cy="45.5107" r="5.04229" stroke-width="0.5" stroke="red" fill="red"/>
   </g>
   <g id="cell49">
  <circle cx="466.931" cy="792.134" r="10.5092" stroke-width="0.5" stroke="black" fill="red"/>
  <circle cx="466.931" cy="792.134" r="6.32893" stroke-width="0.5" stroke="red" fill="red"/>
   </g>
   <g id="cell50">
  <circle cx="18.9516" cy="493.321" r="8.39021" stroke-width="0.5" stroke="black" fill="red"/>
  <circle cx="18.9516" cy="493.321" r="5.0439" stroke-width="0.5" stroke="red" fill="red"/>
   </g>
   <g id="cell51">
  <circle cx="954.934" cy="147.795" r="8.38682" stroke-width="0.5" stroke="black" fill="red"/>
  <circle cx="954.934" cy="147.795" r="5.04258" stroke-width="0.5" stroke="red" fill="red"/>
   </g>
   <g id="cell96">
  <circle cx="786.105" cy="545.585" r="10.5166" stroke-width="0.5" stroke="black" fill="yellow"/>
  <circle cx="786.105" cy="545.585" r="6.33218" stroke-width="0.5" stroke="yellow" fill="yellow"/>
   </g>
   <g id="cell53">
  <circle cx="691.904" cy="338.942" r="10.5618" stroke-width="0.5" stroke="black" fill="red"/>
  <circle cx="691.904" cy="338.942" r="6.3513" stroke-width="0.5" stroke="red" fill="red"/>
   </g>
   <g id="cell54">
  <circle cx="442.607" cy="932.038" r="10.5233" stroke-width="0.5" stroke="black" fill="red"/>
  <circle cx="442.607" cy="932.038" r="6.33514" stroke-width="0.5" stroke="red" fill="red"/>
   </g>
   <g id="cell55">
  <circle cx="244.53" cy="723.905" r="10.1098" stroke-width="0.5" stroke="black" fill="red"/>
  <circle cx="244.53" cy="723.905" r="6.12585" stroke-width="0.5" stroke="red" fill="red"/>
   </g>
   <g id="cell56">
  <circle cx="555.547" cy="816.675" r="10.5452" stroke-width="0.5" stroke="black" fill="red"/>
  <circle cx="555.547" cy="816.675" r="6.3445" stroke-width="0.5" stroke="red" fill="red"/>
   </g>
   <g id="cell57">
  <circle cx="490.464" cy="548.952" r="10.5536" stroke-width="0.5" stroke="black" fill="red"/>
  <circle cx="490.464" cy="548.952" r="6.34799" stroke-width="0.5" stroke="red" fill="red"/>
   </g>
   <g id="cell58">
  <circle cx="57.205" cy="920.151" r="10.5254" stroke-width="0.5" stroke="black" fill="red"/>
  <circle cx="57.205" cy="920.151" r="6.33607" stroke-width="0.5" stroke="red" fill="red"/>
   </g>
   <g id="cell59">
  <circle cx="96.4419" cy="966.18" r="10.5117" stroke-width="0.5" stroke="black" fill="red"/>
  <circle cx="96.4419" cy="966.18" r="6.33005" stroke-width="0.5" stroke="red" fill="red"/>
   </g>
   <g id="cell60">
  <circle cx="277.752" cy="54.7047" r="10.4925" stroke-width="0.5" stroke="black" fill="red"/>
  <circle cx="277.752" cy="54.7047" r="6.32139" stroke-width="0.5" stroke="red" fill="red"/>
   </g>
   <g id="cell61">
  <circle cx="837.986" cy="134.705" r="10.5254" stroke-width="0.5" stroke="black" fill="red"/>
  <circle cx="837.986" cy="134.705" r="6.33607" stroke-width="0.5" stroke="red" fill="red"/>
   </g>
   <g id="cell62">
  <circle cx="737.034" cy="809.804" r="8.41271" stroke-width="0.5" stroke="black" fill="red"/>
  <circle cx="737.034" cy="809.804" r="5.05167" stroke-width="0.5" stroke="red" fill="red"/>
   </g>
   <g id="cell63">
  <circle cx="320.575" cy="182.403" r="10.551" stroke-width="0.5" stroke="black" fill="red"/>
  <circle cx="320.575" cy="182.403" r="6.3469" stroke-width="0.5" stroke="red" fill="red"/>
   </g>
   <g id="cell64">
  <circle cx="588.425" cy="547.242" r="8.41271" stroke-width="0.5" stroke="black" fill="red"/>
  <circle cx="588.425" cy="547.242" r="5.05167" stroke-width="0.5" stroke="red" fill="red"/>
   </g>
   <g id="cell65">
  <circle cx="190.302" cy="844.985" r="4.11994" stroke-width="0.5" stroke="black" fill="red"/>
  <circle cx="190.302" cy="844.985" r="3.23125" stroke-width="0.5" stroke="black" fill="black"/>
   </g>
   <g id="cell66">
  <circle cx="45.4753" cy="145.534" r="10.4689" stroke-width="0.5" stroke="black" fill="red"/>
  <circle cx="45.4753" cy="145.534" r="6.31053" stroke-width="0.5" stroke="red" fill="red"/>
   </g>
   <g id="cell67">
  <circle cx="528.829" cy="266.077" r="10.4531" stroke-width="0.5" stroke="black" fill="red"/>
  <circle cx="528.829" cy="266.077" r="6.30312" stroke-width="0.5" stroke="red" fill="red"/>
   </g>
   <g id="cell68">
  <circle cx="769.558" cy="248.225" r="10.5585" stroke-width="0.5" stroke="black" fill="red"/>
  <circle cx="769.558" cy="248.225" r="6.34997" stroke-width="0.5" stroke="red" fill="red"/>
   </g>
   <g id="cell69">
  <circle cx="451.597" cy="283.127" r="10.4925" stroke-width="0.5" stroke="black" fill="red"/>
  <circle cx="451.597" cy="283.127" r="6.32139" stroke-width="0.5" stroke="red" fill="red"/>
   </g>
   <g id="cell70">
  <circle cx="550.252" cy="383.008" r="10.5117" stroke-width="0.5" stroke="black" fill="red"/>
  <circle cx="550.252" cy="383.008" r="6.33005" stroke-width="0.5" stroke="red" fill="red"/>
   </g>
   <g id="cell71">
  <circle cx="871.312" cy="540.538" r="8.38608" stroke-width="0.5" stroke="black" fill="red"/>
  <circle cx="871.312" cy="540.538" r="5.04229" stroke-width="0.5" stroke="red" fill="red"/>
   </g>
   <g id="cell72">
  <circle cx="222.145" cy="888.044" r="10.5467" stroke-width="0.5" stroke="black" fill="red"/>
  <circle cx="222.145" cy="888.044" r="6.34513" stroke-width="0.5" stroke="red" fill="red"/>
   </g>
   <g id="cell73">
  <circle cx="645.817" cy="427.776" r="10.5596" stroke-width="0.5" stroke="black" fill="red"/>
  <circle cx="645.817" cy="427.776" r="6.35043" stroke-width="0.5" stroke="red" fill="red"/>
   </g>
   <g id="cell74">
  <circle cx="848.549" cy="989.852" r="10.5233" stroke-width="0.5" stroke="black" fill="red"/>
  <circle cx="848.549" cy="989.852" r="6.33514" stroke-width="0.5" stroke="red" fill="red"/>
   </g>
   <g id="cell75">
  <circle cx="89.3959" cy="319.945" r="10.5573" stroke-width="0.5" stroke="black" fill="red"/>
  <circle cx="89.3959" cy="319.945" r="6.3495" stroke-width="0.5" stroke="red" fill="red"/>
   </g>
   <g id="cell76">
  <circle cx="797.505" cy="406.159" r="10.5189" stroke-width="0.5" stroke="black" fill="red"/>
  <circle cx="797.505" cy="406.159" r="6.3332" stroke-width="0.5" stroke="red" fill="red"/>
   </g>
   <g id="cell77">
  <circle cx="640.931" cy="857.686" r="10.5404" stroke-width="0.5" stroke="black" fill="red"/>
  <circle cx="640.931" cy="857.686" r="6.34248" stroke-width="0.5" stroke="red" fill="red"/>
   </g>
   <g id="cell78">
  <circle cx="606.213" cy="252.73" r="10.5295" stroke-width="0.5" stroke="black" fill="red"/>
  <circle cx="606.213" cy="252.73" r="6.33783" stroke-width="0.5" stroke="red" fill="red"/>
   </g>
   <g id="cell79">
  <circle cx="965.055" cy="709.342" r="10.4573" stroke-width="0.5" stroke="black" fill="red"/>
  <circle cx="965.055" cy="709.342" r="6.30507" stroke-width="0.5" stroke="red" fill="red"/>
   </g>
   <g id="cell80">
  <circle cx="744.98" cy="705.915" r="9.5053" stroke-width="0.5" stroke="black" fill="yellow"/>
  <circle cx="744.98" cy="705.915" r="5.77744" stroke-width="0.5" stroke="yellow" fill="yellow"/>
   </g>
   <g id="cell81">
  <circle cx="497.644" cy="989.28" r="8.41271" stroke-width="0.5" stroke="black" fill="yellow"/>
  <circle cx="497.644" cy="989.28" r="5.05167" stroke-width="0.5" stroke="yellow" fill="yellow"/>
   </g>
   <g id="cell82">
  <circle cx="668.455" cy="417.072" r="10.5496" stroke-width="0.5" stroke="black" fill="yellow"/>
  <circle cx="668.455" cy="417.072" r="6.34633" stroke-width="0.5" stroke="yellow" fill="yellow"/>
   </g>
   <g id="cell83">
  <circle cx="592.829" cy="590.021" r="10.5387" stroke-width="0.5" stroke="black" fill="yellow"/>
  <circle cx="592.829" cy="590.021" r="6.34177" stroke-width="0.5" stroke="yellow" fill="yellow"/>
   </g>
   <g id="cell84">
  <circle cx="34.4161" cy="503.497" r="10.4689" stroke-width="0.5" stroke="black" fill="yellow"/>
  <circle cx="34.4161" cy="503.497" r="6.31053" stroke-width="0.5" stroke="yellow" fill="yellow"/>
   </g>
   <g id="cell85">
  <circle cx="746.943" cy="664.393" r="10.5596" stroke-width="0.5" stroke="black" fill="yellow"/>
  <circle cx="746.943" cy="664.393" r="6.35043" stroke-width="0.5" stroke="yellow" fill="yellow"/>
   </g>
   <g id="cell86">
  <circle cx="286.735" cy="447.416" r="10.3747" stroke-width="0.5" stroke="black" fill="yellow"/>
  <circle cx="286.735" cy="447.416" r="6.26498" stroke-width="0.5" stroke="yellow" fill="yellow"/>
   </g>
   <g id="cell87">
  <circle cx="765.284" cy="409.622" r="8.38891" stroke-width="0.5" stroke="black" fill="yellow"/>
  <circle cx="765.284" cy="409.622" r="5.0434" stroke-width="0.5" stroke="yellow" fill="yellow"/>
   </g>
   <g id="cell88">
  <circle cx="156.211" cy="109.661" r="10.5333" stroke-width="0.5" stroke="black" fill="yellow"/>
  <circle cx="156.211" cy="109.661" r="6.33948" stroke-width="0.5" stroke="yellow" fill="yellow"/>
   </g>
   <g id="cell89">
  <circle cx="54.6785" cy="538.112" r="10.4156" stroke-width="0.5" stroke="black" fill="yellow"/>
  <circle cx="54.6785" cy="538.112" r="6.2851" stroke-width="0.5" stroke="yellow" fill="yellow"/>
   </g>
   <g id="cell119">
  <circle cx="575.989" cy="34.1217" r="10.4102" stroke-width="0.5" stroke="black" fill="yellow"/>
  <circle cx="575.989" cy="34.1217" r="6.2825" stroke-width="0.5" stroke="yellow" fill="yellow"/>
   </g>
   <g id="cell91">
  <circle cx="37.698" cy="641.039" r="10.4651" stroke-width="0.5" stroke="black" fill="yellow"/>
  <circle cx="37.698" cy="641.039" r="6.30877" stroke-width="0.5" stroke="yellow" fill="yellow"/>
   </g>
   <g id="cell92">
  <circle cx="648.319" cy="309.535" r="10.5295" stroke-width="0.5" stroke="black" fill="yellow"/>
  <circle cx="648.319" cy="309.535" r="6.33783" stroke-width="0.5" stroke="yellow" fill="yellow"/>
   </g>
   <g id="cell93">
  <circle cx="242.031" cy="895.97" r="8.38891" stroke-width="0.5" stroke="black" fill="yellow"/>
  <circle cx="242.031" cy="895.97" r="5.0434" stroke-width="0.5" stroke="yellow" fill="yellow"/>
   </g>
   <g id="cell94">
  <circle cx="363.12" cy="91.3387" r="10.5012" stroke-width="0.5" stroke="black" fill="yellow"/>
  <circle cx="363.12" cy="91.3387" r="6.32534" stroke-width="0.5" stroke="yellow" fill="yellow"/>
   </g>
   <g id="cell95">
  <circle cx="965.755" cy="903.472" r="10.5142" stroke-width="0.5" stroke="black" fill="yellow"/>
  <circle cx="965.755" cy="903.472" r="6.33113" stroke-width="0.5" stroke="yellow" fill="yellow"/>
   </g>
   <g id="cell121">
  <circle cx="9.28593" cy="492.224" r="8.39021" stroke-width="0.5" stroke="black" fill="red"/>
  <circle cx="9.28593" cy="492.224" r="5.0439" stroke-width="0.5" stroke="red" fill="red"/>
   </g>
   <g id="cell122">
  <circle cx="768.385" cy="432.655" r="8.38891" stroke-width="0.5" stroke="black" fill="yellow"/>
  <circle cx="768.385" cy="432.655" r="5.0434" stroke-width="0.5" stroke="yellow" fill="yellow"/>
   </g>
   <g id="cell123">
  <circle cx="252.345" cy="879.273" r="8.38891" stroke-width="0.5" stroke="black" fill="yellow"/>
  <circle cx="252.345" cy="879.273" r="5.0434" stroke-width="0.5" stroke="yellow" fill="yellow"/>
   </g>
   <g id="cell124">
  <circle cx="527.352" cy="634.958" r="8.38891" stroke-width="0.5" stroke="black" fill="grey"/>
  <circle cx="527.352" cy="634.958" r="5.0434" stroke-width="0.5" stroke="grey" fill="grey"/>
   </g>
   <g id="cell125">
  <circle cx="789.828" cy="394.104" r="8.38753" stroke-width="0.5" stroke="black" fill="yellow"/>
  <circle cx="789.828" cy="394.104" r="5.04286" stroke-width="0.5" stroke="yellow" fill="yellow"/>
   </g>
   <g id="cell126">
  <circle cx="968.646" cy="154.475" r="8.38682" stroke-width="0.5" stroke="black" fill="red"/>
  <circle cx="968.646" cy="154.475" r="5.04258" stroke-width="0.5" stroke="red" fill="red"/>
   </g>
   <g id="cell127">
  <circle cx="867.996" cy="532.456" r="8.38608" stroke-width="0.5" stroke="black" fill="red"/>
  <circle cx="867.996" cy="532.456" r="5.04229" stroke-width="0.5" stroke="red" fill="red"/>
   </g>
   <g id="cell128">
  <circle cx="915.94" cy="45.6499" r="8.38608" stroke-width="0.5" stroke="black" fill="red"/>
  <circle cx="915.94" cy="45.6499" r="5.04229" stroke-width="0.5" stroke="red" fill="red"/>
   </g>
  </g>
 </g>
  <rect x="775" y="1035" width="200" height="10" stroke-width="2" stroke="rgb(255,255,255)" fill="rgb(0,0,0)"/>
  <text x="781.25" y="1028.75"
   font-family="Arial" font-size="25" fill="black" >
   200 &#956;m
  </text>
  <text x="25" y="1045"
   font-family="Arial" font-size="18.75" fill="black" >
   0 days, 0 hours, 1 minutes, and 7.4334 seconds
  </text>
  <rect x="0" y="70" width="1000" height="1000" stroke-width="2" stroke="rgb(0,0,0)" fill="none"/>
</svg>
