<?xml version="1.0" encoding="UTF-8" standalone="no"?>
<!-- Created with PhysiCell (http://PhysiCell.MathCancer.org/) -->
<svg 
 xmlns:dc="http://purl.org/dc/elements/1.1/" 
 xmlns:cc="http://creativecommons.org/ns#" 
 xmlns:rdf="http://www.w3.org/1999/02/22-rdf-syntax-ns#" 
 xmlns:svg="http://www.w3.org/2000/svg" 
 xmlns="http://www.w3.org/2000/svg" 
 version="1.1" 
 width="1000" 
 height="1070" 
 id="svg2">
  <rect x="0" y="0" width="1000" height="1070" stroke-width="2" stroke="white" fill="white"/>
  <text x="12.5" y="30"
   font-family="Arial" font-size="25" fill="black" >
   Current time: 1 days, 12 hours, and 30.00 minutes, z = 0.00 &#956;m
  </text>
  <text x="12.5" y="57.5"
   font-family="Arial" font-size="23.75" fill="black" >
   221 agents
  </text>
 <g id="tissue" 
    transform="translate(0,1070) scale(1,-1)">
  <g id="ECM">
  </g>
  <g id="cells">
   <g id="cell0">
  <circle cx="471.087" cy="616.793" r="8.4061" stroke-width="0.5" stroke="black" fill="grey"/>
  <circle cx="471.087" cy="616.793" r="5.04969" stroke-width="0.5" stroke="grey" fill="grey"/>
   </g>
   <g id="cell118">
  <circle cx="851.297" cy="576.746" r="10.1373" stroke-width="0.5" stroke="black" fill="yellow"/>
  <circle cx="851.297" cy="576.746" r="6.14083" stroke-width="0.5" stroke="yellow" fill="yellow"/>
   </g>
   <g id="cell100">
  <circle cx="116.337" cy="807.747" r="8.40552" stroke-width="0.5" stroke="black" fill="yellow"/>
  <circle cx="116.337" cy="807.747" r="5.0495" stroke-width="0.5" stroke="yellow" fill="yellow"/>
   </g>
   <g id="cell3">
  <circle cx="660.247" cy="652.711" r="8.40373" stroke-width="0.5" stroke="black" fill="grey"/>
  <circle cx="660.247" cy="652.711" r="5.04889" stroke-width="0.5" stroke="grey" fill="grey"/>
   </g>
   <g id="cell103">
  <circle cx="837.098" cy="863.822" r="10.0631" stroke-width="0.5" stroke="black" fill="yellow"/>
  <circle cx="837.098" cy="863.822" r="6.10076" stroke-width="0.5" stroke="yellow" fill="yellow"/>
   </g>
   <g id="cell135">
  <circle cx="137.997" cy="808.612" r="8.3931" stroke-width="0.5" stroke="black" fill="yellow"/>
  <circle cx="137.997" cy="808.612" r="5.04502" stroke-width="0.5" stroke="yellow" fill="yellow"/>
   </g>
   <g id="cell185">
  <circle cx="821.535" cy="390.439" r="10.5251" stroke-width="0.5" stroke="black" fill="yellow"/>
  <circle cx="821.535" cy="390.439" r="6.336" stroke-width="0.5" stroke="yellow" fill="yellow"/>
   </g>
   <g id="cell7">
  <circle cx="825.018" cy="468.74" r="8.40049" stroke-width="0.5" stroke="black" fill="grey"/>
  <circle cx="825.018" cy="468.74" r="5.04775" stroke-width="0.5" stroke="grey" fill="grey"/>
   </g>
   <g id="cell192">
  <circle cx="820.103" cy="414.824" r="10.3927" stroke-width="0.5" stroke="black" fill="yellow"/>
  <circle cx="820.103" cy="414.824" r="6.27403" stroke-width="0.5" stroke="yellow" fill="yellow"/>
   </g>
   <g id="cell231">
  <circle cx="461.286" cy="968.207" r="8.39834" stroke-width="0.5" stroke="black" fill="yellow"/>
  <circle cx="461.286" cy="968.207" r="5.04696" stroke-width="0.5" stroke="yellow" fill="yellow"/>
   </g>
   <g id="cell176">
  <circle cx="259.758" cy="48.2365" r="10.514" stroke-width="0.5" stroke="black" fill="red"/>
  <circle cx="259.758" cy="48.2365" r="6.33109" stroke-width="0.5" stroke="red" fill="red"/>
   </g>
   <g id="cell186">
  <circle cx="90.2853" cy="555.633" r="9.4097" stroke-width="0.5" stroke="black" fill="yellow"/>
  <circle cx="90.2853" cy="555.633" r="5.71971" stroke-width="0.5" stroke="yellow" fill="yellow"/>
   </g>
   <g id="cell104">
  <circle cx="773.653" cy="421.073" r="8.504" stroke-width="0.5" stroke="black" fill="yellow"/>
  <circle cx="773.653" cy="421.073" r="5.12285" stroke-width="0.5" stroke="yellow" fill="yellow"/>
   </g>
   <g id="cell102">
  <circle cx="681.819" cy="156.445" r="10.5584" stroke-width="0.5" stroke="black" fill="yellow"/>
  <circle cx="681.819" cy="156.445" r="6.34994" stroke-width="0.5" stroke="yellow" fill="yellow"/>
   </g>
   <g id="cell98">
  <circle cx="876.336" cy="367.106" r="10.5384" stroke-width="0.5" stroke="black" fill="yellow"/>
  <circle cx="876.336" cy="367.106" r="6.3417" stroke-width="0.5" stroke="yellow" fill="yellow"/>
   </g>
   <g id="cell97">
  <circle cx="424.075" cy="94.0006" r="10.525" stroke-width="0.5" stroke="black" fill="yellow"/>
  <circle cx="424.075" cy="94.0006" r="6.33597" stroke-width="0.5" stroke="yellow" fill="yellow"/>
   </g>
   <g id="cell237">
  <circle cx="644.457" cy="607.41" r="8.39704" stroke-width="0.5" stroke="black" fill="grey"/>
  <circle cx="644.457" cy="607.41" r="5.04649" stroke-width="0.5" stroke="grey" fill="grey"/>
   </g>
   <g id="cell116">
  <circle cx="789.44" cy="460.112" r="10.4253" stroke-width="0.5" stroke="black" fill="yellow"/>
  <circle cx="789.44" cy="460.112" r="6.28992" stroke-width="0.5" stroke="yellow" fill="yellow"/>
   </g>
   <g id="cell177">
  <circle cx="443.548" cy="309.01" r="10.3165" stroke-width="0.5" stroke="black" fill="red"/>
  <circle cx="443.548" cy="309.01" r="6.23557" stroke-width="0.5" stroke="red" fill="red"/>
   </g>
   <g id="cell101">
  <circle cx="153.082" cy="149.36" r="9.08476" stroke-width="0.5" stroke="black" fill="yellow"/>
  <circle cx="153.082" cy="149.36" r="5.51788" stroke-width="0.5" stroke="yellow" fill="yellow"/>
   </g>
   <g id="cell184">
  <circle cx="514.669" cy="317.355" r="8.38513" stroke-width="0.5" stroke="black" fill="red"/>
  <circle cx="514.669" cy="317.355" r="5.04194" stroke-width="0.5" stroke="red" fill="red"/>
   </g>
   <g id="cell99">
  <circle cx="516.968" cy="982.463" r="10.5546" stroke-width="0.5" stroke="black" fill="yellow"/>
  <circle cx="516.968" cy="982.463" r="6.34845" stroke-width="0.5" stroke="yellow" fill="yellow"/>
   </g>
   <g id="cell115">
  <circle cx="249.302" cy="61.092" r="8.39253" stroke-width="0.5" stroke="black" fill="yellow"/>
  <circle cx="249.302" cy="61.092" r="5.0448" stroke-width="0.5" stroke="yellow" fill="yellow"/>
   </g>
   <g id="cell191">
  <circle cx="741.027" cy="123.012" r="10.5088" stroke-width="0.5" stroke="black" fill="grey"/>
  <circle cx="741.027" cy="123.012" r="6.32882" stroke-width="0.5" stroke="grey" fill="grey"/>
   </g>
   <g id="cell153">
  <circle cx="193.88" cy="378.506" r="8.39943" stroke-width="0.5" stroke="black" fill="red"/>
  <circle cx="193.88" cy="378.506" r="5.04737" stroke-width="0.5" stroke="red" fill="red"/>
   </g>
   <g id="cell105">
  <circle cx="75.4428" cy="387.655" r="10.2979" stroke-width="0.5" stroke="black" fill="yellow"/>
  <circle cx="75.4428" cy="387.655" r="6.22643" stroke-width="0.5" stroke="yellow" fill="yellow"/>
   </g>
   <g id="cell211">
  <circle cx="662.039" cy="643.989" r="9.33564" stroke-width="0.5" stroke="black" fill="grey"/>
  <circle cx="662.039" cy="643.989" r="5.67632" stroke-width="0.5" stroke="grey" fill="grey"/>
   </g>
   <g id="cell117">
  <circle cx="845.834" cy="366.612" r="8.41211" stroke-width="0.5" stroke="black" fill="yellow"/>
  <circle cx="845.834" cy="366.612" r="5.05153" stroke-width="0.5" stroke="yellow" fill="yellow"/>
   </g>
   <g id="cell28">
  <circle cx="699.233" cy="117.954" r="9.47421" stroke-width="0.5" stroke="black" fill="grey"/>
  <circle cx="699.233" cy="117.954" r="5.75873" stroke-width="0.5" stroke="grey" fill="grey"/>
   </g>
   <g id="cell29">
  <circle cx="980.642" cy="647.07" r="10.5607" stroke-width="0.5" stroke="black" fill="grey"/>
  <circle cx="980.642" cy="647.07" r="6.35086" stroke-width="0.5" stroke="grey" fill="grey"/>
   </g>
   <g id="cell30">
  <circle cx="756.432" cy="141.202" r="10.3079" stroke-width="0.5" stroke="black" fill="grey"/>
  <circle cx="756.432" cy="141.202" r="6.23125" stroke-width="0.5" stroke="grey" fill="grey"/>
   </g>
   <g id="cell190">
  <circle cx="442.54" cy="135.884" r="8.41206" stroke-width="0.5" stroke="black" fill="yellow"/>
  <circle cx="442.54" cy="135.884" r="5.05151" stroke-width="0.5" stroke="yellow" fill="yellow"/>
   </g>
   <g id="cell114">
  <circle cx="71.3049" cy="353.486" r="10.5521" stroke-width="0.5" stroke="black" fill="yellow"/>
  <circle cx="71.3049" cy="353.486" r="6.34741" stroke-width="0.5" stroke="yellow" fill="yellow"/>
   </g>
   <g id="cell107">
  <circle cx="395.365" cy="489.013" r="9.67444" stroke-width="0.5" stroke="black" fill="yellow"/>
  <circle cx="395.365" cy="489.013" r="5.87855" stroke-width="0.5" stroke="yellow" fill="yellow"/>
   </g>
   <g id="cell106">
  <circle cx="35.6064" cy="911.588" r="9.22852" stroke-width="0.5" stroke="black" fill="yellow"/>
  <circle cx="35.6064" cy="911.588" r="5.61034" stroke-width="0.5" stroke="yellow" fill="yellow"/>
   </g>
   <g id="cell35">
  <circle cx="935.908" cy="52.4818" r="10.1479" stroke-width="0.5" stroke="black" fill="grey"/>
  <circle cx="935.908" cy="52.4818" r="6.1472" stroke-width="0.5" stroke="grey" fill="grey"/>
   </g>
   <g id="cell109">
  <circle cx="409.383" cy="970.407" r="10.476" stroke-width="0.5" stroke="black" fill="yellow"/>
  <circle cx="409.383" cy="970.407" r="6.31385" stroke-width="0.5" stroke="yellow" fill="yellow"/>
   </g>
   <g id="cell111">
  <circle cx="793.644" cy="420.442" r="8.41206" stroke-width="0.5" stroke="black" fill="yellow"/>
  <circle cx="793.644" cy="420.442" r="5.05151" stroke-width="0.5" stroke="yellow" fill="yellow"/>
   </g>
   <g id="cell131">
  <circle cx="644.199" cy="588.724" r="9.03391" stroke-width="0.5" stroke="black" fill="grey"/>
  <circle cx="644.199" cy="588.724" r="5.48868" stroke-width="0.5" stroke="grey" fill="grey"/>
   </g>
   <g id="cell110">
  <circle cx="896.901" cy="243.408" r="9.99813" stroke-width="0.5" stroke="black" fill="yellow"/>
  <circle cx="896.901" cy="243.408" r="6.06454" stroke-width="0.5" stroke="yellow" fill="yellow"/>
   </g>
   <g id="cell40">
  <circle cx="160.012" cy="415.546" r="8.39611" stroke-width="0.5" stroke="black" fill="red"/>
  <circle cx="160.012" cy="415.546" r="5.04615" stroke-width="0.5" stroke="red" fill="red"/>
   </g>
   <g id="cell41">
  <circle cx="677.245" cy="710.446" r="8.44218" stroke-width="0.5" stroke="black" fill="red"/>
  <circle cx="677.245" cy="710.446" r="5.07842" stroke-width="0.5" stroke="red" fill="red"/>
   </g>
   <g id="cell42">
  <circle cx="143.281" cy="724.347" r="8.38676" stroke-width="0.5" stroke="black" fill="red"/>
  <circle cx="143.281" cy="724.347" r="5.04257" stroke-width="0.5" stroke="red" fill="red"/>
   </g>
   <g id="cell43">
  <circle cx="883.462" cy="379.434" r="8.38669" stroke-width="0.5" stroke="black" fill="red"/>
  <circle cx="883.462" cy="379.434" r="5.04255" stroke-width="0.5" stroke="red" fill="red"/>
   </g>
   <g id="cell44">
  <circle cx="829.356" cy="37.5671" r="8.38815" stroke-width="0.5" stroke="black" fill="red"/>
  <circle cx="829.356" cy="37.5671" r="5.04312" stroke-width="0.5" stroke="red" fill="red"/>
   </g>
   <g id="cell45">
  <circle cx="701.205" cy="829.636" r="10.4305" stroke-width="0.5" stroke="black" fill="red"/>
  <circle cx="701.205" cy="829.636" r="6.29236" stroke-width="0.5" stroke="red" fill="red"/>
   </g>
   <g id="cell46">
  <circle cx="83.2319" cy="913.077" r="10.3872" stroke-width="0.5" stroke="black" fill="red"/>
  <circle cx="83.2319" cy="913.077" r="6.27119" stroke-width="0.5" stroke="red" fill="red"/>
   </g>
   <g id="cell47">
  <circle cx="918.347" cy="464.578" r="8.39467" stroke-width="0.5" stroke="black" fill="red"/>
  <circle cx="918.347" cy="464.578" r="5.04561" stroke-width="0.5" stroke="red" fill="red"/>
   </g>
   <g id="cell48">
  <circle cx="941.867" cy="13.7325" r="8.40445" stroke-width="0.5" stroke="black" fill="red"/>
  <circle cx="941.867" cy="13.7325" r="5.04913" stroke-width="0.5" stroke="red" fill="red"/>
   </g>
   <g id="cell49">
  <circle cx="477.362" cy="807.819" r="10.545" stroke-width="0.5" stroke="black" fill="red"/>
  <circle cx="477.362" cy="807.819" r="6.34446" stroke-width="0.5" stroke="red" fill="red"/>
   </g>
   <g id="cell50">
  <circle cx="20.2515" cy="438.462" r="8.3914" stroke-width="0.5" stroke="black" fill="red"/>
  <circle cx="20.2515" cy="438.462" r="5.04436" stroke-width="0.5" stroke="red" fill="red"/>
   </g>
   <g id="cell51">
  <circle cx="836.331" cy="161.055" r="8.40181" stroke-width="0.5" stroke="black" fill="red"/>
  <circle cx="836.331" cy="161.055" r="5.04821" stroke-width="0.5" stroke="red" fill="red"/>
   </g>
   <g id="cell96">
  <circle cx="833.996" cy="575.59" r="8.49436" stroke-width="0.5" stroke="black" fill="yellow"/>
  <circle cx="833.996" cy="575.59" r="5.11934" stroke-width="0.5" stroke="yellow" fill="yellow"/>
   </g>
   <g id="cell53">
  <circle cx="650.097" cy="268.574" r="8.60679" stroke-width="0.5" stroke="black" fill="red"/>
  <circle cx="650.097" cy="268.574" r="5.19826" stroke-width="0.5" stroke="red" fill="red"/>
   </g>
   <g id="cell54">
  <circle cx="417.363" cy="919.597" r="8.41251" stroke-width="0.5" stroke="black" fill="red"/>
  <circle cx="417.363" cy="919.597" r="5.05163" stroke-width="0.5" stroke="red" fill="red"/>
   </g>
   <g id="cell55">
  <circle cx="206.646" cy="646.455" r="9.7264" stroke-width="0.5" stroke="black" fill="red"/>
  <circle cx="206.646" cy="646.455" r="5.90881" stroke-width="0.5" stroke="red" fill="red"/>
   </g>
   <g id="cell56">
  <circle cx="653.569" cy="846.356" r="8.39867" stroke-width="0.5" stroke="black" fill="red"/>
  <circle cx="653.569" cy="846.356" r="5.04709" stroke-width="0.5" stroke="red" fill="red"/>
   </g>
   <g id="cell57">
  <circle cx="460.802" cy="543.507" r="8.40016" stroke-width="0.5" stroke="black" fill="red"/>
  <circle cx="460.802" cy="543.507" r="5.04763" stroke-width="0.5" stroke="red" fill="red"/>
   </g>
   <g id="cell58">
  <circle cx="9.12396" cy="857.946" r="8.39306" stroke-width="0.5" stroke="black" fill="red"/>
  <circle cx="9.12396" cy="857.946" r="5.04501" stroke-width="0.5" stroke="red" fill="red"/>
   </g>
   <g id="cell59">
  <circle cx="41.9046" cy="918.373" r="8.39512" stroke-width="0.5" stroke="black" fill="red"/>
  <circle cx="41.9046" cy="918.373" r="5.04578" stroke-width="0.5" stroke="red" fill="red"/>
   </g>
   <g id="cell60">
  <circle cx="225.303" cy="30.9061" r="3.55577" stroke-width="0.5" stroke="black" fill="red"/>
  <circle cx="225.303" cy="30.9061" r="2.99847" stroke-width="0.5" stroke="black" fill="black"/>
   </g>
   <g id="cell61">
  <circle cx="775.816" cy="126.142" r="10.4571" stroke-width="0.5" stroke="black" fill="red"/>
  <circle cx="775.816" cy="126.142" r="6.30504" stroke-width="0.5" stroke="red" fill="red"/>
   </g>
   <g id="cell62">
  <circle cx="726.244" cy="803.621" r="8.39473" stroke-width="0.5" stroke="black" fill="red"/>
  <circle cx="726.244" cy="803.621" r="5.04562" stroke-width="0.5" stroke="red" fill="red"/>
   </g>
   <g id="cell63">
  <circle cx="338.343" cy="161.645" r="10.5495" stroke-width="0.5" stroke="black" fill="red"/>
  <circle cx="338.343" cy="161.645" r="6.34631" stroke-width="0.5" stroke="red" fill="red"/>
   </g>
   <g id="cell64">
  <circle cx="643.241" cy="506.183" r="8.40244" stroke-width="0.5" stroke="black" fill="red"/>
  <circle cx="643.241" cy="506.183" r="5.04843" stroke-width="0.5" stroke="red" fill="red"/>
   </g>
   <g id="cell188">
  <circle cx="854.594" cy="398.588" r="10.4685" stroke-width="0.5" stroke="black" fill="yellow"/>
  <circle cx="854.594" cy="398.588" r="6.31043" stroke-width="0.5" stroke="yellow" fill="yellow"/>
   </g>
   <g id="cell66">
  <circle cx="33.6108" cy="114.042" r="8.40797" stroke-width="0.5" stroke="black" fill="red"/>
  <circle cx="33.6108" cy="114.042" r="5.05699" stroke-width="0.5" stroke="red" fill="red"/>
   </g>
   <g id="cell197">
  <circle cx="741.364" cy="682.168" r="9.81996" stroke-width="0.5" stroke="black" fill="yellow"/>
  <circle cx="741.364" cy="682.168" r="5.96339" stroke-width="0.5" stroke="yellow" fill="yellow"/>
   </g>
   <g id="cell68">
  <circle cx="782.369" cy="230.22" r="8.39518" stroke-width="0.5" stroke="black" fill="red"/>
  <circle cx="782.369" cy="230.22" r="5.0458" stroke-width="0.5" stroke="red" fill="red"/>
   </g>
   <g id="cell69">
  <circle cx="402.923" cy="268.112" r="10.1632" stroke-width="0.5" stroke="black" fill="red"/>
  <circle cx="402.923" cy="268.112" r="6.15485" stroke-width="0.5" stroke="red" fill="red"/>
   </g>
   <g id="cell70">
  <circle cx="533.563" cy="381.377" r="10.5535" stroke-width="0.5" stroke="black" fill="red"/>
  <circle cx="533.563" cy="381.377" r="6.34796" stroke-width="0.5" stroke="red" fill="red"/>
   </g>
   <g id="cell71">
  <circle cx="935.899" cy="500.468" r="9.26647" stroke-width="0.5" stroke="black" fill="red"/>
  <circle cx="935.899" cy="500.468" r="5.63343" stroke-width="0.5" stroke="red" fill="red"/>
   </g>
   <g id="cell72">
  <circle cx="190.51" cy="922.261" r="8.40015" stroke-width="0.5" stroke="black" fill="red"/>
  <circle cx="190.51" cy="922.261" r="5.04763" stroke-width="0.5" stroke="red" fill="red"/>
   </g>
   <g id="cell73">
  <circle cx="617.294" cy="442.32" r="8.38748" stroke-width="0.5" stroke="black" fill="red"/>
  <circle cx="617.294" cy="442.32" r="5.04285" stroke-width="0.5" stroke="red" fill="red"/>
   </g>
   <g id="cell74">
  <circle cx="860.509" cy="945.99" r="10.5091" stroke-width="0.5" stroke="black" fill="red"/>
  <circle cx="860.509" cy="945.99" r="6.3289" stroke-width="0.5" stroke="red" fill="red"/>
   </g>
   <g id="cell75">
  <circle cx="133.726" cy="294.683" r="8.79562" stroke-width="0.5" stroke="black" fill="red"/>
  <circle cx="133.726" cy="294.683" r="5.33161" stroke-width="0.5" stroke="red" fill="red"/>
   </g>
   <g id="cell76">
  <circle cx="772.975" cy="425.878" r="10.5332" stroke-width="0.5" stroke="black" fill="red"/>
  <circle cx="772.975" cy="425.878" r="6.33945" stroke-width="0.5" stroke="red" fill="red"/>
   </g>
   <g id="cell77">
  <circle cx="677.941" cy="837.71" r="8.38883" stroke-width="0.5" stroke="black" fill="red"/>
  <circle cx="677.941" cy="837.71" r="5.04338" stroke-width="0.5" stroke="red" fill="red"/>
   </g>
   <g id="cell78">
  <circle cx="601.534" cy="298.293" r="8.38599" stroke-width="0.5" stroke="black" fill="red"/>
  <circle cx="601.534" cy="298.293" r="5.04227" stroke-width="0.5" stroke="red" fill="red"/>
   </g>
   <g id="cell79">
  <circle cx="976.848" cy="689.903" r="10.5331" stroke-width="0.5" stroke="black" fill="red"/>
  <circle cx="976.848" cy="689.903" r="6.33943" stroke-width="0.5" stroke="red" fill="red"/>
   </g>
   <g id="cell80">
  <circle cx="739.171" cy="713.058" r="10.2803" stroke-width="0.5" stroke="black" fill="yellow"/>
  <circle cx="739.171" cy="713.058" r="6.21729" stroke-width="0.5" stroke="yellow" fill="yellow"/>
   </g>
   <g id="cell81">
  <circle cx="472.938" cy="956.376" r="8.39834" stroke-width="0.5" stroke="black" fill="yellow"/>
  <circle cx="472.938" cy="956.376" r="5.04696" stroke-width="0.5" stroke="yellow" fill="yellow"/>
   </g>
   <g id="cell82">
  <circle cx="626.377" cy="406.298" r="8.99977" stroke-width="0.5" stroke="black" fill="yellow"/>
  <circle cx="626.377" cy="406.298" r="5.4653" stroke-width="0.5" stroke="yellow" fill="yellow"/>
   </g>
   <g id="cell83">
  <circle cx="588.092" cy="597.918" r="8.49489" stroke-width="0.5" stroke="black" fill="yellow"/>
  <circle cx="588.092" cy="597.918" r="5.11954" stroke-width="0.5" stroke="yellow" fill="yellow"/>
   </g>
   <g id="cell84">
  <circle cx="26.8667" cy="482.901" r="10.5402" stroke-width="0.5" stroke="black" fill="yellow"/>
  <circle cx="26.8667" cy="482.901" r="6.34244" stroke-width="0.5" stroke="yellow" fill="yellow"/>
   </g>
   <g id="cell238">
  <circle cx="135.431" cy="400.388" r="8.39611" stroke-width="0.5" stroke="black" fill="red"/>
  <circle cx="135.431" cy="400.388" r="5.04615" stroke-width="0.5" stroke="red" fill="red"/>
   </g>
   <g id="cell86">
  <circle cx="354.974" cy="407.035" r="10.4044" stroke-width="0.5" stroke="black" fill="yellow"/>
  <circle cx="354.974" cy="407.035" r="6.27972" stroke-width="0.5" stroke="yellow" fill="yellow"/>
   </g>
   <g id="cell87">
  <circle cx="804.236" cy="381.606" r="10.4354" stroke-width="0.5" stroke="black" fill="yellow"/>
  <circle cx="804.236" cy="381.606" r="6.29469" stroke-width="0.5" stroke="yellow" fill="yellow"/>
   </g>
   <g id="cell200">
  <circle cx="987.403" cy="99.2823" r="8.40884" stroke-width="0.5" stroke="black" fill="grey"/>
  <circle cx="987.403" cy="99.2823" r="5.05057" stroke-width="0.5" stroke="grey" fill="grey"/>
   </g>
   <g id="cell89">
  <circle cx="48.2845" cy="566.36" r="10.5311" stroke-width="0.5" stroke="black" fill="yellow"/>
  <circle cx="48.2845" cy="566.36" r="6.3386" stroke-width="0.5" stroke="yellow" fill="yellow"/>
   </g>
   <g id="cell193">
  <circle cx="170.678" cy="662.197" r="10.4347" stroke-width="0.5" stroke="black" fill="red"/>
  <circle cx="170.678" cy="662.197" r="6.29449" stroke-width="0.5" stroke="red" fill="red"/>
   </g>
   <g id="cell91">
  <circle cx="10.1383" cy="618.813" r="10.3398" stroke-width="0.5" stroke="black" fill="yellow"/>
  <circle cx="10.1383" cy="618.813" r="6.24748" stroke-width="0.5" stroke="yellow" fill="yellow"/>
   </g>
   <g id="cell92">
  <circle cx="689.284" cy="265.808" r="8.39012" stroke-width="0.5" stroke="black" fill="yellow"/>
  <circle cx="689.284" cy="265.808" r="5.04388" stroke-width="0.5" stroke="yellow" fill="yellow"/>
   </g>
   <g id="cell93">
  <circle cx="209.949" cy="855.233" r="10.34" stroke-width="0.5" stroke="black" fill="yellow"/>
  <circle cx="209.949" cy="855.233" r="6.24752" stroke-width="0.5" stroke="yellow" fill="yellow"/>
   </g>
   <g id="cell94">
  <circle cx="388.912" cy="101.216" r="10.5465" stroke-width="0.5" stroke="black" fill="yellow"/>
  <circle cx="388.912" cy="101.216" r="6.34509" stroke-width="0.5" stroke="yellow" fill="yellow"/>
   </g>
   <g id="cell95">
  <circle cx="958.729" cy="896.357" r="8.67241" stroke-width="0.5" stroke="black" fill="yellow"/>
  <circle cx="958.729" cy="896.357" r="5.24827" stroke-width="0.5" stroke="yellow" fill="yellow"/>
   </g>
   <g id="cell121">
  <circle cx="44.8253" cy="484.14" r="10.1238" stroke-width="0.5" stroke="black" fill="red"/>
  <circle cx="44.8253" cy="484.14" r="6.13345" stroke-width="0.5" stroke="red" fill="red"/>
   </g>
   <g id="cell122">
  <circle cx="694.725" cy="393.469" r="8.40323" stroke-width="0.5" stroke="black" fill="yellow"/>
  <circle cx="694.725" cy="393.469" r="5.04871" stroke-width="0.5" stroke="yellow" fill="yellow"/>
   </g>
   <g id="cell123">
  <circle cx="306.522" cy="908.118" r="10.3083" stroke-width="0.5" stroke="black" fill="yellow"/>
  <circle cx="306.522" cy="908.118" r="6.23136" stroke-width="0.5" stroke="yellow" fill="yellow"/>
   </g>
   <g id="cell124">
  <circle cx="446.654" cy="630.952" r="8.39079" stroke-width="0.5" stroke="black" fill="grey"/>
  <circle cx="446.654" cy="630.952" r="5.04413" stroke-width="0.5" stroke="grey" fill="grey"/>
   </g>
   <g id="cell125">
  <circle cx="805.092" cy="441.991" r="9.79345" stroke-width="0.5" stroke="black" fill="yellow"/>
  <circle cx="805.092" cy="441.991" r="5.949" stroke-width="0.5" stroke="yellow" fill="yellow"/>
   </g>
   <g id="cell126">
  <circle cx="935.783" cy="190.121" r="8.38887" stroke-width="0.5" stroke="black" fill="red"/>
  <circle cx="935.783" cy="190.121" r="5.04339" stroke-width="0.5" stroke="red" fill="red"/>
   </g>
   <g id="cell127">
  <circle cx="906.669" cy="550.274" r="8.92055" stroke-width="0.5" stroke="black" fill="red"/>
  <circle cx="906.669" cy="550.274" r="5.41354" stroke-width="0.5" stroke="red" fill="red"/>
   </g>
   <g id="cell128">
  <circle cx="932.319" cy="41.5526" r="10.5617" stroke-width="0.5" stroke="black" fill="red"/>
  <circle cx="932.319" cy="41.5526" r="6.35129" stroke-width="0.5" stroke="red" fill="red"/>
   </g>
   <g id="cell129">
  <circle cx="981.032" cy="676.633" r="1.56979" stroke-width="0.5" stroke="black" fill="grey"/>
  <circle cx="981.032" cy="676.633" r="1.56229" stroke-width="0.5" stroke="black" fill="black"/>
   </g>
   <g id="cell130">
  <circle cx="958.279" cy="596.764" r="8.45597" stroke-width="0.5" stroke="black" fill="yellow"/>
  <circle cx="958.279" cy="596.764" r="5.08294" stroke-width="0.5" stroke="yellow" fill="yellow"/>
   </g>
   <g id="cell132">
  <circle cx="52.3437" cy="934.026" r="8.39789" stroke-width="0.5" stroke="black" fill="red"/>
  <circle cx="52.3437" cy="934.026" r="5.0468" stroke-width="0.5" stroke="red" fill="red"/>
   </g>
   <g id="cell133">
  <circle cx="649.069" cy="386.973" r="10.5351" stroke-width="0.5" stroke="black" fill="red"/>
  <circle cx="649.069" cy="386.973" r="6.34026" stroke-width="0.5" stroke="red" fill="red"/>
   </g>
   <g id="cell201">
  <circle cx="492.822" cy="618.906" r="9.94075" stroke-width="0.5" stroke="black" fill="grey"/>
  <circle cx="492.822" cy="618.906" r="6.03299" stroke-width="0.5" stroke="grey" fill="grey"/>
   </g>
   <g id="cell136">
  <circle cx="687.553" cy="475.476" r="8.43436" stroke-width="0.5" stroke="black" fill="red"/>
  <circle cx="687.553" cy="475.476" r="5.07549" stroke-width="0.5" stroke="red" fill="red"/>
   </g>
   <g id="cell137">
  <circle cx="750.34" cy="671.773" r="10.4924" stroke-width="0.5" stroke="black" fill="yellow"/>
  <circle cx="750.34" cy="671.773" r="6.32137" stroke-width="0.5" stroke="yellow" fill="yellow"/>
   </g>
   <g id="cell138">
  <circle cx="702.234" cy="246.855" r="8.96104" stroke-width="0.5" stroke="black" fill="red"/>
  <circle cx="702.234" cy="246.855" r="5.43988" stroke-width="0.5" stroke="red" fill="red"/>
   </g>
   <g id="cell139">
  <circle cx="797.917" cy="737.163" r="10.1878" stroke-width="0.5" stroke="black" fill="yellow"/>
  <circle cx="797.917" cy="737.163" r="6.16805" stroke-width="0.5" stroke="yellow" fill="yellow"/>
   </g>
   <g id="cell140">
  <circle cx="118.628" cy="337.602" r="9.0399" stroke-width="0.5" stroke="black" fill="red"/>
  <circle cx="118.628" cy="337.602" r="5.49094" stroke-width="0.5" stroke="red" fill="red"/>
   </g>
   <g id="cell141">
  <circle cx="12.6447" cy="982.612" r="9.58661" stroke-width="0.5" stroke="black" fill="yellow"/>
  <circle cx="12.6447" cy="982.612" r="5.82801" stroke-width="0.5" stroke="yellow" fill="yellow"/>
   </g>
   <g id="cell142">
  <circle cx="692.351" cy="690.732" r="8.4126" stroke-width="0.5" stroke="black" fill="red"/>
  <circle cx="692.351" cy="690.732" r="5.05165" stroke-width="0.5" stroke="red" fill="red"/>
   </g>
   <g id="cell143">
  <circle cx="111.435" cy="713.877" r="10.4572" stroke-width="0.5" stroke="black" fill="red"/>
  <circle cx="111.435" cy="713.877" r="6.30505" stroke-width="0.5" stroke="red" fill="red"/>
   </g>
   <g id="cell144">
  <circle cx="661.025" cy="153.577" r="8.39944" stroke-width="0.5" stroke="black" fill="grey"/>
  <circle cx="661.025" cy="153.577" r="5.04737" stroke-width="0.5" stroke="grey" fill="grey"/>
   </g>
   <g id="cell145">
  <circle cx="559.499" cy="493.032" r="10.3872" stroke-width="0.5" stroke="black" fill="red"/>
  <circle cx="559.499" cy="493.032" r="6.27119" stroke-width="0.5" stroke="red" fill="red"/>
   </g>
   <g id="cell146">
  <circle cx="317.869" cy="201.283" r="8.63684" stroke-width="0.5" stroke="black" fill="red"/>
  <circle cx="317.869" cy="201.283" r="5.22229" stroke-width="0.5" stroke="red" fill="red"/>
   </g>
   <g id="cell147">
  <circle cx="677.841" cy="374.485" r="10.5011" stroke-width="0.5" stroke="black" fill="yellow"/>
  <circle cx="677.841" cy="374.485" r="6.32532" stroke-width="0.5" stroke="yellow" fill="yellow"/>
   </g>
   <g id="cell148">
  <circle cx="248.648" cy="765.173" r="9.66904" stroke-width="0.5" stroke="black" fill="grey"/>
  <circle cx="248.648" cy="765.173" r="5.8767" stroke-width="0.5" stroke="grey" fill="grey"/>
   </g>
   <g id="cell149">
  <circle cx="868.86" cy="460.666" r="8.40178" stroke-width="0.5" stroke="black" fill="red"/>
  <circle cx="868.86" cy="460.666" r="5.04821" stroke-width="0.5" stroke="red" fill="red"/>
   </g>
   <g id="cell150">
  <circle cx="176.349" cy="43.1711" r="10.5584" stroke-width="0.5" stroke="black" fill="yellow"/>
  <circle cx="176.349" cy="43.1711" r="6.34995" stroke-width="0.5" stroke="yellow" fill="yellow"/>
   </g>
   <g id="cell151">
  <circle cx="201.076" cy="882.956" r="10.5333" stroke-width="0.5" stroke="black" fill="red"/>
  <circle cx="201.076" cy="882.956" r="6.33946" stroke-width="0.5" stroke="red" fill="red"/>
   </g>
   <g id="cell152">
  <circle cx="591.578" cy="862.658" r="9.298" stroke-width="0.5" stroke="black" fill="red"/>
  <circle cx="591.578" cy="862.658" r="5.65389" stroke-width="0.5" stroke="red" fill="red"/>
   </g>
   <g id="cell154">
  <circle cx="874.857" cy="17.5133" r="10.556" stroke-width="0.5" stroke="black" fill="red"/>
  <circle cx="874.857" cy="17.5133" r="6.34899" stroke-width="0.5" stroke="red" fill="red"/>
   </g>
   <g id="cell155">
  <circle cx="648.387" cy="885.652" r="8.56505" stroke-width="0.5" stroke="black" fill="red"/>
  <circle cx="648.387" cy="885.652" r="5.17011" stroke-width="0.5" stroke="red" fill="red"/>
   </g>
   <g id="cell156">
  <circle cx="886.715" cy="511.462" r="1.48893" stroke-width="0.5" stroke="black" fill="grey"/>
  <circle cx="886.715" cy="511.462" r="1.48357" stroke-width="0.5" stroke="black" fill="black"/>
   </g>
   <g id="cell157">
  <circle cx="608.265" cy="658.185" r="10.5522" stroke-width="0.5" stroke="black" fill="yellow"/>
  <circle cx="608.265" cy="658.185" r="6.34743" stroke-width="0.5" stroke="yellow" fill="yellow"/>
   </g>
   <g id="cell198">
  <circle cx="58.4092" cy="422.596" r="10.2201" stroke-width="0.5" stroke="black" fill="yellow"/>
  <circle cx="58.4092" cy="422.596" r="6.18572" stroke-width="0.5" stroke="yellow" fill="yellow"/>
   </g>
   <g id="cell159">
  <circle cx="694.059" cy="283.028" r="10.5313" stroke-width="0.5" stroke="black" fill="yellow"/>
  <circle cx="694.059" cy="283.028" r="6.33864" stroke-width="0.5" stroke="yellow" fill="yellow"/>
   </g>
   <g id="cell160">
  <circle cx="646.395" cy="300.707" r="10.5572" stroke-width="0.5" stroke="black" fill="red"/>
  <circle cx="646.395" cy="300.707" r="6.34947" stroke-width="0.5" stroke="red" fill="red"/>
   </g>
   <g id="cell199">
  <circle cx="819.079" cy="859.821" r="8.7647" stroke-width="0.5" stroke="black" fill="yellow"/>
  <circle cx="819.079" cy="859.821" r="5.30764" stroke-width="0.5" stroke="yellow" fill="yellow"/>
   </g>
   <g id="cell162">
  <circle cx="842.28" cy="91.4119" r="8.39864" stroke-width="0.5" stroke="black" fill="red"/>
  <circle cx="842.28" cy="91.4119" r="5.04708" stroke-width="0.5" stroke="red" fill="red"/>
   </g>
   <g id="cell163">
  <circle cx="413.945" cy="963.186" r="8.39784" stroke-width="0.5" stroke="black" fill="red"/>
  <circle cx="413.945" cy="963.186" r="5.04679" stroke-width="0.5" stroke="red" fill="red"/>
   </g>
   <g id="cell164">
  <circle cx="818.367" cy="947.598" r="10.4444" stroke-width="0.5" stroke="black" fill="red"/>
  <circle cx="818.367" cy="947.598" r="6.29902" stroke-width="0.5" stroke="red" fill="red"/>
   </g>
   <g id="cell165">
  <circle cx="819.982" cy="384.991" r="8.39741" stroke-width="0.5" stroke="black" fill="red"/>
  <circle cx="819.982" cy="384.991" r="5.04663" stroke-width="0.5" stroke="red" fill="red"/>
   </g>
   <g id="cell166">
  <circle cx="770.731" cy="494.6" r="8.39698" stroke-width="0.5" stroke="black" fill="yellow"/>
  <circle cx="770.731" cy="494.6" r="5.04647" stroke-width="0.5" stroke="yellow" fill="yellow"/>
   </g>
   <g id="cell167">
  <circle cx="601.057" cy="123.243" r="10.5435" stroke-width="0.5" stroke="black" fill="yellow"/>
  <circle cx="601.057" cy="123.243" r="6.34382" stroke-width="0.5" stroke="yellow" fill="yellow"/>
   </g>
   <g id="cell168">
  <circle cx="935.707" cy="879.595" r="8.39133" stroke-width="0.5" stroke="black" fill="yellow"/>
  <circle cx="935.707" cy="879.595" r="5.04435" stroke-width="0.5" stroke="yellow" fill="yellow"/>
   </g>
   <g id="cell169">
  <circle cx="334.426" cy="961.058" r="8.3867" stroke-width="0.5" stroke="black" fill="yellow"/>
  <circle cx="334.426" cy="961.058" r="5.04255" stroke-width="0.5" stroke="yellow" fill="yellow"/>
   </g>
   <g id="cell170">
  <circle cx="49.1468" cy="984.614" r="10.1372" stroke-width="0.5" stroke="black" fill="red"/>
  <circle cx="49.1468" cy="984.614" r="6.14081" stroke-width="0.5" stroke="red" fill="red"/>
   </g>
   <g id="cell171">
  <circle cx="512.908" cy="398.521" r="8.38812" stroke-width="0.5" stroke="black" fill="red"/>
  <circle cx="512.908" cy="398.521" r="5.04311" stroke-width="0.5" stroke="red" fill="red"/>
   </g>
   <g id="cell172">
  <circle cx="458.183" cy="799.589" r="8.38945" stroke-width="0.5" stroke="black" fill="red"/>
  <circle cx="458.183" cy="799.589" r="5.04363" stroke-width="0.5" stroke="red" fill="red"/>
   </g>
   <g id="cell173">
  <circle cx="987.258" cy="428.236" r="10.3245" stroke-width="0.5" stroke="black" fill="red"/>
  <circle cx="987.258" cy="428.236" r="6.23968" stroke-width="0.5" stroke="red" fill="red"/>
   </g>
   <g id="cell174">
  <circle cx="353.104" cy="116.349" r="5.64744" stroke-width="0.5" stroke="black" fill="yellow"/>
  <circle cx="353.104" cy="116.349" r="3.89182" stroke-width="0.5" stroke="black" fill="black"/>
   </g>
   <g id="cell175">
  <circle cx="39.9285" cy="291.969" r="8.39131" stroke-width="0.5" stroke="black" fill="yellow"/>
  <circle cx="39.9285" cy="291.969" r="5.04434" stroke-width="0.5" stroke="yellow" fill="yellow"/>
   </g>
   <g id="cell178">
  <circle cx="68.3415" cy="155.32" r="8.38515" stroke-width="0.5" stroke="black" fill="red"/>
  <circle cx="68.3415" cy="155.32" r="5.04195" stroke-width="0.5" stroke="red" fill="red"/>
   </g>
   <g id="cell179">
  <circle cx="27.5497" cy="484.843" r="10.4759" stroke-width="0.5" stroke="black" fill="yellow"/>
  <circle cx="27.5497" cy="484.843" r="6.31384" stroke-width="0.5" stroke="yellow" fill="yellow"/>
   </g>
   <g id="cell180">
  <circle cx="36.1244" cy="699.005" r="8.41236" stroke-width="0.5" stroke="black" fill="yellow"/>
  <circle cx="36.1244" cy="699.005" r="5.05159" stroke-width="0.5" stroke="yellow" fill="yellow"/>
   </g>
   <g id="cell181">
  <circle cx="971.898" cy="675.542" r="9.72702" stroke-width="0.5" stroke="black" fill="red"/>
  <circle cx="971.898" cy="675.542" r="5.90899" stroke-width="0.5" stroke="red" fill="red"/>
   </g>
   <g id="cell182">
  <circle cx="493.299" cy="927.313" r="8.92796" stroke-width="0.5" stroke="black" fill="yellow"/>
  <circle cx="493.299" cy="927.313" r="5.41602" stroke-width="0.5" stroke="yellow" fill="yellow"/>
   </g>
   <g id="cell183">
  <circle cx="647.545" cy="865.259" r="8.41233" stroke-width="0.5" stroke="black" fill="red"/>
  <circle cx="647.545" cy="865.259" r="5.05159" stroke-width="0.5" stroke="red" fill="red"/>
   </g>
   <g id="cell187">
  <circle cx="277.09" cy="414.34" r="10.4397" stroke-width="0.5" stroke="black" fill="yellow"/>
  <circle cx="277.09" cy="414.34" r="6.29682" stroke-width="0.5" stroke="yellow" fill="yellow"/>
   </g>
   <g id="cell189">
  <circle cx="773.323" cy="409.53" r="10.5207" stroke-width="0.5" stroke="black" fill="yellow"/>
  <circle cx="773.323" cy="409.53" r="6.33409" stroke-width="0.5" stroke="yellow" fill="yellow"/>
   </g>
   <g id="cell194">
  <circle cx="109.047" cy="142.576" r="10.4035" stroke-width="0.5" stroke="black" fill="yellow"/>
  <circle cx="109.047" cy="142.576" r="6.27947" stroke-width="0.5" stroke="yellow" fill="yellow"/>
   </g>
   <g id="cell195">
  <circle cx="392.326" cy="449.041" r="10.252" stroke-width="0.5" stroke="black" fill="yellow"/>
  <circle cx="392.326" cy="449.041" r="6.20242" stroke-width="0.5" stroke="yellow" fill="yellow"/>
   </g>
   <g id="cell196">
  <circle cx="925.936" cy="283.227" r="9.30629" stroke-width="0.5" stroke="black" fill="yellow"/>
  <circle cx="925.936" cy="283.227" r="5.65683" stroke-width="0.5" stroke="yellow" fill="yellow"/>
   </g>
   <g id="cell202">
  <circle cx="108.979" cy="837.357" r="8.60738" stroke-width="0.5" stroke="black" fill="yellow"/>
  <circle cx="108.979" cy="837.357" r="5.19847" stroke-width="0.5" stroke="yellow" fill="yellow"/>
   </g>
   <g id="cell203">
  <circle cx="847.061" cy="456.522" r="9.23037" stroke-width="0.5" stroke="black" fill="yellow"/>
  <circle cx="847.061" cy="456.522" r="5.61101" stroke-width="0.5" stroke="yellow" fill="yellow"/>
   </g>
   <g id="cell204">
  <circle cx="901.795" cy="503.82" r="9.74611" stroke-width="0.5" stroke="black" fill="red"/>
  <circle cx="901.795" cy="503.82" r="5.92154" stroke-width="0.5" stroke="red" fill="red"/>
   </g>
   <g id="cell205">
  <circle cx="658.917" cy="288.82" r="8.40489" stroke-width="0.5" stroke="black" fill="red"/>
  <circle cx="658.917" cy="288.82" r="5.04928" stroke-width="0.5" stroke="red" fill="red"/>
   </g>
   <g id="cell206">
  <circle cx="963.108" cy="12.8499" r="8.40445" stroke-width="0.5" stroke="black" fill="red"/>
  <circle cx="963.108" cy="12.8499" r="5.04913" stroke-width="0.5" stroke="red" fill="red"/>
   </g>
   <g id="cell207">
  <circle cx="723.815" cy="257.467" r="9.15584" stroke-width="0.5" stroke="black" fill="red"/>
  <circle cx="723.815" cy="257.467" r="5.56446" stroke-width="0.5" stroke="red" fill="red"/>
   </g>
   <g id="cell208">
  <circle cx="68.0976" cy="372.431" r="8.40397" stroke-width="0.5" stroke="black" fill="red"/>
  <circle cx="68.0976" cy="372.431" r="5.04897" stroke-width="0.5" stroke="red" fill="red"/>
   </g>
   <g id="cell209">
  <circle cx="914.866" cy="575.453" r="8.40398" stroke-width="0.5" stroke="black" fill="red"/>
  <circle cx="914.866" cy="575.453" r="5.04897" stroke-width="0.5" stroke="red" fill="red"/>
   </g>
   <g id="cell210">
  <circle cx="744.625" cy="479.084" r="8.40398" stroke-width="0.5" stroke="black" fill="yellow"/>
  <circle cx="744.625" cy="479.084" r="5.04897" stroke-width="0.5" stroke="yellow" fill="yellow"/>
   </g>
   <g id="cell212">
  <circle cx="188.103" cy="718.014" r="9.07849" stroke-width="0.5" stroke="black" fill="grey"/>
  <circle cx="188.103" cy="718.014" r="5.51572" stroke-width="0.5" stroke="grey" fill="grey"/>
   </g>
   <g id="cell213">
  <circle cx="9.79076" cy="988.784" r="8.40321" stroke-width="0.5" stroke="black" fill="yellow"/>
  <circle cx="9.79076" cy="988.784" r="5.04871" stroke-width="0.5" stroke="yellow" fill="yellow"/>
   </g>
   <g id="cell214">
  <circle cx="746.592" cy="442.845" r="8.40323" stroke-width="0.5" stroke="black" fill="yellow"/>
  <circle cx="746.592" cy="442.845" r="5.04871" stroke-width="0.5" stroke="yellow" fill="yellow"/>
   </g>
   <g id="cell215">
  <circle cx="636.889" cy="387.985" r="8.60517" stroke-width="0.5" stroke="black" fill="yellow"/>
  <circle cx="636.889" cy="387.985" r="5.19769" stroke-width="0.5" stroke="yellow" fill="yellow"/>
   </g>
   <g id="cell216">
  <circle cx="40.7247" cy="902.653" r="8.40267" stroke-width="0.5" stroke="black" fill="yellow"/>
  <circle cx="40.7247" cy="902.653" r="5.04852" stroke-width="0.5" stroke="yellow" fill="yellow"/>
   </g>
   <g id="cell217">
  <circle cx="614.917" cy="551.102" r="8.40244" stroke-width="0.5" stroke="black" fill="red"/>
  <circle cx="614.917" cy="551.102" r="5.04843" stroke-width="0.5" stroke="red" fill="red"/>
   </g>
   <g id="cell218">
  <circle cx="856.729" cy="163.016" r="9.49677" stroke-width="0.5" stroke="black" fill="red"/>
  <circle cx="856.729" cy="163.016" r="5.77455" stroke-width="0.5" stroke="red" fill="red"/>
   </g>
   <g id="cell219">
  <circle cx="834.124" cy="434.406" r="9.19101" stroke-width="0.5" stroke="black" fill="red"/>
  <circle cx="834.124" cy="434.406" r="5.58711" stroke-width="0.5" stroke="red" fill="red"/>
   </g>
   <g id="cell220">
  <circle cx="852.043" cy="449.264" r="8.40049" stroke-width="0.5" stroke="black" fill="grey"/>
  <circle cx="852.043" cy="449.264" r="5.04775" stroke-width="0.5" stroke="grey" fill="grey"/>
   </g>
   <g id="cell221">
  <circle cx="186.325" cy="932.314" r="8.40015" stroke-width="0.5" stroke="black" fill="red"/>
  <circle cx="186.325" cy="932.314" r="5.04763" stroke-width="0.5" stroke="red" fill="red"/>
   </g>
   <g id="cell222">
  <circle cx="466.987" cy="527.674" r="9.0366" stroke-width="0.5" stroke="black" fill="red"/>
  <circle cx="466.987" cy="527.674" r="5.48971" stroke-width="0.5" stroke="red" fill="red"/>
   </g>
   <g id="cell223">
  <circle cx="609.013" cy="849.161" r="8.40015" stroke-width="0.5" stroke="black" fill="red"/>
  <circle cx="609.013" cy="849.161" r="5.04763" stroke-width="0.5" stroke="red" fill="red"/>
   </g>
   <g id="cell224">
  <circle cx="96.868" cy="294.343" r="8.39945" stroke-width="0.5" stroke="black" fill="red"/>
  <circle cx="96.868" cy="294.343" r="5.04737" stroke-width="0.5" stroke="red" fill="red"/>
   </g>
   <g id="cell225">
  <circle cx="193.588" cy="379.442" r="8.60157" stroke-width="0.5" stroke="black" fill="red"/>
  <circle cx="193.588" cy="379.442" r="5.19639" stroke-width="0.5" stroke="red" fill="red"/>
   </g>
   <g id="cell226">
  <circle cx="649.911" cy="157.22" r="8.39944" stroke-width="0.5" stroke="black" fill="grey"/>
  <circle cx="649.911" cy="157.22" r="5.04737" stroke-width="0.5" stroke="grey" fill="grey"/>
   </g>
   <g id="cell227">
  <circle cx="659.363" cy="840.678" r="8.67621" stroke-width="0.5" stroke="black" fill="red"/>
  <circle cx="659.363" cy="840.678" r="5.24971" stroke-width="0.5" stroke="red" fill="red"/>
   </g>
   <g id="cell228">
  <circle cx="648.657" cy="879.439" r="8.91583" stroke-width="0.5" stroke="black" fill="red"/>
  <circle cx="648.657" cy="879.439" r="5.41179" stroke-width="0.5" stroke="red" fill="red"/>
   </g>
   <g id="cell229">
  <circle cx="832.325" cy="101.024" r="8.39864" stroke-width="0.5" stroke="black" fill="red"/>
  <circle cx="832.325" cy="101.024" r="5.04708" stroke-width="0.5" stroke="red" fill="red"/>
   </g>
   <g id="cell230">
  <circle cx="704.115" cy="771.783" r="8.39868" stroke-width="0.5" stroke="black" fill="red"/>
  <circle cx="704.115" cy="771.783" r="5.04709" stroke-width="0.5" stroke="red" fill="red"/>
   </g>
   <g id="cell232">
  <circle cx="56.2651" cy="922.468" r="8.39789" stroke-width="0.5" stroke="black" fill="red"/>
  <circle cx="56.2651" cy="922.468" r="5.0468" stroke-width="0.5" stroke="red" fill="red"/>
   </g>
   <g id="cell233">
  <circle cx="411.345" cy="941.9" r="8.87479" stroke-width="0.5" stroke="black" fill="red"/>
  <circle cx="411.345" cy="941.9" r="5.38496" stroke-width="0.5" stroke="red" fill="red"/>
   </g>
   <g id="cell234">
  <circle cx="829.134" cy="385.454" r="8.39741" stroke-width="0.5" stroke="black" fill="red"/>
  <circle cx="829.134" cy="385.454" r="5.04663" stroke-width="0.5" stroke="red" fill="red"/>
   </g>
   <g id="cell235">
  <circle cx="294.633" cy="229.463" r="8.39745" stroke-width="0.5" stroke="black" fill="red"/>
  <circle cx="294.633" cy="229.463" r="5.04664" stroke-width="0.5" stroke="red" fill="red"/>
   </g>
   <g id="cell236">
  <circle cx="770.083" cy="526.59" r="8.91433" stroke-width="0.5" stroke="black" fill="yellow"/>
  <circle cx="770.083" cy="526.59" r="5.41122" stroke-width="0.5" stroke="yellow" fill="yellow"/>
   </g>
   <g id="cell239">
  <circle cx="44.0002" cy="924.824" r="8.83198" stroke-width="0.5" stroke="black" fill="red"/>
  <circle cx="44.0002" cy="924.824" r="5.35718" stroke-width="0.5" stroke="red" fill="red"/>
   </g>
   <g id="cell240">
  <circle cx="755.64" cy="238.958" r="8.39518" stroke-width="0.5" stroke="black" fill="red"/>
  <circle cx="755.64" cy="238.958" r="5.0458" stroke-width="0.5" stroke="red" fill="red"/>
   </g>
   <g id="cell241">
  <circle cx="587.509" cy="552.948" r="8.39465" stroke-width="0.5" stroke="black" fill="yellow"/>
  <circle cx="587.509" cy="552.948" r="5.04561" stroke-width="0.5" stroke="yellow" fill="yellow"/>
   </g>
   <g id="cell242">
  <circle cx="760.18" cy="798.853" r="8.43827" stroke-width="0.5" stroke="black" fill="red"/>
  <circle cx="760.18" cy="798.853" r="5.07697" stroke-width="0.5" stroke="red" fill="red"/>
   </g>
   <g id="cell243">
  <circle cx="955.442" cy="903.063" r="8.52701" stroke-width="0.5" stroke="black" fill="yellow"/>
  <circle cx="955.442" cy="903.063" r="5.1435" stroke-width="0.5" stroke="yellow" fill="yellow"/>
   </g>
   <g id="cell244">
  <circle cx="870.147" cy="450.622" r="8.39467" stroke-width="0.5" stroke="black" fill="red"/>
  <circle cx="870.147" cy="450.622" r="5.04561" stroke-width="0.5" stroke="red" fill="red"/>
   </g>
   <g id="cell245">
  <circle cx="835.49" cy="567.389" r="8.39411" stroke-width="0.5" stroke="black" fill="yellow"/>
  <circle cx="835.49" cy="567.389" r="5.04541" stroke-width="0.5" stroke="yellow" fill="yellow"/>
   </g>
   <g id="cell246">
  <circle cx="9.44685" cy="857.689" r="8.39306" stroke-width="0.5" stroke="black" fill="red"/>
  <circle cx="9.44685" cy="857.689" r="5.04501" stroke-width="0.5" stroke="red" fill="red"/>
   </g>
   <g id="cell247">
  <circle cx="139.776" cy="795.195" r="8.3931" stroke-width="0.5" stroke="black" fill="yellow"/>
  <circle cx="139.776" cy="795.195" r="5.04502" stroke-width="0.5" stroke="yellow" fill="yellow"/>
   </g>
   <g id="cell248">
  <circle cx="246.489" cy="59.5173" r="8.39253" stroke-width="0.5" stroke="black" fill="yellow"/>
  <circle cx="246.489" cy="59.5173" r="5.0448" stroke-width="0.5" stroke="yellow" fill="yellow"/>
   </g>
   <g id="cell249">
  <circle cx="924.779" cy="858.554" r="8.558" stroke-width="0.5" stroke="black" fill="yellow"/>
  <circle cx="924.779" cy="858.554" r="5.16744" stroke-width="0.5" stroke="yellow" fill="yellow"/>
   </g>
   <g id="cell250">
  <circle cx="38.5181" cy="296.608" r="8.39131" stroke-width="0.5" stroke="black" fill="yellow"/>
  <circle cx="38.5181" cy="296.608" r="5.04434" stroke-width="0.5" stroke="yellow" fill="yellow"/>
   </g>
   <g id="cell251">
  <circle cx="18.2305" cy="427.307" r="8.3914" stroke-width="0.5" stroke="black" fill="red"/>
  <circle cx="18.2305" cy="427.307" r="5.04436" stroke-width="0.5" stroke="red" fill="red"/>
   </g>
   <g id="cell252">
  <circle cx="452.814" cy="639.801" r="8.43437" stroke-width="0.5" stroke="black" fill="grey"/>
  <circle cx="452.814" cy="639.801" r="5.07549" stroke-width="0.5" stroke="grey" fill="grey"/>
   </g>
   <g id="cell253">
  <circle cx="681.509" cy="483.235" r="8.39078" stroke-width="0.5" stroke="black" fill="red"/>
  <circle cx="681.509" cy="483.235" r="5.04413" stroke-width="0.5" stroke="red" fill="red"/>
   </g>
   <g id="cell254">
  <circle cx="678.576" cy="269.903" r="8.39012" stroke-width="0.5" stroke="black" fill="yellow"/>
  <circle cx="678.576" cy="269.903" r="5.04388" stroke-width="0.5" stroke="yellow" fill="yellow"/>
   </g>
   <g id="cell255">
  <circle cx="477.754" cy="796.413" r="8.38945" stroke-width="0.5" stroke="black" fill="red"/>
  <circle cx="477.754" cy="796.413" r="5.04363" stroke-width="0.5" stroke="red" fill="red"/>
   </g>
   <g id="cell256">
  <circle cx="688.823" cy="810.483" r="8.38883" stroke-width="0.5" stroke="black" fill="red"/>
  <circle cx="688.823" cy="810.483" r="5.04338" stroke-width="0.5" stroke="red" fill="red"/>
   </g>
   <g id="cell257">
  <circle cx="942.479" cy="190.335" r="8.38887" stroke-width="0.5" stroke="black" fill="red"/>
  <circle cx="942.479" cy="190.335" r="5.04339" stroke-width="0.5" stroke="red" fill="red"/>
   </g>
   <g id="cell258">
  <circle cx="512.616" cy="401.313" r="8.38812" stroke-width="0.5" stroke="black" fill="red"/>
  <circle cx="512.616" cy="401.313" r="5.04311" stroke-width="0.5" stroke="red" fill="red"/>
   </g>
   <g id="cell259">
  <circle cx="32.3911" cy="130.317" r="8.38806" stroke-width="0.5" stroke="black" fill="red"/>
  <circle cx="32.3911" cy="130.317" r="5.04309" stroke-width="0.5" stroke="red" fill="red"/>
   </g>
   <g id="cell260">
  <circle cx="848.431" cy="48.3638" r="8.38815" stroke-width="0.5" stroke="black" fill="red"/>
  <circle cx="848.431" cy="48.3638" r="5.04312" stroke-width="0.5" stroke="red" fill="red"/>
   </g>
   <g id="cell261">
  <circle cx="326.607" cy="977.603" r="8.40662" stroke-width="0.5" stroke="black" fill="yellow"/>
  <circle cx="326.607" cy="977.603" r="5.05646" stroke-width="0.5" stroke="yellow" fill="yellow"/>
   </g>
   <g id="cell262">
  <circle cx="627.284" cy="439.937" r="8.38748" stroke-width="0.5" stroke="black" fill="red"/>
  <circle cx="627.284" cy="439.937" r="5.04285" stroke-width="0.5" stroke="red" fill="red"/>
   </g>
   <g id="cell263">
  <circle cx="142.885" cy="724.247" r="8.38676" stroke-width="0.5" stroke="black" fill="red"/>
  <circle cx="142.885" cy="724.247" r="5.04257" stroke-width="0.5" stroke="red" fill="red"/>
   </g>
   <g id="cell264">
  <circle cx="875.315" cy="363.862" r="8.38669" stroke-width="0.5" stroke="black" fill="red"/>
  <circle cx="875.315" cy="363.862" r="5.04255" stroke-width="0.5" stroke="red" fill="red"/>
   </g>
   <g id="cell265">
  <circle cx="581.723" cy="290.678" r="8.38599" stroke-width="0.5" stroke="black" fill="red"/>
  <circle cx="581.723" cy="290.678" r="5.04227" stroke-width="0.5" stroke="red" fill="red"/>
   </g>
   <g id="cell266">
  <circle cx="67.8838" cy="151.959" r="8.38515" stroke-width="0.5" stroke="black" fill="red"/>
  <circle cx="67.8838" cy="151.959" r="5.04195" stroke-width="0.5" stroke="red" fill="red"/>
   </g>
   <g id="cell267">
  <circle cx="510.947" cy="308.788" r="8.38513" stroke-width="0.5" stroke="black" fill="red"/>
  <circle cx="510.947" cy="308.788" r="5.04194" stroke-width="0.5" stroke="red" fill="red"/>
   </g>
  </g>
 </g>
  <rect x="775" y="1035" width="200" height="10" stroke-width="2" stroke="rgb(255,255,255)" fill="rgb(0,0,0)"/>
  <text x="781.25" y="1028.75"
   font-family="Arial" font-size="25" fill="black" >
   200 &#956;m
  </text>
  <text x="25" y="1045"
   font-family="Arial" font-size="18.75" fill="black" >
   0 days, 0 hours, 2 minutes, and 41.4515 seconds
  </text>
  <rect x="0" y="70" width="1000" height="1000" stroke-width="2" stroke="rgb(0,0,0)" fill="none"/>
</svg>
