<?xml version="1.0" encoding="UTF-8" standalone="no"?>
<!-- Created with PhysiCell (http://PhysiCell.MathCancer.org/) -->
<svg 
 xmlns:dc="http://purl.org/dc/elements/1.1/" 
 xmlns:cc="http://creativecommons.org/ns#" 
 xmlns:rdf="http://www.w3.org/1999/02/22-rdf-syntax-ns#" 
 xmlns:svg="http://www.w3.org/2000/svg" 
 xmlns="http://www.w3.org/2000/svg" 
 version="1.1" 
 width="1000" 
 height="1070" 
 id="svg2">
  <rect x="0" y="0" width="1000" height="1070" stroke-width="2" stroke="white" fill="white"/>
  <text x="12.5" y="30"
   font-family="Arial" font-size="25" fill="black" >
   Current time: 0 days, 23 hours, and 0.00 minutes, z = 0.00 &#956;m
  </text>
  <text x="12.5" y="57.5"
   font-family="Arial" font-size="23.75" fill="black" >
   155 agents
  </text>
 <g id="tissue" 
    transform="translate(0,1070) scale(1,-1)">
  <g id="ECM">
  </g>
  <g id="cells">
   <g id="cell0">
  <circle cx="506.755" cy="631.989" r="10.2198" stroke-width="0.5" stroke="black" fill="grey"/>
  <circle cx="506.755" cy="631.989" r="6.18563" stroke-width="0.5" stroke="grey" fill="grey"/>
   </g>
   <g id="cell118">
  <circle cx="869.311" cy="586.992" r="8.40862" stroke-width="0.5" stroke="black" fill="yellow"/>
  <circle cx="869.311" cy="586.992" r="5.0505" stroke-width="0.5" stroke="yellow" fill="yellow"/>
   </g>
   <g id="cell100">
  <circle cx="141.236" cy="802.147" r="10.1849" stroke-width="0.5" stroke="black" fill="yellow"/>
  <circle cx="141.236" cy="802.147" r="6.16719" stroke-width="0.5" stroke="yellow" fill="yellow"/>
   </g>
   <g id="cell3">
  <circle cx="617.475" cy="623.029" r="10.0778" stroke-width="0.5" stroke="black" fill="grey"/>
  <circle cx="617.475" cy="623.029" r="6.109" stroke-width="0.5" stroke="grey" fill="grey"/>
   </g>
   <g id="cell103">
  <circle cx="825.334" cy="867.871" r="10.4102" stroke-width="0.5" stroke="black" fill="yellow"/>
  <circle cx="825.334" cy="867.871" r="6.2825" stroke-width="0.5" stroke="yellow" fill="yellow"/>
   </g>
   <g id="cell135">
  <circle cx="168.883" cy="789.006" r="9.43912" stroke-width="0.5" stroke="black" fill="yellow"/>
  <circle cx="168.883" cy="789.006" r="5.73848" stroke-width="0.5" stroke="yellow" fill="yellow"/>
   </g>
   <g id="cell185">
  <circle cx="872.875" cy="407.509" r="8.39316" stroke-width="0.5" stroke="black" fill="yellow"/>
  <circle cx="872.875" cy="407.509" r="5.04503" stroke-width="0.5" stroke="yellow" fill="yellow"/>
   </g>
   <g id="cell7">
  <circle cx="871.628" cy="495.669" r="9.88153" stroke-width="0.5" stroke="black" fill="grey"/>
  <circle cx="871.628" cy="495.669" r="5.99937" stroke-width="0.5" stroke="grey" fill="grey"/>
   </g>
   <g id="cell8">
  <circle cx="587.455" cy="419.288" r="1.73524" stroke-width="0.5" stroke="black" fill="grey"/>
  <circle cx="587.455" cy="419.288" r="1.72081" stroke-width="0.5" stroke="black" fill="black"/>
   </g>
   <g id="cell112">
  <circle cx="755.203" cy="747.199" r="8.40814" stroke-width="0.5" stroke="black" fill="yellow"/>
  <circle cx="755.203" cy="747.199" r="5.05035" stroke-width="0.5" stroke="yellow" fill="yellow"/>
   </g>
   <g id="cell176">
  <circle cx="234.91" cy="74.6199" r="8.4009" stroke-width="0.5" stroke="black" fill="red"/>
  <circle cx="234.91" cy="74.6199" r="5.04788" stroke-width="0.5" stroke="red" fill="red"/>
   </g>
   <g id="cell186">
  <circle cx="70.0164" cy="564.72" r="8.3926" stroke-width="0.5" stroke="black" fill="yellow"/>
  <circle cx="70.0164" cy="564.72" r="5.04482" stroke-width="0.5" stroke="yellow" fill="yellow"/>
   </g>
   <g id="cell104">
  <circle cx="759.064" cy="409.007" r="10.093" stroke-width="0.5" stroke="black" fill="yellow"/>
  <circle cx="759.064" cy="409.007" r="6.11725" stroke-width="0.5" stroke="yellow" fill="yellow"/>
   </g>
   <g id="cell102">
  <circle cx="593.877" cy="150.328" r="8.75935" stroke-width="0.5" stroke="black" fill="yellow"/>
  <circle cx="593.877" cy="150.328" r="5.30579" stroke-width="0.5" stroke="yellow" fill="yellow"/>
   </g>
   <g id="cell98">
  <circle cx="891.399" cy="410.675" r="8.39316" stroke-width="0.5" stroke="black" fill="yellow"/>
  <circle cx="891.399" cy="410.675" r="5.04503" stroke-width="0.5" stroke="yellow" fill="yellow"/>
   </g>
   <g id="cell97">
  <circle cx="426.185" cy="89.9414" r="10.5639" stroke-width="0.5" stroke="black" fill="yellow"/>
  <circle cx="426.185" cy="89.9414" r="6.35212" stroke-width="0.5" stroke="yellow" fill="yellow"/>
   </g>
   <g id="cell16">
  <circle cx="149.006" cy="716.577" r="9.96016" stroke-width="0.5" stroke="black" fill="grey"/>
  <circle cx="149.006" cy="716.577" r="6.04376" stroke-width="0.5" stroke="grey" fill="grey"/>
   </g>
   <g id="cell116">
  <circle cx="817.3" cy="439.846" r="10.5549" stroke-width="0.5" stroke="black" fill="yellow"/>
  <circle cx="817.3" cy="439.846" r="6.34851" stroke-width="0.5" stroke="yellow" fill="yellow"/>
   </g>
   <g id="cell177">
  <circle cx="444.092" cy="282.017" r="8.4009" stroke-width="0.5" stroke="black" fill="red"/>
  <circle cx="444.092" cy="282.017" r="5.04788" stroke-width="0.5" stroke="red" fill="red"/>
   </g>
   <g id="cell101">
  <circle cx="101.72" cy="159.312" r="10.4925" stroke-width="0.5" stroke="black" fill="yellow"/>
  <circle cx="101.72" cy="159.312" r="6.32139" stroke-width="0.5" stroke="yellow" fill="yellow"/>
   </g>
   <g id="cell184">
  <circle cx="530.078" cy="281.368" r="8.99405" stroke-width="0.5" stroke="black" fill="red"/>
  <circle cx="530.078" cy="281.368" r="5.46313" stroke-width="0.5" stroke="red" fill="red"/>
   </g>
   <g id="cell99">
  <circle cx="502.811" cy="978.952" r="8.63607" stroke-width="0.5" stroke="black" fill="yellow"/>
  <circle cx="502.811" cy="978.952" r="5.22199" stroke-width="0.5" stroke="yellow" fill="yellow"/>
   </g>
   <g id="cell115">
  <circle cx="207.442" cy="13.4863" r="9.40551" stroke-width="0.5" stroke="black" fill="yellow"/>
  <circle cx="207.442" cy="13.4863" r="5.71835" stroke-width="0.5" stroke="yellow" fill="yellow"/>
   </g>
   <g id="cell108">
  <circle cx="708.096" cy="37.302" r="1.4997" stroke-width="0.5" stroke="black" fill="yellow"/>
  <circle cx="708.096" cy="37.302" r="1.49423" stroke-width="0.5" stroke="black" fill="black"/>
   </g>
   <g id="cell153">
  <circle cx="173.058" cy="404.094" r="9.81733" stroke-width="0.5" stroke="black" fill="red"/>
  <circle cx="173.058" cy="404.094" r="5.96251" stroke-width="0.5" stroke="red" fill="red"/>
   </g>
   <g id="cell105">
  <circle cx="63.3506" cy="411.453" r="10.4355" stroke-width="0.5" stroke="black" fill="yellow"/>
  <circle cx="63.3506" cy="411.453" r="6.2947" stroke-width="0.5" stroke="yellow" fill="yellow"/>
   </g>
   <g id="cell26">
  <circle cx="669.459" cy="474.929" r="9.90355" stroke-width="0.5" stroke="black" fill="grey"/>
  <circle cx="669.459" cy="474.929" r="6.01152" stroke-width="0.5" stroke="grey" fill="grey"/>
   </g>
   <g id="cell117">
  <circle cx="883.532" cy="391.65" r="8.38682" stroke-width="0.5" stroke="black" fill="yellow"/>
  <circle cx="883.532" cy="391.65" r="5.04258" stroke-width="0.5" stroke="yellow" fill="yellow"/>
   </g>
   <g id="cell28">
  <circle cx="699.139" cy="125.747" r="8.40774" stroke-width="0.5" stroke="black" fill="grey"/>
  <circle cx="699.139" cy="125.747" r="5.05022" stroke-width="0.5" stroke="grey" fill="grey"/>
   </g>
   <g id="cell29">
  <circle cx="936.359" cy="652.284" r="8.84428" stroke-width="0.5" stroke="black" fill="grey"/>
  <circle cx="936.359" cy="652.284" r="5.36167" stroke-width="0.5" stroke="grey" fill="grey"/>
   </g>
   <g id="cell30">
  <circle cx="746.522" cy="125.624" r="10.5618" stroke-width="0.5" stroke="black" fill="grey"/>
  <circle cx="746.522" cy="125.624" r="6.3513" stroke-width="0.5" stroke="grey" fill="grey"/>
   </g>
   <g id="cell31">
  <circle cx="415.138" cy="106.68" r="1.56827" stroke-width="0.5" stroke="black" fill="grey"/>
  <circle cx="415.138" cy="106.68" r="1.56078" stroke-width="0.5" stroke="black" fill="black"/>
   </g>
   <g id="cell114">
  <circle cx="60.2377" cy="350.89" r="8.56812" stroke-width="0.5" stroke="black" fill="yellow"/>
  <circle cx="60.2377" cy="350.89" r="5.17122" stroke-width="0.5" stroke="yellow" fill="yellow"/>
   </g>
   <g id="cell107">
  <circle cx="373.312" cy="433.786" r="10.483" stroke-width="0.5" stroke="black" fill="yellow"/>
  <circle cx="373.312" cy="433.786" r="6.31703" stroke-width="0.5" stroke="yellow" fill="yellow"/>
   </g>
   <g id="cell106">
  <circle cx="25.2554" cy="919.603" r="10.0136" stroke-width="0.5" stroke="black" fill="yellow"/>
  <circle cx="25.2554" cy="919.603" r="6.07357" stroke-width="0.5" stroke="yellow" fill="yellow"/>
   </g>
   <g id="cell35">
  <circle cx="932.25" cy="81.2074" r="10.3811" stroke-width="0.5" stroke="black" fill="grey"/>
  <circle cx="932.25" cy="81.2074" r="6.26814" stroke-width="0.5" stroke="grey" fill="grey"/>
   </g>
   <g id="cell109">
  <circle cx="369.271" cy="969.49" r="8.403" stroke-width="0.5" stroke="black" fill="yellow"/>
  <circle cx="369.271" cy="969.49" r="5.04863" stroke-width="0.5" stroke="yellow" fill="yellow"/>
   </g>
   <g id="cell111">
  <circle cx="773.955" cy="375.946" r="10.5639" stroke-width="0.5" stroke="black" fill="yellow"/>
  <circle cx="773.955" cy="375.946" r="6.35212" stroke-width="0.5" stroke="yellow" fill="yellow"/>
   </g>
   <g id="cell131">
  <circle cx="647.533" cy="584.745" r="9.67294" stroke-width="0.5" stroke="black" fill="grey"/>
  <circle cx="647.533" cy="584.745" r="5.87806" stroke-width="0.5" stroke="grey" fill="grey"/>
   </g>
   <g id="cell110">
  <circle cx="881.154" cy="269.894" r="10.4651" stroke-width="0.5" stroke="black" fill="yellow"/>
  <circle cx="881.154" cy="269.894" r="6.30877" stroke-width="0.5" stroke="yellow" fill="yellow"/>
   </g>
   <g id="cell40">
  <circle cx="153.988" cy="395.555" r="9.61724" stroke-width="0.5" stroke="black" fill="red"/>
  <circle cx="153.988" cy="395.555" r="5.84559" stroke-width="0.5" stroke="red" fill="red"/>
   </g>
   <g id="cell41">
  <circle cx="673.708" cy="719.349" r="9.7723" stroke-width="0.5" stroke="black" fill="red"/>
  <circle cx="673.708" cy="719.349" r="5.93624" stroke-width="0.5" stroke="red" fill="red"/>
   </g>
   <g id="cell42">
  <circle cx="154.165" cy="707.847" r="9.08227" stroke-width="0.5" stroke="black" fill="red"/>
  <circle cx="154.165" cy="707.847" r="5.51706" stroke-width="0.5" stroke="red" fill="red"/>
   </g>
   <g id="cell43">
  <circle cx="878.181" cy="410.066" r="9.07762" stroke-width="0.5" stroke="black" fill="red"/>
  <circle cx="878.181" cy="410.066" r="5.51539" stroke-width="0.5" stroke="red" fill="red"/>
   </g>
   <g id="cell44">
  <circle cx="850.737" cy="64.9417" r="9.15743" stroke-width="0.5" stroke="black" fill="red"/>
  <circle cx="850.737" cy="64.9417" r="5.56503" stroke-width="0.5" stroke="red" fill="red"/>
   </g>
   <g id="cell45">
  <circle cx="641.583" cy="829.084" r="8.39664" stroke-width="0.5" stroke="black" fill="red"/>
  <circle cx="641.583" cy="829.084" r="5.04633" stroke-width="0.5" stroke="red" fill="red"/>
   </g>
   <g id="cell46">
  <circle cx="43.5882" cy="932.414" r="8.4085" stroke-width="0.5" stroke="black" fill="red"/>
  <circle cx="43.5882" cy="932.414" r="5.05047" stroke-width="0.5" stroke="red" fill="red"/>
   </g>
   <g id="cell47">
  <circle cx="884.06" cy="443.798" r="9.53125" stroke-width="0.5" stroke="black" fill="red"/>
  <circle cx="884.06" cy="443.798" r="5.79423" stroke-width="0.5" stroke="red" fill="red"/>
   </g>
   <g id="cell48">
  <circle cx="919.518" cy="39.6428" r="10.1212" stroke-width="0.5" stroke="black" fill="red"/>
  <circle cx="919.518" cy="39.6428" r="6.1327" stroke-width="0.5" stroke="red" fill="red"/>
   </g>
   <g id="cell49">
  <circle cx="501.665" cy="778.1" r="8.42256" stroke-width="0.5" stroke="black" fill="red"/>
  <circle cx="501.665" cy="778.1" r="5.0624" stroke-width="0.5" stroke="red" fill="red"/>
   </g>
   <g id="cell50">
  <circle cx="15.2201" cy="441.098" r="9.34034" stroke-width="0.5" stroke="black" fill="red"/>
  <circle cx="15.2201" cy="441.098" r="5.67796" stroke-width="0.5" stroke="red" fill="red"/>
   </g>
   <g id="cell51">
  <circle cx="910.016" cy="127.419" r="9.96151" stroke-width="0.5" stroke="black" fill="red"/>
  <circle cx="910.016" cy="127.419" r="6.04421" stroke-width="0.5" stroke="red" fill="red"/>
   </g>
   <g id="cell96">
  <circle cx="827.902" cy="540.011" r="9.49811" stroke-width="0.5" stroke="black" fill="yellow"/>
  <circle cx="827.902" cy="540.011" r="5.77504" stroke-width="0.5" stroke="yellow" fill="yellow"/>
   </g>
   <g id="cell53">
  <circle cx="683.052" cy="313.385" r="10.1477" stroke-width="0.5" stroke="black" fill="red"/>
  <circle cx="683.052" cy="313.385" r="6.14713" stroke-width="0.5" stroke="red" fill="red"/>
   </g>
   <g id="cell54">
  <circle cx="434.332" cy="901.99" r="8.40427" stroke-width="0.5" stroke="black" fill="red"/>
  <circle cx="434.332" cy="901.99" r="5.04906" stroke-width="0.5" stroke="red" fill="red"/>
   </g>
   <g id="cell55">
  <circle cx="228.614" cy="659.601" r="10.5333" stroke-width="0.5" stroke="black" fill="red"/>
  <circle cx="228.614" cy="659.601" r="6.33948" stroke-width="0.5" stroke="red" fill="red"/>
   </g>
   <g id="cell56">
  <circle cx="572.562" cy="848.161" r="9.77141" stroke-width="0.5" stroke="black" fill="red"/>
  <circle cx="572.562" cy="848.161" r="5.93594" stroke-width="0.5" stroke="red" fill="red"/>
   </g>
   <g id="cell57">
  <circle cx="479.9" cy="553.222" r="9.8617" stroke-width="0.5" stroke="black" fill="red"/>
  <circle cx="479.9" cy="553.222" r="5.9878" stroke-width="0.5" stroke="red" fill="red"/>
   </g>
   <g id="cell58">
  <circle cx="33.5252" cy="907.546" r="9.43604" stroke-width="0.5" stroke="black" fill="red"/>
  <circle cx="33.5252" cy="907.546" r="5.73739" stroke-width="0.5" stroke="red" fill="red"/>
   </g>
   <g id="cell59">
  <circle cx="69.3752" cy="981.072" r="9.55759" stroke-width="0.5" stroke="black" fill="red"/>
  <circle cx="69.3752" cy="981.072" r="5.81076" stroke-width="0.5" stroke="red" fill="red"/>
   </g>
   <g id="cell60">
  <circle cx="257.159" cy="61.1541" r="8.4009" stroke-width="0.5" stroke="black" fill="red"/>
  <circle cx="257.159" cy="61.1541" r="5.04788" stroke-width="0.5" stroke="red" fill="red"/>
   </g>
   <g id="cell61">
  <circle cx="841.504" cy="136.646" r="8.4045" stroke-width="0.5" stroke="black" fill="red"/>
  <circle cx="841.504" cy="136.646" r="5.04914" stroke-width="0.5" stroke="red" fill="red"/>
   </g>
   <g id="cell62">
  <circle cx="730.304" cy="818.581" r="9.53557" stroke-width="0.5" stroke="black" fill="red"/>
  <circle cx="730.304" cy="818.581" r="5.79561" stroke-width="0.5" stroke="red" fill="red"/>
   </g>
   <g id="cell63">
  <circle cx="325.56" cy="165.523" r="8.50724" stroke-width="0.5" stroke="black" fill="red"/>
  <circle cx="325.56" cy="165.523" r="5.12394" stroke-width="0.5" stroke="red" fill="red"/>
   </g>
   <g id="cell64">
  <circle cx="606.557" cy="548.021" r="9.99984" stroke-width="0.5" stroke="black" fill="red"/>
  <circle cx="606.557" cy="548.021" r="6.06503" stroke-width="0.5" stroke="red" fill="red"/>
   </g>
   <g id="cell188">
  <circle cx="869.868" cy="379.755" r="8.38682" stroke-width="0.5" stroke="black" fill="yellow"/>
  <circle cx="869.868" cy="379.755" r="5.04258" stroke-width="0.5" stroke="yellow" fill="yellow"/>
   </g>
   <g id="cell66">
  <circle cx="23.3119" cy="162.929" r="9.15071" stroke-width="0.5" stroke="black" fill="red"/>
  <circle cx="23.3119" cy="162.929" r="5.56254" stroke-width="0.5" stroke="red" fill="red"/>
   </g>
   <g id="cell67">
  <circle cx="517.357" cy="250.279" r="6.9885" stroke-width="0.5" stroke="black" fill="red"/>
  <circle cx="517.357" cy="250.279" r="4.27163" stroke-width="0.5" stroke="black" fill="black"/>
   </g>
   <g id="cell68">
  <circle cx="746.933" cy="224.117" r="9.56157" stroke-width="0.5" stroke="black" fill="red"/>
  <circle cx="746.933" cy="224.117" r="5.81217" stroke-width="0.5" stroke="red" fill="red"/>
   </g>
   <g id="cell69">
  <circle cx="440.965" cy="276.073" r="8.4009" stroke-width="0.5" stroke="black" fill="red"/>
  <circle cx="440.965" cy="276.073" r="5.04788" stroke-width="0.5" stroke="red" fill="red"/>
   </g>
   <g id="cell70">
  <circle cx="524.921" cy="341.326" r="8.60498" stroke-width="0.5" stroke="black" fill="red"/>
  <circle cx="524.921" cy="341.326" r="5.19762" stroke-width="0.5" stroke="red" fill="red"/>
   </g>
   <g id="cell71">
  <circle cx="857.067" cy="526.809" r="10.148" stroke-width="0.5" stroke="black" fill="red"/>
  <circle cx="857.067" cy="526.809" r="6.14723" stroke-width="0.5" stroke="red" fill="red"/>
   </g>
   <g id="cell72">
  <circle cx="183.271" cy="898.014" r="9.86114" stroke-width="0.5" stroke="black" fill="red"/>
  <circle cx="183.271" cy="898.014" r="5.98761" stroke-width="0.5" stroke="red" fill="red"/>
   </g>
   <g id="cell73">
  <circle cx="663.344" cy="425.285" r="9.12111" stroke-width="0.5" stroke="black" fill="red"/>
  <circle cx="663.344" cy="425.285" r="5.54163" stroke-width="0.5" stroke="red" fill="red"/>
   </g>
   <g id="cell74">
  <circle cx="861.676" cy="955.67" r="8.40427" stroke-width="0.5" stroke="black" fill="red"/>
  <circle cx="861.676" cy="955.67" r="5.04906" stroke-width="0.5" stroke="red" fill="red"/>
   </g>
   <g id="cell75">
  <circle cx="97.8236" cy="324.527" r="9.81844" stroke-width="0.5" stroke="black" fill="red"/>
  <circle cx="97.8236" cy="324.527" r="5.96289" stroke-width="0.5" stroke="red" fill="red"/>
   </g>
   <g id="cell76">
  <circle cx="784.421" cy="410.471" r="8.40378" stroke-width="0.5" stroke="black" fill="red"/>
  <circle cx="784.421" cy="410.471" r="5.0489" stroke-width="0.5" stroke="red" fill="red"/>
   </g>
   <g id="cell77">
  <circle cx="642.068" cy="832.872" r="9.19465" stroke-width="0.5" stroke="black" fill="red"/>
  <circle cx="642.068" cy="832.872" r="5.58843" stroke-width="0.5" stroke="red" fill="red"/>
   </g>
   <g id="cell78">
  <circle cx="580.45" cy="284.109" r="9.04074" stroke-width="0.5" stroke="black" fill="red"/>
  <circle cx="580.45" cy="284.109" r="5.49123" stroke-width="0.5" stroke="red" fill="red"/>
   </g>
   <g id="cell79">
  <circle cx="969.837" cy="688.64" r="8.39708" stroke-width="0.5" stroke="black" fill="red"/>
  <circle cx="969.837" cy="688.64" r="5.0465" stroke-width="0.5" stroke="red" fill="red"/>
   </g>
   <g id="cell80">
  <circle cx="758.094" cy="667.833" r="10.4531" stroke-width="0.5" stroke="black" fill="yellow"/>
  <circle cx="758.094" cy="667.833" r="6.30312" stroke-width="0.5" stroke="yellow" fill="yellow"/>
   </g>
   <g id="cell81">
  <circle cx="514.01" cy="989.398" r="9.75192" stroke-width="0.5" stroke="black" fill="yellow"/>
  <circle cx="514.01" cy="989.398" r="5.92342" stroke-width="0.5" stroke="yellow" fill="yellow"/>
   </g>
   <g id="cell82">
  <circle cx="655.094" cy="419.855" r="10.0458" stroke-width="0.5" stroke="black" fill="yellow"/>
  <circle cx="655.094" cy="419.855" r="6.09158" stroke-width="0.5" stroke="yellow" fill="yellow"/>
   </g>
   <g id="cell83">
  <circle cx="589.78" cy="576.583" r="9.53031" stroke-width="0.5" stroke="black" fill="yellow"/>
  <circle cx="589.78" cy="576.583" r="5.79391" stroke-width="0.5" stroke="yellow" fill="yellow"/>
   </g>
   <g id="cell84">
  <circle cx="18.4031" cy="512.186" r="8.39834" stroke-width="0.5" stroke="black" fill="yellow"/>
  <circle cx="18.4031" cy="512.186" r="5.04696" stroke-width="0.5" stroke="yellow" fill="yellow"/>
   </g>
   <g id="cell85">
  <circle cx="771.562" cy="669.309" r="10.0924" stroke-width="0.5" stroke="black" fill="yellow"/>
  <circle cx="771.562" cy="669.309" r="6.11705" stroke-width="0.5" stroke="yellow" fill="yellow"/>
   </g>
   <g id="cell86">
  <circle cx="318.655" cy="452.854" r="8.38823" stroke-width="0.5" stroke="black" fill="yellow"/>
  <circle cx="318.655" cy="452.854" r="5.04313" stroke-width="0.5" stroke="yellow" fill="yellow"/>
   </g>
   <g id="cell87">
  <circle cx="742.405" cy="406.975" r="8.40934" stroke-width="0.5" stroke="black" fill="yellow"/>
  <circle cx="742.405" cy="406.975" r="5.05073" stroke-width="0.5" stroke="yellow" fill="yellow"/>
   </g>
   <g id="cell88">
  <circle cx="152.165" cy="105.459" r="4.52388" stroke-width="0.5" stroke="black" fill="yellow"/>
  <circle cx="152.165" cy="105.459" r="3.33158" stroke-width="0.5" stroke="black" fill="black"/>
   </g>
   <g id="cell89">
  <circle cx="72.3544" cy="526.504" r="8.3926" stroke-width="0.5" stroke="black" fill="yellow"/>
  <circle cx="72.3544" cy="526.504" r="5.04482" stroke-width="0.5" stroke="yellow" fill="yellow"/>
   </g>
   <g id="cell119">
  <circle cx="575.009" cy="35.5235" r="2.28323" stroke-width="0.5" stroke="black" fill="yellow"/>
  <circle cx="575.009" cy="35.5235" r="2.20555" stroke-width="0.5" stroke="black" fill="black"/>
   </g>
   <g id="cell91">
  <circle cx="20.9808" cy="668.325" r="8.39794" stroke-width="0.5" stroke="black" fill="yellow"/>
  <circle cx="20.9808" cy="668.325" r="5.04681" stroke-width="0.5" stroke="yellow" fill="yellow"/>
   </g>
   <g id="cell92">
  <circle cx="664.27" cy="295.2" r="9.26651" stroke-width="0.5" stroke="black" fill="yellow"/>
  <circle cx="664.27" cy="295.2" r="5.63344" stroke-width="0.5" stroke="yellow" fill="yellow"/>
   </g>
   <g id="cell93">
  <circle cx="245.41" cy="862.406" r="8.40934" stroke-width="0.5" stroke="black" fill="yellow"/>
  <circle cx="245.41" cy="862.406" r="5.05073" stroke-width="0.5" stroke="yellow" fill="yellow"/>
   </g>
   <g id="cell94">
  <circle cx="375.267" cy="101.986" r="8.44531" stroke-width="0.5" stroke="black" fill="yellow"/>
  <circle cx="375.267" cy="101.986" r="5.07954" stroke-width="0.5" stroke="yellow" fill="yellow"/>
   </g>
   <g id="cell95">
  <circle cx="960.11" cy="911.364" r="9.52822" stroke-width="0.5" stroke="black" fill="yellow"/>
  <circle cx="960.11" cy="911.364" r="5.79316" stroke-width="0.5" stroke="yellow" fill="yellow"/>
   </g>
   <g id="cell121">
  <circle cx="7.69105" cy="486.246" r="8.40953" stroke-width="0.5" stroke="black" fill="red"/>
  <circle cx="7.69105" cy="486.246" r="5.05079" stroke-width="0.5" stroke="red" fill="red"/>
   </g>
   <g id="cell122">
  <circle cx="749.715" cy="454.369" r="10.0474" stroke-width="0.5" stroke="black" fill="yellow"/>
  <circle cx="749.715" cy="454.369" r="6.09209" stroke-width="0.5" stroke="yellow" fill="yellow"/>
   </g>
   <g id="cell123">
  <circle cx="262.603" cy="894.387" r="8.40934" stroke-width="0.5" stroke="black" fill="yellow"/>
  <circle cx="262.603" cy="894.387" r="5.05073" stroke-width="0.5" stroke="yellow" fill="yellow"/>
   </g>
   <g id="cell124">
  <circle cx="505.475" cy="639.943" r="9.30551" stroke-width="0.5" stroke="black" fill="grey"/>
  <circle cx="505.475" cy="639.943" r="5.65657" stroke-width="0.5" stroke="grey" fill="grey"/>
   </g>
   <g id="cell125">
  <circle cx="789.507" cy="408.977" r="10.1481" stroke-width="0.5" stroke="black" fill="yellow"/>
  <circle cx="789.507" cy="408.977" r="6.14727" stroke-width="0.5" stroke="yellow" fill="yellow"/>
   </g>
   <g id="cell126">
  <circle cx="976.818" cy="163.47" r="9.19709" stroke-width="0.5" stroke="black" fill="red"/>
  <circle cx="976.818" cy="163.47" r="5.58927" stroke-width="0.5" stroke="red" fill="red"/>
   </g>
   <g id="cell127">
  <circle cx="891.947" cy="537.903" r="10.0928" stroke-width="0.5" stroke="black" fill="red"/>
  <circle cx="891.947" cy="537.903" r="6.1172" stroke-width="0.5" stroke="red" fill="red"/>
   </g>
   <g id="cell128">
  <circle cx="925.464" cy="31.6911" r="8.88474" stroke-width="0.5" stroke="black" fill="red"/>
  <circle cx="925.464" cy="31.6911" r="5.38855" stroke-width="0.5" stroke="red" fill="red"/>
   </g>
   <g id="cell129">
  <circle cx="966.665" cy="667.701" r="10.0141" stroke-width="0.5" stroke="black" fill="grey"/>
  <circle cx="966.665" cy="667.701" r="6.07374" stroke-width="0.5" stroke="grey" fill="grey"/>
   </g>
   <g id="cell130">
  <circle cx="895.883" cy="607.409" r="8.40862" stroke-width="0.5" stroke="black" fill="yellow"/>
  <circle cx="895.883" cy="607.409" r="5.0505" stroke-width="0.5" stroke="yellow" fill="yellow"/>
   </g>
   <g id="cell132">
  <circle cx="51.6239" cy="909.241" r="9.72415" stroke-width="0.5" stroke="black" fill="red"/>
  <circle cx="51.6239" cy="909.241" r="5.9081" stroke-width="0.5" stroke="red" fill="red"/>
   </g>
   <g id="cell133">
  <circle cx="652.738" cy="361.654" r="8.4085" stroke-width="0.5" stroke="black" fill="red"/>
  <circle cx="652.738" cy="361.654" r="5.05047" stroke-width="0.5" stroke="red" fill="red"/>
   </g>
   <g id="cell134">
  <circle cx="624.597" cy="436.457" r="6.99842" stroke-width="0.5" stroke="black" fill="grey"/>
  <circle cx="624.597" cy="436.457" r="4.2751" stroke-width="0.5" stroke="black" fill="black"/>
   </g>
   <g id="cell136">
  <circle cx="654.855" cy="440.118" r="9.30463" stroke-width="0.5" stroke="black" fill="red"/>
  <circle cx="654.855" cy="440.118" r="5.65628" stroke-width="0.5" stroke="red" fill="red"/>
   </g>
   <g id="cell137">
  <circle cx="783.796" cy="664.799" r="8.40826" stroke-width="0.5" stroke="black" fill="yellow"/>
  <circle cx="783.796" cy="664.799" r="5.05039" stroke-width="0.5" stroke="yellow" fill="yellow"/>
   </g>
   <g id="cell138">
  <circle cx="742.34" cy="230.558" r="10.1207" stroke-width="0.5" stroke="black" fill="red"/>
  <circle cx="742.34" cy="230.558" r="6.13252" stroke-width="0.5" stroke="red" fill="red"/>
   </g>
   <g id="cell139">
  <circle cx="788.922" cy="741.378" r="8.40814" stroke-width="0.5" stroke="black" fill="yellow"/>
  <circle cx="788.922" cy="741.378" r="5.05035" stroke-width="0.5" stroke="yellow" fill="yellow"/>
   </g>
   <g id="cell140">
  <circle cx="70.9261" cy="312.765" r="10.0922" stroke-width="0.5" stroke="black" fill="red"/>
  <circle cx="70.9261" cy="312.765" r="6.11699" stroke-width="0.5" stroke="red" fill="red"/>
   </g>
   <g id="cell141">
  <circle cx="38.612" cy="979.004" r="10.0464" stroke-width="0.5" stroke="black" fill="yellow"/>
  <circle cx="38.612" cy="979.004" r="6.09178" stroke-width="0.5" stroke="yellow" fill="yellow"/>
   </g>
   <g id="cell142">
  <circle cx="656.883" cy="650.741" r="8.40788" stroke-width="0.5" stroke="black" fill="red"/>
  <circle cx="656.883" cy="650.741" r="5.05027" stroke-width="0.5" stroke="red" fill="red"/>
   </g>
   <g id="cell143">
  <circle cx="124.318" cy="751.846" r="8.40788" stroke-width="0.5" stroke="black" fill="red"/>
  <circle cx="124.318" cy="751.846" r="5.05027" stroke-width="0.5" stroke="red" fill="red"/>
   </g>
   <g id="cell144">
  <circle cx="640.002" cy="155.155" r="9.81824" stroke-width="0.5" stroke="black" fill="grey"/>
  <circle cx="640.002" cy="155.155" r="5.96282" stroke-width="0.5" stroke="grey" fill="grey"/>
   </g>
   <g id="cell145">
  <circle cx="516.625" cy="532.77" r="8.4076" stroke-width="0.5" stroke="black" fill="red"/>
  <circle cx="516.625" cy="532.77" r="5.05018" stroke-width="0.5" stroke="red" fill="red"/>
   </g>
   <g id="cell146">
  <circle cx="327.619" cy="191.027" r="9.69794" stroke-width="0.5" stroke="black" fill="red"/>
  <circle cx="327.619" cy="191.027" r="5.89299" stroke-width="0.5" stroke="red" fill="red"/>
   </g>
   <g id="cell147">
  <circle cx="664.17" cy="415.629" r="8.40715" stroke-width="0.5" stroke="black" fill="yellow"/>
  <circle cx="664.17" cy="415.629" r="5.05003" stroke-width="0.5" stroke="yellow" fill="yellow"/>
   </g>
   <g id="cell148">
  <circle cx="169.966" cy="763.197" r="10.0615" stroke-width="0.5" stroke="black" fill="grey"/>
  <circle cx="169.966" cy="763.197" r="6.10026" stroke-width="0.5" stroke="grey" fill="grey"/>
   </g>
   <g id="cell149">
  <circle cx="862.719" cy="423.392" r="9.96016" stroke-width="0.5" stroke="black" fill="red"/>
  <circle cx="862.719" cy="423.392" r="6.04376" stroke-width="0.5" stroke="red" fill="red"/>
   </g>
   <g id="cell150">
  <circle cx="166.637" cy="42.6736" r="8.76254" stroke-width="0.5" stroke="black" fill="yellow"/>
  <circle cx="166.637" cy="42.6736" r="5.30691" stroke-width="0.5" stroke="yellow" fill="yellow"/>
   </g>
   <g id="cell151">
  <circle cx="225.078" cy="907.376" r="8.40683" stroke-width="0.5" stroke="black" fill="red"/>
  <circle cx="225.078" cy="907.376" r="5.04993" stroke-width="0.5" stroke="red" fill="red"/>
   </g>
   <g id="cell152">
  <circle cx="568.145" cy="845.073" r="9.86102" stroke-width="0.5" stroke="black" fill="red"/>
  <circle cx="568.145" cy="845.073" r="5.98757" stroke-width="0.5" stroke="red" fill="red"/>
   </g>
   <g id="cell154">
  <circle cx="843.642" cy="28.9348" r="8.68338" stroke-width="0.5" stroke="black" fill="red"/>
  <circle cx="843.642" cy="28.9348" r="5.25229" stroke-width="0.5" stroke="red" fill="red"/>
   </g>
   <g id="cell155">
  <circle cx="644.824" cy="873.49" r="9.77102" stroke-width="0.5" stroke="black" fill="red"/>
  <circle cx="644.824" cy="873.49" r="5.9358" stroke-width="0.5" stroke="red" fill="red"/>
   </g>
   <g id="cell156">
  <circle cx="907.097" cy="521.906" r="9.67107" stroke-width="0.5" stroke="black" fill="grey"/>
  <circle cx="907.097" cy="521.906" r="5.87742" stroke-width="0.5" stroke="grey" fill="grey"/>
   </g>
   <g id="cell157">
  <circle cx="595.83" cy="625.087" r="8.57207" stroke-width="0.5" stroke="black" fill="yellow"/>
  <circle cx="595.83" cy="625.087" r="5.1726" stroke-width="0.5" stroke="yellow" fill="yellow"/>
   </g>
   <g id="cell158">
  <circle cx="163.19" cy="140.34" r="5.61412" stroke-width="0.5" stroke="black" fill="yellow"/>
  <circle cx="163.19" cy="140.34" r="3.81638" stroke-width="0.5" stroke="black" fill="black"/>
   </g>
   <g id="cell159">
  <circle cx="673.949" cy="288.649" r="8.40494" stroke-width="0.5" stroke="black" fill="yellow"/>
  <circle cx="673.949" cy="288.649" r="5.04929" stroke-width="0.5" stroke="yellow" fill="yellow"/>
   </g>
   <g id="cell160">
  <circle cx="620.668" cy="267.169" r="8.72107" stroke-width="0.5" stroke="black" fill="red"/>
  <circle cx="620.668" cy="267.169" r="5.27901" stroke-width="0.5" stroke="red" fill="red"/>
   </g>
   <g id="cell161">
  <circle cx="39.9117" cy="929.436" r="3.91431" stroke-width="0.5" stroke="black" fill="red"/>
  <circle cx="39.9117" cy="929.436" r="2.85526" stroke-width="0.5" stroke="black" fill="black"/>
   </g>
   <g id="cell162">
  <circle cx="849.791" cy="116.998" r="9.7698" stroke-width="0.5" stroke="black" fill="red"/>
  <circle cx="849.791" cy="116.998" r="5.93537" stroke-width="0.5" stroke="red" fill="red"/>
   </g>
   <g id="cell163">
  <circle cx="431.213" cy="976.592" r="9.72098" stroke-width="0.5" stroke="black" fill="red"/>
  <circle cx="431.213" cy="976.592" r="5.907" stroke-width="0.5" stroke="red" fill="red"/>
   </g>
   <g id="cell164">
  <circle cx="838.205" cy="955.115" r="8.40427" stroke-width="0.5" stroke="black" fill="red"/>
  <circle cx="838.205" cy="955.115" r="5.04906" stroke-width="0.5" stroke="red" fill="red"/>
   </g>
   <g id="cell165">
  <circle cx="824.256" cy="401.65" r="9.69529" stroke-width="0.5" stroke="black" fill="red"/>
  <circle cx="824.256" cy="401.65" r="5.89205" stroke-width="0.5" stroke="red" fill="red"/>
   </g>
   <g id="cell166">
  <circle cx="807.535" cy="538.54" r="9.66909" stroke-width="0.5" stroke="black" fill="yellow"/>
  <circle cx="807.535" cy="538.54" r="5.87672" stroke-width="0.5" stroke="yellow" fill="yellow"/>
   </g>
   <g id="cell167">
  <circle cx="629.114" cy="146.064" r="8.40353" stroke-width="0.5" stroke="black" fill="yellow"/>
  <circle cx="629.114" cy="146.064" r="5.04881" stroke-width="0.5" stroke="yellow" fill="yellow"/>
   </g>
   <g id="cell168">
  <circle cx="953.085" cy="900.913" r="9.33526" stroke-width="0.5" stroke="black" fill="yellow"/>
  <circle cx="953.085" cy="900.913" r="5.67618" stroke-width="0.5" stroke="yellow" fill="yellow"/>
   </g>
   <g id="cell169">
  <circle cx="361.935" cy="961.783" r="9.07809" stroke-width="0.5" stroke="black" fill="yellow"/>
  <circle cx="361.935" cy="961.783" r="5.51557" stroke-width="0.5" stroke="yellow" fill="yellow"/>
   </g>
   <g id="cell170">
  <circle cx="64.9684" cy="983.757" r="8.403" stroke-width="0.5" stroke="black" fill="red"/>
  <circle cx="64.9684" cy="983.757" r="5.04863" stroke-width="0.5" stroke="red" fill="red"/>
   </g>
   <g id="cell171">
  <circle cx="554.92" cy="368.542" r="9.15463" stroke-width="0.5" stroke="black" fill="red"/>
  <circle cx="554.92" cy="368.542" r="5.56401" stroke-width="0.5" stroke="red" fill="red"/>
   </g>
   <g id="cell172">
  <circle cx="460.413" cy="786.347" r="9.22857" stroke-width="0.5" stroke="black" fill="red"/>
  <circle cx="460.413" cy="786.347" r="5.61035" stroke-width="0.5" stroke="red" fill="red"/>
   </g>
   <g id="cell173">
  <circle cx="932.884" cy="426.381" r="8.40244" stroke-width="0.5" stroke="black" fill="red"/>
  <circle cx="932.884" cy="426.381" r="5.04843" stroke-width="0.5" stroke="red" fill="red"/>
   </g>
   <g id="cell174">
  <circle cx="385.254" cy="89.6883" r="8.40185" stroke-width="0.5" stroke="black" fill="yellow"/>
  <circle cx="385.254" cy="89.6883" r="5.04822" stroke-width="0.5" stroke="yellow" fill="yellow"/>
   </g>
   <g id="cell175">
  <circle cx="39.5823" cy="316.749" r="9.33412" stroke-width="0.5" stroke="black" fill="yellow"/>
  <circle cx="39.5823" cy="316.749" r="5.67576" stroke-width="0.5" stroke="yellow" fill="yellow"/>
   </g>
   <g id="cell178">
  <circle cx="60.3257" cy="158.334" r="8.99553" stroke-width="0.5" stroke="black" fill="red"/>
  <circle cx="60.3257" cy="158.334" r="5.4637" stroke-width="0.5" stroke="red" fill="red"/>
   </g>
   <g id="cell179">
  <circle cx="26.5047" cy="501.282" r="8.39834" stroke-width="0.5" stroke="black" fill="yellow"/>
  <circle cx="26.5047" cy="501.282" r="5.04696" stroke-width="0.5" stroke="yellow" fill="yellow"/>
   </g>
   <g id="cell180">
  <circle cx="40.5041" cy="670.716" r="8.39794" stroke-width="0.5" stroke="black" fill="yellow"/>
  <circle cx="40.5041" cy="670.716" r="5.04681" stroke-width="0.5" stroke="yellow" fill="yellow"/>
   </g>
   <g id="cell181">
  <circle cx="982.258" cy="689.406" r="8.39708" stroke-width="0.5" stroke="black" fill="red"/>
  <circle cx="982.258" cy="689.406" r="5.0465" stroke-width="0.5" stroke="red" fill="red"/>
   </g>
   <g id="cell182">
  <circle cx="519.896" cy="964.775" r="8.39664" stroke-width="0.5" stroke="black" fill="yellow"/>
  <circle cx="519.896" cy="964.775" r="5.04633" stroke-width="0.5" stroke="yellow" fill="yellow"/>
   </g>
   <g id="cell183">
  <circle cx="654.088" cy="833.238" r="8.39664" stroke-width="0.5" stroke="black" fill="red"/>
  <circle cx="654.088" cy="833.238" r="5.04633" stroke-width="0.5" stroke="red" fill="red"/>
   </g>
   <g id="cell187">
  <circle cx="311.182" cy="448.971" r="8.38823" stroke-width="0.5" stroke="black" fill="yellow"/>
  <circle cx="311.182" cy="448.971" r="5.04313" stroke-width="0.5" stroke="yellow" fill="yellow"/>
   </g>
  </g>
 </g>
  <rect x="775" y="1035" width="200" height="10" stroke-width="2" stroke="rgb(255,255,255)" fill="rgb(0,0,0)"/>
  <text x="781.25" y="1028.75"
   font-family="Arial" font-size="25" fill="black" >
   200 &#956;m
  </text>
  <text x="25" y="1045"
   font-family="Arial" font-size="18.75" fill="black" >
   0 days, 0 hours, 1 minutes, and 38.7870 seconds
  </text>
  <rect x="0" y="70" width="1000" height="1000" stroke-width="2" stroke="rgb(0,0,0)" fill="none"/>
</svg>
