<?xml version="1.0" encoding="UTF-8" standalone="no"?>
<!-- Created with PhysiCell (http://PhysiCell.MathCancer.org/) -->
<svg 
 xmlns:dc="http://purl.org/dc/elements/1.1/" 
 xmlns:cc="http://creativecommons.org/ns#" 
 xmlns:rdf="http://www.w3.org/1999/02/22-rdf-syntax-ns#" 
 xmlns:svg="http://www.w3.org/2000/svg" 
 xmlns="http://www.w3.org/2000/svg" 
 version="1.1" 
 width="1000" 
 height="1070" 
 id="svg2">
  <rect x="0" y="0" width="1000" height="1070" stroke-width="2" stroke="white" fill="white"/>
  <text x="12.5" y="30"
   font-family="Arial" font-size="25" fill="black" >
   Current time: 0 days, 15 hours, and 30.00 minutes, z = 0.00 &#956;m
  </text>
  <text x="12.5" y="57.5"
   font-family="Arial" font-size="23.75" fill="black" >
   100 agents
  </text>
 <g id="tissue" 
    transform="translate(0,1070) scale(1,-1)">
  <g id="ECM">
  </g>
  <g id="cells">
   <g id="cell0">
  <circle cx="511.368" cy="625.996" r="8.38532" stroke-width="0.5" stroke="black" fill="grey"/>
  <circle cx="511.368" cy="625.996" r="5.04199" stroke-width="0.5" stroke="grey" fill="grey"/>
   </g>
   <g id="cell118">
  <circle cx="906.425" cy="600.812" r="10.5573" stroke-width="0.5" stroke="black" fill="yellow"/>
  <circle cx="906.425" cy="600.812" r="6.3495" stroke-width="0.5" stroke="yellow" fill="yellow"/>
   </g>
   <g id="cell100">
  <circle cx="134.577" cy="831.364" r="10.5549" stroke-width="0.5" stroke="black" fill="yellow"/>
  <circle cx="134.577" cy="831.364" r="6.34851" stroke-width="0.5" stroke="yellow" fill="yellow"/>
   </g>
   <g id="cell3">
  <circle cx="619.443" cy="594.945" r="10.5573" stroke-width="0.5" stroke="black" fill="grey"/>
  <circle cx="619.443" cy="594.945" r="6.3495" stroke-width="0.5" stroke="grey" fill="grey"/>
   </g>
   <g id="cell103">
  <circle cx="842.036" cy="848.226" r="9.00806" stroke-width="0.5" stroke="black" fill="yellow"/>
  <circle cx="842.036" cy="848.226" r="5.46807" stroke-width="0.5" stroke="yellow" fill="yellow"/>
   </g>
   <g id="cell5">
  <circle cx="75.5167" cy="967.659" r="1.59113" stroke-width="0.5" stroke="black" fill="grey"/>
  <circle cx="75.5167" cy="967.659" r="1.58252" stroke-width="0.5" stroke="black" fill="black"/>
   </g>
   <g id="cell6">
  <circle cx="385.987" cy="484.758" r="3.65571" stroke-width="0.5" stroke="black" fill="grey"/>
  <circle cx="385.987" cy="484.758" r="3.04975" stroke-width="0.5" stroke="black" fill="black"/>
   </g>
   <g id="cell7">
  <circle cx="877.935" cy="522.958" r="10.5314" stroke-width="0.5" stroke="black" fill="grey"/>
  <circle cx="877.935" cy="522.958" r="6.33867" stroke-width="0.5" stroke="grey" fill="grey"/>
   </g>
   <g id="cell8">
  <circle cx="591.453" cy="418.492" r="10.5117" stroke-width="0.5" stroke="black" fill="grey"/>
  <circle cx="591.453" cy="418.492" r="6.33005" stroke-width="0.5" stroke="grey" fill="grey"/>
   </g>
   <g id="cell112">
  <circle cx="782.108" cy="750.99" r="10.5523" stroke-width="0.5" stroke="black" fill="yellow"/>
  <circle cx="782.108" cy="750.99" r="6.34745" stroke-width="0.5" stroke="yellow" fill="yellow"/>
   </g>
   <g id="cell10">
  <circle cx="134.269" cy="642.6" r="2.82874" stroke-width="0.5" stroke="black" fill="grey"/>
  <circle cx="134.269" cy="642.6" r="2.59895" stroke-width="0.5" stroke="black" fill="black"/>
   </g>
   <g id="cell11">
  <circle cx="330.059" cy="826.206" r="3.78509" stroke-width="0.5" stroke="black" fill="grey"/>
  <circle cx="330.059" cy="826.206" r="3.10059" stroke-width="0.5" stroke="black" fill="black"/>
   </g>
   <g id="cell104">
  <circle cx="779.61" cy="397.375" r="10.5628" stroke-width="0.5" stroke="black" fill="yellow"/>
  <circle cx="779.61" cy="397.375" r="6.35171" stroke-width="0.5" stroke="yellow" fill="yellow"/>
   </g>
   <g id="cell102">
  <circle cx="596.28" cy="183.839" r="10.5039" stroke-width="0.5" stroke="black" fill="yellow"/>
  <circle cx="596.28" cy="183.839" r="6.32657" stroke-width="0.5" stroke="yellow" fill="yellow"/>
   </g>
   <g id="cell98">
  <circle cx="919.167" cy="384.533" r="10.3933" stroke-width="0.5" stroke="black" fill="yellow"/>
  <circle cx="919.167" cy="384.533" r="6.27417" stroke-width="0.5" stroke="yellow" fill="yellow"/>
   </g>
   <g id="cell97">
  <circle cx="429.767" cy="120.754" r="10.2999" stroke-width="0.5" stroke="black" fill="yellow"/>
  <circle cx="429.767" cy="120.754" r="6.22699" stroke-width="0.5" stroke="yellow" fill="yellow"/>
   </g>
   <g id="cell16">
  <circle cx="161.387" cy="736.944" r="10.542" stroke-width="0.5" stroke="black" fill="grey"/>
  <circle cx="161.387" cy="736.944" r="6.34318" stroke-width="0.5" stroke="grey" fill="grey"/>
   </g>
   <g id="cell116">
  <circle cx="827.224" cy="465.936" r="10.2221" stroke-width="0.5" stroke="black" fill="yellow"/>
  <circle cx="827.224" cy="465.936" r="6.18628" stroke-width="0.5" stroke="yellow" fill="yellow"/>
   </g>
   <g id="cell18">
  <circle cx="959.432" cy="705.774" r="2.63828" stroke-width="0.5" stroke="black" fill="grey"/>
  <circle cx="959.432" cy="705.774" r="2.45219" stroke-width="0.5" stroke="black" fill="black"/>
   </g>
   <g id="cell101">
  <circle cx="105.185" cy="135.104" r="9.67603" stroke-width="0.5" stroke="black" fill="yellow"/>
  <circle cx="105.185" cy="135.104" r="5.87901" stroke-width="0.5" stroke="yellow" fill="yellow"/>
   </g>
   <g id="cell20">
  <circle cx="235.256" cy="172.059" r="3.25459" stroke-width="0.5" stroke="black" fill="grey"/>
  <circle cx="235.256" cy="172.059" r="2.84206" stroke-width="0.5" stroke="black" fill="black"/>
   </g>
   <g id="cell99">
  <circle cx="509.341" cy="976.469" r="10.4307" stroke-width="0.5" stroke="black" fill="yellow"/>
  <circle cx="509.341" cy="976.469" r="6.29241" stroke-width="0.5" stroke="yellow" fill="yellow"/>
   </g>
   <g id="cell115">
  <circle cx="204.057" cy="23.3224" r="10.5404" stroke-width="0.5" stroke="black" fill="yellow"/>
  <circle cx="204.057" cy="23.3224" r="6.34248" stroke-width="0.5" stroke="yellow" fill="yellow"/>
   </g>
   <g id="cell108">
  <circle cx="708.096" cy="37.302" r="5.83287" stroke-width="0.5" stroke="black" fill="yellow"/>
  <circle cx="708.096" cy="37.302" r="3.99394" stroke-width="0.5" stroke="black" fill="black"/>
   </g>
   <g id="cell24">
  <circle cx="608.109" cy="222.435" r="1.88112" stroke-width="0.5" stroke="black" fill="grey"/>
  <circle cx="608.109" cy="222.435" r="1.85619" stroke-width="0.5" stroke="black" fill="black"/>
   </g>
   <g id="cell105">
  <circle cx="103.134" cy="425.109" r="9.20015" stroke-width="0.5" stroke="black" fill="yellow"/>
  <circle cx="103.134" cy="425.109" r="5.59022" stroke-width="0.5" stroke="yellow" fill="yellow"/>
   </g>
   <g id="cell26">
  <circle cx="649.022" cy="437.953" r="10.5561" stroke-width="0.5" stroke="black" fill="grey"/>
  <circle cx="649.022" cy="437.953" r="6.34901" stroke-width="0.5" stroke="grey" fill="grey"/>
   </g>
   <g id="cell117">
  <circle cx="891.605" cy="391.931" r="10.3247" stroke-width="0.5" stroke="black" fill="yellow"/>
  <circle cx="891.605" cy="391.931" r="6.23971" stroke-width="0.5" stroke="yellow" fill="yellow"/>
   </g>
   <g id="cell28">
  <circle cx="643.005" cy="148.222" r="10.5482" stroke-width="0.5" stroke="black" fill="grey"/>
  <circle cx="643.005" cy="148.222" r="6.34574" stroke-width="0.5" stroke="grey" fill="grey"/>
   </g>
   <g id="cell29">
  <circle cx="960.902" cy="690.177" r="10.5585" stroke-width="0.5" stroke="black" fill="grey"/>
  <circle cx="960.902" cy="690.177" r="6.34997" stroke-width="0.5" stroke="grey" fill="grey"/>
   </g>
   <g id="cell30">
  <circle cx="736.204" cy="138.451" r="10.2821" stroke-width="0.5" stroke="black" fill="grey"/>
  <circle cx="736.204" cy="138.451" r="6.21778" stroke-width="0.5" stroke="grey" fill="grey"/>
   </g>
   <g id="cell31">
  <circle cx="415.138" cy="106.68" r="7.42169" stroke-width="0.5" stroke="black" fill="grey"/>
  <circle cx="415.138" cy="106.68" r="4.71272" stroke-width="0.5" stroke="black" fill="black"/>
   </g>
   <g id="cell114">
  <circle cx="36.0328" cy="323.519" r="10.4862" stroke-width="0.5" stroke="black" fill="yellow"/>
  <circle cx="36.0328" cy="323.519" r="6.31853" stroke-width="0.5" stroke="yellow" fill="yellow"/>
   </g>
   <g id="cell107">
  <circle cx="378.506" cy="425.648" r="9.59391" stroke-width="0.5" stroke="black" fill="yellow"/>
  <circle cx="378.506" cy="425.648" r="5.83043" stroke-width="0.5" stroke="yellow" fill="yellow"/>
   </g>
   <g id="cell106">
  <circle cx="38.9417" cy="978.161" r="10.551" stroke-width="0.5" stroke="black" fill="yellow"/>
  <circle cx="38.9417" cy="978.161" r="6.3469" stroke-width="0.5" stroke="yellow" fill="yellow"/>
   </g>
   <g id="cell35">
  <circle cx="919.381" cy="94.3403" r="8.80772" stroke-width="0.5" stroke="black" fill="grey"/>
  <circle cx="919.381" cy="94.3403" r="5.33574" stroke-width="0.5" stroke="grey" fill="grey"/>
   </g>
   <g id="cell109">
  <circle cx="364.992" cy="961.612" r="10.4984" stroke-width="0.5" stroke="black" fill="yellow"/>
  <circle cx="364.992" cy="961.612" r="6.32406" stroke-width="0.5" stroke="yellow" fill="yellow"/>
   </g>
   <g id="cell111">
  <circle cx="762.5" cy="356.23" r="10.2999" stroke-width="0.5" stroke="black" fill="yellow"/>
  <circle cx="762.5" cy="356.23" r="6.22699" stroke-width="0.5" stroke="yellow" fill="yellow"/>
   </g>
   <g id="cell38">
  <circle cx="228.983" cy="445.784" r="1.55427" stroke-width="0.5" stroke="black" fill="grey"/>
  <circle cx="228.983" cy="445.784" r="1.54694" stroke-width="0.5" stroke="black" fill="black"/>
   </g>
   <g id="cell110">
  <circle cx="861.96" cy="258.065" r="9.44256" stroke-width="0.5" stroke="black" fill="yellow"/>
  <circle cx="861.96" cy="258.065" r="5.73955" stroke-width="0.5" stroke="yellow" fill="yellow"/>
   </g>
   <g id="cell40">
  <circle cx="169.015" cy="394.679" r="10.5352" stroke-width="0.5" stroke="black" fill="red"/>
  <circle cx="169.015" cy="394.679" r="6.34027" stroke-width="0.5" stroke="red" fill="red"/>
   </g>
   <g id="cell41">
  <circle cx="681.62" cy="678.987" r="10.5496" stroke-width="0.5" stroke="black" fill="red"/>
  <circle cx="681.62" cy="678.987" r="6.34633" stroke-width="0.5" stroke="red" fill="red"/>
   </g>
   <g id="cell42">
  <circle cx="132.949" cy="730.568" r="10.5496" stroke-width="0.5" stroke="black" fill="red"/>
  <circle cx="132.949" cy="730.568" r="6.34633" stroke-width="0.5" stroke="red" fill="red"/>
   </g>
   <g id="cell43">
  <circle cx="893.702" cy="388.885" r="10.4925" stroke-width="0.5" stroke="black" fill="red"/>
  <circle cx="893.702" cy="388.885" r="6.32139" stroke-width="0.5" stroke="red" fill="red"/>
   </g>
   <g id="cell44">
  <circle cx="818.734" cy="38.0368" r="10.5333" stroke-width="0.5" stroke="black" fill="red"/>
  <circle cx="818.734" cy="38.0368" r="6.33948" stroke-width="0.5" stroke="red" fill="red"/>
   </g>
   <g id="cell45">
  <circle cx="642.894" cy="838.787" r="10.4307" stroke-width="0.5" stroke="black" fill="red"/>
  <circle cx="642.894" cy="838.787" r="6.29241" stroke-width="0.5" stroke="red" fill="red"/>
   </g>
   <g id="cell46">
  <circle cx="57.1433" cy="917.768" r="10.5561" stroke-width="0.5" stroke="black" fill="red"/>
  <circle cx="57.1433" cy="917.768" r="6.34901" stroke-width="0.5" stroke="red" fill="red"/>
   </g>
   <g id="cell47">
  <circle cx="896.24" cy="430.39" r="10.542" stroke-width="0.5" stroke="black" fill="red"/>
  <circle cx="896.24" cy="430.39" r="6.34318" stroke-width="0.5" stroke="red" fill="red"/>
   </g>
   <g id="cell48">
  <circle cx="914.286" cy="54.5573" r="10.5607" stroke-width="0.5" stroke="black" fill="red"/>
  <circle cx="914.286" cy="54.5573" r="6.35087" stroke-width="0.5" stroke="red" fill="red"/>
   </g>
   <g id="cell49">
  <circle cx="465.983" cy="792.677" r="10.4955" stroke-width="0.5" stroke="black" fill="red"/>
  <circle cx="465.983" cy="792.677" r="6.32275" stroke-width="0.5" stroke="red" fill="red"/>
   </g>
   <g id="cell50">
  <circle cx="15.2876" cy="488.794" r="8.38682" stroke-width="0.5" stroke="black" fill="red"/>
  <circle cx="15.2876" cy="488.794" r="5.04258" stroke-width="0.5" stroke="red" fill="red"/>
   </g>
   <g id="cell51">
  <circle cx="958.355" cy="141.253" r="10.5618" stroke-width="0.5" stroke="black" fill="red"/>
  <circle cx="958.355" cy="141.253" r="6.3513" stroke-width="0.5" stroke="red" fill="red"/>
   </g>
   <g id="cell96">
  <circle cx="791.091" cy="541.955" r="10.5039" stroke-width="0.5" stroke="black" fill="yellow"/>
  <circle cx="791.091" cy="541.955" r="6.32657" stroke-width="0.5" stroke="yellow" fill="yellow"/>
   </g>
   <g id="cell53">
  <circle cx="683.305" cy="338.595" r="10.5561" stroke-width="0.5" stroke="black" fill="red"/>
  <circle cx="683.305" cy="338.595" r="6.34901" stroke-width="0.5" stroke="red" fill="red"/>
   </g>
   <g id="cell54">
  <circle cx="448.061" cy="928.778" r="10.5117" stroke-width="0.5" stroke="black" fill="red"/>
  <circle cx="448.061" cy="928.778" r="6.33005" stroke-width="0.5" stroke="red" fill="red"/>
   </g>
   <g id="cell55">
  <circle cx="247.957" cy="724.342" r="10.0336" stroke-width="0.5" stroke="black" fill="red"/>
  <circle cx="247.957" cy="724.342" r="6.08382" stroke-width="0.5" stroke="red" fill="red"/>
   </g>
   <g id="cell56">
  <circle cx="547.772" cy="818.717" r="10.537" stroke-width="0.5" stroke="black" fill="red"/>
  <circle cx="547.772" cy="818.717" r="6.34103" stroke-width="0.5" stroke="red" fill="red"/>
   </g>
   <g id="cell57">
  <circle cx="495.491" cy="551.084" r="10.5467" stroke-width="0.5" stroke="black" fill="red"/>
  <circle cx="495.491" cy="551.084" r="6.34513" stroke-width="0.5" stroke="red" fill="red"/>
   </g>
   <g id="cell58">
  <circle cx="64.2031" cy="919.017" r="10.5142" stroke-width="0.5" stroke="black" fill="red"/>
  <circle cx="64.2031" cy="919.017" r="6.33113" stroke-width="0.5" stroke="red" fill="red"/>
   </g>
   <g id="cell59">
  <circle cx="100.765" cy="968.053" r="10.4984" stroke-width="0.5" stroke="black" fill="red"/>
  <circle cx="100.765" cy="968.053" r="6.32406" stroke-width="0.5" stroke="red" fill="red"/>
   </g>
   <g id="cell60">
  <circle cx="269.963" cy="45.8322" r="10.4761" stroke-width="0.5" stroke="black" fill="red"/>
  <circle cx="269.963" cy="45.8322" r="6.31388" stroke-width="0.5" stroke="red" fill="red"/>
   </g>
   <g id="cell61">
  <circle cx="840.148" cy="130.56" r="10.5142" stroke-width="0.5" stroke="black" fill="red"/>
  <circle cx="840.148" cy="130.56" r="6.33113" stroke-width="0.5" stroke="red" fill="red"/>
   </g>
   <g id="cell62">
  <circle cx="744.997" cy="810.929" r="8.41271" stroke-width="0.5" stroke="black" fill="red"/>
  <circle cx="744.997" cy="810.929" r="5.05167" stroke-width="0.5" stroke="red" fill="red"/>
   </g>
   <g id="cell63">
  <circle cx="314.431" cy="185.543" r="10.5436" stroke-width="0.5" stroke="black" fill="red"/>
  <circle cx="314.431" cy="185.543" r="6.34385" stroke-width="0.5" stroke="red" fill="red"/>
   </g>
   <g id="cell64">
  <circle cx="584.168" cy="544.626" r="8.41271" stroke-width="0.5" stroke="black" fill="red"/>
  <circle cx="584.168" cy="544.626" r="5.05167" stroke-width="0.5" stroke="red" fill="red"/>
   </g>
   <g id="cell65">
  <circle cx="190.302" cy="844.985" r="4.78637" stroke-width="0.5" stroke="black" fill="red"/>
  <circle cx="190.302" cy="844.985" r="3.51294" stroke-width="0.5" stroke="black" fill="black"/>
   </g>
   <g id="cell66">
  <circle cx="39.3858" cy="149.908" r="10.4489" stroke-width="0.5" stroke="black" fill="red"/>
  <circle cx="39.3858" cy="149.908" r="6.30112" stroke-width="0.5" stroke="red" fill="red"/>
   </g>
   <g id="cell67">
  <circle cx="522.19" cy="274.539" r="10.4307" stroke-width="0.5" stroke="black" fill="red"/>
  <circle cx="522.19" cy="274.539" r="6.29241" stroke-width="0.5" stroke="red" fill="red"/>
   </g>
   <g id="cell68">
  <circle cx="772.449" cy="258.296" r="10.5523" stroke-width="0.5" stroke="black" fill="red"/>
  <circle cx="772.449" cy="258.296" r="6.34745" stroke-width="0.5" stroke="red" fill="red"/>
   </g>
   <g id="cell69">
  <circle cx="448.948" cy="285.555" r="10.4761" stroke-width="0.5" stroke="black" fill="red"/>
  <circle cx="448.948" cy="285.555" r="6.31388" stroke-width="0.5" stroke="red" fill="red"/>
   </g>
   <g id="cell70">
  <circle cx="554.208" cy="383.583" r="10.4984" stroke-width="0.5" stroke="black" fill="red"/>
  <circle cx="554.208" cy="383.583" r="6.32406" stroke-width="0.5" stroke="red" fill="red"/>
   </g>
   <g id="cell71">
  <circle cx="867.876" cy="539.243" r="10.5607" stroke-width="0.5" stroke="black" fill="red"/>
  <circle cx="867.876" cy="539.243" r="6.35087" stroke-width="0.5" stroke="red" fill="red"/>
   </g>
   <g id="cell72">
  <circle cx="223.295" cy="889.376" r="10.5387" stroke-width="0.5" stroke="black" fill="red"/>
  <circle cx="223.295" cy="889.376" r="6.34177" stroke-width="0.5" stroke="red" fill="red"/>
   </g>
   <g id="cell73">
  <circle cx="646.824" cy="442.288" r="10.5536" stroke-width="0.5" stroke="black" fill="red"/>
  <circle cx="646.824" cy="442.288" r="6.34799" stroke-width="0.5" stroke="red" fill="red"/>
   </g>
   <g id="cell74">
  <circle cx="851.333" cy="988.432" r="10.5117" stroke-width="0.5" stroke="black" fill="red"/>
  <circle cx="851.333" cy="988.432" r="6.33005" stroke-width="0.5" stroke="red" fill="red"/>
   </g>
   <g id="cell75">
  <circle cx="93.1924" cy="312.232" r="10.551" stroke-width="0.5" stroke="black" fill="red"/>
  <circle cx="93.1924" cy="312.232" r="6.3469" stroke-width="0.5" stroke="red" fill="red"/>
   </g>
   <g id="cell76">
  <circle cx="800.175" cy="407.157" r="10.5066" stroke-width="0.5" stroke="black" fill="red"/>
  <circle cx="800.175" cy="407.157" r="6.32777" stroke-width="0.5" stroke="red" fill="red"/>
   </g>
   <g id="cell77">
  <circle cx="639.231" cy="857.323" r="10.5314" stroke-width="0.5" stroke="black" fill="red"/>
  <circle cx="639.231" cy="857.323" r="6.33867" stroke-width="0.5" stroke="red" fill="red"/>
   </g>
   <g id="cell78">
  <circle cx="601.47" cy="254.586" r="10.5189" stroke-width="0.5" stroke="black" fill="red"/>
  <circle cx="601.47" cy="254.586" r="6.3332" stroke-width="0.5" stroke="red" fill="red"/>
   </g>
   <g id="cell79">
  <circle cx="969.406" cy="717.093" r="10.4355" stroke-width="0.5" stroke="black" fill="red"/>
  <circle cx="969.406" cy="717.093" r="6.2947" stroke-width="0.5" stroke="red" fill="red"/>
   </g>
   <g id="cell80">
  <circle cx="741.3" cy="705.638" r="9.34292" stroke-width="0.5" stroke="black" fill="yellow"/>
  <circle cx="741.3" cy="705.638" r="5.67875" stroke-width="0.5" stroke="yellow" fill="yellow"/>
   </g>
   <g id="cell81">
  <circle cx="500.255" cy="990.595" r="8.41271" stroke-width="0.5" stroke="black" fill="yellow"/>
  <circle cx="500.255" cy="990.595" r="5.05167" stroke-width="0.5" stroke="yellow" fill="yellow"/>
   </g>
   <g id="cell82">
  <circle cx="671.538" cy="411.8" r="10.542" stroke-width="0.5" stroke="black" fill="yellow"/>
  <circle cx="671.538" cy="411.8" r="6.34318" stroke-width="0.5" stroke="yellow" fill="yellow"/>
   </g>
   <g id="cell83">
  <circle cx="591.262" cy="589.173" r="10.5295" stroke-width="0.5" stroke="black" fill="yellow"/>
  <circle cx="591.262" cy="589.173" r="6.33783" stroke-width="0.5" stroke="yellow" fill="yellow"/>
   </g>
   <g id="cell84">
  <circle cx="32.0418" cy="504.651" r="10.4489" stroke-width="0.5" stroke="black" fill="yellow"/>
  <circle cx="32.0418" cy="504.651" r="6.30112" stroke-width="0.5" stroke="yellow" fill="yellow"/>
   </g>
   <g id="cell85">
  <circle cx="743.091" cy="662.529" r="10.5536" stroke-width="0.5" stroke="black" fill="yellow"/>
  <circle cx="743.091" cy="662.529" r="6.34799" stroke-width="0.5" stroke="yellow" fill="yellow"/>
   </g>
   <g id="cell86">
  <circle cx="282.697" cy="446.089" r="10.34" stroke-width="0.5" stroke="black" fill="yellow"/>
  <circle cx="282.697" cy="446.089" r="6.24753" stroke-width="0.5" stroke="yellow" fill="yellow"/>
   </g>
   <g id="cell87">
  <circle cx="756.756" cy="414.514" r="8.38532" stroke-width="0.5" stroke="black" fill="yellow"/>
  <circle cx="756.756" cy="414.514" r="5.04199" stroke-width="0.5" stroke="yellow" fill="yellow"/>
   </g>
   <g id="cell88">
  <circle cx="152.159" cy="101.987" r="10.5233" stroke-width="0.5" stroke="black" fill="yellow"/>
  <circle cx="152.159" cy="101.987" r="6.33514" stroke-width="0.5" stroke="yellow" fill="yellow"/>
   </g>
   <g id="cell89">
  <circle cx="56.8198" cy="540.711" r="10.3873" stroke-width="0.5" stroke="black" fill="yellow"/>
  <circle cx="56.8198" cy="540.711" r="6.2712" stroke-width="0.5" stroke="yellow" fill="yellow"/>
   </g>
   <g id="cell119">
  <circle cx="568.155" cy="31.2355" r="10.3811" stroke-width="0.5" stroke="black" fill="yellow"/>
  <circle cx="568.155" cy="31.2355" r="6.26814" stroke-width="0.5" stroke="yellow" fill="yellow"/>
   </g>
   <g id="cell91">
  <circle cx="39.0173" cy="642.22" r="10.4446" stroke-width="0.5" stroke="black" fill="yellow"/>
  <circle cx="39.0173" cy="642.22" r="6.29905" stroke-width="0.5" stroke="yellow" fill="yellow"/>
   </g>
   <g id="cell92">
  <circle cx="636.451" cy="310.806" r="10.5189" stroke-width="0.5" stroke="black" fill="yellow"/>
  <circle cx="636.451" cy="310.806" r="6.3332" stroke-width="0.5" stroke="yellow" fill="yellow"/>
   </g>
   <g id="cell93">
  <circle cx="233.522" cy="892.614" r="8.38532" stroke-width="0.5" stroke="black" fill="yellow"/>
  <circle cx="233.522" cy="892.614" r="5.04199" stroke-width="0.5" stroke="yellow" fill="yellow"/>
   </g>
   <g id="cell94">
  <circle cx="364.612" cy="88.4974" r="10.4862" stroke-width="0.5" stroke="black" fill="yellow"/>
  <circle cx="364.612" cy="88.4974" r="6.31853" stroke-width="0.5" stroke="yellow" fill="yellow"/>
   </g>
   <g id="cell95">
  <circle cx="953.548" cy="902.005" r="10.5012" stroke-width="0.5" stroke="black" fill="yellow"/>
  <circle cx="953.548" cy="902.005" r="6.32534" stroke-width="0.5" stroke="yellow" fill="yellow"/>
   </g>
   <g id="cell121">
  <circle cx="7.97816" cy="485.927" r="8.38682" stroke-width="0.5" stroke="black" fill="red"/>
  <circle cx="7.97816" cy="485.927" r="5.04258" stroke-width="0.5" stroke="red" fill="red"/>
   </g>
   <g id="cell122">
  <circle cx="764.353" cy="429.604" r="8.38532" stroke-width="0.5" stroke="black" fill="yellow"/>
  <circle cx="764.353" cy="429.604" r="5.04199" stroke-width="0.5" stroke="yellow" fill="yellow"/>
   </g>
   <g id="cell123">
  <circle cx="250.528" cy="882.982" r="8.38532" stroke-width="0.5" stroke="black" fill="yellow"/>
  <circle cx="250.528" cy="882.982" r="5.04199" stroke-width="0.5" stroke="yellow" fill="yellow"/>
   </g>
   <g id="cell124">
  <circle cx="528.178" cy="625.722" r="8.38532" stroke-width="0.5" stroke="black" fill="grey"/>
  <circle cx="528.178" cy="625.722" r="5.04199" stroke-width="0.5" stroke="grey" fill="grey"/>
   </g>
  </g>
 </g>
  <rect x="775" y="1035" width="200" height="10" stroke-width="2" stroke="rgb(255,255,255)" fill="rgb(0,0,0)"/>
  <text x="781.25" y="1028.75"
   font-family="Arial" font-size="25" fill="black" >
   200 &#956;m
  </text>
  <text x="25" y="1045"
   font-family="Arial" font-size="18.75" fill="black" >
   0 days, 0 hours, 1 minutes, and 5.1903 seconds
  </text>
  <rect x="0" y="70" width="1000" height="1000" stroke-width="2" stroke="rgb(0,0,0)" fill="none"/>
</svg>
