<?xml version="1.0" encoding="UTF-8" standalone="no"?>
<!-- Created with PhysiCell (http://PhysiCell.MathCancer.org/) -->
<svg 
 xmlns:dc="http://purl.org/dc/elements/1.1/" 
 xmlns:cc="http://creativecommons.org/ns#" 
 xmlns:rdf="http://www.w3.org/1999/02/22-rdf-syntax-ns#" 
 xmlns:svg="http://www.w3.org/2000/svg" 
 xmlns="http://www.w3.org/2000/svg" 
 version="1.1" 
 width="1000" 
 height="1070" 
 id="svg2">
  <rect x="0" y="0" width="1000" height="1070" stroke-width="2" stroke="white" fill="white"/>
  <text x="12.5" y="30"
   font-family="Arial" font-size="25" fill="black" >
   Current time: 1 days, 10 hours, and 0.00 minutes, z = 0.00 &#956;m
  </text>
  <text x="12.5" y="57.5"
   font-family="Arial" font-size="23.75" fill="black" >
   183 agents
  </text>
 <g id="tissue" 
    transform="translate(0,1070) scale(1,-1)">
  <g id="ECM">
  </g>
  <g id="cells">
   <g id="cell0">
  <circle cx="476.826" cy="614.148" r="8.39942" stroke-width="0.5" stroke="black" fill="grey"/>
  <circle cx="476.826" cy="614.148" r="5.04736" stroke-width="0.5" stroke="grey" fill="grey"/>
   </g>
   <g id="cell118">
  <circle cx="846.803" cy="570.97" r="9.64922" stroke-width="0.5" stroke="black" fill="yellow"/>
  <circle cx="846.803" cy="570.97" r="5.86325" stroke-width="0.5" stroke="yellow" fill="yellow"/>
   </g>
   <g id="cell100">
  <circle cx="132.582" cy="816.282" r="8.39824" stroke-width="0.5" stroke="black" fill="yellow"/>
  <circle cx="132.582" cy="816.282" r="5.04694" stroke-width="0.5" stroke="yellow" fill="yellow"/>
   </g>
   <g id="cell3">
  <circle cx="651.179" cy="656.703" r="8.39464" stroke-width="0.5" stroke="black" fill="grey"/>
  <circle cx="651.179" cy="656.703" r="5.0456" stroke-width="0.5" stroke="grey" fill="grey"/>
   </g>
   <g id="cell103">
  <circle cx="812.508" cy="880.343" r="9.50001" stroke-width="0.5" stroke="black" fill="yellow"/>
  <circle cx="812.508" cy="880.343" r="5.77573" stroke-width="0.5" stroke="yellow" fill="yellow"/>
   </g>
   <g id="cell135">
  <circle cx="128.391" cy="795.641" r="10.5495" stroke-width="0.5" stroke="black" fill="yellow"/>
  <circle cx="128.391" cy="795.641" r="6.3463" stroke-width="0.5" stroke="yellow" fill="yellow"/>
   </g>
   <g id="cell185">
  <circle cx="833.256" cy="382.343" r="10.4483" stroke-width="0.5" stroke="black" fill="yellow"/>
  <circle cx="833.256" cy="382.343" r="6.30097" stroke-width="0.5" stroke="yellow" fill="yellow"/>
   </g>
   <g id="cell7">
  <circle cx="846.519" cy="464.328" r="8.38807" stroke-width="0.5" stroke="black" fill="grey"/>
  <circle cx="846.519" cy="464.328" r="5.0431" stroke-width="0.5" stroke="grey" fill="grey"/>
   </g>
   <g id="cell192">
  <circle cx="825.186" cy="410.463" r="10.1747" stroke-width="0.5" stroke="black" fill="yellow"/>
  <circle cx="825.186" cy="410.463" r="6.16129" stroke-width="0.5" stroke="yellow" fill="yellow"/>
   </g>
   <g id="cell112">
  <circle cx="749.733" cy="728.273" r="1.17755" stroke-width="0.5" stroke="black" fill="yellow"/>
  <circle cx="749.733" cy="728.273" r="1.17352" stroke-width="0.5" stroke="black" fill="black"/>
   </g>
   <g id="cell176">
  <circle cx="263.157" cy="53.7361" r="10.4254" stroke-width="0.5" stroke="black" fill="red"/>
  <circle cx="263.157" cy="53.7361" r="6.28997" stroke-width="0.5" stroke="red" fill="red"/>
   </g>
   <g id="cell186">
  <circle cx="83.9456" cy="560.628" r="8.48197" stroke-width="0.5" stroke="black" fill="yellow"/>
  <circle cx="83.9456" cy="560.628" r="5.10294" stroke-width="0.5" stroke="yellow" fill="yellow"/>
   </g>
   <g id="cell104">
  <circle cx="789.042" cy="417.268" r="8.39515" stroke-width="0.5" stroke="black" fill="yellow"/>
  <circle cx="789.042" cy="417.268" r="5.04579" stroke-width="0.5" stroke="yellow" fill="yellow"/>
   </g>
   <g id="cell102">
  <circle cx="660.768" cy="150.106" r="10.5163" stroke-width="0.5" stroke="black" fill="yellow"/>
  <circle cx="660.768" cy="150.106" r="6.33212" stroke-width="0.5" stroke="yellow" fill="yellow"/>
   </g>
   <g id="cell98">
  <circle cx="875.042" cy="380.4" r="10.4755" stroke-width="0.5" stroke="black" fill="yellow"/>
  <circle cx="875.042" cy="380.4" r="6.31374" stroke-width="0.5" stroke="yellow" fill="yellow"/>
   </g>
   <g id="cell97">
  <circle cx="413.129" cy="102.707" r="10.4481" stroke-width="0.5" stroke="black" fill="yellow"/>
  <circle cx="413.129" cy="102.707" r="6.3009" stroke-width="0.5" stroke="yellow" fill="yellow"/>
   </g>
   <g id="cell16">
  <circle cx="131.186" cy="708.3" r="1.52022" stroke-width="0.5" stroke="black" fill="grey"/>
  <circle cx="131.186" cy="708.3" r="1.51396" stroke-width="0.5" stroke="black" fill="black"/>
   </g>
   <g id="cell116">
  <circle cx="797.36" cy="438.9" r="10.2422" stroke-width="0.5" stroke="black" fill="yellow"/>
  <circle cx="797.36" cy="438.9" r="6.19718" stroke-width="0.5" stroke="yellow" fill="yellow"/>
   </g>
   <g id="cell177">
  <circle cx="440.973" cy="327.227" r="10.0166" stroke-width="0.5" stroke="black" fill="red"/>
  <circle cx="440.973" cy="327.227" r="6.07448" stroke-width="0.5" stroke="red" fill="red"/>
   </g>
   <g id="cell101">
  <circle cx="152.474" cy="143.216" r="8.40884" stroke-width="0.5" stroke="black" fill="yellow"/>
  <circle cx="152.474" cy="143.216" r="5.05057" stroke-width="0.5" stroke="yellow" fill="yellow"/>
   </g>
   <g id="cell184">
  <circle cx="504.661" cy="315.564" r="10.529" stroke-width="0.5" stroke="black" fill="red"/>
  <circle cx="504.661" cy="315.564" r="6.33771" stroke-width="0.5" stroke="red" fill="red"/>
   </g>
   <g id="cell99">
  <circle cx="487.596" cy="980.193" r="10.5087" stroke-width="0.5" stroke="black" fill="yellow"/>
  <circle cx="487.596" cy="980.193" r="6.32881" stroke-width="0.5" stroke="yellow" fill="yellow"/>
   </g>
   <g id="cell115">
  <circle cx="242.688" cy="44.8746" r="10.548" stroke-width="0.5" stroke="black" fill="yellow"/>
  <circle cx="242.688" cy="44.8746" r="6.3457" stroke-width="0.5" stroke="yellow" fill="yellow"/>
   </g>
   <g id="cell191">
  <circle cx="758.412" cy="119.72" r="10.4147" stroke-width="0.5" stroke="black" fill="grey"/>
  <circle cx="758.412" cy="119.72" r="6.28486" stroke-width="0.5" stroke="grey" fill="grey"/>
   </g>
   <g id="cell153">
  <circle cx="206.138" cy="369.423" r="8.38593" stroke-width="0.5" stroke="black" fill="red"/>
  <circle cx="206.138" cy="369.423" r="5.04225" stroke-width="0.5" stroke="red" fill="red"/>
   </g>
   <g id="cell105">
  <circle cx="62.3561" cy="403.476" r="9.97806" stroke-width="0.5" stroke="black" fill="yellow"/>
  <circle cx="62.3561" cy="403.476" r="6.05387" stroke-width="0.5" stroke="yellow" fill="yellow"/>
   </g>
   <g id="cell211">
  <circle cx="662.584" cy="653.588" r="8.41451" stroke-width="0.5" stroke="black" fill="grey"/>
  <circle cx="662.584" cy="653.588" r="5.05949" stroke-width="0.5" stroke="grey" fill="grey"/>
   </g>
   <g id="cell117">
  <circle cx="874.89" cy="372.039" r="8.41151" stroke-width="0.5" stroke="black" fill="yellow"/>
  <circle cx="874.89" cy="372.039" r="5.05137" stroke-width="0.5" stroke="yellow" fill="yellow"/>
   </g>
   <g id="cell28">
  <circle cx="694.192" cy="105.796" r="8.54431" stroke-width="0.5" stroke="black" fill="grey"/>
  <circle cx="694.192" cy="105.796" r="5.14942" stroke-width="0.5" stroke="grey" fill="grey"/>
   </g>
   <g id="cell29">
  <circle cx="970.257" cy="663.234" r="10.521" stroke-width="0.5" stroke="black" fill="grey"/>
  <circle cx="970.257" cy="663.234" r="6.33416" stroke-width="0.5" stroke="grey" fill="grey"/>
   </g>
   <g id="cell30">
  <circle cx="772.746" cy="127.592" r="9.99886" stroke-width="0.5" stroke="black" fill="grey"/>
  <circle cx="772.746" cy="127.592" r="6.06476" stroke-width="0.5" stroke="grey" fill="grey"/>
   </g>
   <g id="cell190">
  <circle cx="450.157" cy="135.847" r="8.4114" stroke-width="0.5" stroke="black" fill="yellow"/>
  <circle cx="450.157" cy="135.847" r="5.05134" stroke-width="0.5" stroke="yellow" fill="yellow"/>
   </g>
   <g id="cell114">
  <circle cx="54.9764" cy="375.985" r="10.5036" stroke-width="0.5" stroke="black" fill="yellow"/>
  <circle cx="54.9764" cy="375.985" r="6.3265" stroke-width="0.5" stroke="yellow" fill="yellow"/>
   </g>
   <g id="cell107">
  <circle cx="385.399" cy="507.756" r="8.80389" stroke-width="0.5" stroke="black" fill="yellow"/>
  <circle cx="385.399" cy="507.756" r="5.33457" stroke-width="0.5" stroke="yellow" fill="yellow"/>
   </g>
   <g id="cell106">
  <circle cx="37.6919" cy="909.297" r="8.39249" stroke-width="0.5" stroke="black" fill="yellow"/>
  <circle cx="37.6919" cy="909.297" r="5.04479" stroke-width="0.5" stroke="yellow" fill="yellow"/>
   </g>
   <g id="cell35">
  <circle cx="937.109" cy="50.8992" r="9.67016" stroke-width="0.5" stroke="black" fill="grey"/>
  <circle cx="937.109" cy="50.8992" r="5.8771" stroke-width="0.5" stroke="grey" fill="grey"/>
   </g>
   <g id="cell109">
  <circle cx="383.815" cy="984.066" r="10.3471" stroke-width="0.5" stroke="black" fill="yellow"/>
  <circle cx="383.815" cy="984.066" r="6.25118" stroke-width="0.5" stroke="yellow" fill="yellow"/>
   </g>
   <g id="cell111">
  <circle cx="809.658" cy="418.854" r="8.4114" stroke-width="0.5" stroke="black" fill="yellow"/>
  <circle cx="809.658" cy="418.854" r="5.05134" stroke-width="0.5" stroke="yellow" fill="yellow"/>
   </g>
   <g id="cell131">
  <circle cx="650.848" cy="594.89" r="10.5595" stroke-width="0.5" stroke="black" fill="grey"/>
  <circle cx="650.848" cy="594.89" r="6.3504" stroke-width="0.5" stroke="grey" fill="grey"/>
   </g>
   <g id="cell110">
  <circle cx="898.777" cy="268.497" r="9.37297" stroke-width="0.5" stroke="black" fill="yellow"/>
  <circle cx="898.777" cy="268.497" r="5.69832" stroke-width="0.5" stroke="yellow" fill="yellow"/>
   </g>
   <g id="cell40">
  <circle cx="159.554" cy="404.985" r="10.5571" stroke-width="0.5" stroke="black" fill="red"/>
  <circle cx="159.554" cy="404.985" r="6.34946" stroke-width="0.5" stroke="red" fill="red"/>
   </g>
   <g id="cell41">
  <circle cx="692.544" cy="748.028" r="10.5637" stroke-width="0.5" stroke="black" fill="red"/>
  <circle cx="692.544" cy="748.028" r="6.35208" stroke-width="0.5" stroke="red" fill="red"/>
   </g>
   <g id="cell42">
  <circle cx="149.912" cy="736.275" r="10.5332" stroke-width="0.5" stroke="black" fill="red"/>
  <circle cx="149.912" cy="736.275" r="6.33945" stroke-width="0.5" stroke="red" fill="red"/>
   </g>
   <g id="cell43">
  <circle cx="857.637" cy="377.362" r="10.533" stroke-width="0.5" stroke="black" fill="red"/>
  <circle cx="857.637" cy="377.362" r="6.33941" stroke-width="0.5" stroke="red" fill="red"/>
   </g>
   <g id="cell44">
  <circle cx="839.961" cy="50.2185" r="10.5368" stroke-width="0.5" stroke="black" fill="red"/>
  <circle cx="839.961" cy="50.2185" r="6.34099" stroke-width="0.5" stroke="red" fill="red"/>
   </g>
   <g id="cell45">
  <circle cx="694.789" cy="818.4" r="10.2529" stroke-width="0.5" stroke="black" fill="red"/>
  <circle cx="694.789" cy="818.4" r="6.20268" stroke-width="0.5" stroke="red" fill="red"/>
   </g>
   <g id="cell46">
  <circle cx="64.3608" cy="914.561" r="10.1632" stroke-width="0.5" stroke="black" fill="red"/>
  <circle cx="64.3608" cy="914.561" r="6.15487" stroke-width="0.5" stroke="red" fill="red"/>
   </g>
   <g id="cell47">
  <circle cx="899.049" cy="457.684" r="10.5535" stroke-width="0.5" stroke="black" fill="red"/>
  <circle cx="899.049" cy="457.684" r="6.34795" stroke-width="0.5" stroke="red" fill="red"/>
   </g>
   <g id="cell48">
  <circle cx="953.111" cy="30.4745" r="8.39609" stroke-width="0.5" stroke="black" fill="red"/>
  <circle cx="953.111" cy="30.4745" r="5.04615" stroke-width="0.5" stroke="red" fill="red"/>
   </g>
   <g id="cell49">
  <circle cx="463.285" cy="800.061" r="10.4891" stroke-width="0.5" stroke="black" fill="red"/>
  <circle cx="463.285" cy="800.061" r="6.31991" stroke-width="0.5" stroke="red" fill="red"/>
   </g>
   <g id="cell50">
  <circle cx="19.1831" cy="439.102" r="10.5451" stroke-width="0.5" stroke="black" fill="red"/>
  <circle cx="19.1831" cy="439.102" r="6.34448" stroke-width="0.5" stroke="red" fill="red"/>
   </g>
   <g id="cell51">
  <circle cx="852.85" cy="158.226" r="8.39074" stroke-width="0.5" stroke="black" fill="red"/>
  <circle cx="852.85" cy="158.226" r="5.04412" stroke-width="0.5" stroke="red" fill="red"/>
   </g>
   <g id="cell96">
  <circle cx="831.569" cy="551.554" r="10.552" stroke-width="0.5" stroke="black" fill="yellow"/>
  <circle cx="831.569" cy="551.554" r="6.34739" stroke-width="0.5" stroke="yellow" fill="yellow"/>
   </g>
   <g id="cell53">
  <circle cx="675.608" cy="265.76" r="8.39698" stroke-width="0.5" stroke="black" fill="red"/>
  <circle cx="675.608" cy="265.76" r="5.04648" stroke-width="0.5" stroke="red" fill="red"/>
   </g>
   <g id="cell54">
  <circle cx="419.471" cy="926.825" r="8.41231" stroke-width="0.5" stroke="black" fill="red"/>
  <circle cx="419.471" cy="926.825" r="5.05158" stroke-width="0.5" stroke="red" fill="red"/>
   </g>
   <g id="cell55">
  <circle cx="203.483" cy="631.957" r="8.88595" stroke-width="0.5" stroke="black" fill="red"/>
  <circle cx="203.483" cy="631.957" r="5.38895" stroke-width="0.5" stroke="red" fill="red"/>
   </g>
   <g id="cell56">
  <circle cx="658.243" cy="837.838" r="10.5637" stroke-width="0.5" stroke="black" fill="red"/>
  <circle cx="658.243" cy="837.838" r="6.35208" stroke-width="0.5" stroke="red" fill="red"/>
   </g>
   <g id="cell57">
  <circle cx="475.494" cy="543.26" r="8.38741" stroke-width="0.5" stroke="black" fill="red"/>
  <circle cx="475.494" cy="543.26" r="5.04283" stroke-width="0.5" stroke="red" fill="red"/>
   </g>
   <g id="cell58">
  <circle cx="15.9508" cy="857.184" r="10.5493" stroke-width="0.5" stroke="black" fill="red"/>
  <circle cx="15.9508" cy="857.184" r="6.34627" stroke-width="0.5" stroke="red" fill="red"/>
   </g>
   <g id="cell59">
  <circle cx="56.7404" cy="926.917" r="10.5546" stroke-width="0.5" stroke="black" fill="red"/>
  <circle cx="56.7404" cy="926.917" r="6.34844" stroke-width="0.5" stroke="red" fill="red"/>
   </g>
   <g id="cell60">
  <circle cx="225.28" cy="30.8616" r="10.4254" stroke-width="0.5" stroke="black" fill="red"/>
  <circle cx="225.28" cy="30.8616" r="6.28997" stroke-width="0.5" stroke="red" fill="red"/>
   </g>
   <g id="cell61">
  <circle cx="793.629" cy="132.443" r="10.3081" stroke-width="0.5" stroke="black" fill="red"/>
  <circle cx="793.629" cy="132.443" r="6.23131" stroke-width="0.5" stroke="red" fill="red"/>
   </g>
   <g id="cell62">
  <circle cx="729.409" cy="817.257" r="10.5536" stroke-width="0.5" stroke="black" fill="red"/>
  <circle cx="729.409" cy="817.257" r="6.34799" stroke-width="0.5" stroke="red" fill="red"/>
   </g>
   <g id="cell63">
  <circle cx="347.648" cy="164.654" r="10.4982" stroke-width="0.5" stroke="black" fill="red"/>
  <circle cx="347.648" cy="164.654" r="6.32403" stroke-width="0.5" stroke="red" fill="red"/>
   </g>
   <g id="cell64">
  <circle cx="621.354" cy="520.895" r="8.39203" stroke-width="0.5" stroke="black" fill="red"/>
  <circle cx="621.354" cy="520.895" r="5.0446" stroke-width="0.5" stroke="red" fill="red"/>
   </g>
   <g id="cell188">
  <circle cx="861.28" cy="387.81" r="10.3317" stroke-width="0.5" stroke="black" fill="yellow"/>
  <circle cx="861.28" cy="387.81" r="6.24348" stroke-width="0.5" stroke="yellow" fill="yellow"/>
   </g>
   <g id="cell66">
  <circle cx="16.8727" cy="130.008" r="10.5365" stroke-width="0.5" stroke="black" fill="red"/>
  <circle cx="16.8727" cy="130.008" r="6.34093" stroke-width="0.5" stroke="red" fill="red"/>
   </g>
   <g id="cell197">
  <circle cx="745.841" cy="682.72" r="9.04291" stroke-width="0.5" stroke="black" fill="yellow"/>
  <circle cx="745.841" cy="682.72" r="5.492" stroke-width="0.5" stroke="yellow" fill="yellow"/>
   </g>
   <g id="cell68">
  <circle cx="771.996" cy="221.335" r="10.5548" stroke-width="0.5" stroke="black" fill="red"/>
  <circle cx="771.996" cy="221.335" r="6.34848" stroke-width="0.5" stroke="red" fill="red"/>
   </g>
   <g id="cell69">
  <circle cx="428.252" cy="294.873" r="9.70159" stroke-width="0.5" stroke="black" fill="red"/>
  <circle cx="428.252" cy="294.873" r="5.89415" stroke-width="0.5" stroke="red" fill="red"/>
   </g>
   <g id="cell70">
  <circle cx="522.81" cy="361.414" r="10.5063" stroke-width="0.5" stroke="black" fill="red"/>
  <circle cx="522.81" cy="361.414" r="6.3277" stroke-width="0.5" stroke="red" fill="red"/>
   </g>
   <g id="cell71">
  <circle cx="922.609" cy="505.91" r="8.39699" stroke-width="0.5" stroke="black" fill="red"/>
  <circle cx="922.609" cy="505.91" r="5.04648" stroke-width="0.5" stroke="red" fill="red"/>
   </g>
   <g id="cell72">
  <circle cx="176.905" cy="918.304" r="8.38739" stroke-width="0.5" stroke="black" fill="red"/>
  <circle cx="176.905" cy="918.304" r="5.04283" stroke-width="0.5" stroke="red" fill="red"/>
   </g>
   <g id="cell73">
  <circle cx="601.803" cy="439.251" r="10.535" stroke-width="0.5" stroke="black" fill="red"/>
  <circle cx="601.803" cy="439.251" r="6.34024" stroke-width="0.5" stroke="red" fill="red"/>
   </g>
   <g id="cell74">
  <circle cx="860.898" cy="936.941" r="10.4153" stroke-width="0.5" stroke="black" fill="red"/>
  <circle cx="860.898" cy="936.941" r="6.28504" stroke-width="0.5" stroke="red" fill="red"/>
   </g>
   <g id="cell75">
  <circle cx="116.855" cy="299.345" r="8.38597" stroke-width="0.5" stroke="black" fill="red"/>
  <circle cx="116.855" cy="299.345" r="5.04226" stroke-width="0.5" stroke="red" fill="red"/>
   </g>
   <g id="cell76">
  <circle cx="770.29" cy="425.347" r="10.4649" stroke-width="0.5" stroke="black" fill="red"/>
  <circle cx="770.29" cy="425.347" r="6.3087" stroke-width="0.5" stroke="red" fill="red"/>
   </g>
   <g id="cell77">
  <circle cx="682.217" cy="820.679" r="10.5385" stroke-width="0.5" stroke="black" fill="red"/>
  <circle cx="682.217" cy="820.679" r="6.34172" stroke-width="0.5" stroke="red" fill="red"/>
   </g>
   <g id="cell78">
  <circle cx="583.059" cy="284.195" r="10.5312" stroke-width="0.5" stroke="black" fill="red"/>
  <circle cx="583.059" cy="284.195" r="6.33861" stroke-width="0.5" stroke="red" fill="red"/>
   </g>
   <g id="cell79">
  <circle cx="990.55" cy="704.838" r="10.4647" stroke-width="0.5" stroke="black" fill="red"/>
  <circle cx="990.55" cy="704.838" r="6.30865" stroke-width="0.5" stroke="red" fill="red"/>
   </g>
   <g id="cell80">
  <circle cx="751.927" cy="717.02" r="9.94172" stroke-width="0.5" stroke="black" fill="yellow"/>
  <circle cx="751.927" cy="717.02" r="6.03332" stroke-width="0.5" stroke="yellow" fill="yellow"/>
   </g>
   <g id="cell81">
  <circle cx="477.827" cy="960.549" r="10.5628" stroke-width="0.5" stroke="black" fill="yellow"/>
  <circle cx="477.827" cy="960.549" r="6.35171" stroke-width="0.5" stroke="yellow" fill="yellow"/>
   </g>
   <g id="cell82">
  <circle cx="613.599" cy="397.959" r="8.39356" stroke-width="0.5" stroke="black" fill="yellow"/>
  <circle cx="613.599" cy="397.959" r="5.0452" stroke-width="0.5" stroke="yellow" fill="yellow"/>
   </g>
   <g id="cell83">
  <circle cx="584.951" cy="593.442" r="10.5534" stroke-width="0.5" stroke="black" fill="yellow"/>
  <circle cx="584.951" cy="593.442" r="6.34794" stroke-width="0.5" stroke="yellow" fill="yellow"/>
   </g>
   <g id="cell84">
  <circle cx="13.3453" cy="498.841" r="10.4792" stroke-width="0.5" stroke="black" fill="yellow"/>
  <circle cx="13.3453" cy="498.841" r="6.31538" stroke-width="0.5" stroke="yellow" fill="yellow"/>
   </g>
   <g id="cell85">
  <circle cx="778.965" cy="674.664" r="1.58282" stroke-width="0.5" stroke="black" fill="yellow"/>
  <circle cx="778.965" cy="674.664" r="1.57477" stroke-width="0.5" stroke="black" fill="black"/>
   </g>
   <g id="cell86">
  <circle cx="338.742" cy="423.799" r="10.1988" stroke-width="0.5" stroke="black" fill="yellow"/>
  <circle cx="338.742" cy="423.799" r="6.17414" stroke-width="0.5" stroke="yellow" fill="yellow"/>
   </g>
   <g id="cell87">
  <circle cx="787.369" cy="393.2" r="10.2631" stroke-width="0.5" stroke="black" fill="yellow"/>
  <circle cx="787.369" cy="393.2" r="6.20794" stroke-width="0.5" stroke="yellow" fill="yellow"/>
   </g>
   <g id="cell200">
  <circle cx="990.267" cy="94.124" r="8.40494" stroke-width="0.5" stroke="black" fill="grey"/>
  <circle cx="990.267" cy="94.124" r="5.04929" stroke-width="0.5" stroke="grey" fill="grey"/>
   </g>
   <g id="cell89">
  <circle cx="42.2535" cy="547.031" r="10.4606" stroke-width="0.5" stroke="black" fill="yellow"/>
  <circle cx="42.2535" cy="547.031" r="6.30679" stroke-width="0.5" stroke="yellow" fill="yellow"/>
   </g>
   <g id="cell193">
  <circle cx="184.406" cy="681.608" r="10.2616" stroke-width="0.5" stroke="black" fill="red"/>
  <circle cx="184.406" cy="681.608" r="6.20751" stroke-width="0.5" stroke="red" fill="red"/>
   </g>
   <g id="cell91">
  <circle cx="22.8966" cy="629.56" r="10.0649" stroke-width="0.5" stroke="black" fill="yellow"/>
  <circle cx="22.8966" cy="629.56" r="6.10133" stroke-width="0.5" stroke="yellow" fill="yellow"/>
   </g>
   <g id="cell92">
  <circle cx="678.21" cy="271.303" r="10.5418" stroke-width="0.5" stroke="black" fill="yellow"/>
  <circle cx="678.21" cy="271.303" r="6.34312" stroke-width="0.5" stroke="yellow" fill="yellow"/>
   </g>
   <g id="cell93">
  <circle cx="217.892" cy="856.702" r="10.0653" stroke-width="0.5" stroke="black" fill="yellow"/>
  <circle cx="217.892" cy="856.702" r="6.10142" stroke-width="0.5" stroke="yellow" fill="yellow"/>
   </g>
   <g id="cell94">
  <circle cx="385.781" cy="87.2491" r="10.4921" stroke-width="0.5" stroke="black" fill="yellow"/>
  <circle cx="385.781" cy="87.2491" r="6.32131" stroke-width="0.5" stroke="yellow" fill="yellow"/>
   </g>
   <g id="cell95">
  <circle cx="938.958" cy="898.876" r="10.5533" stroke-width="0.5" stroke="black" fill="yellow"/>
  <circle cx="938.958" cy="898.876" r="6.34792" stroke-width="0.5" stroke="yellow" fill="yellow"/>
   </g>
   <g id="cell121">
  <circle cx="44.3228" cy="481.479" r="9.62188" stroke-width="0.5" stroke="black" fill="red"/>
  <circle cx="44.3228" cy="481.479" r="5.84707" stroke-width="0.5" stroke="red" fill="red"/>
   </g>
   <g id="cell122">
  <circle cx="707.551" cy="429.543" r="8.39362" stroke-width="0.5" stroke="black" fill="yellow"/>
  <circle cx="707.551" cy="429.543" r="5.04521" stroke-width="0.5" stroke="yellow" fill="yellow"/>
   </g>
   <g id="cell123">
  <circle cx="310.736" cy="901.023" r="9.99972" stroke-width="0.5" stroke="black" fill="yellow"/>
  <circle cx="310.736" cy="901.023" r="6.065" stroke-width="0.5" stroke="yellow" fill="yellow"/>
   </g>
   <g id="cell124">
  <circle cx="458.463" cy="647.971" r="10.5435" stroke-width="0.5" stroke="black" fill="grey"/>
  <circle cx="458.463" cy="647.971" r="6.34383" stroke-width="0.5" stroke="grey" fill="grey"/>
   </g>
   <g id="cell125">
  <circle cx="815.285" cy="438.723" r="8.99436" stroke-width="0.5" stroke="black" fill="yellow"/>
  <circle cx="815.285" cy="438.723" r="5.46326" stroke-width="0.5" stroke="yellow" fill="yellow"/>
   </g>
   <g id="cell126">
  <circle cx="930.584" cy="187.041" r="10.5386" stroke-width="0.5" stroke="black" fill="red"/>
  <circle cx="930.584" cy="187.041" r="6.34175" stroke-width="0.5" stroke="red" fill="red"/>
   </g>
   <g id="cell127">
  <circle cx="915.563" cy="554.018" r="8.39514" stroke-width="0.5" stroke="black" fill="red"/>
  <circle cx="915.563" cy="554.018" r="5.04579" stroke-width="0.5" stroke="red" fill="red"/>
   </g>
   <g id="cell128">
  <circle cx="927.857" cy="33.0758" r="10.5232" stroke-width="0.5" stroke="black" fill="red"/>
  <circle cx="927.857" cy="33.0758" r="6.33512" stroke-width="0.5" stroke="red" fill="red"/>
   </g>
   <g id="cell129">
  <circle cx="981.032" cy="676.633" r="2.15877" stroke-width="0.5" stroke="black" fill="grey"/>
  <circle cx="981.032" cy="676.633" r="2.10233" stroke-width="0.5" stroke="black" fill="black"/>
   </g>
   <g id="cell130">
  <circle cx="918.659" cy="595.297" r="8.41252" stroke-width="0.5" stroke="black" fill="yellow"/>
  <circle cx="918.659" cy="595.297" r="5.05163" stroke-width="0.5" stroke="yellow" fill="yellow"/>
   </g>
   <g id="cell132">
  <circle cx="48.4299" cy="927.861" r="10.5617" stroke-width="0.5" stroke="black" fill="red"/>
  <circle cx="48.4299" cy="927.861" r="6.35127" stroke-width="0.5" stroke="red" fill="red"/>
   </g>
   <g id="cell133">
  <circle cx="646.616" cy="404.638" r="10.4688" stroke-width="0.5" stroke="black" fill="red"/>
  <circle cx="646.616" cy="404.638" r="6.3105" stroke-width="0.5" stroke="red" fill="red"/>
   </g>
   <g id="cell201">
  <circle cx="487.608" cy="612.938" r="9.26196" stroke-width="0.5" stroke="black" fill="grey"/>
  <circle cx="487.608" cy="612.938" r="5.63176" stroke-width="0.5" stroke="grey" fill="grey"/>
   </g>
   <g id="cell136">
  <circle cx="671.329" cy="465.782" r="10.5435" stroke-width="0.5" stroke="black" fill="red"/>
  <circle cx="671.329" cy="465.782" r="6.34382" stroke-width="0.5" stroke="red" fill="red"/>
   </g>
   <g id="cell137">
  <circle cx="777.276" cy="664.468" r="10.381" stroke-width="0.5" stroke="black" fill="yellow"/>
  <circle cx="777.276" cy="664.468" r="6.26811" stroke-width="0.5" stroke="yellow" fill="yellow"/>
   </g>
   <g id="cell138">
  <circle cx="713.434" cy="244.849" r="8.39607" stroke-width="0.5" stroke="black" fill="red"/>
  <circle cx="713.434" cy="244.849" r="5.04614" stroke-width="0.5" stroke="red" fill="red"/>
   </g>
   <g id="cell139">
  <circle cx="797.198" cy="732.992" r="9.75176" stroke-width="0.5" stroke="black" fill="yellow"/>
  <circle cx="797.198" cy="732.992" r="5.92338" stroke-width="0.5" stroke="yellow" fill="yellow"/>
   </g>
   <g id="cell140">
  <circle cx="104.784" cy="370.816" r="8.39512" stroke-width="0.5" stroke="black" fill="red"/>
  <circle cx="104.784" cy="370.816" r="5.04578" stroke-width="0.5" stroke="red" fill="red"/>
   </g>
   <g id="cell141">
  <circle cx="13.3609" cy="987.513" r="8.67144" stroke-width="0.5" stroke="black" fill="yellow"/>
  <circle cx="13.3609" cy="987.513" r="5.24789" stroke-width="0.5" stroke="yellow" fill="yellow"/>
   </g>
   <g id="cell142">
  <circle cx="694.042" cy="691.728" r="8.41248" stroke-width="0.5" stroke="black" fill="red"/>
  <circle cx="694.042" cy="691.728" r="5.05162" stroke-width="0.5" stroke="red" fill="red"/>
   </g>
   <g id="cell143">
  <circle cx="112.185" cy="699.403" r="10.3082" stroke-width="0.5" stroke="black" fill="red"/>
  <circle cx="112.185" cy="699.403" r="6.23133" stroke-width="0.5" stroke="red" fill="red"/>
   </g>
   <g id="cell144">
  <circle cx="650.074" cy="136.196" r="8.38596" stroke-width="0.5" stroke="black" fill="grey"/>
  <circle cx="650.074" cy="136.196" r="5.04226" stroke-width="0.5" stroke="grey" fill="grey"/>
   </g>
   <g id="cell145">
  <circle cx="543.497" cy="515.855" r="10.1632" stroke-width="0.5" stroke="black" fill="red"/>
  <circle cx="543.497" cy="515.855" r="6.15486" stroke-width="0.5" stroke="red" fill="red"/>
   </g>
   <g id="cell146">
  <circle cx="296.991" cy="211.425" r="10.5606" stroke-width="0.5" stroke="black" fill="red"/>
  <circle cx="296.991" cy="211.425" r="6.35083" stroke-width="0.5" stroke="red" fill="red"/>
   </g>
   <g id="cell147">
  <circle cx="670.908" cy="379.179" r="10.3989" stroke-width="0.5" stroke="black" fill="yellow"/>
  <circle cx="670.908" cy="379.179" r="6.277" stroke-width="0.5" stroke="yellow" fill="yellow"/>
   </g>
   <g id="cell148">
  <circle cx="223.298" cy="749.419" r="8.79074" stroke-width="0.5" stroke="black" fill="grey"/>
  <circle cx="223.298" cy="749.419" r="5.32975" stroke-width="0.5" stroke="grey" fill="grey"/>
   </g>
   <g id="cell149">
  <circle cx="854.959" cy="462.68" r="8.3907" stroke-width="0.5" stroke="black" fill="red"/>
  <circle cx="854.959" cy="462.68" r="5.04411" stroke-width="0.5" stroke="red" fill="red"/>
   </g>
   <g id="cell150">
  <circle cx="187.595" cy="36.387" r="10.5164" stroke-width="0.5" stroke="black" fill="yellow"/>
  <circle cx="187.595" cy="36.387" r="6.33215" stroke-width="0.5" stroke="yellow" fill="yellow"/>
   </g>
   <g id="cell151">
  <circle cx="198.03" cy="892.39" r="10.465" stroke-width="0.5" stroke="black" fill="red"/>
  <circle cx="198.03" cy="892.39" r="6.30873" stroke-width="0.5" stroke="red" fill="red"/>
   </g>
   <g id="cell152">
  <circle cx="609.159" cy="860.628" r="8.38739" stroke-width="0.5" stroke="black" fill="red"/>
  <circle cx="609.159" cy="860.628" r="5.04283" stroke-width="0.5" stroke="red" fill="red"/>
   </g>
   <g id="cell154">
  <circle cx="887.552" cy="22.9514" r="10.5115" stroke-width="0.5" stroke="black" fill="red"/>
  <circle cx="887.552" cy="22.9514" r="6.33" stroke-width="0.5" stroke="red" fill="red"/>
   </g>
   <g id="cell155">
  <circle cx="651.125" cy="884.553" r="10.5637" stroke-width="0.5" stroke="black" fill="red"/>
  <circle cx="651.125" cy="884.553" r="6.35207" stroke-width="0.5" stroke="red" fill="red"/>
   </g>
   <g id="cell156">
  <circle cx="886.715" cy="511.462" r="2.03694" stroke-width="0.5" stroke="black" fill="grey"/>
  <circle cx="886.715" cy="511.462" r="1.9964" stroke-width="0.5" stroke="black" fill="black"/>
   </g>
   <g id="cell157">
  <circle cx="611.16" cy="646.782" r="10.5037" stroke-width="0.5" stroke="black" fill="yellow"/>
  <circle cx="611.16" cy="646.782" r="6.32653" stroke-width="0.5" stroke="yellow" fill="yellow"/>
   </g>
   <g id="cell198">
  <circle cx="70.47" cy="416.998" r="9.81758" stroke-width="0.5" stroke="black" fill="yellow"/>
  <circle cx="70.47" cy="416.998" r="5.9626" stroke-width="0.5" stroke="yellow" fill="yellow"/>
   </g>
   <g id="cell159">
  <circle cx="686.795" cy="272.063" r="10.461" stroke-width="0.5" stroke="black" fill="yellow"/>
  <circle cx="686.795" cy="272.063" r="6.30689" stroke-width="0.5" stroke="yellow" fill="yellow"/>
   </g>
   <g id="cell160">
  <circle cx="634.388" cy="297.867" r="10.5139" stroke-width="0.5" stroke="black" fill="red"/>
  <circle cx="634.388" cy="297.867" r="6.33108" stroke-width="0.5" stroke="red" fill="red"/>
   </g>
   <g id="cell199">
  <circle cx="826.045" cy="858.06" r="8.40596" stroke-width="0.5" stroke="black" fill="yellow"/>
  <circle cx="826.045" cy="858.06" r="5.04964" stroke-width="0.5" stroke="yellow" fill="yellow"/>
   </g>
   <g id="cell162">
  <circle cx="848.007" cy="90.3554" r="10.5636" stroke-width="0.5" stroke="black" fill="red"/>
  <circle cx="848.007" cy="90.3554" r="6.35206" stroke-width="0.5" stroke="red" fill="red"/>
   </g>
   <g id="cell163">
  <circle cx="416.421" cy="952.948" r="10.5615" stroke-width="0.5" stroke="black" fill="red"/>
  <circle cx="416.421" cy="952.948" r="6.35124" stroke-width="0.5" stroke="red" fill="red"/>
   </g>
   <g id="cell164">
  <circle cx="820.631" cy="962.379" r="10.2818" stroke-width="0.5" stroke="black" fill="red"/>
  <circle cx="820.631" cy="962.379" r="6.21772" stroke-width="0.5" stroke="red" fill="red"/>
   </g>
   <g id="cell165">
  <circle cx="829.046" cy="396.639" r="10.5605" stroke-width="0.5" stroke="black" fill="red"/>
  <circle cx="829.046" cy="396.639" r="6.35081" stroke-width="0.5" stroke="red" fill="red"/>
   </g>
   <g id="cell166">
  <circle cx="761.186" cy="493.302" r="10.5594" stroke-width="0.5" stroke="black" fill="yellow"/>
  <circle cx="761.186" cy="493.302" r="6.35036" stroke-width="0.5" stroke="yellow" fill="yellow"/>
   </g>
   <g id="cell167">
  <circle cx="609.813" cy="118.984" r="10.4859" stroke-width="0.5" stroke="black" fill="yellow"/>
  <circle cx="609.813" cy="118.984" r="6.31847" stroke-width="0.5" stroke="yellow" fill="yellow"/>
   </g>
   <g id="cell168">
  <circle cx="924.69" cy="878.101" r="10.5449" stroke-width="0.5" stroke="black" fill="yellow"/>
  <circle cx="924.69" cy="878.101" r="6.34443" stroke-width="0.5" stroke="yellow" fill="yellow"/>
   </g>
   <g id="cell169">
  <circle cx="334.147" cy="987.817" r="10.5331" stroke-width="0.5" stroke="black" fill="yellow"/>
  <circle cx="334.147" cy="987.817" r="6.33941" stroke-width="0.5" stroke="yellow" fill="yellow"/>
   </g>
   <g id="cell170">
  <circle cx="47.1568" cy="984.701" r="9.64902" stroke-width="0.5" stroke="black" fill="red"/>
  <circle cx="47.1568" cy="984.701" r="5.8632" stroke-width="0.5" stroke="red" fill="red"/>
   </g>
   <g id="cell171">
  <circle cx="514.506" cy="391.851" r="10.5367" stroke-width="0.5" stroke="black" fill="red"/>
  <circle cx="514.506" cy="391.851" r="6.34096" stroke-width="0.5" stroke="red" fill="red"/>
   </g>
   <g id="cell172">
  <circle cx="479.717" cy="785.758" r="10.5401" stroke-width="0.5" stroke="black" fill="red"/>
  <circle cx="479.717" cy="785.758" r="6.34241" stroke-width="0.5" stroke="red" fill="red"/>
   </g>
   <g id="cell173">
  <circle cx="981.44" cy="429.164" r="10.0332" stroke-width="0.5" stroke="black" fill="red"/>
  <circle cx="981.44" cy="429.164" r="6.08374" stroke-width="0.5" stroke="red" fill="red"/>
   </g>
   <g id="cell174">
  <circle cx="355.783" cy="104.851" r="9.82151" stroke-width="0.5" stroke="black" fill="yellow"/>
  <circle cx="355.783" cy="104.851" r="5.96385" stroke-width="0.5" stroke="yellow" fill="yellow"/>
   </g>
   <g id="cell175">
  <circle cx="24.4295" cy="302.685" r="10.5449" stroke-width="0.5" stroke="black" fill="yellow"/>
  <circle cx="24.4295" cy="302.685" r="6.34442" stroke-width="0.5" stroke="yellow" fill="yellow"/>
   </g>
   <g id="cell178">
  <circle cx="66.8295" cy="170.43" r="10.5291" stroke-width="0.5" stroke="black" fill="red"/>
  <circle cx="66.8295" cy="170.43" r="6.33773" stroke-width="0.5" stroke="red" fill="red"/>
   </g>
   <g id="cell179">
  <circle cx="19.0118" cy="499.494" r="10.3469" stroke-width="0.5" stroke="black" fill="yellow"/>
  <circle cx="19.0118" cy="499.494" r="6.25114" stroke-width="0.5" stroke="yellow" fill="yellow"/>
   </g>
   <g id="cell180">
  <circle cx="28.5305" cy="700.613" r="8.41202" stroke-width="0.5" stroke="black" fill="yellow"/>
  <circle cx="28.5305" cy="700.613" r="5.0515" stroke-width="0.5" stroke="yellow" fill="yellow"/>
   </g>
   <g id="cell181">
  <circle cx="983.657" cy="672.26" r="8.88746" stroke-width="0.5" stroke="black" fill="red"/>
  <circle cx="983.657" cy="672.26" r="5.38941" stroke-width="0.5" stroke="red" fill="red"/>
   </g>
   <g id="cell182">
  <circle cx="492.633" cy="954.303" r="8.41196" stroke-width="0.5" stroke="black" fill="yellow"/>
  <circle cx="492.633" cy="954.303" r="5.05149" stroke-width="0.5" stroke="yellow" fill="yellow"/>
   </g>
   <g id="cell183">
  <circle cx="653.619" cy="867.631" r="8.41196" stroke-width="0.5" stroke="black" fill="red"/>
  <circle cx="653.619" cy="867.631" r="5.05149" stroke-width="0.5" stroke="red" fill="red"/>
   </g>
   <g id="cell187">
  <circle cx="295.696" cy="425.312" r="10.272" stroke-width="0.5" stroke="black" fill="yellow"/>
  <circle cx="295.696" cy="425.312" r="6.21275" stroke-width="0.5" stroke="yellow" fill="yellow"/>
   </g>
   <g id="cell189">
  <circle cx="787.628" cy="402.2" r="10.4392" stroke-width="0.5" stroke="black" fill="yellow"/>
  <circle cx="787.628" cy="402.2" r="6.29669" stroke-width="0.5" stroke="yellow" fill="yellow"/>
   </g>
   <g id="cell194">
  <circle cx="101.984" cy="144.669" r="10.197" stroke-width="0.5" stroke="black" fill="yellow"/>
  <circle cx="101.984" cy="144.669" r="6.17357" stroke-width="0.5" stroke="yellow" fill="yellow"/>
   </g>
   <g id="cell195">
  <circle cx="398.32" cy="440.228" r="9.88324" stroke-width="0.5" stroke="black" fill="yellow"/>
  <circle cx="398.32" cy="440.228" r="5.99995" stroke-width="0.5" stroke="yellow" fill="yellow"/>
   </g>
   <g id="cell196">
  <circle cx="897.21" cy="271.805" r="8.40788" stroke-width="0.5" stroke="black" fill="yellow"/>
  <circle cx="897.21" cy="271.805" r="5.05027" stroke-width="0.5" stroke="yellow" fill="yellow"/>
   </g>
   <g id="cell202">
  <circle cx="122.378" cy="839.042" r="8.39824" stroke-width="0.5" stroke="black" fill="yellow"/>
  <circle cx="122.378" cy="839.042" r="5.04694" stroke-width="0.5" stroke="yellow" fill="yellow"/>
   </g>
   <g id="cell203">
  <circle cx="842.689" cy="451.061" r="8.397" stroke-width="0.5" stroke="black" fill="yellow"/>
  <circle cx="842.689" cy="451.061" r="5.04648" stroke-width="0.5" stroke="yellow" fill="yellow"/>
   </g>
   <g id="cell204">
  <circle cx="902.826" cy="487.475" r="8.91435" stroke-width="0.5" stroke="black" fill="red"/>
  <circle cx="902.826" cy="487.475" r="5.41122" stroke-width="0.5" stroke="red" fill="red"/>
   </g>
   <g id="cell205">
  <circle cx="670.143" cy="277.252" r="8.39698" stroke-width="0.5" stroke="black" fill="red"/>
  <circle cx="670.143" cy="277.252" r="5.04648" stroke-width="0.5" stroke="red" fill="red"/>
   </g>
   <g id="cell206">
  <circle cx="958.069" cy="20.1123" r="8.39609" stroke-width="0.5" stroke="black" fill="red"/>
  <circle cx="958.069" cy="20.1123" r="5.04615" stroke-width="0.5" stroke="red" fill="red"/>
   </g>
   <g id="cell207">
  <circle cx="728.818" cy="257.52" r="8.39607" stroke-width="0.5" stroke="black" fill="red"/>
  <circle cx="728.818" cy="257.52" r="5.04614" stroke-width="0.5" stroke="red" fill="red"/>
   </g>
   <g id="cell208">
  <circle cx="67.0205" cy="370.023" r="8.39512" stroke-width="0.5" stroke="black" fill="red"/>
  <circle cx="67.0205" cy="370.023" r="5.04578" stroke-width="0.5" stroke="red" fill="red"/>
   </g>
   <g id="cell209">
  <circle cx="912.785" cy="569.019" r="8.39514" stroke-width="0.5" stroke="black" fill="red"/>
  <circle cx="912.785" cy="569.019" r="5.04579" stroke-width="0.5" stroke="red" fill="red"/>
   </g>
   <g id="cell210">
  <circle cx="751.823" cy="461.469" r="8.39515" stroke-width="0.5" stroke="black" fill="yellow"/>
  <circle cx="751.823" cy="461.469" r="5.04579" stroke-width="0.5" stroke="yellow" fill="yellow"/>
   </g>
   <g id="cell212">
  <circle cx="210.62" cy="734.369" r="8.39409" stroke-width="0.5" stroke="black" fill="grey"/>
  <circle cx="210.62" cy="734.369" r="5.0454" stroke-width="0.5" stroke="grey" fill="grey"/>
   </g>
   <g id="cell213">
  <circle cx="13.1524" cy="989.727" r="8.39358" stroke-width="0.5" stroke="black" fill="yellow"/>
  <circle cx="13.1524" cy="989.727" r="5.04521" stroke-width="0.5" stroke="yellow" fill="yellow"/>
   </g>
   <g id="cell214">
  <circle cx="734.839" cy="432.051" r="8.39362" stroke-width="0.5" stroke="black" fill="yellow"/>
  <circle cx="734.839" cy="432.051" r="5.04521" stroke-width="0.5" stroke="yellow" fill="yellow"/>
   </g>
   <g id="cell215">
  <circle cx="620.39" cy="407.497" r="8.39356" stroke-width="0.5" stroke="black" fill="yellow"/>
  <circle cx="620.39" cy="407.497" r="5.0452" stroke-width="0.5" stroke="yellow" fill="yellow"/>
   </g>
   <g id="cell216">
  <circle cx="25.1712" cy="927.164" r="8.39249" stroke-width="0.5" stroke="black" fill="yellow"/>
  <circle cx="25.1712" cy="927.164" r="5.04479" stroke-width="0.5" stroke="yellow" fill="yellow"/>
   </g>
   <g id="cell217">
  <circle cx="594.457" cy="533.555" r="8.39203" stroke-width="0.5" stroke="black" fill="red"/>
  <circle cx="594.457" cy="533.555" r="5.0446" stroke-width="0.5" stroke="red" fill="red"/>
   </g>
   <g id="cell218">
  <circle cx="859.16" cy="157.905" r="8.55744" stroke-width="0.5" stroke="black" fill="red"/>
  <circle cx="859.16" cy="157.905" r="5.16722" stroke-width="0.5" stroke="red" fill="red"/>
   </g>
   <g id="cell219">
  <circle cx="847.575" cy="435.723" r="8.3907" stroke-width="0.5" stroke="black" fill="red"/>
  <circle cx="847.575" cy="435.723" r="5.04411" stroke-width="0.5" stroke="red" fill="red"/>
   </g>
   <g id="cell220">
  <circle cx="847.358" cy="464.289" r="8.38807" stroke-width="0.5" stroke="black" fill="grey"/>
  <circle cx="847.358" cy="464.289" r="5.0431" stroke-width="0.5" stroke="grey" fill="grey"/>
   </g>
   <g id="cell221">
  <circle cx="180.961" cy="909.853" r="8.38739" stroke-width="0.5" stroke="black" fill="red"/>
  <circle cx="180.961" cy="909.853" r="5.04283" stroke-width="0.5" stroke="red" fill="red"/>
   </g>
   <g id="cell222">
  <circle cx="480.897" cy="525.48" r="8.38741" stroke-width="0.5" stroke="black" fill="red"/>
  <circle cx="480.897" cy="525.48" r="5.04283" stroke-width="0.5" stroke="red" fill="red"/>
   </g>
   <g id="cell223">
  <circle cx="613.64" cy="846.451" r="8.38739" stroke-width="0.5" stroke="black" fill="red"/>
  <circle cx="613.64" cy="846.451" r="5.04283" stroke-width="0.5" stroke="red" fill="red"/>
   </g>
   <g id="cell224">
  <circle cx="94.616" cy="298.962" r="8.38597" stroke-width="0.5" stroke="black" fill="red"/>
  <circle cx="94.616" cy="298.962" r="5.04226" stroke-width="0.5" stroke="red" fill="red"/>
   </g>
   <g id="cell225">
  <circle cx="191.725" cy="384.601" r="8.38593" stroke-width="0.5" stroke="black" fill="red"/>
  <circle cx="191.725" cy="384.601" r="5.04225" stroke-width="0.5" stroke="red" fill="red"/>
   </g>
   <g id="cell226">
  <circle cx="655.819" cy="144.552" r="8.38596" stroke-width="0.5" stroke="black" fill="grey"/>
  <circle cx="655.819" cy="144.552" r="5.04226" stroke-width="0.5" stroke="grey" fill="grey"/>
   </g>
  </g>
 </g>
  <rect x="775" y="1035" width="200" height="10" stroke-width="2" stroke="rgb(255,255,255)" fill="rgb(0,0,0)"/>
  <text x="781.25" y="1028.75"
   font-family="Arial" font-size="25" fill="black" >
   200 &#956;m
  </text>
  <text x="25" y="1045"
   font-family="Arial" font-size="18.75" fill="black" >
   0 days, 0 hours, 2 minutes, and 30.3834 seconds
  </text>
  <rect x="0" y="70" width="1000" height="1000" stroke-width="2" stroke="rgb(0,0,0)" fill="none"/>
</svg>
