<?xml version="1.0" encoding="UTF-8" standalone="no"?>
<!-- Created with PhysiCell (http://PhysiCell.MathCancer.org/) -->
<svg 
 xmlns:dc="http://purl.org/dc/elements/1.1/" 
 xmlns:cc="http://creativecommons.org/ns#" 
 xmlns:rdf="http://www.w3.org/1999/02/22-rdf-syntax-ns#" 
 xmlns:svg="http://www.w3.org/2000/svg" 
 xmlns="http://www.w3.org/2000/svg" 
 version="1.1" 
 width="1000" 
 height="1070" 
 id="svg2">
  <rect x="0" y="0" width="1000" height="1070" stroke-width="2" stroke="white" fill="white"/>
  <text x="12.5" y="30"
   font-family="Arial" font-size="25" fill="black" >
   Current time: 0 days, 2 hours, and 30.00 minutes, z = 0.00 &#956;m
  </text>
  <text x="12.5" y="57.5"
   font-family="Arial" font-size="23.75" fill="black" >
   120 agents
  </text>
 <g id="tissue" 
    transform="translate(0,1070) scale(1,-1)">
  <g id="ECM">
  </g>
  <g id="cells">
   <g id="cell0">
  <circle cx="555.621" cy="594.762" r="8.41271" stroke-width="0.5" stroke="black" fill="grey"/>
  <circle cx="555.621" cy="594.762" r="5.05167" stroke-width="0.5" stroke="grey" fill="grey"/>
   </g>
   <g id="cell1">
  <circle cx="856.319" cy="608.45" r="8.41271" stroke-width="0.5" stroke="black" fill="grey"/>
  <circle cx="856.319" cy="608.45" r="5.05167" stroke-width="0.5" stroke="grey" fill="grey"/>
   </g>
   <g id="cell2">
  <circle cx="545.292" cy="846.354" r="8.51252" stroke-width="0.5" stroke="black" fill="grey"/>
  <circle cx="545.292" cy="846.354" r="5.12552" stroke-width="0.5" stroke="grey" fill="grey"/>
   </g>
   <g id="cell3">
  <circle cx="628.046" cy="618.189" r="8.57856" stroke-width="0.5" stroke="black" fill="grey"/>
  <circle cx="628.046" cy="618.189" r="5.17461" stroke-width="0.5" stroke="grey" fill="grey"/>
   </g>
   <g id="cell4">
  <circle cx="441.361" cy="296.44" r="9.2729" stroke-width="0.5" stroke="black" fill="grey"/>
  <circle cx="441.361" cy="296.44" r="5.63555" stroke-width="0.5" stroke="grey" fill="grey"/>
   </g>
   <g id="cell5">
  <circle cx="61.7119" cy="962.714" r="8.41271" stroke-width="0.5" stroke="black" fill="grey"/>
  <circle cx="61.7119" cy="962.714" r="5.05167" stroke-width="0.5" stroke="grey" fill="grey"/>
   </g>
   <g id="cell6">
  <circle cx="380.064" cy="454.55" r="8.41271" stroke-width="0.5" stroke="black" fill="grey"/>
  <circle cx="380.064" cy="454.55" r="5.05167" stroke-width="0.5" stroke="grey" fill="grey"/>
   </g>
   <g id="cell7">
  <circle cx="790.936" cy="521.294" r="8.41271" stroke-width="0.5" stroke="black" fill="grey"/>
  <circle cx="790.936" cy="521.294" r="5.05167" stroke-width="0.5" stroke="grey" fill="grey"/>
   </g>
   <g id="cell8">
  <circle cx="569.161" cy="383.953" r="9.00806" stroke-width="0.5" stroke="black" fill="grey"/>
  <circle cx="569.161" cy="383.953" r="5.46807" stroke-width="0.5" stroke="grey" fill="grey"/>
   </g>
   <g id="cell9">
  <circle cx="842.226" cy="84.5853" r="8.51252" stroke-width="0.5" stroke="black" fill="grey"/>
  <circle cx="842.226" cy="84.5853" r="5.12552" stroke-width="0.5" stroke="grey" fill="grey"/>
   </g>
   <g id="cell10">
  <circle cx="91.2053" cy="643.025" r="8.72828" stroke-width="0.5" stroke="black" fill="grey"/>
  <circle cx="91.2053" cy="643.025" r="5.28134" stroke-width="0.5" stroke="grey" fill="grey"/>
   </g>
   <g id="cell11">
  <circle cx="368.044" cy="816.467" r="8.41271" stroke-width="0.5" stroke="black" fill="grey"/>
  <circle cx="368.044" cy="816.467" r="5.05167" stroke-width="0.5" stroke="grey" fill="grey"/>
   </g>
   <g id="cell12">
  <circle cx="767.788" cy="114.83" r="8.54454" stroke-width="0.5" stroke="black" fill="grey"/>
  <circle cx="767.788" cy="114.83" r="5.14947" stroke-width="0.5" stroke="grey" fill="grey"/>
   </g>
   <g id="cell13">
  <circle cx="864.312" cy="980.392" r="8.41271" stroke-width="0.5" stroke="black" fill="grey"/>
  <circle cx="864.312" cy="980.392" r="5.05167" stroke-width="0.5" stroke="grey" fill="grey"/>
   </g>
   <g id="cell14">
  <circle cx="800.089" cy="823.307" r="8.41271" stroke-width="0.5" stroke="black" fill="grey"/>
  <circle cx="800.089" cy="823.307" r="5.05167" stroke-width="0.5" stroke="grey" fill="grey"/>
   </g>
   <g id="cell15">
  <circle cx="523.77" cy="781.9" r="8.41271" stroke-width="0.5" stroke="black" fill="grey"/>
  <circle cx="523.77" cy="781.9" r="5.05167" stroke-width="0.5" stroke="grey" fill="grey"/>
   </g>
   <g id="cell16">
  <circle cx="125.542" cy="703.111" r="8.84788" stroke-width="0.5" stroke="black" fill="grey"/>
  <circle cx="125.542" cy="703.111" r="5.36278" stroke-width="0.5" stroke="grey" fill="grey"/>
   </g>
   <g id="cell17">
  <circle cx="574.703" cy="147.692" r="8.41271" stroke-width="0.5" stroke="black" fill="grey"/>
  <circle cx="574.703" cy="147.692" r="5.05167" stroke-width="0.5" stroke="grey" fill="grey"/>
   </g>
   <g id="cell18">
  <circle cx="928.282" cy="766.275" r="8.41271" stroke-width="0.5" stroke="black" fill="grey"/>
  <circle cx="928.282" cy="766.275" r="5.05167" stroke-width="0.5" stroke="grey" fill="grey"/>
   </g>
   <g id="cell19">
  <circle cx="124.535" cy="418.502" r="8.45606" stroke-width="0.5" stroke="black" fill="grey"/>
  <circle cx="124.535" cy="418.502" r="5.08296" stroke-width="0.5" stroke="grey" fill="grey"/>
   </g>
   <g id="cell20">
  <circle cx="256.574" cy="184.418" r="9.12489" stroke-width="0.5" stroke="black" fill="grey"/>
  <circle cx="256.574" cy="184.418" r="5.54282" stroke-width="0.5" stroke="grey" fill="grey"/>
   </g>
   <g id="cell21">
  <circle cx="739.62" cy="455.524" r="8.41271" stroke-width="0.5" stroke="black" fill="grey"/>
  <circle cx="739.62" cy="455.524" r="5.05167" stroke-width="0.5" stroke="grey" fill="grey"/>
   </g>
   <g id="cell22">
  <circle cx="563.292" cy="147.862" r="9.00806" stroke-width="0.5" stroke="black" fill="grey"/>
  <circle cx="563.292" cy="147.862" r="5.46807" stroke-width="0.5" stroke="grey" fill="grey"/>
   </g>
   <g id="cell23">
  <circle cx="332.217" cy="612.219" r="9.00806" stroke-width="0.5" stroke="black" fill="grey"/>
  <circle cx="332.217" cy="612.219" r="5.46807" stroke-width="0.5" stroke="grey" fill="grey"/>
   </g>
   <g id="cell24">
  <circle cx="605.957" cy="217.121" r="8.41271" stroke-width="0.5" stroke="black" fill="grey"/>
  <circle cx="605.957" cy="217.121" r="5.05167" stroke-width="0.5" stroke="grey" fill="grey"/>
   </g>
   <g id="cell25">
  <circle cx="405.698" cy="931.711" r="8.41271" stroke-width="0.5" stroke="black" fill="grey"/>
  <circle cx="405.698" cy="931.711" r="5.05167" stroke-width="0.5" stroke="grey" fill="grey"/>
   </g>
   <g id="cell26">
  <circle cx="683.445" cy="439.768" r="5.30832" stroke-width="0.5" stroke="black" fill="grey"/>
  <circle cx="683.445" cy="439.768" r="3.60424" stroke-width="0.5" stroke="black" fill="black"/>
   </g>
   <g id="cell27">
  <circle cx="613.201" cy="437.111" r="3.45715" stroke-width="0.5" stroke="black" fill="grey"/>
  <circle cx="613.201" cy="437.111" r="2.66266" stroke-width="0.5" stroke="black" fill="black"/>
   </g>
   <g id="cell28">
  <circle cx="698.685" cy="93.494" r="8.41271" stroke-width="0.5" stroke="black" fill="grey"/>
  <circle cx="698.685" cy="93.494" r="5.05167" stroke-width="0.5" stroke="grey" fill="grey"/>
   </g>
   <g id="cell29">
  <circle cx="984.342" cy="671.664" r="8.41271" stroke-width="0.5" stroke="black" fill="grey"/>
  <circle cx="984.342" cy="671.664" r="5.05167" stroke-width="0.5" stroke="grey" fill="grey"/>
   </g>
   <g id="cell30">
  <circle cx="669.897" cy="167.238" r="3.27739" stroke-width="0.5" stroke="black" fill="grey"/>
  <circle cx="669.897" cy="167.238" r="2.58717" stroke-width="0.5" stroke="black" fill="black"/>
   </g>
   <g id="cell31">
  <circle cx="381.494" cy="121.617" r="8.41271" stroke-width="0.5" stroke="black" fill="grey"/>
  <circle cx="381.494" cy="121.617" r="5.05167" stroke-width="0.5" stroke="grey" fill="grey"/>
   </g>
   <g id="cell32">
  <circle cx="290.379" cy="599.395" r="9.16281" stroke-width="0.5" stroke="black" fill="grey"/>
  <circle cx="290.379" cy="599.395" r="5.56677" stroke-width="0.5" stroke="grey" fill="grey"/>
   </g>
   <g id="cell33">
  <circle cx="333.79" cy="582.252" r="8.41271" stroke-width="0.5" stroke="black" fill="grey"/>
  <circle cx="333.79" cy="582.252" r="5.05167" stroke-width="0.5" stroke="grey" fill="grey"/>
   </g>
   <g id="cell34">
  <circle cx="427.679" cy="628.105" r="8.41271" stroke-width="0.5" stroke="black" fill="grey"/>
  <circle cx="427.679" cy="628.105" r="5.05167" stroke-width="0.5" stroke="grey" fill="grey"/>
   </g>
   <g id="cell35">
  <circle cx="973.947" cy="114.937" r="9.23685" stroke-width="0.5" stroke="black" fill="grey"/>
  <circle cx="973.947" cy="114.937" r="5.61315" stroke-width="0.5" stroke="grey" fill="grey"/>
   </g>
   <g id="cell36">
  <circle cx="201.219" cy="639.823" r="8.41271" stroke-width="0.5" stroke="black" fill="grey"/>
  <circle cx="201.219" cy="639.823" r="5.05167" stroke-width="0.5" stroke="grey" fill="grey"/>
   </g>
   <g id="cell37">
  <circle cx="975.324" cy="645.831" r="8.84788" stroke-width="0.5" stroke="black" fill="grey"/>
  <circle cx="975.324" cy="645.831" r="5.36278" stroke-width="0.5" stroke="grey" fill="grey"/>
   </g>
   <g id="cell38">
  <circle cx="257.634" cy="405.72" r="8.41271" stroke-width="0.5" stroke="black" fill="grey"/>
  <circle cx="257.634" cy="405.72" r="5.05167" stroke-width="0.5" stroke="grey" fill="grey"/>
   </g>
   <g id="cell39">
  <circle cx="487.114" cy="241.522" r="8.4325" stroke-width="0.5" stroke="black" fill="grey"/>
  <circle cx="487.114" cy="241.522" r="5.06552" stroke-width="0.5" stroke="grey" fill="grey"/>
   </g>
   <g id="cell40">
  <circle cx="167.315" cy="343.651" r="8.41271" stroke-width="0.5" stroke="black" fill="red"/>
  <circle cx="167.315" cy="343.651" r="5.05167" stroke-width="0.5" stroke="red" fill="red"/>
   </g>
   <g id="cell41">
  <circle cx="697.727" cy="637.207" r="9.2729" stroke-width="0.5" stroke="black" fill="red"/>
  <circle cx="697.727" cy="637.207" r="5.63555" stroke-width="0.5" stroke="red" fill="red"/>
   </g>
   <g id="cell42">
  <circle cx="136.477" cy="775.486" r="8.41271" stroke-width="0.5" stroke="black" fill="red"/>
  <circle cx="136.477" cy="775.486" r="5.05167" stroke-width="0.5" stroke="red" fill="red"/>
   </g>
   <g id="cell43">
  <circle cx="961.13" cy="357.259" r="8.41271" stroke-width="0.5" stroke="black" fill="red"/>
  <circle cx="961.13" cy="357.259" r="5.05167" stroke-width="0.5" stroke="red" fill="red"/>
   </g>
   <g id="cell44">
  <circle cx="821.695" cy="31.4671" r="8.65127" stroke-width="0.5" stroke="black" fill="red"/>
  <circle cx="821.695" cy="31.4671" r="5.2272" stroke-width="0.5" stroke="red" fill="red"/>
   </g>
   <g id="cell45">
  <circle cx="618.127" cy="839.629" r="8.57856" stroke-width="0.5" stroke="black" fill="red"/>
  <circle cx="618.127" cy="839.629" r="5.17461" stroke-width="0.5" stroke="red" fill="red"/>
   </g>
   <g id="cell46">
  <circle cx="64.598" cy="961.789" r="8.41271" stroke-width="0.5" stroke="black" fill="red"/>
  <circle cx="64.598" cy="961.789" r="5.05167" stroke-width="0.5" stroke="red" fill="red"/>
   </g>
   <g id="cell47">
  <circle cx="874.72" cy="455.652" r="8.41271" stroke-width="0.5" stroke="black" fill="red"/>
  <circle cx="874.72" cy="455.652" r="5.05167" stroke-width="0.5" stroke="red" fill="red"/>
   </g>
   <g id="cell48">
  <circle cx="989.422" cy="33.5212" r="8.41271" stroke-width="0.5" stroke="black" fill="red"/>
  <circle cx="989.422" cy="33.5212" r="5.05167" stroke-width="0.5" stroke="red" fill="red"/>
   </g>
   <g id="cell49">
  <circle cx="460.156" cy="733.931" r="8.41271" stroke-width="0.5" stroke="black" fill="red"/>
  <circle cx="460.156" cy="733.931" r="5.05167" stroke-width="0.5" stroke="red" fill="red"/>
   </g>
   <g id="cell50">
  <circle cx="39.6524" cy="436.707" r="8.41271" stroke-width="0.5" stroke="black" fill="red"/>
  <circle cx="39.6524" cy="436.707" r="5.05167" stroke-width="0.5" stroke="red" fill="red"/>
   </g>
   <g id="cell51">
  <circle cx="974.782" cy="118.573" r="8.41271" stroke-width="0.5" stroke="black" fill="red"/>
  <circle cx="974.782" cy="118.573" r="5.05167" stroke-width="0.5" stroke="red" fill="red"/>
   </g>
   <g id="cell52">
  <circle cx="303.673" cy="485.713" r="8.41271" stroke-width="0.5" stroke="black" fill="red"/>
  <circle cx="303.673" cy="485.713" r="5.05167" stroke-width="0.5" stroke="red" fill="red"/>
   </g>
   <g id="cell53">
  <circle cx="686.156" cy="301.754" r="8.41271" stroke-width="0.5" stroke="black" fill="red"/>
  <circle cx="686.156" cy="301.754" r="5.05167" stroke-width="0.5" stroke="red" fill="red"/>
   </g>
   <g id="cell54">
  <circle cx="411.892" cy="924.804" r="8.41271" stroke-width="0.5" stroke="black" fill="red"/>
  <circle cx="411.892" cy="924.804" r="5.05167" stroke-width="0.5" stroke="red" fill="red"/>
   </g>
   <g id="cell55">
  <circle cx="203.449" cy="704.414" r="8.41271" stroke-width="0.5" stroke="black" fill="red"/>
  <circle cx="203.449" cy="704.414" r="5.05167" stroke-width="0.5" stroke="red" fill="red"/>
   </g>
   <g id="cell56">
  <circle cx="554.278" cy="867.21" r="8.41271" stroke-width="0.5" stroke="black" fill="red"/>
  <circle cx="554.278" cy="867.21" r="5.05167" stroke-width="0.5" stroke="red" fill="red"/>
   </g>
   <g id="cell57">
  <circle cx="536.939" cy="523.33" r="8.48289" stroke-width="0.5" stroke="black" fill="red"/>
  <circle cx="536.939" cy="523.33" r="5.10317" stroke-width="0.5" stroke="red" fill="red"/>
   </g>
   <g id="cell58">
  <circle cx="78.7503" cy="910.212" r="9.00806" stroke-width="0.5" stroke="black" fill="red"/>
  <circle cx="78.7503" cy="910.212" r="5.46807" stroke-width="0.5" stroke="red" fill="red"/>
   </g>
   <g id="cell59">
  <circle cx="83.1841" cy="939.09" r="8.41271" stroke-width="0.5" stroke="black" fill="red"/>
  <circle cx="83.1841" cy="939.09" r="5.05167" stroke-width="0.5" stroke="red" fill="red"/>
   </g>
   <g id="cell60">
  <circle cx="312.696" cy="11.4958" r="8.48289" stroke-width="0.5" stroke="black" fill="red"/>
  <circle cx="312.696" cy="11.4958" r="5.10317" stroke-width="0.5" stroke="red" fill="red"/>
   </g>
   <g id="cell61">
  <circle cx="845.171" cy="134.027" r="8.57856" stroke-width="0.5" stroke="black" fill="red"/>
  <circle cx="845.171" cy="134.027" r="5.17461" stroke-width="0.5" stroke="red" fill="red"/>
   </g>
   <g id="cell62">
  <circle cx="715.495" cy="843.666" r="8.41271" stroke-width="0.5" stroke="black" fill="red"/>
  <circle cx="715.495" cy="843.666" r="5.05167" stroke-width="0.5" stroke="red" fill="red"/>
   </g>
   <g id="cell63">
  <circle cx="267.628" cy="169.796" r="8.51252" stroke-width="0.5" stroke="black" fill="red"/>
  <circle cx="267.628" cy="169.796" r="5.12552" stroke-width="0.5" stroke="red" fill="red"/>
   </g>
   <g id="cell64">
  <circle cx="586.979" cy="556.713" r="8.9283" stroke-width="0.5" stroke="black" fill="red"/>
  <circle cx="586.979" cy="556.713" r="5.4161" stroke-width="0.5" stroke="red" fill="red"/>
   </g>
   <g id="cell65">
  <circle cx="179.939" cy="816.565" r="8.41271" stroke-width="0.5" stroke="black" fill="red"/>
  <circle cx="179.939" cy="816.565" r="5.05167" stroke-width="0.5" stroke="red" fill="red"/>
   </g>
   <g id="cell66">
  <circle cx="21.3061" cy="122.252" r="8.41271" stroke-width="0.5" stroke="black" fill="red"/>
  <circle cx="21.3061" cy="122.252" r="5.05167" stroke-width="0.5" stroke="red" fill="red"/>
   </g>
   <g id="cell67">
  <circle cx="568.468" cy="274.049" r="8.88811" stroke-width="0.5" stroke="black" fill="red"/>
  <circle cx="568.468" cy="274.049" r="5.38958" stroke-width="0.5" stroke="red" fill="red"/>
   </g>
   <g id="cell68">
  <circle cx="733.244" cy="280.878" r="8.51252" stroke-width="0.5" stroke="black" fill="red"/>
  <circle cx="733.244" cy="280.878" r="5.12552" stroke-width="0.5" stroke="red" fill="red"/>
   </g>
   <g id="cell69">
  <circle cx="442.912" cy="219.296" r="8.41271" stroke-width="0.5" stroke="black" fill="red"/>
  <circle cx="442.912" cy="219.296" r="5.05167" stroke-width="0.5" stroke="red" fill="red"/>
   </g>
   <g id="cell70">
  <circle cx="592.746" cy="400.175" r="8.51252" stroke-width="0.5" stroke="black" fill="red"/>
  <circle cx="592.746" cy="400.175" r="5.12552" stroke-width="0.5" stroke="red" fill="red"/>
   </g>
   <g id="cell71">
  <circle cx="913.885" cy="595.827" r="8.41271" stroke-width="0.5" stroke="black" fill="red"/>
  <circle cx="913.885" cy="595.827" r="5.05167" stroke-width="0.5" stroke="red" fill="red"/>
   </g>
   <g id="cell72">
  <circle cx="238.668" cy="877.306" r="8.41271" stroke-width="0.5" stroke="black" fill="red"/>
  <circle cx="238.668" cy="877.306" r="5.05167" stroke-width="0.5" stroke="red" fill="red"/>
   </g>
   <g id="cell73">
  <circle cx="668.843" cy="454.538" r="8.41271" stroke-width="0.5" stroke="black" fill="red"/>
  <circle cx="668.843" cy="454.538" r="5.05167" stroke-width="0.5" stroke="red" fill="red"/>
   </g>
   <g id="cell74">
  <circle cx="857.187" cy="981.879" r="8.41271" stroke-width="0.5" stroke="black" fill="red"/>
  <circle cx="857.187" cy="981.879" r="5.05167" stroke-width="0.5" stroke="red" fill="red"/>
   </g>
   <g id="cell75">
  <circle cx="112.648" cy="288.822" r="8.41271" stroke-width="0.5" stroke="black" fill="red"/>
  <circle cx="112.648" cy="288.822" r="5.05167" stroke-width="0.5" stroke="red" fill="red"/>
   </g>
   <g id="cell76">
  <circle cx="813.17" cy="408.506" r="8.41271" stroke-width="0.5" stroke="black" fill="red"/>
  <circle cx="813.17" cy="408.506" r="5.05167" stroke-width="0.5" stroke="red" fill="red"/>
   </g>
   <g id="cell77">
  <circle cx="680.746" cy="884.71" r="8.88811" stroke-width="0.5" stroke="black" fill="red"/>
  <circle cx="680.746" cy="884.71" r="5.38958" stroke-width="0.5" stroke="red" fill="red"/>
   </g>
   <g id="cell78">
  <circle cx="569.489" cy="325.298" r="8.51252" stroke-width="0.5" stroke="black" fill="red"/>
  <circle cx="569.489" cy="325.298" r="5.12552" stroke-width="0.5" stroke="red" fill="red"/>
   </g>
   <g id="cell79">
  <circle cx="956.783" cy="708.846" r="8.41271" stroke-width="0.5" stroke="black" fill="red"/>
  <circle cx="956.783" cy="708.846" r="5.05167" stroke-width="0.5" stroke="red" fill="red"/>
   </g>
   <g id="cell80">
  <circle cx="732.053" cy="672.937" r="9.00806" stroke-width="0.5" stroke="black" fill="yellow"/>
  <circle cx="732.053" cy="672.937" r="5.46807" stroke-width="0.5" stroke="yellow" fill="yellow"/>
   </g>
   <g id="cell81">
  <circle cx="540.555" cy="948.03" r="9.20015" stroke-width="0.5" stroke="black" fill="yellow"/>
  <circle cx="540.555" cy="948.03" r="5.59022" stroke-width="0.5" stroke="yellow" fill="yellow"/>
   </g>
   <g id="cell82">
  <circle cx="634.677" cy="385.153" r="9.23685" stroke-width="0.5" stroke="black" fill="yellow"/>
  <circle cx="634.677" cy="385.153" r="5.61315" stroke-width="0.5" stroke="yellow" fill="yellow"/>
   </g>
   <g id="cell83">
  <circle cx="614.311" cy="611.305" r="8.41271" stroke-width="0.5" stroke="black" fill="yellow"/>
  <circle cx="614.311" cy="611.305" r="5.05167" stroke-width="0.5" stroke="yellow" fill="yellow"/>
   </g>
   <g id="cell84">
  <circle cx="20.9368" cy="462.11" r="9.08642" stroke-width="0.5" stroke="black" fill="yellow"/>
  <circle cx="20.9368" cy="462.11" r="5.51837" stroke-width="0.5" stroke="yellow" fill="yellow"/>
   </g>
   <g id="cell85">
  <circle cx="714.945" cy="660.4" r="8.84788" stroke-width="0.5" stroke="black" fill="yellow"/>
  <circle cx="714.945" cy="660.4" r="5.36278" stroke-width="0.5" stroke="yellow" fill="yellow"/>
   </g>
   <g id="cell86">
  <circle cx="296.078" cy="405.676" r="8.65127" stroke-width="0.5" stroke="black" fill="yellow"/>
  <circle cx="296.078" cy="405.676" r="5.2272" stroke-width="0.5" stroke="yellow" fill="yellow"/>
   </g>
   <g id="cell87">
  <circle cx="739.481" cy="420.683" r="9.08642" stroke-width="0.5" stroke="black" fill="yellow"/>
  <circle cx="739.481" cy="420.683" r="5.51837" stroke-width="0.5" stroke="yellow" fill="yellow"/>
   </g>
   <g id="cell88">
  <circle cx="136.22" cy="93.2176" r="8.41271" stroke-width="0.5" stroke="black" fill="yellow"/>
  <circle cx="136.22" cy="93.2176" r="5.05167" stroke-width="0.5" stroke="yellow" fill="yellow"/>
   </g>
   <g id="cell89">
  <circle cx="93.3276" cy="570.697" r="8.41271" stroke-width="0.5" stroke="black" fill="yellow"/>
  <circle cx="93.3276" cy="570.697" r="5.05167" stroke-width="0.5" stroke="yellow" fill="yellow"/>
   </g>
   <g id="cell90">
  <circle cx="573.746" cy="553.94" r="8.7678" stroke-width="0.5" stroke="black" fill="yellow"/>
  <circle cx="573.746" cy="553.94" r="5.30857" stroke-width="0.5" stroke="yellow" fill="yellow"/>
   </g>
   <g id="cell91">
  <circle cx="53.9526" cy="667.25" r="8.41271" stroke-width="0.5" stroke="black" fill="yellow"/>
  <circle cx="53.9526" cy="667.25" r="5.05167" stroke-width="0.5" stroke="yellow" fill="yellow"/>
   </g>
   <g id="cell92">
  <circle cx="635.139" cy="297.938" r="8.72828" stroke-width="0.5" stroke="black" fill="yellow"/>
  <circle cx="635.139" cy="297.938" r="5.28134" stroke-width="0.5" stroke="yellow" fill="yellow"/>
   </g>
   <g id="cell93">
  <circle cx="203.458" cy="888.637" r="8.41271" stroke-width="0.5" stroke="black" fill="yellow"/>
  <circle cx="203.458" cy="888.637" r="5.05167" stroke-width="0.5" stroke="yellow" fill="yellow"/>
   </g>
   <g id="cell94">
  <circle cx="369.129" cy="94.9459" r="8.41271" stroke-width="0.5" stroke="black" fill="yellow"/>
  <circle cx="369.129" cy="94.9459" r="5.05167" stroke-width="0.5" stroke="yellow" fill="yellow"/>
   </g>
   <g id="cell95">
  <circle cx="970.992" cy="885.855" r="8.41271" stroke-width="0.5" stroke="black" fill="yellow"/>
  <circle cx="970.992" cy="885.855" r="5.05167" stroke-width="0.5" stroke="yellow" fill="yellow"/>
   </g>
   <g id="cell96">
  <circle cx="807.708" cy="543.713" r="8.41271" stroke-width="0.5" stroke="black" fill="yellow"/>
  <circle cx="807.708" cy="543.713" r="5.05167" stroke-width="0.5" stroke="yellow" fill="yellow"/>
   </g>
   <g id="cell97">
  <circle cx="452.623" cy="125.495" r="8.41271" stroke-width="0.5" stroke="black" fill="yellow"/>
  <circle cx="452.623" cy="125.495" r="5.05167" stroke-width="0.5" stroke="yellow" fill="yellow"/>
   </g>
   <g id="cell98">
  <circle cx="934.546" cy="367.985" r="8.51252" stroke-width="0.5" stroke="black" fill="yellow"/>
  <circle cx="934.546" cy="367.985" r="5.12552" stroke-width="0.5" stroke="yellow" fill="yellow"/>
   </g>
   <g id="cell99">
  <circle cx="460.523" cy="975.855" r="8.41271" stroke-width="0.5" stroke="black" fill="yellow"/>
  <circle cx="460.523" cy="975.855" r="5.05167" stroke-width="0.5" stroke="yellow" fill="yellow"/>
   </g>
   <g id="cell100">
  <circle cx="166.077" cy="906.464" r="8.41271" stroke-width="0.5" stroke="black" fill="yellow"/>
  <circle cx="166.077" cy="906.464" r="5.05167" stroke-width="0.5" stroke="yellow" fill="yellow"/>
   </g>
   <g id="cell101">
  <circle cx="42.2249" cy="175.757" r="9.23685" stroke-width="0.5" stroke="black" fill="yellow"/>
  <circle cx="42.2249" cy="175.757" r="5.61315" stroke-width="0.5" stroke="yellow" fill="yellow"/>
   </g>
   <g id="cell102">
  <circle cx="604.873" cy="148.601" r="8.41271" stroke-width="0.5" stroke="black" fill="yellow"/>
  <circle cx="604.873" cy="148.601" r="5.05167" stroke-width="0.5" stroke="yellow" fill="yellow"/>
   </g>
   <g id="cell103">
  <circle cx="785.851" cy="850.915" r="8.41271" stroke-width="0.5" stroke="black" fill="yellow"/>
  <circle cx="785.851" cy="850.915" r="5.05167" stroke-width="0.5" stroke="yellow" fill="yellow"/>
   </g>
   <g id="cell104">
  <circle cx="802.366" cy="422.974" r="8.41271" stroke-width="0.5" stroke="black" fill="yellow"/>
  <circle cx="802.366" cy="422.974" r="5.05167" stroke-width="0.5" stroke="yellow" fill="yellow"/>
   </g>
   <g id="cell105">
  <circle cx="129.237" cy="413.805" r="8.54454" stroke-width="0.5" stroke="black" fill="yellow"/>
  <circle cx="129.237" cy="413.805" r="5.14947" stroke-width="0.5" stroke="yellow" fill="yellow"/>
   </g>
   <g id="cell106">
  <circle cx="52.7466" cy="991.126" r="8.41271" stroke-width="0.5" stroke="black" fill="yellow"/>
  <circle cx="52.7466" cy="991.126" r="5.05167" stroke-width="0.5" stroke="yellow" fill="yellow"/>
   </g>
   <g id="cell107">
  <circle cx="364.501" cy="449.322" r="8.41271" stroke-width="0.5" stroke="black" fill="yellow"/>
  <circle cx="364.501" cy="449.322" r="5.05167" stroke-width="0.5" stroke="yellow" fill="yellow"/>
   </g>
   <g id="cell108">
  <circle cx="727.767" cy="43.6138" r="8.41271" stroke-width="0.5" stroke="black" fill="yellow"/>
  <circle cx="727.767" cy="43.6138" r="5.05167" stroke-width="0.5" stroke="yellow" fill="yellow"/>
   </g>
   <g id="cell109">
  <circle cx="370.672" cy="988.056" r="8.41271" stroke-width="0.5" stroke="black" fill="yellow"/>
  <circle cx="370.672" cy="988.056" r="5.05167" stroke-width="0.5" stroke="yellow" fill="yellow"/>
   </g>
   <g id="cell110">
  <circle cx="869.09" cy="233.496" r="8.84788" stroke-width="0.5" stroke="black" fill="yellow"/>
  <circle cx="869.09" cy="233.496" r="5.36278" stroke-width="0.5" stroke="yellow" fill="yellow"/>
   </g>
   <g id="cell111">
  <circle cx="773.827" cy="371.704" r="8.41271" stroke-width="0.5" stroke="black" fill="yellow"/>
  <circle cx="773.827" cy="371.704" r="5.05167" stroke-width="0.5" stroke="yellow" fill="yellow"/>
   </g>
   <g id="cell112">
  <circle cx="713.206" cy="751.764" r="8.41271" stroke-width="0.5" stroke="black" fill="yellow"/>
  <circle cx="713.206" cy="751.764" r="5.05167" stroke-width="0.5" stroke="yellow" fill="yellow"/>
   </g>
   <g id="cell113">
  <circle cx="343.748" cy="537.585" r="8.41271" stroke-width="0.5" stroke="black" fill="yellow"/>
  <circle cx="343.748" cy="537.585" r="5.05167" stroke-width="0.5" stroke="yellow" fill="yellow"/>
   </g>
   <g id="cell114">
  <circle cx="68.1424" cy="347.943" r="8.41271" stroke-width="0.5" stroke="black" fill="yellow"/>
  <circle cx="68.1424" cy="347.943" r="5.05167" stroke-width="0.5" stroke="yellow" fill="yellow"/>
   </g>
   <g id="cell115">
  <circle cx="177.605" cy="35.3013" r="8.41271" stroke-width="0.5" stroke="black" fill="yellow"/>
  <circle cx="177.605" cy="35.3013" r="5.05167" stroke-width="0.5" stroke="yellow" fill="yellow"/>
   </g>
   <g id="cell116">
  <circle cx="814.051" cy="458.489" r="8.41271" stroke-width="0.5" stroke="black" fill="yellow"/>
  <circle cx="814.051" cy="458.489" r="5.05167" stroke-width="0.5" stroke="yellow" fill="yellow"/>
   </g>
   <g id="cell117">
  <circle cx="858.101" cy="362.438" r="9.16281" stroke-width="0.5" stroke="black" fill="yellow"/>
  <circle cx="858.101" cy="362.438" r="5.56677" stroke-width="0.5" stroke="yellow" fill="yellow"/>
   </g>
   <g id="cell118">
  <circle cx="937.846" cy="605.873" r="8.41271" stroke-width="0.5" stroke="black" fill="yellow"/>
  <circle cx="937.846" cy="605.873" r="5.05167" stroke-width="0.5" stroke="yellow" fill="yellow"/>
   </g>
   <g id="cell119">
  <circle cx="611.368" cy="43.9839" r="8.41271" stroke-width="0.5" stroke="black" fill="yellow"/>
  <circle cx="611.368" cy="43.9839" r="5.05167" stroke-width="0.5" stroke="yellow" fill="yellow"/>
   </g>
  </g>
 </g>
  <rect x="775" y="1035" width="200" height="10" stroke-width="2" stroke="rgb(255,255,255)" fill="rgb(0,0,0)"/>
  <text x="781.25" y="1028.75"
   font-family="Arial" font-size="25" fill="black" >
   200 &#956;m
  </text>
  <text x="25" y="1045"
   font-family="Arial" font-size="18.75" fill="black" >
   0 days, 0 hours, 0 minutes, and 4.5329 seconds
  </text>
  <rect x="0" y="70" width="1000" height="1000" stroke-width="2" stroke="rgb(0,0,0)" fill="none"/>
</svg>
