<?xml version="1.0" encoding="UTF-8" standalone="no"?>
<!-- Created with PhysiCell (http://PhysiCell.MathCancer.org/) -->
<svg 
 xmlns:dc="http://purl.org/dc/elements/1.1/" 
 xmlns:cc="http://creativecommons.org/ns#" 
 xmlns:rdf="http://www.w3.org/1999/02/22-rdf-syntax-ns#" 
 xmlns:svg="http://www.w3.org/2000/svg" 
 xmlns="http://www.w3.org/2000/svg" 
 version="1.1" 
 width="1000" 
 height="1070" 
 id="svg2">
  <rect x="0" y="0" width="1000" height="1070" stroke-width="2" stroke="white" fill="white"/>
  <text x="12.5" y="30"
   font-family="Arial" font-size="25" fill="black" >
   Current time: 0 days, 3 hours, and 30.00 minutes, z = 0.00 &#956;m
  </text>
  <text x="12.5" y="57.5"
   font-family="Arial" font-size="23.75" fill="black" >
   120 agents
  </text>
 <g id="tissue" 
    transform="translate(0,1070) scale(1,-1)">
  <g id="ECM">
  </g>
  <g id="cells">
   <g id="cell0">
  <circle cx="569.245" cy="592.998" r="8.41271" stroke-width="0.5" stroke="black" fill="grey"/>
  <circle cx="569.245" cy="592.998" r="5.05167" stroke-width="0.5" stroke="grey" fill="grey"/>
   </g>
   <g id="cell1">
  <circle cx="860.521" cy="614.065" r="8.41271" stroke-width="0.5" stroke="black" fill="grey"/>
  <circle cx="860.521" cy="614.065" r="5.05167" stroke-width="0.5" stroke="grey" fill="grey"/>
   </g>
   <g id="cell2">
  <circle cx="544.288" cy="855.017" r="8.88811" stroke-width="0.5" stroke="black" fill="grey"/>
  <circle cx="544.288" cy="855.017" r="5.38958" stroke-width="0.5" stroke="grey" fill="grey"/>
   </g>
   <g id="cell3">
  <circle cx="639.552" cy="617.387" r="8.96831" stroke-width="0.5" stroke="black" fill="grey"/>
  <circle cx="639.552" cy="617.387" r="5.44228" stroke-width="0.5" stroke="grey" fill="grey"/>
   </g>
   <g id="cell4">
  <circle cx="441.256" cy="290.14" r="9.59391" stroke-width="0.5" stroke="black" fill="grey"/>
  <circle cx="441.256" cy="290.14" r="5.83043" stroke-width="0.5" stroke="grey" fill="grey"/>
   </g>
   <g id="cell5">
  <circle cx="65.6807" cy="969.454" r="8.41271" stroke-width="0.5" stroke="black" fill="grey"/>
  <circle cx="65.6807" cy="969.454" r="5.05167" stroke-width="0.5" stroke="grey" fill="grey"/>
   </g>
   <g id="cell6">
  <circle cx="396.31" cy="450.055" r="8.41271" stroke-width="0.5" stroke="black" fill="grey"/>
  <circle cx="396.31" cy="450.055" r="5.05167" stroke-width="0.5" stroke="grey" fill="grey"/>
   </g>
   <g id="cell7">
  <circle cx="792.663" cy="513.735" r="8.41271" stroke-width="0.5" stroke="black" fill="grey"/>
  <circle cx="792.663" cy="513.735" r="5.05167" stroke-width="0.5" stroke="grey" fill="grey"/>
   </g>
   <g id="cell8">
  <circle cx="575.489" cy="369.785" r="9.37686" stroke-width="0.5" stroke="black" fill="grey"/>
  <circle cx="575.489" cy="369.785" r="5.69955" stroke-width="0.5" stroke="grey" fill="grey"/>
   </g>
   <g id="cell9">
  <circle cx="826.728" cy="79.6558" r="8.88811" stroke-width="0.5" stroke="black" fill="grey"/>
  <circle cx="826.728" cy="79.6558" r="5.38958" stroke-width="0.5" stroke="grey" fill="grey"/>
   </g>
   <g id="cell10">
  <circle cx="99.1386" cy="641.727" r="9.12489" stroke-width="0.5" stroke="black" fill="grey"/>
  <circle cx="99.1386" cy="641.727" r="5.54282" stroke-width="0.5" stroke="grey" fill="grey"/>
   </g>
   <g id="cell11">
  <circle cx="373.188" cy="800.853" r="8.41271" stroke-width="0.5" stroke="black" fill="grey"/>
  <circle cx="373.188" cy="800.853" r="5.05167" stroke-width="0.5" stroke="grey" fill="grey"/>
   </g>
   <g id="cell12">
  <circle cx="781.607" cy="103.738" r="8.9283" stroke-width="0.5" stroke="black" fill="grey"/>
  <circle cx="781.607" cy="103.738" r="5.4161" stroke-width="0.5" stroke="grey" fill="grey"/>
   </g>
   <g id="cell13">
  <circle cx="859.298" cy="971.413" r="8.41271" stroke-width="0.5" stroke="black" fill="grey"/>
  <circle cx="859.298" cy="971.413" r="5.05167" stroke-width="0.5" stroke="grey" fill="grey"/>
   </g>
   <g id="cell14">
  <circle cx="804.298" cy="813.895" r="8.41271" stroke-width="0.5" stroke="black" fill="grey"/>
  <circle cx="804.298" cy="813.895" r="5.05167" stroke-width="0.5" stroke="grey" fill="grey"/>
   </g>
   <g id="cell15">
  <circle cx="530.046" cy="786.241" r="8.41271" stroke-width="0.5" stroke="black" fill="grey"/>
  <circle cx="530.046" cy="786.241" r="5.05167" stroke-width="0.5" stroke="grey" fill="grey"/>
   </g>
   <g id="cell16">
  <circle cx="122.773" cy="704.257" r="9.23685" stroke-width="0.5" stroke="black" fill="grey"/>
  <circle cx="122.773" cy="704.257" r="5.61315" stroke-width="0.5" stroke="grey" fill="grey"/>
   </g>
   <g id="cell17">
  <circle cx="574.235" cy="150.149" r="8.41271" stroke-width="0.5" stroke="black" fill="grey"/>
  <circle cx="574.235" cy="150.149" r="5.05167" stroke-width="0.5" stroke="grey" fill="grey"/>
   </g>
   <g id="cell18">
  <circle cx="921.893" cy="753.892" r="8.41271" stroke-width="0.5" stroke="black" fill="grey"/>
  <circle cx="921.893" cy="753.892" r="5.05167" stroke-width="0.5" stroke="grey" fill="grey"/>
   </g>
   <g id="cell19">
  <circle cx="130.854" cy="429.035" r="8.80772" stroke-width="0.5" stroke="black" fill="grey"/>
  <circle cx="130.854" cy="429.035" r="5.33574" stroke-width="0.5" stroke="grey" fill="grey"/>
   </g>
   <g id="cell20">
  <circle cx="263.28" cy="179.634" r="9.4743" stroke-width="0.5" stroke="black" fill="grey"/>
  <circle cx="263.28" cy="179.634" r="5.75875" stroke-width="0.5" stroke="grey" fill="grey"/>
   </g>
   <g id="cell21">
  <circle cx="747.549" cy="452.535" r="8.41271" stroke-width="0.5" stroke="black" fill="grey"/>
  <circle cx="747.549" cy="452.535" r="5.05167" stroke-width="0.5" stroke="grey" fill="grey"/>
   </g>
   <g id="cell22">
  <circle cx="559.798" cy="149.876" r="9.37686" stroke-width="0.5" stroke="black" fill="grey"/>
  <circle cx="559.798" cy="149.876" r="5.69955" stroke-width="0.5" stroke="grey" fill="grey"/>
   </g>
   <g id="cell23">
  <circle cx="335.994" cy="605.167" r="9.37686" stroke-width="0.5" stroke="black" fill="grey"/>
  <circle cx="335.994" cy="605.167" r="5.69955" stroke-width="0.5" stroke="grey" fill="grey"/>
   </g>
   <g id="cell24">
  <circle cx="612.465" cy="208.903" r="8.41271" stroke-width="0.5" stroke="black" fill="grey"/>
  <circle cx="612.465" cy="208.903" r="5.05167" stroke-width="0.5" stroke="grey" fill="grey"/>
   </g>
   <g id="cell25">
  <circle cx="403.986" cy="931.763" r="8.41271" stroke-width="0.5" stroke="black" fill="grey"/>
  <circle cx="403.986" cy="931.763" r="5.05167" stroke-width="0.5" stroke="grey" fill="grey"/>
   </g>
   <g id="cell26">
  <circle cx="683.445" cy="439.768" r="3.70827" stroke-width="0.5" stroke="black" fill="grey"/>
  <circle cx="683.445" cy="439.768" r="2.91341" stroke-width="0.5" stroke="black" fill="black"/>
   </g>
   <g id="cell27">
  <circle cx="613.201" cy="437.111" r="2.72971" stroke-width="0.5" stroke="black" fill="grey"/>
  <circle cx="613.201" cy="437.111" r="2.33853" stroke-width="0.5" stroke="black" fill="black"/>
   </g>
   <g id="cell28">
  <circle cx="693.068" cy="98.0944" r="8.41271" stroke-width="0.5" stroke="black" fill="grey"/>
  <circle cx="693.068" cy="98.0944" r="5.05167" stroke-width="0.5" stroke="grey" fill="grey"/>
   </g>
   <g id="cell29">
  <circle cx="982.321" cy="680.856" r="8.41271" stroke-width="0.5" stroke="black" fill="grey"/>
  <circle cx="982.321" cy="680.856" r="5.05167" stroke-width="0.5" stroke="grey" fill="grey"/>
   </g>
   <g id="cell30">
  <circle cx="669.897" cy="167.238" r="2.62118" stroke-width="0.5" stroke="black" fill="grey"/>
  <circle cx="669.897" cy="167.238" r="2.28296" stroke-width="0.5" stroke="black" fill="black"/>
   </g>
   <g id="cell31">
  <circle cx="386.949" cy="120.602" r="8.41271" stroke-width="0.5" stroke="black" fill="grey"/>
  <circle cx="386.949" cy="120.602" r="5.05167" stroke-width="0.5" stroke="grey" fill="grey"/>
   </g>
   <g id="cell32">
  <circle cx="287.558" cy="590.939" r="9.5053" stroke-width="0.5" stroke="black" fill="grey"/>
  <circle cx="287.558" cy="590.939" r="5.77744" stroke-width="0.5" stroke="grey" fill="grey"/>
   </g>
   <g id="cell33">
  <circle cx="334.196" cy="576.007" r="8.72828" stroke-width="0.5" stroke="black" fill="grey"/>
  <circle cx="334.196" cy="576.007" r="5.28134" stroke-width="0.5" stroke="grey" fill="grey"/>
   </g>
   <g id="cell34">
  <circle cx="427.48" cy="635.905" r="8.41271" stroke-width="0.5" stroke="black" fill="grey"/>
  <circle cx="427.48" cy="635.905" r="5.05167" stroke-width="0.5" stroke="grey" fill="grey"/>
   </g>
   <g id="cell35">
  <circle cx="983.138" cy="116.406" r="9.5651" stroke-width="0.5" stroke="black" fill="grey"/>
  <circle cx="983.138" cy="116.406" r="5.81327" stroke-width="0.5" stroke="grey" fill="grey"/>
   </g>
   <g id="cell36">
  <circle cx="200.486" cy="637.692" r="8.65127" stroke-width="0.5" stroke="black" fill="grey"/>
  <circle cx="200.486" cy="637.692" r="5.2272" stroke-width="0.5" stroke="grey" fill="grey"/>
   </g>
   <g id="cell37">
  <circle cx="978.839" cy="651.808" r="9.23685" stroke-width="0.5" stroke="black" fill="grey"/>
  <circle cx="978.839" cy="651.808" r="5.61315" stroke-width="0.5" stroke="grey" fill="grey"/>
   </g>
   <g id="cell38">
  <circle cx="259.935" cy="405.754" r="8.41271" stroke-width="0.5" stroke="black" fill="grey"/>
  <circle cx="259.935" cy="405.754" r="5.05167" stroke-width="0.5" stroke="grey" fill="grey"/>
   </g>
   <g id="cell39">
  <circle cx="487.088" cy="241.479" r="4.49055" stroke-width="0.5" stroke="black" fill="grey"/>
  <circle cx="487.088" cy="241.479" r="3.1322" stroke-width="0.5" stroke="black" fill="black"/>
   </g>
   <g id="cell40">
  <circle cx="150.682" cy="349.163" r="8.41271" stroke-width="0.5" stroke="black" fill="red"/>
  <circle cx="150.682" cy="349.163" r="5.05167" stroke-width="0.5" stroke="red" fill="red"/>
   </g>
   <g id="cell41">
  <circle cx="696.978" cy="627.718" r="9.59391" stroke-width="0.5" stroke="black" fill="red"/>
  <circle cx="696.978" cy="627.718" r="5.83043" stroke-width="0.5" stroke="red" fill="red"/>
   </g>
   <g id="cell42">
  <circle cx="130.044" cy="770.471" r="8.41271" stroke-width="0.5" stroke="black" fill="red"/>
  <circle cx="130.044" cy="770.471" r="5.05167" stroke-width="0.5" stroke="red" fill="red"/>
   </g>
   <g id="cell43">
  <circle cx="952.622" cy="357.824" r="8.41271" stroke-width="0.5" stroke="black" fill="red"/>
  <circle cx="952.622" cy="357.824" r="5.05167" stroke-width="0.5" stroke="red" fill="red"/>
   </g>
   <g id="cell44">
  <circle cx="818.256" cy="38.7938" r="9.04745" stroke-width="0.5" stroke="black" fill="red"/>
  <circle cx="818.256" cy="38.7938" r="5.49345" stroke-width="0.5" stroke="red" fill="red"/>
   </g>
   <g id="cell45">
  <circle cx="606.343" cy="846.615" r="8.96831" stroke-width="0.5" stroke="black" fill="red"/>
  <circle cx="606.343" cy="846.615" r="5.44228" stroke-width="0.5" stroke="red" fill="red"/>
   </g>
   <g id="cell46">
  <circle cx="70.2928" cy="956.893" r="8.41271" stroke-width="0.5" stroke="black" fill="red"/>
  <circle cx="70.2928" cy="956.893" r="5.05167" stroke-width="0.5" stroke="red" fill="red"/>
   </g>
   <g id="cell47">
  <circle cx="880.552" cy="464.075" r="8.65127" stroke-width="0.5" stroke="black" fill="red"/>
  <circle cx="880.552" cy="464.075" r="5.2272" stroke-width="0.5" stroke="red" fill="red"/>
   </g>
   <g id="cell48">
  <circle cx="983.78" cy="39.9721" r="8.68937" stroke-width="0.5" stroke="black" fill="red"/>
  <circle cx="983.78" cy="39.9721" r="5.25417" stroke-width="0.5" stroke="red" fill="red"/>
   </g>
   <g id="cell49">
  <circle cx="451.202" cy="733.71" r="8.41271" stroke-width="0.5" stroke="black" fill="red"/>
  <circle cx="451.202" cy="733.71" r="5.05167" stroke-width="0.5" stroke="red" fill="red"/>
   </g>
   <g id="cell50">
  <circle cx="46.5385" cy="434.163" r="8.41271" stroke-width="0.5" stroke="black" fill="red"/>
  <circle cx="46.5385" cy="434.163" r="5.05167" stroke-width="0.5" stroke="red" fill="red"/>
   </g>
   <g id="cell51">
  <circle cx="972.321" cy="112.999" r="8.41271" stroke-width="0.5" stroke="black" fill="red"/>
  <circle cx="972.321" cy="112.999" r="5.05167" stroke-width="0.5" stroke="red" fill="red"/>
   </g>
   <g id="cell52">
  <circle cx="313.649" cy="485.414" r="8.41271" stroke-width="0.5" stroke="black" fill="red"/>
  <circle cx="313.649" cy="485.414" r="5.05167" stroke-width="0.5" stroke="red" fill="red"/>
   </g>
   <g id="cell53">
  <circle cx="694.947" cy="314.899" r="8.41271" stroke-width="0.5" stroke="black" fill="red"/>
  <circle cx="694.947" cy="314.899" r="5.05167" stroke-width="0.5" stroke="red" fill="red"/>
   </g>
   <g id="cell54">
  <circle cx="420.019" cy="939.167" r="8.57856" stroke-width="0.5" stroke="black" fill="red"/>
  <circle cx="420.019" cy="939.167" r="5.17461" stroke-width="0.5" stroke="red" fill="red"/>
   </g>
   <g id="cell55">
  <circle cx="192.423" cy="702.6" r="8.41271" stroke-width="0.5" stroke="black" fill="red"/>
  <circle cx="192.423" cy="702.6" r="5.05167" stroke-width="0.5" stroke="red" fill="red"/>
   </g>
   <g id="cell56">
  <circle cx="553.591" cy="867.206" r="8.41271" stroke-width="0.5" stroke="black" fill="red"/>
  <circle cx="553.591" cy="867.206" r="5.05167" stroke-width="0.5" stroke="red" fill="red"/>
   </g>
   <g id="cell57">
  <circle cx="534.216" cy="523.144" r="8.84788" stroke-width="0.5" stroke="black" fill="red"/>
  <circle cx="534.216" cy="523.144" r="5.36278" stroke-width="0.5" stroke="red" fill="red"/>
   </g>
   <g id="cell58">
  <circle cx="76.0531" cy="919.806" r="9.37686" stroke-width="0.5" stroke="black" fill="red"/>
  <circle cx="76.0531" cy="919.806" r="5.69955" stroke-width="0.5" stroke="red" fill="red"/>
   </g>
   <g id="cell59">
  <circle cx="92.3077" cy="933.419" r="8.41271" stroke-width="0.5" stroke="black" fill="red"/>
  <circle cx="92.3077" cy="933.419" r="5.05167" stroke-width="0.5" stroke="red" fill="red"/>
   </g>
   <g id="cell60">
  <circle cx="324.116" cy="8.80642" r="8.84788" stroke-width="0.5" stroke="black" fill="red"/>
  <circle cx="324.116" cy="8.80642" r="5.36278" stroke-width="0.5" stroke="red" fill="red"/>
   </g>
   <g id="cell61">
  <circle cx="855.208" cy="134.013" r="8.96831" stroke-width="0.5" stroke="black" fill="red"/>
  <circle cx="855.208" cy="134.013" r="5.44228" stroke-width="0.5" stroke="red" fill="red"/>
   </g>
   <g id="cell62">
  <circle cx="703.515" cy="845.108" r="8.41271" stroke-width="0.5" stroke="black" fill="red"/>
  <circle cx="703.515" cy="845.108" r="5.05167" stroke-width="0.5" stroke="red" fill="red"/>
   </g>
   <g id="cell63">
  <circle cx="279.224" cy="169.231" r="8.88811" stroke-width="0.5" stroke="black" fill="red"/>
  <circle cx="279.224" cy="169.231" r="5.38958" stroke-width="0.5" stroke="red" fill="red"/>
   </g>
   <g id="cell64">
  <circle cx="579.451" cy="556.887" r="9.30826" stroke-width="0.5" stroke="black" fill="red"/>
  <circle cx="579.451" cy="556.887" r="5.65742" stroke-width="0.5" stroke="red" fill="red"/>
   </g>
   <g id="cell65">
  <circle cx="175.774" cy="830.445" r="8.41271" stroke-width="0.5" stroke="black" fill="red"/>
  <circle cx="175.774" cy="830.445" r="5.05167" stroke-width="0.5" stroke="red" fill="red"/>
   </g>
   <g id="cell66">
  <circle cx="29.7249" cy="106.599" r="8.41271" stroke-width="0.5" stroke="black" fill="red"/>
  <circle cx="29.7249" cy="106.599" r="5.05167" stroke-width="0.5" stroke="red" fill="red"/>
   </g>
   <g id="cell67">
  <circle cx="578.542" cy="283.669" r="9.2729" stroke-width="0.5" stroke="black" fill="red"/>
  <circle cx="578.542" cy="283.669" r="5.63555" stroke-width="0.5" stroke="red" fill="red"/>
   </g>
   <g id="cell68">
  <circle cx="741.315" cy="286.513" r="8.88811" stroke-width="0.5" stroke="black" fill="red"/>
  <circle cx="741.315" cy="286.513" r="5.38958" stroke-width="0.5" stroke="red" fill="red"/>
   </g>
   <g id="cell69">
  <circle cx="442.198" cy="208.41" r="8.41271" stroke-width="0.5" stroke="black" fill="red"/>
  <circle cx="442.198" cy="208.41" r="5.05167" stroke-width="0.5" stroke="red" fill="red"/>
   </g>
   <g id="cell70">
  <circle cx="595.332" cy="407.191" r="8.88811" stroke-width="0.5" stroke="black" fill="red"/>
  <circle cx="595.332" cy="407.191" r="5.38958" stroke-width="0.5" stroke="red" fill="red"/>
   </g>
   <g id="cell71">
  <circle cx="918.352" cy="592.12" r="8.41271" stroke-width="0.5" stroke="black" fill="red"/>
  <circle cx="918.352" cy="592.12" r="5.05167" stroke-width="0.5" stroke="red" fill="red"/>
   </g>
   <g id="cell72">
  <circle cx="234.088" cy="879.599" r="8.41271" stroke-width="0.5" stroke="black" fill="red"/>
  <circle cx="234.088" cy="879.599" r="5.05167" stroke-width="0.5" stroke="red" fill="red"/>
   </g>
   <g id="cell73">
  <circle cx="666.435" cy="450.871" r="8.41271" stroke-width="0.5" stroke="black" fill="red"/>
  <circle cx="666.435" cy="450.871" r="5.05167" stroke-width="0.5" stroke="red" fill="red"/>
   </g>
   <g id="cell74">
  <circle cx="860.577" cy="992.12" r="8.41271" stroke-width="0.5" stroke="black" fill="red"/>
  <circle cx="860.577" cy="992.12" r="5.05167" stroke-width="0.5" stroke="red" fill="red"/>
   </g>
   <g id="cell75">
  <circle cx="111.746" cy="302.219" r="8.41271" stroke-width="0.5" stroke="black" fill="red"/>
  <circle cx="111.746" cy="302.219" r="5.05167" stroke-width="0.5" stroke="red" fill="red"/>
   </g>
   <g id="cell76">
  <circle cx="806.038" cy="414.415" r="8.41271" stroke-width="0.5" stroke="black" fill="red"/>
  <circle cx="806.038" cy="414.415" r="5.05167" stroke-width="0.5" stroke="red" fill="red"/>
   </g>
   <g id="cell77">
  <circle cx="683.657" cy="892.009" r="9.2729" stroke-width="0.5" stroke="black" fill="red"/>
  <circle cx="683.657" cy="892.009" r="5.63555" stroke-width="0.5" stroke="red" fill="red"/>
   </g>
   <g id="cell78">
  <circle cx="576.154" cy="310.42" r="8.88811" stroke-width="0.5" stroke="black" fill="red"/>
  <circle cx="576.154" cy="310.42" r="5.38958" stroke-width="0.5" stroke="red" fill="red"/>
   </g>
   <g id="cell79">
  <circle cx="959.451" cy="713.219" r="8.48289" stroke-width="0.5" stroke="black" fill="red"/>
  <circle cx="959.451" cy="713.219" r="5.10317" stroke-width="0.5" stroke="red" fill="red"/>
   </g>
   <g id="cell80">
  <circle cx="736.631" cy="675.382" r="9.37686" stroke-width="0.5" stroke="black" fill="yellow"/>
  <circle cx="736.631" cy="675.382" r="5.69955" stroke-width="0.5" stroke="yellow" fill="yellow"/>
   </g>
   <g id="cell81">
  <circle cx="546.907" cy="945.697" r="9.53557" stroke-width="0.5" stroke="black" fill="yellow"/>
  <circle cx="546.907" cy="945.697" r="5.79561" stroke-width="0.5" stroke="yellow" fill="yellow"/>
   </g>
   <g id="cell82">
  <circle cx="635.438" cy="394.502" r="9.5651" stroke-width="0.5" stroke="black" fill="yellow"/>
  <circle cx="635.438" cy="394.502" r="5.81327" stroke-width="0.5" stroke="yellow" fill="yellow"/>
   </g>
   <g id="cell83">
  <circle cx="614.508" cy="613.739" r="8.72828" stroke-width="0.5" stroke="black" fill="yellow"/>
  <circle cx="614.508" cy="613.739" r="5.28134" stroke-width="0.5" stroke="yellow" fill="yellow"/>
   </g>
   <g id="cell84">
  <circle cx="15.9052" cy="469.497" r="9.44256" stroke-width="0.5" stroke="black" fill="yellow"/>
  <circle cx="15.9052" cy="469.497" r="5.73955" stroke-width="0.5" stroke="yellow" fill="yellow"/>
   </g>
   <g id="cell85">
  <circle cx="723.151" cy="669.266" r="9.23685" stroke-width="0.5" stroke="black" fill="yellow"/>
  <circle cx="723.151" cy="669.266" r="5.61315" stroke-width="0.5" stroke="yellow" fill="yellow"/>
   </g>
   <g id="cell86">
  <circle cx="295.647" cy="409.148" r="9.04745" stroke-width="0.5" stroke="black" fill="yellow"/>
  <circle cx="295.647" cy="409.148" r="5.49345" stroke-width="0.5" stroke="yellow" fill="yellow"/>
   </g>
   <g id="cell87">
  <circle cx="731.453" cy="415.861" r="9.44256" stroke-width="0.5" stroke="black" fill="yellow"/>
  <circle cx="731.453" cy="415.861" r="5.73955" stroke-width="0.5" stroke="yellow" fill="yellow"/>
   </g>
   <g id="cell88">
  <circle cx="127.117" cy="98.9938" r="8.41271" stroke-width="0.5" stroke="black" fill="yellow"/>
  <circle cx="127.117" cy="98.9938" r="5.05167" stroke-width="0.5" stroke="yellow" fill="yellow"/>
   </g>
   <g id="cell89">
  <circle cx="80.8384" cy="571.667" r="8.41271" stroke-width="0.5" stroke="black" fill="yellow"/>
  <circle cx="80.8384" cy="571.667" r="5.05167" stroke-width="0.5" stroke="yellow" fill="yellow"/>
   </g>
   <g id="cell90">
  <circle cx="579.129" cy="556.309" r="9.16281" stroke-width="0.5" stroke="black" fill="yellow"/>
  <circle cx="579.129" cy="556.309" r="5.56677" stroke-width="0.5" stroke="yellow" fill="yellow"/>
   </g>
   <g id="cell91">
  <circle cx="48.861" cy="666.417" r="8.41271" stroke-width="0.5" stroke="black" fill="yellow"/>
  <circle cx="48.861" cy="666.417" r="5.05167" stroke-width="0.5" stroke="yellow" fill="yellow"/>
   </g>
   <g id="cell92">
  <circle cx="628.755" cy="283.57" r="9.12489" stroke-width="0.5" stroke="black" fill="yellow"/>
  <circle cx="628.755" cy="283.57" r="5.54282" stroke-width="0.5" stroke="yellow" fill="yellow"/>
   </g>
   <g id="cell93">
  <circle cx="196.854" cy="893.496" r="8.41271" stroke-width="0.5" stroke="black" fill="yellow"/>
  <circle cx="196.854" cy="893.496" r="5.05167" stroke-width="0.5" stroke="yellow" fill="yellow"/>
   </g>
   <g id="cell94">
  <circle cx="364.033" cy="96.1901" r="8.41271" stroke-width="0.5" stroke="black" fill="yellow"/>
  <circle cx="364.033" cy="96.1901" r="5.05167" stroke-width="0.5" stroke="yellow" fill="yellow"/>
   </g>
   <g id="cell95">
  <circle cx="986.244" cy="884.388" r="8.41271" stroke-width="0.5" stroke="black" fill="yellow"/>
  <circle cx="986.244" cy="884.388" r="5.05167" stroke-width="0.5" stroke="yellow" fill="yellow"/>
   </g>
   <g id="cell96">
  <circle cx="806.502" cy="539.576" r="8.41271" stroke-width="0.5" stroke="black" fill="yellow"/>
  <circle cx="806.502" cy="539.576" r="5.05167" stroke-width="0.5" stroke="yellow" fill="yellow"/>
   </g>
   <g id="cell97">
  <circle cx="461.358" cy="138.248" r="8.41271" stroke-width="0.5" stroke="black" fill="yellow"/>
  <circle cx="461.358" cy="138.248" r="5.05167" stroke-width="0.5" stroke="yellow" fill="yellow"/>
   </g>
   <g id="cell98">
  <circle cx="924.602" cy="353.724" r="8.88811" stroke-width="0.5" stroke="black" fill="yellow"/>
  <circle cx="924.602" cy="353.724" r="5.38958" stroke-width="0.5" stroke="yellow" fill="yellow"/>
   </g>
   <g id="cell99">
  <circle cx="452.899" cy="968.309" r="8.41271" stroke-width="0.5" stroke="black" fill="yellow"/>
  <circle cx="452.899" cy="968.309" r="5.05167" stroke-width="0.5" stroke="yellow" fill="yellow"/>
   </g>
   <g id="cell100">
  <circle cx="167.495" cy="905.015" r="8.41271" stroke-width="0.5" stroke="black" fill="yellow"/>
  <circle cx="167.495" cy="905.015" r="5.05167" stroke-width="0.5" stroke="yellow" fill="yellow"/>
   </g>
   <g id="cell101">
  <circle cx="36.384" cy="182.738" r="9.5651" stroke-width="0.5" stroke="black" fill="yellow"/>
  <circle cx="36.384" cy="182.738" r="5.81327" stroke-width="0.5" stroke="yellow" fill="yellow"/>
   </g>
   <g id="cell102">
  <circle cx="600.502" cy="139.077" r="8.41271" stroke-width="0.5" stroke="black" fill="yellow"/>
  <circle cx="600.502" cy="139.077" r="5.05167" stroke-width="0.5" stroke="yellow" fill="yellow"/>
   </g>
   <g id="cell103">
  <circle cx="791.356" cy="853.242" r="8.41271" stroke-width="0.5" stroke="black" fill="yellow"/>
  <circle cx="791.356" cy="853.242" r="5.05167" stroke-width="0.5" stroke="yellow" fill="yellow"/>
   </g>
   <g id="cell104">
  <circle cx="802.672" cy="437.311" r="8.41271" stroke-width="0.5" stroke="black" fill="yellow"/>
  <circle cx="802.672" cy="437.311" r="5.05167" stroke-width="0.5" stroke="yellow" fill="yellow"/>
   </g>
   <g id="cell105">
  <circle cx="128.325" cy="419.873" r="8.9283" stroke-width="0.5" stroke="black" fill="yellow"/>
  <circle cx="128.325" cy="419.873" r="5.4161" stroke-width="0.5" stroke="yellow" fill="yellow"/>
   </g>
   <g id="cell106">
  <circle cx="63.1186" cy="981.594" r="8.41271" stroke-width="0.5" stroke="black" fill="yellow"/>
  <circle cx="63.1186" cy="981.594" r="5.05167" stroke-width="0.5" stroke="yellow" fill="yellow"/>
   </g>
   <g id="cell107">
  <circle cx="358.367" cy="446.005" r="8.41271" stroke-width="0.5" stroke="black" fill="yellow"/>
  <circle cx="358.367" cy="446.005" r="5.05167" stroke-width="0.5" stroke="yellow" fill="yellow"/>
   </g>
   <g id="cell108">
  <circle cx="723.86" cy="46.3508" r="8.72828" stroke-width="0.5" stroke="black" fill="yellow"/>
  <circle cx="723.86" cy="46.3508" r="5.28134" stroke-width="0.5" stroke="yellow" fill="yellow"/>
   </g>
   <g id="cell109">
  <circle cx="382.253" cy="976.968" r="8.41271" stroke-width="0.5" stroke="black" fill="yellow"/>
  <circle cx="382.253" cy="976.968" r="5.05167" stroke-width="0.5" stroke="yellow" fill="yellow"/>
   </g>
   <g id="cell110">
  <circle cx="869.127" cy="244.504" r="9.23685" stroke-width="0.5" stroke="black" fill="yellow"/>
  <circle cx="869.127" cy="244.504" r="5.61315" stroke-width="0.5" stroke="yellow" fill="yellow"/>
   </g>
   <g id="cell111">
  <circle cx="767.692" cy="369.671" r="8.41271" stroke-width="0.5" stroke="black" fill="yellow"/>
  <circle cx="767.692" cy="369.671" r="5.05167" stroke-width="0.5" stroke="yellow" fill="yellow"/>
   </g>
   <g id="cell112">
  <circle cx="707.967" cy="745.83" r="8.41271" stroke-width="0.5" stroke="black" fill="yellow"/>
  <circle cx="707.967" cy="745.83" r="5.05167" stroke-width="0.5" stroke="yellow" fill="yellow"/>
   </g>
   <g id="cell113">
  <circle cx="344.403" cy="546.261" r="8.41271" stroke-width="0.5" stroke="black" fill="yellow"/>
  <circle cx="344.403" cy="546.261" r="5.05167" stroke-width="0.5" stroke="yellow" fill="yellow"/>
   </g>
   <g id="cell114">
  <circle cx="79.3161" cy="369.174" r="8.41271" stroke-width="0.5" stroke="black" fill="yellow"/>
  <circle cx="79.3161" cy="369.174" r="5.05167" stroke-width="0.5" stroke="yellow" fill="yellow"/>
   </g>
   <g id="cell115">
  <circle cx="169.459" cy="56.8311" r="8.41271" stroke-width="0.5" stroke="black" fill="yellow"/>
  <circle cx="169.459" cy="56.8311" r="5.05167" stroke-width="0.5" stroke="yellow" fill="yellow"/>
   </g>
   <g id="cell116">
  <circle cx="813.793" cy="451.43" r="8.41271" stroke-width="0.5" stroke="black" fill="yellow"/>
  <circle cx="813.793" cy="451.43" r="5.05167" stroke-width="0.5" stroke="yellow" fill="yellow"/>
   </g>
   <g id="cell117">
  <circle cx="855.136" cy="369.913" r="9.5053" stroke-width="0.5" stroke="black" fill="yellow"/>
  <circle cx="855.136" cy="369.913" r="5.77744" stroke-width="0.5" stroke="yellow" fill="yellow"/>
   </g>
   <g id="cell118">
  <circle cx="933.807" cy="604.622" r="8.41271" stroke-width="0.5" stroke="black" fill="yellow"/>
  <circle cx="933.807" cy="604.622" r="5.05167" stroke-width="0.5" stroke="yellow" fill="yellow"/>
   </g>
   <g id="cell119">
  <circle cx="622.144" cy="50.2165" r="8.41271" stroke-width="0.5" stroke="black" fill="yellow"/>
  <circle cx="622.144" cy="50.2165" r="5.05167" stroke-width="0.5" stroke="yellow" fill="yellow"/>
   </g>
  </g>
 </g>
  <rect x="775" y="1035" width="200" height="10" stroke-width="2" stroke="rgb(255,255,255)" fill="rgb(0,0,0)"/>
  <text x="781.25" y="1028.75"
   font-family="Arial" font-size="25" fill="black" >
   200 &#956;m
  </text>
  <text x="25" y="1045"
   font-family="Arial" font-size="18.75" fill="black" >
   0 days, 0 hours, 0 minutes, and 6.2962 seconds
  </text>
  <rect x="0" y="70" width="1000" height="1000" stroke-width="2" stroke="rgb(0,0,0)" fill="none"/>
</svg>
