<?xml version="1.0" encoding="UTF-8" standalone="no"?>
<!-- Created with PhysiCell (http://PhysiCell.MathCancer.org/) -->
<svg 
 xmlns:dc="http://purl.org/dc/elements/1.1/" 
 xmlns:cc="http://creativecommons.org/ns#" 
 xmlns:rdf="http://www.w3.org/1999/02/22-rdf-syntax-ns#" 
 xmlns:svg="http://www.w3.org/2000/svg" 
 xmlns="http://www.w3.org/2000/svg" 
 version="1.1" 
 width="1000" 
 height="1070" 
 id="svg2">
  <rect x="0" y="0" width="1000" height="1070" stroke-width="2" stroke="white" fill="white"/>
  <text x="12.5" y="30"
   font-family="Arial" font-size="25" fill="black" >
   Current time: 0 days, 21 hours, and 0.00 minutes, z = 0.00 &#956;m
  </text>
  <text x="12.5" y="57.5"
   font-family="Arial" font-size="23.75" fill="black" >
   152 agents
  </text>
 <g id="tissue" 
    transform="translate(0,1070) scale(1,-1)">
  <g id="ECM">
  </g>
  <g id="cells">
   <g id="cell0">
  <circle cx="497.243" cy="648.921" r="9.92209" stroke-width="0.5" stroke="black" fill="grey"/>
  <circle cx="497.243" cy="648.921" r="6.02231" stroke-width="0.5" stroke="grey" fill="grey"/>
   </g>
   <g id="cell118">
  <circle cx="870.277" cy="592.62" r="8.40557" stroke-width="0.5" stroke="black" fill="yellow"/>
  <circle cx="870.277" cy="592.62" r="5.04951" stroke-width="0.5" stroke="yellow" fill="yellow"/>
   </g>
   <g id="cell100">
  <circle cx="136.682" cy="803.972" r="9.85993" stroke-width="0.5" stroke="black" fill="yellow"/>
  <circle cx="136.682" cy="803.972" r="5.98719" stroke-width="0.5" stroke="yellow" fill="yellow"/>
   </g>
   <g id="cell3">
  <circle cx="620.906" cy="613.708" r="9.67063" stroke-width="0.5" stroke="black" fill="grey"/>
  <circle cx="620.906" cy="613.708" r="5.87727" stroke-width="0.5" stroke="grey" fill="grey"/>
   </g>
   <g id="cell103">
  <circle cx="841.378" cy="865.712" r="10.2632" stroke-width="0.5" stroke="black" fill="yellow"/>
  <circle cx="841.378" cy="865.712" r="6.20796" stroke-width="0.5" stroke="yellow" fill="yellow"/>
   </g>
   <g id="cell135">
  <circle cx="155.065" cy="799.182" r="8.68229" stroke-width="0.5" stroke="black" fill="yellow"/>
  <circle cx="155.065" cy="799.182" r="5.25191" stroke-width="0.5" stroke="yellow" fill="yellow"/>
   </g>
   <g id="cell6">
  <circle cx="385.987" cy="484.758" r="1.59275" stroke-width="0.5" stroke="black" fill="grey"/>
  <circle cx="385.987" cy="484.758" r="1.58455" stroke-width="0.5" stroke="black" fill="black"/>
   </g>
   <g id="cell7">
  <circle cx="880.616" cy="504.575" r="9.33361" stroke-width="0.5" stroke="black" fill="grey"/>
  <circle cx="880.616" cy="504.575" r="5.67557" stroke-width="0.5" stroke="grey" fill="grey"/>
   </g>
   <g id="cell8">
  <circle cx="587.455" cy="419.288" r="2.25417" stroke-width="0.5" stroke="black" fill="grey"/>
  <circle cx="587.455" cy="419.288" r="2.18215" stroke-width="0.5" stroke="black" fill="black"/>
   </g>
   <g id="cell112">
  <circle cx="751.648" cy="745.055" r="8.40472" stroke-width="0.5" stroke="black" fill="yellow"/>
  <circle cx="751.648" cy="745.055" r="5.04922" stroke-width="0.5" stroke="yellow" fill="yellow"/>
   </g>
   <g id="cell176">
  <circle cx="250.655" cy="72.9452" r="8.39203" stroke-width="0.5" stroke="black" fill="red"/>
  <circle cx="250.655" cy="72.9452" r="5.0446" stroke-width="0.5" stroke="red" fill="red"/>
   </g>
   <g id="cell11">
  <circle cx="330.059" cy="826.206" r="1.61852" stroke-width="0.5" stroke="black" fill="grey"/>
  <circle cx="330.059" cy="826.206" r="1.60909" stroke-width="0.5" stroke="black" fill="black"/>
   </g>
   <g id="cell104">
  <circle cx="763.933" cy="393.052" r="9.69733" stroke-width="0.5" stroke="black" fill="yellow"/>
  <circle cx="763.933" cy="393.052" r="5.89278" stroke-width="0.5" stroke="yellow" fill="yellow"/>
   </g>
   <g id="cell102">
  <circle cx="618.431" cy="165.803" r="8.39664" stroke-width="0.5" stroke="black" fill="yellow"/>
  <circle cx="618.431" cy="165.803" r="5.04633" stroke-width="0.5" stroke="yellow" fill="yellow"/>
   </g>
   <g id="cell98">
  <circle cx="892.742" cy="381.156" r="10.5561" stroke-width="0.5" stroke="black" fill="yellow"/>
  <circle cx="892.742" cy="381.156" r="6.34901" stroke-width="0.5" stroke="yellow" fill="yellow"/>
   </g>
   <g id="cell97">
  <circle cx="430.067" cy="112.899" r="10.537" stroke-width="0.5" stroke="black" fill="yellow"/>
  <circle cx="430.067" cy="112.899" r="6.34103" stroke-width="0.5" stroke="yellow" fill="yellow"/>
   </g>
   <g id="cell16">
  <circle cx="136.155" cy="726.957" r="9.46665" stroke-width="0.5" stroke="black" fill="grey"/>
  <circle cx="136.155" cy="726.957" r="5.75619" stroke-width="0.5" stroke="grey" fill="grey"/>
   </g>
   <g id="cell116">
  <circle cx="814.337" cy="444.405" r="10.5211" stroke-width="0.5" stroke="black" fill="yellow"/>
  <circle cx="814.337" cy="444.405" r="6.33419" stroke-width="0.5" stroke="yellow" fill="yellow"/>
   </g>
   <g id="cell177">
  <circle cx="453.286" cy="297.456" r="8.39203" stroke-width="0.5" stroke="black" fill="red"/>
  <circle cx="453.286" cy="297.456" r="5.0446" stroke-width="0.5" stroke="red" fill="red"/>
   </g>
   <g id="cell101">
  <circle cx="101.998" cy="154.247" r="10.4102" stroke-width="0.5" stroke="black" fill="yellow"/>
  <circle cx="101.998" cy="154.247" r="6.2825" stroke-width="0.5" stroke="yellow" fill="yellow"/>
   </g>
   <g id="cell20">
  <circle cx="235.256" cy="172.059" r="1.48379" stroke-width="0.5" stroke="black" fill="grey"/>
  <circle cx="235.256" cy="172.059" r="1.47847" stroke-width="0.5" stroke="black" fill="black"/>
   </g>
   <g id="cell99">
  <circle cx="517.353" cy="981.549" r="10.5639" stroke-width="0.5" stroke="black" fill="yellow"/>
  <circle cx="517.353" cy="981.549" r="6.35212" stroke-width="0.5" stroke="yellow" fill="yellow"/>
   </g>
   <g id="cell115">
  <circle cx="185.93" cy="22.8927" r="8.64183" stroke-width="0.5" stroke="black" fill="yellow"/>
  <circle cx="185.93" cy="22.8927" r="5.22412" stroke-width="0.5" stroke="yellow" fill="yellow"/>
   </g>
   <g id="cell108">
  <circle cx="708.096" cy="37.302" r="1.9225" stroke-width="0.5" stroke="black" fill="yellow"/>
  <circle cx="708.096" cy="37.302" r="1.89482" stroke-width="0.5" stroke="black" fill="black"/>
   </g>
   <g id="cell153">
  <circle cx="174.186" cy="409.847" r="9.22785" stroke-width="0.5" stroke="black" fill="red"/>
  <circle cx="174.186" cy="409.847" r="5.61008" stroke-width="0.5" stroke="red" fill="red"/>
   </g>
   <g id="cell105">
  <circle cx="81.1752" cy="406.072" r="10.3084" stroke-width="0.5" stroke="black" fill="yellow"/>
  <circle cx="81.1752" cy="406.072" r="6.23137" stroke-width="0.5" stroke="yellow" fill="yellow"/>
   </g>
   <g id="cell26">
  <circle cx="660.383" cy="461.984" r="9.37095" stroke-width="0.5" stroke="black" fill="grey"/>
  <circle cx="660.383" cy="461.984" r="5.69761" stroke-width="0.5" stroke="grey" fill="grey"/>
   </g>
   <g id="cell117">
  <circle cx="892.606" cy="382.632" r="10.542" stroke-width="0.5" stroke="black" fill="yellow"/>
  <circle cx="892.606" cy="382.632" r="6.34318" stroke-width="0.5" stroke="yellow" fill="yellow"/>
   </g>
   <g id="cell28">
  <circle cx="687.94" cy="139.282" r="8.40403" stroke-width="0.5" stroke="black" fill="grey"/>
  <circle cx="687.94" cy="139.282" r="5.04898" stroke-width="0.5" stroke="grey" fill="grey"/>
   </g>
   <g id="cell29">
  <circle cx="935.371" cy="661.355" r="8.40576" stroke-width="0.5" stroke="black" fill="grey"/>
  <circle cx="935.371" cy="661.355" r="5.04957" stroke-width="0.5" stroke="grey" fill="grey"/>
   </g>
   <g id="cell30">
  <circle cx="756.896" cy="125.625" r="10.5333" stroke-width="0.5" stroke="black" fill="grey"/>
  <circle cx="756.896" cy="125.625" r="6.33948" stroke-width="0.5" stroke="grey" fill="grey"/>
   </g>
   <g id="cell31">
  <circle cx="415.138" cy="106.68" r="2.01694" stroke-width="0.5" stroke="black" fill="grey"/>
  <circle cx="415.138" cy="106.68" r="1.97922" stroke-width="0.5" stroke="black" fill="black"/>
   </g>
   <g id="cell114">
  <circle cx="58.1498" cy="341.382" r="8.3937" stroke-width="0.5" stroke="black" fill="yellow"/>
  <circle cx="58.1498" cy="341.382" r="5.04523" stroke-width="0.5" stroke="yellow" fill="yellow"/>
   </g>
   <g id="cell107">
  <circle cx="375.383" cy="436.995" r="10.3933" stroke-width="0.5" stroke="black" fill="yellow"/>
  <circle cx="375.383" cy="436.995" r="6.27417" stroke-width="0.5" stroke="yellow" fill="yellow"/>
   </g>
   <g id="cell106">
  <circle cx="31.585" cy="928.314" r="9.55875" stroke-width="0.5" stroke="black" fill="yellow"/>
  <circle cx="31.585" cy="928.314" r="5.81118" stroke-width="0.5" stroke="yellow" fill="yellow"/>
   </g>
   <g id="cell35">
  <circle cx="936.109" cy="73.5881" r="10.211" stroke-width="0.5" stroke="black" fill="grey"/>
  <circle cx="936.109" cy="73.5881" r="6.18041" stroke-width="0.5" stroke="grey" fill="grey"/>
   </g>
   <g id="cell109">
  <circle cx="368.831" cy="967.741" r="8.39571" stroke-width="0.5" stroke="black" fill="yellow"/>
  <circle cx="368.831" cy="967.741" r="5.04599" stroke-width="0.5" stroke="yellow" fill="yellow"/>
   </g>
   <g id="cell111">
  <circle cx="776.607" cy="357.133" r="10.537" stroke-width="0.5" stroke="black" fill="yellow"/>
  <circle cx="776.607" cy="357.133" r="6.34103" stroke-width="0.5" stroke="yellow" fill="yellow"/>
   </g>
   <g id="cell131">
  <circle cx="640.138" cy="595.244" r="9.00183" stroke-width="0.5" stroke="black" fill="grey"/>
  <circle cx="640.138" cy="595.244" r="5.46604" stroke-width="0.5" stroke="grey" fill="grey"/>
   </g>
   <g id="cell110">
  <circle cx="881.279" cy="278.656" r="10.3615" stroke-width="0.5" stroke="black" fill="yellow"/>
  <circle cx="881.279" cy="278.656" r="6.25834" stroke-width="0.5" stroke="yellow" fill="yellow"/>
   </g>
   <g id="cell40">
  <circle cx="144.294" cy="413.772" r="8.91866" stroke-width="0.5" stroke="black" fill="red"/>
  <circle cx="144.294" cy="413.772" r="5.41284" stroke-width="0.5" stroke="red" fill="red"/>
   </g>
   <g id="cell41">
  <circle cx="691.472" cy="713.052" r="9.15569" stroke-width="0.5" stroke="black" fill="red"/>
  <circle cx="691.472" cy="713.052" r="5.5644" stroke-width="0.5" stroke="red" fill="red"/>
   </g>
   <g id="cell42">
  <circle cx="150.514" cy="715.091" r="8.40427" stroke-width="0.5" stroke="black" fill="red"/>
  <circle cx="150.514" cy="715.091" r="5.04906" stroke-width="0.5" stroke="red" fill="red"/>
   </g>
   <g id="cell43">
  <circle cx="874.912" cy="391.911" r="8.39473" stroke-width="0.5" stroke="black" fill="red"/>
  <circle cx="874.912" cy="391.911" r="5.04562" stroke-width="0.5" stroke="red" fill="red"/>
   </g>
   <g id="cell44">
  <circle cx="844.516" cy="65.7452" r="8.42139" stroke-width="0.5" stroke="black" fill="red"/>
  <circle cx="844.516" cy="65.7452" r="5.06199" stroke-width="0.5" stroke="red" fill="red"/>
   </g>
   <g id="cell45">
  <circle cx="642.832" cy="837.616" r="10.5639" stroke-width="0.5" stroke="black" fill="red"/>
  <circle cx="642.832" cy="837.616" r="6.35212" stroke-width="0.5" stroke="red" fill="red"/>
   </g>
   <g id="cell46">
  <circle cx="52.8399" cy="941.569" r="8.40537" stroke-width="0.5" stroke="black" fill="red"/>
  <circle cx="52.8399" cy="941.569" r="5.04944" stroke-width="0.5" stroke="red" fill="red"/>
   </g>
   <g id="cell47">
  <circle cx="879.589" cy="430.991" r="8.79886" stroke-width="0.5" stroke="black" fill="red"/>
  <circle cx="879.589" cy="430.991" r="5.3328" stroke-width="0.5" stroke="red" fill="red"/>
   </g>
   <g id="cell48">
  <circle cx="942.204" cy="41.5602" r="9.74703" stroke-width="0.5" stroke="black" fill="red"/>
  <circle cx="942.204" cy="41.5602" r="5.92186" stroke-width="0.5" stroke="red" fill="red"/>
   </g>
   <g id="cell49">
  <circle cx="481.981" cy="764.254" r="8.39523" stroke-width="0.5" stroke="black" fill="red"/>
  <circle cx="481.981" cy="764.254" r="5.04581" stroke-width="0.5" stroke="red" fill="red"/>
   </g>
   <g id="cell50">
  <circle cx="7.97993" cy="459.068" r="8.57322" stroke-width="0.5" stroke="black" fill="red"/>
  <circle cx="7.97993" cy="459.068" r="5.17299" stroke-width="0.5" stroke="red" fill="red"/>
   </g>
   <g id="cell51">
  <circle cx="914.056" cy="138.326" r="9.46926" stroke-width="0.5" stroke="black" fill="red"/>
  <circle cx="914.056" cy="138.326" r="5.75713" stroke-width="0.5" stroke="red" fill="red"/>
   </g>
   <g id="cell96">
  <circle cx="810.376" cy="543.731" r="8.75301" stroke-width="0.5" stroke="black" fill="yellow"/>
  <circle cx="810.376" cy="543.731" r="5.30342" stroke-width="0.5" stroke="yellow" fill="yellow"/>
   </g>
   <g id="cell53">
  <circle cx="687.241" cy="310.011" r="9.79379" stroke-width="0.5" stroke="black" fill="red"/>
  <circle cx="687.241" cy="310.011" r="5.94912" stroke-width="0.5" stroke="red" fill="red"/>
   </g>
   <g id="cell54">
  <circle cx="435.043" cy="934.964" r="8.39794" stroke-width="0.5" stroke="black" fill="red"/>
  <circle cx="435.043" cy="934.964" r="5.04681" stroke-width="0.5" stroke="red" fill="red"/>
   </g>
   <g id="cell55">
  <circle cx="225.824" cy="674.092" r="10.483" stroke-width="0.5" stroke="black" fill="red"/>
  <circle cx="225.824" cy="674.092" r="6.31703" stroke-width="0.5" stroke="red" fill="red"/>
   </g>
   <g id="cell56">
  <circle cx="561.344" cy="850.716" r="9.15391" stroke-width="0.5" stroke="black" fill="red"/>
  <circle cx="561.344" cy="850.716" r="5.56375" stroke-width="0.5" stroke="red" fill="red"/>
   </g>
   <g id="cell57">
  <circle cx="470.266" cy="555.81" r="9.30097" stroke-width="0.5" stroke="black" fill="red"/>
  <circle cx="470.266" cy="555.81" r="5.65498" stroke-width="0.5" stroke="red" fill="red"/>
   </g>
   <g id="cell58">
  <circle cx="39.6171" cy="909.757" r="8.6759" stroke-width="0.5" stroke="black" fill="red"/>
  <circle cx="39.6171" cy="909.757" r="5.24958" stroke-width="0.5" stroke="red" fill="red"/>
   </g>
   <g id="cell59">
  <circle cx="93.0894" cy="985.25" r="8.83252" stroke-width="0.5" stroke="black" fill="red"/>
  <circle cx="93.0894" cy="985.25" r="5.35737" stroke-width="0.5" stroke="red" fill="red"/>
   </g>
   <g id="cell60">
  <circle cx="276.399" cy="56.8738" r="8.39203" stroke-width="0.5" stroke="black" fill="red"/>
  <circle cx="276.399" cy="56.8738" r="5.0446" stroke-width="0.5" stroke="red" fill="red"/>
   </g>
   <g id="cell61">
  <circle cx="837.683" cy="120.743" r="8.39834" stroke-width="0.5" stroke="black" fill="red"/>
  <circle cx="837.683" cy="120.743" r="5.04696" stroke-width="0.5" stroke="red" fill="red"/>
   </g>
   <g id="cell62">
  <circle cx="725.787" cy="820.906" r="8.80772" stroke-width="0.5" stroke="black" fill="red"/>
  <circle cx="725.787" cy="820.906" r="5.33574" stroke-width="0.5" stroke="red" fill="red"/>
   </g>
   <g id="cell63">
  <circle cx="340.067" cy="150.388" r="8.40327" stroke-width="0.5" stroke="black" fill="red"/>
  <circle cx="340.067" cy="150.388" r="5.04872" stroke-width="0.5" stroke="red" fill="red"/>
   </g>
   <g id="cell64">
  <circle cx="589.558" cy="547.657" r="9.53557" stroke-width="0.5" stroke="black" fill="red"/>
  <circle cx="589.558" cy="547.657" r="5.79561" stroke-width="0.5" stroke="red" fill="red"/>
   </g>
   <g id="cell65">
  <circle cx="190.302" cy="844.985" r="1.78872" stroke-width="0.5" stroke="black" fill="red"/>
  <circle cx="190.302" cy="844.985" r="1.76959" stroke-width="0.5" stroke="black" fill="black"/>
   </g>
   <g id="cell66">
  <circle cx="27.1541" cy="174.38" r="8.40744" stroke-width="0.5" stroke="black" fill="red"/>
  <circle cx="27.1541" cy="174.38" r="5.05676" stroke-width="0.5" stroke="red" fill="red"/>
   </g>
   <g id="cell67">
  <circle cx="509.604" cy="266.154" r="10.5639" stroke-width="0.5" stroke="black" fill="red"/>
  <circle cx="509.604" cy="266.154" r="6.35212" stroke-width="0.5" stroke="red" fill="red"/>
   </g>
   <g id="cell68">
  <circle cx="755.223" cy="228.576" r="8.84066" stroke-width="0.5" stroke="black" fill="red"/>
  <circle cx="755.223" cy="228.576" r="5.36041" stroke-width="0.5" stroke="red" fill="red"/>
   </g>
   <g id="cell69">
  <circle cx="440.023" cy="278.564" r="8.39203" stroke-width="0.5" stroke="black" fill="red"/>
  <circle cx="440.023" cy="278.564" r="5.0446" stroke-width="0.5" stroke="red" fill="red"/>
   </g>
   <g id="cell70">
  <circle cx="529.704" cy="349.434" r="8.39571" stroke-width="0.5" stroke="black" fill="red"/>
  <circle cx="529.704" cy="349.434" r="5.04599" stroke-width="0.5" stroke="red" fill="red"/>
   </g>
   <g id="cell71">
  <circle cx="863.463" cy="538.342" r="9.79436" stroke-width="0.5" stroke="black" fill="red"/>
  <circle cx="863.463" cy="538.342" r="5.94932" stroke-width="0.5" stroke="red" fill="red"/>
   </g>
   <g id="cell72">
  <circle cx="202.664" cy="870.908" r="9.29987" stroke-width="0.5" stroke="black" fill="red"/>
  <circle cx="202.664" cy="870.908" r="5.65458" stroke-width="0.5" stroke="red" fill="red"/>
   </g>
   <g id="cell73">
  <circle cx="652.47" cy="426.791" r="8.40494" stroke-width="0.5" stroke="black" fill="red"/>
  <circle cx="652.47" cy="426.791" r="5.04929" stroke-width="0.5" stroke="red" fill="red"/>
   </g>
   <g id="cell74">
  <circle cx="861.25" cy="963.661" r="8.39794" stroke-width="0.5" stroke="black" fill="red"/>
  <circle cx="861.25" cy="963.661" r="5.04681" stroke-width="0.5" stroke="red" fill="red"/>
   </g>
   <g id="cell75">
  <circle cx="98.0853" cy="320.141" r="9.23004" stroke-width="0.5" stroke="black" fill="red"/>
  <circle cx="98.0853" cy="320.141" r="5.61089" stroke-width="0.5" stroke="red" fill="red"/>
   </g>
   <g id="cell76">
  <circle cx="780.31" cy="410.224" r="8.39708" stroke-width="0.5" stroke="black" fill="red"/>
  <circle cx="780.31" cy="410.224" r="5.0465" stroke-width="0.5" stroke="red" fill="red"/>
   </g>
   <g id="cell77">
  <circle cx="649.538" cy="847.452" r="8.4447" stroke-width="0.5" stroke="black" fill="red"/>
  <circle cx="649.538" cy="847.452" r="5.07932" stroke-width="0.5" stroke="red" fill="red"/>
   </g>
   <g id="cell78">
  <circle cx="598.637" cy="265.439" r="8.39913" stroke-width="0.5" stroke="black" fill="red"/>
  <circle cx="598.637" cy="265.439" r="5.04725" stroke-width="0.5" stroke="red" fill="red"/>
   </g>
   <g id="cell79">
  <circle cx="979.427" cy="678.759" r="8.38532" stroke-width="0.5" stroke="black" fill="red"/>
  <circle cx="979.427" cy="678.759" r="5.04199" stroke-width="0.5" stroke="red" fill="red"/>
   </g>
   <g id="cell80">
  <circle cx="748.377" cy="675.153" r="10.34" stroke-width="0.5" stroke="black" fill="yellow"/>
  <circle cx="748.377" cy="675.153" r="6.24753" stroke-width="0.5" stroke="yellow" fill="yellow"/>
   </g>
   <g id="cell81">
  <circle cx="499.128" cy="980.445" r="9.12489" stroke-width="0.5" stroke="black" fill="yellow"/>
  <circle cx="499.128" cy="980.445" r="5.54282" stroke-width="0.5" stroke="yellow" fill="yellow"/>
   </g>
   <g id="cell82">
  <circle cx="670.546" cy="433.638" r="9.61457" stroke-width="0.5" stroke="black" fill="yellow"/>
  <circle cx="670.546" cy="433.638" r="5.84463" stroke-width="0.5" stroke="yellow" fill="yellow"/>
   </g>
   <g id="cell83">
  <circle cx="588.274" cy="581.791" r="8.79695" stroke-width="0.5" stroke="black" fill="yellow"/>
  <circle cx="588.274" cy="581.791" r="5.3321" stroke-width="0.5" stroke="yellow" fill="yellow"/>
   </g>
   <g id="cell84">
  <circle cx="9.79936" cy="513.247" r="8.38753" stroke-width="0.5" stroke="black" fill="yellow"/>
  <circle cx="9.79936" cy="513.247" r="5.04286" stroke-width="0.5" stroke="yellow" fill="yellow"/>
   </g>
   <g id="cell85">
  <circle cx="770.084" cy="655.332" r="9.69617" stroke-width="0.5" stroke="black" fill="yellow"/>
  <circle cx="770.084" cy="655.332" r="5.89237" stroke-width="0.5" stroke="yellow" fill="yellow"/>
   </g>
   <g id="cell86">
  <circle cx="303.929" cy="452.044" r="10.5452" stroke-width="0.5" stroke="black" fill="yellow"/>
  <circle cx="303.929" cy="452.044" r="6.3445" stroke-width="0.5" stroke="yellow" fill="yellow"/>
   </g>
   <g id="cell87">
  <circle cx="747.026" cy="396.727" r="8.40683" stroke-width="0.5" stroke="black" fill="yellow"/>
  <circle cx="747.026" cy="396.727" r="5.04993" stroke-width="0.5" stroke="yellow" fill="yellow"/>
   </g>
   <g id="cell88">
  <circle cx="145.678" cy="111.304" r="9.11397" stroke-width="0.5" stroke="black" fill="yellow"/>
  <circle cx="145.678" cy="111.304" r="5.53904" stroke-width="0.5" stroke="yellow" fill="yellow"/>
   </g>
   <g id="cell89">
  <circle cx="68.6933" cy="542.154" r="10.5549" stroke-width="0.5" stroke="black" fill="yellow"/>
  <circle cx="68.6933" cy="542.154" r="6.34851" stroke-width="0.5" stroke="yellow" fill="yellow"/>
   </g>
   <g id="cell119">
  <circle cx="575.009" cy="35.5235" r="3.15998" stroke-width="0.5" stroke="black" fill="yellow"/>
  <circle cx="575.009" cy="35.5235" r="2.7974" stroke-width="0.5" stroke="black" fill="black"/>
   </g>
   <g id="cell91">
  <circle cx="46.6908" cy="659.264" r="8.38682" stroke-width="0.5" stroke="black" fill="yellow"/>
  <circle cx="46.6908" cy="659.264" r="5.04258" stroke-width="0.5" stroke="yellow" fill="yellow"/>
   </g>
   <g id="cell92">
  <circle cx="649.152" cy="297.013" r="8.49926" stroke-width="0.5" stroke="black" fill="yellow"/>
  <circle cx="649.152" cy="297.013" r="5.12115" stroke-width="0.5" stroke="yellow" fill="yellow"/>
   </g>
   <g id="cell93">
  <circle cx="255.981" cy="864.206" r="8.40683" stroke-width="0.5" stroke="black" fill="yellow"/>
  <circle cx="255.981" cy="864.206" r="5.04993" stroke-width="0.5" stroke="yellow" fill="yellow"/>
   </g>
   <g id="cell94">
  <circle cx="370.512" cy="88.5168" r="8.3937" stroke-width="0.5" stroke="black" fill="yellow"/>
  <circle cx="370.512" cy="88.5168" r="5.04523" stroke-width="0.5" stroke="yellow" fill="yellow"/>
   </g>
   <g id="cell95">
  <circle cx="960.09" cy="921.315" r="8.79265" stroke-width="0.5" stroke="black" fill="yellow"/>
  <circle cx="960.09" cy="921.315" r="5.33047" stroke-width="0.5" stroke="yellow" fill="yellow"/>
   </g>
   <g id="cell121">
  <circle cx="16.7458" cy="496.665" r="8.40715" stroke-width="0.5" stroke="black" fill="red"/>
  <circle cx="16.7458" cy="496.665" r="5.05003" stroke-width="0.5" stroke="red" fill="red"/>
   </g>
   <g id="cell122">
  <circle cx="753.968" cy="443.593" r="9.6175" stroke-width="0.5" stroke="black" fill="yellow"/>
  <circle cx="753.968" cy="443.593" r="5.84568" stroke-width="0.5" stroke="yellow" fill="yellow"/>
   </g>
   <g id="cell123">
  <circle cx="261.101" cy="884.293" r="8.40683" stroke-width="0.5" stroke="black" fill="yellow"/>
  <circle cx="261.101" cy="884.293" r="5.04993" stroke-width="0.5" stroke="yellow" fill="yellow"/>
   </g>
   <g id="cell124">
  <circle cx="510.851" cy="642.147" r="8.53884" stroke-width="0.5" stroke="black" fill="grey"/>
  <circle cx="510.851" cy="642.147" r="5.14775" stroke-width="0.5" stroke="grey" fill="grey"/>
   </g>
   <g id="cell125">
  <circle cx="796.186" cy="389.95" r="9.79462" stroke-width="0.5" stroke="black" fill="yellow"/>
  <circle cx="796.186" cy="389.95" r="5.94941" stroke-width="0.5" stroke="yellow" fill="yellow"/>
   </g>
   <g id="cell126">
  <circle cx="978.709" cy="161.015" r="8.44974" stroke-width="0.5" stroke="black" fill="red"/>
  <circle cx="978.709" cy="161.015" r="5.08106" stroke-width="0.5" stroke="red" fill="red"/>
   </g>
   <g id="cell127">
  <circle cx="875.53" cy="528.555" r="9.69707" stroke-width="0.5" stroke="black" fill="red"/>
  <circle cx="875.53" cy="528.555" r="5.89268" stroke-width="0.5" stroke="red" fill="red"/>
   </g>
   <g id="cell128">
  <circle cx="939.436" cy="45.9991" r="8.40614" stroke-width="0.5" stroke="black" fill="red"/>
  <circle cx="939.436" cy="45.9991" r="5.0497" stroke-width="0.5" stroke="red" fill="red"/>
   </g>
   <g id="cell129">
  <circle cx="960.374" cy="666.988" r="9.55973" stroke-width="0.5" stroke="black" fill="grey"/>
  <circle cx="960.374" cy="666.988" r="5.81153" stroke-width="0.5" stroke="grey" fill="grey"/>
   </g>
   <g id="cell130">
  <circle cx="904.939" cy="599.071" r="8.40557" stroke-width="0.5" stroke="black" fill="yellow"/>
  <circle cx="904.939" cy="599.071" r="5.04951" stroke-width="0.5" stroke="yellow" fill="yellow"/>
   </g>
   <g id="cell132">
  <circle cx="63.7208" cy="908.028" r="9.08012" stroke-width="0.5" stroke="black" fill="red"/>
  <circle cx="63.7208" cy="908.028" r="5.5163" stroke-width="0.5" stroke="red" fill="red"/>
   </g>
   <g id="cell133">
  <circle cx="673.891" cy="368.598" r="8.40537" stroke-width="0.5" stroke="black" fill="red"/>
  <circle cx="673.891" cy="368.598" r="5.04944" stroke-width="0.5" stroke="red" fill="red"/>
   </g>
   <g id="cell134">
  <circle cx="613.666" cy="437.052" r="8.40537" stroke-width="0.5" stroke="black" fill="grey"/>
  <circle cx="613.666" cy="437.052" r="5.04944" stroke-width="0.5" stroke="grey" fill="grey"/>
   </g>
   <g id="cell136">
  <circle cx="655.148" cy="415.632" r="8.53701" stroke-width="0.5" stroke="black" fill="red"/>
  <circle cx="655.148" cy="415.632" r="5.14712" stroke-width="0.5" stroke="red" fill="red"/>
   </g>
   <g id="cell137">
  <circle cx="768.323" cy="678.388" r="8.40494" stroke-width="0.5" stroke="black" fill="yellow"/>
  <circle cx="768.323" cy="678.388" r="5.04929" stroke-width="0.5" stroke="yellow" fill="yellow"/>
   </g>
   <g id="cell138">
  <circle cx="749.088" cy="232.483" r="9.74598" stroke-width="0.5" stroke="black" fill="red"/>
  <circle cx="749.088" cy="232.483" r="5.92149" stroke-width="0.5" stroke="red" fill="red"/>
   </g>
   <g id="cell139">
  <circle cx="775.868" cy="726.577" r="8.40472" stroke-width="0.5" stroke="black" fill="yellow"/>
  <circle cx="775.868" cy="726.577" r="5.04922" stroke-width="0.5" stroke="yellow" fill="yellow"/>
   </g>
   <g id="cell140">
  <circle cx="92.8217" cy="326.265" r="9.69583" stroke-width="0.5" stroke="black" fill="red"/>
  <circle cx="92.8217" cy="326.265" r="5.89225" stroke-width="0.5" stroke="red" fill="red"/>
   </g>
   <g id="cell141">
  <circle cx="31.642" cy="977.014" r="9.61572" stroke-width="0.5" stroke="black" fill="yellow"/>
  <circle cx="31.642" cy="977.014" r="5.84505" stroke-width="0.5" stroke="yellow" fill="yellow"/>
   </g>
   <g id="cell142">
  <circle cx="670.581" cy="661.689" r="8.40427" stroke-width="0.5" stroke="black" fill="red"/>
  <circle cx="670.581" cy="661.689" r="5.04906" stroke-width="0.5" stroke="red" fill="red"/>
   </g>
   <g id="cell143">
  <circle cx="138.22" cy="726.488" r="8.40427" stroke-width="0.5" stroke="black" fill="red"/>
  <circle cx="138.22" cy="726.488" r="5.04906" stroke-width="0.5" stroke="red" fill="red"/>
   </g>
   <g id="cell144">
  <circle cx="624.06" cy="159.063" r="9.22965" stroke-width="0.5" stroke="black" fill="grey"/>
  <circle cx="624.06" cy="159.063" r="5.61075" stroke-width="0.5" stroke="grey" fill="grey"/>
   </g>
   <g id="cell145">
  <circle cx="516.621" cy="552.776" r="8.40378" stroke-width="0.5" stroke="black" fill="red"/>
  <circle cx="516.621" cy="552.776" r="5.0489" stroke-width="0.5" stroke="red" fill="red"/>
   </g>
   <g id="cell146">
  <circle cx="323.325" cy="205.585" r="9.03929" stroke-width="0.5" stroke="black" fill="red"/>
  <circle cx="323.325" cy="205.585" r="5.49071" stroke-width="0.5" stroke="red" fill="red"/>
   </g>
   <g id="cell147">
  <circle cx="661.747" cy="402.134" r="8.403" stroke-width="0.5" stroke="black" fill="yellow"/>
  <circle cx="661.747" cy="402.134" r="5.04863" stroke-width="0.5" stroke="yellow" fill="yellow"/>
   </g>
   <g id="cell148">
  <circle cx="169.651" cy="758.341" r="9.64198" stroke-width="0.5" stroke="black" fill="grey"/>
  <circle cx="169.651" cy="758.341" r="5.86084" stroke-width="0.5" stroke="grey" fill="grey"/>
   </g>
   <g id="cell149">
  <circle cx="875.677" cy="433.089" r="9.46665" stroke-width="0.5" stroke="black" fill="red"/>
  <circle cx="875.677" cy="433.089" r="5.75619" stroke-width="0.5" stroke="red" fill="red"/>
   </g>
   <g id="cell150">
  <circle cx="171.444" cy="20.5052" r="8.40272" stroke-width="0.5" stroke="black" fill="yellow"/>
  <circle cx="171.444" cy="20.5052" r="5.04853" stroke-width="0.5" stroke="yellow" fill="yellow"/>
   </g>
   <g id="cell151">
  <circle cx="220.189" cy="908.296" r="8.40244" stroke-width="0.5" stroke="black" fill="red"/>
  <circle cx="220.189" cy="908.296" r="5.04843" stroke-width="0.5" stroke="red" fill="red"/>
   </g>
   <g id="cell152">
  <circle cx="580.196" cy="833.068" r="9.29964" stroke-width="0.5" stroke="black" fill="red"/>
  <circle cx="580.196" cy="833.068" r="5.65449" stroke-width="0.5" stroke="red" fill="red"/>
   </g>
   <g id="cell154">
  <circle cx="840.516" cy="28.7608" r="8.40154" stroke-width="0.5" stroke="black" fill="red"/>
  <circle cx="840.516" cy="28.7608" r="5.04811" stroke-width="0.5" stroke="red" fill="red"/>
   </g>
   <g id="cell155">
  <circle cx="644.371" cy="864.986" r="9.15313" stroke-width="0.5" stroke="black" fill="red"/>
  <circle cx="644.371" cy="864.986" r="5.56346" stroke-width="0.5" stroke="red" fill="red"/>
   </g>
   <g id="cell156">
  <circle cx="895.061" cy="508.349" r="8.99805" stroke-width="0.5" stroke="black" fill="grey"/>
  <circle cx="895.061" cy="508.349" r="5.46465" stroke-width="0.5" stroke="grey" fill="grey"/>
   </g>
   <g id="cell157">
  <circle cx="597.642" cy="599.907" r="8.4009" stroke-width="0.5" stroke="black" fill="yellow"/>
  <circle cx="597.642" cy="599.907" r="5.04788" stroke-width="0.5" stroke="yellow" fill="yellow"/>
   </g>
   <g id="cell158">
  <circle cx="171.966" cy="123.228" r="8.95701" stroke-width="0.5" stroke="black" fill="yellow"/>
  <circle cx="171.966" cy="123.228" r="5.43839" stroke-width="0.5" stroke="yellow" fill="yellow"/>
   </g>
   <g id="cell159">
  <circle cx="657.689" cy="287" r="8.39913" stroke-width="0.5" stroke="black" fill="yellow"/>
  <circle cx="657.689" cy="287" r="5.04725" stroke-width="0.5" stroke="yellow" fill="yellow"/>
   </g>
   <g id="cell160">
  <circle cx="612.946" cy="266.634" r="8.39913" stroke-width="0.5" stroke="black" fill="red"/>
  <circle cx="612.946" cy="266.634" r="5.04725" stroke-width="0.5" stroke="red" fill="red"/>
   </g>
   <g id="cell161">
  <circle cx="40.1916" cy="938.077" r="8.39834" stroke-width="0.5" stroke="black" fill="red"/>
  <circle cx="40.1916" cy="938.077" r="5.04696" stroke-width="0.5" stroke="red" fill="red"/>
   </g>
   <g id="cell162">
  <circle cx="841.926" cy="126.941" r="9.15071" stroke-width="0.5" stroke="black" fill="red"/>
  <circle cx="841.926" cy="126.941" r="5.56254" stroke-width="0.5" stroke="red" fill="red"/>
   </g>
   <g id="cell163">
  <circle cx="427.315" cy="959.128" r="9.07376" stroke-width="0.5" stroke="black" fill="red"/>
  <circle cx="427.315" cy="959.128" r="5.51393" stroke-width="0.5" stroke="red" fill="red"/>
   </g>
   <g id="cell164">
  <circle cx="843.767" cy="960.211" r="8.39794" stroke-width="0.5" stroke="black" fill="red"/>
  <circle cx="843.767" cy="960.211" r="5.04681" stroke-width="0.5" stroke="red" fill="red"/>
   </g>
   <g id="cell165">
  <circle cx="811.433" cy="381.975" r="9.03395" stroke-width="0.5" stroke="black" fill="red"/>
  <circle cx="811.433" cy="381.975" r="5.48869" stroke-width="0.5" stroke="red" fill="red"/>
   </g>
   <g id="cell166">
  <circle cx="804.454" cy="543.04" r="8.99405" stroke-width="0.5" stroke="black" fill="yellow"/>
  <circle cx="804.454" cy="543.04" r="5.46313" stroke-width="0.5" stroke="yellow" fill="yellow"/>
   </g>
   <g id="cell167">
  <circle cx="629.392" cy="140.977" r="8.39664" stroke-width="0.5" stroke="black" fill="yellow"/>
  <circle cx="629.392" cy="140.977" r="5.04633" stroke-width="0.5" stroke="yellow" fill="yellow"/>
   </g>
   <g id="cell168">
  <circle cx="967.764" cy="913.048" r="8.56267" stroke-width="0.5" stroke="black" fill="yellow"/>
  <circle cx="967.764" cy="913.048" r="5.16921" stroke-width="0.5" stroke="yellow" fill="yellow"/>
   </g>
   <g id="cell169">
  <circle cx="352.581" cy="962.827" r="8.39571" stroke-width="0.5" stroke="black" fill="yellow"/>
  <circle cx="352.581" cy="962.827" r="5.04599" stroke-width="0.5" stroke="yellow" fill="yellow"/>
   </g>
   <g id="cell170">
  <circle cx="68.6706" cy="980.365" r="8.39571" stroke-width="0.5" stroke="black" fill="red"/>
  <circle cx="68.6706" cy="980.365" r="5.04599" stroke-width="0.5" stroke="red" fill="red"/>
   </g>
   <g id="cell171">
  <circle cx="544.897" cy="367.962" r="8.41559" stroke-width="0.5" stroke="black" fill="red"/>
  <circle cx="544.897" cy="367.962" r="5.05987" stroke-width="0.5" stroke="red" fill="red"/>
   </g>
   <g id="cell172">
  <circle cx="472.359" cy="775.933" r="8.4657" stroke-width="0.5" stroke="black" fill="red"/>
  <circle cx="472.359" cy="775.933" r="5.09738" stroke-width="0.5" stroke="red" fill="red"/>
   </g>
   <g id="cell173">
  <circle cx="920.365" cy="414.619" r="8.39473" stroke-width="0.5" stroke="black" fill="red"/>
  <circle cx="920.365" cy="414.619" r="5.04562" stroke-width="0.5" stroke="red" fill="red"/>
   </g>
   <g id="cell174">
  <circle cx="381.393" cy="106.035" r="8.3937" stroke-width="0.5" stroke="black" fill="yellow"/>
  <circle cx="381.393" cy="106.035" r="5.04523" stroke-width="0.5" stroke="yellow" fill="yellow"/>
   </g>
   <g id="cell175">
  <circle cx="39.0726" cy="308.332" r="8.56028" stroke-width="0.5" stroke="black" fill="yellow"/>
  <circle cx="39.0726" cy="308.332" r="5.1683" stroke-width="0.5" stroke="yellow" fill="yellow"/>
   </g>
   <g id="cell178">
  <circle cx="35.1705" cy="173.942" r="8.38753" stroke-width="0.5" stroke="black" fill="red"/>
  <circle cx="35.1705" cy="173.942" r="5.04286" stroke-width="0.5" stroke="red" fill="red"/>
   </g>
   <g id="cell179">
  <circle cx="29.8393" cy="514.807" r="8.38753" stroke-width="0.5" stroke="black" fill="yellow"/>
  <circle cx="29.8393" cy="514.807" r="5.04286" stroke-width="0.5" stroke="yellow" fill="yellow"/>
   </g>
   <g id="cell180">
  <circle cx="29.7183" cy="667.175" r="8.38682" stroke-width="0.5" stroke="black" fill="yellow"/>
  <circle cx="29.7183" cy="667.175" r="5.04258" stroke-width="0.5" stroke="yellow" fill="yellow"/>
   </g>
   <g id="cell181">
  <circle cx="970.716" cy="680.741" r="8.38532" stroke-width="0.5" stroke="black" fill="red"/>
  <circle cx="970.716" cy="680.741" r="5.04199" stroke-width="0.5" stroke="red" fill="red"/>
   </g>
  </g>
 </g>
  <rect x="775" y="1035" width="200" height="10" stroke-width="2" stroke="rgb(255,255,255)" fill="rgb(0,0,0)"/>
  <text x="781.25" y="1028.75"
   font-family="Arial" font-size="25" fill="black" >
   200 &#956;m
  </text>
  <text x="25" y="1045"
   font-family="Arial" font-size="18.75" fill="black" >
   0 days, 0 hours, 1 minutes, and 30.5903 seconds
  </text>
  <rect x="0" y="70" width="1000" height="1000" stroke-width="2" stroke="rgb(0,0,0)" fill="none"/>
</svg>
