<?xml version="1.0" encoding="UTF-8" standalone="no"?>
<!-- Created with PhysiCell (http://PhysiCell.MathCancer.org/) -->
<svg 
 xmlns:dc="http://purl.org/dc/elements/1.1/" 
 xmlns:cc="http://creativecommons.org/ns#" 
 xmlns:rdf="http://www.w3.org/1999/02/22-rdf-syntax-ns#" 
 xmlns:svg="http://www.w3.org/2000/svg" 
 xmlns="http://www.w3.org/2000/svg" 
 version="1.1" 
 width="1000" 
 height="1070" 
 id="svg2">
  <rect x="0" y="0" width="1000" height="1070" stroke-width="2" stroke="white" fill="white"/>
  <text x="12.5" y="30"
   font-family="Arial" font-size="25" fill="black" >
   Current time: 1 days, 1 hours, and 30.00 minutes, z = 0.00 &#956;m
  </text>
  <text x="12.5" y="57.5"
   font-family="Arial" font-size="23.75" fill="black" >
   157 agents
  </text>
 <g id="tissue" 
    transform="translate(0,1070) scale(1,-1)">
  <g id="ECM">
  </g>
  <g id="cells">
   <g id="cell0">
  <circle cx="511.362" cy="619.34" r="10.4145" stroke-width="0.5" stroke="black" fill="grey"/>
  <circle cx="511.362" cy="619.34" r="6.28481" stroke-width="0.5" stroke="grey" fill="grey"/>
   </g>
   <g id="cell118">
  <circle cx="851.761" cy="577.739" r="8.41067" stroke-width="0.5" stroke="black" fill="yellow"/>
  <circle cx="851.761" cy="577.739" r="5.05113" stroke-width="0.5" stroke="yellow" fill="yellow"/>
   </g>
   <g id="cell100">
  <circle cx="125.994" cy="793.768" r="10.3977" stroke-width="0.5" stroke="black" fill="yellow"/>
  <circle cx="125.994" cy="793.768" r="6.27665" stroke-width="0.5" stroke="yellow" fill="yellow"/>
   </g>
   <g id="cell3">
  <circle cx="611.466" cy="630.769" r="10.346" stroke-width="0.5" stroke="black" fill="grey"/>
  <circle cx="611.466" cy="630.769" r="6.25088" stroke-width="0.5" stroke="grey" fill="grey"/>
   </g>
   <g id="cell103">
  <circle cx="815.514" cy="876.167" r="10.5066" stroke-width="0.5" stroke="black" fill="yellow"/>
  <circle cx="815.514" cy="876.167" r="6.32777" stroke-width="0.5" stroke="yellow" fill="yellow"/>
   </g>
   <g id="cell135">
  <circle cx="167.625" cy="800.848" r="10.032" stroke-width="0.5" stroke="black" fill="yellow"/>
  <circle cx="167.625" cy="800.848" r="6.0834" stroke-width="0.5" stroke="yellow" fill="yellow"/>
   </g>
   <g id="cell185">
  <circle cx="881.895" cy="394.507" r="8.91968" stroke-width="0.5" stroke="black" fill="yellow"/>
  <circle cx="881.895" cy="394.507" r="5.41322" stroke-width="0.5" stroke="yellow" fill="yellow"/>
   </g>
   <g id="cell7">
  <circle cx="853.101" cy="485.203" r="10.2512" stroke-width="0.5" stroke="black" fill="grey"/>
  <circle cx="853.101" cy="485.203" r="6.20217" stroke-width="0.5" stroke="grey" fill="grey"/>
   </g>
   <g id="cell192">
  <circle cx="828.793" cy="423.427" r="8.39523" stroke-width="0.5" stroke="black" fill="yellow"/>
  <circle cx="828.793" cy="423.427" r="5.04581" stroke-width="0.5" stroke="yellow" fill="yellow"/>
   </g>
   <g id="cell112">
  <circle cx="749.708" cy="728.317" r="8.41043" stroke-width="0.5" stroke="black" fill="yellow"/>
  <circle cx="749.708" cy="728.317" r="5.05106" stroke-width="0.5" stroke="yellow" fill="yellow"/>
   </g>
   <g id="cell176">
  <circle cx="238.851" cy="77.6707" r="8.72282" stroke-width="0.5" stroke="black" fill="red"/>
  <circle cx="238.851" cy="77.6707" r="5.27963" stroke-width="0.5" stroke="red" fill="red"/>
   </g>
   <g id="cell186">
  <circle cx="67.4767" cy="573.063" r="8.40272" stroke-width="0.5" stroke="black" fill="yellow"/>
  <circle cx="67.4767" cy="573.063" r="5.04853" stroke-width="0.5" stroke="yellow" fill="yellow"/>
   </g>
   <g id="cell104">
  <circle cx="761.816" cy="414.356" r="10.3534" stroke-width="0.5" stroke="black" fill="yellow"/>
  <circle cx="761.816" cy="414.356" r="6.25454" stroke-width="0.5" stroke="yellow" fill="yellow"/>
   </g>
   <g id="cell102">
  <circle cx="601.561" cy="166.089" r="9.64589" stroke-width="0.5" stroke="black" fill="yellow"/>
  <circle cx="601.561" cy="166.089" r="5.86221" stroke-width="0.5" stroke="yellow" fill="yellow"/>
   </g>
   <g id="cell98">
  <circle cx="897.518" cy="405.664" r="9.19203" stroke-width="0.5" stroke="black" fill="yellow"/>
  <circle cx="897.518" cy="405.664" r="5.58748" stroke-width="0.5" stroke="yellow" fill="yellow"/>
   </g>
   <g id="cell97">
  <circle cx="430.508" cy="83.523" r="8.9159" stroke-width="0.5" stroke="black" fill="yellow"/>
  <circle cx="430.508" cy="83.523" r="5.4118" stroke-width="0.5" stroke="yellow" fill="yellow"/>
   </g>
   <g id="cell16">
  <circle cx="130.415" cy="708.502" r="10.2893" stroke-width="0.5" stroke="black" fill="grey"/>
  <circle cx="130.415" cy="708.502" r="6.22194" stroke-width="0.5" stroke="grey" fill="grey"/>
   </g>
   <g id="cell116">
  <circle cx="833.99" cy="422.899" r="8.39523" stroke-width="0.5" stroke="black" fill="yellow"/>
  <circle cx="833.99" cy="422.899" r="5.04581" stroke-width="0.5" stroke="yellow" fill="yellow"/>
   </g>
   <g id="cell177">
  <circle cx="440.222" cy="285.889" r="8.40683" stroke-width="0.5" stroke="black" fill="red"/>
  <circle cx="440.222" cy="285.889" r="5.04993" stroke-width="0.5" stroke="red" fill="red"/>
   </g>
   <g id="cell101">
  <circle cx="94.6753" cy="168.758" r="10.5467" stroke-width="0.5" stroke="black" fill="yellow"/>
  <circle cx="94.6753" cy="168.758" r="6.34513" stroke-width="0.5" stroke="yellow" fill="yellow"/>
   </g>
   <g id="cell184">
  <circle cx="544.673" cy="289.882" r="9.79332" stroke-width="0.5" stroke="black" fill="red"/>
  <circle cx="544.673" cy="289.882" r="5.94895" stroke-width="0.5" stroke="red" fill="red"/>
   </g>
   <g id="cell99">
  <circle cx="494.218" cy="982.987" r="9.55893" stroke-width="0.5" stroke="black" fill="yellow"/>
  <circle cx="494.218" cy="982.987" r="5.81124" stroke-width="0.5" stroke="yellow" fill="yellow"/>
   </g>
   <g id="cell115">
  <circle cx="227.168" cy="21.9412" r="10.0149" stroke-width="0.5" stroke="black" fill="yellow"/>
  <circle cx="227.168" cy="21.9412" r="6.07399" stroke-width="0.5" stroke="yellow" fill="yellow"/>
   </g>
   <g id="cell191">
  <circle cx="729.266" cy="121.365" r="8.6373" stroke-width="0.5" stroke="black" fill="grey"/>
  <circle cx="729.266" cy="121.365" r="5.22246" stroke-width="0.5" stroke="grey" fill="grey"/>
   </g>
   <g id="cell153">
  <circle cx="187.7" cy="400.286" r="10.22" stroke-width="0.5" stroke="black" fill="red"/>
  <circle cx="187.7" cy="400.286" r="6.18568" stroke-width="0.5" stroke="red" fill="red"/>
   </g>
   <g id="cell105">
  <circle cx="54.662" cy="407.352" r="10.5189" stroke-width="0.5" stroke="black" fill="yellow"/>
  <circle cx="54.662" cy="407.352" r="6.3332" stroke-width="0.5" stroke="yellow" fill="yellow"/>
   </g>
   <g id="cell26">
  <circle cx="675.114" cy="475.281" r="4.21142" stroke-width="0.5" stroke="black" fill="grey"/>
  <circle cx="675.114" cy="475.281" r="3.26429" stroke-width="0.5" stroke="black" fill="black"/>
   </g>
   <g id="cell117">
  <circle cx="882.125" cy="388.563" r="8.39987" stroke-width="0.5" stroke="black" fill="yellow"/>
  <circle cx="882.125" cy="388.563" r="5.04751" stroke-width="0.5" stroke="yellow" fill="yellow"/>
   </g>
   <g id="cell28">
  <circle cx="684.759" cy="124.152" r="8.41023" stroke-width="0.5" stroke="black" fill="grey"/>
  <circle cx="684.759" cy="124.152" r="5.051" stroke-width="0.5" stroke="grey" fill="grey"/>
   </g>
   <g id="cell29">
  <circle cx="941.897" cy="647.52" r="9.70051" stroke-width="0.5" stroke="black" fill="grey"/>
  <circle cx="941.897" cy="647.52" r="5.89383" stroke-width="0.5" stroke="grey" fill="grey"/>
   </g>
   <g id="cell30">
  <circle cx="721.361" cy="114.051" r="8.39794" stroke-width="0.5" stroke="black" fill="grey"/>
  <circle cx="721.361" cy="114.051" r="5.04681" stroke-width="0.5" stroke="grey" fill="grey"/>
   </g>
   <g id="cell190">
  <circle cx="436.619" cy="107.046" r="8.39874" stroke-width="0.5" stroke="black" fill="yellow"/>
  <circle cx="436.619" cy="107.046" r="5.04711" stroke-width="0.5" stroke="yellow" fill="yellow"/>
   </g>
   <g id="cell114">
  <circle cx="66.9823" cy="349.57" r="9.50107" stroke-width="0.5" stroke="black" fill="yellow"/>
  <circle cx="66.9823" cy="349.57" r="5.77609" stroke-width="0.5" stroke="yellow" fill="yellow"/>
   </g>
   <g id="cell107">
  <circle cx="395.249" cy="465.441" r="10.542" stroke-width="0.5" stroke="black" fill="yellow"/>
  <circle cx="395.249" cy="465.441" r="6.34318" stroke-width="0.5" stroke="yellow" fill="yellow"/>
   </g>
   <g id="cell106">
  <circle cx="9.53476" cy="915.087" r="10.3151" stroke-width="0.5" stroke="black" fill="yellow"/>
  <circle cx="9.53476" cy="915.087" r="6.23518" stroke-width="0.5" stroke="yellow" fill="yellow"/>
   </g>
   <g id="cell35">
  <circle cx="955.129" cy="92.5104" r="10.4925" stroke-width="0.5" stroke="black" fill="grey"/>
  <circle cx="955.129" cy="92.5104" r="6.32139" stroke-width="0.5" stroke="grey" fill="grey"/>
   </g>
   <g id="cell109">
  <circle cx="377.463" cy="978.527" r="8.40788" stroke-width="0.5" stroke="black" fill="yellow"/>
  <circle cx="377.463" cy="978.527" r="5.05027" stroke-width="0.5" stroke="yellow" fill="yellow"/>
   </g>
   <g id="cell111">
  <circle cx="773.097" cy="386.397" r="8.39874" stroke-width="0.5" stroke="black" fill="yellow"/>
  <circle cx="773.097" cy="386.397" r="5.04711" stroke-width="0.5" stroke="yellow" fill="yellow"/>
   </g>
   <g id="cell131">
  <circle cx="636.081" cy="596.713" r="10.1492" stroke-width="0.5" stroke="black" fill="grey"/>
  <circle cx="636.081" cy="596.713" r="6.1476" stroke-width="0.5" stroke="grey" fill="grey"/>
   </g>
   <g id="cell110">
  <circle cx="875.787" cy="289.165" r="10.5333" stroke-width="0.5" stroke="black" fill="yellow"/>
  <circle cx="875.787" cy="289.165" r="6.33948" stroke-width="0.5" stroke="yellow" fill="yellow"/>
   </g>
   <g id="cell40">
  <circle cx="160.048" cy="405.022" r="10.1217" stroke-width="0.5" stroke="black" fill="red"/>
  <circle cx="160.048" cy="405.022" r="6.13285" stroke-width="0.5" stroke="red" fill="red"/>
   </g>
   <g id="cell41">
  <circle cx="667.004" cy="720.479" r="10.198" stroke-width="0.5" stroke="black" fill="red"/>
  <circle cx="667.004" cy="720.479" r="6.17388" stroke-width="0.5" stroke="red" fill="red"/>
   </g>
   <g id="cell42">
  <circle cx="158.101" cy="713.901" r="9.84219" stroke-width="0.5" stroke="black" fill="red"/>
  <circle cx="158.101" cy="713.901" r="5.97614" stroke-width="0.5" stroke="red" fill="red"/>
   </g>
   <g id="cell43">
  <circle cx="865.626" cy="414.506" r="9.84022" stroke-width="0.5" stroke="black" fill="red"/>
  <circle cx="865.626" cy="414.506" r="5.97549" stroke-width="0.5" stroke="red" fill="red"/>
   </g>
   <g id="cell44">
  <circle cx="853.732" cy="42.2531" r="9.88398" stroke-width="0.5" stroke="black" fill="red"/>
  <circle cx="853.732" cy="42.2531" r="6.0002" stroke-width="0.5" stroke="red" fill="red"/>
   </g>
   <g id="cell45">
  <circle cx="667.634" cy="811.176" r="8.40472" stroke-width="0.5" stroke="black" fill="red"/>
  <circle cx="667.634" cy="811.176" r="5.04922" stroke-width="0.5" stroke="red" fill="red"/>
   </g>
   <g id="cell46">
  <circle cx="49.126" cy="906.864" r="8.41061" stroke-width="0.5" stroke="black" fill="red"/>
  <circle cx="49.126" cy="906.864" r="5.05111" stroke-width="0.5" stroke="red" fill="red"/>
   </g>
   <g id="cell47">
  <circle cx="908.377" cy="458.204" r="10.0787" stroke-width="0.5" stroke="black" fill="red"/>
  <circle cx="908.377" cy="458.204" r="6.10929" stroke-width="0.5" stroke="red" fill="red"/>
   </g>
   <g id="cell48">
  <circle cx="933" cy="39.6179" r="10.367" stroke-width="0.5" stroke="black" fill="red"/>
  <circle cx="933" cy="39.6179" r="6.26138" stroke-width="0.5" stroke="red" fill="red"/>
   </g>
   <g id="cell49">
  <circle cx="491.054" cy="804.621" r="9.33889" stroke-width="0.5" stroke="black" fill="red"/>
  <circle cx="491.054" cy="804.621" r="5.67747" stroke-width="0.5" stroke="red" fill="red"/>
   </g>
   <g id="cell50">
  <circle cx="19.0259" cy="441.7" r="9.9811" stroke-width="0.5" stroke="black" fill="red"/>
  <circle cx="19.0259" cy="441.7" r="6.05486" stroke-width="0.5" stroke="red" fill="red"/>
   </g>
   <g id="cell51">
  <circle cx="891.763" cy="120.238" r="10.2899" stroke-width="0.5" stroke="black" fill="red"/>
  <circle cx="891.763" cy="120.238" r="6.22213" stroke-width="0.5" stroke="red" fill="red"/>
   </g>
   <g id="cell96">
  <circle cx="823.059" cy="548.67" r="10.0622" stroke-width="0.5" stroke="black" fill="yellow"/>
  <circle cx="823.059" cy="548.67" r="6.10049" stroke-width="0.5" stroke="yellow" fill="yellow"/>
   </g>
   <g id="cell53">
  <circle cx="696.241" cy="289.259" r="10.3797" stroke-width="0.5" stroke="black" fill="red"/>
  <circle cx="696.241" cy="289.259" r="6.26777" stroke-width="0.5" stroke="red" fill="red"/>
   </g>
   <g id="cell54">
  <circle cx="421.924" cy="913.914" r="8.4085" stroke-width="0.5" stroke="black" fill="red"/>
  <circle cx="421.924" cy="913.914" r="5.05047" stroke-width="0.5" stroke="red" fill="red"/>
   </g>
   <g id="cell55">
  <circle cx="228.955" cy="658.309" r="8.38682" stroke-width="0.5" stroke="black" fill="red"/>
  <circle cx="228.955" cy="658.309" r="5.04258" stroke-width="0.5" stroke="red" fill="red"/>
   </g>
   <g id="cell56">
  <circle cx="605.069" cy="841.498" r="10.1976" stroke-width="0.5" stroke="black" fill="red"/>
  <circle cx="605.069" cy="841.498" r="6.17375" stroke-width="0.5" stroke="red" fill="red"/>
   </g>
   <g id="cell57">
  <circle cx="476.506" cy="525.258" r="10.2415" stroke-width="0.5" stroke="black" fill="red"/>
  <circle cx="476.506" cy="525.258" r="6.19699" stroke-width="0.5" stroke="red" fill="red"/>
   </g>
   <g id="cell58">
  <circle cx="23.3977" cy="876.529" r="10.0307" stroke-width="0.5" stroke="black" fill="red"/>
  <circle cx="23.3977" cy="876.529" r="6.08296" stroke-width="0.5" stroke="red" fill="red"/>
   </g>
   <g id="cell59">
  <circle cx="77.8598" cy="960.856" r="10.0921" stroke-width="0.5" stroke="black" fill="red"/>
  <circle cx="77.8598" cy="960.856" r="6.11696" stroke-width="0.5" stroke="red" fill="red"/>
   </g>
   <g id="cell60">
  <circle cx="252.448" cy="51.7424" r="8.72282" stroke-width="0.5" stroke="black" fill="red"/>
  <circle cx="252.448" cy="51.7424" r="5.27963" stroke-width="0.5" stroke="red" fill="red"/>
   </g>
   <g id="cell61">
  <circle cx="829.828" cy="150.46" r="8.40862" stroke-width="0.5" stroke="black" fill="red"/>
  <circle cx="829.828" cy="150.46" r="5.0505" stroke-width="0.5" stroke="red" fill="red"/>
   </g>
   <g id="cell62">
  <circle cx="727.294" cy="799.181" r="10.0806" stroke-width="0.5" stroke="black" fill="red"/>
  <circle cx="727.294" cy="799.181" r="6.10985" stroke-width="0.5" stroke="red" fill="red"/>
   </g>
   <g id="cell63">
  <circle cx="334.627" cy="169.29" r="9.44042" stroke-width="0.5" stroke="black" fill="red"/>
  <circle cx="334.627" cy="169.29" r="5.73891" stroke-width="0.5" stroke="red" fill="red"/>
   </g>
   <g id="cell64">
  <circle cx="599.598" cy="555.81" r="10.3084" stroke-width="0.5" stroke="black" fill="red"/>
  <circle cx="599.598" cy="555.81" r="6.23137" stroke-width="0.5" stroke="red" fill="red"/>
   </g>
   <g id="cell188">
  <circle cx="867.748" cy="382.54" r="8.39987" stroke-width="0.5" stroke="black" fill="yellow"/>
  <circle cx="867.748" cy="382.54" r="5.04751" stroke-width="0.5" stroke="yellow" fill="yellow"/>
   </g>
   <g id="cell66">
  <circle cx="30.5245" cy="148.687" r="9.88112" stroke-width="0.5" stroke="black" fill="red"/>
  <circle cx="30.5245" cy="148.687" r="5.99923" stroke-width="0.5" stroke="red" fill="red"/>
   </g>
   <g id="cell67">
  <circle cx="517.357" cy="250.279" r="2.67179" stroke-width="0.5" stroke="black" fill="red"/>
  <circle cx="517.357" cy="250.279" r="2.3092" stroke-width="0.5" stroke="black" fill="black"/>
   </g>
   <g id="cell68">
  <circle cx="751.923" cy="237.875" r="10.0939" stroke-width="0.5" stroke="black" fill="red"/>
  <circle cx="751.923" cy="237.875" r="6.11753" stroke-width="0.5" stroke="red" fill="red"/>
   </g>
   <g id="cell69">
  <circle cx="452.105" cy="289.698" r="8.40683" stroke-width="0.5" stroke="black" fill="red"/>
  <circle cx="452.105" cy="289.698" r="5.04993" stroke-width="0.5" stroke="red" fill="red"/>
   </g>
   <g id="cell70">
  <circle cx="506.246" cy="334.225" r="9.53181" stroke-width="0.5" stroke="black" fill="red"/>
  <circle cx="506.246" cy="334.225" r="5.79443" stroke-width="0.5" stroke="red" fill="red"/>
   </g>
   <g id="cell71">
  <circle cx="889.084" cy="503.657" r="10.3799" stroke-width="0.5" stroke="black" fill="red"/>
  <circle cx="889.084" cy="503.657" r="6.26781" stroke-width="0.5" stroke="red" fill="red"/>
   </g>
   <g id="cell72">
  <circle cx="191.357" cy="886.831" r="10.2413" stroke-width="0.5" stroke="black" fill="red"/>
  <circle cx="191.357" cy="886.831" r="6.19691" stroke-width="0.5" stroke="red" fill="red"/>
   </g>
   <g id="cell73">
  <circle cx="655.787" cy="433.756" r="9.8638" stroke-width="0.5" stroke="black" fill="red"/>
  <circle cx="655.787" cy="433.756" r="5.98849" stroke-width="0.5" stroke="red" fill="red"/>
   </g>
   <g id="cell74">
  <circle cx="870.833" cy="948.174" r="8.64729" stroke-width="0.5" stroke="black" fill="red"/>
  <circle cx="870.833" cy="948.174" r="5.22601" stroke-width="0.5" stroke="red" fill="red"/>
   </g>
   <g id="cell75">
  <circle cx="121.199" cy="330.722" r="10.2205" stroke-width="0.5" stroke="black" fill="red"/>
  <circle cx="121.199" cy="330.722" r="6.18584" stroke-width="0.5" stroke="red" fill="red"/>
   </g>
   <g id="cell76">
  <circle cx="772.681" cy="393.36" r="9.08261" stroke-width="0.5" stroke="black" fill="red"/>
  <circle cx="772.681" cy="393.36" r="5.51717" stroke-width="0.5" stroke="red" fill="red"/>
   </g>
   <g id="cell77">
  <circle cx="632.409" cy="849.619" r="9.90422" stroke-width="0.5" stroke="black" fill="red"/>
  <circle cx="632.409" cy="849.619" r="6.01173" stroke-width="0.5" stroke="red" fill="red"/>
   </g>
   <g id="cell78">
  <circle cx="591.188" cy="282.956" r="9.81905" stroke-width="0.5" stroke="black" fill="red"/>
  <circle cx="591.188" cy="282.956" r="5.96309" stroke-width="0.5" stroke="red" fill="red"/>
   </g>
   <g id="cell79">
  <circle cx="976.992" cy="701.994" r="9.07976" stroke-width="0.5" stroke="black" fill="red"/>
  <circle cx="976.992" cy="701.994" r="5.51617" stroke-width="0.5" stroke="red" fill="red"/>
   </g>
   <g id="cell80">
  <circle cx="766.585" cy="679.81" r="10.5275" stroke-width="0.5" stroke="black" fill="yellow"/>
  <circle cx="766.585" cy="679.81" r="6.33696" stroke-width="0.5" stroke="yellow" fill="yellow"/>
   </g>
   <g id="cell81">
  <circle cx="495.895" cy="987.542" r="10.1879" stroke-width="0.5" stroke="black" fill="yellow"/>
  <circle cx="495.895" cy="987.542" r="6.16807" stroke-width="0.5" stroke="yellow" fill="yellow"/>
   </g>
   <g id="cell82">
  <circle cx="634.129" cy="435.152" r="10.3306" stroke-width="0.5" stroke="black" fill="yellow"/>
  <circle cx="634.129" cy="435.152" r="6.24317" stroke-width="0.5" stroke="yellow" fill="yellow"/>
   </g>
   <g id="cell83">
  <circle cx="585.49" cy="572.109" r="10.0783" stroke-width="0.5" stroke="black" fill="yellow"/>
  <circle cx="585.49" cy="572.109" r="6.10916" stroke-width="0.5" stroke="yellow" fill="yellow"/>
   </g>
   <g id="cell84">
  <circle cx="20.8122" cy="519.951" r="9.23093" stroke-width="0.5" stroke="black" fill="yellow"/>
  <circle cx="20.8122" cy="519.951" r="5.61121" stroke-width="0.5" stroke="yellow" fill="yellow"/>
   </g>
   <g id="cell85">
  <circle cx="781.403" cy="673.727" r="10.3531" stroke-width="0.5" stroke="black" fill="yellow"/>
  <circle cx="781.403" cy="673.727" r="6.25445" stroke-width="0.5" stroke="yellow" fill="yellow"/>
   </g>
   <g id="cell86">
  <circle cx="317.517" cy="462.524" r="8.40056" stroke-width="0.5" stroke="black" fill="yellow"/>
  <circle cx="317.517" cy="462.524" r="5.04776" stroke-width="0.5" stroke="yellow" fill="yellow"/>
   </g>
   <g id="cell87">
  <circle cx="756.472" cy="393.306" r="8.41103" stroke-width="0.5" stroke="black" fill="yellow"/>
  <circle cx="756.472" cy="393.306" r="5.05123" stroke-width="0.5" stroke="yellow" fill="yellow"/>
   </g>
   <g id="cell88">
  <circle cx="152.165" cy="105.459" r="2.59603" stroke-width="0.5" stroke="black" fill="yellow"/>
  <circle cx="152.165" cy="105.459" r="2.40278" stroke-width="0.5" stroke="black" fill="black"/>
   </g>
   <g id="cell89">
  <circle cx="72.4531" cy="520.828" r="9.03882" stroke-width="0.5" stroke="black" fill="yellow"/>
  <circle cx="72.4531" cy="520.828" r="5.49053" stroke-width="0.5" stroke="yellow" fill="yellow"/>
   </g>
   <g id="cell119">
  <circle cx="575.009" cy="35.5235" r="1.64938" stroke-width="0.5" stroke="black" fill="yellow"/>
  <circle cx="575.009" cy="35.5235" r="1.63899" stroke-width="0.5" stroke="black" fill="black"/>
   </g>
   <g id="cell91">
  <circle cx="12.1983" cy="657.526" r="8.40537" stroke-width="0.5" stroke="black" fill="yellow"/>
  <circle cx="12.1983" cy="657.526" r="5.04944" stroke-width="0.5" stroke="yellow" fill="yellow"/>
   </g>
   <g id="cell92">
  <circle cx="663.104" cy="299.728" r="9.94271" stroke-width="0.5" stroke="black" fill="yellow"/>
  <circle cx="663.104" cy="299.728" r="6.03365" stroke-width="0.5" stroke="yellow" fill="yellow"/>
   </g>
   <g id="cell93">
  <circle cx="246.376" cy="870.743" r="8.41103" stroke-width="0.5" stroke="black" fill="yellow"/>
  <circle cx="246.376" cy="870.743" r="5.05123" stroke-width="0.5" stroke="yellow" fill="yellow"/>
   </g>
   <g id="cell94">
  <circle cx="382.031" cy="102.107" r="9.37251" stroke-width="0.5" stroke="black" fill="yellow"/>
  <circle cx="382.031" cy="102.107" r="5.69816" stroke-width="0.5" stroke="yellow" fill="yellow"/>
   </g>
   <g id="cell95">
  <circle cx="933.828" cy="907.611" r="10.0774" stroke-width="0.5" stroke="black" fill="yellow"/>
  <circle cx="933.828" cy="907.611" r="6.10886" stroke-width="0.5" stroke="yellow" fill="yellow"/>
   </g>
   <g id="cell121">
  <circle cx="15.4612" cy="496.07" r="8.41112" stroke-width="0.5" stroke="black" fill="red"/>
  <circle cx="15.4612" cy="496.07" r="5.05126" stroke-width="0.5" stroke="red" fill="red"/>
   </g>
   <g id="cell122">
  <circle cx="704.891" cy="450.654" r="10.3314" stroke-width="0.5" stroke="black" fill="yellow"/>
  <circle cx="704.891" cy="450.654" r="6.24339" stroke-width="0.5" stroke="yellow" fill="yellow"/>
   </g>
   <g id="cell123">
  <circle cx="272.96" cy="901.171" r="8.41103" stroke-width="0.5" stroke="black" fill="yellow"/>
  <circle cx="272.96" cy="901.171" r="5.05123" stroke-width="0.5" stroke="yellow" fill="yellow"/>
   </g>
   <g id="cell124">
  <circle cx="499.268" cy="630.018" r="9.96292" stroke-width="0.5" stroke="black" fill="grey"/>
  <circle cx="499.268" cy="630.018" r="6.04465" stroke-width="0.5" stroke="grey" fill="grey"/>
   </g>
   <g id="cell125">
  <circle cx="787.03" cy="430.015" r="10.3799" stroke-width="0.5" stroke="black" fill="yellow"/>
  <circle cx="787.03" cy="430.015" r="6.26783" stroke-width="0.5" stroke="yellow" fill="yellow"/>
   </g>
   <g id="cell126">
  <circle cx="979.617" cy="170.958" r="9.90526" stroke-width="0.5" stroke="black" fill="red"/>
  <circle cx="979.617" cy="170.958" r="6.01206" stroke-width="0.5" stroke="red" fill="red"/>
   </g>
   <g id="cell127">
  <circle cx="898.946" cy="528.108" r="10.3533" stroke-width="0.5" stroke="black" fill="red"/>
  <circle cx="898.946" cy="528.108" r="6.25452" stroke-width="0.5" stroke="red" fill="red"/>
   </g>
   <g id="cell128">
  <circle cx="932.658" cy="26.8422" r="9.72589" stroke-width="0.5" stroke="black" fill="red"/>
  <circle cx="932.658" cy="26.8422" r="5.90866" stroke-width="0.5" stroke="red" fill="red"/>
   </g>
   <g id="cell129">
  <circle cx="983.348" cy="678.039" r="10.3153" stroke-width="0.5" stroke="black" fill="grey"/>
  <circle cx="983.348" cy="678.039" r="6.23525" stroke-width="0.5" stroke="grey" fill="grey"/>
   </g>
   <g id="cell130">
  <circle cx="904.445" cy="602.28" r="8.41067" stroke-width="0.5" stroke="black" fill="yellow"/>
  <circle cx="904.445" cy="602.28" r="5.05113" stroke-width="0.5" stroke="yellow" fill="yellow"/>
   </g>
   <g id="cell132">
  <circle cx="62.1903" cy="922.8" r="10.1744" stroke-width="0.5" stroke="black" fill="red"/>
  <circle cx="62.1903" cy="922.8" r="6.16119" stroke-width="0.5" stroke="red" fill="red"/>
   </g>
   <g id="cell133">
  <circle cx="656.02" cy="375.476" r="9.1231" stroke-width="0.5" stroke="black" fill="red"/>
  <circle cx="656.02" cy="375.476" r="5.54229" stroke-width="0.5" stroke="red" fill="red"/>
   </g>
   <g id="cell134">
  <circle cx="624.597" cy="436.457" r="2.67372" stroke-width="0.5" stroke="black" fill="grey"/>
  <circle cx="624.597" cy="436.457" r="2.31026" stroke-width="0.5" stroke="black" fill="black"/>
   </g>
   <g id="cell136">
  <circle cx="639.724" cy="442.915" r="9.96254" stroke-width="0.5" stroke="black" fill="red"/>
  <circle cx="639.724" cy="442.915" r="6.04454" stroke-width="0.5" stroke="red" fill="red"/>
   </g>
   <g id="cell137">
  <circle cx="790.64" cy="667.215" r="8.45387" stroke-width="0.5" stroke="black" fill="yellow"/>
  <circle cx="790.64" cy="667.215" r="5.08237" stroke-width="0.5" stroke="yellow" fill="yellow"/>
   </g>
   <g id="cell138">
  <circle cx="730.98" cy="235.587" r="10.3667" stroke-width="0.5" stroke="black" fill="red"/>
  <circle cx="730.98" cy="235.587" r="6.2613" stroke-width="0.5" stroke="red" fill="red"/>
   </g>
   <g id="cell139">
  <circle cx="799.45" cy="749.919" r="8.41043" stroke-width="0.5" stroke="black" fill="yellow"/>
  <circle cx="799.45" cy="749.919" r="5.05106" stroke-width="0.5" stroke="yellow" fill="yellow"/>
   </g>
   <g id="cell140">
  <circle cx="55.8014" cy="329.589" r="10.353" stroke-width="0.5" stroke="black" fill="red"/>
  <circle cx="55.8014" cy="329.589" r="6.25443" stroke-width="0.5" stroke="red" fill="red"/>
   </g>
   <g id="cell141">
  <circle cx="15.0558" cy="984.224" r="10.3309" stroke-width="0.5" stroke="black" fill="yellow"/>
  <circle cx="15.0558" cy="984.224" r="6.24326" stroke-width="0.5" stroke="yellow" fill="yellow"/>
   </g>
   <g id="cell142">
  <circle cx="675.959" cy="670.77" r="8.4103" stroke-width="0.5" stroke="black" fill="red"/>
  <circle cx="675.959" cy="670.77" r="5.05102" stroke-width="0.5" stroke="red" fill="red"/>
   </g>
   <g id="cell143">
  <circle cx="124.196" cy="746.838" r="8.4103" stroke-width="0.5" stroke="black" fill="red"/>
  <circle cx="124.196" cy="746.838" r="5.05102" stroke-width="0.5" stroke="red" fill="red"/>
   </g>
   <g id="cell144">
  <circle cx="645.792" cy="168.064" r="10.2204" stroke-width="0.5" stroke="black" fill="grey"/>
  <circle cx="645.792" cy="168.064" r="6.18581" stroke-width="0.5" stroke="grey" fill="grey"/>
   </g>
   <g id="cell145">
  <circle cx="539.007" cy="523.8" r="8.41016" stroke-width="0.5" stroke="black" fill="red"/>
  <circle cx="539.007" cy="523.8" r="5.05098" stroke-width="0.5" stroke="red" fill="red"/>
   </g>
   <g id="cell146">
  <circle cx="327.307" cy="200.409" r="10.1615" stroke-width="0.5" stroke="black" fill="red"/>
  <circle cx="327.307" cy="200.409" r="6.15437" stroke-width="0.5" stroke="red" fill="red"/>
   </g>
   <g id="cell147">
  <circle cx="659.67" cy="398.982" r="8.54185" stroke-width="0.5" stroke="black" fill="yellow"/>
  <circle cx="659.67" cy="398.982" r="5.14872" stroke-width="0.5" stroke="yellow" fill="yellow"/>
   </g>
   <g id="cell148">
  <circle cx="185.695" cy="773.801" r="10.3382" stroke-width="0.5" stroke="black" fill="grey"/>
  <circle cx="185.695" cy="773.801" r="6.24702" stroke-width="0.5" stroke="grey" fill="grey"/>
   </g>
   <g id="cell149">
  <circle cx="855.044" cy="432.082" r="10.2893" stroke-width="0.5" stroke="black" fill="red"/>
  <circle cx="855.044" cy="432.082" r="6.22194" stroke-width="0.5" stroke="red" fill="red"/>
   </g>
   <g id="cell150">
  <circle cx="164.474" cy="37.0452" r="9.6472" stroke-width="0.5" stroke="black" fill="yellow"/>
  <circle cx="164.474" cy="37.0452" r="5.86265" stroke-width="0.5" stroke="yellow" fill="yellow"/>
   </g>
   <g id="cell151">
  <circle cx="214.745" cy="916.79" r="9.08391" stroke-width="0.5" stroke="black" fill="red"/>
  <circle cx="214.745" cy="916.79" r="5.51761" stroke-width="0.5" stroke="red" fill="red"/>
   </g>
   <g id="cell152">
  <circle cx="582.144" cy="846.499" r="10.2412" stroke-width="0.5" stroke="black" fill="red"/>
  <circle cx="582.144" cy="846.499" r="6.1969" stroke-width="0.5" stroke="red" fill="red"/>
   </g>
   <g id="cell154">
  <circle cx="857.932" cy="21.0255" r="9.59146" stroke-width="0.5" stroke="black" fill="red"/>
  <circle cx="857.932" cy="21.0255" r="5.82969" stroke-width="0.5" stroke="red" fill="red"/>
   </g>
   <g id="cell155">
  <circle cx="648.887" cy="890.344" r="10.1974" stroke-width="0.5" stroke="black" fill="red"/>
  <circle cx="648.887" cy="890.344" r="6.1737" stroke-width="0.5" stroke="red" fill="red"/>
   </g>
   <g id="cell156">
  <circle cx="878.951" cy="511.124" r="10.1483" stroke-width="0.5" stroke="black" fill="grey"/>
  <circle cx="878.951" cy="511.124" r="6.14733" stroke-width="0.5" stroke="grey" fill="grey"/>
   </g>
   <g id="cell157">
  <circle cx="602.176" cy="630.987" r="9.50267" stroke-width="0.5" stroke="black" fill="yellow"/>
  <circle cx="602.176" cy="630.987" r="5.77663" stroke-width="0.5" stroke="yellow" fill="yellow"/>
   </g>
   <g id="cell158">
  <circle cx="163.19" cy="140.34" r="2.83994" stroke-width="0.5" stroke="black" fill="yellow"/>
  <circle cx="163.19" cy="140.34" r="2.55684" stroke-width="0.5" stroke="black" fill="black"/>
   </g>
   <g id="cell159">
  <circle cx="678.932" cy="276.972" r="9.04411" stroke-width="0.5" stroke="black" fill="yellow"/>
  <circle cx="678.932" cy="276.972" r="5.49241" stroke-width="0.5" stroke="yellow" fill="yellow"/>
   </g>
   <g id="cell160">
  <circle cx="619.05" cy="269.398" r="9.61904" stroke-width="0.5" stroke="black" fill="red"/>
  <circle cx="619.05" cy="269.398" r="5.8462" stroke-width="0.5" stroke="red" fill="red"/>
   </g>
   <g id="cell161">
  <circle cx="39.9117" cy="929.436" r="2.22217" stroke-width="0.5" stroke="black" fill="red"/>
  <circle cx="39.9117" cy="929.436" r="2.05009" stroke-width="0.5" stroke="black" fill="black"/>
   </g>
   <g id="cell162">
  <circle cx="848.49" cy="138.054" r="10.1968" stroke-width="0.5" stroke="black" fill="red"/>
  <circle cx="848.49" cy="138.054" r="6.17352" stroke-width="0.5" stroke="red" fill="red"/>
   </g>
   <g id="cell163">
  <circle cx="439.141" cy="961.476" r="10.1729" stroke-width="0.5" stroke="black" fill="red"/>
  <circle cx="439.141" cy="961.476" r="6.16074" stroke-width="0.5" stroke="red" fill="red"/>
   </g>
   <g id="cell164">
  <circle cx="833.421" cy="943.874" r="8.4085" stroke-width="0.5" stroke="black" fill="red"/>
  <circle cx="833.421" cy="943.874" r="5.05047" stroke-width="0.5" stroke="red" fill="red"/>
   </g>
   <g id="cell165">
  <circle cx="842.989" cy="400.473" r="10.1603" stroke-width="0.5" stroke="black" fill="red"/>
  <circle cx="842.989" cy="400.473" r="6.15399" stroke-width="0.5" stroke="red" fill="red"/>
   </g>
   <g id="cell166">
  <circle cx="804.794" cy="530.163" r="10.1474" stroke-width="0.5" stroke="black" fill="yellow"/>
  <circle cx="804.794" cy="530.163" r="6.14704" stroke-width="0.5" stroke="yellow" fill="yellow"/>
   </g>
   <g id="cell167">
  <circle cx="643.692" cy="148.995" r="9.30452" stroke-width="0.5" stroke="black" fill="yellow"/>
  <circle cx="643.692" cy="148.995" r="5.65624" stroke-width="0.5" stroke="yellow" fill="yellow"/>
   </g>
   <g id="cell168">
  <circle cx="957.39" cy="893.088" r="9.9789" stroke-width="0.5" stroke="black" fill="yellow"/>
  <circle cx="957.39" cy="893.088" r="6.05415" stroke-width="0.5" stroke="yellow" fill="yellow"/>
   </g>
   <g id="cell169">
  <circle cx="376.949" cy="960.01" r="9.84042" stroke-width="0.5" stroke="black" fill="yellow"/>
  <circle cx="376.949" cy="960.01" r="5.97556" stroke-width="0.5" stroke="yellow" fill="yellow"/>
   </g>
   <g id="cell170">
  <circle cx="64.2099" cy="988.223" r="8.40788" stroke-width="0.5" stroke="black" fill="red"/>
  <circle cx="64.2099" cy="988.223" r="5.05027" stroke-width="0.5" stroke="red" fill="red"/>
   </g>
   <g id="cell171">
  <circle cx="546.187" cy="375.609" r="9.88279" stroke-width="0.5" stroke="black" fill="red"/>
  <circle cx="546.187" cy="375.609" r="5.9998" stroke-width="0.5" stroke="red" fill="red"/>
   </g>
   <g id="cell172">
  <circle cx="474.095" cy="771.473" r="9.92274" stroke-width="0.5" stroke="black" fill="red"/>
  <circle cx="474.095" cy="771.473" r="6.02253" stroke-width="0.5" stroke="red" fill="red"/>
   </g>
   <g id="cell173">
  <circle cx="938.072" cy="434.696" r="8.4076" stroke-width="0.5" stroke="black" fill="red"/>
  <circle cx="938.072" cy="434.696" r="5.05018" stroke-width="0.5" stroke="red" fill="red"/>
   </g>
   <g id="cell174">
  <circle cx="374.201" cy="102.308" r="8.40731" stroke-width="0.5" stroke="black" fill="yellow"/>
  <circle cx="374.201" cy="102.308" r="5.05008" stroke-width="0.5" stroke="yellow" fill="yellow"/>
   </g>
   <g id="cell175">
  <circle cx="33.2539" cy="308.72" r="9.9784" stroke-width="0.5" stroke="black" fill="yellow"/>
  <circle cx="33.2539" cy="308.72" r="6.05398" stroke-width="0.5" stroke="yellow" fill="yellow"/>
   </g>
   <g id="cell178">
  <circle cx="51.6186" cy="151.801" r="9.79394" stroke-width="0.5" stroke="black" fill="red"/>
  <circle cx="51.6186" cy="151.801" r="5.94917" stroke-width="0.5" stroke="red" fill="red"/>
   </g>
   <g id="cell179">
  <circle cx="33.213" cy="485.384" r="8.40557" stroke-width="0.5" stroke="black" fill="yellow"/>
  <circle cx="33.213" cy="485.384" r="5.04951" stroke-width="0.5" stroke="yellow" fill="yellow"/>
   </g>
   <g id="cell180">
  <circle cx="36.805" cy="676.687" r="8.40537" stroke-width="0.5" stroke="black" fill="yellow"/>
  <circle cx="36.805" cy="676.687" r="5.04944" stroke-width="0.5" stroke="yellow" fill="yellow"/>
   </g>
   <g id="cell181">
  <circle cx="990.664" cy="681.411" r="8.40494" stroke-width="0.5" stroke="black" fill="red"/>
  <circle cx="990.664" cy="681.411" r="5.04929" stroke-width="0.5" stroke="red" fill="red"/>
   </g>
   <g id="cell182">
  <circle cx="516.268" cy="973.742" r="8.40472" stroke-width="0.5" stroke="black" fill="yellow"/>
  <circle cx="516.268" cy="973.742" r="5.04922" stroke-width="0.5" stroke="yellow" fill="yellow"/>
   </g>
   <g id="cell183">
  <circle cx="658.238" cy="850.765" r="8.40472" stroke-width="0.5" stroke="black" fill="red"/>
  <circle cx="658.238" cy="850.765" r="5.04922" stroke-width="0.5" stroke="red" fill="red"/>
   </g>
   <g id="cell187">
  <circle cx="312.675" cy="441.156" r="8.40056" stroke-width="0.5" stroke="black" fill="yellow"/>
  <circle cx="312.675" cy="441.156" r="5.04776" stroke-width="0.5" stroke="yellow" fill="yellow"/>
   </g>
   <g id="cell189">
  <circle cx="780.092" cy="391.586" r="8.83525" stroke-width="0.5" stroke="black" fill="yellow"/>
  <circle cx="780.092" cy="391.586" r="5.35842" stroke-width="0.5" stroke="yellow" fill="yellow"/>
   </g>
   <g id="cell193">
  <circle cx="217.419" cy="653.887" r="8.38682" stroke-width="0.5" stroke="black" fill="red"/>
  <circle cx="217.419" cy="653.887" r="5.04258" stroke-width="0.5" stroke="red" fill="red"/>
   </g>
  </g>
 </g>
  <rect x="775" y="1035" width="200" height="10" stroke-width="2" stroke="rgb(255,255,255)" fill="rgb(0,0,0)"/>
  <text x="781.25" y="1028.75"
   font-family="Arial" font-size="25" fill="black" >
   200 &#956;m
  </text>
  <text x="25" y="1045"
   font-family="Arial" font-size="18.75" fill="black" >
   0 days, 0 hours, 1 minutes, and 49.8516 seconds
  </text>
  <rect x="0" y="70" width="1000" height="1000" stroke-width="2" stroke="rgb(0,0,0)" fill="none"/>
</svg>
