<?xml version="1.0" encoding="UTF-8" standalone="no"?>
<!-- Created with PhysiCell (http://PhysiCell.MathCancer.org/) -->
<svg 
 xmlns:dc="http://purl.org/dc/elements/1.1/" 
 xmlns:cc="http://creativecommons.org/ns#" 
 xmlns:rdf="http://www.w3.org/1999/02/22-rdf-syntax-ns#" 
 xmlns:svg="http://www.w3.org/2000/svg" 
 xmlns="http://www.w3.org/2000/svg" 
 version="1.1" 
 width="1000" 
 height="1070" 
 id="svg2">
  <rect x="0" y="0" width="1000" height="1070" stroke-width="2" stroke="white" fill="white"/>
  <text x="12.5" y="30"
   font-family="Arial" font-size="25" fill="black" >
   Current time: 0 days, 7 hours, and 0.00 minutes, z = 0.00 &#956;m
  </text>
  <text x="12.5" y="57.5"
   font-family="Arial" font-size="23.75" fill="black" >
   120 agents
  </text>
 <g id="tissue" 
    transform="translate(0,1070) scale(1,-1)">
  <g id="ECM">
  </g>
  <g id="cells">
   <g id="cell0">
  <circle cx="516.651" cy="572.072" r="10.211" stroke-width="0.5" stroke="black" fill="grey"/>
  <circle cx="516.651" cy="572.072" r="6.18041" stroke-width="0.5" stroke="grey" fill="grey"/>
   </g>
   <g id="cell1">
  <circle cx="839.837" cy="610.74" r="1.52812" stroke-width="0.5" stroke="black" fill="grey"/>
  <circle cx="839.837" cy="610.74" r="1.50599" stroke-width="0.5" stroke="black" fill="black"/>
   </g>
   <g id="cell2">
  <circle cx="550.341" cy="824.071" r="3.67782" stroke-width="0.5" stroke="black" fill="grey"/>
  <circle cx="550.341" cy="824.071" r="3.02085" stroke-width="0.5" stroke="black" fill="black"/>
   </g>
   <g id="cell3">
  <circle cx="616.649" cy="625.107" r="10.1238" stroke-width="0.5" stroke="black" fill="grey"/>
  <circle cx="616.649" cy="625.107" r="6.13347" stroke-width="0.5" stroke="grey" fill="grey"/>
   </g>
   <g id="cell4">
  <circle cx="415.352" cy="304.555" r="2.84772" stroke-width="0.5" stroke="black" fill="grey"/>
  <circle cx="415.352" cy="304.555" r="2.39601" stroke-width="0.5" stroke="black" fill="black"/>
   </g>
   <g id="cell5">
  <circle cx="85.6087" cy="957.306" r="10.1758" stroke-width="0.5" stroke="black" fill="grey"/>
  <circle cx="85.6087" cy="957.306" r="6.16159" stroke-width="0.5" stroke="grey" fill="grey"/>
   </g>
   <g id="cell6">
  <circle cx="388.489" cy="481.259" r="10.2328" stroke-width="0.5" stroke="black" fill="grey"/>
  <circle cx="388.489" cy="481.259" r="6.19197" stroke-width="0.5" stroke="grey" fill="grey"/>
   </g>
   <g id="cell7">
  <circle cx="831.027" cy="545.147" r="9.82189" stroke-width="0.5" stroke="black" fill="grey"/>
  <circle cx="831.027" cy="545.147" r="5.96395" stroke-width="0.5" stroke="grey" fill="grey"/>
   </g>
   <g id="cell8">
  <circle cx="596.391" cy="413.156" r="9.59391" stroke-width="0.5" stroke="black" fill="grey"/>
  <circle cx="596.391" cy="413.156" r="5.83043" stroke-width="0.5" stroke="grey" fill="grey"/>
   </g>
   <g id="cell9">
  <circle cx="847.148" cy="85.0327" r="1.79449" stroke-width="0.5" stroke="black" fill="grey"/>
  <circle cx="847.148" cy="85.0327" r="1.73665" stroke-width="0.5" stroke="black" fill="black"/>
   </g>
   <g id="cell10">
  <circle cx="112.044" cy="630.907" r="9.96412" stroke-width="0.5" stroke="black" fill="grey"/>
  <circle cx="112.044" cy="630.907" r="6.04499" stroke-width="0.5" stroke="grey" fill="grey"/>
   </g>
   <g id="cell11">
  <circle cx="341.791" cy="841.658" r="9.08642" stroke-width="0.5" stroke="black" fill="grey"/>
  <circle cx="341.791" cy="841.658" r="5.51837" stroke-width="0.5" stroke="grey" fill="grey"/>
   </g>
   <g id="cell12">
  <circle cx="782.392" cy="134.503" r="2.72971" stroke-width="0.5" stroke="black" fill="grey"/>
  <circle cx="782.392" cy="134.503" r="2.33853" stroke-width="0.5" stroke="black" fill="black"/>
   </g>
   <g id="cell13">
  <circle cx="880.851" cy="956.12" r="3.06594" stroke-width="0.5" stroke="black" fill="grey"/>
  <circle cx="880.851" cy="956.12" r="2.56442" stroke-width="0.5" stroke="black" fill="black"/>
   </g>
   <g id="cell14">
  <circle cx="838.103" cy="829.667" r="4.50113" stroke-width="0.5" stroke="black" fill="grey"/>
  <circle cx="838.103" cy="829.667" r="3.35832" stroke-width="0.5" stroke="black" fill="black"/>
   </g>
   <g id="cell15">
  <circle cx="525.275" cy="767.583" r="4.61646" stroke-width="0.5" stroke="black" fill="grey"/>
  <circle cx="525.275" cy="767.583" r="3.39718" stroke-width="0.5" stroke="black" fill="black"/>
   </g>
   <g id="cell16">
  <circle cx="157.825" cy="727.925" r="9.94548" stroke-width="0.5" stroke="black" fill="grey"/>
  <circle cx="157.825" cy="727.925" r="6.03448" stroke-width="0.5" stroke="grey" fill="grey"/>
   </g>
   <g id="cell17">
  <circle cx="576.613" cy="145.199" r="1.74522" stroke-width="0.5" stroke="black" fill="grey"/>
  <circle cx="576.613" cy="145.199" r="1.69589" stroke-width="0.5" stroke="black" fill="black"/>
   </g>
   <g id="cell18">
  <circle cx="929.919" cy="715.446" r="8.41271" stroke-width="0.5" stroke="black" fill="grey"/>
  <circle cx="929.919" cy="715.446" r="5.05167" stroke-width="0.5" stroke="grey" fill="grey"/>
   </g>
   <g id="cell19">
  <circle cx="91.6991" cy="418.138" r="3.08703" stroke-width="0.5" stroke="black" fill="grey"/>
  <circle cx="91.6991" cy="418.138" r="2.55421" stroke-width="0.5" stroke="black" fill="black"/>
   </g>
   <g id="cell20">
  <circle cx="230.03" cy="173.619" r="9.20015" stroke-width="0.5" stroke="black" fill="grey"/>
  <circle cx="230.03" cy="173.619" r="5.59022" stroke-width="0.5" stroke="grey" fill="grey"/>
   </g>
   <g id="cell21">
  <circle cx="724.733" cy="441.273" r="3.45715" stroke-width="0.5" stroke="black" fill="grey"/>
  <circle cx="724.733" cy="441.273" r="2.66266" stroke-width="0.5" stroke="black" fill="black"/>
   </g>
   <g id="cell22">
  <circle cx="565.337" cy="126.183" r="1.60978" stroke-width="0.5" stroke="black" fill="grey"/>
  <circle cx="565.337" cy="126.183" r="1.57926" stroke-width="0.5" stroke="black" fill="black"/>
   </g>
   <g id="cell23">
  <circle cx="303.9" cy="607.146" r="2.58207" stroke-width="0.5" stroke="black" fill="grey"/>
  <circle cx="303.9" cy="607.146" r="2.38967" stroke-width="0.5" stroke="black" fill="black"/>
   </g>
   <g id="cell24">
  <circle cx="613.832" cy="236.656" r="10.1634" stroke-width="0.5" stroke="black" fill="grey"/>
  <circle cx="613.832" cy="236.656" r="6.1549" stroke-width="0.5" stroke="grey" fill="grey"/>
   </g>
   <g id="cell25">
  <circle cx="391.324" cy="976.029" r="2.67334" stroke-width="0.5" stroke="black" fill="grey"/>
  <circle cx="391.324" cy="976.029" r="2.33128" stroke-width="0.5" stroke="black" fill="black"/>
   </g>
   <g id="cell26">
  <circle cx="655.279" cy="470.395" r="10.1098" stroke-width="0.5" stroke="black" fill="grey"/>
  <circle cx="655.279" cy="470.395" r="6.12585" stroke-width="0.5" stroke="grey" fill="grey"/>
   </g>
   <g id="cell27">
  <circle cx="601.791" cy="449.353" r="1.54796" stroke-width="0.5" stroke="black" fill="grey"/>
  <circle cx="601.791" cy="449.353" r="1.52398" stroke-width="0.5" stroke="black" fill="black"/>
   </g>
   <g id="cell28">
  <circle cx="671.804" cy="133.618" r="10.0169" stroke-width="0.5" stroke="black" fill="grey"/>
  <circle cx="671.804" cy="133.618" r="6.07458" stroke-width="0.5" stroke="grey" fill="grey"/>
   </g>
   <g id="cell29">
  <circle cx="969.533" cy="671.288" r="10.1374" stroke-width="0.5" stroke="black" fill="grey"/>
  <circle cx="969.533" cy="671.288" r="6.14084" stroke-width="0.5" stroke="grey" fill="grey"/>
   </g>
   <g id="cell30">
  <circle cx="722.123" cy="168.975" r="8.41271" stroke-width="0.5" stroke="black" fill="grey"/>
  <circle cx="722.123" cy="168.975" r="5.05167" stroke-width="0.5" stroke="grey" fill="grey"/>
   </g>
   <g id="cell31">
  <circle cx="375.673" cy="114.889" r="9.20015" stroke-width="0.5" stroke="black" fill="grey"/>
  <circle cx="375.673" cy="114.889" r="5.59022" stroke-width="0.5" stroke="grey" fill="grey"/>
   </g>
   <g id="cell32">
  <circle cx="319.499" cy="595.194" r="1.78166" stroke-width="0.5" stroke="black" fill="grey"/>
  <circle cx="319.499" cy="595.194" r="1.73182" stroke-width="0.5" stroke="black" fill="black"/>
   </g>
   <g id="cell33">
  <circle cx="310.636" cy="554.328" r="2.74097" stroke-width="0.5" stroke="black" fill="grey"/>
  <circle cx="310.636" cy="554.328" r="2.49713" stroke-width="0.5" stroke="black" fill="black"/>
   </g>
   <g id="cell34">
  <circle cx="435.362" cy="649.251" r="2.42814" stroke-width="0.5" stroke="black" fill="grey"/>
  <circle cx="435.362" cy="649.251" r="2.17648" stroke-width="0.5" stroke="black" fill="black"/>
   </g>
   <g id="cell35">
  <circle cx="933.271" cy="84.0783" r="8.41271" stroke-width="0.5" stroke="black" fill="grey"/>
  <circle cx="933.271" cy="84.0783" r="5.05167" stroke-width="0.5" stroke="grey" fill="grey"/>
   </g>
   <g id="cell36">
  <circle cx="208.916" cy="622.395" r="2.04991" stroke-width="0.5" stroke="black" fill="grey"/>
  <circle cx="208.916" cy="622.395" r="1.93256" stroke-width="0.5" stroke="black" fill="black"/>
   </g>
   <g id="cell37">
  <circle cx="991.105" cy="649.704" r="1.92875" stroke-width="0.5" stroke="black" fill="grey"/>
  <circle cx="991.105" cy="649.704" r="1.8429" stroke-width="0.5" stroke="black" fill="black"/>
   </g>
   <g id="cell38">
  <circle cx="231.522" cy="438.935" r="10.2221" stroke-width="0.5" stroke="black" fill="grey"/>
  <circle cx="231.522" cy="438.935" r="6.18628" stroke-width="0.5" stroke="grey" fill="grey"/>
   </g>
   <g id="cell39">
  <circle cx="496.525" cy="254.099" r="1.92875" stroke-width="0.5" stroke="black" fill="grey"/>
  <circle cx="496.525" cy="254.099" r="1.8429" stroke-width="0.5" stroke="black" fill="black"/>
   </g>
   <g id="cell40">
  <circle cx="169.692" cy="349.536" r="9.86542" stroke-width="0.5" stroke="black" fill="red"/>
  <circle cx="169.692" cy="349.536" r="5.98895" stroke-width="0.5" stroke="red" fill="red"/>
   </g>
   <g id="cell41">
  <circle cx="679.122" cy="675.928" r="10.0336" stroke-width="0.5" stroke="black" fill="red"/>
  <circle cx="679.122" cy="675.928" r="6.08382" stroke-width="0.5" stroke="red" fill="red"/>
   </g>
   <g id="cell42">
  <circle cx="159.133" cy="752.863" r="10.0336" stroke-width="0.5" stroke="black" fill="red"/>
  <circle cx="159.133" cy="752.863" r="6.08382" stroke-width="0.5" stroke="red" fill="red"/>
   </g>
   <g id="cell43">
  <circle cx="941.08" cy="368.395" r="9.37686" stroke-width="0.5" stroke="black" fill="red"/>
  <circle cx="941.08" cy="368.395" r="5.69955" stroke-width="0.5" stroke="red" fill="red"/>
   </g>
   <g id="cell44">
  <circle cx="819.401" cy="9.9944" r="9.84395" stroke-width="0.5" stroke="black" fill="red"/>
  <circle cx="819.401" cy="9.9944" r="5.97665" stroke-width="0.5" stroke="red" fill="red"/>
   </g>
   <g id="cell45">
  <circle cx="635.284" cy="832.439" r="8.7678" stroke-width="0.5" stroke="black" fill="red"/>
  <circle cx="635.284" cy="832.439" r="5.30857" stroke-width="0.5" stroke="red" fill="red"/>
   </g>
   <g id="cell46">
  <circle cx="42.0391" cy="946.515" r="10.1098" stroke-width="0.5" stroke="black" fill="red"/>
  <circle cx="42.0391" cy="946.515" r="6.12585" stroke-width="0.5" stroke="red" fill="red"/>
   </g>
   <g id="cell47">
  <circle cx="889.53" cy="453.013" r="9.94548" stroke-width="0.5" stroke="black" fill="red"/>
  <circle cx="889.53" cy="453.013" r="6.03448" stroke-width="0.5" stroke="red" fill="red"/>
   </g>
   <g id="cell48">
  <circle cx="941.402" cy="35.3072" r="10.1634" stroke-width="0.5" stroke="black" fill="red"/>
  <circle cx="941.402" cy="35.3072" r="6.1549" stroke-width="0.5" stroke="red" fill="red"/>
   </g>
   <g id="cell49">
  <circle cx="470.27" cy="760.223" r="9.41008" stroke-width="0.5" stroke="black" fill="red"/>
  <circle cx="470.27" cy="760.223" r="5.71981" stroke-width="0.5" stroke="red" fill="red"/>
   </g>
   <g id="cell50">
  <circle cx="26.3506" cy="456.139" r="10.2328" stroke-width="0.5" stroke="black" fill="red"/>
  <circle cx="26.3506" cy="456.139" r="6.19197" stroke-width="0.5" stroke="red" fill="red"/>
   </g>
   <g id="cell51">
  <circle cx="975.741" cy="128.141" r="10.1758" stroke-width="0.5" stroke="black" fill="red"/>
  <circle cx="975.741" cy="128.141" r="6.16159" stroke-width="0.5" stroke="red" fill="red"/>
   </g>
   <g id="cell52">
  <circle cx="289.862" cy="499.505" r="4.23297" stroke-width="0.5" stroke="black" fill="red"/>
  <circle cx="289.862" cy="499.505" r="2.99316" stroke-width="0.5" stroke="black" fill="black"/>
   </g>
   <g id="cell53">
  <circle cx="700.49" cy="319.436" r="10.1098" stroke-width="0.5" stroke="black" fill="red"/>
  <circle cx="700.49" cy="319.436" r="6.12585" stroke-width="0.5" stroke="red" fill="red"/>
   </g>
   <g id="cell54">
  <circle cx="443.679" cy="951.532" r="9.59391" stroke-width="0.5" stroke="black" fill="red"/>
  <circle cx="443.679" cy="951.532" r="5.83043" stroke-width="0.5" stroke="red" fill="red"/>
   </g>
   <g id="cell55">
  <circle cx="228.049" cy="696.05" r="8.41271" stroke-width="0.5" stroke="black" fill="red"/>
  <circle cx="228.049" cy="696.05" r="5.05167" stroke-width="0.5" stroke="red" fill="red"/>
   </g>
   <g id="cell56">
  <circle cx="564.21" cy="811.45" r="9.88629" stroke-width="0.5" stroke="black" fill="red"/>
  <circle cx="564.21" cy="811.45" r="6.00088" stroke-width="0.5" stroke="red" fill="red"/>
   </g>
   <g id="cell57">
  <circle cx="482.473" cy="544.935" r="9.99984" stroke-width="0.5" stroke="black" fill="red"/>
  <circle cx="482.473" cy="544.935" r="6.06503" stroke-width="0.5" stroke="red" fill="red"/>
   </g>
   <g id="cell58">
  <circle cx="82.9917" cy="915.182" r="9.62199" stroke-width="0.5" stroke="black" fill="red"/>
  <circle cx="82.9917" cy="915.182" r="5.8471" stroke-width="0.5" stroke="red" fill="red"/>
   </g>
   <g id="cell59">
  <circle cx="85.7717" cy="937.976" r="9.44256" stroke-width="0.5" stroke="black" fill="red"/>
  <circle cx="85.7717" cy="937.976" r="5.73955" stroke-width="0.5" stroke="red" fill="red"/>
   </g>
   <g id="cell60">
  <circle cx="302.646" cy="30.4275" r="9.20015" stroke-width="0.5" stroke="black" fill="red"/>
  <circle cx="302.646" cy="30.4275" r="5.59022" stroke-width="0.5" stroke="red" fill="red"/>
   </g>
   <g id="cell61">
  <circle cx="840.828" cy="139.672" r="9.62199" stroke-width="0.5" stroke="black" fill="red"/>
  <circle cx="840.828" cy="139.672" r="5.8471" stroke-width="0.5" stroke="red" fill="red"/>
   </g>
   <g id="cell62">
  <circle cx="714.47" cy="810.239" r="8.41271" stroke-width="0.5" stroke="black" fill="red"/>
  <circle cx="714.47" cy="810.239" r="5.05167" stroke-width="0.5" stroke="red" fill="red"/>
   </g>
   <g id="cell63">
  <circle cx="285.636" cy="182.226" r="9.96412" stroke-width="0.5" stroke="black" fill="red"/>
  <circle cx="285.636" cy="182.226" r="6.04499" stroke-width="0.5" stroke="red" fill="red"/>
   </g>
   <g id="cell64">
  <circle cx="573.403" cy="534.666" r="8.41271" stroke-width="0.5" stroke="black" fill="red"/>
  <circle cx="573.403" cy="534.666" r="5.05167" stroke-width="0.5" stroke="red" fill="red"/>
   </g>
   <g id="cell65">
  <circle cx="209.026" cy="838.167" r="8.41271" stroke-width="0.5" stroke="black" fill="red"/>
  <circle cx="209.026" cy="838.167" r="5.05167" stroke-width="0.5" stroke="red" fill="red"/>
   </g>
   <g id="cell66">
  <circle cx="17.8573" cy="153.682" r="8.9283" stroke-width="0.5" stroke="black" fill="red"/>
  <circle cx="17.8573" cy="153.682" r="5.4161" stroke-width="0.5" stroke="red" fill="red"/>
   </g>
   <g id="cell67">
  <circle cx="531.285" cy="277.496" r="8.7678" stroke-width="0.5" stroke="black" fill="red"/>
  <circle cx="531.285" cy="277.496" r="5.30857" stroke-width="0.5" stroke="red" fill="red"/>
   </g>
   <g id="cell68">
  <circle cx="730.51" cy="275.489" r="10.0654" stroke-width="0.5" stroke="black" fill="red"/>
  <circle cx="730.51" cy="275.489" r="6.10145" stroke-width="0.5" stroke="red" fill="red"/>
   </g>
   <g id="cell69">
  <circle cx="443.718" cy="283.168" r="9.20015" stroke-width="0.5" stroke="black" fill="red"/>
  <circle cx="443.718" cy="283.168" r="5.59022" stroke-width="0.5" stroke="red" fill="red"/>
   </g>
   <g id="cell70">
  <circle cx="549.555" cy="408.554" r="9.44256" stroke-width="0.5" stroke="black" fill="red"/>
  <circle cx="549.555" cy="408.554" r="5.73955" stroke-width="0.5" stroke="red" fill="red"/>
   </g>
   <g id="cell71">
  <circle cx="897.433" cy="540.057" r="10.1634" stroke-width="0.5" stroke="black" fill="red"/>
  <circle cx="897.433" cy="540.057" r="6.1549" stroke-width="0.5" stroke="red" fill="red"/>
   </g>
   <g id="cell72">
  <circle cx="213.042" cy="889.979" r="9.90658" stroke-width="0.5" stroke="black" fill="red"/>
  <circle cx="213.042" cy="889.979" r="6.01243" stroke-width="0.5" stroke="red" fill="red"/>
   </g>
   <g id="cell73">
  <circle cx="681.794" cy="461.832" r="10.0806" stroke-width="0.5" stroke="black" fill="red"/>
  <circle cx="681.794" cy="461.832" r="6.10985" stroke-width="0.5" stroke="red" fill="red"/>
   </g>
   <g id="cell74">
  <circle cx="829.246" cy="990.245" r="9.59391" stroke-width="0.5" stroke="black" fill="red"/>
  <circle cx="829.246" cy="990.245" r="5.83043" stroke-width="0.5" stroke="red" fill="red"/>
   </g>
   <g id="cell75">
  <circle cx="92.4294" cy="311.393" r="10.0497" stroke-width="0.5" stroke="black" fill="red"/>
  <circle cx="92.4294" cy="311.393" r="6.09278" stroke-width="0.5" stroke="red" fill="red"/>
   </g>
   <g id="cell76">
  <circle cx="801.783" cy="376.07" r="9.53557" stroke-width="0.5" stroke="black" fill="red"/>
  <circle cx="801.783" cy="376.07" r="5.79561" stroke-width="0.5" stroke="red" fill="red"/>
   </g>
   <g id="cell77">
  <circle cx="632.103" cy="861.317" r="9.82189" stroke-width="0.5" stroke="black" fill="red"/>
  <circle cx="632.103" cy="861.317" r="5.96395" stroke-width="0.5" stroke="red" fill="red"/>
   </g>
   <g id="cell78">
  <circle cx="591.738" cy="302.612" r="9.67603" stroke-width="0.5" stroke="black" fill="red"/>
  <circle cx="591.738" cy="302.612" r="5.87901" stroke-width="0.5" stroke="red" fill="red"/>
   </g>
   <g id="cell79">
  <circle cx="977.029" cy="704.014" r="8.80772" stroke-width="0.5" stroke="black" fill="red"/>
  <circle cx="977.029" cy="704.014" r="5.33574" stroke-width="0.5" stroke="red" fill="red"/>
   </g>
   <g id="cell80">
  <circle cx="748.473" cy="674.397" r="8.41271" stroke-width="0.5" stroke="black" fill="yellow"/>
  <circle cx="748.473" cy="674.397" r="5.05167" stroke-width="0.5" stroke="yellow" fill="yellow"/>
   </g>
   <g id="cell81">
  <circle cx="499.855" cy="976.143" r="8.41271" stroke-width="0.5" stroke="black" fill="yellow"/>
  <circle cx="499.855" cy="976.143" r="5.05167" stroke-width="0.5" stroke="yellow" fill="yellow"/>
   </g>
   <g id="cell82">
  <circle cx="663.094" cy="414.459" r="9.94548" stroke-width="0.5" stroke="black" fill="yellow"/>
  <circle cx="663.094" cy="414.459" r="6.03448" stroke-width="0.5" stroke="yellow" fill="yellow"/>
   </g>
   <g id="cell83">
  <circle cx="593.609" cy="582.442" r="9.7992" stroke-width="0.5" stroke="black" fill="yellow"/>
  <circle cx="593.609" cy="582.442" r="5.95086" stroke-width="0.5" stroke="yellow" fill="yellow"/>
   </g>
   <g id="cell84">
  <circle cx="27.7436" cy="463.994" r="8.9283" stroke-width="0.5" stroke="black" fill="yellow"/>
  <circle cx="27.7436" cy="463.994" r="5.4161" stroke-width="0.5" stroke="yellow" fill="yellow"/>
   </g>
   <g id="cell85">
  <circle cx="728.839" cy="661.304" r="10.0806" stroke-width="0.5" stroke="black" fill="yellow"/>
  <circle cx="728.839" cy="661.304" r="6.10985" stroke-width="0.5" stroke="yellow" fill="yellow"/>
   </g>
   <g id="cell86">
  <circle cx="273.175" cy="424.686" r="8.41271" stroke-width="0.5" stroke="black" fill="yellow"/>
  <circle cx="273.175" cy="424.686" r="5.05167" stroke-width="0.5" stroke="yellow" fill="yellow"/>
   </g>
   <g id="cell87">
  <circle cx="752.392" cy="422.57" r="10.211" stroke-width="0.5" stroke="black" fill="yellow"/>
  <circle cx="752.392" cy="422.57" r="6.18041" stroke-width="0.5" stroke="yellow" fill="yellow"/>
   </g>
   <g id="cell88">
  <circle cx="141.642" cy="93.4247" r="9.7273" stroke-width="0.5" stroke="black" fill="yellow"/>
  <circle cx="141.642" cy="93.4247" r="5.90906" stroke-width="0.5" stroke="yellow" fill="yellow"/>
   </g>
   <g id="cell89">
  <circle cx="63.5348" cy="545.498" r="8.48289" stroke-width="0.5" stroke="black" fill="yellow"/>
  <circle cx="63.5348" cy="545.498" r="5.10317" stroke-width="0.5" stroke="yellow" fill="yellow"/>
   </g>
   <g id="cell90">
  <circle cx="576.381" cy="549.137" r="1.52812" stroke-width="0.5" stroke="black" fill="yellow"/>
  <circle cx="576.381" cy="549.137" r="1.50599" stroke-width="0.5" stroke="black" fill="black"/>
   </g>
   <g id="cell91">
  <circle cx="53.3774" cy="637.84" r="8.88811" stroke-width="0.5" stroke="black" fill="yellow"/>
  <circle cx="53.3774" cy="637.84" r="5.38958" stroke-width="0.5" stroke="yellow" fill="yellow"/>
   </g>
   <g id="cell92">
  <circle cx="654.189" cy="282.219" r="9.67603" stroke-width="0.5" stroke="black" fill="yellow"/>
  <circle cx="654.189" cy="282.219" r="5.87901" stroke-width="0.5" stroke="yellow" fill="yellow"/>
   </g>
   <g id="cell93">
  <circle cx="213.577" cy="890.152" r="10.211" stroke-width="0.5" stroke="black" fill="yellow"/>
  <circle cx="213.577" cy="890.152" r="6.18041" stroke-width="0.5" stroke="yellow" fill="yellow"/>
   </g>
   <g id="cell94">
  <circle cx="372.605" cy="63.8359" r="9.30826" stroke-width="0.5" stroke="black" fill="yellow"/>
  <circle cx="372.605" cy="63.8359" r="5.65742" stroke-width="0.5" stroke="yellow" fill="yellow"/>
   </g>
   <g id="cell95">
  <circle cx="950.76" cy="875.682" r="9.4743" stroke-width="0.5" stroke="black" fill="yellow"/>
  <circle cx="950.76" cy="875.682" r="5.75875" stroke-width="0.5" stroke="yellow" fill="yellow"/>
   </g>
   <g id="cell96">
  <circle cx="801.857" cy="534.369" r="9.5053" stroke-width="0.5" stroke="black" fill="yellow"/>
  <circle cx="801.857" cy="534.369" r="5.77744" stroke-width="0.5" stroke="yellow" fill="yellow"/>
   </g>
   <g id="cell97">
  <circle cx="418.103" cy="117.664" r="8.41271" stroke-width="0.5" stroke="black" fill="yellow"/>
  <circle cx="418.103" cy="117.664" r="5.05167" stroke-width="0.5" stroke="yellow" fill="yellow"/>
   </g>
   <g id="cell98">
  <circle cx="945.524" cy="339.501" r="8.51252" stroke-width="0.5" stroke="black" fill="yellow"/>
  <circle cx="945.524" cy="339.501" r="5.12552" stroke-width="0.5" stroke="yellow" fill="yellow"/>
   </g>
   <g id="cell99">
  <circle cx="520.133" cy="978.117" r="8.7678" stroke-width="0.5" stroke="black" fill="yellow"/>
  <circle cx="520.133" cy="978.117" r="5.30857" stroke-width="0.5" stroke="yellow" fill="yellow"/>
   </g>
   <g id="cell100">
  <circle cx="142.167" cy="842.308" r="10.0955" stroke-width="0.5" stroke="black" fill="yellow"/>
  <circle cx="142.167" cy="842.308" r="6.11797" stroke-width="0.5" stroke="yellow" fill="yellow"/>
   </g>
   <g id="cell101">
  <circle cx="77.0434" cy="147.343" r="8.41271" stroke-width="0.5" stroke="black" fill="yellow"/>
  <circle cx="77.0434" cy="147.343" r="5.05167" stroke-width="0.5" stroke="yellow" fill="yellow"/>
   </g>
   <g id="cell102">
  <circle cx="624.692" cy="151.278" r="9.5053" stroke-width="0.5" stroke="black" fill="yellow"/>
  <circle cx="624.692" cy="151.278" r="5.77744" stroke-width="0.5" stroke="yellow" fill="yellow"/>
   </g>
   <g id="cell103">
  <circle cx="801.239" cy="882.474" r="8.41271" stroke-width="0.5" stroke="black" fill="yellow"/>
  <circle cx="801.239" cy="882.474" r="5.05167" stroke-width="0.5" stroke="yellow" fill="yellow"/>
   </g>
   <g id="cell104">
  <circle cx="801.778" cy="419.752" r="10.1879" stroke-width="0.5" stroke="black" fill="yellow"/>
  <circle cx="801.778" cy="419.752" r="6.16807" stroke-width="0.5" stroke="yellow" fill="yellow"/>
   </g>
   <g id="cell105">
  <circle cx="125.489" cy="418.964" r="8.41271" stroke-width="0.5" stroke="black" fill="yellow"/>
  <circle cx="125.489" cy="418.964" r="5.05167" stroke-width="0.5" stroke="yellow" fill="yellow"/>
   </g>
   <g id="cell106">
  <circle cx="13.4982" cy="973.48" r="10.0497" stroke-width="0.5" stroke="black" fill="yellow"/>
  <circle cx="13.4982" cy="973.48" r="6.09278" stroke-width="0.5" stroke="yellow" fill="yellow"/>
   </g>
   <g id="cell107">
  <circle cx="356.415" cy="471.269" r="8.41271" stroke-width="0.5" stroke="black" fill="yellow"/>
  <circle cx="356.415" cy="471.269" r="5.05167" stroke-width="0.5" stroke="yellow" fill="yellow"/>
   </g>
   <g id="cell108">
  <circle cx="705.906" cy="43.9745" r="10.1996" stroke-width="0.5" stroke="black" fill="yellow"/>
  <circle cx="705.906" cy="43.9745" r="6.17434" stroke-width="0.5" stroke="yellow" fill="yellow"/>
   </g>
   <g id="cell109">
  <circle cx="357.335" cy="957.461" r="9.44256" stroke-width="0.5" stroke="black" fill="yellow"/>
  <circle cx="357.335" cy="957.461" r="5.73955" stroke-width="0.5" stroke="yellow" fill="yellow"/>
   </g>
   <g id="cell110">
  <circle cx="853.079" cy="233.978" r="8.41271" stroke-width="0.5" stroke="black" fill="yellow"/>
  <circle cx="853.079" cy="233.978" r="5.05167" stroke-width="0.5" stroke="yellow" fill="yellow"/>
   </g>
   <g id="cell111">
  <circle cx="764.094" cy="383.578" r="8.41271" stroke-width="0.5" stroke="black" fill="yellow"/>
  <circle cx="764.094" cy="383.578" r="5.05167" stroke-width="0.5" stroke="yellow" fill="yellow"/>
   </g>
   <g id="cell112">
  <circle cx="743.246" cy="769.271" r="10.0654" stroke-width="0.5" stroke="black" fill="yellow"/>
  <circle cx="743.246" cy="769.271" r="6.10145" stroke-width="0.5" stroke="yellow" fill="yellow"/>
   </g>
   <g id="cell113">
  <circle cx="347.194" cy="522.062" r="1.65914" stroke-width="0.5" stroke="black" fill="yellow"/>
  <circle cx="347.194" cy="522.062" r="1.62814" stroke-width="0.5" stroke="black" fill="black"/>
   </g>
   <g id="cell114">
  <circle cx="51.099" cy="343.979" r="9.30826" stroke-width="0.5" stroke="black" fill="yellow"/>
  <circle cx="51.099" cy="343.979" r="5.65742" stroke-width="0.5" stroke="yellow" fill="yellow"/>
   </g>
   <g id="cell115">
  <circle cx="181.167" cy="25.8684" r="9.92631" stroke-width="0.5" stroke="black" fill="yellow"/>
  <circle cx="181.167" cy="25.8684" r="6.02363" stroke-width="0.5" stroke="yellow" fill="yellow"/>
   </g>
   <g id="cell116">
  <circle cx="804.009" cy="482.875" r="8.41271" stroke-width="0.5" stroke="black" fill="yellow"/>
  <circle cx="804.009" cy="482.875" r="5.05167" stroke-width="0.5" stroke="yellow" fill="yellow"/>
   </g>
   <g id="cell117">
  <circle cx="889.315" cy="352.52" r="8.41271" stroke-width="0.5" stroke="black" fill="yellow"/>
  <circle cx="889.315" cy="352.52" r="5.05167" stroke-width="0.5" stroke="yellow" fill="yellow"/>
   </g>
   <g id="cell118">
  <circle cx="893.859" cy="592.66" r="10.1238" stroke-width="0.5" stroke="black" fill="yellow"/>
  <circle cx="893.859" cy="592.66" r="6.13347" stroke-width="0.5" stroke="yellow" fill="yellow"/>
   </g>
   <g id="cell119">
  <circle cx="589.199" cy="30.9298" r="8.45606" stroke-width="0.5" stroke="black" fill="yellow"/>
  <circle cx="589.199" cy="30.9298" r="5.08296" stroke-width="0.5" stroke="yellow" fill="yellow"/>
   </g>
  </g>
 </g>
  <rect x="775" y="1035" width="200" height="10" stroke-width="2" stroke="rgb(255,255,255)" fill="rgb(0,0,0)"/>
  <text x="781.25" y="1028.75"
   font-family="Arial" font-size="25" fill="black" >
   200 &#956;m
  </text>
  <text x="25" y="1045"
   font-family="Arial" font-size="18.75" fill="black" >
   0 days, 0 hours, 0 minutes, and 27.8700 seconds
  </text>
  <rect x="0" y="70" width="1000" height="1000" stroke-width="2" stroke="rgb(0,0,0)" fill="none"/>
</svg>
