<?xml version="1.0" encoding="UTF-8" standalone="no"?>
<!-- Created with PhysiCell (http://PhysiCell.MathCancer.org/) -->
<svg 
 xmlns:dc="http://purl.org/dc/elements/1.1/" 
 xmlns:cc="http://creativecommons.org/ns#" 
 xmlns:rdf="http://www.w3.org/1999/02/22-rdf-syntax-ns#" 
 xmlns:svg="http://www.w3.org/2000/svg" 
 xmlns="http://www.w3.org/2000/svg" 
 version="1.1" 
 width="1000" 
 height="1070" 
 id="svg2">
  <rect x="0" y="0" width="1000" height="1070" stroke-width="2" stroke="white" fill="white"/>
  <text x="12.5" y="30"
   font-family="Arial" font-size="25" fill="black" >
   Current time: 0 days, 0 hours, and 30.00 minutes, z = 0.00 &#956;m
  </text>
  <text x="12.5" y="57.5"
   font-family="Arial" font-size="23.75" fill="black" >
   120 agents
  </text>
 <g id="tissue" 
    transform="translate(0,1070) scale(1,-1)">
  <g id="ECM">
  </g>
  <g id="cells">
   <g id="cell0">
  <circle cx="556.871" cy="595.065" r="8.45606" stroke-width="0.5" stroke="black" fill="grey"/>
  <circle cx="556.871" cy="595.065" r="5.08296" stroke-width="0.5" stroke="grey" fill="grey"/>
   </g>
   <g id="cell1">
  <circle cx="842.431" cy="612.856" r="8.41271" stroke-width="0.5" stroke="black" fill="grey"/>
  <circle cx="842.431" cy="612.856" r="5.05167" stroke-width="0.5" stroke="grey" fill="grey"/>
   </g>
   <g id="cell2">
  <circle cx="545.065" cy="849.16" r="8.48289" stroke-width="0.5" stroke="black" fill="grey"/>
  <circle cx="545.065" cy="849.16" r="5.10317" stroke-width="0.5" stroke="grey" fill="grey"/>
   </g>
   <g id="cell3">
  <circle cx="624.876" cy="647.273" r="8.41271" stroke-width="0.5" stroke="black" fill="grey"/>
  <circle cx="624.876" cy="647.273" r="5.05167" stroke-width="0.5" stroke="grey" fill="grey"/>
   </g>
   <g id="cell4">
  <circle cx="444.115" cy="297.435" r="8.41271" stroke-width="0.5" stroke="black" fill="grey"/>
  <circle cx="444.115" cy="297.435" r="5.05167" stroke-width="0.5" stroke="grey" fill="grey"/>
   </g>
   <g id="cell5">
  <circle cx="56.0244" cy="966.195" r="8.41271" stroke-width="0.5" stroke="black" fill="grey"/>
  <circle cx="56.0244" cy="966.195" r="5.05167" stroke-width="0.5" stroke="grey" fill="grey"/>
   </g>
   <g id="cell6">
  <circle cx="378.079" cy="476.027" r="8.51252" stroke-width="0.5" stroke="black" fill="grey"/>
  <circle cx="378.079" cy="476.027" r="5.12552" stroke-width="0.5" stroke="grey" fill="grey"/>
   </g>
   <g id="cell7">
  <circle cx="813.634" cy="527.28" r="8.41271" stroke-width="0.5" stroke="black" fill="grey"/>
  <circle cx="813.634" cy="527.28" r="5.05167" stroke-width="0.5" stroke="grey" fill="grey"/>
   </g>
   <g id="cell8">
  <circle cx="572.984" cy="393.913" r="8.41271" stroke-width="0.5" stroke="black" fill="grey"/>
  <circle cx="572.984" cy="393.913" r="5.05167" stroke-width="0.5" stroke="grey" fill="grey"/>
   </g>
   <g id="cell9">
  <circle cx="840.448" cy="80.7059" r="8.41271" stroke-width="0.5" stroke="black" fill="grey"/>
  <circle cx="840.448" cy="80.7059" r="5.05167" stroke-width="0.5" stroke="grey" fill="grey"/>
   </g>
   <g id="cell10">
  <circle cx="87.8685" cy="647.344" r="8.41271" stroke-width="0.5" stroke="black" fill="grey"/>
  <circle cx="87.8685" cy="647.344" r="5.05167" stroke-width="0.5" stroke="grey" fill="grey"/>
   </g>
   <g id="cell11">
  <circle cx="367.089" cy="827.664" r="8.41271" stroke-width="0.5" stroke="black" fill="grey"/>
  <circle cx="367.089" cy="827.664" r="5.05167" stroke-width="0.5" stroke="grey" fill="grey"/>
   </g>
   <g id="cell12">
  <circle cx="782.459" cy="138.018" r="8.41271" stroke-width="0.5" stroke="black" fill="grey"/>
  <circle cx="782.459" cy="138.018" r="5.05167" stroke-width="0.5" stroke="grey" fill="grey"/>
   </g>
   <g id="cell13">
  <circle cx="866.111" cy="972.34" r="8.41271" stroke-width="0.5" stroke="black" fill="grey"/>
  <circle cx="866.111" cy="972.34" r="5.05167" stroke-width="0.5" stroke="grey" fill="grey"/>
   </g>
   <g id="cell14">
  <circle cx="810.703" cy="807.807" r="8.41271" stroke-width="0.5" stroke="black" fill="grey"/>
  <circle cx="810.703" cy="807.807" r="5.05167" stroke-width="0.5" stroke="grey" fill="grey"/>
   </g>
   <g id="cell15">
  <circle cx="512.617" cy="775.797" r="8.41271" stroke-width="0.5" stroke="black" fill="grey"/>
  <circle cx="512.617" cy="775.797" r="5.05167" stroke-width="0.5" stroke="grey" fill="grey"/>
   </g>
   <g id="cell16">
  <circle cx="119.569" cy="726.5" r="8.41271" stroke-width="0.5" stroke="black" fill="grey"/>
  <circle cx="119.569" cy="726.5" r="5.05167" stroke-width="0.5" stroke="grey" fill="grey"/>
   </g>
   <g id="cell17">
  <circle cx="586.257" cy="143.257" r="8.41271" stroke-width="0.5" stroke="black" fill="grey"/>
  <circle cx="586.257" cy="143.257" r="5.05167" stroke-width="0.5" stroke="grey" fill="grey"/>
   </g>
   <g id="cell18">
  <circle cx="936.283" cy="755.039" r="8.41271" stroke-width="0.5" stroke="black" fill="grey"/>
  <circle cx="936.283" cy="755.039" r="5.05167" stroke-width="0.5" stroke="grey" fill="grey"/>
   </g>
   <g id="cell19">
  <circle cx="107.719" cy="418.739" r="8.41271" stroke-width="0.5" stroke="black" fill="grey"/>
  <circle cx="107.719" cy="418.739" r="5.05167" stroke-width="0.5" stroke="grey" fill="grey"/>
   </g>
   <g id="cell20">
  <circle cx="257.626" cy="188.364" r="8.41271" stroke-width="0.5" stroke="black" fill="grey"/>
  <circle cx="257.626" cy="188.364" r="5.05167" stroke-width="0.5" stroke="grey" fill="grey"/>
   </g>
   <g id="cell21">
  <circle cx="733.734" cy="449.854" r="8.41271" stroke-width="0.5" stroke="black" fill="grey"/>
  <circle cx="733.734" cy="449.854" r="5.05167" stroke-width="0.5" stroke="grey" fill="grey"/>
   </g>
   <g id="cell22">
  <circle cx="561.427" cy="129.934" r="8.41271" stroke-width="0.5" stroke="black" fill="grey"/>
  <circle cx="561.427" cy="129.934" r="5.05167" stroke-width="0.5" stroke="grey" fill="grey"/>
   </g>
   <g id="cell23">
  <circle cx="323.528" cy="618.994" r="8.41271" stroke-width="0.5" stroke="black" fill="grey"/>
  <circle cx="323.528" cy="618.994" r="5.05167" stroke-width="0.5" stroke="grey" fill="grey"/>
   </g>
   <g id="cell24">
  <circle cx="612.45" cy="218.539" r="8.41271" stroke-width="0.5" stroke="black" fill="grey"/>
  <circle cx="612.45" cy="218.539" r="5.05167" stroke-width="0.5" stroke="grey" fill="grey"/>
   </g>
   <g id="cell25">
  <circle cx="383.29" cy="946.985" r="8.41271" stroke-width="0.5" stroke="black" fill="grey"/>
  <circle cx="383.29" cy="946.985" r="5.05167" stroke-width="0.5" stroke="grey" fill="grey"/>
   </g>
   <g id="cell26">
  <circle cx="682.812" cy="456.94" r="8.41271" stroke-width="0.5" stroke="black" fill="grey"/>
  <circle cx="682.812" cy="456.94" r="5.05167" stroke-width="0.5" stroke="grey" fill="grey"/>
   </g>
   <g id="cell27">
  <circle cx="605.163" cy="448.518" r="8.41271" stroke-width="0.5" stroke="black" fill="grey"/>
  <circle cx="605.163" cy="448.518" r="5.05167" stroke-width="0.5" stroke="grey" fill="grey"/>
   </g>
   <g id="cell28">
  <circle cx="694.131" cy="103.936" r="8.41271" stroke-width="0.5" stroke="black" fill="grey"/>
  <circle cx="694.131" cy="103.936" r="5.05167" stroke-width="0.5" stroke="grey" fill="grey"/>
   </g>
   <g id="cell29">
  <circle cx="972.88" cy="663.869" r="8.41271" stroke-width="0.5" stroke="black" fill="grey"/>
  <circle cx="972.88" cy="663.869" r="5.05167" stroke-width="0.5" stroke="grey" fill="grey"/>
   </g>
   <g id="cell30">
  <circle cx="675.978" cy="167.218" r="8.41271" stroke-width="0.5" stroke="black" fill="grey"/>
  <circle cx="675.978" cy="167.218" r="5.05167" stroke-width="0.5" stroke="grey" fill="grey"/>
   </g>
   <g id="cell31">
  <circle cx="356.561" cy="130.215" r="8.41271" stroke-width="0.5" stroke="black" fill="grey"/>
  <circle cx="356.561" cy="130.215" r="5.05167" stroke-width="0.5" stroke="grey" fill="grey"/>
   </g>
   <g id="cell32">
  <circle cx="319.778" cy="601.717" r="8.41271" stroke-width="0.5" stroke="black" fill="grey"/>
  <circle cx="319.778" cy="601.717" r="5.05167" stroke-width="0.5" stroke="grey" fill="grey"/>
   </g>
   <g id="cell33">
  <circle cx="320.845" cy="571.549" r="8.41271" stroke-width="0.5" stroke="black" fill="grey"/>
  <circle cx="320.845" cy="571.549" r="5.05167" stroke-width="0.5" stroke="grey" fill="grey"/>
   </g>
   <g id="cell34">
  <circle cx="441.371" cy="632.624" r="8.41271" stroke-width="0.5" stroke="black" fill="grey"/>
  <circle cx="441.371" cy="632.624" r="5.05167" stroke-width="0.5" stroke="grey" fill="grey"/>
   </g>
   <g id="cell35">
  <circle cx="953.382" cy="101.065" r="8.41271" stroke-width="0.5" stroke="black" fill="grey"/>
  <circle cx="953.382" cy="101.065" r="5.05167" stroke-width="0.5" stroke="grey" fill="grey"/>
   </g>
   <g id="cell36">
  <circle cx="206.019" cy="631.535" r="8.41271" stroke-width="0.5" stroke="black" fill="grey"/>
  <circle cx="206.019" cy="631.535" r="5.05167" stroke-width="0.5" stroke="grey" fill="grey"/>
   </g>
   <g id="cell37">
  <circle cx="992.214" cy="652.932" r="8.41271" stroke-width="0.5" stroke="black" fill="grey"/>
  <circle cx="992.214" cy="652.932" r="5.05167" stroke-width="0.5" stroke="grey" fill="grey"/>
   </g>
   <g id="cell38">
  <circle cx="250.841" cy="407.268" r="8.48289" stroke-width="0.5" stroke="black" fill="grey"/>
  <circle cx="250.841" cy="407.268" r="5.10317" stroke-width="0.5" stroke="grey" fill="grey"/>
   </g>
   <g id="cell39">
  <circle cx="471.065" cy="242.499" r="8.41271" stroke-width="0.5" stroke="black" fill="grey"/>
  <circle cx="471.065" cy="242.499" r="5.05167" stroke-width="0.5" stroke="grey" fill="grey"/>
   </g>
   <g id="cell40">
  <circle cx="165.253" cy="338.924" r="8.41271" stroke-width="0.5" stroke="black" fill="red"/>
  <circle cx="165.253" cy="338.924" r="5.05167" stroke-width="0.5" stroke="red" fill="red"/>
   </g>
   <g id="cell41">
  <circle cx="671.524" cy="664.469" r="8.41271" stroke-width="0.5" stroke="black" fill="red"/>
  <circle cx="671.524" cy="664.469" r="5.05167" stroke-width="0.5" stroke="red" fill="red"/>
   </g>
   <g id="cell42">
  <circle cx="138.901" cy="776.31" r="8.41271" stroke-width="0.5" stroke="black" fill="red"/>
  <circle cx="138.901" cy="776.31" r="5.05167" stroke-width="0.5" stroke="red" fill="red"/>
   </g>
   <g id="cell43">
  <circle cx="947.274" cy="366.061" r="8.41271" stroke-width="0.5" stroke="black" fill="red"/>
  <circle cx="947.274" cy="366.061" r="5.05167" stroke-width="0.5" stroke="red" fill="red"/>
   </g>
   <g id="cell44">
  <circle cx="826.551" cy="16.4835" r="8.41271" stroke-width="0.5" stroke="black" fill="red"/>
  <circle cx="826.551" cy="16.4835" r="5.05167" stroke-width="0.5" stroke="red" fill="red"/>
   </g>
   <g id="cell45">
  <circle cx="621.106" cy="836.706" r="8.41271" stroke-width="0.5" stroke="black" fill="red"/>
  <circle cx="621.106" cy="836.706" r="5.05167" stroke-width="0.5" stroke="red" fill="red"/>
   </g>
   <g id="cell46">
  <circle cx="88.1248" cy="969.171" r="8.41271" stroke-width="0.5" stroke="black" fill="red"/>
  <circle cx="88.1248" cy="969.171" r="5.05167" stroke-width="0.5" stroke="red" fill="red"/>
   </g>
   <g id="cell47">
  <circle cx="887.87" cy="465.757" r="8.41271" stroke-width="0.5" stroke="black" fill="red"/>
  <circle cx="887.87" cy="465.757" r="5.05167" stroke-width="0.5" stroke="red" fill="red"/>
   </g>
   <g id="cell48">
  <circle cx="975.289" cy="54.0889" r="8.41271" stroke-width="0.5" stroke="black" fill="red"/>
  <circle cx="975.289" cy="54.0889" r="5.05167" stroke-width="0.5" stroke="red" fill="red"/>
   </g>
   <g id="cell49">
  <circle cx="449.722" cy="740.394" r="8.41271" stroke-width="0.5" stroke="black" fill="red"/>
  <circle cx="449.722" cy="740.394" r="5.05167" stroke-width="0.5" stroke="red" fill="red"/>
   </g>
   <g id="cell50">
  <circle cx="39.1082" cy="440.589" r="8.51252" stroke-width="0.5" stroke="black" fill="red"/>
  <circle cx="39.1082" cy="440.589" r="5.12552" stroke-width="0.5" stroke="red" fill="red"/>
   </g>
   <g id="cell51">
  <circle cx="976.052" cy="113.304" r="8.41271" stroke-width="0.5" stroke="black" fill="red"/>
  <circle cx="976.052" cy="113.304" r="5.05167" stroke-width="0.5" stroke="red" fill="red"/>
   </g>
   <g id="cell52">
  <circle cx="306.401" cy="480.166" r="8.41271" stroke-width="0.5" stroke="black" fill="red"/>
  <circle cx="306.401" cy="480.166" r="5.05167" stroke-width="0.5" stroke="red" fill="red"/>
   </g>
   <g id="cell53">
  <circle cx="695.865" cy="312.831" r="8.41271" stroke-width="0.5" stroke="black" fill="red"/>
  <circle cx="695.865" cy="312.831" r="5.05167" stroke-width="0.5" stroke="red" fill="red"/>
   </g>
   <g id="cell54">
  <circle cx="414.311" cy="917.167" r="8.41271" stroke-width="0.5" stroke="black" fill="red"/>
  <circle cx="414.311" cy="917.167" r="5.05167" stroke-width="0.5" stroke="red" fill="red"/>
   </g>
   <g id="cell55">
  <circle cx="209.559" cy="693.33" r="8.41271" stroke-width="0.5" stroke="black" fill="red"/>
  <circle cx="209.559" cy="693.33" r="5.05167" stroke-width="0.5" stroke="red" fill="red"/>
   </g>
   <g id="cell56">
  <circle cx="561.543" cy="860.678" r="8.41271" stroke-width="0.5" stroke="black" fill="red"/>
  <circle cx="561.543" cy="860.678" r="5.05167" stroke-width="0.5" stroke="red" fill="red"/>
   </g>
   <g id="cell57">
  <circle cx="515.298" cy="528.861" r="8.41271" stroke-width="0.5" stroke="black" fill="red"/>
  <circle cx="515.298" cy="528.861" r="5.05167" stroke-width="0.5" stroke="red" fill="red"/>
   </g>
   <g id="cell58">
  <circle cx="101.932" cy="925.943" r="8.41271" stroke-width="0.5" stroke="black" fill="red"/>
  <circle cx="101.932" cy="925.943" r="5.05167" stroke-width="0.5" stroke="red" fill="red"/>
   </g>
   <g id="cell59">
  <circle cx="88.9695" cy="926.708" r="8.41271" stroke-width="0.5" stroke="black" fill="red"/>
  <circle cx="88.9695" cy="926.708" r="5.05167" stroke-width="0.5" stroke="red" fill="red"/>
   </g>
   <g id="cell60">
  <circle cx="318.726" cy="9.20943" r="8.41271" stroke-width="0.5" stroke="black" fill="red"/>
  <circle cx="318.726" cy="9.20943" r="5.05167" stroke-width="0.5" stroke="red" fill="red"/>
   </g>
   <g id="cell61">
  <circle cx="848.42" cy="139.967" r="8.41271" stroke-width="0.5" stroke="black" fill="red"/>
  <circle cx="848.42" cy="139.967" r="5.05167" stroke-width="0.5" stroke="red" fill="red"/>
   </g>
   <g id="cell62">
  <circle cx="724.156" cy="834.95" r="8.41271" stroke-width="0.5" stroke="black" fill="red"/>
  <circle cx="724.156" cy="834.95" r="5.05167" stroke-width="0.5" stroke="red" fill="red"/>
   </g>
   <g id="cell63">
  <circle cx="270.406" cy="178.44" r="8.41271" stroke-width="0.5" stroke="black" fill="red"/>
  <circle cx="270.406" cy="178.44" r="5.05167" stroke-width="0.5" stroke="red" fill="red"/>
   </g>
   <g id="cell64">
  <circle cx="584.302" cy="553.511" r="8.41271" stroke-width="0.5" stroke="black" fill="red"/>
  <circle cx="584.302" cy="553.511" r="5.05167" stroke-width="0.5" stroke="red" fill="red"/>
   </g>
   <g id="cell65">
  <circle cx="164.019" cy="834.706" r="8.41271" stroke-width="0.5" stroke="black" fill="red"/>
  <circle cx="164.019" cy="834.706" r="5.05167" stroke-width="0.5" stroke="red" fill="red"/>
   </g>
   <g id="cell66">
  <circle cx="14.5224" cy="148.841" r="8.41271" stroke-width="0.5" stroke="black" fill="red"/>
  <circle cx="14.5224" cy="148.841" r="5.05167" stroke-width="0.5" stroke="red" fill="red"/>
   </g>
   <g id="cell67">
  <circle cx="561.304" cy="266.088" r="8.41271" stroke-width="0.5" stroke="black" fill="red"/>
  <circle cx="561.304" cy="266.088" r="5.05167" stroke-width="0.5" stroke="red" fill="red"/>
   </g>
   <g id="cell68">
  <circle cx="738.418" cy="282.482" r="8.41271" stroke-width="0.5" stroke="black" fill="red"/>
  <circle cx="738.418" cy="282.482" r="5.05167" stroke-width="0.5" stroke="red" fill="red"/>
   </g>
   <g id="cell69">
  <circle cx="436.575" cy="256.463" r="8.41271" stroke-width="0.5" stroke="black" fill="red"/>
  <circle cx="436.575" cy="256.463" r="5.05167" stroke-width="0.5" stroke="red" fill="red"/>
   </g>
   <g id="cell70">
  <circle cx="572.398" cy="392.68" r="8.41271" stroke-width="0.5" stroke="black" fill="red"/>
  <circle cx="572.398" cy="392.68" r="5.05167" stroke-width="0.5" stroke="red" fill="red"/>
   </g>
   <g id="cell71">
  <circle cx="887.02" cy="567.942" r="8.41271" stroke-width="0.5" stroke="black" fill="red"/>
  <circle cx="887.02" cy="567.942" r="5.05167" stroke-width="0.5" stroke="red" fill="red"/>
   </g>
   <g id="cell72">
  <circle cx="222.888" cy="886.999" r="8.41271" stroke-width="0.5" stroke="black" fill="red"/>
  <circle cx="222.888" cy="886.999" r="5.05167" stroke-width="0.5" stroke="red" fill="red"/>
   </g>
   <g id="cell73">
  <circle cx="684.753" cy="438.702" r="8.41271" stroke-width="0.5" stroke="black" fill="red"/>
  <circle cx="684.753" cy="438.702" r="5.05167" stroke-width="0.5" stroke="red" fill="red"/>
   </g>
   <g id="cell74">
  <circle cx="840.256" cy="981.49" r="8.41271" stroke-width="0.5" stroke="black" fill="red"/>
  <circle cx="840.256" cy="981.49" r="5.05167" stroke-width="0.5" stroke="red" fill="red"/>
   </g>
   <g id="cell75">
  <circle cx="109.289" cy="297.443" r="8.41271" stroke-width="0.5" stroke="black" fill="red"/>
  <circle cx="109.289" cy="297.443" r="5.05167" stroke-width="0.5" stroke="red" fill="red"/>
   </g>
   <g id="cell76">
  <circle cx="816.934" cy="407.307" r="8.41271" stroke-width="0.5" stroke="black" fill="red"/>
  <circle cx="816.934" cy="407.307" r="5.05167" stroke-width="0.5" stroke="red" fill="red"/>
   </g>
   <g id="cell77">
  <circle cx="668.838" cy="877.783" r="8.41271" stroke-width="0.5" stroke="black" fill="red"/>
  <circle cx="668.838" cy="877.783" r="5.05167" stroke-width="0.5" stroke="red" fill="red"/>
   </g>
   <g id="cell78">
  <circle cx="582.613" cy="308.336" r="8.41271" stroke-width="0.5" stroke="black" fill="red"/>
  <circle cx="582.613" cy="308.336" r="5.05167" stroke-width="0.5" stroke="red" fill="red"/>
   </g>
   <g id="cell79">
  <circle cx="972.255" cy="686.028" r="8.41271" stroke-width="0.5" stroke="black" fill="red"/>
  <circle cx="972.255" cy="686.028" r="5.05167" stroke-width="0.5" stroke="red" fill="red"/>
   </g>
   <g id="cell80">
  <circle cx="733.64" cy="658.971" r="8.41271" stroke-width="0.5" stroke="black" fill="yellow"/>
  <circle cx="733.64" cy="658.971" r="5.05167" stroke-width="0.5" stroke="yellow" fill="yellow"/>
   </g>
   <g id="cell81">
  <circle cx="529.897" cy="953.924" r="8.41271" stroke-width="0.5" stroke="black" fill="yellow"/>
  <circle cx="529.897" cy="953.924" r="5.05167" stroke-width="0.5" stroke="yellow" fill="yellow"/>
   </g>
   <g id="cell82">
  <circle cx="648.807" cy="398.266" r="8.41271" stroke-width="0.5" stroke="black" fill="yellow"/>
  <circle cx="648.807" cy="398.266" r="5.05167" stroke-width="0.5" stroke="yellow" fill="yellow"/>
   </g>
   <g id="cell83">
  <circle cx="614.426" cy="608.342" r="8.41271" stroke-width="0.5" stroke="black" fill="yellow"/>
  <circle cx="614.426" cy="608.342" r="5.05167" stroke-width="0.5" stroke="yellow" fill="yellow"/>
   </g>
   <g id="cell84">
  <circle cx="22.6746" cy="473.488" r="8.41271" stroke-width="0.5" stroke="black" fill="yellow"/>
  <circle cx="22.6746" cy="473.488" r="5.05167" stroke-width="0.5" stroke="yellow" fill="yellow"/>
   </g>
   <g id="cell85">
  <circle cx="716.175" cy="658.047" r="8.41271" stroke-width="0.5" stroke="black" fill="yellow"/>
  <circle cx="716.175" cy="658.047" r="5.05167" stroke-width="0.5" stroke="yellow" fill="yellow"/>
   </g>
   <g id="cell86">
  <circle cx="285.802" cy="378.749" r="8.41271" stroke-width="0.5" stroke="black" fill="yellow"/>
  <circle cx="285.802" cy="378.749" r="5.05167" stroke-width="0.5" stroke="yellow" fill="yellow"/>
   </g>
   <g id="cell87">
  <circle cx="754.935" cy="433.237" r="8.45606" stroke-width="0.5" stroke="black" fill="yellow"/>
  <circle cx="754.935" cy="433.237" r="5.08296" stroke-width="0.5" stroke="yellow" fill="yellow"/>
   </g>
   <g id="cell88">
  <circle cx="141.177" cy="101.911" r="8.41271" stroke-width="0.5" stroke="black" fill="yellow"/>
  <circle cx="141.177" cy="101.911" r="5.05167" stroke-width="0.5" stroke="yellow" fill="yellow"/>
   </g>
   <g id="cell89">
  <circle cx="88.5693" cy="558.105" r="8.41271" stroke-width="0.5" stroke="black" fill="yellow"/>
  <circle cx="88.5693" cy="558.105" r="5.05167" stroke-width="0.5" stroke="yellow" fill="yellow"/>
   </g>
   <g id="cell90">
  <circle cx="578.242" cy="552.582" r="8.41271" stroke-width="0.5" stroke="black" fill="yellow"/>
  <circle cx="578.242" cy="552.582" r="5.05167" stroke-width="0.5" stroke="yellow" fill="yellow"/>
   </g>
   <g id="cell91">
  <circle cx="37.2341" cy="656.098" r="8.41271" stroke-width="0.5" stroke="black" fill="yellow"/>
  <circle cx="37.2341" cy="656.098" r="5.05167" stroke-width="0.5" stroke="yellow" fill="yellow"/>
   </g>
   <g id="cell92">
  <circle cx="654.344" cy="317.038" r="8.41271" stroke-width="0.5" stroke="black" fill="yellow"/>
  <circle cx="654.344" cy="317.038" r="5.05167" stroke-width="0.5" stroke="yellow" fill="yellow"/>
   </g>
   <g id="cell93">
  <circle cx="212.01" cy="904.762" r="8.45606" stroke-width="0.5" stroke="black" fill="yellow"/>
  <circle cx="212.01" cy="904.762" r="5.08296" stroke-width="0.5" stroke="yellow" fill="yellow"/>
   </g>
   <g id="cell94">
  <circle cx="372.965" cy="90.9129" r="8.41271" stroke-width="0.5" stroke="black" fill="yellow"/>
  <circle cx="372.965" cy="90.9129" r="5.05167" stroke-width="0.5" stroke="yellow" fill="yellow"/>
   </g>
   <g id="cell95">
  <circle cx="989.252" cy="882.346" r="8.41271" stroke-width="0.5" stroke="black" fill="yellow"/>
  <circle cx="989.252" cy="882.346" r="5.05167" stroke-width="0.5" stroke="yellow" fill="yellow"/>
   </g>
   <g id="cell96">
  <circle cx="803.977" cy="531.861" r="8.41271" stroke-width="0.5" stroke="black" fill="yellow"/>
  <circle cx="803.977" cy="531.861" r="5.05167" stroke-width="0.5" stroke="yellow" fill="yellow"/>
   </g>
   <g id="cell97">
  <circle cx="447.87" cy="103.111" r="8.41271" stroke-width="0.5" stroke="black" fill="yellow"/>
  <circle cx="447.87" cy="103.111" r="5.05167" stroke-width="0.5" stroke="yellow" fill="yellow"/>
   </g>
   <g id="cell98">
  <circle cx="925.63" cy="358.3" r="8.41271" stroke-width="0.5" stroke="black" fill="yellow"/>
  <circle cx="925.63" cy="358.3" r="5.05167" stroke-width="0.5" stroke="yellow" fill="yellow"/>
   </g>
   <g id="cell99">
  <circle cx="463.856" cy="992.372" r="8.41271" stroke-width="0.5" stroke="black" fill="yellow"/>
  <circle cx="463.856" cy="992.372" r="5.05167" stroke-width="0.5" stroke="yellow" fill="yellow"/>
   </g>
   <g id="cell100">
  <circle cx="150.308" cy="896.496" r="8.41271" stroke-width="0.5" stroke="black" fill="yellow"/>
  <circle cx="150.308" cy="896.496" r="5.05167" stroke-width="0.5" stroke="yellow" fill="yellow"/>
   </g>
   <g id="cell101">
  <circle cx="34.2821" cy="162.579" r="8.41271" stroke-width="0.5" stroke="black" fill="yellow"/>
  <circle cx="34.2821" cy="162.579" r="5.05167" stroke-width="0.5" stroke="yellow" fill="yellow"/>
   </g>
   <g id="cell102">
  <circle cx="613.503" cy="160.87" r="8.41271" stroke-width="0.5" stroke="black" fill="yellow"/>
  <circle cx="613.503" cy="160.87" r="5.05167" stroke-width="0.5" stroke="yellow" fill="yellow"/>
   </g>
   <g id="cell103">
  <circle cx="786.993" cy="855.45" r="8.41271" stroke-width="0.5" stroke="black" fill="yellow"/>
  <circle cx="786.993" cy="855.45" r="5.05167" stroke-width="0.5" stroke="yellow" fill="yellow"/>
   </g>
   <g id="cell104">
  <circle cx="814.786" cy="418.091" r="8.41271" stroke-width="0.5" stroke="black" fill="yellow"/>
  <circle cx="814.786" cy="418.091" r="5.05167" stroke-width="0.5" stroke="yellow" fill="yellow"/>
   </g>
   <g id="cell105">
  <circle cx="139.619" cy="408.572" r="8.41271" stroke-width="0.5" stroke="black" fill="yellow"/>
  <circle cx="139.619" cy="408.572" r="5.05167" stroke-width="0.5" stroke="yellow" fill="yellow"/>
   </g>
   <g id="cell106">
  <circle cx="65.1624" cy="982.035" r="8.41271" stroke-width="0.5" stroke="black" fill="yellow"/>
  <circle cx="65.1624" cy="982.035" r="5.05167" stroke-width="0.5" stroke="yellow" fill="yellow"/>
   </g>
   <g id="cell107">
  <circle cx="365.972" cy="454.536" r="8.41271" stroke-width="0.5" stroke="black" fill="yellow"/>
  <circle cx="365.972" cy="454.536" r="5.05167" stroke-width="0.5" stroke="yellow" fill="yellow"/>
   </g>
   <g id="cell108">
  <circle cx="725.316" cy="48.4366" r="8.4325" stroke-width="0.5" stroke="black" fill="yellow"/>
  <circle cx="725.316" cy="48.4366" r="5.06552" stroke-width="0.5" stroke="yellow" fill="yellow"/>
   </g>
   <g id="cell109">
  <circle cx="370.884" cy="965.834" r="8.41271" stroke-width="0.5" stroke="black" fill="yellow"/>
  <circle cx="370.884" cy="965.834" r="5.05167" stroke-width="0.5" stroke="yellow" fill="yellow"/>
   </g>
   <g id="cell110">
  <circle cx="852.079" cy="224.902" r="8.41271" stroke-width="0.5" stroke="black" fill="yellow"/>
  <circle cx="852.079" cy="224.902" r="5.05167" stroke-width="0.5" stroke="yellow" fill="yellow"/>
   </g>
   <g id="cell111">
  <circle cx="768.55" cy="352.534" r="8.41271" stroke-width="0.5" stroke="black" fill="yellow"/>
  <circle cx="768.55" cy="352.534" r="5.05167" stroke-width="0.5" stroke="yellow" fill="yellow"/>
   </g>
   <g id="cell112">
  <circle cx="729.765" cy="751.989" r="8.41271" stroke-width="0.5" stroke="black" fill="yellow"/>
  <circle cx="729.765" cy="751.989" r="5.05167" stroke-width="0.5" stroke="yellow" fill="yellow"/>
   </g>
   <g id="cell113">
  <circle cx="343.518" cy="522.389" r="8.41271" stroke-width="0.5" stroke="black" fill="yellow"/>
  <circle cx="343.518" cy="522.389" r="5.05167" stroke-width="0.5" stroke="yellow" fill="yellow"/>
   </g>
   <g id="cell114">
  <circle cx="56.3704" cy="342.097" r="8.41271" stroke-width="0.5" stroke="black" fill="yellow"/>
  <circle cx="56.3704" cy="342.097" r="5.05167" stroke-width="0.5" stroke="yellow" fill="yellow"/>
   </g>
   <g id="cell115">
  <circle cx="177.164" cy="13.6945" r="8.41271" stroke-width="0.5" stroke="black" fill="yellow"/>
  <circle cx="177.164" cy="13.6945" r="5.05167" stroke-width="0.5" stroke="yellow" fill="yellow"/>
   </g>
   <g id="cell116">
  <circle cx="794.12" cy="466.208" r="8.41271" stroke-width="0.5" stroke="black" fill="yellow"/>
  <circle cx="794.12" cy="466.208" r="5.05167" stroke-width="0.5" stroke="yellow" fill="yellow"/>
   </g>
   <g id="cell117">
  <circle cx="870.67" cy="342.2" r="8.41271" stroke-width="0.5" stroke="black" fill="yellow"/>
  <circle cx="870.67" cy="342.2" r="5.05167" stroke-width="0.5" stroke="yellow" fill="yellow"/>
   </g>
   <g id="cell118">
  <circle cx="930.07" cy="615.139" r="8.41271" stroke-width="0.5" stroke="black" fill="yellow"/>
  <circle cx="930.07" cy="615.139" r="5.05167" stroke-width="0.5" stroke="yellow" fill="yellow"/>
   </g>
   <g id="cell119">
  <circle cx="587.115" cy="24.7162" r="8.41271" stroke-width="0.5" stroke="black" fill="yellow"/>
  <circle cx="587.115" cy="24.7162" r="5.05167" stroke-width="0.5" stroke="yellow" fill="yellow"/>
   </g>
  </g>
 </g>
  <rect x="775" y="1035" width="200" height="10" stroke-width="2" stroke="rgb(255,255,255)" fill="rgb(0,0,0)"/>
  <text x="781.25" y="1028.75"
   font-family="Arial" font-size="25" fill="black" >
   200 &#956;m
  </text>
  <text x="25" y="1045"
   font-family="Arial" font-size="18.75" fill="black" >
   0 days, 0 hours, 0 minutes, and 1.6873 seconds
  </text>
  <rect x="0" y="70" width="1000" height="1000" stroke-width="2" stroke="rgb(0,0,0)" fill="none"/>
</svg>
