<?xml version="1.0" encoding="UTF-8" standalone="no"?>
<!-- Created with PhysiCell (http://PhysiCell.MathCancer.org/) -->
<svg 
 xmlns:dc="http://purl.org/dc/elements/1.1/" 
 xmlns:cc="http://creativecommons.org/ns#" 
 xmlns:rdf="http://www.w3.org/1999/02/22-rdf-syntax-ns#" 
 xmlns:svg="http://www.w3.org/2000/svg" 
 xmlns="http://www.w3.org/2000/svg" 
 version="1.1" 
 width="1000" 
 height="1070" 
 id="svg2">
  <rect x="0" y="0" width="1000" height="1070" stroke-width="2" stroke="white" fill="white"/>
  <text x="12.5" y="30"
   font-family="Arial" font-size="25" fill="black" >
   Current time: 0 days, 17 hours, and 0.00 minutes, z = 0.00 &#956;m
  </text>
  <text x="12.5" y="57.5"
   font-family="Arial" font-size="23.75" fill="black" >
   119 agents
  </text>
 <g id="tissue" 
    transform="translate(0,1070) scale(1,-1)">
  <g id="ECM">
  </g>
  <g id="cells">
   <g id="cell0">
  <circle cx="512.39" cy="630.619" r="8.63427" stroke-width="0.5" stroke="black" fill="grey"/>
  <circle cx="512.39" cy="630.619" r="5.22131" stroke-width="0.5" stroke="grey" fill="grey"/>
   </g>
   <g id="cell118">
  <circle cx="874.249" cy="613.195" r="8.39083" stroke-width="0.5" stroke="black" fill="yellow"/>
  <circle cx="874.249" cy="613.195" r="5.04414" stroke-width="0.5" stroke="yellow" fill="yellow"/>
   </g>
   <g id="cell100">
  <circle cx="134.724" cy="826.397" r="8.52211" stroke-width="0.5" stroke="black" fill="yellow"/>
  <circle cx="134.724" cy="826.397" r="5.14159" stroke-width="0.5" stroke="yellow" fill="yellow"/>
   </g>
   <g id="cell3">
  <circle cx="617.569" cy="592.567" r="8.39083" stroke-width="0.5" stroke="black" fill="grey"/>
  <circle cx="617.569" cy="592.567" r="5.04414" stroke-width="0.5" stroke="grey" fill="grey"/>
   </g>
   <g id="cell103">
  <circle cx="832.551" cy="839.76" r="9.53557" stroke-width="0.5" stroke="black" fill="yellow"/>
  <circle cx="832.551" cy="839.76" r="5.79561" stroke-width="0.5" stroke="yellow" fill="yellow"/>
   </g>
   <g id="cell135">
  <circle cx="145.508" cy="831.12" r="8.38957" stroke-width="0.5" stroke="black" fill="yellow"/>
  <circle cx="145.508" cy="831.12" r="5.04365" stroke-width="0.5" stroke="yellow" fill="yellow"/>
   </g>
   <g id="cell6">
  <circle cx="385.987" cy="484.758" r="2.74757" stroke-width="0.5" stroke="black" fill="grey"/>
  <circle cx="385.987" cy="484.758" r="2.5481" stroke-width="0.5" stroke="black" fill="black"/>
   </g>
   <g id="cell7">
  <circle cx="883.7" cy="516.7" r="10.5549" stroke-width="0.5" stroke="black" fill="grey"/>
  <circle cx="883.7" cy="516.7" r="6.34851" stroke-width="0.5" stroke="grey" fill="grey"/>
   </g>
   <g id="cell8">
  <circle cx="587.455" cy="419.288" r="5.0964" stroke-width="0.5" stroke="black" fill="grey"/>
  <circle cx="587.455" cy="419.288" r="3.66768" stroke-width="0.5" stroke="black" fill="black"/>
   </g>
   <g id="cell112">
  <circle cx="775.602" cy="741.006" r="8.38823" stroke-width="0.5" stroke="black" fill="yellow"/>
  <circle cx="775.602" cy="741.006" r="5.04313" stroke-width="0.5" stroke="yellow" fill="yellow"/>
   </g>
   <g id="cell10">
  <circle cx="134.269" cy="642.6" r="2.24615" stroke-width="0.5" stroke="black" fill="grey"/>
  <circle cx="134.269" cy="642.6" r="2.17481" stroke-width="0.5" stroke="black" fill="black"/>
   </g>
   <g id="cell11">
  <circle cx="330.059" cy="826.206" r="2.81513" stroke-width="0.5" stroke="black" fill="grey"/>
  <circle cx="330.059" cy="826.206" r="2.58759" stroke-width="0.5" stroke="black" fill="black"/>
   </g>
   <g id="cell104">
  <circle cx="762.93" cy="373.676" r="8.3937" stroke-width="0.5" stroke="black" fill="yellow"/>
  <circle cx="762.93" cy="373.676" r="5.04523" stroke-width="0.5" stroke="yellow" fill="yellow"/>
   </g>
   <g id="cell102">
  <circle cx="620.774" cy="170.969" r="10.537" stroke-width="0.5" stroke="black" fill="yellow"/>
  <circle cx="620.774" cy="170.969" r="6.34103" stroke-width="0.5" stroke="yellow" fill="yellow"/>
   </g>
   <g id="cell98">
  <circle cx="913.007" cy="371.292" r="10.4651" stroke-width="0.5" stroke="black" fill="yellow"/>
  <circle cx="913.007" cy="371.292" r="6.30877" stroke-width="0.5" stroke="yellow" fill="yellow"/>
   </g>
   <g id="cell97">
  <circle cx="423.971" cy="119.092" r="10.4048" stroke-width="0.5" stroke="black" fill="yellow"/>
  <circle cx="423.971" cy="119.092" r="6.27981" stroke-width="0.5" stroke="yellow" fill="yellow"/>
   </g>
   <g id="cell16">
  <circle cx="154.181" cy="750.136" r="10.5618" stroke-width="0.5" stroke="black" fill="grey"/>
  <circle cx="154.181" cy="750.136" r="6.3513" stroke-width="0.5" stroke="grey" fill="grey"/>
   </g>
   <g id="cell116">
  <circle cx="823.593" cy="443.884" r="10.3545" stroke-width="0.5" stroke="black" fill="yellow"/>
  <circle cx="823.593" cy="443.884" r="6.25485" stroke-width="0.5" stroke="yellow" fill="yellow"/>
   </g>
   <g id="cell18">
  <circle cx="959.432" cy="705.774" r="2.10938" stroke-width="0.5" stroke="black" fill="grey"/>
  <circle cx="959.432" cy="705.774" r="2.05203" stroke-width="0.5" stroke="black" fill="black"/>
   </g>
   <g id="cell101">
  <circle cx="104.402" cy="140.034" r="9.99984" stroke-width="0.5" stroke="black" fill="yellow"/>
  <circle cx="104.402" cy="140.034" r="6.06503" stroke-width="0.5" stroke="yellow" fill="yellow"/>
   </g>
   <g id="cell20">
  <circle cx="235.256" cy="172.059" r="2.50968" stroke-width="0.5" stroke="black" fill="grey"/>
  <circle cx="235.256" cy="172.059" r="2.37748" stroke-width="0.5" stroke="black" fill="black"/>
   </g>
   <g id="cell99">
  <circle cx="512.273" cy="987.826" r="10.4894" stroke-width="0.5" stroke="black" fill="yellow"/>
  <circle cx="512.273" cy="987.826" r="6.31998" stroke-width="0.5" stroke="yellow" fill="yellow"/>
   </g>
   <g id="cell115">
  <circle cx="192.534" cy="17.1133" r="10.5607" stroke-width="0.5" stroke="black" fill="yellow"/>
  <circle cx="192.534" cy="17.1133" r="6.35087" stroke-width="0.5" stroke="yellow" fill="yellow"/>
   </g>
   <g id="cell108">
  <circle cx="708.096" cy="37.302" r="3.65919" stroke-width="0.5" stroke="black" fill="yellow"/>
  <circle cx="708.096" cy="37.302" r="3.05185" stroke-width="0.5" stroke="black" fill="black"/>
   </g>
   <g id="cell24">
  <circle cx="608.109" cy="222.435" r="1.56071" stroke-width="0.5" stroke="black" fill="grey"/>
  <circle cx="608.109" cy="222.435" r="1.55331" stroke-width="0.5" stroke="black" fill="black"/>
   </g>
   <g id="cell105">
  <circle cx="95.0749" cy="429.127" r="9.67603" stroke-width="0.5" stroke="black" fill="yellow"/>
  <circle cx="95.0749" cy="429.127" r="5.87901" stroke-width="0.5" stroke="yellow" fill="yellow"/>
   </g>
   <g id="cell26">
  <circle cx="660.364" cy="433.486" r="8.39021" stroke-width="0.5" stroke="black" fill="grey"/>
  <circle cx="660.364" cy="433.486" r="5.0439" stroke-width="0.5" stroke="grey" fill="grey"/>
   </g>
   <g id="cell117">
  <circle cx="877.665" cy="397.776" r="10.4208" stroke-width="0.5" stroke="black" fill="yellow"/>
  <circle cx="877.665" cy="397.776" r="6.28762" stroke-width="0.5" stroke="yellow" fill="yellow"/>
   </g>
   <g id="cell28">
  <circle cx="642.589" cy="140.663" r="8.38608" stroke-width="0.5" stroke="black" fill="grey"/>
  <circle cx="642.589" cy="140.663" r="5.04229" stroke-width="0.5" stroke="grey" fill="grey"/>
   </g>
   <g id="cell29">
  <circle cx="964.534" cy="678.968" r="8.39144" stroke-width="0.5" stroke="black" fill="grey"/>
  <circle cx="964.534" cy="678.968" r="5.04437" stroke-width="0.5" stroke="grey" fill="grey"/>
   </g>
   <g id="cell30">
  <circle cx="738.574" cy="141.232" r="10.3933" stroke-width="0.5" stroke="black" fill="grey"/>
  <circle cx="738.574" cy="141.232" r="6.27417" stroke-width="0.5" stroke="grey" fill="grey"/>
   </g>
   <g id="cell31">
  <circle cx="415.138" cy="106.68" r="3.99545" stroke-width="0.5" stroke="black" fill="grey"/>
  <circle cx="415.138" cy="106.68" r="3.19852" stroke-width="0.5" stroke="black" fill="black"/>
   </g>
   <g id="cell114">
  <circle cx="39.5739" cy="325.106" r="10.5254" stroke-width="0.5" stroke="black" fill="yellow"/>
  <circle cx="39.5739" cy="325.106" r="6.33607" stroke-width="0.5" stroke="yellow" fill="yellow"/>
   </g>
   <g id="cell107">
  <circle cx="374.245" cy="409.912" r="9.94548" stroke-width="0.5" stroke="black" fill="yellow"/>
  <circle cx="374.245" cy="409.912" r="6.03448" stroke-width="0.5" stroke="yellow" fill="yellow"/>
   </g>
   <g id="cell106">
  <circle cx="41.7853" cy="966.424" r="8.38753" stroke-width="0.5" stroke="black" fill="yellow"/>
  <circle cx="41.7853" cy="966.424" r="5.04286" stroke-width="0.5" stroke="yellow" fill="yellow"/>
   </g>
   <g id="cell35">
  <circle cx="913.092" cy="92.0389" r="9.37686" stroke-width="0.5" stroke="black" fill="grey"/>
  <circle cx="913.092" cy="92.0389" r="5.69955" stroke-width="0.5" stroke="grey" fill="grey"/>
   </g>
   <g id="cell109">
  <circle cx="369.507" cy="958.517" r="10.5333" stroke-width="0.5" stroke="black" fill="yellow"/>
  <circle cx="369.507" cy="958.517" r="6.33948" stroke-width="0.5" stroke="yellow" fill="yellow"/>
   </g>
   <g id="cell111">
  <circle cx="771.401" cy="360.39" r="10.4048" stroke-width="0.5" stroke="black" fill="yellow"/>
  <circle cx="771.401" cy="360.39" r="6.27981" stroke-width="0.5" stroke="yellow" fill="yellow"/>
   </g>
   <g id="cell131">
  <circle cx="633.721" cy="611.862" r="8.39083" stroke-width="0.5" stroke="black" fill="grey"/>
  <circle cx="633.721" cy="611.862" r="5.04414" stroke-width="0.5" stroke="grey" fill="grey"/>
   </g>
   <g id="cell110">
  <circle cx="868.386" cy="270.632" r="9.84395" stroke-width="0.5" stroke="black" fill="yellow"/>
  <circle cx="868.386" cy="270.632" r="5.97665" stroke-width="0.5" stroke="yellow" fill="yellow"/>
   </g>
   <g id="cell40">
  <circle cx="168.278" cy="412.994" r="10.5573" stroke-width="0.5" stroke="black" fill="red"/>
  <circle cx="168.278" cy="412.994" r="6.3495" stroke-width="0.5" stroke="red" fill="red"/>
   </g>
   <g id="cell41">
  <circle cx="698.24" cy="695.168" r="8.38682" stroke-width="0.5" stroke="black" fill="red"/>
  <circle cx="698.24" cy="695.168" r="5.04258" stroke-width="0.5" stroke="red" fill="red"/>
   </g>
   <g id="cell42">
  <circle cx="142.426" cy="725.374" r="8.38682" stroke-width="0.5" stroke="black" fill="red"/>
  <circle cx="142.426" cy="725.374" r="5.04258" stroke-width="0.5" stroke="red" fill="red"/>
   </g>
   <g id="cell43">
  <circle cx="900.712" cy="399.038" r="10.5295" stroke-width="0.5" stroke="black" fill="red"/>
  <circle cx="900.712" cy="399.038" r="6.33783" stroke-width="0.5" stroke="red" fill="red"/>
   </g>
   <g id="cell44">
  <circle cx="834.129" cy="36.6057" r="10.5561" stroke-width="0.5" stroke="black" fill="red"/>
  <circle cx="834.129" cy="36.6057" r="6.34901" stroke-width="0.5" stroke="red" fill="red"/>
   </g>
   <g id="cell45">
  <circle cx="649.118" cy="834.869" r="10.4894" stroke-width="0.5" stroke="black" fill="red"/>
  <circle cx="649.118" cy="834.869" r="6.31998" stroke-width="0.5" stroke="red" fill="red"/>
   </g>
   <g id="cell46">
  <circle cx="50.3736" cy="928.315" r="8.39021" stroke-width="0.5" stroke="black" fill="red"/>
  <circle cx="50.3736" cy="928.315" r="5.0439" stroke-width="0.5" stroke="red" fill="red"/>
   </g>
   <g id="cell47">
  <circle cx="898.933" cy="429.172" r="10.5618" stroke-width="0.5" stroke="black" fill="red"/>
  <circle cx="898.933" cy="429.172" r="6.3513" stroke-width="0.5" stroke="red" fill="red"/>
   </g>
   <g id="cell48">
  <circle cx="918.808" cy="43.9801" r="8.3926" stroke-width="0.5" stroke="black" fill="red"/>
  <circle cx="918.808" cy="43.9801" r="5.04482" stroke-width="0.5" stroke="red" fill="red"/>
   </g>
   <g id="cell49">
  <circle cx="465.414" cy="786.502" r="10.5314" stroke-width="0.5" stroke="black" fill="red"/>
  <circle cx="465.414" cy="786.502" r="6.33867" stroke-width="0.5" stroke="red" fill="red"/>
   </g>
   <g id="cell50">
  <circle cx="27.5632" cy="482.073" r="8.39571" stroke-width="0.5" stroke="black" fill="red"/>
  <circle cx="27.5632" cy="482.073" r="5.04599" stroke-width="0.5" stroke="red" fill="red"/>
   </g>
   <g id="cell51">
  <circle cx="947.626" cy="139.67" r="8.39316" stroke-width="0.5" stroke="black" fill="red"/>
  <circle cx="947.626" cy="139.67" r="5.04503" stroke-width="0.5" stroke="red" fill="red"/>
   </g>
   <g id="cell96">
  <circle cx="782.276" cy="544.573" r="10.537" stroke-width="0.5" stroke="black" fill="yellow"/>
  <circle cx="782.276" cy="544.573" r="6.34103" stroke-width="0.5" stroke="yellow" fill="yellow"/>
   </g>
   <g id="cell53">
  <circle cx="682.983" cy="320.988" r="8.43379" stroke-width="0.5" stroke="black" fill="red"/>
  <circle cx="682.983" cy="320.988" r="5.07526" stroke-width="0.5" stroke="red" fill="red"/>
   </g>
   <g id="cell54">
  <circle cx="422.429" cy="950.384" r="10.542" stroke-width="0.5" stroke="black" fill="red"/>
  <circle cx="422.429" cy="950.384" r="6.34318" stroke-width="0.5" stroke="red" fill="red"/>
   </g>
   <g id="cell55">
  <circle cx="240.873" cy="728.018" r="10.2328" stroke-width="0.5" stroke="black" fill="red"/>
  <circle cx="240.873" cy="728.018" r="6.19197" stroke-width="0.5" stroke="red" fill="red"/>
   </g>
   <g id="cell56">
  <circle cx="567.713" cy="822.39" r="10.5585" stroke-width="0.5" stroke="black" fill="red"/>
  <circle cx="567.713" cy="822.39" r="6.34997" stroke-width="0.5" stroke="red" fill="red"/>
   </g>
   <g id="cell57">
  <circle cx="482.693" cy="548.433" r="8.38532" stroke-width="0.5" stroke="black" fill="red"/>
  <circle cx="482.693" cy="548.433" r="5.04199" stroke-width="0.5" stroke="red" fill="red"/>
   </g>
   <g id="cell58">
  <circle cx="39.5748" cy="916.78" r="10.5436" stroke-width="0.5" stroke="black" fill="red"/>
  <circle cx="39.5748" cy="916.78" r="6.34385" stroke-width="0.5" stroke="red" fill="red"/>
   </g>
   <g id="cell59">
  <circle cx="94.3551" cy="970.181" r="10.5333" stroke-width="0.5" stroke="black" fill="red"/>
  <circle cx="94.3551" cy="970.181" r="6.33948" stroke-width="0.5" stroke="red" fill="red"/>
   </g>
   <g id="cell60">
  <circle cx="275.591" cy="60.3853" r="10.5189" stroke-width="0.5" stroke="black" fill="red"/>
  <circle cx="275.591" cy="60.3853" r="6.3332" stroke-width="0.5" stroke="red" fill="red"/>
   </g>
   <g id="cell61">
  <circle cx="844.251" cy="131.498" r="10.5436" stroke-width="0.5" stroke="black" fill="red"/>
  <circle cx="844.251" cy="131.498" r="6.34385" stroke-width="0.5" stroke="red" fill="red"/>
   </g>
   <g id="cell62">
  <circle cx="735.911" cy="818.023" r="8.41271" stroke-width="0.5" stroke="black" fill="red"/>
  <circle cx="735.911" cy="818.023" r="5.05167" stroke-width="0.5" stroke="red" fill="red"/>
   </g>
   <g id="cell63">
  <circle cx="330.063" cy="171.772" r="10.5628" stroke-width="0.5" stroke="black" fill="red"/>
  <circle cx="330.063" cy="171.772" r="6.35171" stroke-width="0.5" stroke="red" fill="red"/>
   </g>
   <g id="cell64">
  <circle cx="581.716" cy="548.999" r="8.41271" stroke-width="0.5" stroke="black" fill="red"/>
  <circle cx="581.716" cy="548.999" r="5.05167" stroke-width="0.5" stroke="red" fill="red"/>
   </g>
   <g id="cell65">
  <circle cx="190.302" cy="844.985" r="3.28282" stroke-width="0.5" stroke="black" fill="red"/>
  <circle cx="190.302" cy="844.985" r="2.84694" stroke-width="0.5" stroke="black" fill="black"/>
   </g>
   <g id="cell66">
  <circle cx="44.6228" cy="160.516" r="10.5012" stroke-width="0.5" stroke="black" fill="red"/>
  <circle cx="44.6228" cy="160.516" r="6.32534" stroke-width="0.5" stroke="red" fill="red"/>
   </g>
   <g id="cell67">
  <circle cx="531.841" cy="244.074" r="10.4894" stroke-width="0.5" stroke="black" fill="red"/>
  <circle cx="531.841" cy="244.074" r="6.31998" stroke-width="0.5" stroke="red" fill="red"/>
   </g>
   <g id="cell68">
  <circle cx="780.903" cy="252.799" r="8.38823" stroke-width="0.5" stroke="black" fill="red"/>
  <circle cx="780.903" cy="252.799" r="5.04313" stroke-width="0.5" stroke="red" fill="red"/>
   </g>
   <g id="cell69">
  <circle cx="440.494" cy="287.367" r="10.5189" stroke-width="0.5" stroke="black" fill="red"/>
  <circle cx="440.494" cy="287.367" r="6.3332" stroke-width="0.5" stroke="red" fill="red"/>
   </g>
   <g id="cell70">
  <circle cx="540.924" cy="374.384" r="10.5333" stroke-width="0.5" stroke="black" fill="red"/>
  <circle cx="540.924" cy="374.384" r="6.33948" stroke-width="0.5" stroke="red" fill="red"/>
   </g>
   <g id="cell71">
  <circle cx="869.722" cy="537.209" r="8.43616" stroke-width="0.5" stroke="black" fill="red"/>
  <circle cx="869.722" cy="537.209" r="5.07617" stroke-width="0.5" stroke="red" fill="red"/>
   </g>
   <g id="cell72">
  <circle cx="222.122" cy="878.741" r="10.5596" stroke-width="0.5" stroke="black" fill="red"/>
  <circle cx="222.122" cy="878.741" r="6.35043" stroke-width="0.5" stroke="red" fill="red"/>
   </g>
   <g id="cell73">
  <circle cx="643.118" cy="437.936" r="8.38891" stroke-width="0.5" stroke="black" fill="red"/>
  <circle cx="643.118" cy="437.936" r="5.0434" stroke-width="0.5" stroke="red" fill="red"/>
   </g>
   <g id="cell74">
  <circle cx="849.58" cy="986.08" r="10.542" stroke-width="0.5" stroke="black" fill="red"/>
  <circle cx="849.58" cy="986.08" r="6.34318" stroke-width="0.5" stroke="red" fill="red"/>
   </g>
   <g id="cell75">
  <circle cx="99.3792" cy="317.701" r="8.38753" stroke-width="0.5" stroke="black" fill="red"/>
  <circle cx="99.3792" cy="317.701" r="5.04286" stroke-width="0.5" stroke="red" fill="red"/>
   </g>
   <g id="cell76">
  <circle cx="795.815" cy="391.477" r="10.5387" stroke-width="0.5" stroke="black" fill="red"/>
  <circle cx="795.815" cy="391.477" r="6.34177" stroke-width="0.5" stroke="red" fill="red"/>
   </g>
   <g id="cell77">
  <circle cx="639.389" cy="857.078" r="10.5549" stroke-width="0.5" stroke="black" fill="red"/>
  <circle cx="639.389" cy="857.078" r="6.34851" stroke-width="0.5" stroke="red" fill="red"/>
   </g>
   <g id="cell78">
  <circle cx="597.972" cy="254.137" r="10.5467" stroke-width="0.5" stroke="black" fill="red"/>
  <circle cx="597.972" cy="254.137" r="6.34513" stroke-width="0.5" stroke="red" fill="red"/>
   </g>
   <g id="cell79">
  <circle cx="970.705" cy="696.046" r="10.4925" stroke-width="0.5" stroke="black" fill="red"/>
  <circle cx="970.705" cy="696.046" r="6.32139" stroke-width="0.5" stroke="red" fill="red"/>
   </g>
   <g id="cell80">
  <circle cx="747.721" cy="700.014" r="9.77588" stroke-width="0.5" stroke="black" fill="yellow"/>
  <circle cx="747.721" cy="700.014" r="5.93735" stroke-width="0.5" stroke="yellow" fill="yellow"/>
   </g>
   <g id="cell81">
  <circle cx="492.148" cy="977.191" r="8.41271" stroke-width="0.5" stroke="black" fill="yellow"/>
  <circle cx="492.148" cy="977.191" r="5.05167" stroke-width="0.5" stroke="yellow" fill="yellow"/>
   </g>
   <g id="cell82">
  <circle cx="667.938" cy="420.742" r="10.5618" stroke-width="0.5" stroke="black" fill="yellow"/>
  <circle cx="667.938" cy="420.742" r="6.3513" stroke-width="0.5" stroke="yellow" fill="yellow"/>
   </g>
   <g id="cell83">
  <circle cx="600.976" cy="594.172" r="10.5536" stroke-width="0.5" stroke="black" fill="yellow"/>
  <circle cx="600.976" cy="594.172" r="6.34799" stroke-width="0.5" stroke="yellow" fill="yellow"/>
   </g>
   <g id="cell84">
  <circle cx="30.7679" cy="502.949" r="10.5012" stroke-width="0.5" stroke="black" fill="yellow"/>
  <circle cx="30.7679" cy="502.949" r="6.32534" stroke-width="0.5" stroke="yellow" fill="yellow"/>
   </g>
   <g id="cell85">
  <circle cx="740.278" cy="662.611" r="8.38891" stroke-width="0.5" stroke="black" fill="yellow"/>
  <circle cx="740.278" cy="662.611" r="5.0434" stroke-width="0.5" stroke="yellow" fill="yellow"/>
   </g>
   <g id="cell86">
  <circle cx="293.62" cy="444.894" r="10.4307" stroke-width="0.5" stroke="black" fill="yellow"/>
  <circle cx="293.62" cy="444.894" r="6.29241" stroke-width="0.5" stroke="yellow" fill="yellow"/>
   </g>
   <g id="cell87">
  <circle cx="770.058" cy="418.889" r="8.39473" stroke-width="0.5" stroke="black" fill="yellow"/>
  <circle cx="770.058" cy="418.889" r="5.04562" stroke-width="0.5" stroke="yellow" fill="yellow"/>
   </g>
   <g id="cell88">
  <circle cx="147.734" cy="112.559" r="10.5496" stroke-width="0.5" stroke="black" fill="yellow"/>
  <circle cx="147.734" cy="112.559" r="6.34633" stroke-width="0.5" stroke="yellow" fill="yellow"/>
   </g>
   <g id="cell89">
  <circle cx="60.1629" cy="537.917" r="10.4613" stroke-width="0.5" stroke="black" fill="yellow"/>
  <circle cx="60.1629" cy="537.917" r="6.30695" stroke-width="0.5" stroke="yellow" fill="yellow"/>
   </g>
   <g id="cell119">
  <circle cx="581.177" cy="32.728" r="10.4573" stroke-width="0.5" stroke="black" fill="yellow"/>
  <circle cx="581.177" cy="32.728" r="6.30507" stroke-width="0.5" stroke="yellow" fill="yellow"/>
   </g>
   <g id="cell91">
  <circle cx="39.2235" cy="644.778" r="10.4984" stroke-width="0.5" stroke="black" fill="yellow"/>
  <circle cx="39.2235" cy="644.778" r="6.32406" stroke-width="0.5" stroke="yellow" fill="yellow"/>
   </g>
   <g id="cell92">
  <circle cx="634.017" cy="305.421" r="10.5467" stroke-width="0.5" stroke="black" fill="yellow"/>
  <circle cx="634.017" cy="305.421" r="6.34513" stroke-width="0.5" stroke="yellow" fill="yellow"/>
   </g>
   <g id="cell93">
  <circle cx="242.741" cy="901.345" r="8.39473" stroke-width="0.5" stroke="black" fill="yellow"/>
  <circle cx="242.741" cy="901.345" r="5.04562" stroke-width="0.5" stroke="yellow" fill="yellow"/>
   </g>
   <g id="cell94">
  <circle cx="373.269" cy="94.1393" r="10.5254" stroke-width="0.5" stroke="black" fill="yellow"/>
  <circle cx="373.269" cy="94.1393" r="6.33607" stroke-width="0.5" stroke="yellow" fill="yellow"/>
   </g>
   <g id="cell95">
  <circle cx="976.117" cy="920.586" r="10.5352" stroke-width="0.5" stroke="black" fill="yellow"/>
  <circle cx="976.117" cy="920.586" r="6.34027" stroke-width="0.5" stroke="yellow" fill="yellow"/>
   </g>
   <g id="cell121">
  <circle cx="8.41025" cy="482.023" r="8.39571" stroke-width="0.5" stroke="black" fill="red"/>
  <circle cx="8.41025" cy="482.023" r="5.04599" stroke-width="0.5" stroke="red" fill="red"/>
   </g>
   <g id="cell122">
  <circle cx="763.918" cy="436.616" r="8.39473" stroke-width="0.5" stroke="black" fill="yellow"/>
  <circle cx="763.918" cy="436.616" r="5.04562" stroke-width="0.5" stroke="yellow" fill="yellow"/>
   </g>
   <g id="cell123">
  <circle cx="256.003" cy="874.38" r="8.39473" stroke-width="0.5" stroke="black" fill="yellow"/>
  <circle cx="256.003" cy="874.38" r="5.04562" stroke-width="0.5" stroke="yellow" fill="yellow"/>
   </g>
   <g id="cell124">
  <circle cx="522.816" cy="627.698" r="8.39473" stroke-width="0.5" stroke="black" fill="grey"/>
  <circle cx="522.816" cy="627.698" r="5.04562" stroke-width="0.5" stroke="grey" fill="grey"/>
   </g>
   <g id="cell125">
  <circle cx="788.878" cy="388.582" r="8.43724" stroke-width="0.5" stroke="black" fill="yellow"/>
  <circle cx="788.878" cy="388.582" r="5.07658" stroke-width="0.5" stroke="yellow" fill="yellow"/>
   </g>
   <g id="cell126">
  <circle cx="977.295" cy="159.697" r="8.39316" stroke-width="0.5" stroke="black" fill="red"/>
  <circle cx="977.295" cy="159.697" r="5.04503" stroke-width="0.5" stroke="red" fill="red"/>
   </g>
   <g id="cell127">
  <circle cx="881.105" cy="531.488" r="8.3926" stroke-width="0.5" stroke="black" fill="red"/>
  <circle cx="881.105" cy="531.488" r="5.04482" stroke-width="0.5" stroke="red" fill="red"/>
   </g>
   <g id="cell128">
  <circle cx="922.806" cy="51.8915" r="8.3926" stroke-width="0.5" stroke="black" fill="red"/>
  <circle cx="922.806" cy="51.8915" r="5.04482" stroke-width="0.5" stroke="red" fill="red"/>
   </g>
   <g id="cell129">
  <circle cx="947.298" cy="686.188" r="8.39144" stroke-width="0.5" stroke="black" fill="grey"/>
  <circle cx="947.298" cy="686.188" r="5.04437" stroke-width="0.5" stroke="grey" fill="grey"/>
   </g>
   <g id="cell130">
  <circle cx="898.225" cy="599.321" r="8.39083" stroke-width="0.5" stroke="black" fill="yellow"/>
  <circle cx="898.225" cy="599.321" r="5.04414" stroke-width="0.5" stroke="yellow" fill="yellow"/>
   </g>
   <g id="cell132">
  <circle cx="67.2474" cy="907.975" r="8.39021" stroke-width="0.5" stroke="black" fill="red"/>
  <circle cx="67.2474" cy="907.975" r="5.0439" stroke-width="0.5" stroke="red" fill="red"/>
   </g>
   <g id="cell133">
  <circle cx="695.634" cy="365.999" r="8.39021" stroke-width="0.5" stroke="black" fill="red"/>
  <circle cx="695.634" cy="365.999" r="5.0439" stroke-width="0.5" stroke="red" fill="red"/>
   </g>
   <g id="cell134">
  <circle cx="633.123" cy="440.258" r="8.39021" stroke-width="0.5" stroke="black" fill="grey"/>
  <circle cx="633.123" cy="440.258" r="5.0439" stroke-width="0.5" stroke="grey" fill="grey"/>
   </g>
   <g id="cell136">
  <circle cx="658.568" cy="428.689" r="8.38891" stroke-width="0.5" stroke="black" fill="red"/>
  <circle cx="658.568" cy="428.689" r="5.0434" stroke-width="0.5" stroke="red" fill="red"/>
   </g>
   <g id="cell137">
  <circle cx="766.426" cy="675.663" r="8.38891" stroke-width="0.5" stroke="black" fill="yellow"/>
  <circle cx="766.426" cy="675.663" r="5.0434" stroke-width="0.5" stroke="yellow" fill="yellow"/>
   </g>
   <g id="cell138">
  <circle cx="766.286" cy="225.913" r="8.38823" stroke-width="0.5" stroke="black" fill="red"/>
  <circle cx="766.286" cy="225.913" r="5.04313" stroke-width="0.5" stroke="red" fill="red"/>
   </g>
   <g id="cell139">
  <circle cx="777.203" cy="745.923" r="8.38823" stroke-width="0.5" stroke="black" fill="yellow"/>
  <circle cx="777.203" cy="745.923" r="5.04313" stroke-width="0.5" stroke="yellow" fill="yellow"/>
   </g>
   <g id="cell140">
  <circle cx="95.899" cy="330.506" r="8.38753" stroke-width="0.5" stroke="black" fill="red"/>
  <circle cx="95.899" cy="330.506" r="5.04286" stroke-width="0.5" stroke="red" fill="red"/>
   </g>
   <g id="cell141">
  <circle cx="38.7943" cy="986.239" r="8.38753" stroke-width="0.5" stroke="black" fill="yellow"/>
  <circle cx="38.7943" cy="986.239" r="5.04286" stroke-width="0.5" stroke="yellow" fill="yellow"/>
   </g>
   <g id="cell142">
  <circle cx="701.09" cy="685.079" r="8.38682" stroke-width="0.5" stroke="black" fill="red"/>
  <circle cx="701.09" cy="685.079" r="5.04258" stroke-width="0.5" stroke="red" fill="red"/>
   </g>
   <g id="cell143">
  <circle cx="146.51" cy="724.819" r="8.38682" stroke-width="0.5" stroke="black" fill="red"/>
  <circle cx="146.51" cy="724.819" r="5.04258" stroke-width="0.5" stroke="red" fill="red"/>
   </g>
   <g id="cell144">
  <circle cx="640.393" cy="160.188" r="8.38608" stroke-width="0.5" stroke="black" fill="grey"/>
  <circle cx="640.393" cy="160.188" r="5.04229" stroke-width="0.5" stroke="grey" fill="grey"/>
   </g>
   <g id="cell145">
  <circle cx="487.202" cy="545.748" r="8.38532" stroke-width="0.5" stroke="black" fill="red"/>
  <circle cx="487.202" cy="545.748" r="5.04199" stroke-width="0.5" stroke="red" fill="red"/>
   </g>
  </g>
 </g>
  <rect x="775" y="1035" width="200" height="10" stroke-width="2" stroke="rgb(255,255,255)" fill="rgb(0,0,0)"/>
  <text x="781.25" y="1028.75"
   font-family="Arial" font-size="25" fill="black" >
   200 &#956;m
  </text>
  <text x="25" y="1045"
   font-family="Arial" font-size="18.75" fill="black" >
   0 days, 0 hours, 1 minutes, and 11.8361 seconds
  </text>
  <rect x="0" y="70" width="1000" height="1000" stroke-width="2" stroke="rgb(0,0,0)" fill="none"/>
</svg>
