<?xml version="1.0" encoding="UTF-8" standalone="no"?>
<!-- Created with PhysiCell (http://PhysiCell.MathCancer.org/) -->
<svg 
 xmlns:dc="http://purl.org/dc/elements/1.1/" 
 xmlns:cc="http://creativecommons.org/ns#" 
 xmlns:rdf="http://www.w3.org/1999/02/22-rdf-syntax-ns#" 
 xmlns:svg="http://www.w3.org/2000/svg" 
 xmlns="http://www.w3.org/2000/svg" 
 version="1.1" 
 width="1000" 
 height="1070" 
 id="svg2">
  <rect x="0" y="0" width="1000" height="1070" stroke-width="2" stroke="white" fill="white"/>
  <text x="12.5" y="30"
   font-family="Arial" font-size="25" fill="black" >
   Current time: 0 days, 14 hours, and 0.00 minutes, z = 0.00 &#956;m
  </text>
  <text x="12.5" y="57.5"
   font-family="Arial" font-size="23.75" fill="black" >
   99 agents
  </text>
 <g id="tissue" 
    transform="translate(0,1070) scale(1,-1)">
  <g id="ECM">
  </g>
  <g id="cells">
   <g id="cell0">
  <circle cx="496.381" cy="622.803" r="10.5467" stroke-width="0.5" stroke="black" fill="grey"/>
  <circle cx="496.381" cy="622.803" r="6.34513" stroke-width="0.5" stroke="grey" fill="grey"/>
   </g>
   <g id="cell118">
  <circle cx="903.383" cy="611.211" r="10.5352" stroke-width="0.5" stroke="black" fill="yellow"/>
  <circle cx="903.383" cy="611.211" r="6.34027" stroke-width="0.5" stroke="yellow" fill="yellow"/>
   </g>
   <g id="cell100">
  <circle cx="137.959" cy="832.386" r="10.5314" stroke-width="0.5" stroke="black" fill="yellow"/>
  <circle cx="137.959" cy="832.386" r="6.33867" stroke-width="0.5" stroke="yellow" fill="yellow"/>
   </g>
   <g id="cell3">
  <circle cx="611.647" cy="609.197" r="10.5352" stroke-width="0.5" stroke="black" fill="grey"/>
  <circle cx="611.647" cy="609.197" r="6.34027" stroke-width="0.5" stroke="grey" fill="grey"/>
   </g>
   <g id="cell103">
  <circle cx="841.861" cy="855.838" r="8.45606" stroke-width="0.5" stroke="black" fill="yellow"/>
  <circle cx="841.861" cy="855.838" r="5.08296" stroke-width="0.5" stroke="yellow" fill="yellow"/>
   </g>
   <g id="cell5">
  <circle cx="75.5167" cy="967.659" r="1.92008" stroke-width="0.5" stroke="black" fill="grey"/>
  <circle cx="75.5167" cy="967.659" r="1.89109" stroke-width="0.5" stroke="black" fill="black"/>
   </g>
   <g id="cell6">
  <circle cx="385.987" cy="484.758" r="5.82528" stroke-width="0.5" stroke="black" fill="grey"/>
  <circle cx="385.987" cy="484.758" r="3.9905" stroke-width="0.5" stroke="black" fill="black"/>
   </g>
   <g id="cell7">
  <circle cx="878.533" cy="531.152" r="10.4955" stroke-width="0.5" stroke="black" fill="grey"/>
  <circle cx="878.533" cy="531.152" r="6.32275" stroke-width="0.5" stroke="grey" fill="grey"/>
   </g>
   <g id="cell8">
  <circle cx="591.859" cy="410.729" r="10.4651" stroke-width="0.5" stroke="black" fill="grey"/>
  <circle cx="591.859" cy="410.729" r="6.30877" stroke-width="0.5" stroke="grey" fill="grey"/>
   </g>
   <g id="cell112">
  <circle cx="780.895" cy="759.638" r="10.5275" stroke-width="0.5" stroke="black" fill="yellow"/>
  <circle cx="780.895" cy="759.638" r="6.33696" stroke-width="0.5" stroke="yellow" fill="yellow"/>
   </g>
   <g id="cell10">
  <circle cx="134.269" cy="642.6" r="3.80526" stroke-width="0.5" stroke="black" fill="grey"/>
  <circle cx="134.269" cy="642.6" r="3.11431" stroke-width="0.5" stroke="black" fill="black"/>
   </g>
   <g id="cell11">
  <circle cx="330.059" cy="826.206" r="6.42513" stroke-width="0.5" stroke="black" fill="grey"/>
  <circle cx="330.059" cy="826.206" r="4.25529" stroke-width="0.5" stroke="black" fill="black"/>
   </g>
   <g id="cell104">
  <circle cx="791.978" cy="409.833" r="10.5436" stroke-width="0.5" stroke="black" fill="yellow"/>
  <circle cx="791.978" cy="409.833" r="6.34385" stroke-width="0.5" stroke="yellow" fill="yellow"/>
   </g>
   <g id="cell102">
  <circle cx="600.666" cy="173.758" r="10.4531" stroke-width="0.5" stroke="black" fill="yellow"/>
  <circle cx="600.666" cy="173.758" r="6.30312" stroke-width="0.5" stroke="yellow" fill="yellow"/>
   </g>
   <g id="cell14">
  <circle cx="838.103" cy="829.667" r="1.43311" stroke-width="0.5" stroke="black" fill="grey"/>
  <circle cx="838.103" cy="829.667" r="1.42807" stroke-width="0.5" stroke="black" fill="black"/>
   </g>
   <g id="cell15">
  <circle cx="525.275" cy="767.583" r="1.44008" stroke-width="0.5" stroke="black" fill="grey"/>
  <circle cx="525.275" cy="767.583" r="1.43466" stroke-width="0.5" stroke="black" fill="black"/>
   </g>
   <g id="cell16">
  <circle cx="154.423" cy="742.096" r="10.5117" stroke-width="0.5" stroke="black" fill="grey"/>
  <circle cx="154.423" cy="742.096" r="6.33005" stroke-width="0.5" stroke="grey" fill="grey"/>
   </g>
   <g id="cell116">
  <circle cx="829.909" cy="467.949" r="10.0169" stroke-width="0.5" stroke="black" fill="yellow"/>
  <circle cx="829.909" cy="467.949" r="6.07458" stroke-width="0.5" stroke="yellow" fill="yellow"/>
   </g>
   <g id="cell18">
  <circle cx="959.432" cy="705.774" r="3.50135" stroke-width="0.5" stroke="black" fill="grey"/>
  <circle cx="959.432" cy="705.774" r="2.93452" stroke-width="0.5" stroke="black" fill="black"/>
   </g>
   <g id="cell101">
  <circle cx="101.781" cy="147.385" r="9.20015" stroke-width="0.5" stroke="black" fill="yellow"/>
  <circle cx="101.781" cy="147.385" r="5.59022" stroke-width="0.5" stroke="yellow" fill="yellow"/>
   </g>
   <g id="cell20">
  <circle cx="235.256" cy="172.059" r="4.68662" stroke-width="0.5" stroke="black" fill="grey"/>
  <circle cx="235.256" cy="172.059" r="3.48291" stroke-width="0.5" stroke="black" fill="black"/>
   </g>
   <g id="cell99">
  <circle cx="501.11" cy="965.818" r="10.34" stroke-width="0.5" stroke="black" fill="yellow"/>
  <circle cx="501.11" cy="965.818" r="6.24753" stroke-width="0.5" stroke="yellow" fill="yellow"/>
   </g>
   <g id="cell115">
  <circle cx="195.872" cy="9.46941" r="10.5092" stroke-width="0.5" stroke="black" fill="yellow"/>
  <circle cx="195.872" cy="9.46941" r="6.32893" stroke-width="0.5" stroke="yellow" fill="yellow"/>
   </g>
   <g id="cell108">
  <circle cx="701.703" cy="39.9594" r="10.5452" stroke-width="0.5" stroke="black" fill="yellow"/>
  <circle cx="701.703" cy="39.9594" r="6.3445" stroke-width="0.5" stroke="yellow" fill="yellow"/>
   </g>
   <g id="cell24">
  <circle cx="608.109" cy="222.435" r="2.30094" stroke-width="0.5" stroke="black" fill="grey"/>
  <circle cx="608.109" cy="222.435" r="2.21813" stroke-width="0.5" stroke="black" fill="black"/>
   </g>
   <g id="cell105">
  <circle cx="105.189" cy="436.752" r="8.61424" stroke-width="0.5" stroke="black" fill="yellow"/>
  <circle cx="105.189" cy="436.752" r="5.20061" stroke-width="0.5" stroke="yellow" fill="yellow"/>
   </g>
   <g id="cell26">
  <circle cx="641.813" cy="435.893" r="10.5333" stroke-width="0.5" stroke="black" fill="grey"/>
  <circle cx="641.813" cy="435.893" r="6.33948" stroke-width="0.5" stroke="grey" fill="grey"/>
   </g>
   <g id="cell117">
  <circle cx="890.043" cy="371.3" r="10.1758" stroke-width="0.5" stroke="black" fill="yellow"/>
  <circle cx="890.043" cy="371.3" r="6.16159" stroke-width="0.5" stroke="yellow" fill="yellow"/>
   </g>
   <g id="cell28">
  <circle cx="648.401" cy="138.014" r="10.5211" stroke-width="0.5" stroke="black" fill="grey"/>
  <circle cx="648.401" cy="138.014" r="6.33419" stroke-width="0.5" stroke="grey" fill="grey"/>
   </g>
   <g id="cell29">
  <circle cx="964.693" cy="693.741" r="10.537" stroke-width="0.5" stroke="black" fill="grey"/>
  <circle cx="964.693" cy="693.741" r="6.34103" stroke-width="0.5" stroke="grey" fill="grey"/>
   </g>
   <g id="cell30">
  <circle cx="730.189" cy="141.129" r="10.1098" stroke-width="0.5" stroke="black" fill="grey"/>
  <circle cx="730.189" cy="141.129" r="6.12585" stroke-width="0.5" stroke="grey" fill="grey"/>
   </g>
   <g id="cell31">
  <circle cx="410.458" cy="110.16" r="10.4102" stroke-width="0.5" stroke="black" fill="grey"/>
  <circle cx="410.458" cy="110.16" r="6.2825" stroke-width="0.5" stroke="grey" fill="grey"/>
   </g>
   <g id="cell114">
  <circle cx="36.8327" cy="335.364" r="10.4258" stroke-width="0.5" stroke="black" fill="yellow"/>
  <circle cx="36.8327" cy="335.364" r="6.29005" stroke-width="0.5" stroke="yellow" fill="yellow"/>
   </g>
   <g id="cell107">
  <circle cx="393.291" cy="417.847" r="9.08642" stroke-width="0.5" stroke="black" fill="yellow"/>
  <circle cx="393.291" cy="417.847" r="5.51837" stroke-width="0.5" stroke="yellow" fill="yellow"/>
   </g>
   <g id="cell106">
  <circle cx="41.4666" cy="971.407" r="10.5254" stroke-width="0.5" stroke="black" fill="yellow"/>
  <circle cx="41.4666" cy="971.407" r="6.33607" stroke-width="0.5" stroke="yellow" fill="yellow"/>
   </g>
   <g id="cell35">
  <circle cx="919.922" cy="99.5511" r="8.41271" stroke-width="0.5" stroke="black" fill="grey"/>
  <circle cx="919.922" cy="99.5511" r="5.05167" stroke-width="0.5" stroke="grey" fill="grey"/>
   </g>
   <g id="cell109">
  <circle cx="361.837" cy="954.584" r="10.4446" stroke-width="0.5" stroke="black" fill="yellow"/>
  <circle cx="361.837" cy="954.584" r="6.29905" stroke-width="0.5" stroke="yellow" fill="yellow"/>
   </g>
   <g id="cell111">
  <circle cx="758.237" cy="355.615" r="10.1374" stroke-width="0.5" stroke="black" fill="yellow"/>
  <circle cx="758.237" cy="355.615" r="6.14084" stroke-width="0.5" stroke="yellow" fill="yellow"/>
   </g>
   <g id="cell38">
  <circle cx="228.983" cy="445.784" r="1.87329" stroke-width="0.5" stroke="black" fill="grey"/>
  <circle cx="228.983" cy="445.784" r="1.84857" stroke-width="0.5" stroke="black" fill="black"/>
   </g>
   <g id="cell110">
  <circle cx="867.998" cy="244.147" r="8.88811" stroke-width="0.5" stroke="black" fill="yellow"/>
  <circle cx="867.998" cy="244.147" r="5.38958" stroke-width="0.5" stroke="yellow" fill="yellow"/>
   </g>
   <g id="cell40">
  <circle cx="174.136" cy="384.14" r="10.5012" stroke-width="0.5" stroke="black" fill="red"/>
  <circle cx="174.136" cy="384.14" r="6.32534" stroke-width="0.5" stroke="red" fill="red"/>
   </g>
   <g id="cell41">
  <circle cx="671.922" cy="681.426" r="10.5233" stroke-width="0.5" stroke="black" fill="red"/>
  <circle cx="671.922" cy="681.426" r="6.33514" stroke-width="0.5" stroke="red" fill="red"/>
   </g>
   <g id="cell42">
  <circle cx="151.461" cy="735.824" r="10.5233" stroke-width="0.5" stroke="black" fill="red"/>
  <circle cx="151.461" cy="735.824" r="6.33514" stroke-width="0.5" stroke="red" fill="red"/>
   </g>
   <g id="cell43">
  <circle cx="893.929" cy="388.465" r="10.4355" stroke-width="0.5" stroke="black" fill="red"/>
  <circle cx="893.929" cy="388.465" r="6.2947" stroke-width="0.5" stroke="red" fill="red"/>
   </g>
   <g id="cell44">
  <circle cx="814.338" cy="21.7983" r="10.4984" stroke-width="0.5" stroke="black" fill="red"/>
  <circle cx="814.338" cy="21.7983" r="6.32406" stroke-width="0.5" stroke="red" fill="red"/>
   </g>
   <g id="cell45">
  <circle cx="646.218" cy="826.673" r="10.34" stroke-width="0.5" stroke="black" fill="red"/>
  <circle cx="646.218" cy="826.673" r="6.24753" stroke-width="0.5" stroke="red" fill="red"/>
   </g>
   <g id="cell46">
  <circle cx="42.288" cy="914.874" r="10.5333" stroke-width="0.5" stroke="black" fill="red"/>
  <circle cx="42.288" cy="914.874" r="6.33948" stroke-width="0.5" stroke="red" fill="red"/>
   </g>
   <g id="cell47">
  <circle cx="889.601" cy="419.311" r="10.5117" stroke-width="0.5" stroke="black" fill="red"/>
  <circle cx="889.601" cy="419.311" r="6.33005" stroke-width="0.5" stroke="red" fill="red"/>
   </g>
   <g id="cell48">
  <circle cx="911.904" cy="44.8622" r="10.5404" stroke-width="0.5" stroke="black" fill="red"/>
  <circle cx="911.904" cy="44.8622" r="6.34248" stroke-width="0.5" stroke="red" fill="red"/>
   </g>
   <g id="cell49">
  <circle cx="456.785" cy="790.006" r="10.4401" stroke-width="0.5" stroke="black" fill="red"/>
  <circle cx="456.785" cy="790.006" r="6.29691" stroke-width="0.5" stroke="red" fill="red"/>
   </g>
   <g id="cell50">
  <circle cx="21.2567" cy="493.722" r="10.5496" stroke-width="0.5" stroke="black" fill="red"/>
  <circle cx="21.2567" cy="493.722" r="6.34633" stroke-width="0.5" stroke="red" fill="red"/>
   </g>
   <g id="cell51">
  <circle cx="964.696" cy="130.076" r="10.542" stroke-width="0.5" stroke="black" fill="red"/>
  <circle cx="964.696" cy="130.076" r="6.34318" stroke-width="0.5" stroke="red" fill="red"/>
   </g>
   <g id="cell52">
  <circle cx="289.862" cy="499.505" r="1.23626" stroke-width="0.5" stroke="black" fill="red"/>
  <circle cx="289.862" cy="499.505" r="1.23068" stroke-width="0.5" stroke="black" fill="black"/>
   </g>
   <g id="cell53">
  <circle cx="686.738" cy="348.766" r="10.5333" stroke-width="0.5" stroke="black" fill="red"/>
  <circle cx="686.738" cy="348.766" r="6.33948" stroke-width="0.5" stroke="red" fill="red"/>
   </g>
   <g id="cell54">
  <circle cx="454.702" cy="926.052" r="10.4651" stroke-width="0.5" stroke="black" fill="red"/>
  <circle cx="454.702" cy="926.052" r="6.30877" stroke-width="0.5" stroke="red" fill="red"/>
   </g>
   <g id="cell55">
  <circle cx="255.479" cy="717.925" r="9.7273" stroke-width="0.5" stroke="black" fill="red"/>
  <circle cx="255.479" cy="717.925" r="5.90906" stroke-width="0.5" stroke="red" fill="red"/>
   </g>
   <g id="cell56">
  <circle cx="536.392" cy="812.939" r="10.5039" stroke-width="0.5" stroke="black" fill="red"/>
  <circle cx="536.392" cy="812.939" r="6.32657" stroke-width="0.5" stroke="red" fill="red"/>
   </g>
   <g id="cell57">
  <circle cx="491.587" cy="557.28" r="10.5189" stroke-width="0.5" stroke="black" fill="red"/>
  <circle cx="491.587" cy="557.28" r="6.3332" stroke-width="0.5" stroke="red" fill="red"/>
   </g>
   <g id="cell58">
  <circle cx="66.4683" cy="921.206" r="10.4689" stroke-width="0.5" stroke="black" fill="red"/>
  <circle cx="66.4683" cy="921.206" r="6.31053" stroke-width="0.5" stroke="red" fill="red"/>
   </g>
   <g id="cell59">
  <circle cx="91.109" cy="941.016" r="10.4446" stroke-width="0.5" stroke="black" fill="red"/>
  <circle cx="91.109" cy="941.016" r="6.29905" stroke-width="0.5" stroke="red" fill="red"/>
   </g>
   <g id="cell60">
  <circle cx="269.201" cy="64.4421" r="10.4102" stroke-width="0.5" stroke="black" fill="red"/>
  <circle cx="269.201" cy="64.4421" r="6.2825" stroke-width="0.5" stroke="red" fill="red"/>
   </g>
   <g id="cell61">
  <circle cx="837.762" cy="123.268" r="10.4689" stroke-width="0.5" stroke="black" fill="red"/>
  <circle cx="837.762" cy="123.268" r="6.31053" stroke-width="0.5" stroke="red" fill="red"/>
   </g>
   <g id="cell62">
  <circle cx="747.759" cy="806.726" r="8.41271" stroke-width="0.5" stroke="black" fill="red"/>
  <circle cx="747.759" cy="806.726" r="5.05167" stroke-width="0.5" stroke="red" fill="red"/>
   </g>
   <g id="cell63">
  <circle cx="308.354" cy="203.751" r="10.5142" stroke-width="0.5" stroke="black" fill="red"/>
  <circle cx="308.354" cy="203.751" r="6.33113" stroke-width="0.5" stroke="red" fill="red"/>
   </g>
   <g id="cell64">
  <circle cx="565.334" cy="550.607" r="8.41271" stroke-width="0.5" stroke="black" fill="red"/>
  <circle cx="565.334" cy="550.607" r="5.05167" stroke-width="0.5" stroke="red" fill="red"/>
   </g>
   <g id="cell65">
  <circle cx="191.257" cy="845.42" r="10.0955" stroke-width="0.5" stroke="black" fill="red"/>
  <circle cx="191.257" cy="845.42" r="6.11797" stroke-width="0.5" stroke="red" fill="red"/>
   </g>
   <g id="cell66">
  <circle cx="27.6698" cy="147.24" r="10.3682" stroke-width="0.5" stroke="black" fill="red"/>
  <circle cx="27.6698" cy="147.24" r="6.26172" stroke-width="0.5" stroke="red" fill="red"/>
   </g>
   <g id="cell67">
  <circle cx="518.558" cy="265.251" r="10.34" stroke-width="0.5" stroke="black" fill="red"/>
  <circle cx="518.558" cy="265.251" r="6.24753" stroke-width="0.5" stroke="red" fill="red"/>
   </g>
   <g id="cell68">
  <circle cx="768.818" cy="263.088" r="10.5275" stroke-width="0.5" stroke="black" fill="red"/>
  <circle cx="768.818" cy="263.088" r="6.33696" stroke-width="0.5" stroke="red" fill="red"/>
   </g>
   <g id="cell69">
  <circle cx="445.295" cy="288.693" r="10.4102" stroke-width="0.5" stroke="black" fill="red"/>
  <circle cx="445.295" cy="288.693" r="6.2825" stroke-width="0.5" stroke="red" fill="red"/>
   </g>
   <g id="cell70">
  <circle cx="561.654" cy="381.17" r="10.4446" stroke-width="0.5" stroke="black" fill="red"/>
  <circle cx="561.654" cy="381.17" r="6.29905" stroke-width="0.5" stroke="red" fill="red"/>
   </g>
   <g id="cell71">
  <circle cx="871.912" cy="523.463" r="10.5404" stroke-width="0.5" stroke="black" fill="red"/>
  <circle cx="871.912" cy="523.463" r="6.34248" stroke-width="0.5" stroke="red" fill="red"/>
   </g>
   <g id="cell72">
  <circle cx="224.987" cy="879.487" r="10.5066" stroke-width="0.5" stroke="black" fill="red"/>
  <circle cx="224.987" cy="879.487" r="6.32777" stroke-width="0.5" stroke="red" fill="red"/>
   </g>
   <g id="cell73">
  <circle cx="663.134" cy="453.511" r="10.5295" stroke-width="0.5" stroke="black" fill="red"/>
  <circle cx="663.134" cy="453.511" r="6.33783" stroke-width="0.5" stroke="red" fill="red"/>
   </g>
   <g id="cell74">
  <circle cx="843.013" cy="981.24" r="10.4651" stroke-width="0.5" stroke="black" fill="red"/>
  <circle cx="843.013" cy="981.24" r="6.30877" stroke-width="0.5" stroke="red" fill="red"/>
   </g>
   <g id="cell75">
  <circle cx="94.2081" cy="306.823" r="10.5254" stroke-width="0.5" stroke="black" fill="red"/>
  <circle cx="94.2081" cy="306.823" r="6.33607" stroke-width="0.5" stroke="red" fill="red"/>
   </g>
   <g id="cell76">
  <circle cx="816.322" cy="401.454" r="10.4573" stroke-width="0.5" stroke="black" fill="red"/>
  <circle cx="816.322" cy="401.454" r="6.30507" stroke-width="0.5" stroke="red" fill="red"/>
   </g>
   <g id="cell77">
  <circle cx="631.772" cy="845.898" r="10.4955" stroke-width="0.5" stroke="black" fill="red"/>
  <circle cx="631.772" cy="845.898" r="6.32275" stroke-width="0.5" stroke="red" fill="red"/>
   </g>
   <g id="cell78">
  <circle cx="589.152" cy="270.225" r="10.4761" stroke-width="0.5" stroke="black" fill="red"/>
  <circle cx="589.152" cy="270.225" r="6.31388" stroke-width="0.5" stroke="red" fill="red"/>
   </g>
   <g id="cell79">
  <circle cx="972.782" cy="719.117" r="10.3474" stroke-width="0.5" stroke="black" fill="red"/>
  <circle cx="972.782" cy="719.117" r="6.25125" stroke-width="0.5" stroke="red" fill="red"/>
   </g>
   <g id="cell80">
  <circle cx="753.122" cy="685.558" r="8.7678" stroke-width="0.5" stroke="black" fill="yellow"/>
  <circle cx="753.122" cy="685.558" r="5.30857" stroke-width="0.5" stroke="yellow" fill="yellow"/>
   </g>
   <g id="cell81">
  <circle cx="511.228" cy="976.217" r="8.41271" stroke-width="0.5" stroke="black" fill="yellow"/>
  <circle cx="511.228" cy="976.217" r="5.05167" stroke-width="0.5" stroke="yellow" fill="yellow"/>
   </g>
   <g id="cell82">
  <circle cx="664.743" cy="401.142" r="10.5117" stroke-width="0.5" stroke="black" fill="yellow"/>
  <circle cx="664.743" cy="401.142" r="6.33005" stroke-width="0.5" stroke="yellow" fill="yellow"/>
   </g>
   <g id="cell83">
  <circle cx="599.697" cy="594.357" r="10.4925" stroke-width="0.5" stroke="black" fill="yellow"/>
  <circle cx="599.697" cy="594.357" r="6.32139" stroke-width="0.5" stroke="yellow" fill="yellow"/>
   </g>
   <g id="cell84">
  <circle cx="30.0125" cy="494.939" r="10.3682" stroke-width="0.5" stroke="black" fill="yellow"/>
  <circle cx="30.0125" cy="494.939" r="6.26172" stroke-width="0.5" stroke="yellow" fill="yellow"/>
   </g>
   <g id="cell85">
  <circle cx="737.773" cy="664.079" r="10.5295" stroke-width="0.5" stroke="black" fill="yellow"/>
  <circle cx="737.773" cy="664.079" r="6.33783" stroke-width="0.5" stroke="yellow" fill="yellow"/>
   </g>
   <g id="cell86">
  <circle cx="285.757" cy="431.542" r="10.1996" stroke-width="0.5" stroke="black" fill="yellow"/>
  <circle cx="285.757" cy="431.542" r="6.17434" stroke-width="0.5" stroke="yellow" fill="yellow"/>
   </g>
   <g id="cell87">
  <circle cx="759.112" cy="422.036" r="10.5467" stroke-width="0.5" stroke="black" fill="yellow"/>
  <circle cx="759.112" cy="422.036" r="6.34513" stroke-width="0.5" stroke="yellow" fill="yellow"/>
   </g>
   <g id="cell88">
  <circle cx="147.366" cy="105.807" r="10.483" stroke-width="0.5" stroke="black" fill="yellow"/>
  <circle cx="147.366" cy="105.807" r="6.31703" stroke-width="0.5" stroke="yellow" fill="yellow"/>
   </g>
   <g id="cell89">
  <circle cx="57.342" cy="544.349" r="10.2728" stroke-width="0.5" stroke="black" fill="yellow"/>
  <circle cx="57.342" cy="544.349" r="6.21295" stroke-width="0.5" stroke="yellow" fill="yellow"/>
   </g>
   <g id="cell119">
  <circle cx="561.208" cy="36.9579" r="10.2632" stroke-width="0.5" stroke="black" fill="yellow"/>
  <circle cx="561.208" cy="36.9579" r="6.20796" stroke-width="0.5" stroke="yellow" fill="yellow"/>
   </g>
   <g id="cell91">
  <circle cx="46.5978" cy="646.198" r="10.3615" stroke-width="0.5" stroke="black" fill="yellow"/>
  <circle cx="46.5978" cy="646.198" r="6.25834" stroke-width="0.5" stroke="yellow" fill="yellow"/>
   </g>
   <g id="cell92">
  <circle cx="634.805" cy="308.159" r="10.4761" stroke-width="0.5" stroke="black" fill="yellow"/>
  <circle cx="634.805" cy="308.159" r="6.31388" stroke-width="0.5" stroke="yellow" fill="yellow"/>
   </g>
   <g id="cell93">
  <circle cx="245.746" cy="877.718" r="10.5467" stroke-width="0.5" stroke="black" fill="yellow"/>
  <circle cx="245.746" cy="877.718" r="6.34513" stroke-width="0.5" stroke="yellow" fill="yellow"/>
   </g>
   <g id="cell94">
  <circle cx="359.481" cy="92.8656" r="10.4258" stroke-width="0.5" stroke="black" fill="yellow"/>
  <circle cx="359.481" cy="92.8656" r="6.29005" stroke-width="0.5" stroke="yellow" fill="yellow"/>
   </g>
   <g id="cell95">
  <circle cx="961.107" cy="914.58" r="10.4489" stroke-width="0.5" stroke="black" fill="yellow"/>
  <circle cx="961.107" cy="914.58" r="6.30112" stroke-width="0.5" stroke="yellow" fill="yellow"/>
   </g>
   <g id="cell96">
  <circle cx="787.004" cy="544.047" r="10.4531" stroke-width="0.5" stroke="black" fill="yellow"/>
  <circle cx="787.004" cy="544.047" r="6.30312" stroke-width="0.5" stroke="yellow" fill="yellow"/>
   </g>
   <g id="cell97">
  <circle cx="430.826" cy="111.967" r="10.1374" stroke-width="0.5" stroke="black" fill="yellow"/>
  <circle cx="430.826" cy="111.967" r="6.14084" stroke-width="0.5" stroke="yellow" fill="yellow"/>
   </g>
   <g id="cell98">
  <circle cx="923.901" cy="382.027" r="10.2821" stroke-width="0.5" stroke="black" fill="yellow"/>
  <circle cx="923.901" cy="382.027" r="6.21778" stroke-width="0.5" stroke="yellow" fill="yellow"/>
   </g>
  </g>
 </g>
  <rect x="775" y="1035" width="200" height="10" stroke-width="2" stroke="rgb(255,255,255)" fill="rgb(0,0,0)"/>
  <text x="781.25" y="1028.75"
   font-family="Arial" font-size="25" fill="black" >
   200 &#956;m
  </text>
  <text x="25" y="1045"
   font-family="Arial" font-size="18.75" fill="black" >
   0 days, 0 hours, 0 minutes, and 58.4366 seconds
  </text>
  <rect x="0" y="70" width="1000" height="1000" stroke-width="2" stroke="rgb(0,0,0)" fill="none"/>
</svg>
