<?xml version="1.0" encoding="UTF-8" standalone="no"?>
<!-- Created with PhysiCell (http://PhysiCell.MathCancer.org/) -->
<svg 
 xmlns:dc="http://purl.org/dc/elements/1.1/" 
 xmlns:cc="http://creativecommons.org/ns#" 
 xmlns:rdf="http://www.w3.org/1999/02/22-rdf-syntax-ns#" 
 xmlns:svg="http://www.w3.org/2000/svg" 
 xmlns="http://www.w3.org/2000/svg" 
 version="1.1" 
 width="1000" 
 height="1070" 
 id="svg2">
  <rect x="0" y="0" width="1000" height="1070" stroke-width="2" stroke="white" fill="white"/>
  <text x="12.5" y="30"
   font-family="Arial" font-size="25" fill="black" >
   Current time: 0 days, 11 hours, and 30.00 minutes, z = 0.00 &#956;m
  </text>
  <text x="12.5" y="57.5"
   font-family="Arial" font-size="23.75" fill="black" >
   109 agents
  </text>
 <g id="tissue" 
    transform="translate(0,1070) scale(1,-1)">
  <g id="ECM">
  </g>
  <g id="cells">
   <g id="cell0">
  <circle cx="502.633" cy="597.569" r="10.4925" stroke-width="0.5" stroke="black" fill="grey"/>
  <circle cx="502.633" cy="597.569" r="6.32139" stroke-width="0.5" stroke="grey" fill="grey"/>
   </g>
   <g id="cell118">
  <circle cx="912.269" cy="611.969" r="10.4689" stroke-width="0.5" stroke="black" fill="yellow"/>
  <circle cx="912.269" cy="611.969" r="6.31053" stroke-width="0.5" stroke="yellow" fill="yellow"/>
   </g>
   <g id="cell2">
  <circle cx="550.341" cy="824.071" r="1.78597" stroke-width="0.5" stroke="black" fill="grey"/>
  <circle cx="550.341" cy="824.071" r="1.76568" stroke-width="0.5" stroke="black" fill="black"/>
   </g>
   <g id="cell3">
  <circle cx="609.436" cy="622.576" r="10.4689" stroke-width="0.5" stroke="black" fill="grey"/>
  <circle cx="609.436" cy="622.576" r="6.31053" stroke-width="0.5" stroke="grey" fill="grey"/>
   </g>
   <g id="cell4">
  <circle cx="415.352" cy="304.555" r="1.41604" stroke-width="0.5" stroke="black" fill="grey"/>
  <circle cx="415.352" cy="304.555" r="1.40242" stroke-width="0.5" stroke="black" fill="black"/>
   </g>
   <g id="cell5">
  <circle cx="75.5167" cy="967.659" r="2.7537" stroke-width="0.5" stroke="black" fill="grey"/>
  <circle cx="75.5167" cy="967.659" r="2.54485" stroke-width="0.5" stroke="black" fill="black"/>
   </g>
   <g id="cell6">
  <circle cx="396.999" cy="479.389" r="10.4984" stroke-width="0.5" stroke="black" fill="grey"/>
  <circle cx="396.999" cy="479.389" r="6.32406" stroke-width="0.5" stroke="grey" fill="grey"/>
   </g>
   <g id="cell7">
  <circle cx="863.295" cy="546.816" r="10.3873" stroke-width="0.5" stroke="black" fill="grey"/>
  <circle cx="863.295" cy="546.816" r="6.2712" stroke-width="0.5" stroke="grey" fill="grey"/>
   </g>
   <g id="cell8">
  <circle cx="585.407" cy="410.385" r="10.3247" stroke-width="0.5" stroke="black" fill="grey"/>
  <circle cx="585.407" cy="410.385" r="6.23971" stroke-width="0.5" stroke="grey" fill="grey"/>
   </g>
   <g id="cell112">
  <circle cx="758.259" cy="769.104" r="10.4531" stroke-width="0.5" stroke="black" fill="yellow"/>
  <circle cx="758.259" cy="769.104" r="6.30312" stroke-width="0.5" stroke="yellow" fill="yellow"/>
   </g>
   <g id="cell10">
  <circle cx="142.82" cy="647.63" r="10.4258" stroke-width="0.5" stroke="black" fill="grey"/>
  <circle cx="142.82" cy="647.63" r="6.29005" stroke-width="0.5" stroke="grey" fill="grey"/>
   </g>
   <g id="cell11">
  <circle cx="330.908" cy="821.719" r="10.1758" stroke-width="0.5" stroke="black" fill="grey"/>
  <circle cx="330.908" cy="821.719" r="6.16159" stroke-width="0.5" stroke="grey" fill="grey"/>
   </g>
   <g id="cell12">
  <circle cx="782.392" cy="134.503" r="1.38109" stroke-width="0.5" stroke="black" fill="grey"/>
  <circle cx="782.392" cy="134.503" r="1.3695" stroke-width="0.5" stroke="black" fill="black"/>
   </g>
   <g id="cell13">
  <circle cx="880.851" cy="956.12" r="1.51589" stroke-width="0.5" stroke="black" fill="grey"/>
  <circle cx="880.851" cy="956.12" r="1.50067" stroke-width="0.5" stroke="black" fill="black"/>
   </g>
   <g id="cell14">
  <circle cx="838.103" cy="829.667" r="1.95984" stroke-width="0.5" stroke="black" fill="grey"/>
  <circle cx="838.103" cy="829.667" r="1.92171" stroke-width="0.5" stroke="black" fill="black"/>
   </g>
   <g id="cell15">
  <circle cx="525.275" cy="767.583" r="1.97153" stroke-width="0.5" stroke="black" fill="grey"/>
  <circle cx="525.275" cy="767.583" r="1.93058" stroke-width="0.5" stroke="black" fill="black"/>
   </g>
   <g id="cell16">
  <circle cx="166.593" cy="750.363" r="10.4208" stroke-width="0.5" stroke="black" fill="grey"/>
  <circle cx="166.593" cy="750.363" r="6.28762" stroke-width="0.5" stroke="grey" fill="grey"/>
   </g>
   <g id="cell116">
  <circle cx="825.793" cy="480.5" r="9.41008" stroke-width="0.5" stroke="black" fill="yellow"/>
  <circle cx="825.793" cy="480.5" r="5.71981" stroke-width="0.5" stroke="yellow" fill="yellow"/>
   </g>
   <g id="cell18">
  <circle cx="960.568" cy="707.12" r="9.7992" stroke-width="0.5" stroke="black" fill="grey"/>
  <circle cx="960.568" cy="707.12" r="5.95086" stroke-width="0.5" stroke="grey" fill="grey"/>
   </g>
   <g id="cell19">
  <circle cx="91.6991" cy="418.138" r="1.51024" stroke-width="0.5" stroke="black" fill="grey"/>
  <circle cx="91.6991" cy="418.138" r="1.4939" stroke-width="0.5" stroke="black" fill="black"/>
   </g>
   <g id="cell20">
  <circle cx="234.556" cy="185.188" r="10.211" stroke-width="0.5" stroke="black" fill="grey"/>
  <circle cx="234.556" cy="185.188" r="6.18041" stroke-width="0.5" stroke="grey" fill="grey"/>
   </g>
   <g id="cell21">
  <circle cx="724.733" cy="441.273" r="1.56818" stroke-width="0.5" stroke="black" fill="grey"/>
  <circle cx="724.733" cy="441.273" r="1.54219" stroke-width="0.5" stroke="black" fill="black"/>
   </g>
   <g id="cell115">
  <circle cx="200.32" cy="18.2287" r="10.4156" stroke-width="0.5" stroke="black" fill="yellow"/>
  <circle cx="200.32" cy="18.2287" r="6.2851" stroke-width="0.5" stroke="yellow" fill="yellow"/>
   </g>
   <g id="cell23">
  <circle cx="303.9" cy="607.146" r="1.40563" stroke-width="0.5" stroke="black" fill="grey"/>
  <circle cx="303.9" cy="607.146" r="1.40036" stroke-width="0.5" stroke="black" fill="black"/>
   </g>
   <g id="cell24">
  <circle cx="608.109" cy="222.435" r="3.54164" stroke-width="0.5" stroke="black" fill="grey"/>
  <circle cx="608.109" cy="222.435" r="2.98833" stroke-width="0.5" stroke="black" fill="black"/>
   </g>
   <g id="cell25">
  <circle cx="391.324" cy="976.029" r="1.37564" stroke-width="0.5" stroke="black" fill="grey"/>
  <circle cx="391.324" cy="976.029" r="1.36569" stroke-width="0.5" stroke="black" fill="black"/>
   </g>
   <g id="cell26">
  <circle cx="631.286" cy="445.353" r="10.4651" stroke-width="0.5" stroke="black" fill="grey"/>
  <circle cx="631.286" cy="445.353" r="6.30877" stroke-width="0.5" stroke="grey" fill="grey"/>
   </g>
   <g id="cell117">
  <circle cx="888.804" cy="370.078" r="9.7273" stroke-width="0.5" stroke="black" fill="yellow"/>
  <circle cx="888.804" cy="370.078" r="5.90906" stroke-width="0.5" stroke="yellow" fill="yellow"/>
   </g>
   <g id="cell28">
  <circle cx="666.729" cy="147.674" r="10.4401" stroke-width="0.5" stroke="black" fill="grey"/>
  <circle cx="666.729" cy="147.674" r="6.29691" stroke-width="0.5" stroke="grey" fill="grey"/>
   </g>
   <g id="cell29">
  <circle cx="986.158" cy="684.179" r="10.4726" stroke-width="0.5" stroke="black" fill="grey"/>
  <circle cx="986.158" cy="684.179" r="6.31223" stroke-width="0.5" stroke="grey" fill="grey"/>
   </g>
   <g id="cell30">
  <circle cx="716.379" cy="170.265" r="9.59391" stroke-width="0.5" stroke="black" fill="grey"/>
  <circle cx="716.379" cy="170.265" r="5.83043" stroke-width="0.5" stroke="grey" fill="grey"/>
   </g>
   <g id="cell31">
  <circle cx="385.564" cy="108.334" r="10.211" stroke-width="0.5" stroke="black" fill="grey"/>
  <circle cx="385.564" cy="108.334" r="6.18041" stroke-width="0.5" stroke="grey" fill="grey"/>
   </g>
   <g id="cell114">
  <circle cx="23.6786" cy="340.75" r="10.2433" stroke-width="0.5" stroke="black" fill="yellow"/>
  <circle cx="23.6786" cy="340.75" r="6.19748" stroke-width="0.5" stroke="yellow" fill="yellow"/>
   </g>
   <g id="cell33">
  <circle cx="310.636" cy="554.328" r="1.47007" stroke-width="0.5" stroke="black" fill="grey"/>
  <circle cx="310.636" cy="554.328" r="1.46328" stroke-width="0.5" stroke="black" fill="black"/>
   </g>
   <g id="cell34">
  <circle cx="435.362" cy="649.251" r="1.28243" stroke-width="0.5" stroke="black" fill="grey"/>
  <circle cx="435.362" cy="649.251" r="1.27531" stroke-width="0.5" stroke="black" fill="black"/>
   </g>
   <g id="cell35">
  <circle cx="919.449" cy="86.3357" r="8.41271" stroke-width="0.5" stroke="black" fill="grey"/>
  <circle cx="919.449" cy="86.3357" r="5.05167" stroke-width="0.5" stroke="grey" fill="grey"/>
   </g>
   <g id="cell109">
  <circle cx="366.885" cy="943.791" r="10.2821" stroke-width="0.5" stroke="black" fill="yellow"/>
  <circle cx="366.885" cy="943.791" r="6.21778" stroke-width="0.5" stroke="yellow" fill="yellow"/>
   </g>
   <g id="cell111">
  <circle cx="770.571" cy="373.442" r="9.64936" stroke-width="0.5" stroke="black" fill="yellow"/>
  <circle cx="770.571" cy="373.442" r="5.86329" stroke-width="0.5" stroke="yellow" fill="yellow"/>
   </g>
   <g id="cell38">
  <circle cx="228.983" cy="445.784" r="2.66707" stroke-width="0.5" stroke="black" fill="grey"/>
  <circle cx="228.983" cy="445.784" r="2.4876" stroke-width="0.5" stroke="black" fill="black"/>
   </g>
   <g id="cell110">
  <circle cx="856.021" cy="231.885" r="8.41271" stroke-width="0.5" stroke="black" fill="yellow"/>
  <circle cx="856.021" cy="231.885" r="5.05167" stroke-width="0.5" stroke="yellow" fill="yellow"/>
   </g>
   <g id="cell40">
  <circle cx="178.24" cy="361.654" r="10.3991" stroke-width="0.5" stroke="black" fill="red"/>
  <circle cx="178.24" cy="361.654" r="6.27703" stroke-width="0.5" stroke="red" fill="red"/>
   </g>
   <g id="cell41">
  <circle cx="679.294" cy="671.435" r="10.4446" stroke-width="0.5" stroke="black" fill="red"/>
  <circle cx="679.294" cy="671.435" r="6.29905" stroke-width="0.5" stroke="red" fill="red"/>
   </g>
   <g id="cell42">
  <circle cx="162.042" cy="743.171" r="10.4446" stroke-width="0.5" stroke="black" fill="red"/>
  <circle cx="162.042" cy="743.171" r="6.29905" stroke-width="0.5" stroke="red" fill="red"/>
   </g>
   <g id="cell43">
  <circle cx="899.923" cy="370.363" r="10.2632" stroke-width="0.5" stroke="black" fill="red"/>
  <circle cx="899.923" cy="370.363" r="6.20796" stroke-width="0.5" stroke="red" fill="red"/>
   </g>
   <g id="cell44">
  <circle cx="816.621" cy="19.3253" r="10.3933" stroke-width="0.5" stroke="black" fill="red"/>
  <circle cx="816.621" cy="19.3253" r="6.27417" stroke-width="0.5" stroke="red" fill="red"/>
   </g>
   <g id="cell45">
  <circle cx="641.957" cy="835.433" r="10.0654" stroke-width="0.5" stroke="black" fill="red"/>
  <circle cx="641.957" cy="835.433" r="6.10145" stroke-width="0.5" stroke="red" fill="red"/>
   </g>
   <g id="cell46">
  <circle cx="56.0764" cy="911.794" r="10.4651" stroke-width="0.5" stroke="black" fill="red"/>
  <circle cx="56.0764" cy="911.794" r="6.30877" stroke-width="0.5" stroke="red" fill="red"/>
   </g>
   <g id="cell47">
  <circle cx="886.634" cy="436.43" r="10.4208" stroke-width="0.5" stroke="black" fill="red"/>
  <circle cx="886.634" cy="436.43" r="6.28762" stroke-width="0.5" stroke="red" fill="red"/>
   </g>
   <g id="cell48">
  <circle cx="936.721" cy="52.9137" r="10.4796" stroke-width="0.5" stroke="black" fill="red"/>
  <circle cx="936.721" cy="52.9137" r="6.31548" stroke-width="0.5" stroke="red" fill="red"/>
   </g>
   <g id="cell49">
  <circle cx="470.04" cy="782.565" r="10.2728" stroke-width="0.5" stroke="black" fill="red"/>
  <circle cx="470.04" cy="782.565" r="6.21295" stroke-width="0.5" stroke="red" fill="red"/>
   </g>
   <g id="cell50">
  <circle cx="16.7373" cy="457.018" r="10.4984" stroke-width="0.5" stroke="black" fill="red"/>
  <circle cx="16.7373" cy="457.018" r="6.32406" stroke-width="0.5" stroke="red" fill="red"/>
   </g>
   <g id="cell51">
  <circle cx="980.361" cy="144.99" r="10.483" stroke-width="0.5" stroke="black" fill="red"/>
  <circle cx="980.361" cy="144.99" r="6.31703" stroke-width="0.5" stroke="red" fill="red"/>
   </g>
   <g id="cell52">
  <circle cx="289.862" cy="499.505" r="1.69814" stroke-width="0.5" stroke="black" fill="red"/>
  <circle cx="289.862" cy="499.505" r="1.65609" stroke-width="0.5" stroke="black" fill="black"/>
   </g>
   <g id="cell53">
  <circle cx="683.051" cy="349.303" r="10.4651" stroke-width="0.5" stroke="black" fill="red"/>
  <circle cx="683.051" cy="349.303" r="6.30877" stroke-width="0.5" stroke="red" fill="red"/>
   </g>
   <g id="cell54">
  <circle cx="444.486" cy="931.53" r="10.3247" stroke-width="0.5" stroke="black" fill="red"/>
  <circle cx="444.486" cy="931.53" r="6.23971" stroke-width="0.5" stroke="red" fill="red"/>
   </g>
   <g id="cell55">
  <circle cx="253.92" cy="706.149" r="8.88811" stroke-width="0.5" stroke="black" fill="red"/>
  <circle cx="253.92" cy="706.149" r="5.38958" stroke-width="0.5" stroke="red" fill="red"/>
   </g>
   <g id="cell56">
  <circle cx="543.111" cy="791.591" r="10.4048" stroke-width="0.5" stroke="black" fill="red"/>
  <circle cx="543.111" cy="791.591" r="6.27981" stroke-width="0.5" stroke="red" fill="red"/>
   </g>
   <g id="cell57">
  <circle cx="485.092" cy="555.15" r="10.4355" stroke-width="0.5" stroke="black" fill="red"/>
  <circle cx="485.092" cy="555.15" r="6.2947" stroke-width="0.5" stroke="red" fill="red"/>
   </g>
   <g id="cell58">
  <circle cx="66.6412" cy="926.94" r="10.3325" stroke-width="0.5" stroke="black" fill="red"/>
  <circle cx="66.6412" cy="926.94" r="6.24369" stroke-width="0.5" stroke="red" fill="red"/>
   </g>
   <g id="cell59">
  <circle cx="90.7359" cy="936.931" r="10.2821" stroke-width="0.5" stroke="black" fill="red"/>
  <circle cx="90.7359" cy="936.931" r="6.21778" stroke-width="0.5" stroke="red" fill="red"/>
   </g>
   <g id="cell60">
  <circle cx="293.037" cy="53.6627" r="10.211" stroke-width="0.5" stroke="black" fill="red"/>
  <circle cx="293.037" cy="53.6627" r="6.18041" stroke-width="0.5" stroke="red" fill="red"/>
   </g>
   <g id="cell61">
  <circle cx="841.901" cy="134.029" r="10.3325" stroke-width="0.5" stroke="black" fill="red"/>
  <circle cx="841.901" cy="134.029" r="6.24369" stroke-width="0.5" stroke="red" fill="red"/>
   </g>
   <g id="cell62">
  <circle cx="710.739" cy="825.518" r="8.41271" stroke-width="0.5" stroke="black" fill="red"/>
  <circle cx="710.739" cy="825.518" r="5.05167" stroke-width="0.5" stroke="red" fill="red"/>
   </g>
   <g id="cell63">
  <circle cx="302.719" cy="205.625" r="10.4258" stroke-width="0.5" stroke="black" fill="red"/>
  <circle cx="302.719" cy="205.625" r="6.29005" stroke-width="0.5" stroke="red" fill="red"/>
   </g>
   <g id="cell64">
  <circle cx="569.552" cy="559.535" r="8.41271" stroke-width="0.5" stroke="black" fill="red"/>
  <circle cx="569.552" cy="559.535" r="5.05167" stroke-width="0.5" stroke="red" fill="red"/>
   </g>
   <g id="cell65">
  <circle cx="216.457" cy="842.549" r="9.5651" stroke-width="0.5" stroke="black" fill="red"/>
  <circle cx="216.457" cy="842.549" r="5.81327" stroke-width="0.5" stroke="red" fill="red"/>
   </g>
   <g id="cell66">
  <circle cx="40.5655" cy="153.477" r="10.1238" stroke-width="0.5" stroke="black" fill="red"/>
  <circle cx="40.5655" cy="153.477" r="6.13347" stroke-width="0.5" stroke="red" fill="red"/>
   </g>
   <g id="cell67">
  <circle cx="530.635" cy="263.146" r="10.0654" stroke-width="0.5" stroke="black" fill="red"/>
  <circle cx="530.635" cy="263.146" r="6.10145" stroke-width="0.5" stroke="red" fill="red"/>
   </g>
   <g id="cell68">
  <circle cx="764.206" cy="279.838" r="10.4531" stroke-width="0.5" stroke="black" fill="red"/>
  <circle cx="764.206" cy="279.838" r="6.30312" stroke-width="0.5" stroke="red" fill="red"/>
   </g>
   <g id="cell69">
  <circle cx="446.1" cy="273.781" r="10.211" stroke-width="0.5" stroke="black" fill="red"/>
  <circle cx="446.1" cy="273.781" r="6.18041" stroke-width="0.5" stroke="red" fill="red"/>
   </g>
   <g id="cell70">
  <circle cx="557.681" cy="384.656" r="10.2821" stroke-width="0.5" stroke="black" fill="red"/>
  <circle cx="557.681" cy="384.656" r="6.21778" stroke-width="0.5" stroke="red" fill="red"/>
   </g>
   <g id="cell71">
  <circle cx="878.173" cy="513.724" r="10.4796" stroke-width="0.5" stroke="black" fill="red"/>
  <circle cx="878.173" cy="513.724" r="6.31548" stroke-width="0.5" stroke="red" fill="red"/>
   </g>
   <g id="cell72">
  <circle cx="221.422" cy="877.052" r="10.4102" stroke-width="0.5" stroke="black" fill="red"/>
  <circle cx="221.422" cy="877.052" r="6.2825" stroke-width="0.5" stroke="red" fill="red"/>
   </g>
   <g id="cell73">
  <circle cx="678.396" cy="467.412" r="10.4573" stroke-width="0.5" stroke="black" fill="red"/>
  <circle cx="678.396" cy="467.412" r="6.30507" stroke-width="0.5" stroke="red" fill="red"/>
   </g>
   <g id="cell74">
  <circle cx="836.189" cy="971.368" r="10.3247" stroke-width="0.5" stroke="black" fill="red"/>
  <circle cx="836.189" cy="971.368" r="6.23971" stroke-width="0.5" stroke="red" fill="red"/>
   </g>
   <g id="cell75">
  <circle cx="98.525" cy="323.448" r="10.4489" stroke-width="0.5" stroke="black" fill="red"/>
  <circle cx="98.525" cy="323.448" r="6.30112" stroke-width="0.5" stroke="red" fill="red"/>
   </g>
   <g id="cell76">
  <circle cx="803.439" cy="397.526" r="10.3084" stroke-width="0.5" stroke="black" fill="red"/>
  <circle cx="803.439" cy="397.526" r="6.23137" stroke-width="0.5" stroke="red" fill="red"/>
   </g>
   <g id="cell77">
  <circle cx="636.519" cy="842.458" r="10.3873" stroke-width="0.5" stroke="black" fill="red"/>
  <circle cx="636.519" cy="842.458" r="6.2712" stroke-width="0.5" stroke="red" fill="red"/>
   </g>
   <g id="cell78">
  <circle cx="607.205" cy="283.905" r="10.3474" stroke-width="0.5" stroke="black" fill="red"/>
  <circle cx="607.205" cy="283.905" r="6.25125" stroke-width="0.5" stroke="red" fill="red"/>
   </g>
   <g id="cell79">
  <circle cx="959.131" cy="700.595" r="10.0806" stroke-width="0.5" stroke="black" fill="red"/>
  <circle cx="959.131" cy="700.595" r="6.10985" stroke-width="0.5" stroke="red" fill="red"/>
   </g>
   <g id="cell80">
  <circle cx="749.028" cy="686.589" r="8.41271" stroke-width="0.5" stroke="black" fill="yellow"/>
  <circle cx="749.028" cy="686.589" r="5.05167" stroke-width="0.5" stroke="yellow" fill="yellow"/>
   </g>
   <g id="cell81">
  <circle cx="500.351" cy="981.617" r="8.41271" stroke-width="0.5" stroke="black" fill="yellow"/>
  <circle cx="500.351" cy="981.617" r="5.05167" stroke-width="0.5" stroke="yellow" fill="yellow"/>
   </g>
   <g id="cell82">
  <circle cx="668.868" cy="421.938" r="10.4208" stroke-width="0.5" stroke="black" fill="yellow"/>
  <circle cx="668.868" cy="421.938" r="6.28762" stroke-width="0.5" stroke="yellow" fill="yellow"/>
   </g>
   <g id="cell83">
  <circle cx="604.521" cy="580.83" r="10.3811" stroke-width="0.5" stroke="black" fill="yellow"/>
  <circle cx="604.521" cy="580.83" r="6.26814" stroke-width="0.5" stroke="yellow" fill="yellow"/>
   </g>
   <g id="cell84">
  <circle cx="21.7114" cy="476.138" r="10.1238" stroke-width="0.5" stroke="black" fill="yellow"/>
  <circle cx="21.7114" cy="476.138" r="6.13347" stroke-width="0.5" stroke="yellow" fill="yellow"/>
   </g>
   <g id="cell85">
  <circle cx="735.082" cy="661.763" r="10.4573" stroke-width="0.5" stroke="black" fill="yellow"/>
  <circle cx="735.082" cy="661.763" r="6.30507" stroke-width="0.5" stroke="yellow" fill="yellow"/>
   </g>
   <g id="cell86">
  <circle cx="268.824" cy="436.95" r="9.77588" stroke-width="0.5" stroke="black" fill="yellow"/>
  <circle cx="268.824" cy="436.95" r="5.93735" stroke-width="0.5" stroke="yellow" fill="yellow"/>
   </g>
   <g id="cell87">
  <circle cx="774.523" cy="422.07" r="10.4925" stroke-width="0.5" stroke="black" fill="yellow"/>
  <circle cx="774.523" cy="422.07" r="6.32139" stroke-width="0.5" stroke="yellow" fill="yellow"/>
   </g>
   <g id="cell88">
  <circle cx="153.634" cy="96.1301" r="10.3615" stroke-width="0.5" stroke="black" fill="yellow"/>
  <circle cx="153.634" cy="96.1301" r="6.25834" stroke-width="0.5" stroke="yellow" fill="yellow"/>
   </g>
   <g id="cell89">
  <circle cx="56.8912" cy="558.731" r="9.92631" stroke-width="0.5" stroke="black" fill="yellow"/>
  <circle cx="56.8912" cy="558.731" r="6.02363" stroke-width="0.5" stroke="yellow" fill="yellow"/>
   </g>
   <g id="cell119">
  <circle cx="563.688" cy="32.4043" r="9.90658" stroke-width="0.5" stroke="black" fill="yellow"/>
  <circle cx="563.688" cy="32.4043" r="6.01243" stroke-width="0.5" stroke="yellow" fill="yellow"/>
   </g>
   <g id="cell91">
  <circle cx="49.7374" cy="649.406" r="10.1098" stroke-width="0.5" stroke="black" fill="yellow"/>
  <circle cx="49.7374" cy="649.406" r="6.12585" stroke-width="0.5" stroke="yellow" fill="yellow"/>
   </g>
   <g id="cell92">
  <circle cx="641.336" cy="302.18" r="10.3474" stroke-width="0.5" stroke="black" fill="yellow"/>
  <circle cx="641.336" cy="302.18" r="6.25125" stroke-width="0.5" stroke="yellow" fill="yellow"/>
   </g>
   <g id="cell93">
  <circle cx="219.42" cy="890.58" r="10.4925" stroke-width="0.5" stroke="black" fill="yellow"/>
  <circle cx="219.42" cy="890.58" r="6.32139" stroke-width="0.5" stroke="yellow" fill="yellow"/>
   </g>
   <g id="cell94">
  <circle cx="380.424" cy="89.7379" r="10.2433" stroke-width="0.5" stroke="black" fill="yellow"/>
  <circle cx="380.424" cy="89.7379" r="6.19748" stroke-width="0.5" stroke="yellow" fill="yellow"/>
   </g>
   <g id="cell95">
  <circle cx="952.641" cy="892.752" r="10.2911" stroke-width="0.5" stroke="black" fill="yellow"/>
  <circle cx="952.641" cy="892.752" r="6.22246" stroke-width="0.5" stroke="yellow" fill="yellow"/>
   </g>
   <g id="cell96">
  <circle cx="790.258" cy="546.708" r="10.2999" stroke-width="0.5" stroke="black" fill="yellow"/>
  <circle cx="790.258" cy="546.708" r="6.22699" stroke-width="0.5" stroke="yellow" fill="yellow"/>
   </g>
   <g id="cell97">
  <circle cx="435.027" cy="127.177" r="9.64936" stroke-width="0.5" stroke="black" fill="yellow"/>
  <circle cx="435.027" cy="127.177" r="5.86329" stroke-width="0.5" stroke="yellow" fill="yellow"/>
   </g>
   <g id="cell98">
  <circle cx="940.094" cy="365.067" r="9.94548" stroke-width="0.5" stroke="black" fill="yellow"/>
  <circle cx="940.094" cy="365.067" r="6.03448" stroke-width="0.5" stroke="yellow" fill="yellow"/>
   </g>
   <g id="cell99">
  <circle cx="519.328" cy="987.859" r="10.0654" stroke-width="0.5" stroke="black" fill="yellow"/>
  <circle cx="519.328" cy="987.859" r="6.10145" stroke-width="0.5" stroke="yellow" fill="yellow"/>
   </g>
   <g id="cell100">
  <circle cx="160.173" cy="839.161" r="10.4613" stroke-width="0.5" stroke="black" fill="yellow"/>
  <circle cx="160.173" cy="839.161" r="6.30695" stroke-width="0.5" stroke="yellow" fill="yellow"/>
   </g>
   <g id="cell101">
  <circle cx="89.6399" cy="148.714" r="8.41271" stroke-width="0.5" stroke="black" fill="yellow"/>
  <circle cx="89.6399" cy="148.714" r="5.05167" stroke-width="0.5" stroke="yellow" fill="yellow"/>
   </g>
   <g id="cell102">
  <circle cx="623.582" cy="175.97" r="10.2999" stroke-width="0.5" stroke="black" fill="yellow"/>
  <circle cx="623.582" cy="175.97" r="6.22699" stroke-width="0.5" stroke="yellow" fill="yellow"/>
   </g>
   <g id="cell103">
  <circle cx="837.231" cy="862.852" r="8.41271" stroke-width="0.5" stroke="black" fill="yellow"/>
  <circle cx="837.231" cy="862.852" r="5.05167" stroke-width="0.5" stroke="yellow" fill="yellow"/>
   </g>
   <g id="cell104">
  <circle cx="804.482" cy="408.146" r="10.4862" stroke-width="0.5" stroke="black" fill="yellow"/>
  <circle cx="804.482" cy="408.146" r="6.31853" stroke-width="0.5" stroke="yellow" fill="yellow"/>
   </g>
   <g id="cell105">
  <circle cx="117.031" cy="421.484" r="8.41271" stroke-width="0.5" stroke="black" fill="yellow"/>
  <circle cx="117.031" cy="421.484" r="5.05167" stroke-width="0.5" stroke="yellow" fill="yellow"/>
   </g>
   <g id="cell106">
  <circle cx="37.555" cy="977.57" r="10.4489" stroke-width="0.5" stroke="black" fill="yellow"/>
  <circle cx="37.555" cy="977.57" r="6.30112" stroke-width="0.5" stroke="yellow" fill="yellow"/>
   </g>
   <g id="cell107">
  <circle cx="384.526" cy="443.825" r="8.41271" stroke-width="0.5" stroke="black" fill="yellow"/>
  <circle cx="384.526" cy="443.825" r="5.05167" stroke-width="0.5" stroke="yellow" fill="yellow"/>
   </g>
   <g id="cell108">
  <circle cx="707.497" cy="30.8536" r="10.4894" stroke-width="0.5" stroke="black" fill="yellow"/>
  <circle cx="707.497" cy="30.8536" r="6.31998" stroke-width="0.5" stroke="yellow" fill="yellow"/>
   </g>
  </g>
 </g>
  <rect x="775" y="1035" width="200" height="10" stroke-width="2" stroke="rgb(255,255,255)" fill="rgb(0,0,0)"/>
  <text x="781.25" y="1028.75"
   font-family="Arial" font-size="25" fill="black" >
   200 &#956;m
  </text>
  <text x="25" y="1045"
   font-family="Arial" font-size="18.75" fill="black" >
   0 days, 0 hours, 0 minutes, and 47.2712 seconds
  </text>
  <rect x="0" y="70" width="1000" height="1000" stroke-width="2" stroke="rgb(0,0,0)" fill="none"/>
</svg>
