<?xml version="1.0" encoding="UTF-8" standalone="no"?>
<!-- Created with PhysiCell (http://PhysiCell.MathCancer.org/) -->
<svg 
 xmlns:dc="http://purl.org/dc/elements/1.1/" 
 xmlns:cc="http://creativecommons.org/ns#" 
 xmlns:rdf="http://www.w3.org/1999/02/22-rdf-syntax-ns#" 
 xmlns:svg="http://www.w3.org/2000/svg" 
 xmlns="http://www.w3.org/2000/svg" 
 version="1.1" 
 width="1000" 
 height="1070" 
 id="svg2">
  <rect x="0" y="0" width="1000" height="1070" stroke-width="2" stroke="white" fill="white"/>
  <text x="12.5" y="30"
   font-family="Arial" font-size="25" fill="black" >
   Current time: 1 days, 5 hours, and 0.00 minutes, z = 0.00 &#956;m
  </text>
  <text x="12.5" y="57.5"
   font-family="Arial" font-size="23.75" fill="black" >
   162 agents
  </text>
 <g id="tissue" 
    transform="translate(0,1070) scale(1,-1)">
  <g id="ECM">
  </g>
  <g id="cells">
   <g id="cell0">
  <circle cx="502.208" cy="622.777" r="10.531" stroke-width="0.5" stroke="black" fill="grey"/>
  <circle cx="502.208" cy="622.777" r="6.33857" stroke-width="0.5" stroke="grey" fill="grey"/>
   </g>
   <g id="cell118">
  <circle cx="841.341" cy="578.264" r="8.41194" stroke-width="0.5" stroke="black" fill="yellow"/>
  <circle cx="841.341" cy="578.264" r="5.05148" stroke-width="0.5" stroke="yellow" fill="yellow"/>
   </g>
   <g id="cell100">
  <circle cx="129.973" cy="800.916" r="10.5249" stroke-width="0.5" stroke="black" fill="yellow"/>
  <circle cx="129.973" cy="800.916" r="6.33594" stroke-width="0.5" stroke="yellow" fill="yellow"/>
   </g>
   <g id="cell3">
  <circle cx="642.98" cy="645.754" r="10.5061" stroke-width="0.5" stroke="black" fill="grey"/>
  <circle cx="642.98" cy="645.754" r="6.32765" stroke-width="0.5" stroke="grey" fill="grey"/>
   </g>
   <g id="cell103">
  <circle cx="811.719" cy="874.351" r="8.38532" stroke-width="0.5" stroke="black" fill="yellow"/>
  <circle cx="811.719" cy="874.351" r="5.04199" stroke-width="0.5" stroke="yellow" fill="yellow"/>
   </g>
   <g id="cell135">
  <circle cx="131.968" cy="807.105" r="10.3927" stroke-width="0.5" stroke="black" fill="yellow"/>
  <circle cx="131.968" cy="807.105" r="6.27403" stroke-width="0.5" stroke="yellow" fill="yellow"/>
   </g>
   <g id="cell185">
  <circle cx="862.278" cy="397.726" r="9.96151" stroke-width="0.5" stroke="black" fill="yellow"/>
  <circle cx="862.278" cy="397.726" r="6.04421" stroke-width="0.5" stroke="yellow" fill="yellow"/>
   </g>
   <g id="cell7">
  <circle cx="850.721" cy="483.027" r="10.4718" stroke-width="0.5" stroke="black" fill="grey"/>
  <circle cx="850.721" cy="483.027" r="6.31203" stroke-width="0.5" stroke="grey" fill="grey"/>
   </g>
   <g id="cell192">
  <circle cx="818.879" cy="417.816" r="8.88223" stroke-width="0.5" stroke="black" fill="yellow"/>
  <circle cx="818.879" cy="417.816" r="5.38769" stroke-width="0.5" stroke="yellow" fill="yellow"/>
   </g>
   <g id="cell112">
  <circle cx="749.733" cy="728.273" r="2.34166" stroke-width="0.5" stroke="black" fill="yellow"/>
  <circle cx="749.733" cy="728.273" r="2.12518" stroke-width="0.5" stroke="black" fill="black"/>
   </g>
   <g id="cell176">
  <circle cx="271.962" cy="56.2128" r="9.8638" stroke-width="0.5" stroke="black" fill="red"/>
  <circle cx="271.962" cy="56.2128" r="5.98849" stroke-width="0.5" stroke="red" fill="red"/>
   </g>
   <g id="cell186">
  <circle cx="66.8078" cy="541.983" r="8.40895" stroke-width="0.5" stroke="black" fill="yellow"/>
  <circle cx="66.8078" cy="541.983" r="5.05061" stroke-width="0.5" stroke="yellow" fill="yellow"/>
   </g>
   <g id="cell104">
  <circle cx="757.921" cy="415.805" r="10.5088" stroke-width="0.5" stroke="black" fill="yellow"/>
  <circle cx="757.921" cy="415.805" r="6.32882" stroke-width="0.5" stroke="yellow" fill="yellow"/>
   </g>
   <g id="cell102">
  <circle cx="607.719" cy="165.477" r="10.2522" stroke-width="0.5" stroke="black" fill="yellow"/>
  <circle cx="607.719" cy="165.477" r="6.20249" stroke-width="0.5" stroke="yellow" fill="yellow"/>
   </g>
   <g id="cell98">
  <circle cx="876.358" cy="369.264" r="10.0781" stroke-width="0.5" stroke="black" fill="yellow"/>
  <circle cx="876.358" cy="369.264" r="6.10909" stroke-width="0.5" stroke="yellow" fill="yellow"/>
   </g>
   <g id="cell97">
  <circle cx="415.589" cy="96.9794" r="9.96037" stroke-width="0.5" stroke="black" fill="yellow"/>
  <circle cx="415.589" cy="96.9794" r="6.04383" stroke-width="0.5" stroke="yellow" fill="yellow"/>
   </g>
   <g id="cell16">
  <circle cx="131.186" cy="708.3" r="3.07237" stroke-width="0.5" stroke="black" fill="grey"/>
  <circle cx="131.186" cy="708.3" r="2.74193" stroke-width="0.5" stroke="black" fill="black"/>
   </g>
   <g id="cell116">
  <circle cx="825.726" cy="416.243" r="9.1193" stroke-width="0.5" stroke="black" fill="yellow"/>
  <circle cx="825.726" cy="416.243" r="5.541" stroke-width="0.5" stroke="yellow" fill="yellow"/>
   </g>
   <g id="cell177">
  <circle cx="448.793" cy="277.631" r="8.48071" stroke-width="0.5" stroke="black" fill="red"/>
  <circle cx="448.793" cy="277.631" r="5.10258" stroke-width="0.5" stroke="red" fill="red"/>
   </g>
   <g id="cell101">
  <circle cx="95.8154" cy="148.764" r="8.39708" stroke-width="0.5" stroke="black" fill="yellow"/>
  <circle cx="95.8154" cy="148.764" r="5.0465" stroke-width="0.5" stroke="yellow" fill="yellow"/>
   </g>
   <g id="cell184">
  <circle cx="525.751" cy="299.607" r="10.3064" stroke-width="0.5" stroke="black" fill="red"/>
  <circle cx="525.751" cy="299.607" r="6.2308" stroke-width="0.5" stroke="red" fill="red"/>
   </g>
   <g id="cell99">
  <circle cx="490.351" cy="984.792" r="10.22" stroke-width="0.5" stroke="black" fill="yellow"/>
  <circle cx="490.351" cy="984.792" r="6.1857" stroke-width="0.5" stroke="yellow" fill="yellow"/>
   </g>
   <g id="cell115">
  <circle cx="220.091" cy="21.6321" r="10.3866" stroke-width="0.5" stroke="black" fill="yellow"/>
  <circle cx="220.091" cy="21.6321" r="6.27102" stroke-width="0.5" stroke="yellow" fill="yellow"/>
   </g>
   <g id="cell191">
  <circle cx="742.197" cy="137.283" r="9.81781" stroke-width="0.5" stroke="black" fill="grey"/>
  <circle cx="742.197" cy="137.283" r="5.96268" stroke-width="0.5" stroke="grey" fill="grey"/>
   </g>
   <g id="cell153">
  <circle cx="189.887" cy="384.18" r="10.4605" stroke-width="0.5" stroke="black" fill="red"/>
  <circle cx="189.887" cy="384.18" r="6.30675" stroke-width="0.5" stroke="red" fill="red"/>
   </g>
   <g id="cell105">
  <circle cx="58.029" cy="400.525" r="8.40881" stroke-width="0.5" stroke="black" fill="yellow"/>
  <circle cx="58.029" cy="400.525" r="5.0573" stroke-width="0.5" stroke="yellow" fill="yellow"/>
   </g>
   <g id="cell26">
  <circle cx="675.114" cy="475.281" r="2.19936" stroke-width="0.5" stroke="black" fill="grey"/>
  <circle cx="675.114" cy="475.281" r="2.13078" stroke-width="0.5" stroke="black" fill="black"/>
   </g>
   <g id="cell117">
  <circle cx="882.094" cy="371.54" r="8.40788" stroke-width="0.5" stroke="black" fill="yellow"/>
  <circle cx="882.094" cy="371.54" r="5.05027" stroke-width="0.5" stroke="yellow" fill="yellow"/>
   </g>
   <g id="cell28">
  <circle cx="697.081" cy="114.608" r="8.41177" stroke-width="0.5" stroke="black" fill="grey"/>
  <circle cx="697.081" cy="114.608" r="5.05144" stroke-width="0.5" stroke="grey" fill="grey"/>
   </g>
   <g id="cell29">
  <circle cx="950.465" cy="637.406" r="10.2723" stroke-width="0.5" stroke="black" fill="grey"/>
  <circle cx="950.465" cy="637.406" r="6.21283" stroke-width="0.5" stroke="grey" fill="grey"/>
   </g>
   <g id="cell30">
  <circle cx="756.567" cy="125.468" r="8.45056" stroke-width="0.5" stroke="black" fill="grey"/>
  <circle cx="756.567" cy="125.468" r="5.08133" stroke-width="0.5" stroke="grey" fill="grey"/>
   </g>
   <g id="cell190">
  <circle cx="455.836" cy="105.913" r="8.40745" stroke-width="0.5" stroke="black" fill="yellow"/>
  <circle cx="455.836" cy="105.913" r="5.05013" stroke-width="0.5" stroke="yellow" fill="yellow"/>
   </g>
   <g id="cell114">
  <circle cx="65.6453" cy="364.335" r="10.1982" stroke-width="0.5" stroke="black" fill="yellow"/>
  <circle cx="65.6453" cy="364.335" r="6.17396" stroke-width="0.5" stroke="yellow" fill="yellow"/>
   </g>
   <g id="cell107">
  <circle cx="376.572" cy="476.124" r="8.39571" stroke-width="0.5" stroke="black" fill="yellow"/>
  <circle cx="376.572" cy="476.124" r="5.04599" stroke-width="0.5" stroke="yellow" fill="yellow"/>
   </g>
   <g id="cell106">
  <circle cx="17.4002" cy="918.385" r="10.4949" stroke-width="0.5" stroke="black" fill="yellow"/>
  <circle cx="17.4002" cy="918.385" r="6.3226" stroke-width="0.5" stroke="yellow" fill="yellow"/>
   </g>
   <g id="cell35">
  <circle cx="949.737" cy="68.785" r="10.5596" stroke-width="0.5" stroke="black" fill="grey"/>
  <circle cx="949.737" cy="68.785" r="6.35043" stroke-width="0.5" stroke="grey" fill="grey"/>
   </g>
   <g id="cell109">
  <circle cx="368.572" cy="986.235" r="9.53415" stroke-width="0.5" stroke="black" fill="yellow"/>
  <circle cx="368.572" cy="986.235" r="5.7952" stroke-width="0.5" stroke="yellow" fill="yellow"/>
   </g>
   <g id="cell111">
  <circle cx="781.544" cy="396.818" r="8.40745" stroke-width="0.5" stroke="black" fill="yellow"/>
  <circle cx="781.544" cy="396.818" r="5.05013" stroke-width="0.5" stroke="yellow" fill="yellow"/>
   </g>
   <g id="cell131">
  <circle cx="634.033" cy="592.358" r="10.435" stroke-width="0.5" stroke="black" fill="grey"/>
  <circle cx="634.033" cy="592.358" r="6.29457" stroke-width="0.5" stroke="grey" fill="grey"/>
   </g>
   <g id="cell110">
  <circle cx="869.956" cy="274.189" r="8.39316" stroke-width="0.5" stroke="black" fill="yellow"/>
  <circle cx="869.956" cy="274.189" r="5.04503" stroke-width="0.5" stroke="yellow" fill="yellow"/>
   </g>
   <g id="cell40">
  <circle cx="168.394" cy="402.846" r="10.425" stroke-width="0.5" stroke="black" fill="red"/>
  <circle cx="168.394" cy="402.846" r="6.28986" stroke-width="0.5" stroke="red" fill="red"/>
   </g>
   <g id="cell41">
  <circle cx="692.332" cy="704.431" r="10.4526" stroke-width="0.5" stroke="black" fill="red"/>
  <circle cx="692.332" cy="704.431" r="6.30298" stroke-width="0.5" stroke="red" fill="red"/>
   </g>
   <g id="cell42">
  <circle cx="160.014" cy="720.817" r="10.3241" stroke-width="0.5" stroke="black" fill="red"/>
  <circle cx="160.014" cy="720.817" r="6.23956" stroke-width="0.5" stroke="red" fill="red"/>
   </g>
   <g id="cell43">
  <circle cx="856.977" cy="392.668" r="10.3234" stroke-width="0.5" stroke="black" fill="red"/>
  <circle cx="856.977" cy="392.668" r="6.23936" stroke-width="0.5" stroke="red" fill="red"/>
   </g>
   <g id="cell44">
  <circle cx="841.114" cy="46.2162" r="10.3392" stroke-width="0.5" stroke="black" fill="red"/>
  <circle cx="841.114" cy="46.2162" r="6.24732" stroke-width="0.5" stroke="red" fill="red"/>
   </g>
   <g id="cell45">
  <circle cx="681.932" cy="812.53" r="9.16027" stroke-width="0.5" stroke="black" fill="red"/>
  <circle cx="681.932" cy="812.53" r="5.566" stroke-width="0.5" stroke="red" fill="red"/>
   </g>
   <g id="cell46">
  <circle cx="44.464" cy="910.166" r="8.84716" stroke-width="0.5" stroke="black" fill="red"/>
  <circle cx="44.464" cy="910.166" r="5.36258" stroke-width="0.5" stroke="red" fill="red"/>
   </g>
   <g id="cell47">
  <circle cx="880.024" cy="458.694" r="10.4096" stroke-width="0.5" stroke="black" fill="red"/>
  <circle cx="880.024" cy="458.694" r="6.28232" stroke-width="0.5" stroke="red" fill="red"/>
   </g>
   <g id="cell48">
  <circle cx="934.245" cy="37.3713" r="10.5137" stroke-width="0.5" stroke="black" fill="red"/>
  <circle cx="934.245" cy="37.3713" r="6.33102" stroke-width="0.5" stroke="red" fill="red"/>
   </g>
   <g id="cell49">
  <circle cx="471.637" cy="790.883" r="10.1361" stroke-width="0.5" stroke="black" fill="red"/>
  <circle cx="471.637" cy="790.883" r="6.14049" stroke-width="0.5" stroke="red" fill="red"/>
   </g>
   <g id="cell50">
  <circle cx="34.9346" cy="442.156" r="10.3743" stroke-width="0.5" stroke="black" fill="red"/>
  <circle cx="34.9346" cy="442.156" r="6.26489" stroke-width="0.5" stroke="red" fill="red"/>
   </g>
   <g id="cell51">
  <circle cx="872.538" cy="133.98" r="10.4858" stroke-width="0.5" stroke="black" fill="red"/>
  <circle cx="872.538" cy="133.98" r="6.31842" stroke-width="0.5" stroke="red" fill="red"/>
   </g>
   <g id="cell96">
  <circle cx="831.887" cy="562.626" r="10.4036" stroke-width="0.5" stroke="black" fill="yellow"/>
  <circle cx="831.887" cy="562.626" r="6.27951" stroke-width="0.5" stroke="yellow" fill="yellow"/>
   </g>
   <g id="cell53">
  <circle cx="688.533" cy="288.603" r="10.5184" stroke-width="0.5" stroke="black" fill="red"/>
  <circle cx="688.533" cy="288.603" r="6.33308" stroke-width="0.5" stroke="red" fill="red"/>
   </g>
   <g id="cell54">
  <circle cx="419.984" cy="904.002" r="8.41112" stroke-width="0.5" stroke="black" fill="red"/>
  <circle cx="419.984" cy="904.002" r="5.05126" stroke-width="0.5" stroke="red" fill="red"/>
   </g>
   <g id="cell55">
  <circle cx="200.052" cy="660.014" r="8.403" stroke-width="0.5" stroke="black" fill="red"/>
  <circle cx="200.052" cy="660.014" r="5.04863" stroke-width="0.5" stroke="red" fill="red"/>
   </g>
   <g id="cell56">
  <circle cx="621.32" cy="833.856" r="10.4524" stroke-width="0.5" stroke="black" fill="red"/>
  <circle cx="621.32" cy="833.856" r="6.30294" stroke-width="0.5" stroke="red" fill="red"/>
   </g>
   <g id="cell57">
  <circle cx="487.511" cy="516.946" r="10.4683" stroke-width="0.5" stroke="black" fill="red"/>
  <circle cx="487.511" cy="516.946" r="6.31037" stroke-width="0.5" stroke="red" fill="red"/>
   </g>
   <g id="cell58">
  <circle cx="17.3539" cy="875.407" r="10.3923" stroke-width="0.5" stroke="black" fill="red"/>
  <circle cx="17.3539" cy="875.407" r="6.2739" stroke-width="0.5" stroke="red" fill="red"/>
   </g>
   <g id="cell59">
  <circle cx="65.9159" cy="950.427" r="10.4144" stroke-width="0.5" stroke="black" fill="red"/>
  <circle cx="65.9159" cy="950.427" r="6.28478" stroke-width="0.5" stroke="red" fill="red"/>
   </g>
   <g id="cell60">
  <circle cx="243.338" cy="41.3763" r="9.8638" stroke-width="0.5" stroke="black" fill="red"/>
  <circle cx="243.338" cy="41.3763" r="5.98849" stroke-width="0.5" stroke="red" fill="red"/>
   </g>
   <g id="cell61">
  <circle cx="815.681" cy="139.301" r="9.37562" stroke-width="0.5" stroke="black" fill="red"/>
  <circle cx="815.681" cy="139.301" r="5.69919" stroke-width="0.5" stroke="red" fill="red"/>
   </g>
   <g id="cell62">
  <circle cx="721.725" cy="796.347" r="10.4102" stroke-width="0.5" stroke="black" fill="red"/>
  <circle cx="721.725" cy="796.347" r="6.2825" stroke-width="0.5" stroke="red" fill="red"/>
   </g>
   <g id="cell63">
  <circle cx="345.959" cy="178.92" r="10.1751" stroke-width="0.5" stroke="black" fill="red"/>
  <circle cx="345.959" cy="178.92" r="6.16141" stroke-width="0.5" stroke="red" fill="red"/>
   </g>
   <g id="cell64">
  <circle cx="593.33" cy="551.662" r="10.4925" stroke-width="0.5" stroke="black" fill="red"/>
  <circle cx="593.33" cy="551.662" r="6.32139" stroke-width="0.5" stroke="red" fill="red"/>
   </g>
   <g id="cell188">
  <circle cx="865.469" cy="392.896" r="9.47049" stroke-width="0.5" stroke="black" fill="yellow"/>
  <circle cx="865.469" cy="392.896" r="5.75755" stroke-width="0.5" stroke="yellow" fill="yellow"/>
   </g>
   <g id="cell66">
  <circle cx="10.3222" cy="142.597" r="10.3383" stroke-width="0.5" stroke="black" fill="red"/>
  <circle cx="10.3222" cy="142.597" r="6.24703" stroke-width="0.5" stroke="red" fill="red"/>
   </g>
   <g id="cell67">
  <circle cx="517.357" cy="250.279" r="1.547" stroke-width="0.5" stroke="black" fill="red"/>
  <circle cx="517.357" cy="250.279" r="1.52311" stroke-width="0.5" stroke="black" fill="black"/>
   </g>
   <g id="cell68">
  <circle cx="752.183" cy="239.658" r="10.415" stroke-width="0.5" stroke="black" fill="red"/>
  <circle cx="752.183" cy="239.658" r="6.28496" stroke-width="0.5" stroke="red" fill="red"/>
   </g>
   <g id="cell69">
  <circle cx="452.457" cy="310.626" r="8.41049" stroke-width="0.5" stroke="black" fill="red"/>
  <circle cx="452.457" cy="310.626" r="5.05108" stroke-width="0.5" stroke="red" fill="red"/>
   </g>
   <g id="cell70">
  <circle cx="524.451" cy="371.352" r="10.2098" stroke-width="0.5" stroke="black" fill="red"/>
  <circle cx="524.451" cy="371.352" r="6.18007" stroke-width="0.5" stroke="red" fill="red"/>
   </g>
   <g id="cell71">
  <circle cx="887.988" cy="502.646" r="10.5184" stroke-width="0.5" stroke="black" fill="red"/>
  <circle cx="887.988" cy="502.646" r="6.33309" stroke-width="0.5" stroke="red" fill="red"/>
   </g>
   <g id="cell72">
  <circle cx="177.712" cy="905.1" r="10.4682" stroke-width="0.5" stroke="black" fill="red"/>
  <circle cx="177.712" cy="905.1" r="6.31035" stroke-width="0.5" stroke="red" fill="red"/>
   </g>
   <g id="cell73">
  <circle cx="626.787" cy="441.778" r="10.3319" stroke-width="0.5" stroke="black" fill="red"/>
  <circle cx="626.787" cy="441.778" r="6.24354" stroke-width="0.5" stroke="red" fill="red"/>
   </g>
   <g id="cell74">
  <circle cx="862.291" cy="963.58" r="9.82072" stroke-width="0.5" stroke="black" fill="red"/>
  <circle cx="862.291" cy="963.58" r="5.96362" stroke-width="0.5" stroke="red" fill="red"/>
   </g>
   <g id="cell75">
  <circle cx="109.954" cy="323.974" r="10.4607" stroke-width="0.5" stroke="black" fill="red"/>
  <circle cx="109.954" cy="323.974" r="6.3068" stroke-width="0.5" stroke="red" fill="red"/>
   </g>
   <g id="cell76">
  <circle cx="779.474" cy="414.914" r="10.0324" stroke-width="0.5" stroke="black" fill="red"/>
  <circle cx="779.474" cy="414.914" r="6.0835" stroke-width="0.5" stroke="red" fill="red"/>
   </g>
   <g id="cell77">
  <circle cx="659.83" cy="848.471" r="10.3466" stroke-width="0.5" stroke="black" fill="red"/>
  <circle cx="659.83" cy="848.471" r="6.25104" stroke-width="0.5" stroke="red" fill="red"/>
   </g>
   <g id="cell78">
  <circle cx="592.016" cy="280.082" r="10.3157" stroke-width="0.5" stroke="black" fill="red"/>
  <circle cx="592.016" cy="280.082" r="6.23535" stroke-width="0.5" stroke="red" fill="red"/>
   </g>
   <g id="cell79">
  <circle cx="986.935" cy="694.097" r="10.0315" stroke-width="0.5" stroke="black" fill="red"/>
  <circle cx="986.935" cy="694.097" r="6.08323" stroke-width="0.5" stroke="red" fill="red"/>
   </g>
   <g id="cell80">
  <circle cx="739.416" cy="688.644" r="8.39144" stroke-width="0.5" stroke="black" fill="yellow"/>
  <circle cx="739.416" cy="688.644" r="5.04437" stroke-width="0.5" stroke="yellow" fill="yellow"/>
   </g>
   <g id="cell81">
  <circle cx="495.95" cy="973.179" r="10.4489" stroke-width="0.5" stroke="black" fill="yellow"/>
  <circle cx="495.95" cy="973.179" r="6.30112" stroke-width="0.5" stroke="yellow" fill="yellow"/>
   </g>
   <g id="cell82">
  <circle cx="617.428" cy="410.928" r="10.5005" stroke-width="0.5" stroke="black" fill="yellow"/>
  <circle cx="617.428" cy="410.928" r="6.32517" stroke-width="0.5" stroke="yellow" fill="yellow"/>
   </g>
   <g id="cell83">
  <circle cx="586.085" cy="569.097" r="10.4094" stroke-width="0.5" stroke="black" fill="yellow"/>
  <circle cx="586.085" cy="569.097" r="6.28228" stroke-width="0.5" stroke="yellow" fill="yellow"/>
   </g>
   <g id="cell84">
  <circle cx="10.3043" cy="512.7" r="10.0936" stroke-width="0.5" stroke="black" fill="yellow"/>
  <circle cx="10.3043" cy="512.7" r="6.11744" stroke-width="0.5" stroke="yellow" fill="yellow"/>
   </g>
   <g id="cell85">
  <circle cx="778.965" cy="674.664" r="3.2683" stroke-width="0.5" stroke="black" fill="yellow"/>
  <circle cx="778.965" cy="674.664" r="2.85267" stroke-width="0.5" stroke="black" fill="black"/>
   </g>
   <g id="cell86">
  <circle cx="315.5" cy="422.056" r="8.96429" stroke-width="0.5" stroke="black" fill="yellow"/>
  <circle cx="315.5" cy="422.056" r="5.44102" stroke-width="0.5" stroke="yellow" fill="yellow"/>
   </g>
   <g id="cell87">
  <circle cx="775.26" cy="394.085" r="9.19961" stroke-width="0.5" stroke="black" fill="yellow"/>
  <circle cx="775.26" cy="394.085" r="5.59008" stroke-width="0.5" stroke="yellow" fill="yellow"/>
   </g>
   <g id="cell88">
  <circle cx="152.165" cy="105.459" r="1.59752" stroke-width="0.5" stroke="black" fill="yellow"/>
  <circle cx="152.165" cy="105.459" r="1.58559" stroke-width="0.5" stroke="black" fill="black"/>
   </g>
   <g id="cell89">
  <circle cx="52.2564" cy="531.895" r="10.0143" stroke-width="0.5" stroke="black" fill="yellow"/>
  <circle cx="52.2564" cy="531.895" r="6.07379" stroke-width="0.5" stroke="yellow" fill="yellow"/>
   </g>
   <g id="cell193">
  <circle cx="203.471" cy="668.081" r="9.19203" stroke-width="0.5" stroke="black" fill="red"/>
  <circle cx="203.471" cy="668.081" r="5.58748" stroke-width="0.5" stroke="red" fill="red"/>
   </g>
   <g id="cell91">
  <circle cx="9.46766" cy="655.1" r="8.5759" stroke-width="0.5" stroke="black" fill="yellow"/>
  <circle cx="9.46766" cy="655.1" r="5.17386" stroke-width="0.5" stroke="yellow" fill="yellow"/>
   </g>
   <g id="cell92">
  <circle cx="655.555" cy="295.701" r="10.3605" stroke-width="0.5" stroke="black" fill="yellow"/>
  <circle cx="655.555" cy="295.701" r="6.25809" stroke-width="0.5" stroke="yellow" fill="yellow"/>
   </g>
   <g id="cell93">
  <circle cx="224.511" cy="849.414" r="8.57795" stroke-width="0.5" stroke="black" fill="yellow"/>
  <circle cx="224.511" cy="849.414" r="5.17446" stroke-width="0.5" stroke="yellow" fill="yellow"/>
   </g>
   <g id="cell94">
  <circle cx="391.337" cy="106.648" r="10.1492" stroke-width="0.5" stroke="black" fill="yellow"/>
  <circle cx="391.337" cy="106.648" r="6.1476" stroke-width="0.5" stroke="yellow" fill="yellow"/>
   </g>
   <g id="cell95">
  <circle cx="933.211" cy="906.858" r="10.4091" stroke-width="0.5" stroke="black" fill="yellow"/>
  <circle cx="933.211" cy="906.858" r="6.28219" stroke-width="0.5" stroke="yellow" fill="yellow"/>
   </g>
   <g id="cell121">
  <circle cx="22.2372" cy="486.662" r="8.41211" stroke-width="0.5" stroke="black" fill="red"/>
  <circle cx="22.2372" cy="486.662" r="5.05153" stroke-width="0.5" stroke="red" fill="red"/>
   </g>
   <g id="cell122">
  <circle cx="704.827" cy="427.469" r="10.5008" stroke-width="0.5" stroke="black" fill="yellow"/>
  <circle cx="704.827" cy="427.469" r="6.32524" stroke-width="0.5" stroke="yellow" fill="yellow"/>
   </g>
   <g id="cell123">
  <circle cx="259.423" cy="901.035" r="8.45543" stroke-width="0.5" stroke="black" fill="yellow"/>
  <circle cx="259.423" cy="901.035" r="5.08281" stroke-width="0.5" stroke="yellow" fill="yellow"/>
   </g>
   <g id="cell124">
  <circle cx="491.707" cy="639.554" r="10.3678" stroke-width="0.5" stroke="black" fill="grey"/>
  <circle cx="491.707" cy="639.554" r="6.26161" stroke-width="0.5" stroke="grey" fill="grey"/>
   </g>
   <g id="cell125">
  <circle cx="794.808" cy="415.981" r="10.5184" stroke-width="0.5" stroke="black" fill="yellow"/>
  <circle cx="794.808" cy="415.981" r="6.3331" stroke-width="0.5" stroke="yellow" fill="yellow"/>
   </g>
   <g id="cell126">
  <circle cx="943.96" cy="174.561" r="10.3469" stroke-width="0.5" stroke="black" fill="red"/>
  <circle cx="943.96" cy="174.561" r="6.25114" stroke-width="0.5" stroke="red" fill="red"/>
   </g>
   <g id="cell127">
  <circle cx="901.23" cy="551.722" r="10.5088" stroke-width="0.5" stroke="black" fill="red"/>
  <circle cx="901.23" cy="551.722" r="6.32882" stroke-width="0.5" stroke="red" fill="red"/>
   </g>
   <g id="cell128">
  <circle cx="938.283" cy="32.8525" r="10.2816" stroke-width="0.5" stroke="black" fill="red"/>
  <circle cx="938.283" cy="32.8525" r="6.21767" stroke-width="0.5" stroke="red" fill="red"/>
   </g>
   <g id="cell129">
  <circle cx="981.032" cy="676.633" r="7.43505" stroke-width="0.5" stroke="black" fill="grey"/>
  <circle cx="981.032" cy="676.633" r="4.7191" stroke-width="0.5" stroke="black" fill="black"/>
   </g>
   <g id="cell130">
  <circle cx="901.846" cy="614.378" r="8.41194" stroke-width="0.5" stroke="black" fill="yellow"/>
  <circle cx="901.846" cy="614.378" r="5.05148" stroke-width="0.5" stroke="yellow" fill="yellow"/>
   </g>
   <g id="cell132">
  <circle cx="60.6292" cy="921.733" r="10.444" stroke-width="0.5" stroke="black" fill="red"/>
  <circle cx="60.6292" cy="921.733" r="6.29892" stroke-width="0.5" stroke="red" fill="red"/>
   </g>
   <g id="cell133">
  <circle cx="656.164" cy="387.892" r="10.0492" stroke-width="0.5" stroke="black" fill="red"/>
  <circle cx="656.164" cy="387.892" r="6.09263" stroke-width="0.5" stroke="red" fill="red"/>
   </g>
   <g id="cell134">
  <circle cx="624.597" cy="436.457" r="1.54776" stroke-width="0.5" stroke="black" fill="grey"/>
  <circle cx="624.597" cy="436.457" r="1.52381" stroke-width="0.5" stroke="black" fill="black"/>
   </g>
   <g id="cell136">
  <circle cx="642.308" cy="458.24" r="10.3676" stroke-width="0.5" stroke="black" fill="red"/>
  <circle cx="642.308" cy="458.24" r="6.26158" stroke-width="0.5" stroke="red" fill="red"/>
   </g>
   <g id="cell137">
  <circle cx="804.492" cy="664.945" r="9.6754" stroke-width="0.5" stroke="black" fill="yellow"/>
  <circle cx="804.492" cy="664.945" r="5.87884" stroke-width="0.5" stroke="yellow" fill="yellow"/>
   </g>
   <g id="cell138">
  <circle cx="737.121" cy="239.105" r="10.5136" stroke-width="0.5" stroke="black" fill="red"/>
  <circle cx="737.121" cy="239.105" r="6.331" stroke-width="0.5" stroke="red" fill="red"/>
   </g>
   <g id="cell139">
  <circle cx="782.862" cy="750.633" r="8.41185" stroke-width="0.5" stroke="black" fill="yellow"/>
  <circle cx="782.862" cy="750.633" r="5.05146" stroke-width="0.5" stroke="yellow" fill="yellow"/>
   </g>
   <g id="cell140">
  <circle cx="68.6719" cy="336.87" r="10.5086" stroke-width="0.5" stroke="black" fill="red"/>
  <circle cx="68.6719" cy="336.87" r="6.32879" stroke-width="0.5" stroke="red" fill="red"/>
   </g>
   <g id="cell141">
  <circle cx="11.2452" cy="973.536" r="10.5006" stroke-width="0.5" stroke="black" fill="yellow"/>
  <circle cx="11.2452" cy="973.536" r="6.3252" stroke-width="0.5" stroke="yellow" fill="yellow"/>
   </g>
   <g id="cell142">
  <circle cx="692.066" cy="684.198" r="8.4118" stroke-width="0.5" stroke="black" fill="red"/>
  <circle cx="692.066" cy="684.198" r="5.05145" stroke-width="0.5" stroke="red" fill="red"/>
   </g>
   <g id="cell143">
  <circle cx="122.105" cy="727.108" r="9.37613" stroke-width="0.5" stroke="black" fill="red"/>
  <circle cx="122.105" cy="727.108" r="5.69935" stroke-width="0.5" stroke="red" fill="red"/>
   </g>
   <g id="cell144">
  <circle cx="649.443" cy="147.025" r="10.4606" stroke-width="0.5" stroke="black" fill="grey"/>
  <circle cx="649.443" cy="147.025" r="6.30679" stroke-width="0.5" stroke="grey" fill="grey"/>
   </g>
   <g id="cell145">
  <circle cx="544.402" cy="527.153" r="8.84701" stroke-width="0.5" stroke="black" fill="red"/>
  <circle cx="544.402" cy="527.153" r="5.36254" stroke-width="0.5" stroke="red" fill="red"/>
   </g>
   <g id="cell146">
  <circle cx="318.576" cy="187.463" r="10.4394" stroke-width="0.5" stroke="black" fill="red"/>
  <circle cx="318.576" cy="187.463" r="6.29674" stroke-width="0.5" stroke="red" fill="red"/>
   </g>
   <g id="cell147">
  <circle cx="642.513" cy="393.819" r="9.75114" stroke-width="0.5" stroke="black" fill="yellow"/>
  <circle cx="642.513" cy="393.819" r="5.92321" stroke-width="0.5" stroke="yellow" fill="yellow"/>
   </g>
   <g id="cell148">
  <circle cx="173.685" cy="760.574" r="10.5033" stroke-width="0.5" stroke="black" fill="grey"/>
  <circle cx="173.685" cy="760.574" r="6.3264" stroke-width="0.5" stroke="grey" fill="grey"/>
   </g>
   <g id="cell149">
  <circle cx="861.912" cy="447.565" r="10.4855" stroke-width="0.5" stroke="black" fill="red"/>
  <circle cx="861.912" cy="447.565" r="6.31836" stroke-width="0.5" stroke="red" fill="red"/>
   </g>
   <g id="cell150">
  <circle cx="178.988" cy="37.0125" r="10.2527" stroke-width="0.5" stroke="black" fill="yellow"/>
  <circle cx="178.988" cy="37.0125" r="6.20262" stroke-width="0.5" stroke="yellow" fill="yellow"/>
   </g>
   <g id="cell151">
  <circle cx="210.657" cy="894.359" r="10.0328" stroke-width="0.5" stroke="black" fill="red"/>
  <circle cx="210.657" cy="894.359" r="6.08362" stroke-width="0.5" stroke="red" fill="red"/>
   </g>
   <g id="cell152">
  <circle cx="603.815" cy="855.202" r="10.4682" stroke-width="0.5" stroke="black" fill="red"/>
  <circle cx="603.815" cy="855.202" r="6.31034" stroke-width="0.5" stroke="red" fill="red"/>
   </g>
   <g id="cell154">
  <circle cx="872.444" cy="26.5809" r="10.232" stroke-width="0.5" stroke="black" fill="red"/>
  <circle cx="872.444" cy="26.5809" r="6.19176" stroke-width="0.5" stroke="red" fill="red"/>
   </g>
   <g id="cell155">
  <circle cx="649.105" cy="901.835" r="10.4523" stroke-width="0.5" stroke="black" fill="red"/>
  <circle cx="649.105" cy="901.835" r="6.30292" stroke-width="0.5" stroke="red" fill="red"/>
   </g>
   <g id="cell156">
  <circle cx="886.715" cy="511.462" r="5.76357" stroke-width="0.5" stroke="black" fill="grey"/>
  <circle cx="886.715" cy="511.462" r="3.95907" stroke-width="0.5" stroke="black" fill="black"/>
   </g>
   <g id="cell157">
  <circle cx="623.261" cy="636.147" r="10.1987" stroke-width="0.5" stroke="black" fill="yellow"/>
  <circle cx="623.261" cy="636.147" r="6.17411" stroke-width="0.5" stroke="yellow" fill="yellow"/>
   </g>
   <g id="cell158">
  <circle cx="163.19" cy="140.34" r="1.70507" stroke-width="0.5" stroke="black" fill="yellow"/>
  <circle cx="163.19" cy="140.34" r="1.68713" stroke-width="0.5" stroke="black" fill="black"/>
   </g>
   <g id="cell159">
  <circle cx="664.676" cy="298.208" r="10.0159" stroke-width="0.5" stroke="black" fill="yellow"/>
  <circle cx="664.676" cy="298.208" r="6.07429" stroke-width="0.5" stroke="yellow" fill="yellow"/>
   </g>
   <g id="cell160">
  <circle cx="608.792" cy="292.389" r="10.2423" stroke-width="0.5" stroke="black" fill="red"/>
  <circle cx="608.792" cy="292.389" r="6.19721" stroke-width="0.5" stroke="red" fill="red"/>
   </g>
   <g id="cell161">
  <circle cx="39.9117" cy="929.436" r="1.36351" stroke-width="0.5" stroke="black" fill="red"/>
  <circle cx="39.9117" cy="929.436" r="1.35285" stroke-width="0.5" stroke="black" fill="black"/>
   </g>
   <g id="cell162">
  <circle cx="849.84" cy="115.158" r="10.4521" stroke-width="0.5" stroke="black" fill="red"/>
  <circle cx="849.84" cy="115.158" r="6.30286" stroke-width="0.5" stroke="red" fill="red"/>
   </g>
   <g id="cell163">
  <circle cx="441.567" cy="958.177" r="10.4435" stroke-width="0.5" stroke="black" fill="red"/>
  <circle cx="441.567" cy="958.177" r="6.29878" stroke-width="0.5" stroke="red" fill="red"/>
   </g>
   <g id="cell164">
  <circle cx="816.832" cy="945.025" r="9.27159" stroke-width="0.5" stroke="black" fill="red"/>
  <circle cx="816.832" cy="945.025" r="5.63517" stroke-width="0.5" stroke="red" fill="red"/>
   </g>
   <g id="cell165">
  <circle cx="841.909" cy="397.312" r="10.439" stroke-width="0.5" stroke="black" fill="red"/>
  <circle cx="841.909" cy="397.312" r="6.29662" stroke-width="0.5" stroke="red" fill="red"/>
   </g>
   <g id="cell166">
  <circle cx="800.606" cy="500.347" r="10.4343" stroke-width="0.5" stroke="black" fill="yellow"/>
  <circle cx="800.606" cy="500.347" r="6.2944" stroke-width="0.5" stroke="yellow" fill="yellow"/>
   </g>
   <g id="cell167">
  <circle cx="655.215" cy="147.705" r="10.1226" stroke-width="0.5" stroke="black" fill="yellow"/>
  <circle cx="655.215" cy="147.705" r="6.13314" stroke-width="0.5" stroke="yellow" fill="yellow"/>
   </g>
   <g id="cell168">
  <circle cx="937.797" cy="895.507" r="10.3736" stroke-width="0.5" stroke="black" fill="yellow"/>
  <circle cx="937.797" cy="895.507" r="6.26467" stroke-width="0.5" stroke="yellow" fill="yellow"/>
   </g>
   <g id="cell169">
  <circle cx="359.887" cy="972.484" r="10.3235" stroke-width="0.5" stroke="black" fill="yellow"/>
  <circle cx="359.887" cy="972.484" r="6.23939" stroke-width="0.5" stroke="yellow" fill="yellow"/>
   </g>
   <g id="cell170">
  <circle cx="61.2488" cy="985.466" r="8.41088" stroke-width="0.5" stroke="black" fill="red"/>
  <circle cx="61.2488" cy="985.466" r="5.05119" stroke-width="0.5" stroke="red" fill="red"/>
   </g>
   <g id="cell171">
  <circle cx="532.646" cy="399.729" r="10.3388" stroke-width="0.5" stroke="black" fill="red"/>
  <circle cx="532.646" cy="399.729" r="6.2472" stroke-width="0.5" stroke="red" fill="red"/>
   </g>
   <g id="cell172">
  <circle cx="480.01" cy="783.649" r="10.3533" stroke-width="0.5" stroke="black" fill="red"/>
  <circle cx="480.01" cy="783.649" r="6.25452" stroke-width="0.5" stroke="red" fill="red"/>
   </g>
   <g id="cell173">
  <circle cx="964.1" cy="421.057" r="8.51064" stroke-width="0.5" stroke="black" fill="red"/>
  <circle cx="964.1" cy="421.057" r="5.12501" stroke-width="0.5" stroke="red" fill="red"/>
   </g>
   <g id="cell174">
  <circle cx="359.529" cy="95.9889" r="8.41067" stroke-width="0.5" stroke="black" fill="yellow"/>
  <circle cx="359.529" cy="95.9889" r="5.05113" stroke-width="0.5" stroke="yellow" fill="yellow"/>
   </g>
   <g id="cell175">
  <circle cx="40.0602" cy="331.973" r="10.3734" stroke-width="0.5" stroke="black" fill="yellow"/>
  <circle cx="40.0602" cy="331.973" r="6.26462" stroke-width="0.5" stroke="yellow" fill="yellow"/>
   </g>
   <g id="cell178">
  <circle cx="62.5938" cy="167.888" r="10.3066" stroke-width="0.5" stroke="black" fill="red"/>
  <circle cx="62.5938" cy="167.888" r="6.23086" stroke-width="0.5" stroke="red" fill="red"/>
   </g>
   <g id="cell179">
  <circle cx="9.21855" cy="483.823" r="9.53347" stroke-width="0.5" stroke="black" fill="yellow"/>
  <circle cx="9.21855" cy="483.823" r="5.79498" stroke-width="0.5" stroke="yellow" fill="yellow"/>
   </g>
   <g id="cell180">
  <circle cx="38.5125" cy="670.162" r="8.40994" stroke-width="0.5" stroke="black" fill="yellow"/>
  <circle cx="38.5125" cy="670.162" r="5.05091" stroke-width="0.5" stroke="yellow" fill="yellow"/>
   </g>
   <g id="cell181">
  <circle cx="992.33" cy="681.188" r="8.40978" stroke-width="0.5" stroke="black" fill="red"/>
  <circle cx="992.33" cy="681.188" r="5.05086" stroke-width="0.5" stroke="red" fill="red"/>
   </g>
   <g id="cell182">
  <circle cx="517.176" cy="966.65" r="8.4097" stroke-width="0.5" stroke="black" fill="yellow"/>
  <circle cx="517.176" cy="966.65" r="5.05084" stroke-width="0.5" stroke="yellow" fill="yellow"/>
   </g>
   <g id="cell183">
  <circle cx="652.112" cy="868.605" r="8.4097" stroke-width="0.5" stroke="black" fill="red"/>
  <circle cx="652.112" cy="868.605" r="5.05084" stroke-width="0.5" stroke="red" fill="red"/>
   </g>
   <g id="cell187">
  <circle cx="317.012" cy="441.575" r="9.23306" stroke-width="0.5" stroke="black" fill="yellow"/>
  <circle cx="317.012" cy="441.575" r="5.61195" stroke-width="0.5" stroke="yellow" fill="yellow"/>
   </g>
   <g id="cell189">
  <circle cx="778.07" cy="380.372" r="9.92253" stroke-width="0.5" stroke="black" fill="yellow"/>
  <circle cx="778.07" cy="380.372" r="6.02247" stroke-width="0.5" stroke="yellow" fill="yellow"/>
   </g>
   <g id="cell194">
  <circle cx="115.796" cy="171.336" r="8.95457" stroke-width="0.5" stroke="black" fill="yellow"/>
  <circle cx="115.796" cy="171.336" r="5.43745" stroke-width="0.5" stroke="yellow" fill="yellow"/>
   </g>
   <g id="cell195">
  <circle cx="390.556" cy="444.298" r="8.39571" stroke-width="0.5" stroke="black" fill="yellow"/>
  <circle cx="390.556" cy="444.298" r="5.04599" stroke-width="0.5" stroke="yellow" fill="yellow"/>
   </g>
   <g id="cell196">
  <circle cx="882.777" cy="281.363" r="8.39316" stroke-width="0.5" stroke="black" fill="yellow"/>
  <circle cx="882.777" cy="281.363" r="5.04503" stroke-width="0.5" stroke="yellow" fill="yellow"/>
   </g>
   <g id="cell197">
  <circle cx="736.261" cy="697.859" r="8.39144" stroke-width="0.5" stroke="black" fill="yellow"/>
  <circle cx="736.261" cy="697.859" r="5.04437" stroke-width="0.5" stroke="yellow" fill="yellow"/>
   </g>
   <g id="cell198">
  <circle cx="62.4361" cy="410.135" r="8.38891" stroke-width="0.5" stroke="black" fill="yellow"/>
  <circle cx="62.4361" cy="410.135" r="5.0434" stroke-width="0.5" stroke="yellow" fill="yellow"/>
   </g>
   <g id="cell199">
  <circle cx="823.844" cy="868.526" r="8.38532" stroke-width="0.5" stroke="black" fill="yellow"/>
  <circle cx="823.844" cy="868.526" r="5.04199" stroke-width="0.5" stroke="yellow" fill="yellow"/>
   </g>
  </g>
 </g>
  <rect x="775" y="1035" width="200" height="10" stroke-width="2" stroke="rgb(255,255,255)" fill="rgb(0,0,0)"/>
  <text x="781.25" y="1028.75"
   font-family="Arial" font-size="25" fill="black" >
   200 &#956;m
  </text>
  <text x="25" y="1045"
   font-family="Arial" font-size="18.75" fill="black" >
   0 days, 0 hours, 2 minutes, and 8.9771 seconds
  </text>
  <rect x="0" y="70" width="1000" height="1000" stroke-width="2" stroke="rgb(0,0,0)" fill="none"/>
</svg>
