<?xml version="1.0" encoding="UTF-8" standalone="no"?>
<!-- Created with PhysiCell (http://PhysiCell.MathCancer.org/) -->
<svg 
 xmlns:dc="http://purl.org/dc/elements/1.1/" 
 xmlns:cc="http://creativecommons.org/ns#" 
 xmlns:rdf="http://www.w3.org/1999/02/22-rdf-syntax-ns#" 
 xmlns:svg="http://www.w3.org/2000/svg" 
 xmlns="http://www.w3.org/2000/svg" 
 version="1.1" 
 width="1000" 
 height="1070" 
 id="svg2">
  <rect x="0" y="0" width="1000" height="1070" stroke-width="2" stroke="white" fill="white"/>
  <text x="12.5" y="30"
   font-family="Arial" font-size="25" fill="black" >
   Current time: 1 days, 8 hours, and 30.00 minutes, z = 0.00 &#956;m
  </text>
  <text x="12.5" y="57.5"
   font-family="Arial" font-size="23.75" fill="black" >
   168 agents
  </text>
 <g id="tissue" 
    transform="translate(0,1070) scale(1,-1)">
  <g id="ECM">
  </g>
  <g id="cells">
   <g id="cell0">
  <circle cx="482.711" cy="610.189" r="8.39248" stroke-width="0.5" stroke="black" fill="grey"/>
  <circle cx="482.711" cy="610.189" r="5.04479" stroke-width="0.5" stroke="grey" fill="grey"/>
   </g>
   <g id="cell118">
  <circle cx="832.112" cy="579.811" r="9.16257" stroke-width="0.5" stroke="black" fill="yellow"/>
  <circle cx="832.112" cy="579.811" r="5.56671" stroke-width="0.5" stroke="yellow" fill="yellow"/>
   </g>
   <g id="cell100">
  <circle cx="136.276" cy="801.655" r="8.39068" stroke-width="0.5" stroke="black" fill="yellow"/>
  <circle cx="136.276" cy="801.655" r="5.0441" stroke-width="0.5" stroke="yellow" fill="yellow"/>
   </g>
   <g id="cell3">
  <circle cx="654.227" cy="671.495" r="8.38517" stroke-width="0.5" stroke="black" fill="grey"/>
  <circle cx="654.227" cy="671.495" r="5.04195" stroke-width="0.5" stroke="grey" fill="grey"/>
   </g>
   <g id="cell103">
  <circle cx="808.346" cy="872.514" r="8.95928" stroke-width="0.5" stroke="black" fill="yellow"/>
  <circle cx="808.346" cy="872.514" r="5.43923" stroke-width="0.5" stroke="yellow" fill="yellow"/>
   </g>
   <g id="cell135">
  <circle cx="130.372" cy="781.003" r="10.5231" stroke-width="0.5" stroke="black" fill="yellow"/>
  <circle cx="130.372" cy="781.003" r="6.3351" stroke-width="0.5" stroke="yellow" fill="yellow"/>
   </g>
   <g id="cell185">
  <circle cx="834.498" cy="388.885" r="10.3673" stroke-width="0.5" stroke="black" fill="yellow"/>
  <circle cx="834.498" cy="388.885" r="6.26148" stroke-width="0.5" stroke="yellow" fill="yellow"/>
   </g>
   <g id="cell7">
  <circle cx="846.902" cy="474.806" r="10.552" stroke-width="0.5" stroke="black" fill="grey"/>
  <circle cx="846.902" cy="474.806" r="6.34738" stroke-width="0.5" stroke="grey" fill="grey"/>
   </g>
   <g id="cell192">
  <circle cx="816.857" cy="415.617" r="9.94371" stroke-width="0.5" stroke="black" fill="yellow"/>
  <circle cx="816.857" cy="415.617" r="6.03397" stroke-width="0.5" stroke="yellow" fill="yellow"/>
   </g>
   <g id="cell112">
  <circle cx="749.733" cy="728.273" r="1.41597" stroke-width="0.5" stroke="black" fill="yellow"/>
  <circle cx="749.733" cy="728.273" r="1.40235" stroke-width="0.5" stroke="black" fill="black"/>
   </g>
   <g id="cell176">
  <circle cx="266.906" cy="57.8892" r="10.3319" stroke-width="0.5" stroke="black" fill="red"/>
  <circle cx="266.906" cy="57.8892" r="6.24354" stroke-width="0.5" stroke="red" fill="red"/>
   </g>
   <g id="cell186">
  <circle cx="79.5668" cy="557.149" r="8.41129" stroke-width="0.5" stroke="black" fill="yellow"/>
  <circle cx="79.5668" cy="557.149" r="5.05131" stroke-width="0.5" stroke="yellow" fill="yellow"/>
   </g>
   <g id="cell104">
  <circle cx="780.537" cy="433.645" r="8.38595" stroke-width="0.5" stroke="black" fill="yellow"/>
  <circle cx="780.537" cy="433.645" r="5.04226" stroke-width="0.5" stroke="yellow" fill="yellow"/>
   </g>
   <g id="cell102">
  <circle cx="650.377" cy="146.296" r="10.4721" stroke-width="0.5" stroke="black" fill="yellow"/>
  <circle cx="650.377" cy="146.296" r="6.31213" stroke-width="0.5" stroke="yellow" fill="yellow"/>
   </g>
   <g id="cell98">
  <circle cx="872.074" cy="376.703" r="10.4093" stroke-width="0.5" stroke="black" fill="yellow"/>
  <circle cx="872.074" cy="376.703" r="6.28226" stroke-width="0.5" stroke="yellow" fill="yellow"/>
   </g>
   <g id="cell97">
  <circle cx="401.246" cy="105.634" r="10.3669" stroke-width="0.5" stroke="black" fill="yellow"/>
  <circle cx="401.246" cy="105.634" r="6.26136" stroke-width="0.5" stroke="yellow" fill="yellow"/>
   </g>
   <g id="cell16">
  <circle cx="131.186" cy="708.3" r="1.83029" stroke-width="0.5" stroke="black" fill="grey"/>
  <circle cx="131.186" cy="708.3" r="1.80917" stroke-width="0.5" stroke="black" fill="black"/>
   </g>
   <g id="cell116">
  <circle cx="813.088" cy="434.255" r="10.048" stroke-width="0.5" stroke="black" fill="yellow"/>
  <circle cx="813.088" cy="434.255" r="6.09228" stroke-width="0.5" stroke="yellow" fill="yellow"/>
   </g>
   <g id="cell177">
  <circle cx="446.005" cy="315.655" r="9.70137" stroke-width="0.5" stroke="black" fill="red"/>
  <circle cx="446.005" cy="315.655" r="5.89409" stroke-width="0.5" stroke="red" fill="red"/>
   </g>
   <g id="cell101">
  <circle cx="136.219" cy="138.316" r="8.40683" stroke-width="0.5" stroke="black" fill="yellow"/>
  <circle cx="136.219" cy="138.316" r="5.04993" stroke-width="0.5" stroke="yellow" fill="yellow"/>
   </g>
   <g id="cell184">
  <circle cx="516.36" cy="300.988" r="10.4917" stroke-width="0.5" stroke="black" fill="red"/>
  <circle cx="516.36" cy="300.988" r="6.3212" stroke-width="0.5" stroke="red" fill="red"/>
   </g>
   <g id="cell99">
  <circle cx="488.689" cy="983.062" r="10.4605" stroke-width="0.5" stroke="black" fill="yellow"/>
  <circle cx="488.689" cy="983.062" r="6.30676" stroke-width="0.5" stroke="yellow" fill="yellow"/>
   </g>
   <g id="cell115">
  <circle cx="227.192" cy="45.6749" r="10.5209" stroke-width="0.5" stroke="black" fill="yellow"/>
  <circle cx="227.192" cy="45.6749" r="6.33413" stroke-width="0.5" stroke="yellow" fill="yellow"/>
   </g>
   <g id="cell191">
  <circle cx="750.677" cy="114.469" r="10.3152" stroke-width="0.5" stroke="black" fill="grey"/>
  <circle cx="750.677" cy="114.469" r="6.23523" stroke-width="0.5" stroke="grey" fill="grey"/>
   </g>
   <g id="cell153">
  <circle cx="195.567" cy="380.158" r="10.5479" stroke-width="0.5" stroke="black" fill="red"/>
  <circle cx="195.567" cy="380.158" r="6.34567" stroke-width="0.5" stroke="red" fill="red"/>
   </g>
   <g id="cell105">
  <circle cx="69.4503" cy="398.88" r="9.64258" stroke-width="0.5" stroke="black" fill="yellow"/>
  <circle cx="69.4503" cy="398.88" r="5.86105" stroke-width="0.5" stroke="yellow" fill="yellow"/>
   </g>
   <g id="cell211">
  <circle cx="656.637" cy="655.768" r="8.38517" stroke-width="0.5" stroke="black" fill="grey"/>
  <circle cx="656.637" cy="655.768" r="5.04195" stroke-width="0.5" stroke="grey" fill="grey"/>
   </g>
   <g id="cell117">
  <circle cx="875.21" cy="375.449" r="8.41088" stroke-width="0.5" stroke="black" fill="yellow"/>
  <circle cx="875.21" cy="375.449" r="5.05119" stroke-width="0.5" stroke="yellow" fill="yellow"/>
   </g>
   <g id="cell28">
  <circle cx="705.921" cy="97.7944" r="8.41235" stroke-width="0.5" stroke="black" fill="grey"/>
  <circle cx="705.921" cy="97.7944" r="5.05159" stroke-width="0.5" stroke="grey" fill="grey"/>
   </g>
   <g id="cell29">
  <circle cx="965.571" cy="639.894" r="10.4794" stroke-width="0.5" stroke="black" fill="grey"/>
  <circle cx="965.571" cy="639.894" r="6.31544" stroke-width="0.5" stroke="grey" fill="grey"/>
   </g>
   <g id="cell30">
  <circle cx="764.355" cy="112.596" r="9.67444" stroke-width="0.5" stroke="black" fill="grey"/>
  <circle cx="764.355" cy="112.596" r="5.87855" stroke-width="0.5" stroke="grey" fill="grey"/>
   </g>
   <g id="cell190">
  <circle cx="453.84" cy="135.02" r="8.41072" stroke-width="0.5" stroke="black" fill="yellow"/>
  <circle cx="453.84" cy="135.02" r="5.05114" stroke-width="0.5" stroke="yellow" fill="yellow"/>
   </g>
   <g id="cell114">
  <circle cx="48.3874" cy="378.164" r="10.4526" stroke-width="0.5" stroke="black" fill="yellow"/>
  <circle cx="48.3874" cy="378.164" r="6.303" stroke-width="0.5" stroke="yellow" fill="yellow"/>
   </g>
   <g id="cell107">
  <circle cx="391.137" cy="489.128" r="8.40632" stroke-width="0.5" stroke="black" fill="yellow"/>
  <circle cx="391.137" cy="489.128" r="5.04976" stroke-width="0.5" stroke="yellow" fill="yellow"/>
   </g>
   <g id="cell106">
  <circle cx="31.0989" cy="910.59" r="10.5605" stroke-width="0.5" stroke="black" fill="yellow"/>
  <circle cx="31.0989" cy="910.59" r="6.35082" stroke-width="0.5" stroke="yellow" fill="yellow"/>
   </g>
   <g id="cell35">
  <circle cx="932.289" cy="49.5722" r="9.19027" stroke-width="0.5" stroke="black" fill="grey"/>
  <circle cx="932.289" cy="49.5722" r="5.58683" stroke-width="0.5" stroke="grey" fill="grey"/>
   </g>
   <g id="cell109">
  <circle cx="385.088" cy="983.977" r="10.2105" stroke-width="0.5" stroke="black" fill="yellow"/>
  <circle cx="385.088" cy="983.977" r="6.18029" stroke-width="0.5" stroke="yellow" fill="yellow"/>
   </g>
   <g id="cell111">
  <circle cx="802.846" cy="410.862" r="8.41072" stroke-width="0.5" stroke="black" fill="yellow"/>
  <circle cx="802.846" cy="410.862" r="5.05114" stroke-width="0.5" stroke="yellow" fill="yellow"/>
   </g>
   <g id="cell131">
  <circle cx="649.798" cy="578.009" r="10.5385" stroke-width="0.5" stroke="black" fill="grey"/>
  <circle cx="649.798" cy="578.009" r="6.34173" stroke-width="0.5" stroke="grey" fill="grey"/>
   </g>
   <g id="cell110">
  <circle cx="890.072" cy="258.406" r="8.80102" stroke-width="0.5" stroke="black" fill="yellow"/>
  <circle cx="890.072" cy="258.406" r="5.33358" stroke-width="0.5" stroke="yellow" fill="yellow"/>
   </g>
   <g id="cell40">
  <circle cx="153.013" cy="416.412" r="10.5349" stroke-width="0.5" stroke="black" fill="red"/>
  <circle cx="153.013" cy="416.412" r="6.3402" stroke-width="0.5" stroke="red" fill="red"/>
   </g>
   <g id="cell41">
  <circle cx="693.387" cy="737.997" r="10.545" stroke-width="0.5" stroke="black" fill="red"/>
  <circle cx="693.387" cy="737.997" r="6.34445" stroke-width="0.5" stroke="red" fill="red"/>
   </g>
   <g id="cell42">
  <circle cx="158.486" cy="738.392" r="10.4982" stroke-width="0.5" stroke="black" fill="red"/>
  <circle cx="158.486" cy="738.392" r="6.32401" stroke-width="0.5" stroke="red" fill="red"/>
   </g>
   <g id="cell43">
  <circle cx="842.893" cy="373.213" r="10.4979" stroke-width="0.5" stroke="black" fill="red"/>
  <circle cx="842.893" cy="373.213" r="6.32395" stroke-width="0.5" stroke="red" fill="red"/>
   </g>
   <g id="cell44">
  <circle cx="841.552" cy="53.2457" r="10.5037" stroke-width="0.5" stroke="black" fill="red"/>
  <circle cx="841.552" cy="53.2457" r="6.32651" stroke-width="0.5" stroke="red" fill="red"/>
   </g>
   <g id="cell45">
  <circle cx="700.307" cy="812.432" r="10.0646" stroke-width="0.5" stroke="black" fill="red"/>
  <circle cx="700.307" cy="812.432" r="6.10124" stroke-width="0.5" stroke="red" fill="red"/>
   </g>
   <g id="cell46">
  <circle cx="54.1416" cy="900.743" r="9.92609" stroke-width="0.5" stroke="black" fill="red"/>
  <circle cx="54.1416" cy="900.743" r="6.02358" stroke-width="0.5" stroke="red" fill="red"/>
   </g>
   <g id="cell47">
  <circle cx="888.656" cy="451.033" r="10.5292" stroke-width="0.5" stroke="black" fill="red"/>
  <circle cx="888.656" cy="451.033" r="6.33777" stroke-width="0.5" stroke="red" fill="red"/>
   </g>
   <g id="cell48">
  <circle cx="940.93" cy="28.1155" r="8.3874" stroke-width="0.5" stroke="black" fill="red"/>
  <circle cx="940.93" cy="28.1155" r="5.04283" stroke-width="0.5" stroke="red" fill="red"/>
   </g>
   <g id="cell49">
  <circle cx="449.352" cy="790.751" r="10.4302" stroke-width="0.5" stroke="black" fill="red"/>
  <circle cx="449.352" cy="790.751" r="6.2923" stroke-width="0.5" stroke="red" fill="red"/>
   </g>
   <g id="cell50">
  <circle cx="11.7621" cy="437.88" r="10.5164" stroke-width="0.5" stroke="black" fill="red"/>
  <circle cx="11.7621" cy="437.88" r="6.33215" stroke-width="0.5" stroke="red" fill="red"/>
   </g>
   <g id="cell51">
  <circle cx="837.989" cy="154.756" r="10.5572" stroke-width="0.5" stroke="black" fill="red"/>
  <circle cx="837.989" cy="154.756" r="6.34946" stroke-width="0.5" stroke="red" fill="red"/>
   </g>
   <g id="cell96">
  <circle cx="845.132" cy="575.653" r="10.5271" stroke-width="0.5" stroke="black" fill="yellow"/>
  <circle cx="845.132" cy="575.653" r="6.33686" stroke-width="0.5" stroke="yellow" fill="yellow"/>
   </g>
   <g id="cell53">
  <circle cx="685.126" cy="274.953" r="8.38876" stroke-width="0.5" stroke="black" fill="red"/>
  <circle cx="685.126" cy="274.953" r="5.04336" stroke-width="0.5" stroke="red" fill="red"/>
   </g>
   <g id="cell54">
  <circle cx="420.809" cy="913.371" r="8.41211" stroke-width="0.5" stroke="black" fill="red"/>
  <circle cx="420.809" cy="913.371" r="5.05153" stroke-width="0.5" stroke="red" fill="red"/>
   </g>
   <g id="cell55">
  <circle cx="208.791" cy="642.152" r="8.40905" stroke-width="0.5" stroke="black" fill="red"/>
  <circle cx="208.791" cy="642.152" r="5.05064" stroke-width="0.5" stroke="red" fill="red"/>
   </g>
   <g id="cell56">
  <circle cx="642.045" cy="846.161" r="10.5449" stroke-width="0.5" stroke="black" fill="red"/>
  <circle cx="642.045" cy="846.161" r="6.34443" stroke-width="0.5" stroke="red" fill="red"/>
   </g>
   <g id="cell57">
  <circle cx="488.276" cy="524.483" r="10.5507" stroke-width="0.5" stroke="black" fill="red"/>
  <circle cx="488.276" cy="524.483" r="6.34684" stroke-width="0.5" stroke="red" fill="red"/>
   </g>
   <g id="cell58">
  <circle cx="10.1091" cy="857.469" r="10.5229" stroke-width="0.5" stroke="black" fill="red"/>
  <circle cx="10.1091" cy="857.469" r="6.33505" stroke-width="0.5" stroke="red" fill="red"/>
   </g>
   <g id="cell59">
  <circle cx="67.8237" cy="943.877" r="10.531" stroke-width="0.5" stroke="black" fill="red"/>
  <circle cx="67.8237" cy="943.877" r="6.33856" stroke-width="0.5" stroke="red" fill="red"/>
   </g>
   <g id="cell60">
  <circle cx="221.759" cy="24.4908" r="10.3319" stroke-width="0.5" stroke="black" fill="red"/>
  <circle cx="221.759" cy="24.4908" r="6.24354" stroke-width="0.5" stroke="red" fill="red"/>
   </g>
   <g id="cell61">
  <circle cx="791.09" cy="131.766" r="10.1502" stroke-width="0.5" stroke="black" fill="red"/>
  <circle cx="791.09" cy="131.766" r="6.14788" stroke-width="0.5" stroke="red" fill="red"/>
   </g>
   <g id="cell62">
  <circle cx="730.624" cy="809.736" r="10.5295" stroke-width="0.5" stroke="black" fill="red"/>
  <circle cx="730.624" cy="809.736" r="6.33783" stroke-width="0.5" stroke="red" fill="red"/>
   </g>
   <g id="cell63">
  <circle cx="348.718" cy="174.283" r="10.4443" stroke-width="0.5" stroke="black" fill="red"/>
  <circle cx="348.718" cy="174.283" r="6.29899" stroke-width="0.5" stroke="red" fill="red"/>
   </g>
   <g id="cell64">
  <circle cx="599.654" cy="538.011" r="10.5596" stroke-width="0.5" stroke="black" fill="red"/>
  <circle cx="599.654" cy="538.011" r="6.35043" stroke-width="0.5" stroke="red" fill="red"/>
   </g>
   <g id="cell188">
  <circle cx="858.102" cy="385.817" r="10.1866" stroke-width="0.5" stroke="black" fill="yellow"/>
  <circle cx="858.102" cy="385.817" r="6.16773" stroke-width="0.5" stroke="yellow" fill="yellow"/>
   </g>
   <g id="cell66">
  <circle cx="12.4153" cy="131.681" r="10.5033" stroke-width="0.5" stroke="black" fill="red"/>
  <circle cx="12.4153" cy="131.681" r="6.32641" stroke-width="0.5" stroke="red" fill="red"/>
   </g>
   <g id="cell197">
  <circle cx="740.357" cy="680.322" r="8.47504" stroke-width="0.5" stroke="black" fill="yellow"/>
  <circle cx="740.357" cy="680.322" r="5.10075" stroke-width="0.5" stroke="yellow" fill="yellow"/>
   </g>
   <g id="cell68">
  <circle cx="774.912" cy="221.523" r="10.5312" stroke-width="0.5" stroke="black" fill="red"/>
  <circle cx="774.912" cy="221.523" r="6.33862" stroke-width="0.5" stroke="red" fill="red"/>
   </g>
   <g id="cell69">
  <circle cx="446.946" cy="311.336" r="9.23615" stroke-width="0.5" stroke="black" fill="red"/>
  <circle cx="446.946" cy="311.336" r="5.61295" stroke-width="0.5" stroke="red" fill="red"/>
   </g>
   <g id="cell70">
  <circle cx="529.715" cy="372.837" r="10.4568" stroke-width="0.5" stroke="black" fill="red"/>
  <circle cx="529.715" cy="372.837" r="6.30496" stroke-width="0.5" stroke="red" fill="red"/>
   </g>
   <g id="cell71">
  <circle cx="897.452" cy="499.371" r="8.38877" stroke-width="0.5" stroke="black" fill="red"/>
  <circle cx="897.452" cy="499.371" r="5.04337" stroke-width="0.5" stroke="red" fill="red"/>
   </g>
   <g id="cell72">
  <circle cx="180.722" cy="925.346" r="10.5507" stroke-width="0.5" stroke="black" fill="red"/>
  <circle cx="180.722" cy="925.346" r="6.34684" stroke-width="0.5" stroke="red" fill="red"/>
   </g>
   <g id="cell73">
  <circle cx="607.8" cy="446.498" r="10.501" stroke-width="0.5" stroke="black" fill="red"/>
  <circle cx="607.8" cy="446.498" r="6.32529" stroke-width="0.5" stroke="red" fill="red"/>
   </g>
   <g id="cell74">
  <circle cx="860.719" cy="939.052" r="10.3162" stroke-width="0.5" stroke="black" fill="red"/>
  <circle cx="860.719" cy="939.052" r="6.23551" stroke-width="0.5" stroke="red" fill="red"/>
   </g>
   <g id="cell75">
  <circle cx="98.0575" cy="302.942" r="10.5479" stroke-width="0.5" stroke="black" fill="red"/>
  <circle cx="98.0575" cy="302.942" r="6.34569" stroke-width="0.5" stroke="red" fill="red"/>
   </g>
   <g id="cell76">
  <circle cx="776.005" cy="423.246" r="10.3929" stroke-width="0.5" stroke="black" fill="red"/>
  <circle cx="776.005" cy="423.246" r="6.27406" stroke-width="0.5" stroke="red" fill="red"/>
   </g>
   <g id="cell77">
  <circle cx="683.489" cy="834.381" r="10.5063" stroke-width="0.5" stroke="black" fill="red"/>
  <circle cx="683.489" cy="834.381" r="6.3277" stroke-width="0.5" stroke="red" fill="red"/>
   </g>
   <g id="cell78">
  <circle cx="577.811" cy="289.536" r="10.4951" stroke-width="0.5" stroke="black" fill="red"/>
  <circle cx="577.811" cy="289.536" r="6.32266" stroke-width="0.5" stroke="red" fill="red"/>
   </g>
   <g id="cell79">
  <circle cx="979.727" cy="703.325" r="10.3925" stroke-width="0.5" stroke="black" fill="red"/>
  <circle cx="979.727" cy="703.325" r="6.27398" stroke-width="0.5" stroke="red" fill="red"/>
   </g>
   <g id="cell80">
  <circle cx="745.858" cy="720.039" r="9.58777" stroke-width="0.5" stroke="black" fill="yellow"/>
  <circle cx="745.858" cy="720.039" r="5.82842" stroke-width="0.5" stroke="yellow" fill="yellow"/>
   </g>
   <g id="cell81">
  <circle cx="476.405" cy="962.636" r="10.5436" stroke-width="0.5" stroke="black" fill="yellow"/>
  <circle cx="476.405" cy="962.636" r="6.34385" stroke-width="0.5" stroke="yellow" fill="yellow"/>
   </g>
   <g id="cell82">
  <circle cx="611.482" cy="395.353" r="10.5626" stroke-width="0.5" stroke="black" fill="yellow"/>
  <circle cx="611.482" cy="395.353" r="6.35166" stroke-width="0.5" stroke="yellow" fill="yellow"/>
   </g>
   <g id="cell83">
  <circle cx="585.723" cy="588.261" r="10.5292" stroke-width="0.5" stroke="black" fill="yellow"/>
  <circle cx="585.723" cy="588.261" r="6.33776" stroke-width="0.5" stroke="yellow" fill="yellow"/>
   </g>
   <g id="cell84">
  <circle cx="9.42796" cy="509.246" r="10.4149" stroke-width="0.5" stroke="black" fill="yellow"/>
  <circle cx="9.42796" cy="509.246" r="6.28493" stroke-width="0.5" stroke="yellow" fill="yellow"/>
   </g>
   <g id="cell85">
  <circle cx="778.965" cy="674.664" r="1.90897" stroke-width="0.5" stroke="black" fill="yellow"/>
  <circle cx="778.965" cy="674.664" r="1.88183" stroke-width="0.5" stroke="black" fill="black"/>
   </g>
   <g id="cell86">
  <circle cx="336.86" cy="423.771" r="9.98101" stroke-width="0.5" stroke="black" fill="yellow"/>
  <circle cx="336.86" cy="423.771" r="6.05483" stroke-width="0.5" stroke="yellow" fill="yellow"/>
   </g>
   <g id="cell87">
  <circle cx="776.404" cy="406.537" r="10.0805" stroke-width="0.5" stroke="black" fill="yellow"/>
  <circle cx="776.404" cy="406.537" r="6.10981" stroke-width="0.5" stroke="yellow" fill="yellow"/>
   </g>
   <g id="cell200">
  <circle cx="968.66" cy="104.152" r="8.4009" stroke-width="0.5" stroke="black" fill="grey"/>
  <circle cx="968.66" cy="104.152" r="5.04788" stroke-width="0.5" stroke="grey" fill="grey"/>
   </g>
   <g id="cell89">
  <circle cx="49.3706" cy="536.54" r="10.3863" stroke-width="0.5" stroke="black" fill="yellow"/>
  <circle cx="49.3706" cy="536.54" r="6.27096" stroke-width="0.5" stroke="yellow" fill="yellow"/>
   </g>
   <g id="cell193">
  <circle cx="191.73" cy="670.977" r="10.0781" stroke-width="0.5" stroke="black" fill="red"/>
  <circle cx="191.73" cy="670.977" r="6.10909" stroke-width="0.5" stroke="red" fill="red"/>
   </g>
   <g id="cell91">
  <circle cx="22.7774" cy="643.534" r="9.77511" stroke-width="0.5" stroke="black" fill="yellow"/>
  <circle cx="22.7774" cy="643.534" r="5.93714" stroke-width="0.5" stroke="yellow" fill="yellow"/>
   </g>
   <g id="cell92">
  <circle cx="670.343" cy="275.788" r="10.5114" stroke-width="0.5" stroke="black" fill="yellow"/>
  <circle cx="670.343" cy="275.788" r="6.32996" stroke-width="0.5" stroke="yellow" fill="yellow"/>
   </g>
   <g id="cell93">
  <circle cx="229.972" cy="858.54" r="9.7757" stroke-width="0.5" stroke="black" fill="yellow"/>
  <circle cx="229.972" cy="858.54" r="5.93731" stroke-width="0.5" stroke="yellow" fill="yellow"/>
   </g>
   <g id="cell94">
  <circle cx="391.989" cy="93.3088" r="10.435" stroke-width="0.5" stroke="black" fill="yellow"/>
  <circle cx="391.989" cy="93.3088" r="6.29457" stroke-width="0.5" stroke="yellow" fill="yellow"/>
   </g>
   <g id="cell95">
  <circle cx="943.318" cy="902.431" r="10.5291" stroke-width="0.5" stroke="black" fill="yellow"/>
  <circle cx="943.318" cy="902.431" r="6.33773" stroke-width="0.5" stroke="yellow" fill="yellow"/>
   </g>
   <g id="cell121">
  <circle cx="29.5995" cy="478.904" r="9.12469" stroke-width="0.5" stroke="black" fill="red"/>
  <circle cx="29.5995" cy="478.904" r="5.54277" stroke-width="0.5" stroke="red" fill="red"/>
   </g>
   <g id="cell122">
  <circle cx="710.06" cy="423.043" r="10.5627" stroke-width="0.5" stroke="black" fill="yellow"/>
  <circle cx="710.06" cy="423.043" r="6.35168" stroke-width="0.5" stroke="yellow" fill="yellow"/>
   </g>
   <g id="cell123">
  <circle cx="305.379" cy="888.605" r="9.67585" stroke-width="0.5" stroke="black" fill="yellow"/>
  <circle cx="305.379" cy="888.605" r="5.87896" stroke-width="0.5" stroke="yellow" fill="yellow"/>
   </g>
   <g id="cell124">
  <circle cx="481.512" cy="656.382" r="10.514" stroke-width="0.5" stroke="black" fill="grey"/>
  <circle cx="481.512" cy="656.382" r="6.3311" stroke-width="0.5" stroke="grey" fill="grey"/>
   </g>
   <g id="cell125">
  <circle cx="812.012" cy="443.195" r="8.43238" stroke-width="0.5" stroke="black" fill="yellow"/>
  <circle cx="812.012" cy="443.195" r="5.07473" stroke-width="0.5" stroke="yellow" fill="yellow"/>
   </g>
   <g id="cell126">
  <circle cx="928.725" cy="187.395" r="10.5065" stroke-width="0.5" stroke="black" fill="red"/>
  <circle cx="928.725" cy="187.395" r="6.32773" stroke-width="0.5" stroke="red" fill="red"/>
   </g>
   <g id="cell127">
  <circle cx="925.916" cy="549.184" r="8.38594" stroke-width="0.5" stroke="black" fill="red"/>
  <circle cx="925.916" cy="549.184" r="5.04226" stroke-width="0.5" stroke="red" fill="red"/>
   </g>
   <g id="cell128">
  <circle cx="927.547" cy="25.4778" r="10.4828" stroke-width="0.5" stroke="black" fill="red"/>
  <circle cx="927.547" cy="25.4778" r="6.31699" stroke-width="0.5" stroke="red" fill="red"/>
   </g>
   <g id="cell129">
  <circle cx="981.032" cy="676.633" r="2.69574" stroke-width="0.5" stroke="black" fill="grey"/>
  <circle cx="981.032" cy="676.633" r="2.51229" stroke-width="0.5" stroke="black" fill="black"/>
   </g>
   <g id="cell130">
  <circle cx="902.9" cy="586.279" r="8.41242" stroke-width="0.5" stroke="black" fill="yellow"/>
  <circle cx="902.9" cy="586.279" r="5.05161" stroke-width="0.5" stroke="yellow" fill="yellow"/>
   </g>
   <g id="cell132">
  <circle cx="51.3318" cy="921.334" r="10.5418" stroke-width="0.5" stroke="black" fill="red"/>
  <circle cx="51.3318" cy="921.334" r="6.34313" stroke-width="0.5" stroke="red" fill="red"/>
   </g>
   <g id="cell133">
  <circle cx="641.691" cy="401.186" r="10.3989" stroke-width="0.5" stroke="black" fill="red"/>
  <circle cx="641.691" cy="401.186" r="6.27699" stroke-width="0.5" stroke="red" fill="red"/>
   </g>
   <g id="cell201">
  <circle cx="491.636" cy="596.151" r="8.6704" stroke-width="0.5" stroke="black" fill="grey"/>
  <circle cx="491.636" cy="596.151" r="5.24749" stroke-width="0.5" stroke="grey" fill="grey"/>
   </g>
   <g id="cell136">
  <circle cx="669.896" cy="476.27" r="10.514" stroke-width="0.5" stroke="black" fill="red"/>
  <circle cx="669.896" cy="476.27" r="6.33109" stroke-width="0.5" stroke="red" fill="red"/>
   </g>
   <g id="cell137">
  <circle cx="777.178" cy="658.325" r="10.263" stroke-width="0.5" stroke="black" fill="yellow"/>
  <circle cx="777.178" cy="658.325" r="6.20791" stroke-width="0.5" stroke="yellow" fill="yellow"/>
   </g>
   <g id="cell138">
  <circle cx="699.36" cy="236.701" r="8.38737" stroke-width="0.5" stroke="black" fill="red"/>
  <circle cx="699.36" cy="236.701" r="5.04282" stroke-width="0.5" stroke="red" fill="red"/>
   </g>
   <g id="cell139">
  <circle cx="789.741" cy="747.289" r="9.30799" stroke-width="0.5" stroke="black" fill="yellow"/>
  <circle cx="789.741" cy="747.289" r="5.65735" stroke-width="0.5" stroke="yellow" fill="yellow"/>
   </g>
   <g id="cell140">
  <circle cx="86.1107" cy="367.536" r="8.38591" stroke-width="0.5" stroke="black" fill="red"/>
  <circle cx="86.1107" cy="367.536" r="5.04225" stroke-width="0.5" stroke="red" fill="red"/>
   </g>
   <g id="cell141">
  <circle cx="13.9072" cy="982.201" r="10.5626" stroke-width="0.5" stroke="black" fill="yellow"/>
  <circle cx="13.9072" cy="982.201" r="6.35167" stroke-width="0.5" stroke="yellow" fill="yellow"/>
   </g>
   <g id="cell142">
  <circle cx="699.475" cy="684.53" r="8.41236" stroke-width="0.5" stroke="black" fill="red"/>
  <circle cx="699.475" cy="684.53" r="5.05159" stroke-width="0.5" stroke="red" fill="red"/>
   </g>
   <g id="cell143">
  <circle cx="116.222" cy="710.122" r="10.1503" stroke-width="0.5" stroke="black" fill="red"/>
  <circle cx="116.222" cy="710.122" r="6.14793" stroke-width="0.5" stroke="red" fill="red"/>
   </g>
   <g id="cell144">
  <circle cx="648.49" cy="152.043" r="10.5479" stroke-width="0.5" stroke="black" fill="grey"/>
  <circle cx="648.49" cy="152.043" r="6.34568" stroke-width="0.5" stroke="grey" fill="grey"/>
   </g>
   <g id="cell145">
  <circle cx="544.643" cy="508.186" r="9.92604" stroke-width="0.5" stroke="black" fill="red"/>
  <circle cx="544.643" cy="508.186" r="6.02356" stroke-width="0.5" stroke="red" fill="red"/>
   </g>
   <g id="cell146">
  <circle cx="295.988" cy="208.557" r="10.5402" stroke-width="0.5" stroke="black" fill="red"/>
  <circle cx="295.988" cy="208.557" r="6.34243" stroke-width="0.5" stroke="red" fill="red"/>
   </g>
   <g id="cell147">
  <circle cx="670.681" cy="381.357" r="10.2908" stroke-width="0.5" stroke="black" fill="yellow"/>
  <circle cx="670.681" cy="381.357" r="6.2224" stroke-width="0.5" stroke="yellow" fill="yellow"/>
   </g>
   <g id="cell148">
  <circle cx="209.347" cy="755.793" r="10.5636" stroke-width="0.5" stroke="black" fill="grey"/>
  <circle cx="209.347" cy="755.793" r="6.35206" stroke-width="0.5" stroke="grey" fill="grey"/>
   </g>
   <g id="cell149">
  <circle cx="865.297" cy="456.114" r="10.5571" stroke-width="0.5" stroke="black" fill="red"/>
  <circle cx="865.297" cy="456.114" r="6.34944" stroke-width="0.5" stroke="red" fill="red"/>
   </g>
   <g id="cell150">
  <circle cx="163.421" cy="32.9894" r="10.4723" stroke-width="0.5" stroke="black" fill="yellow"/>
  <circle cx="163.421" cy="32.9894" r="6.31217" stroke-width="0.5" stroke="yellow" fill="yellow"/>
   </g>
   <g id="cell151">
  <circle cx="203.561" cy="896.355" r="10.393" stroke-width="0.5" stroke="black" fill="red"/>
  <circle cx="203.561" cy="896.355" r="6.2741" stroke-width="0.5" stroke="red" fill="red"/>
   </g>
   <g id="cell152">
  <circle cx="612.59" cy="868.077" r="10.5507" stroke-width="0.5" stroke="black" fill="red"/>
  <circle cx="612.59" cy="868.077" r="6.34683" stroke-width="0.5" stroke="red" fill="red"/>
   </g>
   <g id="cell154">
  <circle cx="897.203" cy="12.5063" r="10.4648" stroke-width="0.5" stroke="black" fill="red"/>
  <circle cx="897.203" cy="12.5063" r="6.3087" stroke-width="0.5" stroke="red" fill="red"/>
   </g>
   <g id="cell155">
  <circle cx="652.956" cy="891.01" r="10.5449" stroke-width="0.5" stroke="black" fill="red"/>
  <circle cx="652.956" cy="891.01" r="6.34443" stroke-width="0.5" stroke="red" fill="red"/>
   </g>
   <g id="cell156">
  <circle cx="886.715" cy="511.462" r="2.51883" stroke-width="0.5" stroke="black" fill="grey"/>
  <circle cx="886.715" cy="511.462" r="2.38568" stroke-width="0.5" stroke="black" fill="black"/>
   </g>
   <g id="cell157">
  <circle cx="616.358" cy="646.331" r="10.4528" stroke-width="0.5" stroke="black" fill="yellow"/>
  <circle cx="616.358" cy="646.331" r="6.30305" stroke-width="0.5" stroke="yellow" fill="yellow"/>
   </g>
   <g id="cell198">
  <circle cx="53.12" cy="417.065" r="9.40294" stroke-width="0.5" stroke="black" fill="yellow"/>
  <circle cx="53.12" cy="417.065" r="5.71744" stroke-width="0.5" stroke="yellow" fill="yellow"/>
   </g>
   <g id="cell159">
  <circle cx="671.327" cy="284.411" r="10.3869" stroke-width="0.5" stroke="black" fill="yellow"/>
  <circle cx="671.327" cy="284.411" r="6.27112" stroke-width="0.5" stroke="yellow" fill="yellow"/>
   </g>
   <g id="cell160">
  <circle cx="631.889" cy="289.693" r="10.4685" stroke-width="0.5" stroke="black" fill="red"/>
  <circle cx="631.889" cy="289.693" r="6.31044" stroke-width="0.5" stroke="red" fill="red"/>
   </g>
   <g id="cell199">
  <circle cx="825.822" cy="850.124" r="8.40244" stroke-width="0.5" stroke="black" fill="yellow"/>
  <circle cx="825.822" cy="850.124" r="5.04843" stroke-width="0.5" stroke="yellow" fill="yellow"/>
   </g>
   <g id="cell162">
  <circle cx="837.863" cy="100.737" r="10.5448" stroke-width="0.5" stroke="black" fill="red"/>
  <circle cx="837.863" cy="100.737" r="6.34441" stroke-width="0.5" stroke="red" fill="red"/>
   </g>
   <g id="cell163">
  <circle cx="419.745" cy="961.673" r="10.5417" stroke-width="0.5" stroke="black" fill="red"/>
  <circle cx="419.745" cy="961.673" r="6.34309" stroke-width="0.5" stroke="red" fill="red"/>
   </g>
   <g id="cell164">
  <circle cx="827.331" cy="974.111" r="10.1094" stroke-width="0.5" stroke="black" fill="red"/>
  <circle cx="827.331" cy="974.111" r="6.12574" stroke-width="0.5" stroke="red" fill="red"/>
   </g>
   <g id="cell165">
  <circle cx="842.897" cy="399.444" r="10.54" stroke-width="0.5" stroke="black" fill="red"/>
  <circle cx="842.897" cy="399.444" r="6.34239" stroke-width="0.5" stroke="red" fill="red"/>
   </g>
   <g id="cell166">
  <circle cx="772.843" cy="510.439" r="10.5383" stroke-width="0.5" stroke="black" fill="yellow"/>
  <circle cx="772.843" cy="510.439" r="6.34167" stroke-width="0.5" stroke="yellow" fill="yellow"/>
   </g>
   <g id="cell167">
  <circle cx="620.836" cy="131.459" r="10.4254" stroke-width="0.5" stroke="black" fill="yellow"/>
  <circle cx="620.836" cy="131.459" r="6.28995" stroke-width="0.5" stroke="yellow" fill="yellow"/>
   </g>
   <g id="cell168">
  <circle cx="925.827" cy="889.275" r="10.5161" stroke-width="0.5" stroke="black" fill="yellow"/>
  <circle cx="925.827" cy="889.275" r="6.33208" stroke-width="0.5" stroke="yellow" fill="yellow"/>
   </g>
   <g id="cell169">
  <circle cx="337.755" cy="985.872" r="10.4979" stroke-width="0.5" stroke="black" fill="yellow"/>
  <circle cx="337.755" cy="985.872" r="6.32396" stroke-width="0.5" stroke="yellow" fill="yellow"/>
   </g>
   <g id="cell170">
  <circle cx="63.8323" cy="984.871" r="9.16223" stroke-width="0.5" stroke="black" fill="red"/>
  <circle cx="63.8323" cy="984.871" r="5.56661" stroke-width="0.5" stroke="red" fill="red"/>
   </g>
   <g id="cell171">
  <circle cx="519.925" cy="385.83" r="10.5035" stroke-width="0.5" stroke="black" fill="red"/>
  <circle cx="519.925" cy="385.83" r="6.32647" stroke-width="0.5" stroke="red" fill="red"/>
   </g>
   <g id="cell172">
  <circle cx="492.978" cy="795.205" r="10.5088" stroke-width="0.5" stroke="black" fill="red"/>
  <circle cx="492.978" cy="795.205" r="6.32882" stroke-width="0.5" stroke="red" fill="red"/>
   </g>
   <g id="cell173">
  <circle cx="972.439" cy="421.461" r="9.72675" stroke-width="0.5" stroke="black" fill="red"/>
  <circle cx="972.439" cy="421.461" r="5.90892" stroke-width="0.5" stroke="red" fill="red"/>
   </g>
   <g id="cell174">
  <circle cx="349.691" cy="105.761" r="9.40946" stroke-width="0.5" stroke="black" fill="yellow"/>
  <circle cx="349.691" cy="105.761" r="5.71964" stroke-width="0.5" stroke="yellow" fill="yellow"/>
   </g>
   <g id="cell175">
  <circle cx="24.3854" cy="306.405" r="10.5161" stroke-width="0.5" stroke="black" fill="yellow"/>
  <circle cx="24.3854" cy="306.405" r="6.33206" stroke-width="0.5" stroke="yellow" fill="yellow"/>
   </g>
   <g id="cell178">
  <circle cx="59.6602" cy="173.393" r="10.4918" stroke-width="0.5" stroke="black" fill="red"/>
  <circle cx="59.6602" cy="173.393" r="6.32122" stroke-width="0.5" stroke="red" fill="red"/>
   </g>
   <g id="cell179">
  <circle cx="20.3052" cy="492.535" r="10.2103" stroke-width="0.5" stroke="black" fill="yellow"/>
  <circle cx="20.3052" cy="492.535" r="6.18023" stroke-width="0.5" stroke="yellow" fill="yellow"/>
   </g>
   <g id="cell180">
  <circle cx="37.1711" cy="688.13" r="8.41166" stroke-width="0.5" stroke="black" fill="yellow"/>
  <circle cx="37.1711" cy="688.13" r="5.05141" stroke-width="0.5" stroke="yellow" fill="yellow"/>
   </g>
   <g id="cell181">
  <circle cx="985.932" cy="680.972" r="8.4116" stroke-width="0.5" stroke="black" fill="red"/>
  <circle cx="985.932" cy="680.972" r="5.05139" stroke-width="0.5" stroke="red" fill="red"/>
   </g>
   <g id="cell182">
  <circle cx="504.124" cy="956.268" r="8.41157" stroke-width="0.5" stroke="black" fill="yellow"/>
  <circle cx="504.124" cy="956.268" r="5.05138" stroke-width="0.5" stroke="yellow" fill="yellow"/>
   </g>
   <g id="cell183">
  <circle cx="657.117" cy="858.865" r="8.41157" stroke-width="0.5" stroke="black" fill="red"/>
  <circle cx="657.117" cy="858.865" r="5.05138" stroke-width="0.5" stroke="red" fill="red"/>
   </g>
   <g id="cell187">
  <circle cx="302.619" cy="435.221" r="10.0943" stroke-width="0.5" stroke="black" fill="yellow"/>
  <circle cx="302.619" cy="435.221" r="6.11765" stroke-width="0.5" stroke="yellow" fill="yellow"/>
   </g>
   <g id="cell189">
  <circle cx="779.601" cy="390.452" r="10.3532" stroke-width="0.5" stroke="black" fill="yellow"/>
  <circle cx="779.601" cy="390.452" r="6.2545" stroke-width="0.5" stroke="yellow" fill="yellow"/>
   </g>
   <g id="cell194">
  <circle cx="102.37" cy="159.501" r="9.97806" stroke-width="0.5" stroke="black" fill="yellow"/>
  <circle cx="102.37" cy="159.501" r="6.05387" stroke-width="0.5" stroke="yellow" fill="yellow"/>
   </g>
   <g id="cell195">
  <circle cx="397.55" cy="438.168" r="9.5003" stroke-width="0.5" stroke="black" fill="yellow"/>
  <circle cx="397.55" cy="438.168" r="5.77583" stroke-width="0.5" stroke="yellow" fill="yellow"/>
   </g>
   <g id="cell196">
  <circle cx="896.03" cy="264.873" r="8.40537" stroke-width="0.5" stroke="black" fill="yellow"/>
  <circle cx="896.03" cy="264.873" r="5.04944" stroke-width="0.5" stroke="yellow" fill="yellow"/>
   </g>
   <g id="cell202">
  <circle cx="111.709" cy="819.272" r="8.39068" stroke-width="0.5" stroke="black" fill="yellow"/>
  <circle cx="111.709" cy="819.272" r="5.0441" stroke-width="0.5" stroke="yellow" fill="yellow"/>
   </g>
   <g id="cell203">
  <circle cx="819.133" cy="454.465" r="8.38878" stroke-width="0.5" stroke="black" fill="yellow"/>
  <circle cx="819.133" cy="454.465" r="5.04337" stroke-width="0.5" stroke="yellow" fill="yellow"/>
   </g>
   <g id="cell204">
  <circle cx="902.598" cy="487.418" r="8.38877" stroke-width="0.5" stroke="black" fill="red"/>
  <circle cx="902.598" cy="487.418" r="5.04337" stroke-width="0.5" stroke="red" fill="red"/>
   </g>
   <g id="cell205">
  <circle cx="672.674" cy="288.264" r="8.38876" stroke-width="0.5" stroke="black" fill="red"/>
  <circle cx="672.674" cy="288.264" r="5.04336" stroke-width="0.5" stroke="red" fill="red"/>
   </g>
   <g id="cell206">
  <circle cx="956.986" cy="28.4059" r="8.3874" stroke-width="0.5" stroke="black" fill="red"/>
  <circle cx="956.986" cy="28.4059" r="5.04283" stroke-width="0.5" stroke="red" fill="red"/>
   </g>
   <g id="cell207">
  <circle cx="717.354" cy="248.022" r="8.38737" stroke-width="0.5" stroke="black" fill="red"/>
  <circle cx="717.354" cy="248.022" r="5.04282" stroke-width="0.5" stroke="red" fill="red"/>
   </g>
   <g id="cell208">
  <circle cx="66.9863" cy="366.469" r="8.38591" stroke-width="0.5" stroke="black" fill="red"/>
  <circle cx="66.9863" cy="366.469" r="5.04225" stroke-width="0.5" stroke="red" fill="red"/>
   </g>
   <g id="cell209">
  <circle cx="919.273" cy="573.626" r="8.38594" stroke-width="0.5" stroke="black" fill="red"/>
  <circle cx="919.273" cy="573.626" r="5.04226" stroke-width="0.5" stroke="red" fill="red"/>
   </g>
   <g id="cell210">
  <circle cx="765.356" cy="439.955" r="8.38595" stroke-width="0.5" stroke="black" fill="yellow"/>
  <circle cx="765.356" cy="439.955" r="5.04226" stroke-width="0.5" stroke="yellow" fill="yellow"/>
   </g>
  </g>
 </g>
  <rect x="775" y="1035" width="200" height="10" stroke-width="2" stroke="rgb(255,255,255)" fill="rgb(0,0,0)"/>
  <text x="781.25" y="1028.75"
   font-family="Arial" font-size="25" fill="black" >
   200 &#956;m
  </text>
  <text x="25" y="1045"
   font-family="Arial" font-size="18.75" fill="black" >
   0 days, 0 hours, 2 minutes, and 23.9930 seconds
  </text>
  <rect x="0" y="70" width="1000" height="1000" stroke-width="2" stroke="rgb(0,0,0)" fill="none"/>
</svg>
