<?xml version="1.0" encoding="UTF-8" standalone="no"?>
<!-- Created with PhysiCell (http://PhysiCell.MathCancer.org/) -->
<svg 
 xmlns:dc="http://purl.org/dc/elements/1.1/" 
 xmlns:cc="http://creativecommons.org/ns#" 
 xmlns:rdf="http://www.w3.org/1999/02/22-rdf-syntax-ns#" 
 xmlns:svg="http://www.w3.org/2000/svg" 
 xmlns="http://www.w3.org/2000/svg" 
 version="1.1" 
 width="1000" 
 height="1070" 
 id="svg2">
  <rect x="0" y="0" width="1000" height="1070" stroke-width="2" stroke="white" fill="white"/>
  <text x="12.5" y="30"
   font-family="Arial" font-size="25" fill="black" >
   Current time: 0 days, 20 hours, and 0.00 minutes, z = 0.00 &#956;m
  </text>
  <text x="12.5" y="57.5"
   font-family="Arial" font-size="23.75" fill="black" >
   150 agents
  </text>
 <g id="tissue" 
    transform="translate(0,1070) scale(1,-1)">
  <g id="ECM">
  </g>
  <g id="cells">
   <g id="cell0">
  <circle cx="487.766" cy="646.881" r="9.69617" stroke-width="0.5" stroke="black" fill="grey"/>
  <circle cx="487.766" cy="646.881" r="5.89237" stroke-width="0.5" stroke="grey" fill="grey"/>
   </g>
   <g id="cell118">
  <circle cx="867.582" cy="603.183" r="8.40327" stroke-width="0.5" stroke="black" fill="yellow"/>
  <circle cx="867.582" cy="603.183" r="5.04872" stroke-width="0.5" stroke="yellow" fill="yellow"/>
   </g>
   <g id="cell100">
  <circle cx="142.26" cy="821.425" r="9.61436" stroke-width="0.5" stroke="black" fill="yellow"/>
  <circle cx="142.26" cy="821.425" r="5.84455" stroke-width="0.5" stroke="yellow" fill="yellow"/>
   </g>
   <g id="cell3">
  <circle cx="629.855" cy="599.657" r="9.36926" stroke-width="0.5" stroke="black" fill="grey"/>
  <circle cx="629.855" cy="599.657" r="5.697" stroke-width="0.5" stroke="grey" fill="grey"/>
   </g>
   <g id="cell103">
  <circle cx="844.879" cy="840.133" r="10.1506" stroke-width="0.5" stroke="black" fill="yellow"/>
  <circle cx="844.879" cy="840.133" r="6.14798" stroke-width="0.5" stroke="yellow" fill="yellow"/>
   </g>
   <g id="cell135">
  <circle cx="162.018" cy="814.926" r="8.40272" stroke-width="0.5" stroke="black" fill="yellow"/>
  <circle cx="162.018" cy="814.926" r="5.04853" stroke-width="0.5" stroke="yellow" fill="yellow"/>
   </g>
   <g id="cell6">
  <circle cx="385.987" cy="484.758" r="1.8028" stroke-width="0.5" stroke="black" fill="grey"/>
  <circle cx="385.987" cy="484.758" r="1.78436" stroke-width="0.5" stroke="black" fill="black"/>
   </g>
   <g id="cell7">
  <circle cx="884.376" cy="517.523" r="8.95495" stroke-width="0.5" stroke="black" fill="grey"/>
  <circle cx="884.376" cy="517.523" r="5.4376" stroke-width="0.5" stroke="grey" fill="grey"/>
   </g>
   <g id="cell8">
  <circle cx="587.455" cy="419.288" r="2.61528" stroke-width="0.5" stroke="black" fill="grey"/>
  <circle cx="587.455" cy="419.288" r="2.45733" stroke-width="0.5" stroke="black" fill="black"/>
   </g>
   <g id="cell112">
  <circle cx="751.872" cy="757.957" r="8.40215" stroke-width="0.5" stroke="black" fill="yellow"/>
  <circle cx="751.872" cy="757.957" r="5.04833" stroke-width="0.5" stroke="yellow" fill="yellow"/>
   </g>
   <g id="cell10">
  <circle cx="134.269" cy="642.6" r="1.52933" stroke-width="0.5" stroke="black" fill="grey"/>
  <circle cx="134.269" cy="642.6" r="1.52298" stroke-width="0.5" stroke="black" fill="black"/>
   </g>
   <g id="cell11">
  <circle cx="330.059" cy="826.206" r="1.83319" stroke-width="0.5" stroke="black" fill="grey"/>
  <circle cx="330.059" cy="826.206" r="1.81199" stroke-width="0.5" stroke="black" fill="black"/>
   </g>
   <g id="cell104">
  <circle cx="760.855" cy="381.639" r="9.40351" stroke-width="0.5" stroke="black" fill="yellow"/>
  <circle cx="760.855" cy="381.639" r="5.71764" stroke-width="0.5" stroke="yellow" fill="yellow"/>
   </g>
   <g id="cell102">
  <circle cx="622.65" cy="147.818" r="8.39144" stroke-width="0.5" stroke="black" fill="yellow"/>
  <circle cx="622.65" cy="147.818" r="5.04437" stroke-width="0.5" stroke="yellow" fill="yellow"/>
   </g>
   <g id="cell98">
  <circle cx="895.23" cy="385.457" r="10.542" stroke-width="0.5" stroke="black" fill="yellow"/>
  <circle cx="895.23" cy="385.457" r="6.34318" stroke-width="0.5" stroke="yellow" fill="yellow"/>
   </g>
   <g id="cell97">
  <circle cx="414.534" cy="119.211" r="10.5166" stroke-width="0.5" stroke="black" fill="yellow"/>
  <circle cx="414.534" cy="119.211" r="6.33218" stroke-width="0.5" stroke="yellow" fill="yellow"/>
   </g>
   <g id="cell16">
  <circle cx="142.304" cy="740.903" r="9.11397" stroke-width="0.5" stroke="black" fill="grey"/>
  <circle cx="142.304" cy="740.903" r="5.53904" stroke-width="0.5" stroke="grey" fill="grey"/>
   </g>
   <g id="cell116">
  <circle cx="816.692" cy="444.692" r="10.4955" stroke-width="0.5" stroke="black" fill="yellow"/>
  <circle cx="816.692" cy="444.692" r="6.32275" stroke-width="0.5" stroke="yellow" fill="yellow"/>
   </g>
   <g id="cell18">
  <circle cx="959.432" cy="705.774" r="1.44208" stroke-width="0.5" stroke="black" fill="grey"/>
  <circle cx="959.432" cy="705.774" r="1.437" stroke-width="0.5" stroke="black" fill="black"/>
   </g>
   <g id="cell101">
  <circle cx="101.43" cy="153.259" r="10.3474" stroke-width="0.5" stroke="black" fill="yellow"/>
  <circle cx="101.43" cy="153.259" r="6.25125" stroke-width="0.5" stroke="yellow" fill="yellow"/>
   </g>
   <g id="cell20">
  <circle cx="235.256" cy="172.059" r="1.67689" stroke-width="0.5" stroke="black" fill="grey"/>
  <circle cx="235.256" cy="172.059" r="1.6649" stroke-width="0.5" stroke="black" fill="black"/>
   </g>
   <g id="cell99">
  <circle cx="515.447" cy="974.08" r="10.5523" stroke-width="0.5" stroke="black" fill="yellow"/>
  <circle cx="515.447" cy="974.08" r="6.34745" stroke-width="0.5" stroke="yellow" fill="yellow"/>
   </g>
   <g id="cell115">
  <circle cx="194.498" cy="17.9155" r="8.3995" stroke-width="0.5" stroke="black" fill="yellow"/>
  <circle cx="194.498" cy="17.9155" r="5.04738" stroke-width="0.5" stroke="yellow" fill="yellow"/>
   </g>
   <g id="cell108">
  <circle cx="708.096" cy="37.302" r="2.19546" stroke-width="0.5" stroke="black" fill="yellow"/>
  <circle cx="708.096" cy="37.302" r="2.13375" stroke-width="0.5" stroke="black" fill="black"/>
   </g>
   <g id="cell153">
  <circle cx="176.224" cy="397.259" r="8.83489" stroke-width="0.5" stroke="black" fill="red"/>
  <circle cx="176.224" cy="397.259" r="5.35828" stroke-width="0.5" stroke="red" fill="red"/>
   </g>
   <g id="cell105">
  <circle cx="83.4848" cy="412.974" r="10.211" stroke-width="0.5" stroke="black" fill="yellow"/>
  <circle cx="83.4848" cy="412.974" r="6.18041" stroke-width="0.5" stroke="yellow" fill="yellow"/>
   </g>
   <g id="cell26">
  <circle cx="663.556" cy="453.171" r="8.99959" stroke-width="0.5" stroke="black" fill="grey"/>
  <circle cx="663.556" cy="453.171" r="5.46523" stroke-width="0.5" stroke="grey" fill="grey"/>
   </g>
   <g id="cell117">
  <circle cx="886.092" cy="391.062" r="10.5233" stroke-width="0.5" stroke="black" fill="yellow"/>
  <circle cx="886.092" cy="391.062" r="6.33514" stroke-width="0.5" stroke="yellow" fill="yellow"/>
   </g>
   <g id="cell28">
  <circle cx="670.547" cy="147.369" r="8.40123" stroke-width="0.5" stroke="black" fill="grey"/>
  <circle cx="670.547" cy="147.369" r="5.048" stroke-width="0.5" stroke="grey" fill="grey"/>
   </g>
   <g id="cell29">
  <circle cx="942.121" cy="675.795" r="8.40353" stroke-width="0.5" stroke="black" fill="grey"/>
  <circle cx="942.121" cy="675.795" r="5.04881" stroke-width="0.5" stroke="grey" fill="grey"/>
   </g>
   <g id="cell30">
  <circle cx="756.562" cy="128.608" r="10.5117" stroke-width="0.5" stroke="black" fill="grey"/>
  <circle cx="756.562" cy="128.608" r="6.33005" stroke-width="0.5" stroke="grey" fill="grey"/>
   </g>
   <g id="cell31">
  <circle cx="415.138" cy="106.68" r="2.31256" stroke-width="0.5" stroke="black" fill="grey"/>
  <circle cx="415.138" cy="106.68" r="2.22879" stroke-width="0.5" stroke="black" fill="black"/>
   </g>
   <g id="cell114">
  <circle cx="53.2777" cy="326.901" r="8.38753" stroke-width="0.5" stroke="black" fill="yellow"/>
  <circle cx="53.2777" cy="326.901" r="5.04286" stroke-width="0.5" stroke="yellow" fill="yellow"/>
   </g>
   <g id="cell107">
  <circle cx="372.181" cy="427.187" r="10.3247" stroke-width="0.5" stroke="black" fill="yellow"/>
  <circle cx="372.181" cy="427.187" r="6.23971" stroke-width="0.5" stroke="yellow" fill="yellow"/>
   </g>
   <g id="cell106">
  <circle cx="40.2334" cy="946.738" r="9.22785" stroke-width="0.5" stroke="black" fill="yellow"/>
  <circle cx="40.2334" cy="946.738" r="5.61008" stroke-width="0.5" stroke="yellow" fill="yellow"/>
   </g>
   <g id="cell35">
  <circle cx="927.779" cy="77.633" r="10.0806" stroke-width="0.5" stroke="black" fill="grey"/>
  <circle cx="927.779" cy="77.633" r="6.10985" stroke-width="0.5" stroke="grey" fill="grey"/>
   </g>
   <g id="cell109">
  <circle cx="372.34" cy="948.705" r="8.39021" stroke-width="0.5" stroke="black" fill="yellow"/>
  <circle cx="372.34" cy="948.705" r="5.0439" stroke-width="0.5" stroke="yellow" fill="yellow"/>
   </g>
   <g id="cell111">
  <circle cx="783.781" cy="359.7" r="10.5166" stroke-width="0.5" stroke="black" fill="yellow"/>
  <circle cx="783.781" cy="359.7" r="6.33218" stroke-width="0.5" stroke="yellow" fill="yellow"/>
   </g>
   <g id="cell131">
  <circle cx="629.345" cy="603.432" r="8.60523" stroke-width="0.5" stroke="black" fill="grey"/>
  <circle cx="629.345" cy="603.432" r="5.19771" stroke-width="0.5" stroke="grey" fill="grey"/>
   </g>
   <g id="cell110">
  <circle cx="873.61" cy="276.189" r="10.2821" stroke-width="0.5" stroke="black" fill="yellow"/>
  <circle cx="873.61" cy="276.189" r="6.21778" stroke-width="0.5" stroke="yellow" fill="yellow"/>
   </g>
   <g id="cell40">
  <circle cx="155.711" cy="402.917" r="8.53061" stroke-width="0.5" stroke="black" fill="red"/>
  <circle cx="155.711" cy="402.917" r="5.14483" stroke-width="0.5" stroke="red" fill="red"/>
   </g>
   <g id="cell41">
  <circle cx="694.655" cy="716.9" r="8.75752" stroke-width="0.5" stroke="black" fill="red"/>
  <circle cx="694.655" cy="716.9" r="5.30512" stroke-width="0.5" stroke="red" fill="red"/>
   </g>
   <g id="cell42">
  <circle cx="156.065" cy="726.496" r="8.40154" stroke-width="0.5" stroke="black" fill="red"/>
  <circle cx="156.065" cy="726.496" r="5.04811" stroke-width="0.5" stroke="red" fill="red"/>
   </g>
   <g id="cell43">
  <circle cx="882.891" cy="394.045" r="8.38891" stroke-width="0.5" stroke="black" fill="red"/>
  <circle cx="882.891" cy="394.045" r="5.0434" stroke-width="0.5" stroke="red" fill="red"/>
   </g>
   <g id="cell44">
  <circle cx="846.692" cy="46.1121" r="8.39794" stroke-width="0.5" stroke="black" fill="red"/>
  <circle cx="846.692" cy="46.1121" r="5.04681" stroke-width="0.5" stroke="red" fill="red"/>
   </g>
   <g id="cell45">
  <circle cx="637.112" cy="842.137" r="10.5523" stroke-width="0.5" stroke="black" fill="red"/>
  <circle cx="637.112" cy="842.137" r="6.34745" stroke-width="0.5" stroke="red" fill="red"/>
   </g>
   <g id="cell46">
  <circle cx="59.7791" cy="942.158" r="8.403" stroke-width="0.5" stroke="black" fill="red"/>
  <circle cx="59.7791" cy="942.158" r="5.04863" stroke-width="0.5" stroke="red" fill="red"/>
   </g>
   <g id="cell47">
  <circle cx="897.99" cy="422.355" r="8.44335" stroke-width="0.5" stroke="black" fill="red"/>
  <circle cx="897.99" cy="422.355" r="5.07884" stroke-width="0.5" stroke="red" fill="red"/>
   </g>
   <g id="cell48">
  <circle cx="929.341" cy="45.149" r="9.46745" stroke-width="0.5" stroke="black" fill="red"/>
  <circle cx="929.341" cy="45.149" r="5.75648" stroke-width="0.5" stroke="red" fill="red"/>
   </g>
   <g id="cell49">
  <circle cx="475.559" cy="763.502" r="8.38957" stroke-width="0.5" stroke="black" fill="red"/>
  <circle cx="475.559" cy="763.502" r="5.04365" stroke-width="0.5" stroke="red" fill="red"/>
   </g>
   <g id="cell50">
  <circle cx="16.6049" cy="467.555" r="8.40537" stroke-width="0.5" stroke="black" fill="red"/>
  <circle cx="16.6049" cy="467.555" r="5.04944" stroke-width="0.5" stroke="red" fill="red"/>
   </g>
   <g id="cell51">
  <circle cx="918.615" cy="149.431" r="9.11771" stroke-width="0.5" stroke="black" fill="red"/>
  <circle cx="918.615" cy="149.431" r="5.54043" stroke-width="0.5" stroke="red" fill="red"/>
   </g>
   <g id="cell96">
  <circle cx="798.808" cy="551.006" r="8.41133" stroke-width="0.5" stroke="black" fill="yellow"/>
  <circle cx="798.808" cy="551.006" r="5.05827" stroke-width="0.5" stroke="yellow" fill="yellow"/>
   </g>
   <g id="cell53">
  <circle cx="682.047" cy="324.196" r="9.52801" stroke-width="0.5" stroke="black" fill="red"/>
  <circle cx="682.047" cy="324.196" r="5.79308" stroke-width="0.5" stroke="red" fill="red"/>
   </g>
   <g id="cell54">
  <circle cx="435.127" cy="939.07" r="8.39316" stroke-width="0.5" stroke="black" fill="red"/>
  <circle cx="435.127" cy="939.07" r="5.04503" stroke-width="0.5" stroke="red" fill="red"/>
   </g>
   <g id="cell55">
  <circle cx="219.337" cy="682.031" r="10.4446" stroke-width="0.5" stroke="black" fill="red"/>
  <circle cx="219.337" cy="682.031" r="6.29905" stroke-width="0.5" stroke="red" fill="red"/>
   </g>
   <g id="cell56">
  <circle cx="556.211" cy="832.659" r="8.75494" stroke-width="0.5" stroke="black" fill="red"/>
  <circle cx="556.211" cy="832.659" r="5.30416" stroke-width="0.5" stroke="red" fill="red"/>
   </g>
   <g id="cell57">
  <circle cx="470.338" cy="549.439" r="8.91781" stroke-width="0.5" stroke="black" fill="red"/>
  <circle cx="470.338" cy="549.439" r="5.41253" stroke-width="0.5" stroke="red" fill="red"/>
   </g>
   <g id="cell58">
  <circle cx="28.1442" cy="908.771" r="8.3937" stroke-width="0.5" stroke="black" fill="red"/>
  <circle cx="28.1442" cy="908.771" r="5.04523" stroke-width="0.5" stroke="red" fill="red"/>
   </g>
   <g id="cell59">
  <circle cx="88.204" cy="979.393" r="8.46076" stroke-width="0.5" stroke="black" fill="red"/>
  <circle cx="88.204" cy="979.393" r="5.0955" stroke-width="0.5" stroke="red" fill="red"/>
   </g>
   <g id="cell60">
  <circle cx="263.775" cy="56.4308" r="8.38532" stroke-width="0.5" stroke="black" fill="red"/>
  <circle cx="263.775" cy="56.4308" r="5.04199" stroke-width="0.5" stroke="red" fill="red"/>
   </g>
   <g id="cell61">
  <circle cx="839.228" cy="115.52" r="8.3937" stroke-width="0.5" stroke="black" fill="red"/>
  <circle cx="839.228" cy="115.52" r="5.04523" stroke-width="0.5" stroke="red" fill="red"/>
   </g>
   <g id="cell62">
  <circle cx="723.386" cy="822.267" r="8.45606" stroke-width="0.5" stroke="black" fill="red"/>
  <circle cx="723.386" cy="822.267" r="5.08296" stroke-width="0.5" stroke="red" fill="red"/>
   </g>
   <g id="cell63">
  <circle cx="338.062" cy="150.241" r="8.40022" stroke-width="0.5" stroke="black" fill="red"/>
  <circle cx="338.062" cy="150.241" r="5.04764" stroke-width="0.5" stroke="red" fill="red"/>
   </g>
   <g id="cell64">
  <circle cx="591.601" cy="531.511" r="9.20015" stroke-width="0.5" stroke="black" fill="red"/>
  <circle cx="591.601" cy="531.511" r="5.59022" stroke-width="0.5" stroke="red" fill="red"/>
   </g>
   <g id="cell65">
  <circle cx="190.302" cy="844.985" r="2.03552" stroke-width="0.5" stroke="black" fill="red"/>
  <circle cx="190.302" cy="844.985" r="1.99273" stroke-width="0.5" stroke="black" fill="black"/>
   </g>
   <g id="cell66">
  <circle cx="43.088" cy="180.421" r="10.5573" stroke-width="0.5" stroke="black" fill="red"/>
  <circle cx="43.088" cy="180.421" r="6.3495" stroke-width="0.5" stroke="red" fill="red"/>
   </g>
   <g id="cell67">
  <circle cx="513.517" cy="251.189" r="10.5523" stroke-width="0.5" stroke="black" fill="red"/>
  <circle cx="513.517" cy="251.189" r="6.34745" stroke-width="0.5" stroke="red" fill="red"/>
   </g>
   <g id="cell68">
  <circle cx="750.695" cy="232.962" r="8.4725" stroke-width="0.5" stroke="black" fill="red"/>
  <circle cx="750.695" cy="232.962" r="5.09987" stroke-width="0.5" stroke="red" fill="red"/>
   </g>
   <g id="cell69">
  <circle cx="443.731" cy="287.275" r="8.38532" stroke-width="0.5" stroke="black" fill="red"/>
  <circle cx="443.731" cy="287.275" r="5.04199" stroke-width="0.5" stroke="red" fill="red"/>
   </g>
   <g id="cell70">
  <circle cx="530.02" cy="355.94" r="8.39021" stroke-width="0.5" stroke="black" fill="red"/>
  <circle cx="530.02" cy="355.94" r="5.0439" stroke-width="0.5" stroke="red" fill="red"/>
   </g>
   <g id="cell71">
  <circle cx="867.708" cy="547.057" r="9.52881" stroke-width="0.5" stroke="black" fill="red"/>
  <circle cx="867.708" cy="547.057" r="5.79337" stroke-width="0.5" stroke="red" fill="red"/>
   </g>
   <g id="cell72">
  <circle cx="202.234" cy="869.905" r="8.91624" stroke-width="0.5" stroke="black" fill="red"/>
  <circle cx="202.234" cy="869.905" r="5.41193" stroke-width="0.5" stroke="red" fill="red"/>
   </g>
   <g id="cell73">
  <circle cx="633.609" cy="434.491" r="8.40244" stroke-width="0.5" stroke="black" fill="red"/>
  <circle cx="633.609" cy="434.491" r="5.04843" stroke-width="0.5" stroke="red" fill="red"/>
   </g>
   <g id="cell74">
  <circle cx="846.111" cy="973.982" r="8.39316" stroke-width="0.5" stroke="black" fill="red"/>
  <circle cx="846.111" cy="973.982" r="5.04503" stroke-width="0.5" stroke="red" fill="red"/>
   </g>
   <g id="cell75">
  <circle cx="94.2903" cy="326.772" r="8.83806" stroke-width="0.5" stroke="black" fill="red"/>
  <circle cx="94.2903" cy="326.772" r="5.35947" stroke-width="0.5" stroke="red" fill="red"/>
   </g>
   <g id="cell76">
  <circle cx="779.498" cy="414.926" r="8.39203" stroke-width="0.5" stroke="black" fill="red"/>
  <circle cx="779.498" cy="414.926" r="5.0446" stroke-width="0.5" stroke="red" fill="red"/>
   </g>
   <g id="cell77">
  <circle cx="633.91" cy="848.117" r="8.39752" stroke-width="0.5" stroke="black" fill="red"/>
  <circle cx="633.91" cy="848.117" r="5.04666" stroke-width="0.5" stroke="red" fill="red"/>
   </g>
   <g id="cell78">
  <circle cx="592.281" cy="272.828" r="8.39473" stroke-width="0.5" stroke="black" fill="red"/>
  <circle cx="592.281" cy="272.828" r="5.04562" stroke-width="0.5" stroke="red" fill="red"/>
   </g>
   <g id="cell79">
  <circle cx="976.629" cy="684.991" r="10.5536" stroke-width="0.5" stroke="black" fill="red"/>
  <circle cx="976.629" cy="684.991" r="6.34799" stroke-width="0.5" stroke="red" fill="red"/>
   </g>
   <g id="cell80">
  <circle cx="751.715" cy="696.847" r="10.2534" stroke-width="0.5" stroke="black" fill="yellow"/>
  <circle cx="751.715" cy="696.847" r="6.2028" stroke-width="0.5" stroke="yellow" fill="yellow"/>
   </g>
   <g id="cell81">
  <circle cx="491.248" cy="988.226" r="8.72828" stroke-width="0.5" stroke="black" fill="yellow"/>
  <circle cx="491.248" cy="988.226" r="5.28134" stroke-width="0.5" stroke="yellow" fill="yellow"/>
   </g>
   <g id="cell82">
  <circle cx="673.145" cy="439.843" r="9.29777" stroke-width="0.5" stroke="black" fill="yellow"/>
  <circle cx="673.145" cy="439.843" r="5.65379" stroke-width="0.5" stroke="yellow" fill="yellow"/>
   </g>
   <g id="cell83">
  <circle cx="605.077" cy="587.401" r="8.4406" stroke-width="0.5" stroke="black" fill="yellow"/>
  <circle cx="605.077" cy="587.401" r="5.07783" stroke-width="0.5" stroke="yellow" fill="yellow"/>
   </g>
   <g id="cell84">
  <circle cx="21.3937" cy="507.879" r="10.5573" stroke-width="0.5" stroke="black" fill="yellow"/>
  <circle cx="21.3937" cy="507.879" r="6.3495" stroke-width="0.5" stroke="yellow" fill="yellow"/>
   </g>
   <g id="cell85">
  <circle cx="756.431" cy="642.357" r="9.40187" stroke-width="0.5" stroke="black" fill="yellow"/>
  <circle cx="756.431" cy="642.357" r="5.71704" stroke-width="0.5" stroke="yellow" fill="yellow"/>
   </g>
   <g id="cell86">
  <circle cx="311.276" cy="449.683" r="10.5275" stroke-width="0.5" stroke="black" fill="yellow"/>
  <circle cx="311.276" cy="449.683" r="6.33696" stroke-width="0.5" stroke="yellow" fill="yellow"/>
   </g>
   <g id="cell87">
  <circle cx="742.445" cy="402.02" r="8.40494" stroke-width="0.5" stroke="black" fill="yellow"/>
  <circle cx="742.445" cy="402.02" r="5.04929" stroke-width="0.5" stroke="yellow" fill="yellow"/>
   </g>
   <g id="cell88">
  <circle cx="153.646" cy="109.775" r="8.7125" stroke-width="0.5" stroke="black" fill="yellow"/>
  <circle cx="153.646" cy="109.775" r="5.27584" stroke-width="0.5" stroke="yellow" fill="yellow"/>
   </g>
   <g id="cell89">
  <circle cx="70.537" cy="537.524" r="10.5404" stroke-width="0.5" stroke="black" fill="yellow"/>
  <circle cx="70.537" cy="537.524" r="6.34248" stroke-width="0.5" stroke="yellow" fill="yellow"/>
   </g>
   <g id="cell119">
  <circle cx="575.009" cy="35.5235" r="3.90671" stroke-width="0.5" stroke="black" fill="yellow"/>
  <circle cx="575.009" cy="35.5235" r="3.16133" stroke-width="0.5" stroke="black" fill="black"/>
   </g>
   <g id="cell91">
  <circle cx="38.3842" cy="647.301" r="10.5561" stroke-width="0.5" stroke="black" fill="yellow"/>
  <circle cx="38.3842" cy="647.301" r="6.34901" stroke-width="0.5" stroke="yellow" fill="yellow"/>
   </g>
   <g id="cell92">
  <circle cx="644.271" cy="305.359" r="8.39473" stroke-width="0.5" stroke="black" fill="yellow"/>
  <circle cx="644.271" cy="305.359" r="5.04562" stroke-width="0.5" stroke="yellow" fill="yellow"/>
   </g>
   <g id="cell93">
  <circle cx="245.622" cy="875.239" r="8.40494" stroke-width="0.5" stroke="black" fill="yellow"/>
  <circle cx="245.622" cy="875.239" r="5.04929" stroke-width="0.5" stroke="yellow" fill="yellow"/>
   </g>
   <g id="cell94">
  <circle cx="364.398" cy="92.2406" r="8.38753" stroke-width="0.5" stroke="black" fill="yellow"/>
  <circle cx="364.398" cy="92.2406" r="5.04286" stroke-width="0.5" stroke="yellow" fill="yellow"/>
   </g>
   <g id="cell95">
  <circle cx="966.764" cy="909.316" r="8.43441" stroke-width="0.5" stroke="black" fill="yellow"/>
  <circle cx="966.764" cy="909.316" r="5.0755" stroke-width="0.5" stroke="yellow" fill="yellow"/>
   </g>
   <g id="cell121">
  <circle cx="9.23479" cy="500.905" r="8.40537" stroke-width="0.5" stroke="black" fill="red"/>
  <circle cx="9.23479" cy="500.905" r="5.04944" stroke-width="0.5" stroke="red" fill="red"/>
   </g>
   <g id="cell122">
  <circle cx="750.913" cy="431.9" r="9.30192" stroke-width="0.5" stroke="black" fill="yellow"/>
  <circle cx="750.913" cy="431.9" r="5.65532" stroke-width="0.5" stroke="yellow" fill="yellow"/>
   </g>
   <g id="cell123">
  <circle cx="256.49" cy="881.316" r="8.40494" stroke-width="0.5" stroke="black" fill="yellow"/>
  <circle cx="256.49" cy="881.316" r="5.04929" stroke-width="0.5" stroke="yellow" fill="yellow"/>
   </g>
   <g id="cell124">
  <circle cx="512.357" cy="645.792" r="8.40494" stroke-width="0.5" stroke="black" fill="grey"/>
  <circle cx="512.357" cy="645.792" r="5.04929" stroke-width="0.5" stroke="grey" fill="grey"/>
   </g>
   <g id="cell125">
  <circle cx="792.277" cy="392.442" r="9.52918" stroke-width="0.5" stroke="black" fill="yellow"/>
  <circle cx="792.277" cy="392.442" r="5.7935" stroke-width="0.5" stroke="yellow" fill="yellow"/>
   </g>
   <g id="cell126">
  <circle cx="988.852" cy="157.147" r="8.40427" stroke-width="0.5" stroke="black" fill="red"/>
  <circle cx="988.852" cy="157.147" r="5.04906" stroke-width="0.5" stroke="red" fill="red"/>
   </g>
   <g id="cell127">
  <circle cx="880.331" cy="521.635" r="9.40314" stroke-width="0.5" stroke="black" fill="red"/>
  <circle cx="880.331" cy="521.635" r="5.71751" stroke-width="0.5" stroke="red" fill="red"/>
   </g>
   <g id="cell128">
  <circle cx="937.185" cy="48.758" r="8.40403" stroke-width="0.5" stroke="black" fill="red"/>
  <circle cx="937.185" cy="48.758" r="5.04898" stroke-width="0.5" stroke="red" fill="red"/>
   </g>
   <g id="cell129">
  <circle cx="962.996" cy="662.953" r="9.22924" stroke-width="0.5" stroke="black" fill="grey"/>
  <circle cx="962.996" cy="662.953" r="5.61059" stroke-width="0.5" stroke="grey" fill="grey"/>
   </g>
   <g id="cell130">
  <circle cx="916.427" cy="602.098" r="8.40327" stroke-width="0.5" stroke="black" fill="yellow"/>
  <circle cx="916.427" cy="602.098" r="5.04872" stroke-width="0.5" stroke="yellow" fill="yellow"/>
   </g>
   <g id="cell132">
  <circle cx="76.5118" cy="908.075" r="8.68026" stroke-width="0.5" stroke="black" fill="red"/>
  <circle cx="76.5118" cy="908.075" r="5.25119" stroke-width="0.5" stroke="red" fill="red"/>
   </g>
   <g id="cell133">
  <circle cx="676.224" cy="357.169" r="8.403" stroke-width="0.5" stroke="black" fill="red"/>
  <circle cx="676.224" cy="357.169" r="5.04863" stroke-width="0.5" stroke="red" fill="red"/>
   </g>
   <g id="cell134">
  <circle cx="631.787" cy="439.835" r="8.403" stroke-width="0.5" stroke="black" fill="grey"/>
  <circle cx="631.787" cy="439.835" r="5.04863" stroke-width="0.5" stroke="grey" fill="grey"/>
   </g>
   <g id="cell136">
  <circle cx="645.776" cy="424.213" r="8.40244" stroke-width="0.5" stroke="black" fill="red"/>
  <circle cx="645.776" cy="424.213" r="5.04843" stroke-width="0.5" stroke="red" fill="red"/>
   </g>
   <g id="cell137">
  <circle cx="767.948" cy="681.448" r="8.40244" stroke-width="0.5" stroke="black" fill="yellow"/>
  <circle cx="767.948" cy="681.448" r="5.04843" stroke-width="0.5" stroke="yellow" fill="yellow"/>
   </g>
   <g id="cell138">
  <circle cx="757.282" cy="239.519" r="9.46598" stroke-width="0.5" stroke="black" fill="red"/>
  <circle cx="757.282" cy="239.519" r="5.75594" stroke-width="0.5" stroke="red" fill="red"/>
   </g>
   <g id="cell139">
  <circle cx="782.964" cy="733.843" r="8.40215" stroke-width="0.5" stroke="black" fill="yellow"/>
  <circle cx="782.964" cy="733.843" r="5.04833" stroke-width="0.5" stroke="yellow" fill="yellow"/>
   </g>
   <g id="cell140">
  <circle cx="95.71" cy="339.633" r="9.4014" stroke-width="0.5" stroke="black" fill="red"/>
  <circle cx="95.71" cy="339.633" r="5.71687" stroke-width="0.5" stroke="red" fill="red"/>
   </g>
   <g id="cell141">
  <circle cx="23.4037" cy="979.472" r="9.29939" stroke-width="0.5" stroke="black" fill="yellow"/>
  <circle cx="23.4037" cy="979.472" r="5.6544" stroke-width="0.5" stroke="yellow" fill="yellow"/>
   </g>
   <g id="cell142">
  <circle cx="690.096" cy="657.539" r="8.40154" stroke-width="0.5" stroke="black" fill="red"/>
  <circle cx="690.096" cy="657.539" r="5.04811" stroke-width="0.5" stroke="red" fill="red"/>
   </g>
   <g id="cell143">
  <circle cx="130.062" cy="727.953" r="8.40154" stroke-width="0.5" stroke="black" fill="red"/>
  <circle cx="130.062" cy="727.953" r="5.04811" stroke-width="0.5" stroke="red" fill="red"/>
   </g>
   <g id="cell144">
  <circle cx="629.861" cy="165.082" r="8.8375" stroke-width="0.5" stroke="black" fill="grey"/>
  <circle cx="629.861" cy="165.082" r="5.35926" stroke-width="0.5" stroke="grey" fill="grey"/>
   </g>
   <g id="cell145">
  <circle cx="499.158" cy="554.186" r="8.4009" stroke-width="0.5" stroke="black" fill="red"/>
  <circle cx="499.158" cy="554.186" r="5.04788" stroke-width="0.5" stroke="red" fill="red"/>
   </g>
   <g id="cell146">
  <circle cx="319.966" cy="200.698" r="8.63946" stroke-width="0.5" stroke="black" fill="red"/>
  <circle cx="319.966" cy="200.698" r="5.22326" stroke-width="0.5" stroke="red" fill="red"/>
   </g>
   <g id="cell147">
  <circle cx="666.963" cy="409.727" r="8.39987" stroke-width="0.5" stroke="black" fill="yellow"/>
  <circle cx="666.963" cy="409.727" r="5.04751" stroke-width="0.5" stroke="yellow" fill="yellow"/>
   </g>
   <g id="cell148">
  <circle cx="162.808" cy="743.564" r="9.33251" stroke-width="0.5" stroke="black" fill="grey"/>
  <circle cx="162.808" cy="743.564" r="5.67516" stroke-width="0.5" stroke="grey" fill="grey"/>
   </g>
   <g id="cell149">
  <circle cx="882.889" cy="434.243" r="9.11397" stroke-width="0.5" stroke="black" fill="red"/>
  <circle cx="882.889" cy="434.243" r="5.53904" stroke-width="0.5" stroke="red" fill="red"/>
   </g>
   <g id="cell150">
  <circle cx="186.611" cy="31.1528" r="8.3995" stroke-width="0.5" stroke="black" fill="yellow"/>
  <circle cx="186.611" cy="31.1528" r="5.04738" stroke-width="0.5" stroke="yellow" fill="yellow"/>
   </g>
   <g id="cell151">
  <circle cx="223.116" cy="897.757" r="8.39913" stroke-width="0.5" stroke="black" fill="red"/>
  <circle cx="223.116" cy="897.757" r="5.04725" stroke-width="0.5" stroke="red" fill="red"/>
   </g>
   <g id="cell152">
  <circle cx="564.826" cy="833.433" r="8.9159" stroke-width="0.5" stroke="black" fill="red"/>
  <circle cx="564.826" cy="833.433" r="5.4118" stroke-width="0.5" stroke="red" fill="red"/>
   </g>
   <g id="cell154">
  <circle cx="849.194" cy="42.1747" r="8.39794" stroke-width="0.5" stroke="black" fill="red"/>
  <circle cx="849.194" cy="42.1747" r="5.04681" stroke-width="0.5" stroke="red" fill="red"/>
   </g>
   <g id="cell155">
  <circle cx="646.316" cy="869.201" r="8.75382" stroke-width="0.5" stroke="black" fill="red"/>
  <circle cx="646.316" cy="869.201" r="5.30373" stroke-width="0.5" stroke="red" fill="red"/>
   </g>
   <g id="cell156">
  <circle cx="901.043" cy="516.539" r="8.59975" stroke-width="0.5" stroke="black" fill="grey"/>
  <circle cx="901.043" cy="516.539" r="5.1957" stroke-width="0.5" stroke="grey" fill="grey"/>
   </g>
   <g id="cell157">
  <circle cx="598.869" cy="596.63" r="8.39708" stroke-width="0.5" stroke="black" fill="yellow"/>
  <circle cx="598.869" cy="596.63" r="5.0465" stroke-width="0.5" stroke="yellow" fill="yellow"/>
   </g>
   <g id="cell158">
  <circle cx="155.232" cy="129.263" r="8.56222" stroke-width="0.5" stroke="black" fill="yellow"/>
  <circle cx="155.232" cy="129.263" r="5.16904" stroke-width="0.5" stroke="yellow" fill="yellow"/>
   </g>
   <g id="cell159">
  <circle cx="653.869" cy="293.665" r="8.39473" stroke-width="0.5" stroke="black" fill="yellow"/>
  <circle cx="653.869" cy="293.665" r="5.04562" stroke-width="0.5" stroke="yellow" fill="yellow"/>
   </g>
   <g id="cell160">
  <circle cx="616.166" cy="270.826" r="8.39473" stroke-width="0.5" stroke="black" fill="red"/>
  <circle cx="616.166" cy="270.826" r="5.04562" stroke-width="0.5" stroke="red" fill="red"/>
   </g>
   <g id="cell161">
  <circle cx="34.7063" cy="929.652" r="8.3937" stroke-width="0.5" stroke="black" fill="red"/>
  <circle cx="34.7063" cy="929.652" r="5.04523" stroke-width="0.5" stroke="red" fill="red"/>
   </g>
   <g id="cell162">
  <circle cx="832.792" cy="124.707" r="8.7503" stroke-width="0.5" stroke="black" fill="red"/>
  <circle cx="832.792" cy="124.707" r="5.30238" stroke-width="0.5" stroke="red" fill="red"/>
   </g>
   <g id="cell163">
  <circle cx="421.443" cy="970.706" r="8.67104" stroke-width="0.5" stroke="black" fill="red"/>
  <circle cx="421.443" cy="970.706" r="5.24772" stroke-width="0.5" stroke="red" fill="red"/>
   </g>
   <g id="cell164">
  <circle cx="846.17" cy="963.761" r="8.39316" stroke-width="0.5" stroke="black" fill="red"/>
  <circle cx="846.17" cy="963.761" r="5.04503" stroke-width="0.5" stroke="red" fill="red"/>
   </g>
   <g id="cell165">
  <circle cx="806.93" cy="387.584" r="8.63171" stroke-width="0.5" stroke="black" fill="red"/>
  <circle cx="806.93" cy="387.584" r="5.22032" stroke-width="0.5" stroke="red" fill="red"/>
   </g>
   <g id="cell166">
  <circle cx="796.527" cy="546.409" r="8.59396" stroke-width="0.5" stroke="black" fill="yellow"/>
  <circle cx="796.527" cy="546.409" r="5.19348" stroke-width="0.5" stroke="yellow" fill="yellow"/>
   </g>
   <g id="cell167">
  <circle cx="633.185" cy="162.376" r="8.39144" stroke-width="0.5" stroke="black" fill="yellow"/>
  <circle cx="633.185" cy="162.376" r="5.04437" stroke-width="0.5" stroke="yellow" fill="yellow"/>
   </g>
   <g id="cell168">
  <circle cx="969.281" cy="906.413" r="8.39083" stroke-width="0.5" stroke="black" fill="yellow"/>
  <circle cx="969.281" cy="906.413" r="5.04414" stroke-width="0.5" stroke="yellow" fill="yellow"/>
   </g>
   <g id="cell169">
  <circle cx="350.179" cy="959.571" r="8.39021" stroke-width="0.5" stroke="black" fill="yellow"/>
  <circle cx="350.179" cy="959.571" r="5.0439" stroke-width="0.5" stroke="yellow" fill="yellow"/>
   </g>
   <g id="cell170">
  <circle cx="72.6729" cy="975.005" r="8.39021" stroke-width="0.5" stroke="black" fill="red"/>
  <circle cx="72.6729" cy="975.005" r="5.0439" stroke-width="0.5" stroke="red" fill="red"/>
   </g>
   <g id="cell171">
  <circle cx="536.316" cy="369.565" r="8.39021" stroke-width="0.5" stroke="black" fill="red"/>
  <circle cx="536.316" cy="369.565" r="5.0439" stroke-width="0.5" stroke="red" fill="red"/>
   </g>
   <g id="cell172">
  <circle cx="465.104" cy="775.274" r="8.38957" stroke-width="0.5" stroke="black" fill="red"/>
  <circle cx="465.104" cy="775.274" r="5.04365" stroke-width="0.5" stroke="red" fill="red"/>
   </g>
   <g id="cell173">
  <circle cx="912.939" cy="407.432" r="8.38891" stroke-width="0.5" stroke="black" fill="red"/>
  <circle cx="912.939" cy="407.432" r="5.0434" stroke-width="0.5" stroke="red" fill="red"/>
   </g>
   <g id="cell174">
  <circle cx="381.92" cy="103.64" r="8.38753" stroke-width="0.5" stroke="black" fill="yellow"/>
  <circle cx="381.92" cy="103.64" r="5.04286" stroke-width="0.5" stroke="yellow" fill="yellow"/>
   </g>
   <g id="cell175">
  <circle cx="36.651" cy="324.234" r="8.38753" stroke-width="0.5" stroke="black" fill="yellow"/>
  <circle cx="36.651" cy="324.234" r="5.04286" stroke-width="0.5" stroke="yellow" fill="yellow"/>
   </g>
   <g id="cell176">
  <circle cx="254.405" cy="61.2889" r="8.38532" stroke-width="0.5" stroke="black" fill="red"/>
  <circle cx="254.405" cy="61.2889" r="5.04199" stroke-width="0.5" stroke="red" fill="red"/>
   </g>
   <g id="cell177">
  <circle cx="453.067" cy="302.234" r="8.38532" stroke-width="0.5" stroke="black" fill="red"/>
  <circle cx="453.067" cy="302.234" r="5.04199" stroke-width="0.5" stroke="red" fill="red"/>
   </g>
  </g>
 </g>
  <rect x="775" y="1035" width="200" height="10" stroke-width="2" stroke="rgb(255,255,255)" fill="rgb(0,0,0)"/>
  <text x="781.25" y="1028.75"
   font-family="Arial" font-size="25" fill="black" >
   200 &#956;m
  </text>
  <text x="25" y="1045"
   font-family="Arial" font-size="18.75" fill="black" >
   0 days, 0 hours, 1 minutes, and 26.1043 seconds
  </text>
  <rect x="0" y="70" width="1000" height="1000" stroke-width="2" stroke="rgb(0,0,0)" fill="none"/>
</svg>
