<?xml version="1.0" encoding="UTF-8" standalone="no"?>
<!-- Created with PhysiCell (http://PhysiCell.MathCancer.org/) -->
<svg 
 xmlns:dc="http://purl.org/dc/elements/1.1/" 
 xmlns:cc="http://creativecommons.org/ns#" 
 xmlns:rdf="http://www.w3.org/1999/02/22-rdf-syntax-ns#" 
 xmlns:svg="http://www.w3.org/2000/svg" 
 xmlns="http://www.w3.org/2000/svg" 
 version="1.1" 
 width="1000" 
 height="1070" 
 id="svg2">
  <rect x="0" y="0" width="1000" height="1070" stroke-width="2" stroke="white" fill="white"/>
  <text x="12.5" y="30"
   font-family="Arial" font-size="25" fill="black" >
   Current time: 0 days, 3 hours, and 30.00 minutes, z = 0.00 &#956;m
  </text>
  <text x="12.5" y="57.5"
   font-family="Arial" font-size="23.75" fill="black" >
   120 agents
  </text>
 <g id="tissue" 
    transform="translate(0,1070) scale(1,-1)">
  <g id="ECM">
  </g>
  <g id="cells">
   <g id="cell0">
  <circle cx="528.367" cy="584.791" r="9.53557" stroke-width="0.5" stroke="black" fill="grey"/>
  <circle cx="528.367" cy="584.791" r="5.79561" stroke-width="0.5" stroke="grey" fill="grey"/>
   </g>
   <g id="cell1">
  <circle cx="839.837" cy="610.74" r="2.62118" stroke-width="0.5" stroke="black" fill="grey"/>
  <circle cx="839.837" cy="610.74" r="2.28296" stroke-width="0.5" stroke="black" fill="black"/>
   </g>
   <g id="cell2">
  <circle cx="541.744" cy="833.385" r="9.5651" stroke-width="0.5" stroke="black" fill="grey"/>
  <circle cx="541.744" cy="833.385" r="5.81327" stroke-width="0.5" stroke="grey" fill="grey"/>
   </g>
   <g id="cell3">
  <circle cx="629.564" cy="631.829" r="9.30826" stroke-width="0.5" stroke="black" fill="grey"/>
  <circle cx="629.564" cy="631.829" r="5.65742" stroke-width="0.5" stroke="grey" fill="grey"/>
   </g>
   <g id="cell4">
  <circle cx="429.072" cy="310.107" r="8.41271" stroke-width="0.5" stroke="black" fill="grey"/>
  <circle cx="429.072" cy="310.107" r="5.05167" stroke-width="0.5" stroke="grey" fill="grey"/>
   </g>
   <g id="cell5">
  <circle cx="76.0043" cy="964.781" r="9.44256" stroke-width="0.5" stroke="black" fill="grey"/>
  <circle cx="76.0043" cy="964.781" r="5.73955" stroke-width="0.5" stroke="grey" fill="grey"/>
   </g>
   <g id="cell6">
  <circle cx="402.196" cy="487.1" r="9.59391" stroke-width="0.5" stroke="black" fill="grey"/>
  <circle cx="402.196" cy="487.1" r="5.83043" stroke-width="0.5" stroke="grey" fill="grey"/>
   </g>
   <g id="cell7">
  <circle cx="804.569" cy="540.585" r="8.65127" stroke-width="0.5" stroke="black" fill="grey"/>
  <circle cx="804.569" cy="540.585" r="5.2272" stroke-width="0.5" stroke="grey" fill="grey"/>
   </g>
   <g id="cell8">
  <circle cx="589.986" cy="395.514" r="8.41271" stroke-width="0.5" stroke="black" fill="grey"/>
  <circle cx="589.986" cy="395.514" r="5.05167" stroke-width="0.5" stroke="grey" fill="grey"/>
   </g>
   <g id="cell9">
  <circle cx="847.148" cy="85.0327" r="3.45715" stroke-width="0.5" stroke="black" fill="grey"/>
  <circle cx="847.148" cy="85.0327" r="2.66266" stroke-width="0.5" stroke="black" fill="black"/>
   </g>
   <g id="cell10">
  <circle cx="100.585" cy="643.862" r="8.9283" stroke-width="0.5" stroke="black" fill="grey"/>
  <circle cx="100.585" cy="643.862" r="5.4161" stroke-width="0.5" stroke="grey" fill="grey"/>
   </g>
   <g id="cell11">
  <circle cx="358.711" cy="840.676" r="8.41271" stroke-width="0.5" stroke="black" fill="grey"/>
  <circle cx="358.711" cy="840.676" r="5.05167" stroke-width="0.5" stroke="grey" fill="grey"/>
   </g>
   <g id="cell12">
  <circle cx="780.795" cy="127.294" r="8.41271" stroke-width="0.5" stroke="black" fill="grey"/>
  <circle cx="780.795" cy="127.294" r="5.05167" stroke-width="0.5" stroke="grey" fill="grey"/>
   </g>
   <g id="cell13">
  <circle cx="874.954" cy="959.494" r="8.41271" stroke-width="0.5" stroke="black" fill="grey"/>
  <circle cx="874.954" cy="959.494" r="5.05167" stroke-width="0.5" stroke="grey" fill="grey"/>
   </g>
   <g id="cell14">
  <circle cx="818.263" cy="814.622" r="9.04745" stroke-width="0.5" stroke="black" fill="grey"/>
  <circle cx="818.263" cy="814.622" r="5.49345" stroke-width="0.5" stroke="grey" fill="grey"/>
   </g>
   <g id="cell15">
  <circle cx="514.58" cy="768.16" r="8.84788" stroke-width="0.5" stroke="black" fill="grey"/>
  <circle cx="514.58" cy="768.16" r="5.36278" stroke-width="0.5" stroke="grey" fill="grey"/>
   </g>
   <g id="cell16">
  <circle cx="111.331" cy="730.104" r="8.88811" stroke-width="0.5" stroke="black" fill="grey"/>
  <circle cx="111.331" cy="730.104" r="5.38958" stroke-width="0.5" stroke="grey" fill="grey"/>
   </g>
   <g id="cell17">
  <circle cx="576.613" cy="145.199" r="3.27739" stroke-width="0.5" stroke="black" fill="grey"/>
  <circle cx="576.613" cy="145.199" r="2.58717" stroke-width="0.5" stroke="black" fill="black"/>
   </g>
   <g id="cell18">
  <circle cx="919.617" cy="740.699" r="8.41271" stroke-width="0.5" stroke="black" fill="grey"/>
  <circle cx="919.617" cy="740.699" r="5.05167" stroke-width="0.5" stroke="grey" fill="grey"/>
   </g>
   <g id="cell19">
  <circle cx="109.796" cy="415.885" r="8.41271" stroke-width="0.5" stroke="black" fill="grey"/>
  <circle cx="109.796" cy="415.885" r="5.05167" stroke-width="0.5" stroke="grey" fill="grey"/>
   </g>
   <g id="cell20">
  <circle cx="242.996" cy="174.801" r="8.41271" stroke-width="0.5" stroke="black" fill="grey"/>
  <circle cx="242.996" cy="174.801" r="5.05167" stroke-width="0.5" stroke="grey" fill="grey"/>
   </g>
   <g id="cell21">
  <circle cx="734.233" cy="442.09" r="8.41271" stroke-width="0.5" stroke="black" fill="grey"/>
  <circle cx="734.233" cy="442.09" r="5.05167" stroke-width="0.5" stroke="grey" fill="grey"/>
   </g>
   <g id="cell22">
  <circle cx="565.337" cy="126.183" r="2.84772" stroke-width="0.5" stroke="black" fill="grey"/>
  <circle cx="565.337" cy="126.183" r="2.39601" stroke-width="0.5" stroke="black" fill="black"/>
   </g>
   <g id="cell23">
  <circle cx="303.9" cy="607.146" r="7.82121" stroke-width="0.5" stroke="black" fill="grey"/>
  <circle cx="303.9" cy="607.146" r="4.84092" stroke-width="0.5" stroke="black" fill="black"/>
   </g>
   <g id="cell24">
  <circle cx="624.162" cy="235.304" r="9.41008" stroke-width="0.5" stroke="black" fill="grey"/>
  <circle cx="624.162" cy="235.304" r="5.71981" stroke-width="0.5" stroke="grey" fill="grey"/>
   </g>
   <g id="cell25">
  <circle cx="386.984" cy="973.394" r="8.41271" stroke-width="0.5" stroke="black" fill="grey"/>
  <circle cx="386.984" cy="973.394" r="5.05167" stroke-width="0.5" stroke="grey" fill="grey"/>
   </g>
   <g id="cell26">
  <circle cx="651.291" cy="469.288" r="9.2729" stroke-width="0.5" stroke="black" fill="grey"/>
  <circle cx="651.291" cy="469.288" r="5.63555" stroke-width="0.5" stroke="grey" fill="grey"/>
   </g>
   <g id="cell27">
  <circle cx="601.791" cy="449.353" r="2.67434" stroke-width="0.5" stroke="black" fill="grey"/>
  <circle cx="601.791" cy="449.353" r="2.31053" stroke-width="0.5" stroke="black" fill="black"/>
   </g>
   <g id="cell28">
  <circle cx="687.3" cy="111.802" r="9.04745" stroke-width="0.5" stroke="black" fill="grey"/>
  <circle cx="687.3" cy="111.802" r="5.49345" stroke-width="0.5" stroke="grey" fill="grey"/>
   </g>
   <g id="cell29">
  <circle cx="983.423" cy="665.543" r="9.34292" stroke-width="0.5" stroke="black" fill="grey"/>
  <circle cx="983.423" cy="665.543" r="5.67875" stroke-width="0.5" stroke="grey" fill="grey"/>
   </g>
   <g id="cell30">
  <circle cx="678.664" cy="175.704" r="8.41271" stroke-width="0.5" stroke="black" fill="grey"/>
  <circle cx="678.664" cy="175.704" r="5.05167" stroke-width="0.5" stroke="grey" fill="grey"/>
   </g>
   <g id="cell31">
  <circle cx="349.288" cy="118.925" r="8.41271" stroke-width="0.5" stroke="black" fill="grey"/>
  <circle cx="349.288" cy="118.925" r="5.05167" stroke-width="0.5" stroke="grey" fill="grey"/>
   </g>
   <g id="cell32">
  <circle cx="319.499" cy="595.194" r="3.33938" stroke-width="0.5" stroke="black" fill="grey"/>
  <circle cx="319.499" cy="595.194" r="2.64104" stroke-width="0.5" stroke="black" fill="black"/>
   </g>
   <g id="cell33">
  <circle cx="310.686" cy="554.325" r="9.41008" stroke-width="0.5" stroke="black" fill="grey"/>
  <circle cx="310.686" cy="554.325" r="5.71981" stroke-width="0.5" stroke="grey" fill="grey"/>
   </g>
   <g id="cell34">
  <circle cx="438.783" cy="641.622" r="8.41271" stroke-width="0.5" stroke="black" fill="grey"/>
  <circle cx="438.783" cy="641.622" r="5.05167" stroke-width="0.5" stroke="grey" fill="grey"/>
   </g>
   <g id="cell35">
  <circle cx="946.454" cy="88.5763" r="8.41271" stroke-width="0.5" stroke="black" fill="grey"/>
  <circle cx="946.454" cy="88.5763" r="5.05167" stroke-width="0.5" stroke="grey" fill="grey"/>
   </g>
   <g id="cell36">
  <circle cx="208.916" cy="622.395" r="4.90029" stroke-width="0.5" stroke="black" fill="grey"/>
  <circle cx="208.916" cy="622.395" r="3.29037" stroke-width="0.5" stroke="black" fill="black"/>
   </g>
   <g id="cell37">
  <circle cx="991.105" cy="649.704" r="4.0657" stroke-width="0.5" stroke="black" fill="grey"/>
  <circle cx="991.105" cy="649.704" r="2.92016" stroke-width="0.5" stroke="black" fill="black"/>
   </g>
   <g id="cell38">
  <circle cx="243.759" cy="422.122" r="9.5651" stroke-width="0.5" stroke="black" fill="grey"/>
  <circle cx="243.759" cy="422.122" r="5.81327" stroke-width="0.5" stroke="grey" fill="grey"/>
   </g>
   <g id="cell39">
  <circle cx="496.525" cy="254.099" r="4.0657" stroke-width="0.5" stroke="black" fill="grey"/>
  <circle cx="496.525" cy="254.099" r="2.92016" stroke-width="0.5" stroke="black" fill="black"/>
   </g>
   <g id="cell40">
  <circle cx="178.796" cy="342.891" r="8.72828" stroke-width="0.5" stroke="black" fill="red"/>
  <circle cx="178.796" cy="342.891" r="5.28134" stroke-width="0.5" stroke="red" fill="red"/>
   </g>
   <g id="cell41">
  <circle cx="667.024" cy="665.68" r="9.08642" stroke-width="0.5" stroke="black" fill="red"/>
  <circle cx="667.024" cy="665.68" r="5.51837" stroke-width="0.5" stroke="red" fill="red"/>
   </g>
   <g id="cell42">
  <circle cx="144.964" cy="763.298" r="9.08642" stroke-width="0.5" stroke="black" fill="red"/>
  <circle cx="144.964" cy="763.298" r="5.51837" stroke-width="0.5" stroke="red" fill="red"/>
   </g>
   <g id="cell43">
  <circle cx="933.237" cy="373.485" r="8.41271" stroke-width="0.5" stroke="black" fill="red"/>
  <circle cx="933.237" cy="373.485" r="5.05167" stroke-width="0.5" stroke="red" fill="red"/>
   </g>
   <g id="cell44">
  <circle cx="822.973" cy="18.4642" r="8.68937" stroke-width="0.5" stroke="black" fill="red"/>
  <circle cx="822.973" cy="18.4642" r="5.25417" stroke-width="0.5" stroke="red" fill="red"/>
   </g>
   <g id="cell45">
  <circle cx="623.167" cy="837.537" r="8.41271" stroke-width="0.5" stroke="black" fill="red"/>
  <circle cx="623.167" cy="837.537" r="5.05167" stroke-width="0.5" stroke="red" fill="red"/>
   </g>
   <g id="cell46">
  <circle cx="81.1483" cy="986.627" r="9.2729" stroke-width="0.5" stroke="black" fill="red"/>
  <circle cx="81.1483" cy="986.627" r="5.63555" stroke-width="0.5" stroke="red" fill="red"/>
   </g>
   <g id="cell47">
  <circle cx="901.389" cy="462.941" r="8.88811" stroke-width="0.5" stroke="black" fill="red"/>
  <circle cx="901.389" cy="462.941" r="5.38958" stroke-width="0.5" stroke="red" fill="red"/>
   </g>
   <g id="cell48">
  <circle cx="953.411" cy="40.057" r="9.41008" stroke-width="0.5" stroke="black" fill="red"/>
  <circle cx="953.411" cy="40.057" r="5.71981" stroke-width="0.5" stroke="red" fill="red"/>
   </g>
   <g id="cell49">
  <circle cx="464.273" cy="741.224" r="8.41271" stroke-width="0.5" stroke="black" fill="red"/>
  <circle cx="464.273" cy="741.224" r="5.05167" stroke-width="0.5" stroke="red" fill="red"/>
   </g>
   <g id="cell50">
  <circle cx="41.0041" cy="447.934" r="9.59391" stroke-width="0.5" stroke="black" fill="red"/>
  <circle cx="41.0041" cy="447.934" r="5.83043" stroke-width="0.5" stroke="red" fill="red"/>
   </g>
   <g id="cell51">
  <circle cx="956.592" cy="120.516" r="9.44256" stroke-width="0.5" stroke="black" fill="red"/>
  <circle cx="956.592" cy="120.516" r="5.73955" stroke-width="0.5" stroke="red" fill="red"/>
   </g>
   <g id="cell52">
  <circle cx="306.548" cy="486.019" r="8.41271" stroke-width="0.5" stroke="black" fill="red"/>
  <circle cx="306.548" cy="486.019" r="5.05167" stroke-width="0.5" stroke="red" fill="red"/>
   </g>
   <g id="cell53">
  <circle cx="702.8" cy="300.069" r="9.2729" stroke-width="0.5" stroke="black" fill="red"/>
  <circle cx="702.8" cy="300.069" r="5.63555" stroke-width="0.5" stroke="red" fill="red"/>
   </g>
   <g id="cell54">
  <circle cx="421.7" cy="933.418" r="8.41271" stroke-width="0.5" stroke="black" fill="red"/>
  <circle cx="421.7" cy="933.418" r="5.05167" stroke-width="0.5" stroke="red" fill="red"/>
   </g>
   <g id="cell55">
  <circle cx="229.852" cy="693.471" r="8.41271" stroke-width="0.5" stroke="black" fill="red"/>
  <circle cx="229.852" cy="693.471" r="5.05167" stroke-width="0.5" stroke="red" fill="red"/>
   </g>
   <g id="cell56">
  <circle cx="554.193" cy="842.856" r="8.7678" stroke-width="0.5" stroke="black" fill="red"/>
  <circle cx="554.193" cy="842.856" r="5.30857" stroke-width="0.5" stroke="red" fill="red"/>
   </g>
   <g id="cell57">
  <circle cx="494.32" cy="534.86" r="9.00806" stroke-width="0.5" stroke="black" fill="red"/>
  <circle cx="494.32" cy="534.86" r="5.46807" stroke-width="0.5" stroke="red" fill="red"/>
   </g>
   <g id="cell58">
  <circle cx="92.7385" cy="929.127" r="8.41271" stroke-width="0.5" stroke="black" fill="red"/>
  <circle cx="92.7385" cy="929.127" r="5.05167" stroke-width="0.5" stroke="red" fill="red"/>
   </g>
   <g id="cell59">
  <circle cx="91.8173" cy="941.419" r="8.41271" stroke-width="0.5" stroke="black" fill="red"/>
  <circle cx="91.8173" cy="941.419" r="5.05167" stroke-width="0.5" stroke="red" fill="red"/>
   </g>
   <g id="cell60">
  <circle cx="317.097" cy="32.0125" r="8.41271" stroke-width="0.5" stroke="black" fill="red"/>
  <circle cx="317.097" cy="32.0125" r="5.05167" stroke-width="0.5" stroke="red" fill="red"/>
   </g>
   <g id="cell61">
  <circle cx="834.446" cy="145.565" r="8.41271" stroke-width="0.5" stroke="black" fill="red"/>
  <circle cx="834.446" cy="145.565" r="5.05167" stroke-width="0.5" stroke="red" fill="red"/>
   </g>
   <g id="cell62">
  <circle cx="711.764" cy="829.235" r="8.41271" stroke-width="0.5" stroke="black" fill="red"/>
  <circle cx="711.764" cy="829.235" r="5.05167" stroke-width="0.5" stroke="red" fill="red"/>
   </g>
   <g id="cell63">
  <circle cx="288.531" cy="179.083" r="8.9283" stroke-width="0.5" stroke="black" fill="red"/>
  <circle cx="288.531" cy="179.083" r="5.4161" stroke-width="0.5" stroke="red" fill="red"/>
   </g>
   <g id="cell64">
  <circle cx="576.336" cy="545.534" r="8.41271" stroke-width="0.5" stroke="black" fill="red"/>
  <circle cx="576.336" cy="545.534" r="5.05167" stroke-width="0.5" stroke="red" fill="red"/>
   </g>
   <g id="cell65">
  <circle cx="176.27" cy="836.339" r="8.41271" stroke-width="0.5" stroke="black" fill="red"/>
  <circle cx="176.27" cy="836.339" r="5.05167" stroke-width="0.5" stroke="red" fill="red"/>
   </g>
   <g id="cell66">
  <circle cx="25.1561" cy="156.712" r="8.41271" stroke-width="0.5" stroke="black" fill="red"/>
  <circle cx="25.1561" cy="156.712" r="5.05167" stroke-width="0.5" stroke="red" fill="red"/>
   </g>
   <g id="cell67">
  <circle cx="538.893" cy="281.355" r="8.41271" stroke-width="0.5" stroke="black" fill="red"/>
  <circle cx="538.893" cy="281.355" r="5.05167" stroke-width="0.5" stroke="red" fill="red"/>
   </g>
   <g id="cell68">
  <circle cx="742.753" cy="290.791" r="9.16281" stroke-width="0.5" stroke="black" fill="red"/>
  <circle cx="742.753" cy="290.791" r="5.56677" stroke-width="0.5" stroke="red" fill="red"/>
   </g>
   <g id="cell69">
  <circle cx="432.675" cy="271.621" r="8.41271" stroke-width="0.5" stroke="black" fill="red"/>
  <circle cx="432.675" cy="271.621" r="5.05167" stroke-width="0.5" stroke="red" fill="red"/>
   </g>
   <g id="cell70">
  <circle cx="542.697" cy="394.617" r="8.41271" stroke-width="0.5" stroke="black" fill="red"/>
  <circle cx="542.697" cy="394.617" r="5.05167" stroke-width="0.5" stroke="red" fill="red"/>
   </g>
   <g id="cell71">
  <circle cx="894.369" cy="571.523" r="9.41008" stroke-width="0.5" stroke="black" fill="red"/>
  <circle cx="894.369" cy="571.523" r="5.71981" stroke-width="0.5" stroke="red" fill="red"/>
   </g>
   <g id="cell72">
  <circle cx="222.448" cy="878.714" r="8.80772" stroke-width="0.5" stroke="black" fill="red"/>
  <circle cx="222.448" cy="878.714" r="5.33574" stroke-width="0.5" stroke="red" fill="red"/>
   </g>
   <g id="cell73">
  <circle cx="664.886" cy="469.75" r="9.20015" stroke-width="0.5" stroke="black" fill="red"/>
  <circle cx="664.886" cy="469.75" r="5.59022" stroke-width="0.5" stroke="red" fill="red"/>
   </g>
   <g id="cell74">
  <circle cx="844.599" cy="984.7" r="8.41271" stroke-width="0.5" stroke="black" fill="red"/>
  <circle cx="844.599" cy="984.7" r="5.05167" stroke-width="0.5" stroke="red" fill="red"/>
   </g>
   <g id="cell75">
  <circle cx="92.4325" cy="318.169" r="9.12489" stroke-width="0.5" stroke="black" fill="red"/>
  <circle cx="92.4325" cy="318.169" r="5.54282" stroke-width="0.5" stroke="red" fill="red"/>
   </g>
   <g id="cell76">
  <circle cx="814.179" cy="397.28" r="8.41271" stroke-width="0.5" stroke="black" fill="red"/>
  <circle cx="814.179" cy="397.28" r="5.05167" stroke-width="0.5" stroke="red" fill="red"/>
   </g>
   <g id="cell77">
  <circle cx="645.99" cy="857.303" r="8.65127" stroke-width="0.5" stroke="black" fill="red"/>
  <circle cx="645.99" cy="857.303" r="5.2272" stroke-width="0.5" stroke="red" fill="red"/>
   </g>
   <g id="cell78">
  <circle cx="576.13" cy="311.289" r="8.45606" stroke-width="0.5" stroke="black" fill="red"/>
  <circle cx="576.13" cy="311.289" r="5.08296" stroke-width="0.5" stroke="red" fill="red"/>
   </g>
   <g id="cell79">
  <circle cx="973.25" cy="697.259" r="8.41271" stroke-width="0.5" stroke="black" fill="red"/>
  <circle cx="973.25" cy="697.259" r="5.05167" stroke-width="0.5" stroke="red" fill="red"/>
   </g>
   <g id="cell80">
  <circle cx="741.244" cy="685.493" r="8.41271" stroke-width="0.5" stroke="black" fill="yellow"/>
  <circle cx="741.244" cy="685.493" r="5.05167" stroke-width="0.5" stroke="yellow" fill="yellow"/>
   </g>
   <g id="cell81">
  <circle cx="509.377" cy="974.735" r="8.41271" stroke-width="0.5" stroke="black" fill="yellow"/>
  <circle cx="509.377" cy="974.735" r="5.05167" stroke-width="0.5" stroke="yellow" fill="yellow"/>
   </g>
   <g id="cell82">
  <circle cx="669.065" cy="417.732" r="8.88811" stroke-width="0.5" stroke="black" fill="yellow"/>
  <circle cx="669.065" cy="417.732" r="5.38958" stroke-width="0.5" stroke="yellow" fill="yellow"/>
   </g>
   <g id="cell83">
  <circle cx="611.619" cy="585.92" r="8.61424" stroke-width="0.5" stroke="black" fill="yellow"/>
  <circle cx="611.619" cy="585.92" r="5.20061" stroke-width="0.5" stroke="yellow" fill="yellow"/>
   </g>
   <g id="cell84">
  <circle cx="13.6067" cy="458.318" r="8.41271" stroke-width="0.5" stroke="black" fill="yellow"/>
  <circle cx="13.6067" cy="458.318" r="5.05167" stroke-width="0.5" stroke="yellow" fill="yellow"/>
   </g>
   <g id="cell85">
  <circle cx="719.183" cy="689.697" r="9.20015" stroke-width="0.5" stroke="black" fill="yellow"/>
  <circle cx="719.183" cy="689.697" r="5.59022" stroke-width="0.5" stroke="yellow" fill="yellow"/>
   </g>
   <g id="cell86">
  <circle cx="277.445" cy="404.7" r="8.41271" stroke-width="0.5" stroke="black" fill="yellow"/>
  <circle cx="277.445" cy="404.7" r="5.05167" stroke-width="0.5" stroke="yellow" fill="yellow"/>
   </g>
   <g id="cell87">
  <circle cx="763.503" cy="442.645" r="9.53557" stroke-width="0.5" stroke="black" fill="yellow"/>
  <circle cx="763.503" cy="442.645" r="5.79561" stroke-width="0.5" stroke="yellow" fill="yellow"/>
   </g>
   <g id="cell88">
  <circle cx="142.158" cy="98.0236" r="8.51252" stroke-width="0.5" stroke="black" fill="yellow"/>
  <circle cx="142.158" cy="98.0236" r="5.12552" stroke-width="0.5" stroke="yellow" fill="yellow"/>
   </g>
   <g id="cell89">
  <circle cx="70.2467" cy="560.605" r="8.41271" stroke-width="0.5" stroke="black" fill="yellow"/>
  <circle cx="70.2467" cy="560.605" r="5.05167" stroke-width="0.5" stroke="yellow" fill="yellow"/>
   </g>
   <g id="cell90">
  <circle cx="576.381" cy="549.137" r="2.62118" stroke-width="0.5" stroke="black" fill="yellow"/>
  <circle cx="576.381" cy="549.137" r="2.28296" stroke-width="0.5" stroke="black" fill="black"/>
   </g>
   <g id="cell91">
  <circle cx="40.5796" cy="644.983" r="8.41271" stroke-width="0.5" stroke="black" fill="yellow"/>
  <circle cx="40.5796" cy="644.983" r="5.05167" stroke-width="0.5" stroke="yellow" fill="yellow"/>
   </g>
   <g id="cell92">
  <circle cx="665.423" cy="297.321" r="8.45606" stroke-width="0.5" stroke="black" fill="yellow"/>
  <circle cx="665.423" cy="297.321" r="5.08296" stroke-width="0.5" stroke="yellow" fill="yellow"/>
   </g>
   <g id="cell93">
  <circle cx="204.795" cy="893.844" r="9.53557" stroke-width="0.5" stroke="black" fill="yellow"/>
  <circle cx="204.795" cy="893.844" r="5.79561" stroke-width="0.5" stroke="yellow" fill="yellow"/>
   </g>
   <g id="cell94">
  <circle cx="364.452" cy="74.8747" r="8.41271" stroke-width="0.5" stroke="black" fill="yellow"/>
  <circle cx="364.452" cy="74.8747" r="5.05167" stroke-width="0.5" stroke="yellow" fill="yellow"/>
   </g>
   <g id="cell95">
  <circle cx="967.285" cy="889.03" r="8.41271" stroke-width="0.5" stroke="black" fill="yellow"/>
  <circle cx="967.285" cy="889.03" r="5.05167" stroke-width="0.5" stroke="yellow" fill="yellow"/>
   </g>
   <g id="cell96">
  <circle cx="801.058" cy="522.105" r="8.41271" stroke-width="0.5" stroke="black" fill="yellow"/>
  <circle cx="801.058" cy="522.105" r="5.05167" stroke-width="0.5" stroke="yellow" fill="yellow"/>
   </g>
   <g id="cell97">
  <circle cx="440.106" cy="115.309" r="8.41271" stroke-width="0.5" stroke="black" fill="yellow"/>
  <circle cx="440.106" cy="115.309" r="5.05167" stroke-width="0.5" stroke="yellow" fill="yellow"/>
   </g>
   <g id="cell98">
  <circle cx="921.259" cy="335.395" r="8.41271" stroke-width="0.5" stroke="black" fill="yellow"/>
  <circle cx="921.259" cy="335.395" r="5.05167" stroke-width="0.5" stroke="yellow" fill="yellow"/>
   </g>
   <g id="cell99">
  <circle cx="494.481" cy="985.06" r="8.41271" stroke-width="0.5" stroke="black" fill="yellow"/>
  <circle cx="494.481" cy="985.06" r="5.05167" stroke-width="0.5" stroke="yellow" fill="yellow"/>
   </g>
   <g id="cell100">
  <circle cx="144.47" cy="868.534" r="9.23685" stroke-width="0.5" stroke="black" fill="yellow"/>
  <circle cx="144.47" cy="868.534" r="5.61315" stroke-width="0.5" stroke="yellow" fill="yellow"/>
   </g>
   <g id="cell101">
  <circle cx="44.8571" cy="148.069" r="8.41271" stroke-width="0.5" stroke="black" fill="yellow"/>
  <circle cx="44.8571" cy="148.069" r="5.05167" stroke-width="0.5" stroke="yellow" fill="yellow"/>
   </g>
   <g id="cell102">
  <circle cx="630.299" cy="157.819" r="8.41271" stroke-width="0.5" stroke="black" fill="yellow"/>
  <circle cx="630.299" cy="157.819" r="5.05167" stroke-width="0.5" stroke="yellow" fill="yellow"/>
   </g>
   <g id="cell103">
  <circle cx="791.325" cy="877.12" r="8.41271" stroke-width="0.5" stroke="black" fill="yellow"/>
  <circle cx="791.325" cy="877.12" r="5.05167" stroke-width="0.5" stroke="yellow" fill="yellow"/>
   </g>
   <g id="cell104">
  <circle cx="817.105" cy="437.447" r="9.4743" stroke-width="0.5" stroke="black" fill="yellow"/>
  <circle cx="817.105" cy="437.447" r="5.75875" stroke-width="0.5" stroke="yellow" fill="yellow"/>
   </g>
   <g id="cell105">
  <circle cx="147.259" cy="400.224" r="8.41271" stroke-width="0.5" stroke="black" fill="yellow"/>
  <circle cx="147.259" cy="400.224" r="5.05167" stroke-width="0.5" stroke="yellow" fill="yellow"/>
   </g>
   <g id="cell106">
  <circle cx="37.0833" cy="965.663" r="9.12489" stroke-width="0.5" stroke="black" fill="yellow"/>
  <circle cx="37.0833" cy="965.663" r="5.54282" stroke-width="0.5" stroke="yellow" fill="yellow"/>
   </g>
   <g id="cell107">
  <circle cx="380.138" cy="450.375" r="8.41271" stroke-width="0.5" stroke="black" fill="yellow"/>
  <circle cx="380.138" cy="450.375" r="5.05167" stroke-width="0.5" stroke="yellow" fill="yellow"/>
   </g>
   <g id="cell108">
  <circle cx="711.668" cy="64.9654" r="9.5053" stroke-width="0.5" stroke="black" fill="yellow"/>
  <circle cx="711.668" cy="64.9654" r="5.77744" stroke-width="0.5" stroke="yellow" fill="yellow"/>
   </g>
   <g id="cell109">
  <circle cx="373.355" cy="970.362" r="8.41271" stroke-width="0.5" stroke="black" fill="yellow"/>
  <circle cx="373.355" cy="970.362" r="5.05167" stroke-width="0.5" stroke="yellow" fill="yellow"/>
   </g>
   <g id="cell110">
  <circle cx="849.91" cy="240.894" r="8.41271" stroke-width="0.5" stroke="black" fill="yellow"/>
  <circle cx="849.91" cy="240.894" r="5.05167" stroke-width="0.5" stroke="yellow" fill="yellow"/>
   </g>
   <g id="cell111">
  <circle cx="774.066" cy="352.079" r="8.41271" stroke-width="0.5" stroke="black" fill="yellow"/>
  <circle cx="774.066" cy="352.079" r="5.05167" stroke-width="0.5" stroke="yellow" fill="yellow"/>
   </g>
   <g id="cell112">
  <circle cx="727.886" cy="758.038" r="9.16281" stroke-width="0.5" stroke="black" fill="yellow"/>
  <circle cx="727.886" cy="758.038" r="5.56677" stroke-width="0.5" stroke="yellow" fill="yellow"/>
   </g>
   <g id="cell113">
  <circle cx="347.194" cy="522.062" r="2.92947" stroke-width="0.5" stroke="black" fill="yellow"/>
  <circle cx="347.194" cy="522.062" r="2.46996" stroke-width="0.5" stroke="black" fill="black"/>
   </g>
   <g id="cell114">
  <circle cx="55.5066" cy="344.727" r="8.41271" stroke-width="0.5" stroke="black" fill="yellow"/>
  <circle cx="55.5066" cy="344.727" r="5.05167" stroke-width="0.5" stroke="yellow" fill="yellow"/>
   </g>
   <g id="cell115">
  <circle cx="194.39" cy="28.597" r="8.84788" stroke-width="0.5" stroke="black" fill="yellow"/>
  <circle cx="194.39" cy="28.597" r="5.36278" stroke-width="0.5" stroke="yellow" fill="yellow"/>
   </g>
   <g id="cell116">
  <circle cx="789.288" cy="482.681" r="8.41271" stroke-width="0.5" stroke="black" fill="yellow"/>
  <circle cx="789.288" cy="482.681" r="5.05167" stroke-width="0.5" stroke="yellow" fill="yellow"/>
   </g>
   <g id="cell117">
  <circle cx="882.812" cy="354.359" r="8.41271" stroke-width="0.5" stroke="black" fill="yellow"/>
  <circle cx="882.812" cy="354.359" r="5.05167" stroke-width="0.5" stroke="yellow" fill="yellow"/>
   </g>
   <g id="cell118">
  <circle cx="916.981" cy="616.019" r="9.30826" stroke-width="0.5" stroke="black" fill="yellow"/>
  <circle cx="916.981" cy="616.019" r="5.65742" stroke-width="0.5" stroke="yellow" fill="yellow"/>
   </g>
   <g id="cell119">
  <circle cx="599.349" cy="33.9178" r="8.41271" stroke-width="0.5" stroke="black" fill="yellow"/>
  <circle cx="599.349" cy="33.9178" r="5.05167" stroke-width="0.5" stroke="yellow" fill="yellow"/>
   </g>
  </g>
 </g>
  <rect x="775" y="1035" width="200" height="10" stroke-width="2" stroke="rgb(255,255,255)" fill="rgb(0,0,0)"/>
  <text x="781.25" y="1028.75"
   font-family="Arial" font-size="25" fill="black" >
   200 &#956;m
  </text>
  <text x="25" y="1045"
   font-family="Arial" font-size="18.75" fill="black" >
   0 days, 0 hours, 0 minutes, and 12.0401 seconds
  </text>
  <rect x="0" y="70" width="1000" height="1000" stroke-width="2" stroke="rgb(0,0,0)" fill="none"/>
</svg>
