<?xml version="1.0" encoding="UTF-8" standalone="no"?>
<!-- Created with PhysiCell (http://PhysiCell.MathCancer.org/) -->
<svg 
 xmlns:dc="http://purl.org/dc/elements/1.1/" 
 xmlns:cc="http://creativecommons.org/ns#" 
 xmlns:rdf="http://www.w3.org/1999/02/22-rdf-syntax-ns#" 
 xmlns:svg="http://www.w3.org/2000/svg" 
 xmlns="http://www.w3.org/2000/svg" 
 version="1.1" 
 width="1000" 
 height="1070" 
 id="svg2">
  <rect x="0" y="0" width="1000" height="1070" stroke-width="2" stroke="white" fill="white"/>
  <text x="12.5" y="30"
   font-family="Arial" font-size="25" fill="black" >
   Current time: 1 days, 5 hours, and 30.00 minutes, z = 0.00 &#956;m
  </text>
  <text x="12.5" y="57.5"
   font-family="Arial" font-size="23.75" fill="black" >
   163 agents
  </text>
 <g id="tissue" 
    transform="translate(0,1070) scale(1,-1)">
  <g id="ECM">
  </g>
  <g id="cells">
   <g id="cell0">
  <circle cx="494.386" cy="621.985" r="10.54" stroke-width="0.5" stroke="black" fill="grey"/>
  <circle cx="494.386" cy="621.985" r="6.3424" stroke-width="0.5" stroke="grey" fill="grey"/>
   </g>
   <g id="cell118">
  <circle cx="839.938" cy="584.896" r="8.41204" stroke-width="0.5" stroke="black" fill="yellow"/>
  <circle cx="839.938" cy="584.896" r="5.05151" stroke-width="0.5" stroke="yellow" fill="yellow"/>
   </g>
   <g id="cell100">
  <circle cx="136.351" cy="799.057" r="10.5347" stroke-width="0.5" stroke="black" fill="yellow"/>
  <circle cx="136.351" cy="799.057" r="6.34016" stroke-width="0.5" stroke="yellow" fill="yellow"/>
   </g>
   <g id="cell3">
  <circle cx="651.433" cy="641.972" r="10.5184" stroke-width="0.5" stroke="black" fill="grey"/>
  <circle cx="651.433" cy="641.972" r="6.3331" stroke-width="0.5" stroke="grey" fill="grey"/>
   </g>
   <g id="cell103">
  <circle cx="809.368" cy="877.457" r="8.38891" stroke-width="0.5" stroke="black" fill="yellow"/>
  <circle cx="809.368" cy="877.457" r="5.0434" stroke-width="0.5" stroke="yellow" fill="yellow"/>
   </g>
   <g id="cell135">
  <circle cx="132.831" cy="808.908" r="10.4203" stroke-width="0.5" stroke="black" fill="yellow"/>
  <circle cx="132.831" cy="808.908" r="6.2875" stroke-width="0.5" stroke="yellow" fill="yellow"/>
   </g>
   <g id="cell185">
  <circle cx="854.871" cy="400.835" r="10.0475" stroke-width="0.5" stroke="black" fill="yellow"/>
  <circle cx="854.871" cy="400.835" r="6.09213" stroke-width="0.5" stroke="yellow" fill="yellow"/>
   </g>
   <g id="cell7">
  <circle cx="850.96" cy="484.357" r="10.4887" stroke-width="0.5" stroke="black" fill="grey"/>
  <circle cx="850.96" cy="484.357" r="6.31981" stroke-width="0.5" stroke="grey" fill="grey"/>
   </g>
   <g id="cell192">
  <circle cx="814.285" cy="414.783" r="9.08152" stroke-width="0.5" stroke="black" fill="yellow"/>
  <circle cx="814.285" cy="414.783" r="5.5168" stroke-width="0.5" stroke="yellow" fill="yellow"/>
   </g>
   <g id="cell112">
  <circle cx="749.733" cy="728.273" r="2.15048" stroke-width="0.5" stroke="black" fill="yellow"/>
  <circle cx="749.733" cy="728.273" r="2.00257" stroke-width="0.5" stroke="black" fill="black"/>
   </g>
   <g id="cell176">
  <circle cx="273.209" cy="56.8491" r="9.96274" stroke-width="0.5" stroke="black" fill="red"/>
  <circle cx="273.209" cy="56.8491" r="6.0446" stroke-width="0.5" stroke="red" fill="red"/>
   </g>
   <g id="cell186">
  <circle cx="67.1222" cy="539.825" r="8.40944" stroke-width="0.5" stroke="black" fill="yellow"/>
  <circle cx="67.1222" cy="539.825" r="5.05076" stroke-width="0.5" stroke="yellow" fill="yellow"/>
   </g>
   <g id="cell104">
  <circle cx="756.086" cy="418.427" r="10.5208" stroke-width="0.5" stroke="black" fill="yellow"/>
  <circle cx="756.086" cy="418.427" r="6.3341" stroke-width="0.5" stroke="yellow" fill="yellow"/>
   </g>
   <g id="cell102">
  <circle cx="604.823" cy="156.191" r="10.2989" stroke-width="0.5" stroke="black" fill="yellow"/>
  <circle cx="604.823" cy="156.191" r="6.22672" stroke-width="0.5" stroke="yellow" fill="yellow"/>
   </g>
   <g id="cell98">
  <circle cx="874.615" cy="374.89" r="10.1484" stroke-width="0.5" stroke="black" fill="yellow"/>
  <circle cx="874.615" cy="374.89" r="6.14735" stroke-width="0.5" stroke="yellow" fill="yellow"/>
   </g>
   <g id="cell97">
  <circle cx="413.948" cy="102.799" r="10.0465" stroke-width="0.5" stroke="black" fill="yellow"/>
  <circle cx="413.948" cy="102.799" r="6.09181" stroke-width="0.5" stroke="yellow" fill="yellow"/>
   </g>
   <g id="cell16">
  <circle cx="131.186" cy="708.3" r="2.81032" stroke-width="0.5" stroke="black" fill="grey"/>
  <circle cx="131.186" cy="708.3" r="2.58357" stroke-width="0.5" stroke="black" fill="black"/>
   </g>
   <g id="cell116">
  <circle cx="820.455" cy="417.05" r="9.30359" stroke-width="0.5" stroke="black" fill="yellow"/>
  <circle cx="820.455" cy="417.05" r="5.65592" stroke-width="0.5" stroke="yellow" fill="yellow"/>
   </g>
   <g id="cell177">
  <circle cx="450.061" cy="282.084" r="8.64944" stroke-width="0.5" stroke="black" fill="red"/>
  <circle cx="450.061" cy="282.084" r="5.22669" stroke-width="0.5" stroke="red" fill="red"/>
   </g>
   <g id="cell101">
  <circle cx="93.0168" cy="151.821" r="8.39913" stroke-width="0.5" stroke="black" fill="yellow"/>
  <circle cx="93.0168" cy="151.821" r="5.04725" stroke-width="0.5" stroke="yellow" fill="yellow"/>
   </g>
   <g id="cell184">
  <circle cx="525.76" cy="299.048" r="10.3457" stroke-width="0.5" stroke="black" fill="red"/>
  <circle cx="525.76" cy="299.048" r="6.25077" stroke-width="0.5" stroke="red" fill="red"/>
   </g>
   <g id="cell99">
  <circle cx="484.633" cy="983.444" r="10.2711" stroke-width="0.5" stroke="black" fill="yellow"/>
  <circle cx="484.633" cy="983.444" r="6.21246" stroke-width="0.5" stroke="yellow" fill="yellow"/>
   </g>
   <g id="cell115">
  <circle cx="220.555" cy="29.7927" r="10.415" stroke-width="0.5" stroke="black" fill="yellow"/>
  <circle cx="220.555" cy="29.7927" r="6.28494" stroke-width="0.5" stroke="yellow" fill="yellow"/>
   </g>
   <g id="cell191">
  <circle cx="737.341" cy="136.006" r="9.92283" stroke-width="0.5" stroke="black" fill="grey"/>
  <circle cx="737.341" cy="136.006" r="6.02257" stroke-width="0.5" stroke="grey" fill="grey"/>
   </g>
   <g id="cell153">
  <circle cx="184.027" cy="389.257" r="10.4789" stroke-width="0.5" stroke="black" fill="red"/>
  <circle cx="184.027" cy="389.257" r="6.31532" stroke-width="0.5" stroke="red" fill="red"/>
   </g>
   <g id="cell105">
  <circle cx="57.8828" cy="403.766" r="8.55867" stroke-width="0.5" stroke="black" fill="yellow"/>
  <circle cx="57.8828" cy="403.766" r="5.16768" stroke-width="0.5" stroke="yellow" fill="yellow"/>
   </g>
   <g id="cell26">
  <circle cx="675.114" cy="475.281" r="2.05397" stroke-width="0.5" stroke="black" fill="grey"/>
  <circle cx="675.114" cy="475.281" r="2.00794" stroke-width="0.5" stroke="black" fill="black"/>
   </g>
   <g id="cell117">
  <circle cx="880.705" cy="378.031" r="8.4085" stroke-width="0.5" stroke="black" fill="yellow"/>
  <circle cx="880.705" cy="378.031" r="5.05047" stroke-width="0.5" stroke="yellow" fill="yellow"/>
   </g>
   <g id="cell28">
  <circle cx="707.106" cy="112.045" r="8.41189" stroke-width="0.5" stroke="black" fill="grey"/>
  <circle cx="707.106" cy="112.045" r="5.05147" stroke-width="0.5" stroke="grey" fill="grey"/>
   </g>
   <g id="cell29">
  <circle cx="960.703" cy="637.569" r="10.3162" stroke-width="0.5" stroke="black" fill="grey"/>
  <circle cx="960.703" cy="637.569" r="6.2355" stroke-width="0.5" stroke="grey" fill="grey"/>
   </g>
   <g id="cell30">
  <circle cx="752.435" cy="127.714" r="8.60963" stroke-width="0.5" stroke="black" fill="grey"/>
  <circle cx="752.435" cy="127.714" r="5.19922" stroke-width="0.5" stroke="grey" fill="grey"/>
   </g>
   <g id="cell190">
  <circle cx="459.436" cy="111.781" r="8.40814" stroke-width="0.5" stroke="black" fill="yellow"/>
  <circle cx="459.436" cy="111.781" r="5.05035" stroke-width="0.5" stroke="yellow" fill="yellow"/>
   </g>
   <g id="cell114">
  <circle cx="67.8567" cy="356.577" r="10.2522" stroke-width="0.5" stroke="black" fill="yellow"/>
  <circle cx="67.8567" cy="356.577" r="6.20248" stroke-width="0.5" stroke="yellow" fill="yellow"/>
   </g>
   <g id="cell107">
  <circle cx="375.992" cy="473.826" r="8.39794" stroke-width="0.5" stroke="black" fill="yellow"/>
  <circle cx="375.992" cy="473.826" r="5.04681" stroke-width="0.5" stroke="yellow" fill="yellow"/>
   </g>
   <g id="cell106">
  <circle cx="27.7964" cy="919.355" r="10.5087" stroke-width="0.5" stroke="black" fill="yellow"/>
  <circle cx="27.7964" cy="919.355" r="6.32881" stroke-width="0.5" stroke="yellow" fill="yellow"/>
   </g>
   <g id="cell35">
  <circle cx="943.773" cy="59.4903" r="8.38532" stroke-width="0.5" stroke="black" fill="grey"/>
  <circle cx="943.773" cy="59.4903" r="5.04199" stroke-width="0.5" stroke="grey" fill="grey"/>
   </g>
   <g id="cell109">
  <circle cx="367.809" cy="990.27" r="9.67483" stroke-width="0.5" stroke="black" fill="yellow"/>
  <circle cx="367.809" cy="990.27" r="5.87867" stroke-width="0.5" stroke="yellow" fill="yellow"/>
   </g>
   <g id="cell111">
  <circle cx="781.073" cy="401.276" r="8.40814" stroke-width="0.5" stroke="black" fill="yellow"/>
  <circle cx="781.073" cy="401.276" r="5.05035" stroke-width="0.5" stroke="yellow" fill="yellow"/>
   </g>
   <g id="cell131">
  <circle cx="634.278" cy="590.481" r="10.4568" stroke-width="0.5" stroke="black" fill="grey"/>
  <circle cx="634.278" cy="590.481" r="6.30496" stroke-width="0.5" stroke="grey" fill="grey"/>
   </g>
   <g id="cell110">
  <circle cx="871.857" cy="266.987" r="8.39571" stroke-width="0.5" stroke="black" fill="yellow"/>
  <circle cx="871.857" cy="266.987" r="5.04599" stroke-width="0.5" stroke="yellow" fill="yellow"/>
   </g>
   <g id="cell40">
  <circle cx="163.91" cy="408.013" r="10.4483" stroke-width="0.5" stroke="black" fill="red"/>
  <circle cx="163.91" cy="408.013" r="6.30095" stroke-width="0.5" stroke="red" fill="red"/>
   </g>
   <g id="cell41">
  <circle cx="691.262" cy="696.397" r="10.4721" stroke-width="0.5" stroke="black" fill="red"/>
  <circle cx="691.262" cy="696.397" r="6.31211" stroke-width="0.5" stroke="red" fill="red"/>
   </g>
   <g id="cell42">
  <circle cx="161.858" cy="720.448" r="10.3609" stroke-width="0.5" stroke="black" fill="red"/>
  <circle cx="161.858" cy="720.448" r="6.25821" stroke-width="0.5" stroke="red" fill="red"/>
   </g>
   <g id="cell43">
  <circle cx="873.11" cy="391.997" r="10.3604" stroke-width="0.5" stroke="black" fill="red"/>
  <circle cx="873.11" cy="391.997" r="6.25804" stroke-width="0.5" stroke="red" fill="red"/>
   </g>
   <g id="cell44">
  <circle cx="842.382" cy="47.7116" r="10.3741" stroke-width="0.5" stroke="black" fill="red"/>
  <circle cx="842.382" cy="47.7116" r="6.26481" stroke-width="0.5" stroke="red" fill="red"/>
   </g>
   <g id="cell45">
  <circle cx="684.266" cy="811.721" r="9.34079" stroke-width="0.5" stroke="black" fill="red"/>
  <circle cx="684.266" cy="811.721" r="5.67811" stroke-width="0.5" stroke="red" fill="red"/>
   </g>
   <g id="cell46">
  <circle cx="52.9551" cy="899.198" r="9.04685" stroke-width="0.5" stroke="black" fill="red"/>
  <circle cx="52.9551" cy="899.198" r="5.49329" stroke-width="0.5" stroke="red" fill="red"/>
   </g>
   <g id="cell47">
  <circle cx="874.215" cy="451.242" r="10.4349" stroke-width="0.5" stroke="black" fill="red"/>
  <circle cx="874.215" cy="451.242" r="6.29455" stroke-width="0.5" stroke="red" fill="red"/>
   </g>
   <g id="cell48">
  <circle cx="939.296" cy="34.6301" r="10.525" stroke-width="0.5" stroke="black" fill="red"/>
  <circle cx="939.296" cy="34.6301" r="6.33597" stroke-width="0.5" stroke="red" fill="red"/>
   </g>
   <g id="cell49">
  <circle cx="468.982" cy="791.257" r="10.1985" stroke-width="0.5" stroke="black" fill="red"/>
  <circle cx="468.982" cy="791.257" r="6.17404" stroke-width="0.5" stroke="red" fill="red"/>
   </g>
   <g id="cell50">
  <circle cx="33.6694" cy="438.181" r="10.4044" stroke-width="0.5" stroke="black" fill="red"/>
  <circle cx="33.6694" cy="438.181" r="6.27973" stroke-width="0.5" stroke="red" fill="red"/>
   </g>
   <g id="cell51">
  <circle cx="860.943" cy="136.524" r="10.5008" stroke-width="0.5" stroke="black" fill="red"/>
  <circle cx="860.943" cy="136.524" r="6.32525" stroke-width="0.5" stroke="red" fill="red"/>
   </g>
   <g id="cell96">
  <circle cx="835.42" cy="564.748" r="10.4297" stroke-width="0.5" stroke="black" fill="yellow"/>
  <circle cx="835.42" cy="564.748" r="6.29216" stroke-width="0.5" stroke="yellow" fill="yellow"/>
   </g>
   <g id="cell53">
  <circle cx="680.611" cy="291.834" r="10.5291" stroke-width="0.5" stroke="black" fill="red"/>
  <circle cx="680.611" cy="291.834" r="6.33772" stroke-width="0.5" stroke="red" fill="red"/>
   </g>
   <g id="cell54">
  <circle cx="419.153" cy="908.562" r="8.41133" stroke-width="0.5" stroke="black" fill="red"/>
  <circle cx="419.153" cy="908.562" r="5.05132" stroke-width="0.5" stroke="red" fill="red"/>
   </g>
   <g id="cell55">
  <circle cx="202.088" cy="654.234" r="8.40427" stroke-width="0.5" stroke="black" fill="red"/>
  <circle cx="202.088" cy="654.234" r="5.04906" stroke-width="0.5" stroke="red" fill="red"/>
   </g>
   <g id="cell56">
  <circle cx="624.31" cy="838.411" r="10.4719" stroke-width="0.5" stroke="black" fill="red"/>
  <circle cx="624.31" cy="838.411" r="6.31207" stroke-width="0.5" stroke="red" fill="red"/>
   </g>
   <g id="cell57">
  <circle cx="479.168" cy="524.882" r="10.4857" stroke-width="0.5" stroke="black" fill="red"/>
  <circle cx="479.168" cy="524.882" r="6.3184" stroke-width="0.5" stroke="red" fill="red"/>
   </g>
   <g id="cell58">
  <circle cx="23.8179" cy="881.217" r="10.4199" stroke-width="0.5" stroke="black" fill="red"/>
  <circle cx="23.8179" cy="881.217" r="6.28739" stroke-width="0.5" stroke="red" fill="red"/>
   </g>
   <g id="cell59">
  <circle cx="65.9117" cy="944.301" r="10.439" stroke-width="0.5" stroke="black" fill="red"/>
  <circle cx="65.9117" cy="944.301" r="6.29663" stroke-width="0.5" stroke="red" fill="red"/>
   </g>
   <g id="cell60">
  <circle cx="229.448" cy="40.0203" r="9.96274" stroke-width="0.5" stroke="black" fill="red"/>
  <circle cx="229.448" cy="40.0203" r="6.0446" stroke-width="0.5" stroke="red" fill="red"/>
   </g>
   <g id="cell61">
  <circle cx="816.821" cy="128.993" r="9.53452" stroke-width="0.5" stroke="black" fill="red"/>
  <circle cx="816.821" cy="128.993" r="5.79531" stroke-width="0.5" stroke="red" fill="red"/>
   </g>
   <g id="cell62">
  <circle cx="725.268" cy="791.699" r="10.4355" stroke-width="0.5" stroke="black" fill="red"/>
  <circle cx="725.268" cy="791.699" r="6.2947" stroke-width="0.5" stroke="red" fill="red"/>
   </g>
   <g id="cell63">
  <circle cx="348.051" cy="172.479" r="10.2322" stroke-width="0.5" stroke="black" fill="red"/>
  <circle cx="348.051" cy="172.479" r="6.19182" stroke-width="0.5" stroke="red" fill="red"/>
   </g>
   <g id="cell64">
  <circle cx="596.851" cy="550.395" r="10.5066" stroke-width="0.5" stroke="black" fill="red"/>
  <circle cx="596.851" cy="550.395" r="6.32777" stroke-width="0.5" stroke="red" fill="red"/>
   </g>
   <g id="cell188">
  <circle cx="865.167" cy="393.166" r="9.61878" stroke-width="0.5" stroke="black" fill="yellow"/>
  <circle cx="865.167" cy="393.166" r="5.84611" stroke-width="0.5" stroke="yellow" fill="yellow"/>
   </g>
   <g id="cell66">
  <circle cx="16.2011" cy="148.246" r="10.3732" stroke-width="0.5" stroke="black" fill="red"/>
  <circle cx="16.2011" cy="148.246" r="6.26456" stroke-width="0.5" stroke="red" fill="red"/>
   </g>
   <g id="cell67">
  <circle cx="517.357" cy="250.279" r="1.45126" stroke-width="0.5" stroke="black" fill="red"/>
  <circle cx="517.357" cy="250.279" r="1.4353" stroke-width="0.5" stroke="black" fill="black"/>
   </g>
   <g id="cell68">
  <circle cx="750.288" cy="237.327" r="10.4396" stroke-width="0.5" stroke="black" fill="red"/>
  <circle cx="750.288" cy="237.327" r="6.29679" stroke-width="0.5" stroke="red" fill="red"/>
   </g>
   <g id="cell69">
  <circle cx="452.787" cy="310.052" r="8.41078" stroke-width="0.5" stroke="black" fill="red"/>
  <circle cx="452.787" cy="310.052" r="5.05116" stroke-width="0.5" stroke="red" fill="red"/>
   </g>
   <g id="cell70">
  <circle cx="526.491" cy="372.054" r="10.2622" stroke-width="0.5" stroke="black" fill="red"/>
  <circle cx="526.491" cy="372.054" r="6.20767" stroke-width="0.5" stroke="red" fill="red"/>
   </g>
   <g id="cell71">
  <circle cx="894.019" cy="500.298" r="10.5291" stroke-width="0.5" stroke="black" fill="red"/>
  <circle cx="894.019" cy="500.298" r="6.33773" stroke-width="0.5" stroke="red" fill="red"/>
   </g>
   <g id="cell72">
  <circle cx="173.288" cy="913.217" r="10.4856" stroke-width="0.5" stroke="black" fill="red"/>
  <circle cx="173.288" cy="913.217" r="6.31837" stroke-width="0.5" stroke="red" fill="red"/>
   </g>
   <g id="cell73">
  <circle cx="619.667" cy="444.605" r="10.3677" stroke-width="0.5" stroke="black" fill="red"/>
  <circle cx="619.667" cy="444.605" r="6.2616" stroke-width="0.5" stroke="red" fill="red"/>
   </g>
   <g id="cell74">
  <circle cx="862.956" cy="944.595" r="9.92531" stroke-width="0.5" stroke="black" fill="red"/>
  <circle cx="862.956" cy="944.595" r="6.02336" stroke-width="0.5" stroke="red" fill="red"/>
   </g>
   <g id="cell75">
  <circle cx="108.904" cy="316.226" r="10.4791" stroke-width="0.5" stroke="black" fill="red"/>
  <circle cx="108.904" cy="316.226" r="6.31536" stroke-width="0.5" stroke="red" fill="red"/>
   </g>
   <g id="cell76">
  <circle cx="778.932" cy="417.008" r="10.1088" stroke-width="0.5" stroke="black" fill="red"/>
  <circle cx="778.932" cy="417.008" r="6.12557" stroke-width="0.5" stroke="red" fill="red"/>
   </g>
   <g id="cell77">
  <circle cx="658.72" cy="843.603" r="10.3804" stroke-width="0.5" stroke="black" fill="red"/>
  <circle cx="658.72" cy="843.603" r="6.26796" stroke-width="0.5" stroke="red" fill="red"/>
   </g>
   <g id="cell78">
  <circle cx="590.934" cy="288.228" r="10.3537" stroke-width="0.5" stroke="black" fill="red"/>
  <circle cx="590.934" cy="288.228" r="6.25463" stroke-width="0.5" stroke="red" fill="red"/>
   </g>
   <g id="cell79">
  <circle cx="984.61" cy="687.927" r="10.1081" stroke-width="0.5" stroke="black" fill="red"/>
  <circle cx="984.61" cy="687.927" r="6.12534" stroke-width="0.5" stroke="red" fill="red"/>
   </g>
   <g id="cell80">
  <circle cx="736.256" cy="693.568" r="8.49447" stroke-width="0.5" stroke="black" fill="yellow"/>
  <circle cx="736.256" cy="693.568" r="5.11937" stroke-width="0.5" stroke="yellow" fill="yellow"/>
   </g>
   <g id="cell81">
  <circle cx="495.53" cy="963.336" r="10.4689" stroke-width="0.5" stroke="black" fill="yellow"/>
  <circle cx="495.53" cy="963.336" r="6.31053" stroke-width="0.5" stroke="yellow" fill="yellow"/>
   </g>
   <g id="cell82">
  <circle cx="612.603" cy="407.286" r="10.5136" stroke-width="0.5" stroke="black" fill="yellow"/>
  <circle cx="612.603" cy="407.286" r="6.33099" stroke-width="0.5" stroke="yellow" fill="yellow"/>
   </g>
   <g id="cell83">
  <circle cx="581.565" cy="575.969" r="10.4347" stroke-width="0.5" stroke="black" fill="yellow"/>
  <circle cx="581.565" cy="575.969" r="6.29451" stroke-width="0.5" stroke="yellow" fill="yellow"/>
   </g>
   <g id="cell84">
  <circle cx="11.8753" cy="519.786" r="10.1618" stroke-width="0.5" stroke="black" fill="yellow"/>
  <circle cx="11.8753" cy="519.786" r="6.15445" stroke-width="0.5" stroke="yellow" fill="yellow"/>
   </g>
   <g id="cell85">
  <circle cx="778.965" cy="674.664" r="2.97426" stroke-width="0.5" stroke="black" fill="yellow"/>
  <circle cx="778.965" cy="674.664" r="2.68746" stroke-width="0.5" stroke="black" fill="black"/>
   </g>
   <g id="cell86">
  <circle cx="314.106" cy="416.104" r="9.15946" stroke-width="0.5" stroke="black" fill="yellow"/>
  <circle cx="314.106" cy="416.104" r="5.56573" stroke-width="0.5" stroke="yellow" fill="yellow"/>
   </g>
   <g id="cell87">
  <circle cx="782.63" cy="394.46" r="9.37641" stroke-width="0.5" stroke="black" fill="yellow"/>
  <circle cx="782.63" cy="394.46" r="5.69943" stroke-width="0.5" stroke="yellow" fill="yellow"/>
   </g>
   <g id="cell88">
  <circle cx="152.165" cy="105.459" r="1.50213" stroke-width="0.5" stroke="black" fill="yellow"/>
  <circle cx="152.165" cy="105.459" r="1.49418" stroke-width="0.5" stroke="black" fill="black"/>
   </g>
   <g id="cell89">
  <circle cx="57.9995" cy="532.11" r="10.0932" stroke-width="0.5" stroke="black" fill="yellow"/>
  <circle cx="57.9995" cy="532.11" r="6.11731" stroke-width="0.5" stroke="yellow" fill="yellow"/>
   </g>
   <g id="cell193">
  <circle cx="197.601" cy="668.264" r="9.37007" stroke-width="0.5" stroke="black" fill="red"/>
  <circle cx="197.601" cy="668.264" r="5.69729" stroke-width="0.5" stroke="red" fill="red"/>
   </g>
   <g id="cell91">
  <circle cx="8.33751" cy="656.813" r="8.76558" stroke-width="0.5" stroke="black" fill="yellow"/>
  <circle cx="8.33751" cy="656.813" r="5.30792" stroke-width="0.5" stroke="yellow" fill="yellow"/>
   </g>
   <g id="cell92">
  <circle cx="653.184" cy="289.608" r="10.3924" stroke-width="0.5" stroke="black" fill="yellow"/>
  <circle cx="653.184" cy="289.608" r="6.27395" stroke-width="0.5" stroke="yellow" fill="yellow"/>
   </g>
   <g id="cell93">
  <circle cx="222.307" cy="848.81" r="8.76729" stroke-width="0.5" stroke="black" fill="yellow"/>
  <circle cx="222.307" cy="848.81" r="5.30843" stroke-width="0.5" stroke="yellow" fill="yellow"/>
   </g>
   <g id="cell94">
  <circle cx="390.648" cy="110.229" r="10.2098" stroke-width="0.5" stroke="black" fill="yellow"/>
  <circle cx="390.648" cy="110.229" r="6.18008" stroke-width="0.5" stroke="yellow" fill="yellow"/>
   </g>
   <g id="cell95">
  <circle cx="934.994" cy="909.997" r="10.4344" stroke-width="0.5" stroke="black" fill="yellow"/>
  <circle cx="934.994" cy="909.997" r="6.29443" stroke-width="0.5" stroke="yellow" fill="yellow"/>
   </g>
   <g id="cell121">
  <circle cx="21.8957" cy="480.899" r="8.41219" stroke-width="0.5" stroke="black" fill="red"/>
  <circle cx="21.8957" cy="480.899" r="5.05155" stroke-width="0.5" stroke="red" fill="red"/>
   </g>
   <g id="cell122">
  <circle cx="696.504" cy="415.796" r="10.5138" stroke-width="0.5" stroke="black" fill="yellow"/>
  <circle cx="696.504" cy="415.796" r="6.33105" stroke-width="0.5" stroke="yellow" fill="yellow"/>
   </g>
   <g id="cell123">
  <circle cx="265.186" cy="902.282" r="8.61371" stroke-width="0.5" stroke="black" fill="yellow"/>
  <circle cx="265.186" cy="902.282" r="5.20048" stroke-width="0.5" stroke="yellow" fill="yellow"/>
   </g>
   <g id="cell124">
  <circle cx="486.733" cy="639.906" r="10.3987" stroke-width="0.5" stroke="black" fill="grey"/>
  <circle cx="486.733" cy="639.906" r="6.27695" stroke-width="0.5" stroke="grey" fill="grey"/>
   </g>
   <g id="cell125">
  <circle cx="795.959" cy="422.332" r="10.5291" stroke-width="0.5" stroke="black" fill="yellow"/>
  <circle cx="795.959" cy="422.332" r="6.33774" stroke-width="0.5" stroke="yellow" fill="yellow"/>
   </g>
   <g id="cell126">
  <circle cx="944.303" cy="183.537" r="10.3807" stroke-width="0.5" stroke="black" fill="red"/>
  <circle cx="944.303" cy="183.537" r="6.26805" stroke-width="0.5" stroke="red" fill="red"/>
   </g>
   <g id="cell127">
  <circle cx="902.965" cy="564.024" r="10.5207" stroke-width="0.5" stroke="black" fill="red"/>
  <circle cx="902.965" cy="564.024" r="6.33409" stroke-width="0.5" stroke="red" fill="red"/>
   </g>
   <g id="cell128">
  <circle cx="936.829" cy="37.0919" r="10.3243" stroke-width="0.5" stroke="black" fill="red"/>
  <circle cx="936.829" cy="37.0919" r="6.23961" stroke-width="0.5" stroke="red" fill="red"/>
   </g>
   <g id="cell129">
  <circle cx="981.032" cy="676.633" r="5.5285" stroke-width="0.5" stroke="black" fill="grey"/>
  <circle cx="981.032" cy="676.633" r="3.857" stroke-width="0.5" stroke="black" fill="black"/>
   </g>
   <g id="cell130">
  <circle cx="901.247" cy="606.7" r="8.41204" stroke-width="0.5" stroke="black" fill="yellow"/>
  <circle cx="901.247" cy="606.7" r="5.05151" stroke-width="0.5" stroke="yellow" fill="yellow"/>
   </g>
   <g id="cell132">
  <circle cx="65.7161" cy="920.97" r="10.4647" stroke-width="0.5" stroke="black" fill="red"/>
  <circle cx="65.7161" cy="920.97" r="6.30866" stroke-width="0.5" stroke="red" fill="red"/>
   </g>
   <g id="cell133">
  <circle cx="652.13" cy="382.575" r="10.1233" stroke-width="0.5" stroke="black" fill="red"/>
  <circle cx="652.13" cy="382.575" r="6.13334" stroke-width="0.5" stroke="red" fill="red"/>
   </g>
   <g id="cell134">
  <circle cx="624.597" cy="436.457" r="1.45196" stroke-width="0.5" stroke="black" fill="grey"/>
  <circle cx="624.597" cy="436.457" r="1.43596" stroke-width="0.5" stroke="black" fill="black"/>
   </g>
   <g id="cell136">
  <circle cx="643.081" cy="462.117" r="10.3986" stroke-width="0.5" stroke="black" fill="red"/>
  <circle cx="643.081" cy="462.117" r="6.27692" stroke-width="0.5" stroke="red" fill="red"/>
   </g>
   <g id="cell137">
  <circle cx="800.833" cy="661.522" r="9.79866" stroke-width="0.5" stroke="black" fill="yellow"/>
  <circle cx="800.833" cy="661.522" r="5.95071" stroke-width="0.5" stroke="yellow" fill="yellow"/>
   </g>
   <g id="cell138">
  <circle cx="728.842" cy="233.521" r="10.525" stroke-width="0.5" stroke="black" fill="red"/>
  <circle cx="728.842" cy="233.521" r="6.33595" stroke-width="0.5" stroke="red" fill="red"/>
   </g>
   <g id="cell139">
  <circle cx="779.501" cy="754.015" r="8.41196" stroke-width="0.5" stroke="black" fill="yellow"/>
  <circle cx="779.501" cy="754.015" r="5.05149" stroke-width="0.5" stroke="yellow" fill="yellow"/>
   </g>
   <g id="cell140">
  <circle cx="74.0841" cy="345.267" r="10.5206" stroke-width="0.5" stroke="black" fill="red"/>
  <circle cx="74.0841" cy="345.267" r="6.33407" stroke-width="0.5" stroke="red" fill="red"/>
   </g>
   <g id="cell141">
  <circle cx="11.2953" cy="969.601" r="10.5137" stroke-width="0.5" stroke="black" fill="yellow"/>
  <circle cx="11.2953" cy="969.601" r="6.33101" stroke-width="0.5" stroke="yellow" fill="yellow"/>
   </g>
   <g id="cell142">
  <circle cx="699.286" cy="683.515" r="8.41192" stroke-width="0.5" stroke="black" fill="red"/>
  <circle cx="699.286" cy="683.515" r="5.05148" stroke-width="0.5" stroke="red" fill="red"/>
   </g>
   <g id="cell143">
  <circle cx="119.051" cy="722.187" r="9.53495" stroke-width="0.5" stroke="black" fill="red"/>
  <circle cx="119.051" cy="722.187" r="5.79544" stroke-width="0.5" stroke="red" fill="red"/>
   </g>
   <g id="cell144">
  <circle cx="651.175" cy="147.727" r="10.4791" stroke-width="0.5" stroke="black" fill="grey"/>
  <circle cx="651.175" cy="147.727" r="6.31535" stroke-width="0.5" stroke="grey" fill="grey"/>
   </g>
   <g id="cell145">
  <circle cx="537.308" cy="525.261" r="9.04673" stroke-width="0.5" stroke="black" fill="red"/>
  <circle cx="537.308" cy="525.261" r="5.49325" stroke-width="0.5" stroke="red" fill="red"/>
   </g>
   <g id="cell146">
  <circle cx="314.89" cy="196.275" r="10.4607" stroke-width="0.5" stroke="black" fill="red"/>
  <circle cx="314.89" cy="196.275" r="6.3068" stroke-width="0.5" stroke="red" fill="red"/>
   </g>
   <g id="cell147">
  <circle cx="646.263" cy="386.925" r="9.86475" stroke-width="0.5" stroke="black" fill="yellow"/>
  <circle cx="646.263" cy="386.925" r="5.98877" stroke-width="0.5" stroke="yellow" fill="yellow"/>
   </g>
   <g id="cell148">
  <circle cx="189.87" cy="756.046" r="10.516" stroke-width="0.5" stroke="black" fill="grey"/>
  <circle cx="189.87" cy="756.046" r="6.33204" stroke-width="0.5" stroke="grey" fill="grey"/>
   </g>
   <g id="cell149">
  <circle cx="858.988" cy="449.874" r="10.5006" stroke-width="0.5" stroke="black" fill="red"/>
  <circle cx="858.988" cy="449.874" r="6.32519" stroke-width="0.5" stroke="red" fill="red"/>
   </g>
   <g id="cell150">
  <circle cx="169.893" cy="37.4454" r="10.2992" stroke-width="0.5" stroke="black" fill="yellow"/>
  <circle cx="169.893" cy="37.4454" r="6.22683" stroke-width="0.5" stroke="yellow" fill="yellow"/>
   </g>
   <g id="cell151">
  <circle cx="207.047" cy="894.645" r="10.1092" stroke-width="0.5" stroke="black" fill="red"/>
  <circle cx="207.047" cy="894.645" r="6.12567" stroke-width="0.5" stroke="red" fill="red"/>
   </g>
   <g id="cell152">
  <circle cx="601.571" cy="857.23" r="10.4856" stroke-width="0.5" stroke="black" fill="red"/>
  <circle cx="601.571" cy="857.23" r="6.31837" stroke-width="0.5" stroke="red" fill="red"/>
   </g>
   <g id="cell154">
  <circle cx="874.133" cy="29.5872" r="10.2814" stroke-width="0.5" stroke="black" fill="red"/>
  <circle cx="874.133" cy="29.5872" r="6.2176" stroke-width="0.5" stroke="red" fill="red"/>
   </g>
   <g id="cell155">
  <circle cx="643.419" cy="899.61" r="10.4719" stroke-width="0.5" stroke="black" fill="red"/>
  <circle cx="643.419" cy="899.61" r="6.31206" stroke-width="0.5" stroke="red" fill="red"/>
   </g>
   <g id="cell156">
  <circle cx="886.715" cy="511.462" r="4.70751" stroke-width="0.5" stroke="black" fill="grey"/>
  <circle cx="886.715" cy="511.462" r="3.49569" stroke-width="0.5" stroke="black" fill="black"/>
   </g>
   <g id="cell157">
  <circle cx="623.982" cy="637.301" r="10.2527" stroke-width="0.5" stroke="black" fill="yellow"/>
  <circle cx="623.982" cy="637.301" r="6.20261" stroke-width="0.5" stroke="yellow" fill="yellow"/>
   </g>
   <g id="cell158">
  <circle cx="163.19" cy="140.34" r="1.60183" stroke-width="0.5" stroke="black" fill="yellow"/>
  <circle cx="163.19" cy="140.34" r="1.58986" stroke-width="0.5" stroke="black" fill="black"/>
   </g>
   <g id="cell159">
  <circle cx="670.614" cy="294.992" r="10.0946" stroke-width="0.5" stroke="black" fill="yellow"/>
  <circle cx="670.614" cy="294.992" r="6.11774" stroke-width="0.5" stroke="yellow" fill="yellow"/>
   </g>
   <g id="cell160">
  <circle cx="604.145" cy="289.298" r="10.2903" stroke-width="0.5" stroke="black" fill="red"/>
  <circle cx="604.145" cy="289.298" r="6.22224" stroke-width="0.5" stroke="red" fill="red"/>
   </g>
   <g id="cell161">
  <circle cx="39.9117" cy="929.436" r="1.28196" stroke-width="0.5" stroke="black" fill="red"/>
  <circle cx="39.9117" cy="929.436" r="1.27485" stroke-width="0.5" stroke="black" fill="black"/>
   </g>
   <g id="cell162">
  <circle cx="843.14" cy="112.772" r="10.4717" stroke-width="0.5" stroke="black" fill="red"/>
  <circle cx="843.14" cy="112.772" r="6.31201" stroke-width="0.5" stroke="red" fill="red"/>
   </g>
   <g id="cell163">
  <circle cx="441.464" cy="957.643" r="10.4642" stroke-width="0.5" stroke="black" fill="red"/>
  <circle cx="441.464" cy="957.643" r="6.30853" stroke-width="0.5" stroke="red" fill="red"/>
   </g>
   <g id="cell164">
  <circle cx="825.224" cy="949.017" r="9.44146" stroke-width="0.5" stroke="black" fill="red"/>
  <circle cx="825.224" cy="949.017" r="5.73923" stroke-width="0.5" stroke="red" fill="red"/>
   </g>
   <g id="cell165">
  <circle cx="838.79" cy="391.973" r="10.4603" stroke-width="0.5" stroke="black" fill="red"/>
  <circle cx="838.79" cy="391.973" r="6.3067" stroke-width="0.5" stroke="red" fill="red"/>
   </g>
   <g id="cell166">
  <circle cx="793.293" cy="502.25" r="10.4563" stroke-width="0.5" stroke="black" fill="yellow"/>
  <circle cx="793.293" cy="502.25" r="6.30481" stroke-width="0.5" stroke="yellow" fill="yellow"/>
   </g>
   <g id="cell167">
  <circle cx="660.109" cy="140.534" r="10.1869" stroke-width="0.5" stroke="black" fill="yellow"/>
  <circle cx="660.109" cy="140.534" r="6.16779" stroke-width="0.5" stroke="yellow" fill="yellow"/>
   </g>
   <g id="cell168">
  <circle cx="938.821" cy="897.712" r="10.4037" stroke-width="0.5" stroke="black" fill="yellow"/>
  <circle cx="938.821" cy="897.712" r="6.27954" stroke-width="0.5" stroke="yellow" fill="yellow"/>
   </g>
   <g id="cell169">
  <circle cx="348.237" cy="975.118" r="10.3604" stroke-width="0.5" stroke="black" fill="yellow"/>
  <circle cx="348.237" cy="975.118" r="6.25806" stroke-width="0.5" stroke="yellow" fill="yellow"/>
   </g>
   <g id="cell170">
  <circle cx="58.907" cy="989.573" r="8.41112" stroke-width="0.5" stroke="black" fill="red"/>
  <circle cx="58.907" cy="989.573" r="5.05126" stroke-width="0.5" stroke="red" fill="red"/>
   </g>
   <g id="cell171">
  <circle cx="529.475" cy="395.514" r="10.3737" stroke-width="0.5" stroke="black" fill="red"/>
  <circle cx="529.475" cy="395.514" r="6.2647" stroke-width="0.5" stroke="red" fill="red"/>
   </g>
   <g id="cell172">
  <circle cx="492.465" cy="790.155" r="10.3862" stroke-width="0.5" stroke="black" fill="red"/>
  <circle cx="492.465" cy="790.155" r="6.27092" stroke-width="0.5" stroke="red" fill="red"/>
   </g>
   <g id="cell173">
  <circle cx="960.761" cy="424.409" r="8.68779" stroke-width="0.5" stroke="black" fill="red"/>
  <circle cx="960.761" cy="424.409" r="5.25373" stroke-width="0.5" stroke="red" fill="red"/>
   </g>
   <g id="cell174">
  <circle cx="358.658" cy="105.75" r="8.41093" stroke-width="0.5" stroke="black" fill="yellow"/>
  <circle cx="358.658" cy="105.75" r="5.0512" stroke-width="0.5" stroke="yellow" fill="yellow"/>
   </g>
   <g id="cell175">
  <circle cx="45.2148" cy="325.037" r="10.4036" stroke-width="0.5" stroke="black" fill="yellow"/>
  <circle cx="45.2148" cy="325.037" r="6.2795" stroke-width="0.5" stroke="yellow" fill="yellow"/>
   </g>
   <g id="cell178">
  <circle cx="60.9738" cy="174.27" r="10.3458" stroke-width="0.5" stroke="black" fill="red"/>
  <circle cx="60.9738" cy="174.27" r="6.25082" stroke-width="0.5" stroke="red" fill="red"/>
   </g>
   <g id="cell179">
  <circle cx="11.3167" cy="487.573" r="9.67426" stroke-width="0.5" stroke="black" fill="yellow"/>
  <circle cx="11.3167" cy="487.573" r="5.87849" stroke-width="0.5" stroke="yellow" fill="yellow"/>
   </g>
   <g id="cell180">
  <circle cx="42.5057" cy="670.848" r="8.4103" stroke-width="0.5" stroke="black" fill="yellow"/>
  <circle cx="42.5057" cy="670.848" r="5.05102" stroke-width="0.5" stroke="yellow" fill="yellow"/>
   </g>
   <g id="cell181">
  <circle cx="989.736" cy="684.479" r="8.41016" stroke-width="0.5" stroke="black" fill="red"/>
  <circle cx="989.736" cy="684.479" r="5.05098" stroke-width="0.5" stroke="red" fill="red"/>
   </g>
   <g id="cell182">
  <circle cx="516.16" cy="964.174" r="8.41009" stroke-width="0.5" stroke="black" fill="yellow"/>
  <circle cx="516.16" cy="964.174" r="5.05096" stroke-width="0.5" stroke="yellow" fill="yellow"/>
   </g>
   <g id="cell183">
  <circle cx="647.356" cy="865.331" r="8.41009" stroke-width="0.5" stroke="black" fill="red"/>
  <circle cx="647.356" cy="865.331" r="5.05096" stroke-width="0.5" stroke="red" fill="red"/>
   </g>
   <g id="cell187">
  <circle cx="313.094" cy="439.472" r="9.4069" stroke-width="0.5" stroke="black" fill="yellow"/>
  <circle cx="313.094" cy="439.472" r="5.71883" stroke-width="0.5" stroke="yellow" fill="yellow"/>
   </g>
   <g id="cell189">
  <circle cx="776.547" cy="378.031" r="10.0137" stroke-width="0.5" stroke="black" fill="yellow"/>
  <circle cx="776.547" cy="378.031" r="6.0736" stroke-width="0.5" stroke="yellow" fill="yellow"/>
   </g>
   <g id="cell194">
  <circle cx="112.526" cy="181.956" r="9.15137" stroke-width="0.5" stroke="black" fill="yellow"/>
  <circle cx="112.526" cy="181.956" r="5.56279" stroke-width="0.5" stroke="yellow" fill="yellow"/>
   </g>
   <g id="cell195">
  <circle cx="393.99" cy="434.978" r="8.4178" stroke-width="0.5" stroke="black" fill="yellow"/>
  <circle cx="393.99" cy="434.978" r="5.06069" stroke-width="0.5" stroke="yellow" fill="yellow"/>
   </g>
   <g id="cell196">
  <circle cx="888.278" cy="286.951" r="8.39571" stroke-width="0.5" stroke="black" fill="yellow"/>
  <circle cx="888.278" cy="286.951" r="5.04599" stroke-width="0.5" stroke="yellow" fill="yellow"/>
   </g>
   <g id="cell197">
  <circle cx="725.27" cy="695.765" r="8.39422" stroke-width="0.5" stroke="black" fill="yellow"/>
  <circle cx="725.27" cy="695.765" r="5.04543" stroke-width="0.5" stroke="yellow" fill="yellow"/>
   </g>
   <g id="cell198">
  <circle cx="70.7556" cy="418.468" r="8.39203" stroke-width="0.5" stroke="black" fill="yellow"/>
  <circle cx="70.7556" cy="418.468" r="5.0446" stroke-width="0.5" stroke="yellow" fill="yellow"/>
   </g>
   <g id="cell199">
  <circle cx="819.921" cy="867.954" r="8.38891" stroke-width="0.5" stroke="black" fill="yellow"/>
  <circle cx="819.921" cy="867.954" r="5.0434" stroke-width="0.5" stroke="yellow" fill="yellow"/>
   </g>
   <g id="cell200">
  <circle cx="961.618" cy="71.1307" r="8.38532" stroke-width="0.5" stroke="black" fill="grey"/>
  <circle cx="961.618" cy="71.1307" r="5.04199" stroke-width="0.5" stroke="grey" fill="grey"/>
   </g>
  </g>
 </g>
  <rect x="775" y="1035" width="200" height="10" stroke-width="2" stroke="rgb(255,255,255)" fill="rgb(0,0,0)"/>
  <text x="781.25" y="1028.75"
   font-family="Arial" font-size="25" fill="black" >
   200 &#956;m
  </text>
  <text x="25" y="1045"
   font-family="Arial" font-size="18.75" fill="black" >
   0 days, 0 hours, 2 minutes, and 11.3626 seconds
  </text>
  <rect x="0" y="70" width="1000" height="1000" stroke-width="2" stroke="rgb(0,0,0)" fill="none"/>
</svg>
