<?xml version="1.0" encoding="UTF-8" standalone="no"?>
<!-- Created with PhysiCell (http://PhysiCell.MathCancer.org/) -->
<svg 
 xmlns:dc="http://purl.org/dc/elements/1.1/" 
 xmlns:cc="http://creativecommons.org/ns#" 
 xmlns:rdf="http://www.w3.org/1999/02/22-rdf-syntax-ns#" 
 xmlns:svg="http://www.w3.org/2000/svg" 
 xmlns="http://www.w3.org/2000/svg" 
 version="1.1" 
 width="1000" 
 height="1070" 
 id="svg2">
  <rect x="0" y="0" width="1000" height="1070" stroke-width="2" stroke="white" fill="white"/>
  <text x="12.5" y="30"
   font-family="Arial" font-size="25" fill="black" >
   Current time: 0 days, 11 hours, and 0.00 minutes, z = 0.00 &#956;m
  </text>
  <text x="12.5" y="57.5"
   font-family="Arial" font-size="23.75" fill="black" >
   110 agents
  </text>
 <g id="tissue" 
    transform="translate(0,1070) scale(1,-1)">
  <g id="ECM">
  </g>
  <g id="cells">
   <g id="cell0">
  <circle cx="504.237" cy="589.996" r="10.4761" stroke-width="0.5" stroke="black" fill="grey"/>
  <circle cx="504.237" cy="589.996" r="6.31388" stroke-width="0.5" stroke="grey" fill="grey"/>
   </g>
   <g id="cell118">
  <circle cx="913.796" cy="614.928" r="10.4489" stroke-width="0.5" stroke="black" fill="yellow"/>
  <circle cx="913.796" cy="614.928" r="6.30112" stroke-width="0.5" stroke="yellow" fill="yellow"/>
   </g>
   <g id="cell2">
  <circle cx="550.341" cy="824.071" r="1.90407" stroke-width="0.5" stroke="black" fill="grey"/>
  <circle cx="550.341" cy="824.071" r="1.8737" stroke-width="0.5" stroke="black" fill="black"/>
   </g>
   <g id="cell3">
  <circle cx="603.742" cy="620.905" r="10.4489" stroke-width="0.5" stroke="black" fill="grey"/>
  <circle cx="603.742" cy="620.905" r="6.30112" stroke-width="0.5" stroke="grey" fill="grey"/>
   </g>
   <g id="cell4">
  <circle cx="415.352" cy="304.555" r="1.50862" stroke-width="0.5" stroke="black" fill="grey"/>
  <circle cx="415.352" cy="304.555" r="1.48821" stroke-width="0.5" stroke="black" fill="black"/>
   </g>
   <g id="cell5">
  <circle cx="75.5167" cy="967.659" r="3.00565" stroke-width="0.5" stroke="black" fill="grey"/>
  <circle cx="75.5167" cy="967.659" r="2.70076" stroke-width="0.5" stroke="black" fill="black"/>
   </g>
   <g id="cell6">
  <circle cx="395.742" cy="480.697" r="10.483" stroke-width="0.5" stroke="black" fill="grey"/>
  <circle cx="395.742" cy="480.697" r="6.31703" stroke-width="0.5" stroke="grey" fill="grey"/>
   </g>
   <g id="cell7">
  <circle cx="860.774" cy="545.487" r="10.3545" stroke-width="0.5" stroke="black" fill="grey"/>
  <circle cx="860.774" cy="545.487" r="6.25485" stroke-width="0.5" stroke="grey" fill="grey"/>
   </g>
   <g id="cell8">
  <circle cx="580.276" cy="411.636" r="10.2821" stroke-width="0.5" stroke="black" fill="grey"/>
  <circle cx="580.276" cy="411.636" r="6.21778" stroke-width="0.5" stroke="grey" fill="grey"/>
   </g>
   <g id="cell112">
  <circle cx="751.318" cy="783.287" r="10.4307" stroke-width="0.5" stroke="black" fill="yellow"/>
  <circle cx="751.318" cy="783.287" r="6.29241" stroke-width="0.5" stroke="yellow" fill="yellow"/>
   </g>
   <g id="cell10">
  <circle cx="135.598" cy="649.764" r="10.3991" stroke-width="0.5" stroke="black" fill="grey"/>
  <circle cx="135.598" cy="649.764" r="6.27703" stroke-width="0.5" stroke="grey" fill="grey"/>
   </g>
   <g id="cell11">
  <circle cx="331.486" cy="831.117" r="10.1098" stroke-width="0.5" stroke="black" fill="grey"/>
  <circle cx="331.486" cy="831.117" r="6.12585" stroke-width="0.5" stroke="grey" fill="grey"/>
   </g>
   <g id="cell12">
  <circle cx="782.392" cy="134.503" r="1.47065" stroke-width="0.5" stroke="black" fill="grey"/>
  <circle cx="782.392" cy="134.503" r="1.45328" stroke-width="0.5" stroke="black" fill="black"/>
   </g>
   <g id="cell13">
  <circle cx="880.851" cy="956.12" r="1.61527" stroke-width="0.5" stroke="black" fill="grey"/>
  <circle cx="880.851" cy="956.12" r="1.59248" stroke-width="0.5" stroke="black" fill="black"/>
   </g>
   <g id="cell14">
  <circle cx="838.103" cy="829.667" r="2.09617" stroke-width="0.5" stroke="black" fill="grey"/>
  <circle cx="838.103" cy="829.667" r="2.03928" stroke-width="0.5" stroke="black" fill="black"/>
   </g>
   <g id="cell15">
  <circle cx="525.275" cy="767.583" r="2.10974" stroke-width="0.5" stroke="black" fill="grey"/>
  <circle cx="525.275" cy="767.583" r="2.04869" stroke-width="0.5" stroke="black" fill="black"/>
   </g>
   <g id="cell16">
  <circle cx="166.008" cy="749.039" r="10.3933" stroke-width="0.5" stroke="black" fill="grey"/>
  <circle cx="166.008" cy="749.039" r="6.27417" stroke-width="0.5" stroke="grey" fill="grey"/>
   </g>
   <g id="cell116">
  <circle cx="823.107" cy="475.207" r="9.23685" stroke-width="0.5" stroke="black" fill="yellow"/>
  <circle cx="823.107" cy="475.207" r="5.61315" stroke-width="0.5" stroke="yellow" fill="yellow"/>
   </g>
   <g id="cell18">
  <circle cx="951.962" cy="700.013" r="9.67603" stroke-width="0.5" stroke="black" fill="grey"/>
  <circle cx="951.962" cy="700.013" r="5.87901" stroke-width="0.5" stroke="grey" fill="grey"/>
   </g>
   <g id="cell19">
  <circle cx="91.6991" cy="418.138" r="1.60976" stroke-width="0.5" stroke="black" fill="grey"/>
  <circle cx="91.6991" cy="418.138" r="1.58529" stroke-width="0.5" stroke="black" fill="black"/>
   </g>
   <g id="cell20">
  <circle cx="239.196" cy="178.686" r="10.1506" stroke-width="0.5" stroke="black" fill="grey"/>
  <circle cx="239.196" cy="178.686" r="6.14798" stroke-width="0.5" stroke="grey" fill="grey"/>
   </g>
   <g id="cell21">
  <circle cx="724.733" cy="441.273" r="1.67536" stroke-width="0.5" stroke="black" fill="grey"/>
  <circle cx="724.733" cy="441.273" r="1.63653" stroke-width="0.5" stroke="black" fill="black"/>
   </g>
   <g id="cell115">
  <circle cx="209.621" cy="20.1463" r="10.3873" stroke-width="0.5" stroke="black" fill="yellow"/>
  <circle cx="209.621" cy="20.1463" r="6.2712" stroke-width="0.5" stroke="yellow" fill="yellow"/>
   </g>
   <g id="cell23">
  <circle cx="303.9" cy="607.146" r="1.49394" stroke-width="0.5" stroke="black" fill="grey"/>
  <circle cx="303.9" cy="607.146" r="1.48603" stroke-width="0.5" stroke="black" fill="black"/>
   </g>
   <g id="cell24">
  <circle cx="608.109" cy="222.435" r="3.97167" stroke-width="0.5" stroke="black" fill="grey"/>
  <circle cx="608.109" cy="222.435" r="3.18299" stroke-width="0.5" stroke="black" fill="black"/>
   </g>
   <g id="cell25">
  <circle cx="391.324" cy="976.029" r="1.46416" stroke-width="0.5" stroke="black" fill="grey"/>
  <circle cx="391.324" cy="976.029" r="1.44923" stroke-width="0.5" stroke="black" fill="black"/>
   </g>
   <g id="cell26">
  <circle cx="633.903" cy="448.472" r="10.4446" stroke-width="0.5" stroke="black" fill="grey"/>
  <circle cx="633.903" cy="448.472" r="6.29905" stroke-width="0.5" stroke="grey" fill="grey"/>
   </g>
   <g id="cell117">
  <circle cx="887.736" cy="364.756" r="9.59391" stroke-width="0.5" stroke="black" fill="yellow"/>
  <circle cx="887.736" cy="364.756" r="5.83043" stroke-width="0.5" stroke="yellow" fill="yellow"/>
   </g>
   <g id="cell28">
  <circle cx="672.826" cy="136.248" r="10.4156" stroke-width="0.5" stroke="black" fill="grey"/>
  <circle cx="672.826" cy="136.248" r="6.2851" stroke-width="0.5" stroke="grey" fill="grey"/>
   </g>
   <g id="cell29">
  <circle cx="988.625" cy="673.278" r="10.4531" stroke-width="0.5" stroke="black" fill="grey"/>
  <circle cx="988.625" cy="673.278" r="6.30312" stroke-width="0.5" stroke="grey" fill="grey"/>
   </g>
   <g id="cell30">
  <circle cx="711.159" cy="162.454" r="9.44256" stroke-width="0.5" stroke="black" fill="grey"/>
  <circle cx="711.159" cy="162.454" r="5.73955" stroke-width="0.5" stroke="grey" fill="grey"/>
   </g>
   <g id="cell31">
  <circle cx="384.414" cy="108.435" r="10.1506" stroke-width="0.5" stroke="black" fill="grey"/>
  <circle cx="384.414" cy="108.435" r="6.14798" stroke-width="0.5" stroke="grey" fill="grey"/>
   </g>
   <g id="cell114">
  <circle cx="17.7882" cy="345.202" r="10.1879" stroke-width="0.5" stroke="black" fill="yellow"/>
  <circle cx="17.7882" cy="345.202" r="6.16807" stroke-width="0.5" stroke="yellow" fill="yellow"/>
   </g>
   <g id="cell33">
  <circle cx="310.636" cy="554.328" r="1.56299" stroke-width="0.5" stroke="black" fill="grey"/>
  <circle cx="310.636" cy="554.328" r="1.5528" stroke-width="0.5" stroke="black" fill="black"/>
   </g>
   <g id="cell34">
  <circle cx="435.362" cy="649.251" r="1.36402" stroke-width="0.5" stroke="black" fill="grey"/>
  <circle cx="435.362" cy="649.251" r="1.35333" stroke-width="0.5" stroke="black" fill="black"/>
   </g>
   <g id="cell35">
  <circle cx="928.448" cy="88.0357" r="8.41271" stroke-width="0.5" stroke="black" fill="grey"/>
  <circle cx="928.448" cy="88.0357" r="5.05167" stroke-width="0.5" stroke="grey" fill="grey"/>
   </g>
   <g id="cell36">
  <circle cx="208.916" cy="622.395" r="1.20653" stroke-width="0.5" stroke="black" fill="grey"/>
  <circle cx="208.916" cy="622.395" r="1.20179" stroke-width="0.5" stroke="black" fill="black"/>
   </g>
   <g id="cell111">
  <circle cx="778.8" cy="373.833" r="9.5053" stroke-width="0.5" stroke="black" fill="yellow"/>
  <circle cx="778.8" cy="373.833" r="5.77744" stroke-width="0.5" stroke="yellow" fill="yellow"/>
   </g>
   <g id="cell38">
  <circle cx="228.983" cy="445.784" r="2.90273" stroke-width="0.5" stroke="black" fill="grey"/>
  <circle cx="228.983" cy="445.784" r="2.6399" stroke-width="0.5" stroke="black" fill="black"/>
   </g>
   <g id="cell110">
  <circle cx="853.874" cy="231.02" r="8.41271" stroke-width="0.5" stroke="black" fill="yellow"/>
  <circle cx="853.874" cy="231.02" r="5.05167" stroke-width="0.5" stroke="yellow" fill="yellow"/>
   </g>
   <g id="cell40">
  <circle cx="180.51" cy="363.309" r="10.3682" stroke-width="0.5" stroke="black" fill="red"/>
  <circle cx="180.51" cy="363.309" r="6.26172" stroke-width="0.5" stroke="red" fill="red"/>
   </g>
   <g id="cell41">
  <circle cx="683.154" cy="676.465" r="10.4208" stroke-width="0.5" stroke="black" fill="red"/>
  <circle cx="683.154" cy="676.465" r="6.28762" stroke-width="0.5" stroke="red" fill="red"/>
   </g>
   <g id="cell42">
  <circle cx="163.729" cy="748.977" r="10.4208" stroke-width="0.5" stroke="black" fill="red"/>
  <circle cx="163.729" cy="748.977" r="6.28762" stroke-width="0.5" stroke="red" fill="red"/>
   </g>
   <g id="cell43">
  <circle cx="908.353" cy="368.528" r="10.211" stroke-width="0.5" stroke="black" fill="red"/>
  <circle cx="908.353" cy="368.528" r="6.18041" stroke-width="0.5" stroke="red" fill="red"/>
   </g>
   <g id="cell44">
  <circle cx="815.879" cy="22.8138" r="10.3615" stroke-width="0.5" stroke="black" fill="red"/>
  <circle cx="815.879" cy="22.8138" r="6.25834" stroke-width="0.5" stroke="red" fill="red"/>
   </g>
   <g id="cell45">
  <circle cx="649.21" cy="828.852" r="9.98223" stroke-width="0.5" stroke="black" fill="red"/>
  <circle cx="649.21" cy="828.852" r="6.05517" stroke-width="0.5" stroke="red" fill="red"/>
   </g>
   <g id="cell46">
  <circle cx="57.862" cy="917.163" r="10.4446" stroke-width="0.5" stroke="black" fill="red"/>
  <circle cx="57.862" cy="917.163" r="6.29905" stroke-width="0.5" stroke="red" fill="red"/>
   </g>
   <g id="cell47">
  <circle cx="884.411" cy="429.863" r="10.3933" stroke-width="0.5" stroke="black" fill="red"/>
  <circle cx="884.411" cy="429.863" r="6.27417" stroke-width="0.5" stroke="red" fill="red"/>
   </g>
   <g id="cell48">
  <circle cx="942.212" cy="44.7705" r="10.4613" stroke-width="0.5" stroke="black" fill="red"/>
  <circle cx="942.212" cy="44.7705" r="6.30695" stroke-width="0.5" stroke="red" fill="red"/>
   </g>
   <g id="cell49">
  <circle cx="468.896" cy="784.634" r="10.2221" stroke-width="0.5" stroke="black" fill="red"/>
  <circle cx="468.896" cy="784.634" r="6.18628" stroke-width="0.5" stroke="red" fill="red"/>
   </g>
   <g id="cell50">
  <circle cx="18.0262" cy="454.173" r="10.483" stroke-width="0.5" stroke="black" fill="red"/>
  <circle cx="18.0262" cy="454.173" r="6.31703" stroke-width="0.5" stroke="red" fill="red"/>
   </g>
   <g id="cell51">
  <circle cx="979.808" cy="139.836" r="10.4651" stroke-width="0.5" stroke="black" fill="red"/>
  <circle cx="979.808" cy="139.836" r="6.30877" stroke-width="0.5" stroke="red" fill="red"/>
   </g>
   <g id="cell52">
  <circle cx="289.862" cy="499.505" r="1.82001" stroke-width="0.5" stroke="black" fill="red"/>
  <circle cx="289.862" cy="499.505" r="1.7574" stroke-width="0.5" stroke="black" fill="black"/>
   </g>
   <g id="cell53">
  <circle cx="684.631" cy="353.049" r="10.4446" stroke-width="0.5" stroke="black" fill="red"/>
  <circle cx="684.631" cy="353.049" r="6.29905" stroke-width="0.5" stroke="red" fill="red"/>
   </g>
   <g id="cell54">
  <circle cx="444.09" cy="934.324" r="10.2821" stroke-width="0.5" stroke="black" fill="red"/>
  <circle cx="444.09" cy="934.324" r="6.21778" stroke-width="0.5" stroke="red" fill="red"/>
   </g>
   <g id="cell55">
  <circle cx="242.345" cy="697.361" r="8.68937" stroke-width="0.5" stroke="black" fill="red"/>
  <circle cx="242.345" cy="697.361" r="5.25417" stroke-width="0.5" stroke="red" fill="red"/>
   </g>
   <g id="cell56">
  <circle cx="546.677" cy="793.235" r="10.3747" stroke-width="0.5" stroke="black" fill="red"/>
  <circle cx="546.677" cy="793.235" r="6.26498" stroke-width="0.5" stroke="red" fill="red"/>
   </g>
   <g id="cell57">
  <circle cx="489.436" cy="554.223" r="10.4102" stroke-width="0.5" stroke="black" fill="red"/>
  <circle cx="489.436" cy="554.223" r="6.2825" stroke-width="0.5" stroke="red" fill="red"/>
   </g>
   <g id="cell58">
  <circle cx="68.3473" cy="935.748" r="10.2911" stroke-width="0.5" stroke="black" fill="red"/>
  <circle cx="68.3473" cy="935.748" r="6.22246" stroke-width="0.5" stroke="red" fill="red"/>
   </g>
   <g id="cell59">
  <circle cx="89.2541" cy="933.88" r="10.2328" stroke-width="0.5" stroke="black" fill="red"/>
  <circle cx="89.2541" cy="933.88" r="6.19197" stroke-width="0.5" stroke="red" fill="red"/>
   </g>
   <g id="cell60">
  <circle cx="285.423" cy="53.4442" r="10.1506" stroke-width="0.5" stroke="black" fill="red"/>
  <circle cx="285.423" cy="53.4442" r="6.14798" stroke-width="0.5" stroke="red" fill="red"/>
   </g>
   <g id="cell61">
  <circle cx="840.409" cy="137.695" r="10.2911" stroke-width="0.5" stroke="black" fill="red"/>
  <circle cx="840.409" cy="137.695" r="6.22246" stroke-width="0.5" stroke="red" fill="red"/>
   </g>
   <g id="cell62">
  <circle cx="702.663" cy="823.319" r="8.41271" stroke-width="0.5" stroke="black" fill="red"/>
  <circle cx="702.663" cy="823.319" r="5.05167" stroke-width="0.5" stroke="red" fill="red"/>
   </g>
   <g id="cell63">
  <circle cx="308.828" cy="193.218" r="10.3991" stroke-width="0.5" stroke="black" fill="red"/>
  <circle cx="308.828" cy="193.218" r="6.27703" stroke-width="0.5" stroke="red" fill="red"/>
   </g>
   <g id="cell64">
  <circle cx="580.139" cy="561.035" r="8.41271" stroke-width="0.5" stroke="black" fill="red"/>
  <circle cx="580.139" cy="561.035" r="5.05167" stroke-width="0.5" stroke="red" fill="red"/>
   </g>
   <g id="cell65">
  <circle cx="212.365" cy="844.96" r="9.41008" stroke-width="0.5" stroke="black" fill="red"/>
  <circle cx="212.365" cy="844.96" r="5.71981" stroke-width="0.5" stroke="red" fill="red"/>
   </g>
   <g id="cell66">
  <circle cx="39.9507" cy="151.06" r="10.0497" stroke-width="0.5" stroke="black" fill="red"/>
  <circle cx="39.9507" cy="151.06" r="6.09278" stroke-width="0.5" stroke="red" fill="red"/>
   </g>
   <g id="cell67">
  <circle cx="521.731" cy="267.99" r="9.98223" stroke-width="0.5" stroke="black" fill="red"/>
  <circle cx="521.731" cy="267.99" r="6.05517" stroke-width="0.5" stroke="red" fill="red"/>
   </g>
   <g id="cell68">
  <circle cx="757.829" cy="279.249" r="10.4307" stroke-width="0.5" stroke="black" fill="red"/>
  <circle cx="757.829" cy="279.249" r="6.29241" stroke-width="0.5" stroke="red" fill="red"/>
   </g>
   <g id="cell69">
  <circle cx="441.347" cy="265.485" r="10.1506" stroke-width="0.5" stroke="black" fill="red"/>
  <circle cx="441.347" cy="265.485" r="6.14798" stroke-width="0.5" stroke="red" fill="red"/>
   </g>
   <g id="cell70">
  <circle cx="562.209" cy="392.685" r="10.2328" stroke-width="0.5" stroke="black" fill="red"/>
  <circle cx="562.209" cy="392.685" r="6.19197" stroke-width="0.5" stroke="red" fill="red"/>
   </g>
   <g id="cell71">
  <circle cx="890.383" cy="513.352" r="10.4613" stroke-width="0.5" stroke="black" fill="red"/>
  <circle cx="890.383" cy="513.352" r="6.30695" stroke-width="0.5" stroke="red" fill="red"/>
   </g>
   <g id="cell72">
  <circle cx="219.024" cy="884.804" r="10.3811" stroke-width="0.5" stroke="black" fill="red"/>
  <circle cx="219.024" cy="884.804" r="6.26814" stroke-width="0.5" stroke="red" fill="red"/>
   </g>
   <g id="cell73">
  <circle cx="681.91" cy="469.116" r="10.4355" stroke-width="0.5" stroke="black" fill="red"/>
  <circle cx="681.91" cy="469.116" r="6.2947" stroke-width="0.5" stroke="red" fill="red"/>
   </g>
   <g id="cell74">
  <circle cx="830.424" cy="975.142" r="10.2821" stroke-width="0.5" stroke="black" fill="red"/>
  <circle cx="830.424" cy="975.142" r="6.21778" stroke-width="0.5" stroke="red" fill="red"/>
   </g>
   <g id="cell75">
  <circle cx="109.015" cy="316.871" r="10.4258" stroke-width="0.5" stroke="black" fill="red"/>
  <circle cx="109.015" cy="316.871" r="6.29005" stroke-width="0.5" stroke="red" fill="red"/>
   </g>
   <g id="cell76">
  <circle cx="797.31" cy="384.489" r="10.2632" stroke-width="0.5" stroke="black" fill="red"/>
  <circle cx="797.31" cy="384.489" r="6.20796" stroke-width="0.5" stroke="red" fill="red"/>
   </g>
   <g id="cell77">
  <circle cx="636.584" cy="833.366" r="10.3545" stroke-width="0.5" stroke="black" fill="red"/>
  <circle cx="636.584" cy="833.366" r="6.25485" stroke-width="0.5" stroke="red" fill="red"/>
   </g>
   <g id="cell78">
  <circle cx="593.397" cy="283.923" r="10.3084" stroke-width="0.5" stroke="black" fill="red"/>
  <circle cx="593.397" cy="283.923" r="6.23137" stroke-width="0.5" stroke="red" fill="red"/>
   </g>
   <g id="cell79">
  <circle cx="960.747" cy="697.97" r="9.99984" stroke-width="0.5" stroke="black" fill="red"/>
  <circle cx="960.747" cy="697.97" r="6.06503" stroke-width="0.5" stroke="red" fill="red"/>
   </g>
   <g id="cell80">
  <circle cx="749.368" cy="678.073" r="8.41271" stroke-width="0.5" stroke="black" fill="yellow"/>
  <circle cx="749.368" cy="678.073" r="5.05167" stroke-width="0.5" stroke="yellow" fill="yellow"/>
   </g>
   <g id="cell81">
  <circle cx="499.25" cy="980.543" r="8.41271" stroke-width="0.5" stroke="black" fill="yellow"/>
  <circle cx="499.25" cy="980.543" r="5.05167" stroke-width="0.5" stroke="yellow" fill="yellow"/>
   </g>
   <g id="cell82">
  <circle cx="674.408" cy="425.872" r="10.3933" stroke-width="0.5" stroke="black" fill="yellow"/>
  <circle cx="674.408" cy="425.872" r="6.27417" stroke-width="0.5" stroke="yellow" fill="yellow"/>
   </g>
   <g id="cell83">
  <circle cx="603.455" cy="582.348" r="10.3474" stroke-width="0.5" stroke="black" fill="yellow"/>
  <circle cx="603.455" cy="582.348" r="6.25125" stroke-width="0.5" stroke="yellow" fill="yellow"/>
   </g>
   <g id="cell84">
  <circle cx="24.4336" cy="481.213" r="10.0497" stroke-width="0.5" stroke="black" fill="yellow"/>
  <circle cx="24.4336" cy="481.213" r="6.09278" stroke-width="0.5" stroke="yellow" fill="yellow"/>
   </g>
   <g id="cell85">
  <circle cx="734.077" cy="653.615" r="10.4355" stroke-width="0.5" stroke="black" fill="yellow"/>
  <circle cx="734.077" cy="653.615" r="6.2947" stroke-width="0.5" stroke="yellow" fill="yellow"/>
   </g>
   <g id="cell86">
  <circle cx="274.343" cy="438.804" r="9.64936" stroke-width="0.5" stroke="black" fill="yellow"/>
  <circle cx="274.343" cy="438.804" r="5.86329" stroke-width="0.5" stroke="yellow" fill="yellow"/>
   </g>
   <g id="cell87">
  <circle cx="770.024" cy="417.047" r="10.4761" stroke-width="0.5" stroke="black" fill="yellow"/>
  <circle cx="770.024" cy="417.047" r="6.31388" stroke-width="0.5" stroke="yellow" fill="yellow"/>
   </g>
   <g id="cell88">
  <circle cx="155.682" cy="100.854" r="10.3247" stroke-width="0.5" stroke="black" fill="yellow"/>
  <circle cx="155.682" cy="100.854" r="6.23971" stroke-width="0.5" stroke="yellow" fill="yellow"/>
   </g>
   <g id="cell89">
  <circle cx="54.3882" cy="552.518" r="9.82189" stroke-width="0.5" stroke="black" fill="yellow"/>
  <circle cx="54.3882" cy="552.518" r="5.96395" stroke-width="0.5" stroke="yellow" fill="yellow"/>
   </g>
   <g id="cell119">
  <circle cx="568.191" cy="26.1598" r="9.7992" stroke-width="0.5" stroke="black" fill="yellow"/>
  <circle cx="568.191" cy="26.1598" r="5.95086" stroke-width="0.5" stroke="yellow" fill="yellow"/>
   </g>
   <g id="cell91">
  <circle cx="49.6517" cy="649.201" r="10.0336" stroke-width="0.5" stroke="black" fill="yellow"/>
  <circle cx="49.6517" cy="649.201" r="6.08382" stroke-width="0.5" stroke="yellow" fill="yellow"/>
   </g>
   <g id="cell92">
  <circle cx="651.632" cy="308.37" r="10.3084" stroke-width="0.5" stroke="black" fill="yellow"/>
  <circle cx="651.632" cy="308.37" r="6.23137" stroke-width="0.5" stroke="yellow" fill="yellow"/>
   </g>
   <g id="cell93">
  <circle cx="216.506" cy="902.441" r="10.4761" stroke-width="0.5" stroke="black" fill="yellow"/>
  <circle cx="216.506" cy="902.441" r="6.31388" stroke-width="0.5" stroke="yellow" fill="yellow"/>
   </g>
   <g id="cell94">
  <circle cx="378.871" cy="85.8056" r="10.1879" stroke-width="0.5" stroke="black" fill="yellow"/>
  <circle cx="378.871" cy="85.8056" r="6.16807" stroke-width="0.5" stroke="yellow" fill="yellow"/>
   </g>
   <g id="cell95">
  <circle cx="955.916" cy="897.278" r="10.2433" stroke-width="0.5" stroke="black" fill="yellow"/>
  <circle cx="955.916" cy="897.278" r="6.19748" stroke-width="0.5" stroke="yellow" fill="yellow"/>
   </g>
   <g id="cell96">
  <circle cx="785.27" cy="537.826" r="10.2534" stroke-width="0.5" stroke="black" fill="yellow"/>
  <circle cx="785.27" cy="537.826" r="6.2028" stroke-width="0.5" stroke="yellow" fill="yellow"/>
   </g>
   <g id="cell97">
  <circle cx="434.755" cy="121.014" r="9.5053" stroke-width="0.5" stroke="black" fill="yellow"/>
  <circle cx="434.755" cy="121.014" r="5.77744" stroke-width="0.5" stroke="yellow" fill="yellow"/>
   </g>
   <g id="cell98">
  <circle cx="944.477" cy="366.171" r="9.84395" stroke-width="0.5" stroke="black" fill="yellow"/>
  <circle cx="944.477" cy="366.171" r="5.97665" stroke-width="0.5" stroke="yellow" fill="yellow"/>
   </g>
   <g id="cell99">
  <circle cx="519.483" cy="990.627" r="9.98223" stroke-width="0.5" stroke="black" fill="yellow"/>
  <circle cx="519.483" cy="990.627" r="6.05517" stroke-width="0.5" stroke="yellow" fill="yellow"/>
   </g>
   <g id="cell100">
  <circle cx="153.397" cy="838.939" r="10.4401" stroke-width="0.5" stroke="black" fill="yellow"/>
  <circle cx="153.397" cy="838.939" r="6.29691" stroke-width="0.5" stroke="yellow" fill="yellow"/>
   </g>
   <g id="cell101">
  <circle cx="89.713" cy="152.034" r="8.41271" stroke-width="0.5" stroke="black" fill="yellow"/>
  <circle cx="89.713" cy="152.034" r="5.05167" stroke-width="0.5" stroke="yellow" fill="yellow"/>
   </g>
   <g id="cell102">
  <circle cx="621.813" cy="172.434" r="10.2534" stroke-width="0.5" stroke="black" fill="yellow"/>
  <circle cx="621.813" cy="172.434" r="6.2028" stroke-width="0.5" stroke="yellow" fill="yellow"/>
   </g>
   <g id="cell103">
  <circle cx="835.094" cy="873.279" r="8.41271" stroke-width="0.5" stroke="black" fill="yellow"/>
  <circle cx="835.094" cy="873.279" r="5.05167" stroke-width="0.5" stroke="yellow" fill="yellow"/>
   </g>
   <g id="cell104">
  <circle cx="802.375" cy="408.255" r="10.4689" stroke-width="0.5" stroke="black" fill="yellow"/>
  <circle cx="802.375" cy="408.255" r="6.31053" stroke-width="0.5" stroke="yellow" fill="yellow"/>
   </g>
   <g id="cell105">
  <circle cx="119.899" cy="416.369" r="8.41271" stroke-width="0.5" stroke="black" fill="yellow"/>
  <circle cx="119.899" cy="416.369" r="5.05167" stroke-width="0.5" stroke="yellow" fill="yellow"/>
   </g>
   <g id="cell106">
  <circle cx="32.0505" cy="973.862" r="10.4258" stroke-width="0.5" stroke="black" fill="yellow"/>
  <circle cx="32.0505" cy="973.862" r="6.29005" stroke-width="0.5" stroke="yellow" fill="yellow"/>
   </g>
   <g id="cell107">
  <circle cx="381.376" cy="443.699" r="8.41271" stroke-width="0.5" stroke="black" fill="yellow"/>
  <circle cx="381.376" cy="443.699" r="5.05167" stroke-width="0.5" stroke="yellow" fill="yellow"/>
   </g>
   <g id="cell108">
  <circle cx="711.609" cy="37.0831" r="10.4726" stroke-width="0.5" stroke="black" fill="yellow"/>
  <circle cx="711.609" cy="37.0831" r="6.31223" stroke-width="0.5" stroke="yellow" fill="yellow"/>
   </g>
   <g id="cell109">
  <circle cx="365.956" cy="950.994" r="10.2328" stroke-width="0.5" stroke="black" fill="yellow"/>
  <circle cx="365.956" cy="950.994" r="6.19197" stroke-width="0.5" stroke="yellow" fill="yellow"/>
   </g>
  </g>
 </g>
  <rect x="775" y="1035" width="200" height="10" stroke-width="2" stroke="rgb(255,255,255)" fill="rgb(0,0,0)"/>
  <text x="781.25" y="1028.75"
   font-family="Arial" font-size="25" fill="black" >
   200 &#956;m
  </text>
  <text x="25" y="1045"
   font-family="Arial" font-size="18.75" fill="black" >
   0 days, 0 hours, 0 minutes, and 45.0186 seconds
  </text>
  <rect x="0" y="70" width="1000" height="1000" stroke-width="2" stroke="rgb(0,0,0)" fill="none"/>
</svg>
