<?xml version="1.0" encoding="UTF-8" standalone="no"?>
<!-- Created with PhysiCell (http://PhysiCell.MathCancer.org/) -->
<svg 
 xmlns:dc="http://purl.org/dc/elements/1.1/" 
 xmlns:cc="http://creativecommons.org/ns#" 
 xmlns:rdf="http://www.w3.org/1999/02/22-rdf-syntax-ns#" 
 xmlns:svg="http://www.w3.org/2000/svg" 
 xmlns="http://www.w3.org/2000/svg" 
 version="1.1" 
 width="1000" 
 height="1070" 
 id="svg2">
  <rect x="0" y="0" width="1000" height="1070" stroke-width="2" stroke="white" fill="white"/>
  <text x="12.5" y="30"
   font-family="Arial" font-size="25" fill="black" >
   Current time: 0 days, 2 hours, and 0.00 minutes, z = 0.00 &#956;m
  </text>
  <text x="12.5" y="57.5"
   font-family="Arial" font-size="23.75" fill="black" >
   120 agents
  </text>
 <g id="tissue" 
    transform="translate(0,1070) scale(1,-1)">
  <g id="ECM">
  </g>
  <g id="cells">
   <g id="cell0">
  <circle cx="542.005" cy="588.185" r="9.00806" stroke-width="0.5" stroke="black" fill="grey"/>
  <circle cx="542.005" cy="588.185" r="5.46807" stroke-width="0.5" stroke="grey" fill="grey"/>
   </g>
   <g id="cell1">
  <circle cx="839.837" cy="610.74" r="3.78562" stroke-width="0.5" stroke="black" fill="grey"/>
  <circle cx="839.837" cy="610.74" r="2.80027" stroke-width="0.5" stroke="black" fill="black"/>
   </g>
   <g id="cell2">
  <circle cx="551.133" cy="843.062" r="9.04745" stroke-width="0.5" stroke="black" fill="grey"/>
  <circle cx="551.133" cy="843.062" r="5.49345" stroke-width="0.5" stroke="grey" fill="grey"/>
   </g>
   <g id="cell3">
  <circle cx="632.166" cy="638.05" r="8.72828" stroke-width="0.5" stroke="black" fill="grey"/>
  <circle cx="632.166" cy="638.05" r="5.28134" stroke-width="0.5" stroke="grey" fill="grey"/>
   </g>
   <g id="cell4">
  <circle cx="438.068" cy="307.413" r="8.41271" stroke-width="0.5" stroke="black" fill="grey"/>
  <circle cx="438.068" cy="307.413" r="5.05167" stroke-width="0.5" stroke="grey" fill="grey"/>
   </g>
   <g id="cell5">
  <circle cx="62.7049" cy="965.518" r="8.88811" stroke-width="0.5" stroke="black" fill="grey"/>
  <circle cx="62.7049" cy="965.518" r="5.38958" stroke-width="0.5" stroke="grey" fill="grey"/>
   </g>
   <g id="cell6">
  <circle cx="386.377" cy="487.681" r="9.08642" stroke-width="0.5" stroke="black" fill="grey"/>
  <circle cx="386.377" cy="487.681" r="5.51837" stroke-width="0.5" stroke="grey" fill="grey"/>
   </g>
   <g id="cell7">
  <circle cx="811.232" cy="525.405" r="8.41271" stroke-width="0.5" stroke="black" fill="grey"/>
  <circle cx="811.232" cy="525.405" r="5.05167" stroke-width="0.5" stroke="grey" fill="grey"/>
   </g>
   <g id="cell8">
  <circle cx="578.651" cy="396.053" r="8.41271" stroke-width="0.5" stroke="black" fill="grey"/>
  <circle cx="578.651" cy="396.053" r="5.05167" stroke-width="0.5" stroke="grey" fill="grey"/>
   </g>
   <g id="cell9">
  <circle cx="847.148" cy="85.0327" r="7.65539" stroke-width="0.5" stroke="black" fill="grey"/>
  <circle cx="847.148" cy="85.0327" r="4.62266" stroke-width="0.5" stroke="black" fill="black"/>
   </g>
   <g id="cell10">
  <circle cx="98.9631" cy="646.938" r="8.41271" stroke-width="0.5" stroke="black" fill="grey"/>
  <circle cx="98.9631" cy="646.938" r="5.05167" stroke-width="0.5" stroke="grey" fill="grey"/>
   </g>
   <g id="cell11">
  <circle cx="363.703" cy="835.384" r="8.41271" stroke-width="0.5" stroke="black" fill="grey"/>
  <circle cx="363.703" cy="835.384" r="5.05167" stroke-width="0.5" stroke="grey" fill="grey"/>
   </g>
   <g id="cell12">
  <circle cx="781.02" cy="140.005" r="8.41271" stroke-width="0.5" stroke="black" fill="grey"/>
  <circle cx="781.02" cy="140.005" r="5.05167" stroke-width="0.5" stroke="grey" fill="grey"/>
   </g>
   <g id="cell13">
  <circle cx="882.254" cy="971.556" r="8.41271" stroke-width="0.5" stroke="black" fill="grey"/>
  <circle cx="882.254" cy="971.556" r="5.05167" stroke-width="0.5" stroke="grey" fill="grey"/>
   </g>
   <g id="cell14">
  <circle cx="826.039" cy="809.985" r="8.48289" stroke-width="0.5" stroke="black" fill="grey"/>
  <circle cx="826.039" cy="809.985" r="5.10317" stroke-width="0.5" stroke="grey" fill="grey"/>
   </g>
   <g id="cell15">
  <circle cx="507.158" cy="780.278" r="8.41271" stroke-width="0.5" stroke="black" fill="grey"/>
  <circle cx="507.158" cy="780.278" r="5.05167" stroke-width="0.5" stroke="grey" fill="grey"/>
   </g>
   <g id="cell16">
  <circle cx="124.884" cy="728.405" r="8.41271" stroke-width="0.5" stroke="black" fill="grey"/>
  <circle cx="124.884" cy="728.405" r="5.05167" stroke-width="0.5" stroke="grey" fill="grey"/>
   </g>
   <g id="cell17">
  <circle cx="576.613" cy="145.199" r="6.44044" stroke-width="0.5" stroke="black" fill="grey"/>
  <circle cx="576.613" cy="145.199" r="3.99684" stroke-width="0.5" stroke="black" fill="black"/>
   </g>
   <g id="cell18">
  <circle cx="933.041" cy="743.336" r="8.41271" stroke-width="0.5" stroke="black" fill="grey"/>
  <circle cx="933.041" cy="743.336" r="5.05167" stroke-width="0.5" stroke="grey" fill="grey"/>
   </g>
   <g id="cell19">
  <circle cx="104.154" cy="408.091" r="8.41271" stroke-width="0.5" stroke="black" fill="grey"/>
  <circle cx="104.154" cy="408.091" r="5.05167" stroke-width="0.5" stroke="grey" fill="grey"/>
   </g>
   <g id="cell20">
  <circle cx="245.585" cy="184.905" r="8.41271" stroke-width="0.5" stroke="black" fill="grey"/>
  <circle cx="245.585" cy="184.905" r="5.05167" stroke-width="0.5" stroke="grey" fill="grey"/>
   </g>
   <g id="cell21">
  <circle cx="744.946" cy="440.802" r="8.41271" stroke-width="0.5" stroke="black" fill="grey"/>
  <circle cx="744.946" cy="440.802" r="5.05167" stroke-width="0.5" stroke="grey" fill="grey"/>
   </g>
   <g id="cell22">
  <circle cx="565.337" cy="126.183" r="4.42406" stroke-width="0.5" stroke="black" fill="grey"/>
  <circle cx="565.337" cy="126.183" r="3.07758" stroke-width="0.5" stroke="black" fill="black"/>
   </g>
   <g id="cell23">
  <circle cx="311.536" cy="617.77" r="8.84788" stroke-width="0.5" stroke="black" fill="grey"/>
  <circle cx="311.536" cy="617.77" r="5.36278" stroke-width="0.5" stroke="grey" fill="grey"/>
   </g>
   <g id="cell24">
  <circle cx="613.396" cy="225.657" r="8.84788" stroke-width="0.5" stroke="black" fill="grey"/>
  <circle cx="613.396" cy="225.657" r="5.36278" stroke-width="0.5" stroke="grey" fill="grey"/>
   </g>
   <g id="cell25">
  <circle cx="379.379" cy="960.062" r="8.41271" stroke-width="0.5" stroke="black" fill="grey"/>
  <circle cx="379.379" cy="960.062" r="5.05167" stroke-width="0.5" stroke="grey" fill="grey"/>
   </g>
   <g id="cell26">
  <circle cx="667.727" cy="467.315" r="8.68937" stroke-width="0.5" stroke="black" fill="grey"/>
  <circle cx="667.727" cy="467.315" r="5.25417" stroke-width="0.5" stroke="grey" fill="grey"/>
   </g>
   <g id="cell27">
  <circle cx="601.791" cy="449.353" r="3.9178" stroke-width="0.5" stroke="black" fill="grey"/>
  <circle cx="601.791" cy="449.353" r="2.85647" stroke-width="0.5" stroke="black" fill="black"/>
   </g>
   <g id="cell28">
  <circle cx="684.845" cy="108.121" r="8.48289" stroke-width="0.5" stroke="black" fill="grey"/>
  <circle cx="684.845" cy="108.121" r="5.10317" stroke-width="0.5" stroke="grey" fill="grey"/>
   </g>
   <g id="cell29">
  <circle cx="987.571" cy="657.606" r="8.7678" stroke-width="0.5" stroke="black" fill="grey"/>
  <circle cx="987.571" cy="657.606" r="5.30857" stroke-width="0.5" stroke="grey" fill="grey"/>
   </g>
   <g id="cell30">
  <circle cx="672.371" cy="169.082" r="8.41271" stroke-width="0.5" stroke="black" fill="grey"/>
  <circle cx="672.371" cy="169.082" r="5.05167" stroke-width="0.5" stroke="grey" fill="grey"/>
   </g>
   <g id="cell31">
  <circle cx="349.847" cy="116.602" r="8.41271" stroke-width="0.5" stroke="black" fill="grey"/>
  <circle cx="349.847" cy="116.602" r="5.05167" stroke-width="0.5" stroke="grey" fill="grey"/>
   </g>
   <g id="cell32">
  <circle cx="319.499" cy="595.194" r="6.49411" stroke-width="0.5" stroke="black" fill="grey"/>
  <circle cx="319.499" cy="595.194" r="4.04274" stroke-width="0.5" stroke="black" fill="black"/>
   </g>
   <g id="cell33">
  <circle cx="317.197" cy="563.449" r="8.84788" stroke-width="0.5" stroke="black" fill="grey"/>
  <circle cx="317.197" cy="563.449" r="5.36278" stroke-width="0.5" stroke="grey" fill="grey"/>
   </g>
   <g id="cell34">
  <circle cx="440.632" cy="631.131" r="8.41271" stroke-width="0.5" stroke="black" fill="grey"/>
  <circle cx="440.632" cy="631.131" r="5.05167" stroke-width="0.5" stroke="grey" fill="grey"/>
   </g>
   <g id="cell35">
  <circle cx="937.547" cy="84.2253" r="8.41271" stroke-width="0.5" stroke="black" fill="grey"/>
  <circle cx="937.547" cy="84.2253" r="5.05167" stroke-width="0.5" stroke="grey" fill="grey"/>
   </g>
   <g id="cell36">
  <circle cx="212.296" cy="625.375" r="8.41271" stroke-width="0.5" stroke="black" fill="grey"/>
  <circle cx="212.296" cy="625.375" r="5.05167" stroke-width="0.5" stroke="grey" fill="grey"/>
   </g>
   <g id="cell37">
  <circle cx="989.096" cy="653.881" r="8.41271" stroke-width="0.5" stroke="black" fill="grey"/>
  <circle cx="989.096" cy="653.881" r="5.05167" stroke-width="0.5" stroke="grey" fill="grey"/>
   </g>
   <g id="cell38">
  <circle cx="253.402" cy="421.789" r="9.04745" stroke-width="0.5" stroke="black" fill="grey"/>
  <circle cx="253.402" cy="421.789" r="5.49345" stroke-width="0.5" stroke="grey" fill="grey"/>
   </g>
   <g id="cell39">
  <circle cx="487.437" cy="256.617" r="8.41271" stroke-width="0.5" stroke="black" fill="grey"/>
  <circle cx="487.437" cy="256.617" r="5.05167" stroke-width="0.5" stroke="grey" fill="grey"/>
   </g>
   <g id="cell40">
  <circle cx="165.254" cy="349.088" r="8.41271" stroke-width="0.5" stroke="black" fill="red"/>
  <circle cx="165.254" cy="349.088" r="5.05167" stroke-width="0.5" stroke="red" fill="red"/>
   </g>
   <g id="cell41">
  <circle cx="678.614" cy="670.086" r="8.51252" stroke-width="0.5" stroke="black" fill="red"/>
  <circle cx="678.614" cy="670.086" r="5.12552" stroke-width="0.5" stroke="red" fill="red"/>
   </g>
   <g id="cell42">
  <circle cx="135.239" cy="780.59" r="8.51252" stroke-width="0.5" stroke="black" fill="red"/>
  <circle cx="135.239" cy="780.59" r="5.12552" stroke-width="0.5" stroke="red" fill="red"/>
   </g>
   <g id="cell43">
  <circle cx="937.104" cy="372.4" r="8.41271" stroke-width="0.5" stroke="black" fill="red"/>
  <circle cx="937.104" cy="372.4" r="5.05167" stroke-width="0.5" stroke="red" fill="red"/>
   </g>
   <g id="cell44">
  <circle cx="822.229" cy="21.7878" r="8.41271" stroke-width="0.5" stroke="black" fill="red"/>
  <circle cx="822.229" cy="21.7878" r="5.05167" stroke-width="0.5" stroke="red" fill="red"/>
   </g>
   <g id="cell45">
  <circle cx="635.527" cy="844.975" r="8.41271" stroke-width="0.5" stroke="black" fill="red"/>
  <circle cx="635.527" cy="844.975" r="5.05167" stroke-width="0.5" stroke="red" fill="red"/>
   </g>
   <g id="cell46">
  <circle cx="91.8314" cy="975.063" r="8.68937" stroke-width="0.5" stroke="black" fill="red"/>
  <circle cx="91.8314" cy="975.063" r="5.25417" stroke-width="0.5" stroke="red" fill="red"/>
   </g>
   <g id="cell47">
  <circle cx="894.403" cy="452.797" r="8.41271" stroke-width="0.5" stroke="black" fill="red"/>
  <circle cx="894.403" cy="452.797" r="5.05167" stroke-width="0.5" stroke="red" fill="red"/>
   </g>
   <g id="cell48">
  <circle cx="973.1" cy="48.9437" r="8.84788" stroke-width="0.5" stroke="black" fill="red"/>
  <circle cx="973.1" cy="48.9437" r="5.36278" stroke-width="0.5" stroke="red" fill="red"/>
   </g>
   <g id="cell49">
  <circle cx="455.345" cy="747.759" r="8.41271" stroke-width="0.5" stroke="black" fill="red"/>
  <circle cx="455.345" cy="747.759" r="5.05167" stroke-width="0.5" stroke="red" fill="red"/>
   </g>
   <g id="cell50">
  <circle cx="23.5867" cy="447.125" r="9.08642" stroke-width="0.5" stroke="black" fill="red"/>
  <circle cx="23.5867" cy="447.125" r="5.51837" stroke-width="0.5" stroke="red" fill="red"/>
   </g>
   <g id="cell51">
  <circle cx="975.329" cy="109.857" r="8.88811" stroke-width="0.5" stroke="black" fill="red"/>
  <circle cx="975.329" cy="109.857" r="5.38958" stroke-width="0.5" stroke="red" fill="red"/>
   </g>
   <g id="cell52">
  <circle cx="302.822" cy="477.619" r="8.41271" stroke-width="0.5" stroke="black" fill="red"/>
  <circle cx="302.822" cy="477.619" r="5.05167" stroke-width="0.5" stroke="red" fill="red"/>
   </g>
   <g id="cell53">
  <circle cx="693.976" cy="303.102" r="8.68937" stroke-width="0.5" stroke="black" fill="red"/>
  <circle cx="693.976" cy="303.102" r="5.25417" stroke-width="0.5" stroke="red" fill="red"/>
   </g>
   <g id="cell54">
  <circle cx="411.983" cy="916.725" r="8.41271" stroke-width="0.5" stroke="black" fill="red"/>
  <circle cx="411.983" cy="916.725" r="5.05167" stroke-width="0.5" stroke="red" fill="red"/>
   </g>
   <g id="cell55">
  <circle cx="215.262" cy="694.583" r="8.41271" stroke-width="0.5" stroke="black" fill="red"/>
  <circle cx="215.262" cy="694.583" r="5.05167" stroke-width="0.5" stroke="red" fill="red"/>
   </g>
   <g id="cell56">
  <circle cx="555.668" cy="850.178" r="8.41271" stroke-width="0.5" stroke="black" fill="red"/>
  <circle cx="555.668" cy="850.178" r="5.05167" stroke-width="0.5" stroke="red" fill="red"/>
   </g>
   <g id="cell57">
  <circle cx="509.298" cy="534.861" r="8.45606" stroke-width="0.5" stroke="black" fill="red"/>
  <circle cx="509.298" cy="534.861" r="5.08296" stroke-width="0.5" stroke="red" fill="red"/>
   </g>
   <g id="cell58">
  <circle cx="97.9903" cy="911.645" r="8.41271" stroke-width="0.5" stroke="black" fill="red"/>
  <circle cx="97.9903" cy="911.645" r="5.05167" stroke-width="0.5" stroke="red" fill="red"/>
   </g>
   <g id="cell59">
  <circle cx="86.2835" cy="931.873" r="8.41271" stroke-width="0.5" stroke="black" fill="red"/>
  <circle cx="86.2835" cy="931.873" r="5.05167" stroke-width="0.5" stroke="red" fill="red"/>
   </g>
   <g id="cell60">
  <circle cx="310.603" cy="15.0046" r="8.41271" stroke-width="0.5" stroke="black" fill="red"/>
  <circle cx="310.603" cy="15.0046" r="5.05167" stroke-width="0.5" stroke="red" fill="red"/>
   </g>
   <g id="cell61">
  <circle cx="846.499" cy="146.698" r="8.41271" stroke-width="0.5" stroke="black" fill="red"/>
  <circle cx="846.499" cy="146.698" r="5.05167" stroke-width="0.5" stroke="red" fill="red"/>
   </g>
   <g id="cell62">
  <circle cx="701.768" cy="823.503" r="8.41271" stroke-width="0.5" stroke="black" fill="red"/>
  <circle cx="701.768" cy="823.503" r="5.05167" stroke-width="0.5" stroke="red" fill="red"/>
   </g>
   <g id="cell63">
  <circle cx="278.636" cy="180.817" r="8.41271" stroke-width="0.5" stroke="black" fill="red"/>
  <circle cx="278.636" cy="180.817" r="5.05167" stroke-width="0.5" stroke="red" fill="red"/>
   </g>
   <g id="cell64">
  <circle cx="586.952" cy="537.957" r="8.41271" stroke-width="0.5" stroke="black" fill="red"/>
  <circle cx="586.952" cy="537.957" r="5.05167" stroke-width="0.5" stroke="red" fill="red"/>
   </g>
   <g id="cell65">
  <circle cx="167.035" cy="833.846" r="8.41271" stroke-width="0.5" stroke="black" fill="red"/>
  <circle cx="167.035" cy="833.846" r="5.05167" stroke-width="0.5" stroke="red" fill="red"/>
   </g>
   <g id="cell66">
  <circle cx="20.5326" cy="151.769" r="8.41271" stroke-width="0.5" stroke="black" fill="red"/>
  <circle cx="20.5326" cy="151.769" r="5.05167" stroke-width="0.5" stroke="red" fill="red"/>
   </g>
   <g id="cell67">
  <circle cx="554.65" cy="267.287" r="8.41271" stroke-width="0.5" stroke="black" fill="red"/>
  <circle cx="554.65" cy="267.287" r="5.05167" stroke-width="0.5" stroke="red" fill="red"/>
   </g>
   <g id="cell68">
  <circle cx="741.569" cy="279.173" r="8.57856" stroke-width="0.5" stroke="black" fill="red"/>
  <circle cx="741.569" cy="279.173" r="5.17461" stroke-width="0.5" stroke="red" fill="red"/>
   </g>
   <g id="cell69">
  <circle cx="438.143" cy="262.444" r="8.41271" stroke-width="0.5" stroke="black" fill="red"/>
  <circle cx="438.143" cy="262.444" r="5.05167" stroke-width="0.5" stroke="red" fill="red"/>
   </g>
   <g id="cell70">
  <circle cx="546.091" cy="391.081" r="8.41271" stroke-width="0.5" stroke="black" fill="red"/>
  <circle cx="546.091" cy="391.081" r="5.05167" stroke-width="0.5" stroke="red" fill="red"/>
   </g>
   <g id="cell71">
  <circle cx="885.622" cy="567.948" r="8.84788" stroke-width="0.5" stroke="black" fill="red"/>
  <circle cx="885.622" cy="567.948" r="5.36278" stroke-width="0.5" stroke="red" fill="red"/>
   </g>
   <g id="cell72">
  <circle cx="219.15" cy="880.043" r="8.41271" stroke-width="0.5" stroke="black" fill="red"/>
  <circle cx="219.15" cy="880.043" r="5.05167" stroke-width="0.5" stroke="red" fill="red"/>
   </g>
   <g id="cell73">
  <circle cx="668.738" cy="451.692" r="8.61424" stroke-width="0.5" stroke="black" fill="red"/>
  <circle cx="668.738" cy="451.692" r="5.20061" stroke-width="0.5" stroke="red" fill="red"/>
   </g>
   <g id="cell74">
  <circle cx="840.013" cy="986.519" r="8.41271" stroke-width="0.5" stroke="black" fill="red"/>
  <circle cx="840.013" cy="986.519" r="5.05167" stroke-width="0.5" stroke="red" fill="red"/>
   </g>
   <g id="cell75">
  <circle cx="110.406" cy="310.327" r="8.54454" stroke-width="0.5" stroke="black" fill="red"/>
  <circle cx="110.406" cy="310.327" r="5.14947" stroke-width="0.5" stroke="red" fill="red"/>
   </g>
   <g id="cell76">
  <circle cx="815.476" cy="405.362" r="8.41271" stroke-width="0.5" stroke="black" fill="red"/>
  <circle cx="815.476" cy="405.362" r="5.05167" stroke-width="0.5" stroke="red" fill="red"/>
   </g>
   <g id="cell77">
  <circle cx="664.746" cy="859.395" r="8.41271" stroke-width="0.5" stroke="black" fill="red"/>
  <circle cx="664.746" cy="859.395" r="5.05167" stroke-width="0.5" stroke="red" fill="red"/>
   </g>
   <g id="cell78">
  <circle cx="579.731" cy="314.505" r="8.41271" stroke-width="0.5" stroke="black" fill="red"/>
  <circle cx="579.731" cy="314.505" r="5.05167" stroke-width="0.5" stroke="red" fill="red"/>
   </g>
   <g id="cell79">
  <circle cx="961.854" cy="695.487" r="8.41271" stroke-width="0.5" stroke="black" fill="red"/>
  <circle cx="961.854" cy="695.487" r="5.05167" stroke-width="0.5" stroke="red" fill="red"/>
   </g>
   <g id="cell80">
  <circle cx="738.256" cy="668.97" r="8.41271" stroke-width="0.5" stroke="black" fill="yellow"/>
  <circle cx="738.256" cy="668.97" r="5.05167" stroke-width="0.5" stroke="yellow" fill="yellow"/>
   </g>
   <g id="cell81">
  <circle cx="518.515" cy="961.591" r="8.41271" stroke-width="0.5" stroke="black" fill="yellow"/>
  <circle cx="518.515" cy="961.591" r="5.05167" stroke-width="0.5" stroke="yellow" fill="yellow"/>
   </g>
   <g id="cell82">
  <circle cx="661.812" cy="409.114" r="8.41271" stroke-width="0.5" stroke="black" fill="yellow"/>
  <circle cx="661.812" cy="409.114" r="5.05167" stroke-width="0.5" stroke="yellow" fill="yellow"/>
   </g>
   <g id="cell83">
  <circle cx="619.702" cy="599.147" r="8.41271" stroke-width="0.5" stroke="black" fill="yellow"/>
  <circle cx="619.702" cy="599.147" r="5.05167" stroke-width="0.5" stroke="yellow" fill="yellow"/>
   </g>
   <g id="cell84">
  <circle cx="30.8631" cy="472.586" r="8.41271" stroke-width="0.5" stroke="black" fill="yellow"/>
  <circle cx="30.8631" cy="472.586" r="5.05167" stroke-width="0.5" stroke="yellow" fill="yellow"/>
   </g>
   <g id="cell85">
  <circle cx="711.392" cy="669.233" r="8.61424" stroke-width="0.5" stroke="black" fill="yellow"/>
  <circle cx="711.392" cy="669.233" r="5.20061" stroke-width="0.5" stroke="yellow" fill="yellow"/>
   </g>
   <g id="cell86">
  <circle cx="274.973" cy="390.172" r="8.41271" stroke-width="0.5" stroke="black" fill="yellow"/>
  <circle cx="274.973" cy="390.172" r="5.05167" stroke-width="0.5" stroke="yellow" fill="yellow"/>
   </g>
   <g id="cell87">
  <circle cx="762.392" cy="444.35" r="9.00806" stroke-width="0.5" stroke="black" fill="yellow"/>
  <circle cx="762.392" cy="444.35" r="5.46807" stroke-width="0.5" stroke="yellow" fill="yellow"/>
   </g>
   <g id="cell88">
  <circle cx="142.101" cy="111.592" r="8.41271" stroke-width="0.5" stroke="black" fill="yellow"/>
  <circle cx="142.101" cy="111.592" r="5.05167" stroke-width="0.5" stroke="yellow" fill="yellow"/>
   </g>
   <g id="cell89">
  <circle cx="73.4776" cy="562.705" r="8.41271" stroke-width="0.5" stroke="black" fill="yellow"/>
  <circle cx="73.4776" cy="562.705" r="5.05167" stroke-width="0.5" stroke="yellow" fill="yellow"/>
   </g>
   <g id="cell90">
  <circle cx="576.381" cy="549.137" r="3.78562" stroke-width="0.5" stroke="black" fill="yellow"/>
  <circle cx="576.381" cy="549.137" r="2.80027" stroke-width="0.5" stroke="black" fill="black"/>
   </g>
   <g id="cell91">
  <circle cx="31.7178" cy="645.374" r="8.41271" stroke-width="0.5" stroke="black" fill="yellow"/>
  <circle cx="31.7178" cy="645.374" r="5.05167" stroke-width="0.5" stroke="yellow" fill="yellow"/>
   </g>
   <g id="cell92">
  <circle cx="658.517" cy="302.7" r="8.41271" stroke-width="0.5" stroke="black" fill="yellow"/>
  <circle cx="658.517" cy="302.7" r="5.05167" stroke-width="0.5" stroke="yellow" fill="yellow"/>
   </g>
   <g id="cell93">
  <circle cx="220.733" cy="905.645" r="9.00806" stroke-width="0.5" stroke="black" fill="yellow"/>
  <circle cx="220.733" cy="905.645" r="5.46807" stroke-width="0.5" stroke="yellow" fill="yellow"/>
   </g>
   <g id="cell94">
  <circle cx="362.093" cy="79.5121" r="8.41271" stroke-width="0.5" stroke="black" fill="yellow"/>
  <circle cx="362.093" cy="79.5121" r="5.05167" stroke-width="0.5" stroke="yellow" fill="yellow"/>
   </g>
   <g id="cell95">
  <circle cx="989.314" cy="890.887" r="8.41271" stroke-width="0.5" stroke="black" fill="yellow"/>
  <circle cx="989.314" cy="890.887" r="5.05167" stroke-width="0.5" stroke="yellow" fill="yellow"/>
   </g>
   <g id="cell96">
  <circle cx="801.409" cy="526.381" r="8.41271" stroke-width="0.5" stroke="black" fill="yellow"/>
  <circle cx="801.409" cy="526.381" r="5.05167" stroke-width="0.5" stroke="yellow" fill="yellow"/>
   </g>
   <g id="cell97">
  <circle cx="449.079" cy="91.7558" r="8.41271" stroke-width="0.5" stroke="black" fill="yellow"/>
  <circle cx="449.079" cy="91.7558" r="5.05167" stroke-width="0.5" stroke="yellow" fill="yellow"/>
   </g>
   <g id="cell98">
  <circle cx="905.059" cy="346.96" r="8.41271" stroke-width="0.5" stroke="black" fill="yellow"/>
  <circle cx="905.059" cy="346.96" r="5.05167" stroke-width="0.5" stroke="yellow" fill="yellow"/>
   </g>
   <g id="cell99">
  <circle cx="473.482" cy="983.834" r="8.41271" stroke-width="0.5" stroke="black" fill="yellow"/>
  <circle cx="473.482" cy="983.834" r="5.05167" stroke-width="0.5" stroke="yellow" fill="yellow"/>
   </g>
   <g id="cell100">
  <circle cx="151.559" cy="887.143" r="8.65127" stroke-width="0.5" stroke="black" fill="yellow"/>
  <circle cx="151.559" cy="887.143" r="5.2272" stroke-width="0.5" stroke="yellow" fill="yellow"/>
   </g>
   <g id="cell101">
  <circle cx="37.3286" cy="156.133" r="8.41271" stroke-width="0.5" stroke="black" fill="yellow"/>
  <circle cx="37.3286" cy="156.133" r="5.05167" stroke-width="0.5" stroke="yellow" fill="yellow"/>
   </g>
   <g id="cell102">
  <circle cx="617.973" cy="159.384" r="8.41271" stroke-width="0.5" stroke="black" fill="yellow"/>
  <circle cx="617.973" cy="159.384" r="5.05167" stroke-width="0.5" stroke="yellow" fill="yellow"/>
   </g>
   <g id="cell103">
  <circle cx="795.118" cy="858.976" r="8.41271" stroke-width="0.5" stroke="black" fill="yellow"/>
  <circle cx="795.118" cy="858.976" r="5.05167" stroke-width="0.5" stroke="yellow" fill="yellow"/>
   </g>
   <g id="cell104">
  <circle cx="819.53" cy="431.004" r="8.9283" stroke-width="0.5" stroke="black" fill="yellow"/>
  <circle cx="819.53" cy="431.004" r="5.4161" stroke-width="0.5" stroke="yellow" fill="yellow"/>
   </g>
   <g id="cell105">
  <circle cx="137.466" cy="397.468" r="8.41271" stroke-width="0.5" stroke="black" fill="yellow"/>
  <circle cx="137.466" cy="397.468" r="5.05167" stroke-width="0.5" stroke="yellow" fill="yellow"/>
   </g>
   <g id="cell106">
  <circle cx="44.4822" cy="967.56" r="8.54454" stroke-width="0.5" stroke="black" fill="yellow"/>
  <circle cx="44.4822" cy="967.56" r="5.14947" stroke-width="0.5" stroke="yellow" fill="yellow"/>
   </g>
   <g id="cell107">
  <circle cx="375.997" cy="435.332" r="8.41271" stroke-width="0.5" stroke="black" fill="yellow"/>
  <circle cx="375.997" cy="435.332" r="5.05167" stroke-width="0.5" stroke="yellow" fill="yellow"/>
   </g>
   <g id="cell108">
  <circle cx="721.478" cy="62.6186" r="8.96831" stroke-width="0.5" stroke="black" fill="yellow"/>
  <circle cx="721.478" cy="62.6186" r="5.44228" stroke-width="0.5" stroke="yellow" fill="yellow"/>
   </g>
   <g id="cell109">
  <circle cx="376.181" cy="971.364" r="8.41271" stroke-width="0.5" stroke="black" fill="yellow"/>
  <circle cx="376.181" cy="971.364" r="5.05167" stroke-width="0.5" stroke="yellow" fill="yellow"/>
   </g>
   <g id="cell110">
  <circle cx="849.148" cy="229.799" r="8.41271" stroke-width="0.5" stroke="black" fill="yellow"/>
  <circle cx="849.148" cy="229.799" r="5.05167" stroke-width="0.5" stroke="yellow" fill="yellow"/>
   </g>
   <g id="cell111">
  <circle cx="768.743" cy="358.018" r="8.41271" stroke-width="0.5" stroke="black" fill="yellow"/>
  <circle cx="768.743" cy="358.018" r="5.05167" stroke-width="0.5" stroke="yellow" fill="yellow"/>
   </g>
   <g id="cell112">
  <circle cx="724.597" cy="753.971" r="8.57856" stroke-width="0.5" stroke="black" fill="yellow"/>
  <circle cx="724.597" cy="753.971" r="5.17461" stroke-width="0.5" stroke="yellow" fill="yellow"/>
   </g>
   <g id="cell113">
  <circle cx="347.194" cy="522.062" r="4.52254" stroke-width="0.5" stroke="black" fill="yellow"/>
  <circle cx="347.194" cy="522.062" r="3.158" stroke-width="0.5" stroke="black" fill="black"/>
   </g>
   <g id="cell114">
  <circle cx="60.3537" cy="341.668" r="8.41271" stroke-width="0.5" stroke="black" fill="yellow"/>
  <circle cx="60.3537" cy="341.668" r="5.05167" stroke-width="0.5" stroke="yellow" fill="yellow"/>
   </g>
   <g id="cell115">
  <circle cx="185.68" cy="30.873" r="8.41271" stroke-width="0.5" stroke="black" fill="yellow"/>
  <circle cx="185.68" cy="30.873" r="5.05167" stroke-width="0.5" stroke="yellow" fill="yellow"/>
   </g>
   <g id="cell116">
  <circle cx="798.382" cy="474.766" r="8.41271" stroke-width="0.5" stroke="black" fill="yellow"/>
  <circle cx="798.382" cy="474.766" r="5.05167" stroke-width="0.5" stroke="yellow" fill="yellow"/>
   </g>
   <g id="cell117">
  <circle cx="879.025" cy="340.522" r="8.41271" stroke-width="0.5" stroke="black" fill="yellow"/>
  <circle cx="879.025" cy="340.522" r="5.05167" stroke-width="0.5" stroke="yellow" fill="yellow"/>
   </g>
   <g id="cell118">
  <circle cx="923.022" cy="616.793" r="8.72828" stroke-width="0.5" stroke="black" fill="yellow"/>
  <circle cx="923.022" cy="616.793" r="5.28134" stroke-width="0.5" stroke="yellow" fill="yellow"/>
   </g>
   <g id="cell119">
  <circle cx="584.176" cy="24.2689" r="8.41271" stroke-width="0.5" stroke="black" fill="yellow"/>
  <circle cx="584.176" cy="24.2689" r="5.05167" stroke-width="0.5" stroke="yellow" fill="yellow"/>
   </g>
  </g>
 </g>
  <rect x="775" y="1035" width="200" height="10" stroke-width="2" stroke="rgb(255,255,255)" fill="rgb(0,0,0)"/>
  <text x="781.25" y="1028.75"
   font-family="Arial" font-size="25" fill="black" >
   200 &#956;m
  </text>
  <text x="25" y="1045"
   font-family="Arial" font-size="18.75" fill="black" >
   0 days, 0 hours, 0 minutes, and 6.7889 seconds
  </text>
  <rect x="0" y="70" width="1000" height="1000" stroke-width="2" stroke="rgb(0,0,0)" fill="none"/>
</svg>
