<?xml version="1.0" encoding="UTF-8" standalone="no"?>
<!-- Created with PhysiCell (http://PhysiCell.MathCancer.org/) -->
<svg 
 xmlns:dc="http://purl.org/dc/elements/1.1/" 
 xmlns:cc="http://creativecommons.org/ns#" 
 xmlns:rdf="http://www.w3.org/1999/02/22-rdf-syntax-ns#" 
 xmlns:svg="http://www.w3.org/2000/svg" 
 xmlns="http://www.w3.org/2000/svg" 
 version="1.1" 
 width="1000" 
 height="1070" 
 id="svg2">
  <rect x="0" y="0" width="1000" height="1070" stroke-width="2" stroke="white" fill="white"/>
  <text x="12.5" y="30"
   font-family="Arial" font-size="25" fill="black" >
   Current time: 0 days, 4 hours, and 0.00 minutes, z = 0.00 &#956;m
  </text>
  <text x="12.5" y="57.5"
   font-family="Arial" font-size="23.75" fill="black" >
   120 agents
  </text>
 <g id="tissue" 
    transform="translate(0,1070) scale(1,-1)">
  <g id="ECM">
  </g>
  <g id="cells">
   <g id="cell0">
  <circle cx="569.251" cy="590.624" r="8.41271" stroke-width="0.5" stroke="black" fill="grey"/>
  <circle cx="569.251" cy="590.624" r="5.05167" stroke-width="0.5" stroke="grey" fill="grey"/>
   </g>
   <g id="cell1">
  <circle cx="865.732" cy="608.382" r="8.41271" stroke-width="0.5" stroke="black" fill="grey"/>
  <circle cx="865.732" cy="608.382" r="5.05167" stroke-width="0.5" stroke="grey" fill="grey"/>
   </g>
   <g id="cell2">
  <circle cx="537.798" cy="860.481" r="9.08642" stroke-width="0.5" stroke="black" fill="grey"/>
  <circle cx="537.798" cy="860.481" r="5.51837" stroke-width="0.5" stroke="grey" fill="grey"/>
   </g>
   <g id="cell3">
  <circle cx="642.275" cy="622.64" r="9.16281" stroke-width="0.5" stroke="black" fill="grey"/>
  <circle cx="642.275" cy="622.64" r="5.56677" stroke-width="0.5" stroke="grey" fill="grey"/>
   </g>
   <g id="cell4">
  <circle cx="445.958" cy="293.346" r="9.7273" stroke-width="0.5" stroke="black" fill="grey"/>
  <circle cx="445.958" cy="293.346" r="5.90906" stroke-width="0.5" stroke="grey" fill="grey"/>
   </g>
   <g id="cell5">
  <circle cx="73.9099" cy="971.01" r="8.41271" stroke-width="0.5" stroke="black" fill="grey"/>
  <circle cx="73.9099" cy="971.01" r="5.05167" stroke-width="0.5" stroke="grey" fill="grey"/>
   </g>
   <g id="cell6">
  <circle cx="390.494" cy="449.769" r="8.41271" stroke-width="0.5" stroke="black" fill="grey"/>
  <circle cx="390.494" cy="449.769" r="5.05167" stroke-width="0.5" stroke="grey" fill="grey"/>
   </g>
   <g id="cell7">
  <circle cx="800.319" cy="512.719" r="8.41271" stroke-width="0.5" stroke="black" fill="grey"/>
  <circle cx="800.319" cy="512.719" r="5.05167" stroke-width="0.5" stroke="grey" fill="grey"/>
   </g>
   <g id="cell8">
  <circle cx="569.956" cy="370.46" r="9.53557" stroke-width="0.5" stroke="black" fill="grey"/>
  <circle cx="569.956" cy="370.46" r="5.79561" stroke-width="0.5" stroke="grey" fill="grey"/>
   </g>
   <g id="cell9">
  <circle cx="826.112" cy="77.4571" r="9.08642" stroke-width="0.5" stroke="black" fill="grey"/>
  <circle cx="826.112" cy="77.4571" r="5.51837" stroke-width="0.5" stroke="grey" fill="grey"/>
   </g>
   <g id="cell10">
  <circle cx="96.0711" cy="644.069" r="9.30826" stroke-width="0.5" stroke="black" fill="grey"/>
  <circle cx="96.0711" cy="644.069" r="5.65742" stroke-width="0.5" stroke="grey" fill="grey"/>
   </g>
   <g id="cell11">
  <circle cx="373.491" cy="799.985" r="8.41271" stroke-width="0.5" stroke="black" fill="grey"/>
  <circle cx="373.491" cy="799.985" r="5.05167" stroke-width="0.5" stroke="grey" fill="grey"/>
   </g>
   <g id="cell12">
  <circle cx="781.21" cy="100.558" r="9.12489" stroke-width="0.5" stroke="black" fill="grey"/>
  <circle cx="781.21" cy="100.558" r="5.54282" stroke-width="0.5" stroke="grey" fill="grey"/>
   </g>
   <g id="cell13">
  <circle cx="852.897" cy="966.553" r="8.41271" stroke-width="0.5" stroke="black" fill="grey"/>
  <circle cx="852.897" cy="966.553" r="5.05167" stroke-width="0.5" stroke="grey" fill="grey"/>
   </g>
   <g id="cell14">
  <circle cx="798.274" cy="816.567" r="8.41271" stroke-width="0.5" stroke="black" fill="grey"/>
  <circle cx="798.274" cy="816.567" r="5.05167" stroke-width="0.5" stroke="grey" fill="grey"/>
   </g>
   <g id="cell15">
  <circle cx="528.188" cy="790.16" r="8.41271" stroke-width="0.5" stroke="black" fill="grey"/>
  <circle cx="528.188" cy="790.16" r="5.05167" stroke-width="0.5" stroke="grey" fill="grey"/>
   </g>
   <g id="cell16">
  <circle cx="127.312" cy="702.748" r="9.41008" stroke-width="0.5" stroke="black" fill="grey"/>
  <circle cx="127.312" cy="702.748" r="5.71981" stroke-width="0.5" stroke="grey" fill="grey"/>
   </g>
   <g id="cell17">
  <circle cx="573.125" cy="153.165" r="8.41271" stroke-width="0.5" stroke="black" fill="grey"/>
  <circle cx="573.125" cy="153.165" r="5.05167" stroke-width="0.5" stroke="grey" fill="grey"/>
   </g>
   <g id="cell18">
  <circle cx="928.193" cy="757.622" r="8.41271" stroke-width="0.5" stroke="black" fill="grey"/>
  <circle cx="928.193" cy="757.622" r="5.05167" stroke-width="0.5" stroke="grey" fill="grey"/>
   </g>
   <g id="cell19">
  <circle cx="127.886" cy="420.154" r="9.00806" stroke-width="0.5" stroke="black" fill="grey"/>
  <circle cx="127.886" cy="420.154" r="5.46807" stroke-width="0.5" stroke="grey" fill="grey"/>
   </g>
   <g id="cell20">
  <circle cx="259.922" cy="185.295" r="9.62199" stroke-width="0.5" stroke="black" fill="grey"/>
  <circle cx="259.922" cy="185.295" r="5.8471" stroke-width="0.5" stroke="grey" fill="grey"/>
   </g>
   <g id="cell21">
  <circle cx="742.662" cy="451.681" r="8.41271" stroke-width="0.5" stroke="black" fill="grey"/>
  <circle cx="742.662" cy="451.681" r="5.05167" stroke-width="0.5" stroke="grey" fill="grey"/>
   </g>
   <g id="cell22">
  <circle cx="567.01" cy="149.701" r="9.53557" stroke-width="0.5" stroke="black" fill="grey"/>
  <circle cx="567.01" cy="149.701" r="5.79561" stroke-width="0.5" stroke="grey" fill="grey"/>
   </g>
   <g id="cell23">
  <circle cx="329.098" cy="610.919" r="9.53557" stroke-width="0.5" stroke="black" fill="grey"/>
  <circle cx="329.098" cy="610.919" r="5.79561" stroke-width="0.5" stroke="grey" fill="grey"/>
   </g>
   <g id="cell24">
  <circle cx="603.559" cy="212.124" r="8.41271" stroke-width="0.5" stroke="black" fill="grey"/>
  <circle cx="603.559" cy="212.124" r="5.05167" stroke-width="0.5" stroke="grey" fill="grey"/>
   </g>
   <g id="cell25">
  <circle cx="400.947" cy="926.687" r="8.41271" stroke-width="0.5" stroke="black" fill="grey"/>
  <circle cx="400.947" cy="926.687" r="5.05167" stroke-width="0.5" stroke="grey" fill="grey"/>
   </g>
   <g id="cell26">
  <circle cx="683.445" cy="439.768" r="3.2888" stroke-width="0.5" stroke="black" fill="grey"/>
  <circle cx="683.445" cy="439.768" r="2.72992" stroke-width="0.5" stroke="black" fill="black"/>
   </g>
   <g id="cell27">
  <circle cx="613.201" cy="437.111" r="2.47369" stroke-width="0.5" stroke="black" fill="grey"/>
  <circle cx="613.201" cy="437.111" r="2.20257" stroke-width="0.5" stroke="black" fill="black"/>
   </g>
   <g id="cell28">
  <circle cx="693.632" cy="102.329" r="7.00193" stroke-width="0.5" stroke="black" fill="grey"/>
  <circle cx="693.632" cy="102.329" r="4.27611" stroke-width="0.5" stroke="black" fill="black"/>
   </g>
   <g id="cell29">
  <circle cx="983.247" cy="684.317" r="8.54454" stroke-width="0.5" stroke="black" fill="grey"/>
  <circle cx="983.247" cy="684.317" r="5.14947" stroke-width="0.5" stroke="grey" fill="grey"/>
   </g>
   <g id="cell30">
  <circle cx="669.897" cy="167.238" r="2.38423" stroke-width="0.5" stroke="black" fill="grey"/>
  <circle cx="669.897" cy="167.238" r="2.15073" stroke-width="0.5" stroke="black" fill="black"/>
   </g>
   <g id="cell31">
  <circle cx="389.656" cy="120.593" r="8.41271" stroke-width="0.5" stroke="black" fill="grey"/>
  <circle cx="389.656" cy="120.593" r="5.05167" stroke-width="0.5" stroke="grey" fill="grey"/>
   </g>
   <g id="cell32">
  <circle cx="281.99" cy="593.873" r="9.64936" stroke-width="0.5" stroke="black" fill="grey"/>
  <circle cx="281.99" cy="593.873" r="5.86329" stroke-width="0.5" stroke="black" fill="black"/>
   </g>
   <g id="cell33">
  <circle cx="332.031" cy="566.757" r="8.9283" stroke-width="0.5" stroke="black" fill="grey"/>
  <circle cx="332.031" cy="566.757" r="5.4161" stroke-width="0.5" stroke="grey" fill="grey"/>
   </g>
   <g id="cell34">
  <circle cx="428.311" cy="634.322" r="8.41271" stroke-width="0.5" stroke="black" fill="grey"/>
  <circle cx="428.311" cy="634.322" r="5.05167" stroke-width="0.5" stroke="grey" fill="grey"/>
   </g>
   <g id="cell35">
  <circle cx="986.483" cy="125.236" r="9.70201" stroke-width="0.5" stroke="black" fill="grey"/>
  <circle cx="986.483" cy="125.236" r="5.89426" stroke-width="0.5" stroke="grey" fill="grey"/>
   </g>
   <g id="cell36">
  <circle cx="205.343" cy="639.795" r="8.84788" stroke-width="0.5" stroke="black" fill="grey"/>
  <circle cx="205.343" cy="639.795" r="5.36278" stroke-width="0.5" stroke="grey" fill="grey"/>
   </g>
   <g id="cell37">
  <circle cx="983.334" cy="652.744" r="9.41008" stroke-width="0.5" stroke="black" fill="grey"/>
  <circle cx="983.334" cy="652.744" r="5.71981" stroke-width="0.5" stroke="grey" fill="grey"/>
   </g>
   <g id="cell38">
  <circle cx="258.583" cy="398.856" r="8.41271" stroke-width="0.5" stroke="black" fill="grey"/>
  <circle cx="258.583" cy="398.856" r="5.05167" stroke-width="0.5" stroke="grey" fill="grey"/>
   </g>
   <g id="cell39">
  <circle cx="487.088" cy="241.479" r="3.73197" stroke-width="0.5" stroke="black" fill="grey"/>
  <circle cx="487.088" cy="241.479" r="2.80538" stroke-width="0.5" stroke="black" fill="black"/>
   </g>
   <g id="cell40">
  <circle cx="149.812" cy="345.291" r="8.41271" stroke-width="0.5" stroke="black" fill="red"/>
  <circle cx="149.812" cy="345.291" r="5.05167" stroke-width="0.5" stroke="red" fill="red"/>
   </g>
   <g id="cell41">
  <circle cx="695.826" cy="633.262" r="9.7273" stroke-width="0.5" stroke="black" fill="red"/>
  <circle cx="695.826" cy="633.262" r="5.90906" stroke-width="0.5" stroke="red" fill="red"/>
   </g>
   <g id="cell42">
  <circle cx="137.959" cy="770.175" r="8.41271" stroke-width="0.5" stroke="black" fill="red"/>
  <circle cx="137.959" cy="770.175" r="5.05167" stroke-width="0.5" stroke="red" fill="red"/>
   </g>
   <g id="cell43">
  <circle cx="948.773" cy="356.532" r="8.41271" stroke-width="0.5" stroke="black" fill="red"/>
  <circle cx="948.773" cy="356.532" r="5.05167" stroke-width="0.5" stroke="red" fill="red"/>
   </g>
   <g id="cell44">
  <circle cx="813.619" cy="41.517" r="9.23685" stroke-width="0.5" stroke="black" fill="red"/>
  <circle cx="813.619" cy="41.517" r="5.61315" stroke-width="0.5" stroke="red" fill="red"/>
   </g>
   <g id="cell45">
  <circle cx="601.934" cy="838.81" r="9.16281" stroke-width="0.5" stroke="black" fill="red"/>
  <circle cx="601.934" cy="838.81" r="5.56677" stroke-width="0.5" stroke="red" fill="red"/>
   </g>
   <g id="cell46">
  <circle cx="69.9814" cy="964.001" r="8.41271" stroke-width="0.5" stroke="black" fill="red"/>
  <circle cx="69.9814" cy="964.001" r="5.05167" stroke-width="0.5" stroke="red" fill="red"/>
   </g>
   <g id="cell47">
  <circle cx="870.899" cy="467.773" r="8.84788" stroke-width="0.5" stroke="black" fill="red"/>
  <circle cx="870.899" cy="467.773" r="5.36278" stroke-width="0.5" stroke="red" fill="red"/>
   </g>
   <g id="cell48">
  <circle cx="990.051" cy="44.887" r="8.88811" stroke-width="0.5" stroke="black" fill="red"/>
  <circle cx="990.051" cy="44.887" r="5.38958" stroke-width="0.5" stroke="red" fill="red"/>
   </g>
   <g id="cell49">
  <circle cx="451.484" cy="732.795" r="8.41271" stroke-width="0.5" stroke="black" fill="red"/>
  <circle cx="451.484" cy="732.795" r="5.05167" stroke-width="0.5" stroke="red" fill="red"/>
   </g>
   <g id="cell50">
  <circle cx="45.0804" cy="434.166" r="8.41271" stroke-width="0.5" stroke="black" fill="red"/>
  <circle cx="45.0804" cy="434.166" r="5.05167" stroke-width="0.5" stroke="red" fill="red"/>
   </g>
   <g id="cell51">
  <circle cx="971.089" cy="112.503" r="6.44044" stroke-width="0.5" stroke="black" fill="red"/>
  <circle cx="971.089" cy="112.503" r="3.99684" stroke-width="0.5" stroke="black" fill="black"/>
   </g>
   <g id="cell52">
  <circle cx="323.221" cy="487.189" r="8.41271" stroke-width="0.5" stroke="black" fill="red"/>
  <circle cx="323.221" cy="487.189" r="5.05167" stroke-width="0.5" stroke="red" fill="red"/>
   </g>
   <g id="cell53">
  <circle cx="691.861" cy="310.652" r="8.41271" stroke-width="0.5" stroke="black" fill="red"/>
  <circle cx="691.861" cy="310.652" r="5.05167" stroke-width="0.5" stroke="red" fill="red"/>
   </g>
   <g id="cell54">
  <circle cx="419.301" cy="937.803" r="8.7678" stroke-width="0.5" stroke="black" fill="red"/>
  <circle cx="419.301" cy="937.803" r="5.30857" stroke-width="0.5" stroke="red" fill="red"/>
   </g>
   <g id="cell55">
  <circle cx="195.733" cy="704.631" r="8.41271" stroke-width="0.5" stroke="black" fill="red"/>
  <circle cx="195.733" cy="704.631" r="5.05167" stroke-width="0.5" stroke="red" fill="red"/>
   </g>
   <g id="cell56">
  <circle cx="553.734" cy="866.28" r="8.41271" stroke-width="0.5" stroke="black" fill="red"/>
  <circle cx="553.734" cy="866.28" r="5.05167" stroke-width="0.5" stroke="red" fill="red"/>
   </g>
   <g id="cell57">
  <circle cx="531.6" cy="526.21" r="9.04745" stroke-width="0.5" stroke="black" fill="red"/>
  <circle cx="531.6" cy="526.21" r="5.49345" stroke-width="0.5" stroke="red" fill="red"/>
   </g>
   <g id="cell58">
  <circle cx="82.8712" cy="910.104" r="9.53557" stroke-width="0.5" stroke="black" fill="red"/>
  <circle cx="82.8712" cy="910.104" r="5.79561" stroke-width="0.5" stroke="red" fill="red"/>
   </g>
   <g id="cell59">
  <circle cx="95.4969" cy="934.94" r="8.41271" stroke-width="0.5" stroke="black" fill="red"/>
  <circle cx="95.4969" cy="934.94" r="5.05167" stroke-width="0.5" stroke="red" fill="red"/>
   </g>
   <g id="cell60">
  <circle cx="324.485" cy="14.4785" r="9.04745" stroke-width="0.5" stroke="black" fill="red"/>
  <circle cx="324.485" cy="14.4785" r="5.49345" stroke-width="0.5" stroke="red" fill="red"/>
   </g>
   <g id="cell61">
  <circle cx="851.221" cy="138.553" r="9.16281" stroke-width="0.5" stroke="black" fill="red"/>
  <circle cx="851.221" cy="138.553" r="5.56677" stroke-width="0.5" stroke="red" fill="red"/>
   </g>
   <g id="cell62">
  <circle cx="714.757" cy="843.65" r="8.41271" stroke-width="0.5" stroke="black" fill="red"/>
  <circle cx="714.757" cy="843.65" r="5.05167" stroke-width="0.5" stroke="red" fill="red"/>
   </g>
   <g id="cell63">
  <circle cx="275.86" cy="171.546" r="9.08642" stroke-width="0.5" stroke="black" fill="red"/>
  <circle cx="275.86" cy="171.546" r="5.51837" stroke-width="0.5" stroke="red" fill="red"/>
   </g>
   <g id="cell64">
  <circle cx="587.34" cy="562.672" r="9.4743" stroke-width="0.5" stroke="black" fill="red"/>
  <circle cx="587.34" cy="562.672" r="5.75875" stroke-width="0.5" stroke="red" fill="red"/>
   </g>
   <g id="cell65">
  <circle cx="174.359" cy="831.218" r="8.41271" stroke-width="0.5" stroke="black" fill="red"/>
  <circle cx="174.359" cy="831.218" r="5.05167" stroke-width="0.5" stroke="red" fill="red"/>
   </g>
   <g id="cell66">
  <circle cx="25.1026" cy="106.431" r="8.41271" stroke-width="0.5" stroke="black" fill="red"/>
  <circle cx="25.1026" cy="106.431" r="5.05167" stroke-width="0.5" stroke="red" fill="red"/>
   </g>
   <g id="cell67">
  <circle cx="583.836" cy="279.91" r="9.44256" stroke-width="0.5" stroke="black" fill="red"/>
  <circle cx="583.836" cy="279.91" r="5.73955" stroke-width="0.5" stroke="red" fill="red"/>
   </g>
   <g id="cell68">
  <circle cx="737.045" cy="291.029" r="9.08642" stroke-width="0.5" stroke="black" fill="red"/>
  <circle cx="737.045" cy="291.029" r="5.51837" stroke-width="0.5" stroke="red" fill="red"/>
   </g>
   <g id="cell69">
  <circle cx="437.181" cy="213.942" r="8.41271" stroke-width="0.5" stroke="black" fill="red"/>
  <circle cx="437.181" cy="213.942" r="5.05167" stroke-width="0.5" stroke="red" fill="red"/>
   </g>
   <g id="cell70">
  <circle cx="588.549" cy="409.67" r="9.08642" stroke-width="0.5" stroke="black" fill="red"/>
  <circle cx="588.549" cy="409.67" r="5.51837" stroke-width="0.5" stroke="red" fill="red"/>
   </g>
   <g id="cell71">
  <circle cx="921.156" cy="589.746" r="8.41271" stroke-width="0.5" stroke="black" fill="red"/>
  <circle cx="921.156" cy="589.746" r="5.05167" stroke-width="0.5" stroke="red" fill="red"/>
   </g>
   <g id="cell72">
  <circle cx="234.064" cy="886.967" r="8.41271" stroke-width="0.5" stroke="black" fill="red"/>
  <circle cx="234.064" cy="886.967" r="5.05167" stroke-width="0.5" stroke="red" fill="red"/>
   </g>
   <g id="cell73">
  <circle cx="658.184" cy="455.356" r="8.41271" stroke-width="0.5" stroke="black" fill="red"/>
  <circle cx="658.184" cy="455.356" r="5.05167" stroke-width="0.5" stroke="red" fill="red"/>
   </g>
   <g id="cell74">
  <circle cx="860.241" cy="990.153" r="8.41271" stroke-width="0.5" stroke="black" fill="red"/>
  <circle cx="860.241" cy="990.153" r="5.05167" stroke-width="0.5" stroke="red" fill="red"/>
   </g>
   <g id="cell75">
  <circle cx="107.162" cy="304.609" r="8.41271" stroke-width="0.5" stroke="black" fill="red"/>
  <circle cx="107.162" cy="304.609" r="5.05167" stroke-width="0.5" stroke="red" fill="red"/>
   </g>
   <g id="cell76">
  <circle cx="811.693" cy="410.168" r="8.41271" stroke-width="0.5" stroke="black" fill="red"/>
  <circle cx="811.693" cy="410.168" r="5.05167" stroke-width="0.5" stroke="red" fill="red"/>
   </g>
   <g id="cell77">
  <circle cx="689.744" cy="887.782" r="9.44256" stroke-width="0.5" stroke="black" fill="red"/>
  <circle cx="689.744" cy="887.782" r="5.73955" stroke-width="0.5" stroke="red" fill="red"/>
   </g>
   <g id="cell78">
  <circle cx="578.187" cy="307.684" r="9.08642" stroke-width="0.5" stroke="black" fill="red"/>
  <circle cx="578.187" cy="307.684" r="5.51837" stroke-width="0.5" stroke="red" fill="red"/>
   </g>
   <g id="cell79">
  <circle cx="955.444" cy="713.232" r="8.65127" stroke-width="0.5" stroke="black" fill="red"/>
  <circle cx="955.444" cy="713.232" r="5.2272" stroke-width="0.5" stroke="red" fill="red"/>
   </g>
   <g id="cell80">
  <circle cx="736.064" cy="680.907" r="9.53557" stroke-width="0.5" stroke="black" fill="yellow"/>
  <circle cx="736.064" cy="680.907" r="5.79561" stroke-width="0.5" stroke="yellow" fill="yellow"/>
   </g>
   <g id="cell81">
  <circle cx="555.51" cy="948.513" r="9.67603" stroke-width="0.5" stroke="black" fill="yellow"/>
  <circle cx="555.51" cy="948.513" r="5.87901" stroke-width="0.5" stroke="yellow" fill="yellow"/>
   </g>
   <g id="cell82">
  <circle cx="644.124" cy="392.538" r="9.70201" stroke-width="0.5" stroke="black" fill="yellow"/>
  <circle cx="644.124" cy="392.538" r="5.89426" stroke-width="0.5" stroke="yellow" fill="yellow"/>
   </g>
   <g id="cell83">
  <circle cx="607.096" cy="615.095" r="8.9283" stroke-width="0.5" stroke="black" fill="yellow"/>
  <circle cx="607.096" cy="615.095" r="5.4161" stroke-width="0.5" stroke="yellow" fill="yellow"/>
   </g>
   <g id="cell84">
  <circle cx="13.96" cy="464.377" r="9.59391" stroke-width="0.5" stroke="black" fill="yellow"/>
  <circle cx="13.96" cy="464.377" r="5.83043" stroke-width="0.5" stroke="yellow" fill="yellow"/>
   </g>
   <g id="cell85">
  <circle cx="716.055" cy="678.037" r="9.41008" stroke-width="0.5" stroke="black" fill="yellow"/>
  <circle cx="716.055" cy="678.037" r="5.71981" stroke-width="0.5" stroke="yellow" fill="yellow"/>
   </g>
   <g id="cell86">
  <circle cx="290.294" cy="407.516" r="9.23685" stroke-width="0.5" stroke="black" fill="yellow"/>
  <circle cx="290.294" cy="407.516" r="5.61315" stroke-width="0.5" stroke="yellow" fill="yellow"/>
   </g>
   <g id="cell87">
  <circle cx="740.051" cy="416.762" r="9.59391" stroke-width="0.5" stroke="black" fill="yellow"/>
  <circle cx="740.051" cy="416.762" r="5.83043" stroke-width="0.5" stroke="yellow" fill="yellow"/>
   </g>
   <g id="cell88">
  <circle cx="134.941" cy="100.855" r="8.41271" stroke-width="0.5" stroke="black" fill="yellow"/>
  <circle cx="134.941" cy="100.855" r="5.05167" stroke-width="0.5" stroke="yellow" fill="yellow"/>
   </g>
   <g id="cell89">
  <circle cx="74.6074" cy="564.466" r="8.41271" stroke-width="0.5" stroke="black" fill="yellow"/>
  <circle cx="74.6074" cy="564.466" r="5.05167" stroke-width="0.5" stroke="yellow" fill="yellow"/>
   </g>
   <g id="cell90">
  <circle cx="571.243" cy="560.217" r="9.34292" stroke-width="0.5" stroke="black" fill="yellow"/>
  <circle cx="571.243" cy="560.217" r="5.67875" stroke-width="0.5" stroke="yellow" fill="yellow"/>
   </g>
   <g id="cell91">
  <circle cx="39.8874" cy="672.843" r="8.48289" stroke-width="0.5" stroke="black" fill="yellow"/>
  <circle cx="39.8874" cy="672.843" r="5.10317" stroke-width="0.5" stroke="yellow" fill="yellow"/>
   </g>
   <g id="cell92">
  <circle cx="632.945" cy="288.095" r="9.30826" stroke-width="0.5" stroke="black" fill="yellow"/>
  <circle cx="632.945" cy="288.095" r="5.65742" stroke-width="0.5" stroke="yellow" fill="yellow"/>
   </g>
   <g id="cell93">
  <circle cx="192.974" cy="900.12" r="8.41271" stroke-width="0.5" stroke="black" fill="yellow"/>
  <circle cx="192.974" cy="900.12" r="5.05167" stroke-width="0.5" stroke="yellow" fill="yellow"/>
   </g>
   <g id="cell94">
  <circle cx="361.546" cy="90.8564" r="8.41271" stroke-width="0.5" stroke="black" fill="yellow"/>
  <circle cx="361.546" cy="90.8564" r="5.05167" stroke-width="0.5" stroke="yellow" fill="yellow"/>
   </g>
   <g id="cell95">
  <circle cx="975.866" cy="885.546" r="8.41271" stroke-width="0.5" stroke="black" fill="yellow"/>
  <circle cx="975.866" cy="885.546" r="5.05167" stroke-width="0.5" stroke="yellow" fill="yellow"/>
   </g>
   <g id="cell96">
  <circle cx="811.72" cy="535.512" r="8.41271" stroke-width="0.5" stroke="black" fill="yellow"/>
  <circle cx="811.72" cy="535.512" r="5.05167" stroke-width="0.5" stroke="yellow" fill="yellow"/>
   </g>
   <g id="cell97">
  <circle cx="460.086" cy="135.789" r="8.41271" stroke-width="0.5" stroke="black" fill="yellow"/>
  <circle cx="460.086" cy="135.789" r="5.05167" stroke-width="0.5" stroke="yellow" fill="yellow"/>
   </g>
   <g id="cell98">
  <circle cx="917.727" cy="350.984" r="9.08642" stroke-width="0.5" stroke="black" fill="yellow"/>
  <circle cx="917.727" cy="350.984" r="5.51837" stroke-width="0.5" stroke="yellow" fill="yellow"/>
   </g>
   <g id="cell99">
  <circle cx="456.312" cy="964.446" r="8.41271" stroke-width="0.5" stroke="black" fill="yellow"/>
  <circle cx="456.312" cy="964.446" r="5.05167" stroke-width="0.5" stroke="yellow" fill="yellow"/>
   </g>
   <g id="cell100">
  <circle cx="168.416" cy="908.994" r="8.41271" stroke-width="0.5" stroke="black" fill="yellow"/>
  <circle cx="168.416" cy="908.994" r="5.05167" stroke-width="0.5" stroke="yellow" fill="yellow"/>
   </g>
   <g id="cell101">
  <circle cx="43.3289" cy="179.855" r="9.70201" stroke-width="0.5" stroke="black" fill="yellow"/>
  <circle cx="43.3289" cy="179.855" r="5.89426" stroke-width="0.5" stroke="yellow" fill="yellow"/>
   </g>
   <g id="cell102">
  <circle cx="598.151" cy="144.03" r="8.41271" stroke-width="0.5" stroke="black" fill="yellow"/>
  <circle cx="598.151" cy="144.03" r="5.05167" stroke-width="0.5" stroke="yellow" fill="yellow"/>
   </g>
   <g id="cell103">
  <circle cx="802.708" cy="851.783" r="8.41271" stroke-width="0.5" stroke="black" fill="yellow"/>
  <circle cx="802.708" cy="851.783" r="5.05167" stroke-width="0.5" stroke="yellow" fill="yellow"/>
   </g>
   <g id="cell104">
  <circle cx="794.308" cy="437.567" r="8.41271" stroke-width="0.5" stroke="black" fill="yellow"/>
  <circle cx="794.308" cy="437.567" r="5.05167" stroke-width="0.5" stroke="yellow" fill="yellow"/>
   </g>
   <g id="cell105">
  <circle cx="126.782" cy="414.699" r="9.12489" stroke-width="0.5" stroke="black" fill="yellow"/>
  <circle cx="126.782" cy="414.699" r="5.54282" stroke-width="0.5" stroke="yellow" fill="yellow"/>
   </g>
   <g id="cell106">
  <circle cx="59.4372" cy="980.569" r="8.41271" stroke-width="0.5" stroke="black" fill="yellow"/>
  <circle cx="59.4372" cy="980.569" r="5.05167" stroke-width="0.5" stroke="yellow" fill="yellow"/>
   </g>
   <g id="cell107">
  <circle cx="353.161" cy="434.177" r="8.41271" stroke-width="0.5" stroke="black" fill="yellow"/>
  <circle cx="353.161" cy="434.177" r="5.05167" stroke-width="0.5" stroke="yellow" fill="yellow"/>
   </g>
   <g id="cell108">
  <circle cx="722.492" cy="45.4291" r="8.9283" stroke-width="0.5" stroke="black" fill="yellow"/>
  <circle cx="722.492" cy="45.4291" r="5.4161" stroke-width="0.5" stroke="yellow" fill="yellow"/>
   </g>
   <g id="cell109">
  <circle cx="375.794" cy="975.292" r="8.41271" stroke-width="0.5" stroke="black" fill="yellow"/>
  <circle cx="375.794" cy="975.292" r="5.05167" stroke-width="0.5" stroke="yellow" fill="yellow"/>
   </g>
   <g id="cell110">
  <circle cx="866.868" cy="243.096" r="9.41008" stroke-width="0.5" stroke="black" fill="yellow"/>
  <circle cx="866.868" cy="243.096" r="5.71981" stroke-width="0.5" stroke="yellow" fill="yellow"/>
   </g>
   <g id="cell111">
  <circle cx="770.115" cy="375.461" r="8.41271" stroke-width="0.5" stroke="black" fill="yellow"/>
  <circle cx="770.115" cy="375.461" r="5.05167" stroke-width="0.5" stroke="yellow" fill="yellow"/>
   </g>
   <g id="cell112">
  <circle cx="702.596" cy="743.886" r="8.41271" stroke-width="0.5" stroke="black" fill="yellow"/>
  <circle cx="702.596" cy="743.886" r="5.05167" stroke-width="0.5" stroke="yellow" fill="yellow"/>
   </g>
   <g id="cell113">
  <circle cx="337.942" cy="548.173" r="8.41271" stroke-width="0.5" stroke="black" fill="yellow"/>
  <circle cx="337.942" cy="548.173" r="5.05167" stroke-width="0.5" stroke="yellow" fill="yellow"/>
   </g>
   <g id="cell114">
  <circle cx="78.2097" cy="364.614" r="8.45606" stroke-width="0.5" stroke="black" fill="yellow"/>
  <circle cx="78.2097" cy="364.614" r="5.08296" stroke-width="0.5" stroke="yellow" fill="yellow"/>
   </g>
   <g id="cell115">
  <circle cx="169.478" cy="58.3638" r="8.41271" stroke-width="0.5" stroke="black" fill="yellow"/>
  <circle cx="169.478" cy="58.3638" r="5.05167" stroke-width="0.5" stroke="yellow" fill="yellow"/>
   </g>
   <g id="cell116">
  <circle cx="807.727" cy="448.434" r="8.41271" stroke-width="0.5" stroke="black" fill="yellow"/>
  <circle cx="807.727" cy="448.434" r="5.05167" stroke-width="0.5" stroke="yellow" fill="yellow"/>
   </g>
   <g id="cell117">
  <circle cx="855.092" cy="369.889" r="6.8293" stroke-width="0.5" stroke="black" fill="yellow"/>
  <circle cx="855.092" cy="369.889" r="4.37813" stroke-width="0.5" stroke="black" fill="black"/>
   </g>
   <g id="cell118">
  <circle cx="940.502" cy="603.251" r="8.51252" stroke-width="0.5" stroke="black" fill="yellow"/>
  <circle cx="940.502" cy="603.251" r="5.12552" stroke-width="0.5" stroke="yellow" fill="yellow"/>
   </g>
   <g id="cell119">
  <circle cx="616.966" cy="53.7237" r="8.41271" stroke-width="0.5" stroke="black" fill="yellow"/>
  <circle cx="616.966" cy="53.7237" r="5.05167" stroke-width="0.5" stroke="yellow" fill="yellow"/>
   </g>
  </g>
 </g>
  <rect x="775" y="1035" width="200" height="10" stroke-width="2" stroke="rgb(255,255,255)" fill="rgb(0,0,0)"/>
  <text x="781.25" y="1028.75"
   font-family="Arial" font-size="25" fill="black" >
   200 &#956;m
  </text>
  <text x="25" y="1045"
   font-family="Arial" font-size="18.75" fill="black" >
   0 days, 0 hours, 0 minutes, and 7.1825 seconds
  </text>
  <rect x="0" y="70" width="1000" height="1000" stroke-width="2" stroke="rgb(0,0,0)" fill="none"/>
</svg>
