<?xml version="1.0" encoding="UTF-8" standalone="no"?>
<!-- Created with PhysiCell (http://PhysiCell.MathCancer.org/) -->
<svg 
 xmlns:dc="http://purl.org/dc/elements/1.1/" 
 xmlns:cc="http://creativecommons.org/ns#" 
 xmlns:rdf="http://www.w3.org/1999/02/22-rdf-syntax-ns#" 
 xmlns:svg="http://www.w3.org/2000/svg" 
 xmlns="http://www.w3.org/2000/svg" 
 version="1.1" 
 width="1000" 
 height="1070" 
 id="svg2">
  <rect x="0" y="0" width="1000" height="1070" stroke-width="2" stroke="white" fill="white"/>
  <text x="12.5" y="30"
   font-family="Arial" font-size="25" fill="black" >
   Current time: 0 days, 18 hours, and 0.00 minutes, z = 0.00 &#956;m
  </text>
  <text x="12.5" y="57.5"
   font-family="Arial" font-size="23.75" fill="black" >
   130 agents
  </text>
 <g id="tissue" 
    transform="translate(0,1070) scale(1,-1)">
  <g id="ECM">
  </g>
  <g id="cells">
   <g id="cell0">
  <circle cx="500.248" cy="638.637" r="9.03571" stroke-width="0.5" stroke="black" fill="grey"/>
  <circle cx="500.248" cy="638.637" r="5.48937" stroke-width="0.5" stroke="grey" fill="grey"/>
   </g>
   <g id="cell118">
  <circle cx="869.786" cy="614.384" r="8.39618" stroke-width="0.5" stroke="black" fill="yellow"/>
  <circle cx="869.786" cy="614.384" r="5.04616" stroke-width="0.5" stroke="yellow" fill="yellow"/>
   </g>
   <g id="cell100">
  <circle cx="135.117" cy="822.91" r="8.91278" stroke-width="0.5" stroke="black" fill="yellow"/>
  <circle cx="135.117" cy="822.91" r="5.4106" stroke-width="0.5" stroke="yellow" fill="yellow"/>
   </g>
   <g id="cell3">
  <circle cx="625.22" cy="586.422" r="8.59848" stroke-width="0.5" stroke="black" fill="grey"/>
  <circle cx="625.22" cy="586.422" r="5.19522" stroke-width="0.5" stroke="grey" fill="grey"/>
   </g>
   <g id="cell103">
  <circle cx="833.178" cy="847.349" r="9.7992" stroke-width="0.5" stroke="black" fill="yellow"/>
  <circle cx="833.178" cy="847.349" r="5.95086" stroke-width="0.5" stroke="yellow" fill="yellow"/>
   </g>
   <g id="cell135">
  <circle cx="162.252" cy="818.297" r="8.39523" stroke-width="0.5" stroke="black" fill="yellow"/>
  <circle cx="162.252" cy="818.297" r="5.04581" stroke-width="0.5" stroke="yellow" fill="yellow"/>
   </g>
   <g id="cell6">
  <circle cx="385.987" cy="484.758" r="2.35426" stroke-width="0.5" stroke="black" fill="grey"/>
  <circle cx="385.987" cy="484.758" r="2.26274" stroke-width="0.5" stroke="black" fill="black"/>
   </g>
   <g id="cell7">
  <circle cx="884.52" cy="521.713" r="8.38608" stroke-width="0.5" stroke="black" fill="grey"/>
  <circle cx="884.52" cy="521.713" r="5.04229" stroke-width="0.5" stroke="grey" fill="grey"/>
   </g>
   <g id="cell8">
  <circle cx="587.455" cy="419.288" r="3.82187" stroke-width="0.5" stroke="black" fill="grey"/>
  <circle cx="587.455" cy="419.288" r="3.12492" stroke-width="0.5" stroke="black" fill="black"/>
   </g>
   <g id="cell112">
  <circle cx="768.913" cy="759.303" r="8.39422" stroke-width="0.5" stroke="black" fill="yellow"/>
  <circle cx="768.913" cy="759.303" r="5.04543" stroke-width="0.5" stroke="yellow" fill="yellow"/>
   </g>
   <g id="cell10">
  <circle cx="134.269" cy="642.6" r="1.96334" stroke-width="0.5" stroke="black" fill="grey"/>
  <circle cx="134.269" cy="642.6" r="1.93128" stroke-width="0.5" stroke="black" fill="black"/>
   </g>
   <g id="cell11">
  <circle cx="330.059" cy="826.206" r="2.40262" stroke-width="0.5" stroke="black" fill="grey"/>
  <circle cx="330.059" cy="826.206" r="2.29777" stroke-width="0.5" stroke="black" fill="black"/>
   </g>
   <g id="cell104">
  <circle cx="767.642" cy="375.46" r="8.63768" stroke-width="0.5" stroke="black" fill="yellow"/>
  <circle cx="767.642" cy="375.46" r="5.2226" stroke-width="0.5" stroke="yellow" fill="yellow"/>
   </g>
   <g id="cell102">
  <circle cx="622.348" cy="154.23" r="10.5523" stroke-width="0.5" stroke="black" fill="yellow"/>
  <circle cx="622.348" cy="154.23" r="6.34745" stroke-width="0.5" stroke="yellow" fill="yellow"/>
   </g>
   <g id="cell98">
  <circle cx="912.883" cy="369.412" r="10.4984" stroke-width="0.5" stroke="black" fill="yellow"/>
  <circle cx="912.883" cy="369.412" r="6.32406" stroke-width="0.5" stroke="yellow" fill="yellow"/>
   </g>
   <g id="cell97">
  <circle cx="422.79" cy="115.32" r="10.4531" stroke-width="0.5" stroke="black" fill="yellow"/>
  <circle cx="422.79" cy="115.32" r="6.30312" stroke-width="0.5" stroke="yellow" fill="yellow"/>
   </g>
   <g id="cell16">
  <circle cx="145.974" cy="739.425" r="8.39021" stroke-width="0.5" stroke="black" fill="grey"/>
  <circle cx="145.974" cy="739.425" r="5.0439" stroke-width="0.5" stroke="grey" fill="grey"/>
   </g>
   <g id="cell116">
  <circle cx="820.604" cy="444.473" r="10.4156" stroke-width="0.5" stroke="black" fill="yellow"/>
  <circle cx="820.604" cy="444.473" r="6.2851" stroke-width="0.5" stroke="yellow" fill="yellow"/>
   </g>
   <g id="cell18">
  <circle cx="959.432" cy="705.774" r="1.84796" stroke-width="0.5" stroke="black" fill="grey"/>
  <circle cx="959.432" cy="705.774" r="1.82225" stroke-width="0.5" stroke="black" fill="black"/>
   </g>
   <g id="cell101">
  <circle cx="105.114" cy="135.036" r="10.1506" stroke-width="0.5" stroke="black" fill="yellow"/>
  <circle cx="105.114" cy="135.036" r="6.14798" stroke-width="0.5" stroke="yellow" fill="yellow"/>
   </g>
   <g id="cell20">
  <circle cx="235.256" cy="172.059" r="2.17129" stroke-width="0.5" stroke="black" fill="grey"/>
  <circle cx="235.256" cy="172.059" r="2.11125" stroke-width="0.5" stroke="black" fill="black"/>
   </g>
   <g id="cell99">
  <circle cx="518.165" cy="985.994" r="10.5166" stroke-width="0.5" stroke="black" fill="yellow"/>
  <circle cx="518.165" cy="985.994" r="6.33218" stroke-width="0.5" stroke="yellow" fill="yellow"/>
   </g>
   <g id="cell115">
  <circle cx="196.578" cy="19.0821" r="8.38957" stroke-width="0.5" stroke="black" fill="yellow"/>
  <circle cx="196.578" cy="19.0821" r="5.04365" stroke-width="0.5" stroke="yellow" fill="yellow"/>
   </g>
   <g id="cell108">
  <circle cx="708.096" cy="37.302" r="2.99825" stroke-width="0.5" stroke="black" fill="yellow"/>
  <circle cx="708.096" cy="37.302" r="2.70602" stroke-width="0.5" stroke="black" fill="black"/>
   </g>
   <g id="cell153">
  <circle cx="180.092" cy="404.926" r="8.38753" stroke-width="0.5" stroke="black" fill="red"/>
  <circle cx="180.092" cy="404.926" r="5.04286" stroke-width="0.5" stroke="red" fill="red"/>
   </g>
   <g id="cell105">
  <circle cx="91.2105" cy="429.776" r="9.90658" stroke-width="0.5" stroke="black" fill="yellow"/>
  <circle cx="91.2105" cy="429.776" r="6.01243" stroke-width="0.5" stroke="yellow" fill="yellow"/>
   </g>
   <g id="cell26">
  <circle cx="657.797" cy="449.41" r="8.39571" stroke-width="0.5" stroke="black" fill="grey"/>
  <circle cx="657.797" cy="449.41" r="5.04599" stroke-width="0.5" stroke="grey" fill="grey"/>
   </g>
   <g id="cell117">
  <circle cx="867.16" cy="395.309" r="10.4651" stroke-width="0.5" stroke="black" fill="yellow"/>
  <circle cx="867.16" cy="395.309" r="6.30877" stroke-width="0.5" stroke="yellow" fill="yellow"/>
   </g>
   <g id="cell28">
  <circle cx="648.242" cy="141.76" r="8.3926" stroke-width="0.5" stroke="black" fill="grey"/>
  <circle cx="648.242" cy="141.76" r="5.04482" stroke-width="0.5" stroke="grey" fill="grey"/>
   </g>
   <g id="cell29">
  <circle cx="963.242" cy="669.712" r="8.39664" stroke-width="0.5" stroke="black" fill="grey"/>
  <circle cx="963.242" cy="669.712" r="5.04633" stroke-width="0.5" stroke="grey" fill="grey"/>
   </g>
   <g id="cell30">
  <circle cx="738.512" cy="129.472" r="10.4446" stroke-width="0.5" stroke="black" fill="grey"/>
  <circle cx="738.512" cy="129.472" r="6.29905" stroke-width="0.5" stroke="grey" fill="grey"/>
   </g>
   <g id="cell31">
  <circle cx="415.138" cy="106.68" r="3.21602" stroke-width="0.5" stroke="black" fill="grey"/>
  <circle cx="415.138" cy="106.68" r="2.82708" stroke-width="0.5" stroke="black" fill="black"/>
   </g>
   <g id="cell114">
  <circle cx="36.1219" cy="325.962" r="10.5436" stroke-width="0.5" stroke="black" fill="yellow"/>
  <circle cx="36.1219" cy="325.962" r="6.34385" stroke-width="0.5" stroke="yellow" fill="yellow"/>
   </g>
   <g id="cell107">
  <circle cx="373.005" cy="418.456" r="10.1098" stroke-width="0.5" stroke="black" fill="yellow"/>
  <circle cx="373.005" cy="418.456" r="6.12585" stroke-width="0.5" stroke="yellow" fill="yellow"/>
   </g>
   <g id="cell106">
  <circle cx="49.3777" cy="955.261" r="8.46419" stroke-width="0.5" stroke="black" fill="yellow"/>
  <circle cx="49.3777" cy="955.261" r="5.09681" stroke-width="0.5" stroke="yellow" fill="yellow"/>
   </g>
   <g id="cell35">
  <circle cx="915.426" cy="98.3312" r="9.67603" stroke-width="0.5" stroke="black" fill="grey"/>
  <circle cx="915.426" cy="98.3312" r="5.87901" stroke-width="0.5" stroke="grey" fill="grey"/>
   </g>
   <g id="cell109">
  <circle cx="366.786" cy="958.338" r="10.5496" stroke-width="0.5" stroke="black" fill="yellow"/>
  <circle cx="366.786" cy="958.338" r="6.34633" stroke-width="0.5" stroke="yellow" fill="yellow"/>
   </g>
   <g id="cell111">
  <circle cx="772.048" cy="363.635" r="10.4531" stroke-width="0.5" stroke="black" fill="yellow"/>
  <circle cx="772.048" cy="363.635" r="6.30312" stroke-width="0.5" stroke="yellow" fill="yellow"/>
   </g>
   <g id="cell131">
  <circle cx="632.504" cy="605.428" r="8.39618" stroke-width="0.5" stroke="black" fill="grey"/>
  <circle cx="632.504" cy="605.428" r="5.04616" stroke-width="0.5" stroke="grey" fill="grey"/>
   </g>
   <g id="cell110">
  <circle cx="872.094" cy="266.573" r="10.0336" stroke-width="0.5" stroke="black" fill="yellow"/>
  <circle cx="872.094" cy="266.573" r="6.08382" stroke-width="0.5" stroke="yellow" fill="yellow"/>
   </g>
   <g id="cell40">
  <circle cx="168.01" cy="405.544" r="8.38753" stroke-width="0.5" stroke="black" fill="red"/>
  <circle cx="168.01" cy="405.544" r="5.04286" stroke-width="0.5" stroke="red" fill="red"/>
   </g>
   <g id="cell41">
  <circle cx="700.366" cy="707.573" r="8.39316" stroke-width="0.5" stroke="black" fill="red"/>
  <circle cx="700.366" cy="707.573" r="5.04503" stroke-width="0.5" stroke="red" fill="red"/>
   </g>
   <g id="cell42">
  <circle cx="148.436" cy="729.303" r="8.39316" stroke-width="0.5" stroke="black" fill="red"/>
  <circle cx="148.436" cy="729.303" r="5.04503" stroke-width="0.5" stroke="red" fill="red"/>
   </g>
   <g id="cell43">
  <circle cx="903.441" cy="409.351" r="10.5467" stroke-width="0.5" stroke="black" fill="red"/>
  <circle cx="903.441" cy="409.351" r="6.34513" stroke-width="0.5" stroke="red" fill="red"/>
   </g>
   <g id="cell44">
  <circle cx="838.978" cy="53.1312" r="8.38682" stroke-width="0.5" stroke="black" fill="red"/>
  <circle cx="838.978" cy="53.1312" r="5.04258" stroke-width="0.5" stroke="red" fill="red"/>
   </g>
   <g id="cell45">
  <circle cx="638.872" cy="837.047" r="10.5166" stroke-width="0.5" stroke="black" fill="red"/>
  <circle cx="638.872" cy="837.047" r="6.33218" stroke-width="0.5" stroke="red" fill="red"/>
   </g>
   <g id="cell46">
  <circle cx="53.327" cy="937.033" r="8.39571" stroke-width="0.5" stroke="black" fill="red"/>
  <circle cx="53.327" cy="937.033" r="5.04599" stroke-width="0.5" stroke="red" fill="red"/>
   </g>
   <g id="cell47">
  <circle cx="898.286" cy="418.399" r="8.39021" stroke-width="0.5" stroke="black" fill="red"/>
  <circle cx="898.286" cy="418.399" r="5.0439" stroke-width="0.5" stroke="red" fill="red"/>
   </g>
   <g id="cell48">
  <circle cx="922.549" cy="44.5438" r="8.71417" stroke-width="0.5" stroke="black" fill="red"/>
  <circle cx="922.549" cy="44.5438" r="5.27648" stroke-width="0.5" stroke="red" fill="red"/>
   </g>
   <g id="cell49">
  <circle cx="473.483" cy="784.634" r="10.5482" stroke-width="0.5" stroke="black" fill="red"/>
  <circle cx="473.483" cy="784.634" r="6.34574" stroke-width="0.5" stroke="red" fill="red"/>
   </g>
   <g id="cell50">
  <circle cx="15.4363" cy="465.913" r="8.39987" stroke-width="0.5" stroke="black" fill="red"/>
  <circle cx="15.4363" cy="465.913" r="5.04751" stroke-width="0.5" stroke="red" fill="red"/>
   </g>
   <g id="cell51">
  <circle cx="941.378" cy="141.91" r="8.39794" stroke-width="0.5" stroke="black" fill="red"/>
  <circle cx="941.378" cy="141.91" r="5.04681" stroke-width="0.5" stroke="red" fill="red"/>
   </g>
   <g id="cell96">
  <circle cx="796.083" cy="537.049" r="10.5523" stroke-width="0.5" stroke="black" fill="yellow"/>
  <circle cx="796.083" cy="537.049" r="6.34745" stroke-width="0.5" stroke="yellow" fill="yellow"/>
   </g>
   <g id="cell53">
  <circle cx="682.278" cy="320.323" r="8.79222" stroke-width="0.5" stroke="black" fill="red"/>
  <circle cx="682.278" cy="320.323" r="5.33031" stroke-width="0.5" stroke="red" fill="red"/>
   </g>
   <g id="cell54">
  <circle cx="423.735" cy="951.4" r="10.5561" stroke-width="0.5" stroke="black" fill="red"/>
  <circle cx="423.735" cy="951.4" r="6.34901" stroke-width="0.5" stroke="red" fill="red"/>
   </g>
   <g id="cell55">
  <circle cx="222.521" cy="710.91" r="10.3247" stroke-width="0.5" stroke="black" fill="red"/>
  <circle cx="222.521" cy="710.91" r="6.23971" stroke-width="0.5" stroke="red" fill="red"/>
   </g>
   <g id="cell56">
  <circle cx="581.103" cy="831.842" r="8.38823" stroke-width="0.5" stroke="black" fill="red"/>
  <circle cx="581.103" cy="831.842" r="5.04313" stroke-width="0.5" stroke="red" fill="red"/>
   </g>
   <g id="cell57">
  <circle cx="478.274" cy="543.618" r="8.39203" stroke-width="0.5" stroke="black" fill="red"/>
  <circle cx="478.274" cy="543.618" r="5.0446" stroke-width="0.5" stroke="red" fill="red"/>
   </g>
   <g id="cell58">
  <circle cx="40.0513" cy="910.11" r="10.5573" stroke-width="0.5" stroke="black" fill="red"/>
  <circle cx="40.0513" cy="910.11" r="6.3495" stroke-width="0.5" stroke="red" fill="red"/>
   </g>
   <g id="cell59">
  <circle cx="90.8318" cy="974.938" r="10.5496" stroke-width="0.5" stroke="black" fill="red"/>
  <circle cx="90.8318" cy="974.938" r="6.34633" stroke-width="0.5" stroke="red" fill="red"/>
   </g>
   <g id="cell60">
  <circle cx="255.124" cy="52.0531" r="10.5387" stroke-width="0.5" stroke="black" fill="red"/>
  <circle cx="255.124" cy="52.0531" r="6.34177" stroke-width="0.5" stroke="red" fill="red"/>
   </g>
   <g id="cell61">
  <circle cx="846.885" cy="129.191" r="10.5573" stroke-width="0.5" stroke="black" fill="red"/>
  <circle cx="846.885" cy="129.191" r="6.3495" stroke-width="0.5" stroke="red" fill="red"/>
   </g>
   <g id="cell62">
  <circle cx="730.209" cy="824.782" r="8.41271" stroke-width="0.5" stroke="black" fill="red"/>
  <circle cx="730.209" cy="824.782" r="5.05167" stroke-width="0.5" stroke="red" fill="red"/>
   </g>
   <g id="cell63">
  <circle cx="340.297" cy="173.272" r="8.39083" stroke-width="0.5" stroke="black" fill="red"/>
  <circle cx="340.297" cy="173.272" r="5.04414" stroke-width="0.5" stroke="red" fill="red"/>
   </g>
   <g id="cell64">
  <circle cx="584.634" cy="540.038" r="8.45606" stroke-width="0.5" stroke="black" fill="red"/>
  <circle cx="584.634" cy="540.038" r="5.08296" stroke-width="0.5" stroke="red" fill="red"/>
   </g>
   <g id="cell65">
  <circle cx="190.302" cy="844.985" r="2.73335" stroke-width="0.5" stroke="black" fill="red"/>
  <circle cx="190.302" cy="844.985" r="2.52703" stroke-width="0.5" stroke="black" fill="black"/>
   </g>
   <g id="cell66">
  <circle cx="40.8607" cy="173.707" r="10.5254" stroke-width="0.5" stroke="black" fill="red"/>
  <circle cx="40.8607" cy="173.707" r="6.33607" stroke-width="0.5" stroke="red" fill="red"/>
   </g>
   <g id="cell67">
  <circle cx="510.798" cy="248.18" r="10.5166" stroke-width="0.5" stroke="black" fill="red"/>
  <circle cx="510.798" cy="248.18" r="6.33218" stroke-width="0.5" stroke="red" fill="red"/>
   </g>
   <g id="cell68">
  <circle cx="765.151" cy="248.848" r="8.39422" stroke-width="0.5" stroke="black" fill="red"/>
  <circle cx="765.151" cy="248.848" r="5.04543" stroke-width="0.5" stroke="red" fill="red"/>
   </g>
   <g id="cell69">
  <circle cx="440.616" cy="288.318" r="10.5387" stroke-width="0.5" stroke="black" fill="red"/>
  <circle cx="440.616" cy="288.318" r="6.34177" stroke-width="0.5" stroke="red" fill="red"/>
   </g>
   <g id="cell70">
  <circle cx="540.902" cy="367.616" r="10.5496" stroke-width="0.5" stroke="black" fill="red"/>
  <circle cx="540.902" cy="367.616" r="6.34633" stroke-width="0.5" stroke="red" fill="red"/>
   </g>
   <g id="cell71">
  <circle cx="878.269" cy="541.628" r="8.79386" stroke-width="0.5" stroke="black" fill="red"/>
  <circle cx="878.269" cy="541.628" r="5.33094" stroke-width="0.5" stroke="red" fill="red"/>
   </g>
   <g id="cell72">
  <circle cx="203.324" cy="871.713" r="8.38891" stroke-width="0.5" stroke="black" fill="red"/>
  <circle cx="203.324" cy="871.713" r="5.0434" stroke-width="0.5" stroke="red" fill="red"/>
   </g>
   <g id="cell73">
  <circle cx="649.643" cy="436.776" r="8.39473" stroke-width="0.5" stroke="black" fill="red"/>
  <circle cx="649.643" cy="436.776" r="5.04562" stroke-width="0.5" stroke="red" fill="red"/>
   </g>
   <g id="cell74">
  <circle cx="852.259" cy="988.939" r="10.5561" stroke-width="0.5" stroke="black" fill="red"/>
  <circle cx="852.259" cy="988.939" r="6.34901" stroke-width="0.5" stroke="red" fill="red"/>
   </g>
   <g id="cell75">
  <circle cx="98.2994" cy="328.74" r="8.3937" stroke-width="0.5" stroke="black" fill="red"/>
  <circle cx="98.2994" cy="328.74" r="5.04523" stroke-width="0.5" stroke="red" fill="red"/>
   </g>
   <g id="cell76">
  <circle cx="799.166" cy="393.894" r="10.5536" stroke-width="0.5" stroke="black" fill="red"/>
  <circle cx="799.166" cy="393.894" r="6.34799" stroke-width="0.5" stroke="red" fill="red"/>
   </g>
   <g id="cell77">
  <circle cx="638.704" cy="845.408" r="8.38608" stroke-width="0.5" stroke="black" fill="red"/>
  <circle cx="638.704" cy="845.408" r="5.04229" stroke-width="0.5" stroke="red" fill="red"/>
   </g>
   <g id="cell78">
  <circle cx="610.027" cy="261.096" r="10.5596" stroke-width="0.5" stroke="black" fill="red"/>
  <circle cx="610.027" cy="261.096" r="6.35043" stroke-width="0.5" stroke="red" fill="red"/>
   </g>
   <g id="cell79">
  <circle cx="957.16" cy="700.629" r="10.5189" stroke-width="0.5" stroke="black" fill="red"/>
  <circle cx="957.16" cy="700.629" r="6.3332" stroke-width="0.5" stroke="red" fill="red"/>
   </g>
   <g id="cell80">
  <circle cx="750.396" cy="696.083" r="9.98223" stroke-width="0.5" stroke="black" fill="yellow"/>
  <circle cx="750.396" cy="696.083" r="6.05517" stroke-width="0.5" stroke="yellow" fill="yellow"/>
   </g>
   <g id="cell81">
  <circle cx="488.641" cy="985.879" r="8.41271" stroke-width="0.5" stroke="black" fill="yellow"/>
  <circle cx="488.641" cy="985.879" r="5.05167" stroke-width="0.5" stroke="yellow" fill="yellow"/>
   </g>
   <g id="cell82">
  <circle cx="668.089" cy="427.259" r="8.52273" stroke-width="0.5" stroke="black" fill="yellow"/>
  <circle cx="668.089" cy="427.259" r="5.14184" stroke-width="0.5" stroke="yellow" fill="yellow"/>
   </g>
   <g id="cell83">
  <circle cx="590.785" cy="597.292" r="8.38532" stroke-width="0.5" stroke="black" fill="yellow"/>
  <circle cx="590.785" cy="597.292" r="5.04199" stroke-width="0.5" stroke="yellow" fill="yellow"/>
   </g>
   <g id="cell84">
  <circle cx="14.3217" cy="493.016" r="10.5254" stroke-width="0.5" stroke="black" fill="yellow"/>
  <circle cx="14.3217" cy="493.016" r="6.33607" stroke-width="0.5" stroke="yellow" fill="yellow"/>
   </g>
   <g id="cell85">
  <circle cx="741.125" cy="640.733" r="8.63427" stroke-width="0.5" stroke="black" fill="yellow"/>
  <circle cx="741.125" cy="640.733" r="5.22131" stroke-width="0.5" stroke="yellow" fill="yellow"/>
   </g>
   <g id="cell86">
  <circle cx="292.264" cy="451.644" r="10.4726" stroke-width="0.5" stroke="black" fill="yellow"/>
  <circle cx="292.264" cy="451.644" r="6.31223" stroke-width="0.5" stroke="yellow" fill="yellow"/>
   </g>
   <g id="cell87">
  <circle cx="758.338" cy="414.993" r="8.39913" stroke-width="0.5" stroke="black" fill="yellow"/>
  <circle cx="758.338" cy="414.993" r="5.04725" stroke-width="0.5" stroke="yellow" fill="yellow"/>
   </g>
   <g id="cell88">
  <circle cx="157.511" cy="114.861" r="10.5618" stroke-width="0.5" stroke="black" fill="yellow"/>
  <circle cx="157.511" cy="114.861" r="6.3513" stroke-width="0.5" stroke="yellow" fill="yellow"/>
   </g>
   <g id="cell89">
  <circle cx="63.9976" cy="534.634" r="10.4955" stroke-width="0.5" stroke="black" fill="yellow"/>
  <circle cx="63.9976" cy="534.634" r="6.32275" stroke-width="0.5" stroke="yellow" fill="yellow"/>
   </g>
   <g id="cell119">
  <circle cx="575.009" cy="35.5235" r="10.4925" stroke-width="0.5" stroke="black" fill="yellow"/>
  <circle cx="575.009" cy="35.5235" r="6.32139" stroke-width="0.5" stroke="black" fill="black"/>
   </g>
   <g id="cell91">
  <circle cx="36.5346" cy="643.491" r="10.5233" stroke-width="0.5" stroke="black" fill="yellow"/>
  <circle cx="36.5346" cy="643.491" r="6.33514" stroke-width="0.5" stroke="yellow" fill="yellow"/>
   </g>
   <g id="cell92">
  <circle cx="624.754" cy="299.382" r="10.5596" stroke-width="0.5" stroke="black" fill="yellow"/>
  <circle cx="624.754" cy="299.382" r="6.35043" stroke-width="0.5" stroke="yellow" fill="yellow"/>
   </g>
   <g id="cell93">
  <circle cx="248.156" cy="892.215" r="8.39913" stroke-width="0.5" stroke="black" fill="yellow"/>
  <circle cx="248.156" cy="892.215" r="5.04725" stroke-width="0.5" stroke="yellow" fill="yellow"/>
   </g>
   <g id="cell94">
  <circle cx="365.509" cy="94.8976" r="10.5436" stroke-width="0.5" stroke="black" fill="yellow"/>
  <circle cx="365.509" cy="94.8976" r="6.34385" stroke-width="0.5" stroke="yellow" fill="yellow"/>
   </g>
   <g id="cell95">
  <circle cx="966.909" cy="923.196" r="10.551" stroke-width="0.5" stroke="black" fill="yellow"/>
  <circle cx="966.909" cy="923.196" r="6.3469" stroke-width="0.5" stroke="yellow" fill="yellow"/>
   </g>
   <g id="cell121">
  <circle cx="12.0245" cy="496.176" r="8.39987" stroke-width="0.5" stroke="black" fill="red"/>
  <circle cx="12.0245" cy="496.176" r="5.04751" stroke-width="0.5" stroke="red" fill="red"/>
   </g>
   <g id="cell122">
  <circle cx="758.51" cy="445.407" r="8.53137" stroke-width="0.5" stroke="black" fill="yellow"/>
  <circle cx="758.51" cy="445.407" r="5.14511" stroke-width="0.5" stroke="yellow" fill="yellow"/>
   </g>
   <g id="cell123">
  <circle cx="251.889" cy="879.051" r="8.39913" stroke-width="0.5" stroke="black" fill="yellow"/>
  <circle cx="251.889" cy="879.051" r="5.04725" stroke-width="0.5" stroke="yellow" fill="yellow"/>
   </g>
   <g id="cell124">
  <circle cx="512.99" cy="639.219" r="8.39913" stroke-width="0.5" stroke="black" fill="grey"/>
  <circle cx="512.99" cy="639.219" r="5.04725" stroke-width="0.5" stroke="grey" fill="grey"/>
   </g>
   <g id="cell125">
  <circle cx="794.744" cy="391.128" r="8.79462" stroke-width="0.5" stroke="black" fill="yellow"/>
  <circle cx="794.744" cy="391.128" r="5.33122" stroke-width="0.5" stroke="yellow" fill="yellow"/>
   </g>
   <g id="cell126">
  <circle cx="974.981" cy="155.152" r="8.39794" stroke-width="0.5" stroke="black" fill="red"/>
  <circle cx="974.981" cy="155.152" r="5.04681" stroke-width="0.5" stroke="red" fill="red"/>
   </g>
   <g id="cell127">
  <circle cx="883.814" cy="533.079" r="8.6369" stroke-width="0.5" stroke="black" fill="red"/>
  <circle cx="883.814" cy="533.079" r="5.22231" stroke-width="0.5" stroke="red" fill="red"/>
   </g>
   <g id="cell128">
  <circle cx="933.766" cy="55.0571" r="8.39752" stroke-width="0.5" stroke="black" fill="red"/>
  <circle cx="933.766" cy="55.0571" r="5.04666" stroke-width="0.5" stroke="red" fill="red"/>
   </g>
   <g id="cell129">
  <circle cx="947.923" cy="673.19" r="8.46709" stroke-width="0.5" stroke="black" fill="grey"/>
  <circle cx="947.923" cy="673.19" r="5.0979" stroke-width="0.5" stroke="grey" fill="grey"/>
   </g>
   <g id="cell130">
  <circle cx="902.583" cy="607.122" r="8.39618" stroke-width="0.5" stroke="black" fill="yellow"/>
  <circle cx="902.583" cy="607.122" r="5.04616" stroke-width="0.5" stroke="yellow" fill="yellow"/>
   </g>
   <g id="cell132">
  <circle cx="70.8736" cy="913.002" r="8.39571" stroke-width="0.5" stroke="black" fill="red"/>
  <circle cx="70.8736" cy="913.002" r="5.04599" stroke-width="0.5" stroke="red" fill="red"/>
   </g>
   <g id="cell133">
  <circle cx="695.565" cy="365.109" r="8.39571" stroke-width="0.5" stroke="black" fill="red"/>
  <circle cx="695.565" cy="365.109" r="5.04599" stroke-width="0.5" stroke="red" fill="red"/>
   </g>
   <g id="cell134">
  <circle cx="639.881" cy="449.646" r="8.39571" stroke-width="0.5" stroke="black" fill="grey"/>
  <circle cx="639.881" cy="449.646" r="5.04599" stroke-width="0.5" stroke="grey" fill="grey"/>
   </g>
   <g id="cell136">
  <circle cx="649.147" cy="416.276" r="8.39473" stroke-width="0.5" stroke="black" fill="red"/>
  <circle cx="649.147" cy="416.276" r="5.04562" stroke-width="0.5" stroke="red" fill="red"/>
   </g>
   <g id="cell137">
  <circle cx="751.009" cy="675.17" r="8.39473" stroke-width="0.5" stroke="black" fill="yellow"/>
  <circle cx="751.009" cy="675.17" r="5.04562" stroke-width="0.5" stroke="yellow" fill="yellow"/>
   </g>
   <g id="cell138">
  <circle cx="766.424" cy="236.149" r="8.71111" stroke-width="0.5" stroke="black" fill="red"/>
  <circle cx="766.424" cy="236.149" r="5.27531" stroke-width="0.5" stroke="red" fill="red"/>
   </g>
   <g id="cell139">
  <circle cx="780.369" cy="737.147" r="8.39422" stroke-width="0.5" stroke="black" fill="yellow"/>
  <circle cx="780.369" cy="737.147" r="5.04543" stroke-width="0.5" stroke="yellow" fill="yellow"/>
   </g>
   <g id="cell140">
  <circle cx="99.6424" cy="332.054" r="8.63329" stroke-width="0.5" stroke="black" fill="red"/>
  <circle cx="99.6424" cy="332.054" r="5.22093" stroke-width="0.5" stroke="red" fill="red"/>
   </g>
   <g id="cell141">
  <circle cx="40.4638" cy="987.274" r="8.52611" stroke-width="0.5" stroke="black" fill="yellow"/>
  <circle cx="40.4638" cy="987.274" r="5.14314" stroke-width="0.5" stroke="yellow" fill="yellow"/>
   </g>
   <g id="cell142">
  <circle cx="694.02" cy="677.04" r="8.39316" stroke-width="0.5" stroke="black" fill="red"/>
  <circle cx="694.02" cy="677.04" r="5.04503" stroke-width="0.5" stroke="red" fill="red"/>
   </g>
   <g id="cell143">
  <circle cx="142.179" cy="729.374" r="8.39316" stroke-width="0.5" stroke="black" fill="red"/>
  <circle cx="142.179" cy="729.374" r="5.04503" stroke-width="0.5" stroke="red" fill="red"/>
   </g>
   <g id="cell144">
  <circle cx="650.066" cy="160.622" r="8.3926" stroke-width="0.5" stroke="black" fill="grey"/>
  <circle cx="650.066" cy="160.622" r="5.04482" stroke-width="0.5" stroke="grey" fill="grey"/>
   </g>
   <g id="cell145">
  <circle cx="491.444" cy="553.641" r="8.39203" stroke-width="0.5" stroke="black" fill="red"/>
  <circle cx="491.444" cy="553.641" r="5.0446" stroke-width="0.5" stroke="red" fill="red"/>
   </g>
   <g id="cell146">
  <circle cx="326.788" cy="190.423" r="8.39083" stroke-width="0.5" stroke="black" fill="red"/>
  <circle cx="326.788" cy="190.423" r="5.04414" stroke-width="0.5" stroke="red" fill="red"/>
   </g>
   <g id="cell147">
  <circle cx="671.281" cy="419.803" r="8.39021" stroke-width="0.5" stroke="black" fill="yellow"/>
  <circle cx="671.281" cy="419.803" r="5.0439" stroke-width="0.5" stroke="yellow" fill="yellow"/>
   </g>
   <g id="cell148">
  <circle cx="155.363" cy="752.33" r="8.55693" stroke-width="0.5" stroke="black" fill="grey"/>
  <circle cx="155.363" cy="752.33" r="5.167" stroke-width="0.5" stroke="grey" fill="grey"/>
   </g>
   <g id="cell149">
  <circle cx="891.97" cy="428.923" r="8.39021" stroke-width="0.5" stroke="black" fill="red"/>
  <circle cx="891.97" cy="428.923" r="5.0439" stroke-width="0.5" stroke="red" fill="red"/>
   </g>
   <g id="cell150">
  <circle cx="194.563" cy="17.4844" r="8.38957" stroke-width="0.5" stroke="black" fill="yellow"/>
  <circle cx="194.563" cy="17.4844" r="5.04365" stroke-width="0.5" stroke="yellow" fill="yellow"/>
   </g>
   <g id="cell151">
  <circle cx="216.965" cy="880.511" r="8.38891" stroke-width="0.5" stroke="black" fill="red"/>
  <circle cx="216.965" cy="880.511" r="5.0434" stroke-width="0.5" stroke="red" fill="red"/>
   </g>
   <g id="cell152">
  <circle cx="572.907" cy="830.592" r="8.38823" stroke-width="0.5" stroke="black" fill="red"/>
  <circle cx="572.907" cy="830.592" r="5.04313" stroke-width="0.5" stroke="red" fill="red"/>
   </g>
   <g id="cell154">
  <circle cx="829.373" cy="34.9567" r="8.38682" stroke-width="0.5" stroke="black" fill="red"/>
  <circle cx="829.373" cy="34.9567" r="5.04258" stroke-width="0.5" stroke="red" fill="red"/>
   </g>
   <g id="cell155">
  <circle cx="644.716" cy="861.799" r="8.38608" stroke-width="0.5" stroke="black" fill="red"/>
  <circle cx="644.716" cy="861.799" r="5.04229" stroke-width="0.5" stroke="red" fill="red"/>
   </g>
   <g id="cell156">
  <circle cx="897.871" cy="517.427" r="8.38608" stroke-width="0.5" stroke="black" fill="grey"/>
  <circle cx="897.871" cy="517.427" r="5.04229" stroke-width="0.5" stroke="grey" fill="grey"/>
   </g>
   <g id="cell157">
  <circle cx="597.639" cy="603.189" r="8.38532" stroke-width="0.5" stroke="black" fill="yellow"/>
  <circle cx="597.639" cy="603.189" r="5.04199" stroke-width="0.5" stroke="yellow" fill="yellow"/>
   </g>
  </g>
 </g>
  <rect x="775" y="1035" width="200" height="10" stroke-width="2" stroke="rgb(255,255,255)" fill="rgb(0,0,0)"/>
  <text x="781.25" y="1028.75"
   font-family="Arial" font-size="25" fill="black" >
   200 &#956;m
  </text>
  <text x="25" y="1045"
   font-family="Arial" font-size="18.75" fill="black" >
   0 days, 0 hours, 1 minutes, and 16.7275 seconds
  </text>
  <rect x="0" y="70" width="1000" height="1000" stroke-width="2" stroke="rgb(0,0,0)" fill="none"/>
</svg>
