<?xml version="1.0" encoding="UTF-8" standalone="no"?>
<!-- Created with PhysiCell (http://PhysiCell.MathCancer.org/) -->
<svg 
 xmlns:dc="http://purl.org/dc/elements/1.1/" 
 xmlns:cc="http://creativecommons.org/ns#" 
 xmlns:rdf="http://www.w3.org/1999/02/22-rdf-syntax-ns#" 
 xmlns:svg="http://www.w3.org/2000/svg" 
 xmlns="http://www.w3.org/2000/svg" 
 version="1.1" 
 width="1000" 
 height="1070" 
 id="svg2">
  <rect x="0" y="0" width="1000" height="1070" stroke-width="2" stroke="white" fill="white"/>
  <text x="12.5" y="30"
   font-family="Arial" font-size="25" fill="black" >
   Current time: 0 days, 1 hours, and 0.00 minutes, z = 0.00 &#956;m
  </text>
  <text x="12.5" y="57.5"
   font-family="Arial" font-size="23.75" fill="black" >
   120 agents
  </text>
 <g id="tissue" 
    transform="translate(0,1070) scale(1,-1)">
  <g id="ECM">
  </g>
  <g id="cells">
   <g id="cell0">
  <circle cx="553.749" cy="591.248" r="8.61424" stroke-width="0.5" stroke="black" fill="grey"/>
  <circle cx="553.749" cy="591.248" r="5.20061" stroke-width="0.5" stroke="grey" fill="grey"/>
   </g>
   <g id="cell1">
  <circle cx="839.837" cy="610.74" r="6.44044" stroke-width="0.5" stroke="black" fill="grey"/>
  <circle cx="839.837" cy="610.74" r="3.99684" stroke-width="0.5" stroke="black" fill="black"/>
   </g>
   <g id="cell2">
  <circle cx="546.981" cy="843.684" r="8.65127" stroke-width="0.5" stroke="black" fill="grey"/>
  <circle cx="546.981" cy="843.684" r="5.2272" stroke-width="0.5" stroke="grey" fill="grey"/>
   </g>
   <g id="cell3">
  <circle cx="627.382" cy="642.723" r="8.41271" stroke-width="0.5" stroke="black" fill="grey"/>
  <circle cx="627.382" cy="642.723" r="5.05167" stroke-width="0.5" stroke="grey" fill="grey"/>
   </g>
   <g id="cell4">
  <circle cx="441.266" cy="305.974" r="8.41271" stroke-width="0.5" stroke="black" fill="grey"/>
  <circle cx="441.266" cy="305.974" r="5.05167" stroke-width="0.5" stroke="grey" fill="grey"/>
   </g>
   <g id="cell5">
  <circle cx="57.2634" cy="972.174" r="8.51252" stroke-width="0.5" stroke="black" fill="grey"/>
  <circle cx="57.2634" cy="972.174" r="5.12552" stroke-width="0.5" stroke="grey" fill="grey"/>
   </g>
   <g id="cell6">
  <circle cx="384.664" cy="479.525" r="8.68937" stroke-width="0.5" stroke="black" fill="grey"/>
  <circle cx="384.664" cy="479.525" r="5.25417" stroke-width="0.5" stroke="grey" fill="grey"/>
   </g>
   <g id="cell7">
  <circle cx="805.366" cy="533.235" r="8.41271" stroke-width="0.5" stroke="black" fill="grey"/>
  <circle cx="805.366" cy="533.235" r="5.05167" stroke-width="0.5" stroke="grey" fill="grey"/>
   </g>
   <g id="cell8">
  <circle cx="584.552" cy="397.856" r="8.41271" stroke-width="0.5" stroke="black" fill="grey"/>
  <circle cx="584.552" cy="397.856" r="5.05167" stroke-width="0.5" stroke="grey" fill="grey"/>
   </g>
   <g id="cell9">
  <circle cx="845.716" cy="79.1813" r="8.41271" stroke-width="0.5" stroke="black" fill="grey"/>
  <circle cx="845.716" cy="79.1813" r="5.05167" stroke-width="0.5" stroke="grey" fill="grey"/>
   </g>
   <g id="cell10">
  <circle cx="94.5054" cy="653.863" r="8.41271" stroke-width="0.5" stroke="black" fill="grey"/>
  <circle cx="94.5054" cy="653.863" r="5.05167" stroke-width="0.5" stroke="grey" fill="grey"/>
   </g>
   <g id="cell11">
  <circle cx="358.529" cy="830.658" r="8.41271" stroke-width="0.5" stroke="black" fill="grey"/>
  <circle cx="358.529" cy="830.658" r="5.05167" stroke-width="0.5" stroke="grey" fill="grey"/>
   </g>
   <g id="cell12">
  <circle cx="788.28" cy="132.598" r="8.41271" stroke-width="0.5" stroke="black" fill="grey"/>
  <circle cx="788.28" cy="132.598" r="5.05167" stroke-width="0.5" stroke="grey" fill="grey"/>
   </g>
   <g id="cell13">
  <circle cx="867.896" cy="971.711" r="8.41271" stroke-width="0.5" stroke="black" fill="grey"/>
  <circle cx="867.896" cy="971.711" r="5.05167" stroke-width="0.5" stroke="grey" fill="grey"/>
   </g>
   <g id="cell14">
  <circle cx="824.541" cy="811.152" r="8.41271" stroke-width="0.5" stroke="black" fill="grey"/>
  <circle cx="824.541" cy="811.152" r="5.05167" stroke-width="0.5" stroke="grey" fill="grey"/>
   </g>
   <g id="cell15">
  <circle cx="499.135" cy="776.936" r="8.41271" stroke-width="0.5" stroke="black" fill="grey"/>
  <circle cx="499.135" cy="776.936" r="5.05167" stroke-width="0.5" stroke="grey" fill="grey"/>
   </g>
   <g id="cell16">
  <circle cx="127.841" cy="736.943" r="8.41271" stroke-width="0.5" stroke="black" fill="grey"/>
  <circle cx="127.841" cy="736.943" r="5.05167" stroke-width="0.5" stroke="grey" fill="grey"/>
   </g>
   <g id="cell17">
  <circle cx="576.709" cy="142.013" r="8.41271" stroke-width="0.5" stroke="black" fill="grey"/>
  <circle cx="576.709" cy="142.013" r="5.05167" stroke-width="0.5" stroke="grey" fill="grey"/>
   </g>
   <g id="cell18">
  <circle cx="928.958" cy="751.713" r="8.41271" stroke-width="0.5" stroke="black" fill="grey"/>
  <circle cx="928.958" cy="751.713" r="5.05167" stroke-width="0.5" stroke="grey" fill="grey"/>
   </g>
   <g id="cell19">
  <circle cx="103.073" cy="420.982" r="8.41271" stroke-width="0.5" stroke="black" fill="grey"/>
  <circle cx="103.073" cy="420.982" r="5.05167" stroke-width="0.5" stroke="grey" fill="grey"/>
   </g>
   <g id="cell20">
  <circle cx="252.288" cy="190.493" r="8.41271" stroke-width="0.5" stroke="black" fill="grey"/>
  <circle cx="252.288" cy="190.493" r="5.05167" stroke-width="0.5" stroke="grey" fill="grey"/>
   </g>
   <g id="cell21">
  <circle cx="738.041" cy="444.005" r="8.41271" stroke-width="0.5" stroke="black" fill="grey"/>
  <circle cx="738.041" cy="444.005" r="5.05167" stroke-width="0.5" stroke="grey" fill="grey"/>
   </g>
   <g id="cell22">
  <circle cx="565.289" cy="126.197" r="8.41271" stroke-width="0.5" stroke="black" fill="grey"/>
  <circle cx="565.289" cy="126.197" r="5.05167" stroke-width="0.5" stroke="grey" fill="grey"/>
   </g>
   <g id="cell23">
  <circle cx="325.935" cy="621.592" r="8.48289" stroke-width="0.5" stroke="black" fill="grey"/>
  <circle cx="325.935" cy="621.592" r="5.10317" stroke-width="0.5" stroke="grey" fill="grey"/>
   </g>
   <g id="cell24">
  <circle cx="612.762" cy="224.744" r="8.48289" stroke-width="0.5" stroke="black" fill="grey"/>
  <circle cx="612.762" cy="224.744" r="5.10317" stroke-width="0.5" stroke="grey" fill="grey"/>
   </g>
   <g id="cell25">
  <circle cx="386.589" cy="953.864" r="8.41271" stroke-width="0.5" stroke="black" fill="grey"/>
  <circle cx="386.589" cy="953.864" r="5.05167" stroke-width="0.5" stroke="grey" fill="grey"/>
   </g>
   <g id="cell26">
  <circle cx="669.132" cy="453.989" r="8.41271" stroke-width="0.5" stroke="black" fill="grey"/>
  <circle cx="669.132" cy="453.989" r="5.05167" stroke-width="0.5" stroke="grey" fill="grey"/>
   </g>
   <g id="cell27">
  <circle cx="601.791" cy="449.353" r="7.00193" stroke-width="0.5" stroke="black" fill="grey"/>
  <circle cx="601.791" cy="449.353" r="4.27611" stroke-width="0.5" stroke="black" fill="black"/>
   </g>
   <g id="cell28">
  <circle cx="687.725" cy="109.709" r="8.41271" stroke-width="0.5" stroke="black" fill="grey"/>
  <circle cx="687.725" cy="109.709" r="5.05167" stroke-width="0.5" stroke="grey" fill="grey"/>
   </g>
   <g id="cell29">
  <circle cx="980.631" cy="658.293" r="8.4325" stroke-width="0.5" stroke="black" fill="grey"/>
  <circle cx="980.631" cy="658.293" r="5.06552" stroke-width="0.5" stroke="grey" fill="grey"/>
   </g>
   <g id="cell30">
  <circle cx="670.462" cy="174.686" r="8.41271" stroke-width="0.5" stroke="black" fill="grey"/>
  <circle cx="670.462" cy="174.686" r="5.05167" stroke-width="0.5" stroke="grey" fill="grey"/>
   </g>
   <g id="cell31">
  <circle cx="361.559" cy="128.273" r="8.41271" stroke-width="0.5" stroke="black" fill="grey"/>
  <circle cx="361.559" cy="128.273" r="5.05167" stroke-width="0.5" stroke="grey" fill="grey"/>
   </g>
   <g id="cell32">
  <circle cx="315.672" cy="599.545" r="8.41271" stroke-width="0.5" stroke="black" fill="grey"/>
  <circle cx="315.672" cy="599.545" r="5.05167" stroke-width="0.5" stroke="grey" fill="grey"/>
   </g>
   <g id="cell33">
  <circle cx="321.908" cy="573.871" r="8.48289" stroke-width="0.5" stroke="black" fill="grey"/>
  <circle cx="321.908" cy="573.871" r="5.10317" stroke-width="0.5" stroke="grey" fill="grey"/>
   </g>
   <g id="cell34">
  <circle cx="438.587" cy="628.492" r="8.41271" stroke-width="0.5" stroke="black" fill="grey"/>
  <circle cx="438.587" cy="628.492" r="5.05167" stroke-width="0.5" stroke="grey" fill="grey"/>
   </g>
   <g id="cell35">
  <circle cx="944.945" cy="106.273" r="8.41271" stroke-width="0.5" stroke="black" fill="grey"/>
  <circle cx="944.945" cy="106.273" r="5.05167" stroke-width="0.5" stroke="grey" fill="grey"/>
   </g>
   <g id="cell36">
  <circle cx="211.804" cy="630.583" r="8.41271" stroke-width="0.5" stroke="black" fill="grey"/>
  <circle cx="211.804" cy="630.583" r="5.05167" stroke-width="0.5" stroke="grey" fill="grey"/>
   </g>
   <g id="cell37">
  <circle cx="991.872" cy="646.103" r="8.41271" stroke-width="0.5" stroke="black" fill="grey"/>
  <circle cx="991.872" cy="646.103" r="5.05167" stroke-width="0.5" stroke="grey" fill="grey"/>
   </g>
   <g id="cell38">
  <circle cx="246.788" cy="415.588" r="8.65127" stroke-width="0.5" stroke="black" fill="grey"/>
  <circle cx="246.788" cy="415.588" r="5.2272" stroke-width="0.5" stroke="grey" fill="grey"/>
   </g>
   <g id="cell39">
  <circle cx="472.155" cy="241.64" r="8.41271" stroke-width="0.5" stroke="black" fill="grey"/>
  <circle cx="472.155" cy="241.64" r="5.05167" stroke-width="0.5" stroke="grey" fill="grey"/>
   </g>
   <g id="cell40">
  <circle cx="160.445" cy="337.627" r="8.41271" stroke-width="0.5" stroke="black" fill="red"/>
  <circle cx="160.445" cy="337.627" r="5.05167" stroke-width="0.5" stroke="red" fill="red"/>
   </g>
   <g id="cell41">
  <circle cx="667.511" cy="666.546" r="8.41271" stroke-width="0.5" stroke="black" fill="red"/>
  <circle cx="667.511" cy="666.546" r="5.05167" stroke-width="0.5" stroke="red" fill="red"/>
   </g>
   <g id="cell42">
  <circle cx="138.33" cy="778.149" r="8.41271" stroke-width="0.5" stroke="black" fill="red"/>
  <circle cx="138.33" cy="778.149" r="5.05167" stroke-width="0.5" stroke="red" fill="red"/>
   </g>
   <g id="cell43">
  <circle cx="949.803" cy="375.657" r="8.41271" stroke-width="0.5" stroke="black" fill="red"/>
  <circle cx="949.803" cy="375.657" r="5.05167" stroke-width="0.5" stroke="red" fill="red"/>
   </g>
   <g id="cell44">
  <circle cx="830.52" cy="15.2338" r="8.41271" stroke-width="0.5" stroke="black" fill="red"/>
  <circle cx="830.52" cy="15.2338" r="5.05167" stroke-width="0.5" stroke="red" fill="red"/>
   </g>
   <g id="cell45">
  <circle cx="628.936" cy="842.334" r="8.41271" stroke-width="0.5" stroke="black" fill="red"/>
  <circle cx="628.936" cy="842.334" r="5.05167" stroke-width="0.5" stroke="red" fill="red"/>
   </g>
   <g id="cell46">
  <circle cx="92.0861" cy="969.505" r="8.41271" stroke-width="0.5" stroke="black" fill="red"/>
  <circle cx="92.0861" cy="969.505" r="5.05167" stroke-width="0.5" stroke="red" fill="red"/>
   </g>
   <g id="cell47">
  <circle cx="882.835" cy="465.155" r="8.41271" stroke-width="0.5" stroke="black" fill="red"/>
  <circle cx="882.835" cy="465.155" r="5.05167" stroke-width="0.5" stroke="red" fill="red"/>
   </g>
   <g id="cell48">
  <circle cx="975.805" cy="49.1047" r="8.48289" stroke-width="0.5" stroke="black" fill="red"/>
  <circle cx="975.805" cy="49.1047" r="5.10317" stroke-width="0.5" stroke="red" fill="red"/>
   </g>
   <g id="cell49">
  <circle cx="447.847" cy="745.433" r="8.41271" stroke-width="0.5" stroke="black" fill="red"/>
  <circle cx="447.847" cy="745.433" r="5.05167" stroke-width="0.5" stroke="red" fill="red"/>
   </g>
   <g id="cell50">
  <circle cx="36.75" cy="444.953" r="8.68937" stroke-width="0.5" stroke="black" fill="red"/>
  <circle cx="36.75" cy="444.953" r="5.25417" stroke-width="0.5" stroke="red" fill="red"/>
   </g>
   <g id="cell51">
  <circle cx="975.137" cy="107.488" r="8.51252" stroke-width="0.5" stroke="black" fill="red"/>
  <circle cx="975.137" cy="107.488" r="5.12552" stroke-width="0.5" stroke="red" fill="red"/>
   </g>
   <g id="cell52">
  <circle cx="308.938" cy="472.685" r="8.41271" stroke-width="0.5" stroke="black" fill="red"/>
  <circle cx="308.938" cy="472.685" r="5.05167" stroke-width="0.5" stroke="red" fill="red"/>
   </g>
   <g id="cell53">
  <circle cx="698.503" cy="305.699" r="8.41271" stroke-width="0.5" stroke="black" fill="red"/>
  <circle cx="698.503" cy="305.699" r="5.05167" stroke-width="0.5" stroke="red" fill="red"/>
   </g>
   <g id="cell54">
  <circle cx="415.625" cy="918.821" r="8.41271" stroke-width="0.5" stroke="black" fill="red"/>
  <circle cx="415.625" cy="918.821" r="5.05167" stroke-width="0.5" stroke="red" fill="red"/>
   </g>
   <g id="cell55">
  <circle cx="216.38" cy="689.541" r="8.41271" stroke-width="0.5" stroke="black" fill="red"/>
  <circle cx="216.38" cy="689.541" r="5.05167" stroke-width="0.5" stroke="red" fill="red"/>
   </g>
   <g id="cell56">
  <circle cx="554.258" cy="859.373" r="8.41271" stroke-width="0.5" stroke="black" fill="red"/>
  <circle cx="554.258" cy="859.373" r="5.05167" stroke-width="0.5" stroke="red" fill="red"/>
   </g>
   <g id="cell57">
  <circle cx="506.631" cy="526.275" r="8.41271" stroke-width="0.5" stroke="black" fill="red"/>
  <circle cx="506.631" cy="526.275" r="5.05167" stroke-width="0.5" stroke="red" fill="red"/>
   </g>
   <g id="cell58">
  <circle cx="93.753" cy="919.737" r="8.41271" stroke-width="0.5" stroke="black" fill="red"/>
  <circle cx="93.753" cy="919.737" r="5.05167" stroke-width="0.5" stroke="red" fill="red"/>
   </g>
   <g id="cell59">
  <circle cx="88.2285" cy="928.101" r="8.41271" stroke-width="0.5" stroke="black" fill="red"/>
  <circle cx="88.2285" cy="928.101" r="5.05167" stroke-width="0.5" stroke="red" fill="red"/>
   </g>
   <g id="cell60">
  <circle cx="308.423" cy="13.7776" r="8.41271" stroke-width="0.5" stroke="black" fill="red"/>
  <circle cx="308.423" cy="13.7776" r="5.05167" stroke-width="0.5" stroke="red" fill="red"/>
   </g>
   <g id="cell61">
  <circle cx="845.935" cy="148.793" r="8.41271" stroke-width="0.5" stroke="black" fill="red"/>
  <circle cx="845.935" cy="148.793" r="5.05167" stroke-width="0.5" stroke="red" fill="red"/>
   </g>
   <g id="cell62">
  <circle cx="718.74" cy="834.046" r="8.41271" stroke-width="0.5" stroke="black" fill="red"/>
  <circle cx="718.74" cy="834.046" r="5.05167" stroke-width="0.5" stroke="red" fill="red"/>
   </g>
   <g id="cell63">
  <circle cx="269.327" cy="175.34" r="8.41271" stroke-width="0.5" stroke="black" fill="red"/>
  <circle cx="269.327" cy="175.34" r="5.05167" stroke-width="0.5" stroke="red" fill="red"/>
   </g>
   <g id="cell64">
  <circle cx="587.689" cy="544.538" r="8.41271" stroke-width="0.5" stroke="black" fill="red"/>
  <circle cx="587.689" cy="544.538" r="5.05167" stroke-width="0.5" stroke="red" fill="red"/>
   </g>
   <g id="cell65">
  <circle cx="166.814" cy="839.857" r="8.41271" stroke-width="0.5" stroke="black" fill="red"/>
  <circle cx="166.814" cy="839.857" r="5.05167" stroke-width="0.5" stroke="red" fill="red"/>
   </g>
   <g id="cell66">
  <circle cx="12.3302" cy="144.022" r="8.41271" stroke-width="0.5" stroke="black" fill="red"/>
  <circle cx="12.3302" cy="144.022" r="5.05167" stroke-width="0.5" stroke="red" fill="red"/>
   </g>
   <g id="cell67">
  <circle cx="555.847" cy="259.555" r="8.41271" stroke-width="0.5" stroke="black" fill="red"/>
  <circle cx="555.847" cy="259.555" r="5.05167" stroke-width="0.5" stroke="red" fill="red"/>
   </g>
   <g id="cell68">
  <circle cx="733.851" cy="281.069" r="8.41271" stroke-width="0.5" stroke="black" fill="red"/>
  <circle cx="733.851" cy="281.069" r="5.05167" stroke-width="0.5" stroke="red" fill="red"/>
   </g>
   <g id="cell69">
  <circle cx="435.579" cy="262.229" r="8.41271" stroke-width="0.5" stroke="black" fill="red"/>
  <circle cx="435.579" cy="262.229" r="5.05167" stroke-width="0.5" stroke="red" fill="red"/>
   </g>
   <g id="cell70">
  <circle cx="566.357" cy="391.323" r="8.41271" stroke-width="0.5" stroke="black" fill="red"/>
  <circle cx="566.357" cy="391.323" r="5.05167" stroke-width="0.5" stroke="red" fill="red"/>
   </g>
   <g id="cell71">
  <circle cx="887.35" cy="571.258" r="8.48289" stroke-width="0.5" stroke="black" fill="red"/>
  <circle cx="887.35" cy="571.258" r="5.10317" stroke-width="0.5" stroke="red" fill="red"/>
   </g>
   <g id="cell72">
  <circle cx="228.033" cy="884.268" r="8.41271" stroke-width="0.5" stroke="black" fill="red"/>
  <circle cx="228.033" cy="884.268" r="5.05167" stroke-width="0.5" stroke="red" fill="red"/>
   </g>
   <g id="cell73">
  <circle cx="676.282" cy="441.195" r="8.41271" stroke-width="0.5" stroke="black" fill="red"/>
  <circle cx="676.282" cy="441.195" r="5.05167" stroke-width="0.5" stroke="red" fill="red"/>
   </g>
   <g id="cell74">
  <circle cx="843.916" cy="984.144" r="8.41271" stroke-width="0.5" stroke="black" fill="red"/>
  <circle cx="843.916" cy="984.144" r="5.05167" stroke-width="0.5" stroke="red" fill="red"/>
   </g>
   <g id="cell75">
  <circle cx="107.885" cy="300.433" r="8.41271" stroke-width="0.5" stroke="black" fill="red"/>
  <circle cx="107.885" cy="300.433" r="5.05167" stroke-width="0.5" stroke="red" fill="red"/>
   </g>
   <g id="cell76">
  <circle cx="816.748" cy="402.589" r="8.41271" stroke-width="0.5" stroke="black" fill="red"/>
  <circle cx="816.748" cy="402.589" r="5.05167" stroke-width="0.5" stroke="red" fill="red"/>
   </g>
   <g id="cell77">
  <circle cx="665.471" cy="871.558" r="8.41271" stroke-width="0.5" stroke="black" fill="red"/>
  <circle cx="665.471" cy="871.558" r="5.05167" stroke-width="0.5" stroke="red" fill="red"/>
   </g>
   <g id="cell78">
  <circle cx="588.685" cy="314.396" r="8.41271" stroke-width="0.5" stroke="black" fill="red"/>
  <circle cx="588.685" cy="314.396" r="5.05167" stroke-width="0.5" stroke="red" fill="red"/>
   </g>
   <g id="cell79">
  <circle cx="978.373" cy="687.213" r="8.41271" stroke-width="0.5" stroke="black" fill="red"/>
  <circle cx="978.373" cy="687.213" r="5.05167" stroke-width="0.5" stroke="red" fill="red"/>
   </g>
   <g id="cell80">
  <circle cx="730.984" cy="658.567" r="8.41271" stroke-width="0.5" stroke="black" fill="yellow"/>
  <circle cx="730.984" cy="658.567" r="5.05167" stroke-width="0.5" stroke="yellow" fill="yellow"/>
   </g>
   <g id="cell81">
  <circle cx="525.159" cy="953.553" r="8.41271" stroke-width="0.5" stroke="black" fill="yellow"/>
  <circle cx="525.159" cy="953.553" r="5.05167" stroke-width="0.5" stroke="yellow" fill="yellow"/>
   </g>
   <g id="cell82">
  <circle cx="657.564" cy="405.653" r="8.41271" stroke-width="0.5" stroke="black" fill="yellow"/>
  <circle cx="657.564" cy="405.653" r="5.05167" stroke-width="0.5" stroke="yellow" fill="yellow"/>
   </g>
   <g id="cell83">
  <circle cx="617.026" cy="604.423" r="8.41271" stroke-width="0.5" stroke="black" fill="yellow"/>
  <circle cx="617.026" cy="604.423" r="5.05167" stroke-width="0.5" stroke="yellow" fill="yellow"/>
   </g>
   <g id="cell84">
  <circle cx="21.236" cy="473.212" r="8.41271" stroke-width="0.5" stroke="black" fill="yellow"/>
  <circle cx="21.236" cy="473.212" r="5.05167" stroke-width="0.5" stroke="yellow" fill="yellow"/>
   </g>
   <g id="cell85">
  <circle cx="718.824" cy="658.308" r="8.41271" stroke-width="0.5" stroke="black" fill="yellow"/>
  <circle cx="718.824" cy="658.308" r="5.05167" stroke-width="0.5" stroke="yellow" fill="yellow"/>
   </g>
   <g id="cell86">
  <circle cx="279.283" cy="384.515" r="8.41271" stroke-width="0.5" stroke="black" fill="yellow"/>
  <circle cx="279.283" cy="384.515" r="5.05167" stroke-width="0.5" stroke="yellow" fill="yellow"/>
   </g>
   <g id="cell87">
  <circle cx="753.46" cy="434.957" r="8.61424" stroke-width="0.5" stroke="black" fill="yellow"/>
  <circle cx="753.46" cy="434.957" r="5.20061" stroke-width="0.5" stroke="yellow" fill="yellow"/>
   </g>
   <g id="cell88">
  <circle cx="141.838" cy="105.445" r="8.41271" stroke-width="0.5" stroke="black" fill="yellow"/>
  <circle cx="141.838" cy="105.445" r="5.05167" stroke-width="0.5" stroke="yellow" fill="yellow"/>
   </g>
   <g id="cell89">
  <circle cx="79.4903" cy="559.371" r="8.41271" stroke-width="0.5" stroke="black" fill="yellow"/>
  <circle cx="79.4903" cy="559.371" r="5.05167" stroke-width="0.5" stroke="yellow" fill="yellow"/>
   </g>
   <g id="cell90">
  <circle cx="576.381" cy="549.137" r="6.44044" stroke-width="0.5" stroke="black" fill="yellow"/>
  <circle cx="576.381" cy="549.137" r="3.99684" stroke-width="0.5" stroke="black" fill="black"/>
   </g>
   <g id="cell91">
  <circle cx="37.2422" cy="656.284" r="8.41271" stroke-width="0.5" stroke="black" fill="yellow"/>
  <circle cx="37.2422" cy="656.284" r="5.05167" stroke-width="0.5" stroke="yellow" fill="yellow"/>
   </g>
   <g id="cell92">
  <circle cx="651.911" cy="316.486" r="8.41271" stroke-width="0.5" stroke="black" fill="yellow"/>
  <circle cx="651.911" cy="316.486" r="5.05167" stroke-width="0.5" stroke="yellow" fill="yellow"/>
   </g>
   <g id="cell93">
  <circle cx="209.02" cy="913.637" r="8.61424" stroke-width="0.5" stroke="black" fill="yellow"/>
  <circle cx="209.02" cy="913.637" r="5.20061" stroke-width="0.5" stroke="yellow" fill="yellow"/>
   </g>
   <g id="cell94">
  <circle cx="371.206" cy="83.3884" r="8.41271" stroke-width="0.5" stroke="black" fill="yellow"/>
  <circle cx="371.206" cy="83.3884" r="5.05167" stroke-width="0.5" stroke="yellow" fill="yellow"/>
   </g>
   <g id="cell95">
  <circle cx="988.446" cy="884.489" r="8.41271" stroke-width="0.5" stroke="black" fill="yellow"/>
  <circle cx="988.446" cy="884.489" r="5.05167" stroke-width="0.5" stroke="yellow" fill="yellow"/>
   </g>
   <g id="cell96">
  <circle cx="813.841" cy="536.97" r="8.41271" stroke-width="0.5" stroke="black" fill="yellow"/>
  <circle cx="813.841" cy="536.97" r="5.05167" stroke-width="0.5" stroke="yellow" fill="yellow"/>
   </g>
   <g id="cell97">
  <circle cx="436.934" cy="97.3723" r="8.41271" stroke-width="0.5" stroke="black" fill="yellow"/>
  <circle cx="436.934" cy="97.3723" r="5.05167" stroke-width="0.5" stroke="yellow" fill="yellow"/>
   </g>
   <g id="cell98">
  <circle cx="923.598" cy="353.858" r="8.41271" stroke-width="0.5" stroke="black" fill="yellow"/>
  <circle cx="923.598" cy="353.858" r="5.05167" stroke-width="0.5" stroke="yellow" fill="yellow"/>
   </g>
   <g id="cell99">
  <circle cx="465.517" cy="991.738" r="8.41271" stroke-width="0.5" stroke="black" fill="yellow"/>
  <circle cx="465.517" cy="991.738" r="5.05167" stroke-width="0.5" stroke="yellow" fill="yellow"/>
   </g>
   <g id="cell100">
  <circle cx="146.732" cy="889.818" r="8.41271" stroke-width="0.5" stroke="black" fill="yellow"/>
  <circle cx="146.732" cy="889.818" r="5.05167" stroke-width="0.5" stroke="yellow" fill="yellow"/>
   </g>
   <g id="cell101">
  <circle cx="27.9021" cy="156.684" r="8.41271" stroke-width="0.5" stroke="black" fill="yellow"/>
  <circle cx="27.9021" cy="156.684" r="5.05167" stroke-width="0.5" stroke="yellow" fill="yellow"/>
   </g>
   <g id="cell102">
  <circle cx="622.379" cy="160.339" r="8.41271" stroke-width="0.5" stroke="black" fill="yellow"/>
  <circle cx="622.379" cy="160.339" r="5.05167" stroke-width="0.5" stroke="yellow" fill="yellow"/>
   </g>
   <g id="cell103">
  <circle cx="793.313" cy="860.311" r="8.41271" stroke-width="0.5" stroke="black" fill="yellow"/>
  <circle cx="793.313" cy="860.311" r="5.05167" stroke-width="0.5" stroke="yellow" fill="yellow"/>
   </g>
   <g id="cell104">
  <circle cx="806.591" cy="418.91" r="8.54454" stroke-width="0.5" stroke="black" fill="yellow"/>
  <circle cx="806.591" cy="418.91" r="5.14947" stroke-width="0.5" stroke="yellow" fill="yellow"/>
   </g>
   <g id="cell105">
  <circle cx="127.482" cy="406.002" r="8.41271" stroke-width="0.5" stroke="black" fill="yellow"/>
  <circle cx="127.482" cy="406.002" r="5.05167" stroke-width="0.5" stroke="yellow" fill="yellow"/>
   </g>
   <g id="cell106">
  <circle cx="54.0642" cy="981.613" r="8.41271" stroke-width="0.5" stroke="black" fill="yellow"/>
  <circle cx="54.0642" cy="981.613" r="5.05167" stroke-width="0.5" stroke="yellow" fill="yellow"/>
   </g>
   <g id="cell107">
  <circle cx="367.335" cy="447.413" r="8.41271" stroke-width="0.5" stroke="black" fill="yellow"/>
  <circle cx="367.335" cy="447.413" r="5.05167" stroke-width="0.5" stroke="yellow" fill="yellow"/>
   </g>
   <g id="cell108">
  <circle cx="723.02" cy="53.1299" r="8.57856" stroke-width="0.5" stroke="black" fill="yellow"/>
  <circle cx="723.02" cy="53.1299" r="5.17461" stroke-width="0.5" stroke="yellow" fill="yellow"/>
   </g>
   <g id="cell109">
  <circle cx="373.83" cy="967.308" r="8.41271" stroke-width="0.5" stroke="black" fill="yellow"/>
  <circle cx="373.83" cy="967.308" r="5.05167" stroke-width="0.5" stroke="yellow" fill="yellow"/>
   </g>
   <g id="cell110">
  <circle cx="842.632" cy="227.05" r="8.41271" stroke-width="0.5" stroke="black" fill="yellow"/>
  <circle cx="842.632" cy="227.05" r="5.05167" stroke-width="0.5" stroke="yellow" fill="yellow"/>
   </g>
   <g id="cell111">
  <circle cx="769.676" cy="359.521" r="8.41271" stroke-width="0.5" stroke="black" fill="yellow"/>
  <circle cx="769.676" cy="359.521" r="5.05167" stroke-width="0.5" stroke="yellow" fill="yellow"/>
   </g>
   <g id="cell112">
  <circle cx="721.515" cy="752.213" r="8.41271" stroke-width="0.5" stroke="black" fill="yellow"/>
  <circle cx="721.515" cy="752.213" r="5.05167" stroke-width="0.5" stroke="yellow" fill="yellow"/>
   </g>
   <g id="cell113">
  <circle cx="347.238" cy="522.038" r="8.45606" stroke-width="0.5" stroke="black" fill="yellow"/>
  <circle cx="347.238" cy="522.038" r="5.08296" stroke-width="0.5" stroke="yellow" fill="yellow"/>
   </g>
   <g id="cell114">
  <circle cx="50.382" cy="344.174" r="8.41271" stroke-width="0.5" stroke="black" fill="yellow"/>
  <circle cx="50.382" cy="344.174" r="5.05167" stroke-width="0.5" stroke="yellow" fill="yellow"/>
   </g>
   <g id="cell115">
  <circle cx="176.933" cy="13.8414" r="8.41271" stroke-width="0.5" stroke="black" fill="yellow"/>
  <circle cx="176.933" cy="13.8414" r="5.05167" stroke-width="0.5" stroke="yellow" fill="yellow"/>
   </g>
   <g id="cell116">
  <circle cx="804.133" cy="469.327" r="8.41271" stroke-width="0.5" stroke="black" fill="yellow"/>
  <circle cx="804.133" cy="469.327" r="5.05167" stroke-width="0.5" stroke="yellow" fill="yellow"/>
   </g>
   <g id="cell117">
  <circle cx="876.507" cy="341.502" r="8.41271" stroke-width="0.5" stroke="black" fill="yellow"/>
  <circle cx="876.507" cy="341.502" r="5.05167" stroke-width="0.5" stroke="yellow" fill="yellow"/>
   </g>
   <g id="cell118">
  <circle cx="929.942" cy="616.663" r="8.41271" stroke-width="0.5" stroke="black" fill="yellow"/>
  <circle cx="929.942" cy="616.663" r="5.05167" stroke-width="0.5" stroke="yellow" fill="yellow"/>
   </g>
   <g id="cell119">
  <circle cx="581.101" cy="22.1149" r="8.41271" stroke-width="0.5" stroke="black" fill="yellow"/>
  <circle cx="581.101" cy="22.1149" r="5.05167" stroke-width="0.5" stroke="yellow" fill="yellow"/>
   </g>
  </g>
 </g>
  <rect x="775" y="1035" width="200" height="10" stroke-width="2" stroke="rgb(255,255,255)" fill="rgb(0,0,0)"/>
  <text x="781.25" y="1028.75"
   font-family="Arial" font-size="25" fill="black" >
   200 &#956;m
  </text>
  <text x="25" y="1045"
   font-family="Arial" font-size="18.75" fill="black" >
   0 days, 0 hours, 0 minutes, and 3.3289 seconds
  </text>
  <rect x="0" y="70" width="1000" height="1000" stroke-width="2" stroke="rgb(0,0,0)" fill="none"/>
</svg>
