<?xml version="1.0" encoding="UTF-8" standalone="no"?>
<!-- Created with PhysiCell (http://PhysiCell.MathCancer.org/) -->
<svg 
 xmlns:dc="http://purl.org/dc/elements/1.1/" 
 xmlns:cc="http://creativecommons.org/ns#" 
 xmlns:rdf="http://www.w3.org/1999/02/22-rdf-syntax-ns#" 
 xmlns:svg="http://www.w3.org/2000/svg" 
 xmlns="http://www.w3.org/2000/svg" 
 version="1.1" 
 width="1000" 
 height="1070" 
 id="svg2">
  <rect x="0" y="0" width="1000" height="1070" stroke-width="2" stroke="white" fill="white"/>
  <text x="12.5" y="30"
   font-family="Arial" font-size="25" fill="black" >
   Current time: 0 days, 10 hours, and 0.00 minutes, z = 0.00 &#956;m
  </text>
  <text x="12.5" y="57.5"
   font-family="Arial" font-size="23.75" fill="black" >
   115 agents
  </text>
 <g id="tissue" 
    transform="translate(0,1070) scale(1,-1)">
  <g id="ECM">
  </g>
  <g id="cells">
   <g id="cell0">
  <circle cx="509.972" cy="582.635" r="10.4355" stroke-width="0.5" stroke="black" fill="grey"/>
  <circle cx="509.972" cy="582.635" r="6.2947" stroke-width="0.5" stroke="grey" fill="grey"/>
   </g>
   <g id="cell118">
  <circle cx="897.045" cy="606.073" r="10.3991" stroke-width="0.5" stroke="black" fill="yellow"/>
  <circle cx="897.045" cy="606.073" r="6.27703" stroke-width="0.5" stroke="yellow" fill="yellow"/>
   </g>
   <g id="cell2">
  <circle cx="550.341" cy="824.071" r="2.17759" stroke-width="0.5" stroke="black" fill="grey"/>
  <circle cx="550.341" cy="824.071" r="2.10997" stroke-width="0.5" stroke="black" fill="black"/>
   </g>
   <g id="cell3">
  <circle cx="602.46" cy="635.821" r="10.3991" stroke-width="0.5" stroke="black" fill="grey"/>
  <circle cx="602.46" cy="635.821" r="6.27703" stroke-width="0.5" stroke="grey" fill="grey"/>
   </g>
   <g id="cell4">
  <circle cx="415.352" cy="304.555" r="1.72142" stroke-width="0.5" stroke="black" fill="grey"/>
  <circle cx="415.352" cy="304.555" r="1.67587" stroke-width="0.5" stroke="black" fill="black"/>
   </g>
   <g id="cell5">
  <circle cx="75.5167" cy="967.659" r="3.67921" stroke-width="0.5" stroke="black" fill="grey"/>
  <circle cx="75.5167" cy="967.659" r="3.04721" stroke-width="0.5" stroke="black" fill="black"/>
   </g>
   <g id="cell6">
  <circle cx="386.739" cy="483.782" r="10.4446" stroke-width="0.5" stroke="black" fill="grey"/>
  <circle cx="386.739" cy="483.782" r="6.29905" stroke-width="0.5" stroke="grey" fill="grey"/>
   </g>
   <g id="cell7">
  <circle cx="853.502" cy="551.216" r="10.2728" stroke-width="0.5" stroke="black" fill="grey"/>
  <circle cx="853.502" cy="551.216" r="6.21295" stroke-width="0.5" stroke="grey" fill="grey"/>
   </g>
   <g id="cell8">
  <circle cx="585.638" cy="411.366" r="10.1758" stroke-width="0.5" stroke="black" fill="grey"/>
  <circle cx="585.638" cy="411.366" r="6.16159" stroke-width="0.5" stroke="grey" fill="grey"/>
   </g>
   <g id="cell9">
  <circle cx="847.148" cy="85.0327" r="1.22129" stroke-width="0.5" stroke="black" fill="grey"/>
  <circle cx="847.148" cy="85.0327" r="1.21615" stroke-width="0.5" stroke="black" fill="black"/>
   </g>
   <g id="cell10">
  <circle cx="137.387" cy="638.625" r="10.3325" stroke-width="0.5" stroke="black" fill="grey"/>
  <circle cx="137.387" cy="638.625" r="6.24369" stroke-width="0.5" stroke="grey" fill="grey"/>
   </g>
   <g id="cell11">
  <circle cx="324.574" cy="835.237" r="9.94548" stroke-width="0.5" stroke="black" fill="grey"/>
  <circle cx="324.574" cy="835.237" r="6.03448" stroke-width="0.5" stroke="grey" fill="grey"/>
   </g>
   <g id="cell12">
  <circle cx="782.392" cy="134.503" r="1.67536" stroke-width="0.5" stroke="black" fill="grey"/>
  <circle cx="782.392" cy="134.503" r="1.63653" stroke-width="0.5" stroke="black" fill="black"/>
   </g>
   <g id="cell13">
  <circle cx="880.851" cy="956.12" r="1.84412" stroke-width="0.5" stroke="black" fill="grey"/>
  <circle cx="880.851" cy="956.12" r="1.79328" stroke-width="0.5" stroke="black" fill="black"/>
   </g>
   <g id="cell14">
  <circle cx="838.103" cy="829.667" r="2.42175" stroke-width="0.5" stroke="black" fill="grey"/>
  <circle cx="838.103" cy="829.667" r="2.29643" stroke-width="0.5" stroke="black" fill="black"/>
   </g>
   <g id="cell15">
  <circle cx="525.275" cy="767.583" r="2.44131" stroke-width="0.5" stroke="black" fill="grey"/>
  <circle cx="525.275" cy="767.583" r="2.30703" stroke-width="0.5" stroke="black" fill="black"/>
   </g>
   <g id="cell16">
  <circle cx="152.729" cy="741.648" r="10.3247" stroke-width="0.5" stroke="black" fill="grey"/>
  <circle cx="152.729" cy="741.648" r="6.23971" stroke-width="0.5" stroke="grey" fill="grey"/>
   </g>
   <g id="cell17">
  <circle cx="576.613" cy="145.199" r="1.19198" stroke-width="0.5" stroke="black" fill="grey"/>
  <circle cx="576.613" cy="145.199" r="1.1876" stroke-width="0.5" stroke="black" fill="black"/>
   </g>
   <g id="cell18">
  <circle cx="951.421" cy="700.653" r="9.37686" stroke-width="0.5" stroke="black" fill="grey"/>
  <circle cx="951.421" cy="700.653" r="5.69955" stroke-width="0.5" stroke="grey" fill="grey"/>
   </g>
   <g id="cell19">
  <circle cx="91.6991" cy="418.138" r="1.83971" stroke-width="0.5" stroke="black" fill="grey"/>
  <circle cx="91.6991" cy="418.138" r="1.78519" stroke-width="0.5" stroke="black" fill="black"/>
   </g>
   <g id="cell20">
  <circle cx="237.819" cy="176.947" r="9.99984" stroke-width="0.5" stroke="black" fill="grey"/>
  <circle cx="237.819" cy="176.947" r="6.06503" stroke-width="0.5" stroke="grey" fill="grey"/>
   </g>
   <g id="cell21">
  <circle cx="724.733" cy="441.273" r="1.92875" stroke-width="0.5" stroke="black" fill="grey"/>
  <circle cx="724.733" cy="441.273" r="1.8429" stroke-width="0.5" stroke="black" fill="black"/>
   </g>
   <g id="cell115">
  <circle cx="214.086" cy="25.0306" r="10.3166" stroke-width="0.5" stroke="black" fill="yellow"/>
  <circle cx="214.086" cy="25.0306" r="6.23561" stroke-width="0.5" stroke="yellow" fill="yellow"/>
   </g>
   <g id="cell23">
  <circle cx="303.9" cy="607.146" r="1.69122" stroke-width="0.5" stroke="black" fill="grey"/>
  <circle cx="303.9" cy="607.146" r="1.67341" stroke-width="0.5" stroke="black" fill="black"/>
   </g>
   <g id="cell24">
  <circle cx="608.109" cy="222.435" r="5.48076" stroke-width="0.5" stroke="black" fill="grey"/>
  <circle cx="608.109" cy="222.435" r="3.83105" stroke-width="0.5" stroke="black" fill="black"/>
   </g>
   <g id="cell25">
  <circle cx="391.324" cy="976.029" r="1.6654" stroke-width="0.5" stroke="black" fill="grey"/>
  <circle cx="391.324" cy="976.029" r="1.63198" stroke-width="0.5" stroke="black" fill="black"/>
   </g>
   <g id="cell26">
  <circle cx="632.753" cy="450.87" r="10.3933" stroke-width="0.5" stroke="black" fill="grey"/>
  <circle cx="632.753" cy="450.87" r="6.27417" stroke-width="0.5" stroke="grey" fill="grey"/>
   </g>
   <g id="cell117">
  <circle cx="888.166" cy="361.153" r="9.2729" stroke-width="0.5" stroke="black" fill="yellow"/>
  <circle cx="888.166" cy="361.153" r="5.63555" stroke-width="0.5" stroke="yellow" fill="yellow"/>
   </g>
   <g id="cell28">
  <circle cx="670.973" cy="136.507" r="10.3545" stroke-width="0.5" stroke="black" fill="grey"/>
  <circle cx="670.973" cy="136.507" r="6.25485" stroke-width="0.5" stroke="grey" fill="grey"/>
   </g>
   <g id="cell29">
  <circle cx="988.882" cy="666.716" r="10.4048" stroke-width="0.5" stroke="black" fill="grey"/>
  <circle cx="988.882" cy="666.716" r="6.27981" stroke-width="0.5" stroke="grey" fill="grey"/>
   </g>
   <g id="cell30">
  <circle cx="720.666" cy="173.699" r="9.08642" stroke-width="0.5" stroke="black" fill="grey"/>
  <circle cx="720.666" cy="173.699" r="5.51837" stroke-width="0.5" stroke="grey" fill="grey"/>
   </g>
   <g id="cell31">
  <circle cx="393.597" cy="112.131" r="9.99984" stroke-width="0.5" stroke="black" fill="grey"/>
  <circle cx="393.597" cy="112.131" r="6.06503" stroke-width="0.5" stroke="grey" fill="grey"/>
   </g>
   <g id="cell32">
  <circle cx="319.499" cy="595.194" r="1.21718" stroke-width="0.5" stroke="black" fill="grey"/>
  <circle cx="319.499" cy="595.194" r="1.21276" stroke-width="0.5" stroke="black" fill="black"/>
   </g>
   <g id="cell33">
  <circle cx="310.636" cy="554.328" r="1.7715" stroke-width="0.5" stroke="black" fill="grey"/>
  <circle cx="310.636" cy="554.328" r="1.7486" stroke-width="0.5" stroke="black" fill="black"/>
   </g>
   <g id="cell34">
  <circle cx="435.362" cy="649.251" r="1.54796" stroke-width="0.5" stroke="black" fill="grey"/>
  <circle cx="435.362" cy="649.251" r="1.52398" stroke-width="0.5" stroke="black" fill="black"/>
   </g>
   <g id="cell35">
  <circle cx="940.425" cy="88.0799" r="8.41271" stroke-width="0.5" stroke="black" fill="grey"/>
  <circle cx="940.425" cy="88.0799" r="5.05167" stroke-width="0.5" stroke="grey" fill="grey"/>
   </g>
   <g id="cell36">
  <circle cx="208.916" cy="622.395" r="1.36402" stroke-width="0.5" stroke="black" fill="grey"/>
  <circle cx="208.916" cy="622.395" r="1.35333" stroke-width="0.5" stroke="black" fill="black"/>
   </g>
   <g id="cell37">
  <circle cx="991.105" cy="649.704" r="1.29827" stroke-width="0.5" stroke="black" fill="grey"/>
  <circle cx="991.105" cy="649.704" r="1.29055" stroke-width="0.5" stroke="black" fill="black"/>
   </g>
   <g id="cell38">
  <circle cx="228.983" cy="445.784" r="3.52498" stroke-width="0.5" stroke="black" fill="grey"/>
  <circle cx="228.983" cy="445.784" r="2.97602" stroke-width="0.5" stroke="black" fill="black"/>
   </g>
   <g id="cell39">
  <circle cx="496.525" cy="254.099" r="1.29827" stroke-width="0.5" stroke="black" fill="grey"/>
  <circle cx="496.525" cy="254.099" r="1.29055" stroke-width="0.5" stroke="black" fill="black"/>
   </g>
   <g id="cell40">
  <circle cx="183.037" cy="365.317" r="10.2911" stroke-width="0.5" stroke="black" fill="red"/>
  <circle cx="183.037" cy="365.317" r="6.22246" stroke-width="0.5" stroke="red" fill="red"/>
   </g>
   <g id="cell41">
  <circle cx="687.025" cy="689.028" r="10.3615" stroke-width="0.5" stroke="black" fill="red"/>
  <circle cx="687.025" cy="689.028" r="6.25834" stroke-width="0.5" stroke="red" fill="red"/>
   </g>
   <g id="cell42">
  <circle cx="163.912" cy="729.636" r="10.3615" stroke-width="0.5" stroke="black" fill="red"/>
  <circle cx="163.912" cy="729.636" r="6.25834" stroke-width="0.5" stroke="red" fill="red"/>
   </g>
   <g id="cell43">
  <circle cx="922.427" cy="371.68" r="10.0806" stroke-width="0.5" stroke="black" fill="red"/>
  <circle cx="922.427" cy="371.68" r="6.10985" stroke-width="0.5" stroke="red" fill="red"/>
   </g>
   <g id="cell44">
  <circle cx="820.252" cy="17.5193" r="10.2821" stroke-width="0.5" stroke="black" fill="red"/>
  <circle cx="820.252" cy="17.5193" r="6.21778" stroke-width="0.5" stroke="red" fill="red"/>
   </g>
   <g id="cell45">
  <circle cx="643.761" cy="818.263" r="9.77588" stroke-width="0.5" stroke="black" fill="red"/>
  <circle cx="643.761" cy="818.263" r="5.93735" stroke-width="0.5" stroke="red" fill="red"/>
   </g>
   <g id="cell46">
  <circle cx="50.03" cy="929.294" r="10.3933" stroke-width="0.5" stroke="black" fill="red"/>
  <circle cx="50.03" cy="929.294" r="6.27417" stroke-width="0.5" stroke="red" fill="red"/>
   </g>
   <g id="cell47">
  <circle cx="876.457" cy="438.825" r="10.3247" stroke-width="0.5" stroke="black" fill="red"/>
  <circle cx="876.457" cy="438.825" r="6.23971" stroke-width="0.5" stroke="red" fill="red"/>
   </g>
   <g id="cell48">
  <circle cx="940.362" cy="50.7463" r="10.4156" stroke-width="0.5" stroke="black" fill="red"/>
  <circle cx="940.362" cy="50.7463" r="6.2851" stroke-width="0.5" stroke="red" fill="red"/>
   </g>
   <g id="cell49">
  <circle cx="468.045" cy="785.515" r="10.0955" stroke-width="0.5" stroke="black" fill="red"/>
  <circle cx="468.045" cy="785.515" r="6.11797" stroke-width="0.5" stroke="red" fill="red"/>
   </g>
   <g id="cell50">
  <circle cx="17.5748" cy="467.151" r="10.4446" stroke-width="0.5" stroke="black" fill="red"/>
  <circle cx="17.5748" cy="467.151" r="6.29905" stroke-width="0.5" stroke="red" fill="red"/>
   </g>
   <g id="cell51">
  <circle cx="988.103" cy="138.191" r="10.4208" stroke-width="0.5" stroke="black" fill="red"/>
  <circle cx="988.103" cy="138.191" r="6.28762" stroke-width="0.5" stroke="red" fill="red"/>
   </g>
   <g id="cell52">
  <circle cx="289.862" cy="499.505" r="2.11603" stroke-width="0.5" stroke="black" fill="red"/>
  <circle cx="289.862" cy="499.505" r="1.97902" stroke-width="0.5" stroke="black" fill="black"/>
   </g>
   <g id="cell53">
  <circle cx="701.228" cy="340.656" r="10.3933" stroke-width="0.5" stroke="black" fill="red"/>
  <circle cx="701.228" cy="340.656" r="6.27417" stroke-width="0.5" stroke="red" fill="red"/>
   </g>
   <g id="cell54">
  <circle cx="441.945" cy="944.698" r="10.1758" stroke-width="0.5" stroke="black" fill="red"/>
  <circle cx="441.945" cy="944.698" r="6.16159" stroke-width="0.5" stroke="red" fill="red"/>
   </g>
   <g id="cell55">
  <circle cx="241.453" cy="686.695" r="8.41271" stroke-width="0.5" stroke="black" fill="red"/>
  <circle cx="241.453" cy="686.695" r="5.05167" stroke-width="0.5" stroke="red" fill="red"/>
   </g>
   <g id="cell56">
  <circle cx="547.919" cy="791.423" r="10.2999" stroke-width="0.5" stroke="black" fill="red"/>
  <circle cx="547.919" cy="791.423" r="6.22699" stroke-width="0.5" stroke="red" fill="red"/>
   </g>
   <g id="cell57">
  <circle cx="490.199" cy="557.874" r="10.3474" stroke-width="0.5" stroke="black" fill="red"/>
  <circle cx="490.199" cy="557.874" r="6.25125" stroke-width="0.5" stroke="red" fill="red"/>
   </g>
   <g id="cell58">
  <circle cx="76.9774" cy="938.228" r="10.1879" stroke-width="0.5" stroke="black" fill="red"/>
  <circle cx="76.9774" cy="938.228" r="6.16807" stroke-width="0.5" stroke="red" fill="red"/>
   </g>
   <g id="cell59">
  <circle cx="91.2664" cy="948.251" r="10.1098" stroke-width="0.5" stroke="black" fill="red"/>
  <circle cx="91.2664" cy="948.251" r="6.12585" stroke-width="0.5" stroke="red" fill="red"/>
   </g>
   <g id="cell60">
  <circle cx="273.15" cy="41.0805" r="9.99984" stroke-width="0.5" stroke="black" fill="red"/>
  <circle cx="273.15" cy="41.0805" r="6.06503" stroke-width="0.5" stroke="red" fill="red"/>
   </g>
   <g id="cell61">
  <circle cx="854.427" cy="144.105" r="10.1879" stroke-width="0.5" stroke="black" fill="red"/>
  <circle cx="854.427" cy="144.105" r="6.16807" stroke-width="0.5" stroke="red" fill="red"/>
   </g>
   <g id="cell62">
  <circle cx="705.477" cy="817.552" r="8.41271" stroke-width="0.5" stroke="black" fill="red"/>
  <circle cx="705.477" cy="817.552" r="5.05167" stroke-width="0.5" stroke="red" fill="red"/>
   </g>
   <g id="cell63">
  <circle cx="303.2" cy="191.203" r="10.3325" stroke-width="0.5" stroke="black" fill="red"/>
  <circle cx="303.2" cy="191.203" r="6.24369" stroke-width="0.5" stroke="red" fill="red"/>
   </g>
   <g id="cell64">
  <circle cx="569.869" cy="544.384" r="8.41271" stroke-width="0.5" stroke="black" fill="red"/>
  <circle cx="569.869" cy="544.384" r="5.05167" stroke-width="0.5" stroke="red" fill="red"/>
   </g>
   <g id="cell65">
  <circle cx="206.365" cy="838.565" r="9.04745" stroke-width="0.5" stroke="black" fill="red"/>
  <circle cx="206.365" cy="838.565" r="5.49345" stroke-width="0.5" stroke="red" fill="red"/>
   </g>
   <g id="cell66">
  <circle cx="41.2312" cy="149.441" r="9.86542" stroke-width="0.5" stroke="black" fill="red"/>
  <circle cx="41.2312" cy="149.441" r="5.98895" stroke-width="0.5" stroke="red" fill="red"/>
   </g>
   <g id="cell67">
  <circle cx="516.736" cy="274.425" r="9.77588" stroke-width="0.5" stroke="black" fill="red"/>
  <circle cx="516.736" cy="274.425" r="5.93735" stroke-width="0.5" stroke="red" fill="red"/>
   </g>
   <g id="cell68">
  <circle cx="746.81" cy="280.525" r="10.3747" stroke-width="0.5" stroke="black" fill="red"/>
  <circle cx="746.81" cy="280.525" r="6.26498" stroke-width="0.5" stroke="red" fill="red"/>
   </g>
   <g id="cell69">
  <circle cx="439.617" cy="274.948" r="9.99984" stroke-width="0.5" stroke="black" fill="red"/>
  <circle cx="439.617" cy="274.948" r="6.06503" stroke-width="0.5" stroke="red" fill="red"/>
   </g>
   <g id="cell70">
  <circle cx="563.636" cy="393.206" r="10.1098" stroke-width="0.5" stroke="black" fill="red"/>
  <circle cx="563.636" cy="393.206" r="6.12585" stroke-width="0.5" stroke="red" fill="red"/>
   </g>
   <g id="cell71">
  <circle cx="891.021" cy="534.065" r="10.4156" stroke-width="0.5" stroke="black" fill="red"/>
  <circle cx="891.021" cy="534.065" r="6.2851" stroke-width="0.5" stroke="red" fill="red"/>
   </g>
   <g id="cell72">
  <circle cx="215.299" cy="886.316" r="10.3084" stroke-width="0.5" stroke="black" fill="red"/>
  <circle cx="215.299" cy="886.316" r="6.23137" stroke-width="0.5" stroke="red" fill="red"/>
   </g>
   <g id="cell73">
  <circle cx="695.331" cy="470.115" r="10.3811" stroke-width="0.5" stroke="black" fill="red"/>
  <circle cx="695.331" cy="470.115" r="6.26814" stroke-width="0.5" stroke="red" fill="red"/>
   </g>
   <g id="cell74">
  <circle cx="830.004" cy="988.129" r="10.1758" stroke-width="0.5" stroke="black" fill="red"/>
  <circle cx="830.004" cy="988.129" r="6.16159" stroke-width="0.5" stroke="red" fill="red"/>
   </g>
   <g id="cell75">
  <circle cx="105.316" cy="322.754" r="10.3682" stroke-width="0.5" stroke="black" fill="red"/>
  <circle cx="105.316" cy="322.754" r="6.26172" stroke-width="0.5" stroke="red" fill="red"/>
   </g>
   <g id="cell76">
  <circle cx="791.419" cy="373.456" r="10.1506" stroke-width="0.5" stroke="black" fill="red"/>
  <circle cx="791.419" cy="373.456" r="6.14798" stroke-width="0.5" stroke="red" fill="red"/>
   </g>
   <g id="cell77">
  <circle cx="640.446" cy="849.402" r="10.2728" stroke-width="0.5" stroke="black" fill="red"/>
  <circle cx="640.446" cy="849.402" r="6.21295" stroke-width="0.5" stroke="red" fill="red"/>
   </g>
   <g id="cell78">
  <circle cx="600.942" cy="282.456" r="10.211" stroke-width="0.5" stroke="black" fill="red"/>
  <circle cx="600.942" cy="282.456" r="6.18041" stroke-width="0.5" stroke="red" fill="red"/>
   </g>
   <g id="cell79">
  <circle cx="970.131" cy="709.489" r="9.7992" stroke-width="0.5" stroke="black" fill="red"/>
  <circle cx="970.131" cy="709.489" r="5.95086" stroke-width="0.5" stroke="red" fill="red"/>
   </g>
   <g id="cell80">
  <circle cx="737.858" cy="678.152" r="8.41271" stroke-width="0.5" stroke="black" fill="yellow"/>
  <circle cx="737.858" cy="678.152" r="5.05167" stroke-width="0.5" stroke="yellow" fill="yellow"/>
   </g>
   <g id="cell81">
  <circle cx="501.601" cy="983.027" r="8.41271" stroke-width="0.5" stroke="black" fill="yellow"/>
  <circle cx="501.601" cy="983.027" r="5.05167" stroke-width="0.5" stroke="yellow" fill="yellow"/>
   </g>
   <g id="cell82">
  <circle cx="665.765" cy="431.424" r="10.3247" stroke-width="0.5" stroke="black" fill="yellow"/>
  <circle cx="665.765" cy="431.424" r="6.23971" stroke-width="0.5" stroke="yellow" fill="yellow"/>
   </g>
   <g id="cell83">
  <circle cx="614.978" cy="593.226" r="10.2632" stroke-width="0.5" stroke="black" fill="yellow"/>
  <circle cx="614.978" cy="593.226" r="6.20796" stroke-width="0.5" stroke="yellow" fill="yellow"/>
   </g>
   <g id="cell84">
  <circle cx="28.0421" cy="479.302" r="9.86542" stroke-width="0.5" stroke="black" fill="yellow"/>
  <circle cx="28.0421" cy="479.302" r="5.98895" stroke-width="0.5" stroke="yellow" fill="yellow"/>
   </g>
   <g id="cell85">
  <circle cx="719.063" cy="661.525" r="10.3811" stroke-width="0.5" stroke="black" fill="yellow"/>
  <circle cx="719.063" cy="661.525" r="6.26814" stroke-width="0.5" stroke="yellow" fill="yellow"/>
   </g>
   <g id="cell86">
  <circle cx="261.755" cy="421.467" r="9.34292" stroke-width="0.5" stroke="black" fill="yellow"/>
  <circle cx="261.755" cy="421.467" r="5.67875" stroke-width="0.5" stroke="yellow" fill="yellow"/>
   </g>
   <g id="cell87">
  <circle cx="763.104" cy="422.429" r="10.4355" stroke-width="0.5" stroke="black" fill="yellow"/>
  <circle cx="763.104" cy="422.429" r="6.2947" stroke-width="0.5" stroke="yellow" fill="yellow"/>
   </g>
   <g id="cell88">
  <circle cx="150.536" cy="111.07" r="10.2328" stroke-width="0.5" stroke="black" fill="yellow"/>
  <circle cx="150.536" cy="111.07" r="6.19197" stroke-width="0.5" stroke="yellow" fill="yellow"/>
   </g>
   <g id="cell89">
  <circle cx="58.0283" cy="549.737" r="9.5651" stroke-width="0.5" stroke="black" fill="yellow"/>
  <circle cx="58.0283" cy="549.737" r="5.81327" stroke-width="0.5" stroke="yellow" fill="yellow"/>
   </g>
   <g id="cell119">
  <circle cx="572.661" cy="30.1194" r="9.53557" stroke-width="0.5" stroke="black" fill="yellow"/>
  <circle cx="572.661" cy="30.1194" r="5.79561" stroke-width="0.5" stroke="yellow" fill="yellow"/>
   </g>
   <g id="cell91">
  <circle cx="56.67" cy="647.388" r="9.84395" stroke-width="0.5" stroke="black" fill="yellow"/>
  <circle cx="56.67" cy="647.388" r="5.97665" stroke-width="0.5" stroke="yellow" fill="yellow"/>
   </g>
   <g id="cell92">
  <circle cx="657.95" cy="292.207" r="10.211" stroke-width="0.5" stroke="black" fill="yellow"/>
  <circle cx="657.95" cy="292.207" r="6.18041" stroke-width="0.5" stroke="yellow" fill="yellow"/>
   </g>
   <g id="cell93">
  <circle cx="217.147" cy="899.587" r="10.4355" stroke-width="0.5" stroke="black" fill="yellow"/>
  <circle cx="217.147" cy="899.587" r="6.2947" stroke-width="0.5" stroke="yellow" fill="yellow"/>
   </g>
   <g id="cell94">
  <circle cx="371.69" cy="70.6529" r="10.0497" stroke-width="0.5" stroke="black" fill="yellow"/>
  <circle cx="371.69" cy="70.6529" r="6.09278" stroke-width="0.5" stroke="yellow" fill="yellow"/>
   </g>
   <g id="cell95">
  <circle cx="966.034" cy="893.035" r="10.1238" stroke-width="0.5" stroke="black" fill="yellow"/>
  <circle cx="966.034" cy="893.035" r="6.13347" stroke-width="0.5" stroke="yellow" fill="yellow"/>
   </g>
   <g id="cell96">
  <circle cx="791.661" cy="545.864" r="10.1374" stroke-width="0.5" stroke="black" fill="yellow"/>
  <circle cx="791.661" cy="545.864" r="6.14084" stroke-width="0.5" stroke="yellow" fill="yellow"/>
   </g>
   <g id="cell97">
  <circle cx="428.903" cy="123.473" r="9.16281" stroke-width="0.5" stroke="black" fill="yellow"/>
  <circle cx="428.903" cy="123.473" r="5.56677" stroke-width="0.5" stroke="yellow" fill="yellow"/>
   </g>
   <g id="cell98">
  <circle cx="944.956" cy="370.14" r="9.59391" stroke-width="0.5" stroke="black" fill="yellow"/>
  <circle cx="944.956" cy="370.14" r="5.83043" stroke-width="0.5" stroke="yellow" fill="yellow"/>
   </g>
   <g id="cell99">
  <circle cx="517.999" cy="988.696" r="9.77588" stroke-width="0.5" stroke="black" fill="yellow"/>
  <circle cx="517.999" cy="988.696" r="5.93735" stroke-width="0.5" stroke="yellow" fill="yellow"/>
   </g>
   <g id="cell100">
  <circle cx="154.484" cy="832.842" r="10.3873" stroke-width="0.5" stroke="black" fill="yellow"/>
  <circle cx="154.484" cy="832.842" r="6.2712" stroke-width="0.5" stroke="yellow" fill="yellow"/>
   </g>
   <g id="cell101">
  <circle cx="86.902" cy="143.279" r="8.41271" stroke-width="0.5" stroke="black" fill="yellow"/>
  <circle cx="86.902" cy="143.279" r="5.05167" stroke-width="0.5" stroke="yellow" fill="yellow"/>
   </g>
   <g id="cell102">
  <circle cx="613.349" cy="162.701" r="10.1374" stroke-width="0.5" stroke="black" fill="yellow"/>
  <circle cx="613.349" cy="162.701" r="6.14084" stroke-width="0.5" stroke="yellow" fill="yellow"/>
   </g>
   <g id="cell103">
  <circle cx="821.587" cy="877.133" r="8.41271" stroke-width="0.5" stroke="black" fill="yellow"/>
  <circle cx="821.587" cy="877.133" r="5.05167" stroke-width="0.5" stroke="yellow" fill="yellow"/>
   </g>
   <g id="cell104">
  <circle cx="795.181" cy="408.429" r="10.4258" stroke-width="0.5" stroke="black" fill="yellow"/>
  <circle cx="795.181" cy="408.429" r="6.29005" stroke-width="0.5" stroke="yellow" fill="yellow"/>
   </g>
   <g id="cell105">
  <circle cx="122.372" cy="416.919" r="8.41271" stroke-width="0.5" stroke="black" fill="yellow"/>
  <circle cx="122.372" cy="416.919" r="5.05167" stroke-width="0.5" stroke="yellow" fill="yellow"/>
   </g>
   <g id="cell106">
  <circle cx="32.9145" cy="976.744" r="10.3682" stroke-width="0.5" stroke="black" fill="yellow"/>
  <circle cx="32.9145" cy="976.744" r="6.26172" stroke-width="0.5" stroke="yellow" fill="yellow"/>
   </g>
   <g id="cell107">
  <circle cx="373.126" cy="450.513" r="8.41271" stroke-width="0.5" stroke="black" fill="yellow"/>
  <circle cx="373.126" cy="450.513" r="5.05167" stroke-width="0.5" stroke="yellow" fill="yellow"/>
   </g>
   <g id="cell108">
  <circle cx="698.205" cy="43.2631" r="10.4307" stroke-width="0.5" stroke="black" fill="yellow"/>
  <circle cx="698.205" cy="43.2631" r="6.29241" stroke-width="0.5" stroke="yellow" fill="yellow"/>
   </g>
   <g id="cell109">
  <circle cx="369.522" cy="945.16" r="10.1098" stroke-width="0.5" stroke="black" fill="yellow"/>
  <circle cx="369.522" cy="945.16" r="6.12585" stroke-width="0.5" stroke="yellow" fill="yellow"/>
   </g>
   <g id="cell110">
  <circle cx="854.883" cy="224.698" r="8.41271" stroke-width="0.5" stroke="black" fill="yellow"/>
  <circle cx="854.883" cy="224.698" r="5.05167" stroke-width="0.5" stroke="yellow" fill="yellow"/>
   </g>
   <g id="cell111">
  <circle cx="773.548" cy="375.347" r="9.16281" stroke-width="0.5" stroke="black" fill="yellow"/>
  <circle cx="773.548" cy="375.347" r="5.56677" stroke-width="0.5" stroke="yellow" fill="yellow"/>
   </g>
   <g id="cell112">
  <circle cx="740.922" cy="775.395" r="10.3747" stroke-width="0.5" stroke="black" fill="yellow"/>
  <circle cx="740.922" cy="775.395" r="6.26498" stroke-width="0.5" stroke="yellow" fill="yellow"/>
   </g>
   <g id="cell116">
  <circle cx="812.445" cy="487.569" r="8.84788" stroke-width="0.5" stroke="black" fill="yellow"/>
  <circle cx="812.445" cy="487.569" r="5.36278" stroke-width="0.5" stroke="yellow" fill="yellow"/>
   </g>
   <g id="cell114">
  <circle cx="25.7805" cy="343.21" r="10.0497" stroke-width="0.5" stroke="black" fill="yellow"/>
  <circle cx="25.7805" cy="343.21" r="6.09278" stroke-width="0.5" stroke="yellow" fill="yellow"/>
   </g>
  </g>
 </g>
  <rect x="775" y="1035" width="200" height="10" stroke-width="2" stroke="rgb(255,255,255)" fill="rgb(0,0,0)"/>
  <text x="781.25" y="1028.75"
   font-family="Arial" font-size="25" fill="black" >
   200 &#956;m
  </text>
  <text x="25" y="1045"
   font-family="Arial" font-size="18.75" fill="black" >
   0 days, 0 hours, 0 minutes, and 40.4683 seconds
  </text>
  <rect x="0" y="70" width="1000" height="1000" stroke-width="2" stroke="rgb(0,0,0)" fill="none"/>
</svg>
