<?xml version="1.0" encoding="UTF-8" standalone="no"?>
<!-- Created with PhysiCell (http://PhysiCell.MathCancer.org/) -->
<svg 
 xmlns:dc="http://purl.org/dc/elements/1.1/" 
 xmlns:cc="http://creativecommons.org/ns#" 
 xmlns:rdf="http://www.w3.org/1999/02/22-rdf-syntax-ns#" 
 xmlns:svg="http://www.w3.org/2000/svg" 
 xmlns="http://www.w3.org/2000/svg" 
 version="1.1" 
 width="1000" 
 height="1070" 
 id="svg2">
  <rect x="0" y="0" width="1000" height="1070" stroke-width="2" stroke="white" fill="white"/>
  <text x="12.5" y="30"
   font-family="Arial" font-size="25" fill="black" >
   Current time: 0 days, 6 hours, and 0.00 minutes, z = 0.00 &#956;m
  </text>
  <text x="12.5" y="57.5"
   font-family="Arial" font-size="23.75" fill="black" >
   120 agents
  </text>
 <g id="tissue" 
    transform="translate(0,1070) scale(1,-1)">
  <g id="ECM">
  </g>
  <g id="cells">
   <g id="cell0">
  <circle cx="574.361" cy="586.377" r="7.00193" stroke-width="0.5" stroke="black" fill="grey"/>
  <circle cx="574.361" cy="586.377" r="4.27611" stroke-width="0.5" stroke="black" fill="black"/>
   </g>
   <g id="cell1">
  <circle cx="870.073" cy="617.983" r="8.41271" stroke-width="0.5" stroke="black" fill="grey"/>
  <circle cx="870.073" cy="617.983" r="5.05167" stroke-width="0.5" stroke="grey" fill="grey"/>
   </g>
   <g id="cell2">
  <circle cx="551.651" cy="852.136" r="9.7273" stroke-width="0.5" stroke="black" fill="grey"/>
  <circle cx="551.651" cy="852.136" r="5.90906" stroke-width="0.5" stroke="grey" fill="grey"/>
   </g>
   <g id="cell3">
  <circle cx="633.458" cy="631.563" r="9.77588" stroke-width="0.5" stroke="black" fill="grey"/>
  <circle cx="633.458" cy="631.563" r="5.93735" stroke-width="0.5" stroke="grey" fill="grey"/>
   </g>
   <g id="cell4">
  <circle cx="461.133" cy="283.986" r="10.1098" stroke-width="0.5" stroke="black" fill="grey"/>
  <circle cx="461.133" cy="283.986" r="6.12585" stroke-width="0.5" stroke="grey" fill="grey"/>
   </g>
   <g id="cell5">
  <circle cx="71.1058" cy="979.348" r="9.12489" stroke-width="0.5" stroke="black" fill="grey"/>
  <circle cx="71.1058" cy="979.348" r="5.54282" stroke-width="0.5" stroke="grey" fill="grey"/>
   </g>
   <g id="cell6">
  <circle cx="384.421" cy="446.809" r="8.41271" stroke-width="0.5" stroke="black" fill="grey"/>
  <circle cx="384.421" cy="446.809" r="5.05167" stroke-width="0.5" stroke="grey" fill="grey"/>
   </g>
   <g id="cell7">
  <circle cx="794.695" cy="514.494" r="8.41271" stroke-width="0.5" stroke="black" fill="grey"/>
  <circle cx="794.695" cy="514.494" r="5.05167" stroke-width="0.5" stroke="grey" fill="grey"/>
   </g>
   <g id="cell8">
  <circle cx="566.177" cy="369.979" r="9.99984" stroke-width="0.5" stroke="black" fill="grey"/>
  <circle cx="566.177" cy="369.979" r="6.06503" stroke-width="0.5" stroke="grey" fill="grey"/>
   </g>
   <g id="cell9">
  <circle cx="817.569" cy="80.3242" r="9.7273" stroke-width="0.5" stroke="black" fill="grey"/>
  <circle cx="817.569" cy="80.3242" r="5.90906" stroke-width="0.5" stroke="grey" fill="grey"/>
   </g>
   <g id="cell10">
  <circle cx="94.8542" cy="629.885" r="9.86542" stroke-width="0.5" stroke="black" fill="grey"/>
  <circle cx="94.8542" cy="629.885" r="5.98895" stroke-width="0.5" stroke="grey" fill="grey"/>
   </g>
   <g id="cell11">
  <circle cx="383.153" cy="797.307" r="9.04745" stroke-width="0.5" stroke="black" fill="grey"/>
  <circle cx="383.153" cy="797.307" r="5.49345" stroke-width="0.5" stroke="grey" fill="grey"/>
   </g>
   <g id="cell12">
  <circle cx="784.475" cy="107.318" r="4.22126" stroke-width="0.5" stroke="black" fill="grey"/>
  <circle cx="784.475" cy="107.318" r="3.19538" stroke-width="0.5" stroke="black" fill="black"/>
   </g>
   <g id="cell13">
  <circle cx="839.499" cy="986.815" r="8.41271" stroke-width="0.5" stroke="black" fill="grey"/>
  <circle cx="839.499" cy="986.815" r="5.05167" stroke-width="0.5" stroke="grey" fill="grey"/>
   </g>
   <g id="cell14">
  <circle cx="804.144" cy="815.099" r="4.28136" stroke-width="0.5" stroke="black" fill="grey"/>
  <circle cx="804.144" cy="815.099" r="3.09488" stroke-width="0.5" stroke="black" fill="black"/>
   </g>
   <g id="cell15">
  <circle cx="511.084" cy="783.466" r="8.54454" stroke-width="0.5" stroke="black" fill="grey"/>
  <circle cx="511.084" cy="783.466" r="5.14947" stroke-width="0.5" stroke="grey" fill="grey"/>
   </g>
   <g id="cell16">
  <circle cx="131.324" cy="693.671" r="9.92631" stroke-width="0.5" stroke="black" fill="grey"/>
  <circle cx="131.324" cy="693.671" r="6.02363" stroke-width="0.5" stroke="grey" fill="grey"/>
   </g>
   <g id="cell17">
  <circle cx="590.134" cy="141.77" r="8.41271" stroke-width="0.5" stroke="black" fill="grey"/>
  <circle cx="590.134" cy="141.77" r="5.05167" stroke-width="0.5" stroke="grey" fill="grey"/>
   </g>
   <g id="cell18">
  <circle cx="915.037" cy="732.226" r="8.68937" stroke-width="0.5" stroke="black" fill="grey"/>
  <circle cx="915.037" cy="732.226" r="5.25417" stroke-width="0.5" stroke="grey" fill="grey"/>
   </g>
   <g id="cell19">
  <circle cx="124.229" cy="414.013" r="9.67603" stroke-width="0.5" stroke="black" fill="grey"/>
  <circle cx="124.229" cy="414.013" r="5.87901" stroke-width="0.5" stroke="grey" fill="grey"/>
   </g>
   <g id="cell20">
  <circle cx="259.068" cy="189.885" r="4.11239" stroke-width="0.5" stroke="black" fill="grey"/>
  <circle cx="259.068" cy="189.885" r="3.1923" stroke-width="0.5" stroke="black" fill="black"/>
   </g>
   <g id="cell21">
  <circle cx="757.518" cy="453.097" r="8.41271" stroke-width="0.5" stroke="black" fill="grey"/>
  <circle cx="757.518" cy="453.097" r="5.05167" stroke-width="0.5" stroke="grey" fill="grey"/>
   </g>
   <g id="cell22">
  <circle cx="584.529" cy="144.952" r="9.99984" stroke-width="0.5" stroke="black" fill="grey"/>
  <circle cx="584.529" cy="144.952" r="6.06503" stroke-width="0.5" stroke="grey" fill="grey"/>
   </g>
   <g id="cell23">
  <circle cx="338.11" cy="626.477" r="9.99984" stroke-width="0.5" stroke="black" fill="grey"/>
  <circle cx="338.11" cy="626.477" r="6.06503" stroke-width="0.5" stroke="grey" fill="grey"/>
   </g>
   <g id="cell24">
  <circle cx="590.762" cy="204.322" r="8.68937" stroke-width="0.5" stroke="black" fill="grey"/>
  <circle cx="590.762" cy="204.322" r="5.25417" stroke-width="0.5" stroke="grey" fill="grey"/>
   </g>
   <g id="cell25">
  <circle cx="405.534" cy="922.496" r="8.41271" stroke-width="0.5" stroke="black" fill="grey"/>
  <circle cx="405.534" cy="922.496" r="5.05167" stroke-width="0.5" stroke="grey" fill="grey"/>
   </g>
   <g id="cell26">
  <circle cx="683.445" cy="439.768" r="2.27433" stroke-width="0.5" stroke="black" fill="grey"/>
  <circle cx="683.445" cy="439.768" r="2.14892" stroke-width="0.5" stroke="black" fill="black"/>
   </g>
   <g id="cell27">
  <circle cx="613.201" cy="437.111" r="1.79449" stroke-width="0.5" stroke="black" fill="grey"/>
  <circle cx="613.201" cy="437.111" r="1.73665" stroke-width="0.5" stroke="black" fill="black"/>
   </g>
   <g id="cell28">
  <circle cx="693.632" cy="102.329" r="2.97674" stroke-width="0.5" stroke="black" fill="grey"/>
  <circle cx="693.632" cy="102.329" r="2.45592" stroke-width="0.5" stroke="black" fill="black"/>
   </g>
   <g id="cell29">
  <circle cx="987.073" cy="683.541" r="9.30826" stroke-width="0.5" stroke="black" fill="grey"/>
  <circle cx="987.073" cy="683.541" r="5.65742" stroke-width="0.5" stroke="grey" fill="grey"/>
   </g>
   <g id="cell30">
  <circle cx="669.897" cy="167.238" r="1.74522" stroke-width="0.5" stroke="black" fill="grey"/>
  <circle cx="669.897" cy="167.238" r="1.69589" stroke-width="0.5" stroke="black" fill="black"/>
   </g>
   <g id="cell31">
  <circle cx="395.321" cy="104.33" r="8.41271" stroke-width="0.5" stroke="black" fill="grey"/>
  <circle cx="395.321" cy="104.33" r="5.05167" stroke-width="0.5" stroke="grey" fill="grey"/>
   </g>
   <g id="cell32">
  <circle cx="281.99" cy="593.873" r="3.69562" stroke-width="0.5" stroke="black" fill="grey"/>
  <circle cx="281.99" cy="593.873" r="3.00589" stroke-width="0.5" stroke="black" fill="black"/>
   </g>
   <g id="cell33">
  <circle cx="330.278" cy="566.812" r="9.62199" stroke-width="0.5" stroke="black" fill="grey"/>
  <circle cx="330.278" cy="566.812" r="5.8471" stroke-width="0.5" stroke="grey" fill="grey"/>
   </g>
   <g id="cell34">
  <circle cx="438.799" cy="637.902" r="8.41271" stroke-width="0.5" stroke="black" fill="grey"/>
  <circle cx="438.799" cy="637.902" r="5.05167" stroke-width="0.5" stroke="black" fill="black"/>
   </g>
   <g id="cell35">
  <circle cx="990.567" cy="127.854" r="10.0955" stroke-width="0.5" stroke="black" fill="grey"/>
  <circle cx="990.567" cy="127.854" r="6.11797" stroke-width="0.5" stroke="grey" fill="grey"/>
   </g>
   <g id="cell36">
  <circle cx="193.549" cy="626.532" r="9.5651" stroke-width="0.5" stroke="black" fill="grey"/>
  <circle cx="193.549" cy="626.532" r="5.81327" stroke-width="0.5" stroke="grey" fill="grey"/>
   </g>
   <g id="cell37">
  <circle cx="986.125" cy="644.924" r="9.92631" stroke-width="0.5" stroke="black" fill="grey"/>
  <circle cx="986.125" cy="644.924" r="6.02363" stroke-width="0.5" stroke="grey" fill="grey"/>
   </g>
   <g id="cell38">
  <circle cx="252.296" cy="396.035" r="5.95973" stroke-width="0.5" stroke="black" fill="grey"/>
  <circle cx="252.296" cy="396.035" r="3.76978" stroke-width="0.5" stroke="black" fill="black"/>
   </g>
   <g id="cell39">
  <circle cx="487.088" cy="241.479" r="2.38928" stroke-width="0.5" stroke="black" fill="grey"/>
  <circle cx="487.088" cy="241.479" r="2.17031" stroke-width="0.5" stroke="black" fill="black"/>
   </g>
   <g id="cell40">
  <circle cx="149.353" cy="369.887" r="8.72828" stroke-width="0.5" stroke="black" fill="red"/>
  <circle cx="149.353" cy="369.887" r="5.28134" stroke-width="0.5" stroke="red" fill="red"/>
   </g>
   <g id="cell41">
  <circle cx="697.128" cy="609.593" r="10.1098" stroke-width="0.5" stroke="black" fill="red"/>
  <circle cx="697.128" cy="609.593" r="6.12585" stroke-width="0.5" stroke="red" fill="red"/>
   </g>
   <g id="cell42">
  <circle cx="131.67" cy="747.256" r="8.41271" stroke-width="0.5" stroke="black" fill="red"/>
  <circle cx="131.67" cy="747.256" r="5.05167" stroke-width="0.5" stroke="red" fill="red"/>
   </g>
   <g id="cell43">
  <circle cx="947.233" cy="354.797" r="8.41271" stroke-width="0.5" stroke="black" fill="red"/>
  <circle cx="947.233" cy="354.797" r="5.05167" stroke-width="0.5" stroke="red" fill="red"/>
   </g>
   <g id="cell44">
  <circle cx="826.205" cy="17.7043" r="9.82189" stroke-width="0.5" stroke="black" fill="red"/>
  <circle cx="826.205" cy="17.7043" r="5.96395" stroke-width="0.5" stroke="red" fill="red"/>
   </g>
   <g id="cell45">
  <circle cx="603.018" cy="833.37" r="9.77588" stroke-width="0.5" stroke="black" fill="red"/>
  <circle cx="603.018" cy="833.37" r="5.93735" stroke-width="0.5" stroke="red" fill="red"/>
   </g>
   <g id="cell46">
  <circle cx="75.0844" cy="963.2" r="8.41271" stroke-width="0.5" stroke="black" fill="red"/>
  <circle cx="75.0844" cy="963.2" r="5.05167" stroke-width="0.5" stroke="red" fill="red"/>
   </g>
   <g id="cell47">
  <circle cx="863.02" cy="465.045" r="9.5651" stroke-width="0.5" stroke="black" fill="red"/>
  <circle cx="863.02" cy="465.045" r="5.81327" stroke-width="0.5" stroke="red" fill="red"/>
   </g>
   <g id="cell48">
  <circle cx="989.468" cy="55.126" r="9.59391" stroke-width="0.5" stroke="black" fill="red"/>
  <circle cx="989.468" cy="55.126" r="5.83043" stroke-width="0.5" stroke="red" fill="red"/>
   </g>
   <g id="cell49">
  <circle cx="457.841" cy="738.426" r="9.08642" stroke-width="0.5" stroke="black" fill="red"/>
  <circle cx="457.841" cy="738.426" r="5.51837" stroke-width="0.5" stroke="red" fill="red"/>
   </g>
   <g id="cell50">
  <circle cx="60.8364" cy="425.28" r="8.88811" stroke-width="0.5" stroke="black" fill="red"/>
  <circle cx="60.8364" cy="425.28" r="5.38958" stroke-width="0.5" stroke="red" fill="red"/>
   </g>
   <g id="cell51">
  <circle cx="971.089" cy="112.503" r="2.91074" stroke-width="0.5" stroke="black" fill="red"/>
  <circle cx="971.089" cy="112.503" r="2.42562" stroke-width="0.5" stroke="black" fill="black"/>
   </g>
   <g id="cell52">
  <circle cx="299.062" cy="516.961" r="8.41271" stroke-width="0.5" stroke="black" fill="red"/>
  <circle cx="299.062" cy="516.961" r="5.05167" stroke-width="0.5" stroke="red" fill="red"/>
   </g>
   <g id="cell53">
  <circle cx="707.845" cy="313.715" r="8.41271" stroke-width="0.5" stroke="black" fill="red"/>
  <circle cx="707.845" cy="313.715" r="5.05167" stroke-width="0.5" stroke="red" fill="red"/>
   </g>
   <g id="cell54">
  <circle cx="405.151" cy="938.215" r="9.5053" stroke-width="0.5" stroke="black" fill="red"/>
  <circle cx="405.151" cy="938.215" r="5.77744" stroke-width="0.5" stroke="red" fill="red"/>
   </g>
   <g id="cell55">
  <circle cx="202.446" cy="714.732" r="8.48289" stroke-width="0.5" stroke="black" fill="red"/>
  <circle cx="202.446" cy="714.732" r="5.10317" stroke-width="0.5" stroke="red" fill="red"/>
   </g>
   <g id="cell56">
  <circle cx="552.135" cy="873.522" r="8.41271" stroke-width="0.5" stroke="black" fill="red"/>
  <circle cx="552.135" cy="873.522" r="5.05167" stroke-width="0.5" stroke="red" fill="red"/>
   </g>
   <g id="cell57">
  <circle cx="526.182" cy="537.538" r="9.70201" stroke-width="0.5" stroke="black" fill="red"/>
  <circle cx="526.182" cy="537.538" r="5.89426" stroke-width="0.5" stroke="red" fill="red"/>
   </g>
   <g id="cell58">
  <circle cx="89.154" cy="901.091" r="9.99984" stroke-width="0.5" stroke="black" fill="red"/>
  <circle cx="89.154" cy="901.091" r="6.06503" stroke-width="0.5" stroke="red" fill="red"/>
   </g>
   <g id="cell59">
  <circle cx="94.2327" cy="939.446" r="8.51252" stroke-width="0.5" stroke="black" fill="red"/>
  <circle cx="94.2327" cy="939.446" r="5.12552" stroke-width="0.5" stroke="red" fill="red"/>
   </g>
   <g id="cell60">
  <circle cx="312.04" cy="30.0914" r="9.70201" stroke-width="0.5" stroke="black" fill="red"/>
  <circle cx="312.04" cy="30.0914" r="5.89426" stroke-width="0.5" stroke="red" fill="red"/>
   </g>
   <g id="cell61">
  <circle cx="853.676" cy="147.318" r="9.77588" stroke-width="0.5" stroke="black" fill="red"/>
  <circle cx="853.676" cy="147.318" r="5.93735" stroke-width="0.5" stroke="red" fill="red"/>
   </g>
   <g id="cell62">
  <circle cx="709.836" cy="854.328" r="8.41271" stroke-width="0.5" stroke="black" fill="red"/>
  <circle cx="709.836" cy="854.328" r="5.05167" stroke-width="0.5" stroke="red" fill="red"/>
   </g>
   <g id="cell63">
  <circle cx="269.881" cy="167.288" r="9.7273" stroke-width="0.5" stroke="black" fill="red"/>
  <circle cx="269.881" cy="167.288" r="5.90906" stroke-width="0.5" stroke="red" fill="red"/>
   </g>
   <g id="cell64">
  <circle cx="587.312" cy="574.269" r="9.96412" stroke-width="0.5" stroke="black" fill="red"/>
  <circle cx="587.312" cy="574.269" r="6.04499" stroke-width="0.5" stroke="red" fill="red"/>
   </g>
   <g id="cell65">
  <circle cx="176.363" cy="836.578" r="8.41271" stroke-width="0.5" stroke="black" fill="red"/>
  <circle cx="176.363" cy="836.578" r="5.05167" stroke-width="0.5" stroke="red" fill="red"/>
   </g>
   <g id="cell66">
  <circle cx="18.9656" cy="101.647" r="8.41271" stroke-width="0.5" stroke="black" fill="red"/>
  <circle cx="18.9656" cy="101.647" r="5.05167" stroke-width="0.5" stroke="red" fill="red"/>
   </g>
   <g id="cell67">
  <circle cx="572.278" cy="277.297" r="9.94548" stroke-width="0.5" stroke="black" fill="red"/>
  <circle cx="572.278" cy="277.297" r="6.03448" stroke-width="0.5" stroke="red" fill="red"/>
   </g>
   <g id="cell68">
  <circle cx="746.859" cy="306.714" r="9.7273" stroke-width="0.5" stroke="black" fill="red"/>
  <circle cx="746.859" cy="306.714" r="5.90906" stroke-width="0.5" stroke="red" fill="red"/>
   </g>
   <g id="cell69">
  <circle cx="442.489" cy="211.624" r="8.57856" stroke-width="0.5" stroke="black" fill="red"/>
  <circle cx="442.489" cy="211.624" r="5.17461" stroke-width="0.5" stroke="red" fill="red"/>
   </g>
   <g id="cell70">
  <circle cx="584.694" cy="407.164" r="9.7273" stroke-width="0.5" stroke="black" fill="red"/>
  <circle cx="584.694" cy="407.164" r="5.90906" stroke-width="0.5" stroke="red" fill="red"/>
   </g>
   <g id="cell71">
  <circle cx="898.151" cy="579.978" r="8.41271" stroke-width="0.5" stroke="black" fill="red"/>
  <circle cx="898.151" cy="579.978" r="5.05167" stroke-width="0.5" stroke="red" fill="red"/>
   </g>
   <g id="cell72">
  <circle cx="226.86" cy="897.49" r="8.41271" stroke-width="0.5" stroke="black" fill="red"/>
  <circle cx="226.86" cy="897.49" r="5.05167" stroke-width="0.5" stroke="red" fill="red"/>
   </g>
   <g id="cell73">
  <circle cx="664.889" cy="454.586" r="8.41271" stroke-width="0.5" stroke="black" fill="red"/>
  <circle cx="664.889" cy="454.586" r="5.05167" stroke-width="0.5" stroke="red" fill="red"/>
   </g>
   <g id="cell74">
  <circle cx="857.482" cy="986.671" r="8.41271" stroke-width="0.5" stroke="black" fill="red"/>
  <circle cx="857.482" cy="986.671" r="5.05167" stroke-width="0.5" stroke="red" fill="red"/>
   </g>
   <g id="cell75">
  <circle cx="117.439" cy="288.426" r="8.41271" stroke-width="0.5" stroke="black" fill="red"/>
  <circle cx="117.439" cy="288.426" r="5.05167" stroke-width="0.5" stroke="red" fill="red"/>
   </g>
   <g id="cell76">
  <circle cx="823.327" cy="417.583" r="8.41271" stroke-width="0.5" stroke="black" fill="red"/>
  <circle cx="823.327" cy="417.583" r="5.05167" stroke-width="0.5" stroke="red" fill="red"/>
   </g>
   <g id="cell77">
  <circle cx="700.025" cy="879.096" r="9.94548" stroke-width="0.5" stroke="black" fill="red"/>
  <circle cx="700.025" cy="879.096" r="6.03448" stroke-width="0.5" stroke="red" fill="red"/>
   </g>
   <g id="cell78">
  <circle cx="590.214" cy="305.575" r="9.7273" stroke-width="0.5" stroke="black" fill="red"/>
  <circle cx="590.214" cy="305.575" r="5.90906" stroke-width="0.5" stroke="red" fill="red"/>
   </g>
   <g id="cell79">
  <circle cx="954.918" cy="718.187" r="9.41008" stroke-width="0.5" stroke="black" fill="red"/>
  <circle cx="954.918" cy="718.187" r="5.71981" stroke-width="0.5" stroke="red" fill="red"/>
   </g>
   <g id="cell80">
  <circle cx="732.638" cy="685.621" r="9.99984" stroke-width="0.5" stroke="black" fill="yellow"/>
  <circle cx="732.638" cy="685.621" r="6.06503" stroke-width="0.5" stroke="yellow" fill="yellow"/>
   </g>
   <g id="cell81">
  <circle cx="564.369" cy="941.718" r="10.0806" stroke-width="0.5" stroke="black" fill="yellow"/>
  <circle cx="564.369" cy="941.718" r="6.10985" stroke-width="0.5" stroke="yellow" fill="yellow"/>
   </g>
   <g id="cell82">
  <circle cx="648.628" cy="397.106" r="10.0955" stroke-width="0.5" stroke="black" fill="yellow"/>
  <circle cx="648.628" cy="397.106" r="6.11797" stroke-width="0.5" stroke="yellow" fill="yellow"/>
   </g>
   <g id="cell83">
  <circle cx="621.986" cy="623.653" r="9.62199" stroke-width="0.5" stroke="black" fill="yellow"/>
  <circle cx="621.986" cy="623.653" r="5.8471" stroke-width="0.5" stroke="yellow" fill="yellow"/>
   </g>
   <g id="cell84">
  <circle cx="21.9873" cy="459.301" r="10.0336" stroke-width="0.5" stroke="black" fill="yellow"/>
  <circle cx="21.9873" cy="459.301" r="6.08382" stroke-width="0.5" stroke="yellow" fill="yellow"/>
   </g>
   <g id="cell85">
  <circle cx="720.945" cy="705.676" r="9.92631" stroke-width="0.5" stroke="black" fill="yellow"/>
  <circle cx="720.945" cy="705.676" r="6.02363" stroke-width="0.5" stroke="yellow" fill="yellow"/>
   </g>
   <g id="cell86">
  <circle cx="289.555" cy="393.762" r="9.82189" stroke-width="0.5" stroke="black" fill="yellow"/>
  <circle cx="289.555" cy="393.762" r="5.96395" stroke-width="0.5" stroke="yellow" fill="yellow"/>
   </g>
   <g id="cell87">
  <circle cx="726.71" cy="425.153" r="10.0336" stroke-width="0.5" stroke="black" fill="yellow"/>
  <circle cx="726.71" cy="425.153" r="6.08382" stroke-width="0.5" stroke="yellow" fill="yellow"/>
   </g>
   <g id="cell88">
  <circle cx="136.434" cy="108.74" r="8.41271" stroke-width="0.5" stroke="black" fill="yellow"/>
  <circle cx="136.434" cy="108.74" r="5.05167" stroke-width="0.5" stroke="yellow" fill="yellow"/>
   </g>
   <g id="cell89">
  <circle cx="91.034" cy="563.104" r="8.41271" stroke-width="0.5" stroke="black" fill="yellow"/>
  <circle cx="91.034" cy="563.104" r="5.05167" stroke-width="0.5" stroke="yellow" fill="yellow"/>
   </g>
   <g id="cell90">
  <circle cx="583.24" cy="573.979" r="9.88629" stroke-width="0.5" stroke="black" fill="yellow"/>
  <circle cx="583.24" cy="573.979" r="6.00088" stroke-width="0.5" stroke="yellow" fill="yellow"/>
   </g>
   <g id="cell91">
  <circle cx="32.012" cy="682.775" r="9.23685" stroke-width="0.5" stroke="black" fill="yellow"/>
  <circle cx="32.012" cy="682.775" r="5.61315" stroke-width="0.5" stroke="yellow" fill="yellow"/>
   </g>
   <g id="cell92">
  <circle cx="629.053" cy="283.603" r="9.86542" stroke-width="0.5" stroke="black" fill="yellow"/>
  <circle cx="629.053" cy="283.603" r="5.98895" stroke-width="0.5" stroke="yellow" fill="yellow"/>
   </g>
   <g id="cell93">
  <circle cx="191.055" cy="894.713" r="8.41271" stroke-width="0.5" stroke="black" fill="yellow"/>
  <circle cx="191.055" cy="894.713" r="5.05167" stroke-width="0.5" stroke="yellow" fill="yellow"/>
   </g>
   <g id="cell94">
  <circle cx="361.1" cy="90.0649" r="8.41271" stroke-width="0.5" stroke="black" fill="yellow"/>
  <circle cx="361.1" cy="90.0649" r="5.05167" stroke-width="0.5" stroke="yellow" fill="yellow"/>
   </g>
   <g id="cell95">
  <circle cx="984.587" cy="863.962" r="8.65127" stroke-width="0.5" stroke="black" fill="yellow"/>
  <circle cx="984.587" cy="863.962" r="5.2272" stroke-width="0.5" stroke="yellow" fill="yellow"/>
   </g>
   <g id="cell96">
  <circle cx="820.009" cy="521.83" r="8.7678" stroke-width="0.5" stroke="black" fill="yellow"/>
  <circle cx="820.009" cy="521.83" r="5.30857" stroke-width="0.5" stroke="yellow" fill="yellow"/>
   </g>
   <g id="cell97">
  <circle cx="449.834" cy="123.734" r="8.41271" stroke-width="0.5" stroke="black" fill="yellow"/>
  <circle cx="449.834" cy="123.734" r="5.05167" stroke-width="0.5" stroke="yellow" fill="yellow"/>
   </g>
   <g id="cell98">
  <circle cx="914.729" cy="352.426" r="9.7273" stroke-width="0.5" stroke="black" fill="yellow"/>
  <circle cx="914.729" cy="352.426" r="5.90906" stroke-width="0.5" stroke="yellow" fill="yellow"/>
   </g>
   <g id="cell99">
  <circle cx="449.701" cy="957.893" r="8.41271" stroke-width="0.5" stroke="black" fill="yellow"/>
  <circle cx="449.701" cy="957.893" r="5.05167" stroke-width="0.5" stroke="yellow" fill="yellow"/>
   </g>
   <g id="cell100">
  <circle cx="170.013" cy="899.46" r="8.96831" stroke-width="0.5" stroke="black" fill="yellow"/>
  <circle cx="170.013" cy="899.46" r="5.44228" stroke-width="0.5" stroke="yellow" fill="yellow"/>
   </g>
   <g id="cell101">
  <circle cx="29.7083" cy="174.06" r="10.0955" stroke-width="0.5" stroke="black" fill="yellow"/>
  <circle cx="29.7083" cy="174.06" r="6.11797" stroke-width="0.5" stroke="yellow" fill="yellow"/>
   </g>
   <g id="cell102">
  <circle cx="611.566" cy="144.433" r="8.41271" stroke-width="0.5" stroke="black" fill="yellow"/>
  <circle cx="611.566" cy="144.433" r="5.05167" stroke-width="0.5" stroke="yellow" fill="yellow"/>
   </g>
   <g id="cell103">
  <circle cx="799.366" cy="852.279" r="8.41271" stroke-width="0.5" stroke="black" fill="yellow"/>
  <circle cx="799.366" cy="852.279" r="5.05167" stroke-width="0.5" stroke="yellow" fill="yellow"/>
   </g>
   <g id="cell104">
  <circle cx="790.326" cy="435.22" r="8.61424" stroke-width="0.5" stroke="black" fill="yellow"/>
  <circle cx="790.326" cy="435.22" r="5.20061" stroke-width="0.5" stroke="yellow" fill="yellow"/>
   </g>
   <g id="cell105">
  <circle cx="139.008" cy="404.513" r="9.75192" stroke-width="0.5" stroke="black" fill="yellow"/>
  <circle cx="139.008" cy="404.513" r="5.92342" stroke-width="0.5" stroke="yellow" fill="yellow"/>
   </g>
   <g id="cell106">
  <circle cx="48.8982" cy="962.826" r="8.41271" stroke-width="0.5" stroke="black" fill="yellow"/>
  <circle cx="48.8982" cy="962.826" r="5.05167" stroke-width="0.5" stroke="yellow" fill="yellow"/>
   </g>
   <g id="cell107">
  <circle cx="342.162" cy="439.993" r="8.41271" stroke-width="0.5" stroke="black" fill="yellow"/>
  <circle cx="342.162" cy="439.993" r="5.05167" stroke-width="0.5" stroke="yellow" fill="yellow"/>
   </g>
   <g id="cell108">
  <circle cx="708.83" cy="37.7527" r="9.62199" stroke-width="0.5" stroke="black" fill="yellow"/>
  <circle cx="708.83" cy="37.7527" r="5.8471" stroke-width="0.5" stroke="yellow" fill="yellow"/>
   </g>
   <g id="cell109">
  <circle cx="364.776" cy="978.968" r="8.4325" stroke-width="0.5" stroke="black" fill="yellow"/>
  <circle cx="364.776" cy="978.968" r="5.06552" stroke-width="0.5" stroke="yellow" fill="yellow"/>
   </g>
   <g id="cell110">
  <circle cx="858.325" cy="232.988" r="9.92631" stroke-width="0.5" stroke="black" fill="yellow"/>
  <circle cx="858.325" cy="232.988" r="6.02363" stroke-width="0.5" stroke="yellow" fill="yellow"/>
   </g>
   <g id="cell111">
  <circle cx="760.6" cy="370.813" r="8.41271" stroke-width="0.5" stroke="black" fill="yellow"/>
  <circle cx="760.6" cy="370.813" r="5.05167" stroke-width="0.5" stroke="yellow" fill="yellow"/>
   </g>
   <g id="cell112">
  <circle cx="691.797" cy="736.044" r="8.41271" stroke-width="0.5" stroke="black" fill="yellow"/>
  <circle cx="691.797" cy="736.044" r="5.05167" stroke-width="0.5" stroke="yellow" fill="yellow"/>
   </g>
   <g id="cell113">
  <circle cx="345.836" cy="555.714" r="8.41271" stroke-width="0.5" stroke="black" fill="yellow"/>
  <circle cx="345.836" cy="555.714" r="5.05167" stroke-width="0.5" stroke="yellow" fill="yellow"/>
   </g>
   <g id="cell114">
  <circle cx="68.093" cy="370.433" r="9.20015" stroke-width="0.5" stroke="black" fill="yellow"/>
  <circle cx="68.093" cy="370.433" r="5.59022" stroke-width="0.5" stroke="yellow" fill="yellow"/>
   </g>
   <g id="cell115">
  <circle cx="171.295" cy="75.7775" r="8.41271" stroke-width="0.5" stroke="black" fill="yellow"/>
  <circle cx="171.295" cy="75.7775" r="5.05167" stroke-width="0.5" stroke="yellow" fill="yellow"/>
   </g>
   <g id="cell116">
  <circle cx="809.426" cy="443.496" r="8.68937" stroke-width="0.5" stroke="black" fill="yellow"/>
  <circle cx="809.426" cy="443.496" r="5.25417" stroke-width="0.5" stroke="yellow" fill="yellow"/>
   </g>
   <g id="cell117">
  <circle cx="855.092" cy="369.889" r="3.34951" stroke-width="0.5" stroke="black" fill="yellow"/>
  <circle cx="855.092" cy="369.889" r="2.83557" stroke-width="0.5" stroke="black" fill="black"/>
   </g>
   <g id="cell118">
  <circle cx="929.599" cy="595.951" r="9.2729" stroke-width="0.5" stroke="black" fill="yellow"/>
  <circle cx="929.599" cy="595.951" r="5.63555" stroke-width="0.5" stroke="yellow" fill="yellow"/>
   </g>
   <g id="cell119">
  <circle cx="618.522" cy="58.5578" r="8.61424" stroke-width="0.5" stroke="black" fill="yellow"/>
  <circle cx="618.522" cy="58.5578" r="5.20061" stroke-width="0.5" stroke="yellow" fill="yellow"/>
   </g>
  </g>
 </g>
  <rect x="775" y="1035" width="200" height="10" stroke-width="2" stroke="rgb(255,255,255)" fill="rgb(0,0,0)"/>
  <text x="781.25" y="1028.75"
   font-family="Arial" font-size="25" fill="black" >
   200 &#956;m
  </text>
  <text x="25" y="1045"
   font-family="Arial" font-size="18.75" fill="black" >
   0 days, 0 hours, 0 minutes, and 10.7226 seconds
  </text>
  <rect x="0" y="70" width="1000" height="1000" stroke-width="2" stroke="rgb(0,0,0)" fill="none"/>
</svg>
