<?xml version="1.0" encoding="UTF-8" standalone="no"?>
<!-- Created with PhysiCell (http://PhysiCell.MathCancer.org/) -->
<svg 
 xmlns:dc="http://purl.org/dc/elements/1.1/" 
 xmlns:cc="http://creativecommons.org/ns#" 
 xmlns:rdf="http://www.w3.org/1999/02/22-rdf-syntax-ns#" 
 xmlns:svg="http://www.w3.org/2000/svg" 
 xmlns="http://www.w3.org/2000/svg" 
 version="1.1" 
 width="1000" 
 height="1070" 
 id="svg2">
  <rect x="0" y="0" width="1000" height="1070" stroke-width="2" stroke="white" fill="white"/>
  <text x="12.5" y="30"
   font-family="Arial" font-size="25" fill="black" >
   Current time: 1 days, 9 hours, and 0.00 minutes, z = 0.00 &#956;m
  </text>
  <text x="12.5" y="57.5"
   font-family="Arial" font-size="23.75" fill="black" >
   174 agents
  </text>
 <g id="tissue" 
    transform="translate(0,1070) scale(1,-1)">
  <g id="ECM">
  </g>
  <g id="cells">
   <g id="cell0">
  <circle cx="480.059" cy="611.689" r="8.39512" stroke-width="0.5" stroke="black" fill="grey"/>
  <circle cx="480.059" cy="611.689" r="5.04579" stroke-width="0.5" stroke="grey" fill="grey"/>
   </g>
   <g id="cell118">
  <circle cx="841.075" cy="584.078" r="9.34271" stroke-width="0.5" stroke="black" fill="yellow"/>
  <circle cx="841.075" cy="584.078" r="5.6787" stroke-width="0.5" stroke="yellow" fill="yellow"/>
   </g>
   <g id="cell100">
  <circle cx="129.303" cy="806.672" r="8.39356" stroke-width="0.5" stroke="black" fill="yellow"/>
  <circle cx="129.303" cy="806.672" r="5.0452" stroke-width="0.5" stroke="yellow" fill="yellow"/>
   </g>
   <g id="cell3">
  <circle cx="657.013" cy="672.383" r="8.38878" stroke-width="0.5" stroke="black" fill="grey"/>
  <circle cx="657.013" cy="672.383" r="5.04337" stroke-width="0.5" stroke="grey" fill="grey"/>
   </g>
   <g id="cell103">
  <circle cx="803.692" cy="879.419" r="9.15529" stroke-width="0.5" stroke="black" fill="yellow"/>
  <circle cx="803.692" cy="879.419" r="5.56426" stroke-width="0.5" stroke="yellow" fill="yellow"/>
   </g>
   <g id="cell135">
  <circle cx="129.986" cy="782.429" r="10.5332" stroke-width="0.5" stroke="black" fill="yellow"/>
  <circle cx="129.986" cy="782.429" r="6.33944" stroke-width="0.5" stroke="yellow" fill="yellow"/>
   </g>
   <g id="cell185">
  <circle cx="834.733" cy="385.618" r="10.3983" stroke-width="0.5" stroke="black" fill="yellow"/>
  <circle cx="834.733" cy="385.618" r="6.27683" stroke-width="0.5" stroke="yellow" fill="yellow"/>
   </g>
   <g id="cell7">
  <circle cx="841.895" cy="469.364" r="10.5582" stroke-width="0.5" stroke="black" fill="grey"/>
  <circle cx="841.895" cy="469.364" r="6.34991" stroke-width="0.5" stroke="grey" fill="grey"/>
   </g>
   <g id="cell192">
  <circle cx="819.575" cy="411.995" r="10.032" stroke-width="0.5" stroke="black" fill="yellow"/>
  <circle cx="819.575" cy="411.995" r="6.0834" stroke-width="0.5" stroke="yellow" fill="yellow"/>
   </g>
   <g id="cell112">
  <circle cx="749.733" cy="728.273" r="1.33058" stroke-width="0.5" stroke="black" fill="yellow"/>
  <circle cx="749.733" cy="728.273" r="1.3215" stroke-width="0.5" stroke="black" fill="black"/>
   </g>
   <g id="cell176">
  <circle cx="275.127" cy="60.6021" r="10.3677" stroke-width="0.5" stroke="black" fill="red"/>
  <circle cx="275.127" cy="60.6021" r="6.2616" stroke-width="0.5" stroke="red" fill="red"/>
   </g>
   <g id="cell186">
  <circle cx="80.2034" cy="562.534" r="8.41147" stroke-width="0.5" stroke="black" fill="yellow"/>
  <circle cx="80.2034" cy="562.534" r="5.05136" stroke-width="0.5" stroke="yellow" fill="yellow"/>
   </g>
   <g id="cell104">
  <circle cx="774.706" cy="434.169" r="8.38946" stroke-width="0.5" stroke="black" fill="yellow"/>
  <circle cx="774.706" cy="434.169" r="5.04363" stroke-width="0.5" stroke="yellow" fill="yellow"/>
   </g>
   <g id="cell102">
  <circle cx="650.91" cy="153.048" r="10.489" stroke-width="0.5" stroke="black" fill="yellow"/>
  <circle cx="650.91" cy="153.048" r="6.31989" stroke-width="0.5" stroke="yellow" fill="yellow"/>
   </g>
   <g id="cell98">
  <circle cx="868.569" cy="381.597" r="10.4347" stroke-width="0.5" stroke="black" fill="yellow"/>
  <circle cx="868.569" cy="381.597" r="6.29449" stroke-width="0.5" stroke="yellow" fill="yellow"/>
   </g>
   <g id="cell97">
  <circle cx="411.848" cy="105.903" r="10.398" stroke-width="0.5" stroke="black" fill="yellow"/>
  <circle cx="411.848" cy="105.903" r="6.27673" stroke-width="0.5" stroke="yellow" fill="yellow"/>
   </g>
   <g id="cell16">
  <circle cx="131.186" cy="708.3" r="1.71896" stroke-width="0.5" stroke="black" fill="grey"/>
  <circle cx="131.186" cy="708.3" r="1.70487" stroke-width="0.5" stroke="black" fill="black"/>
   </g>
   <g id="cell116">
  <circle cx="798.536" cy="435.02" r="10.1223" stroke-width="0.5" stroke="black" fill="yellow"/>
  <circle cx="798.536" cy="435.02" r="6.13305" stroke-width="0.5" stroke="yellow" fill="yellow"/>
   </g>
   <g id="cell177">
  <circle cx="441.467" cy="319.062" r="9.82135" stroke-width="0.5" stroke="black" fill="red"/>
  <circle cx="441.467" cy="319.062" r="5.96381" stroke-width="0.5" stroke="red" fill="red"/>
   </g>
   <g id="cell101">
  <circle cx="143.503" cy="137.271" r="8.4076" stroke-width="0.5" stroke="black" fill="yellow"/>
  <circle cx="143.503" cy="137.271" r="5.05018" stroke-width="0.5" stroke="yellow" fill="yellow"/>
   </g>
   <g id="cell184">
  <circle cx="509.426" cy="306.521" r="10.506" stroke-width="0.5" stroke="black" fill="red"/>
  <circle cx="509.426" cy="306.521" r="6.32761" stroke-width="0.5" stroke="red" fill="red"/>
   </g>
   <g id="cell99">
  <circle cx="489.395" cy="982.864" r="10.479" stroke-width="0.5" stroke="black" fill="yellow"/>
  <circle cx="489.395" cy="982.864" r="6.31532" stroke-width="0.5" stroke="yellow" fill="yellow"/>
   </g>
   <g id="cell115">
  <circle cx="233.376" cy="46.2777" r="10.5312" stroke-width="0.5" stroke="black" fill="yellow"/>
  <circle cx="233.376" cy="46.2777" r="6.33862" stroke-width="0.5" stroke="yellow" fill="yellow"/>
   </g>
   <g id="cell191">
  <circle cx="757.042" cy="109.941" r="10.3533" stroke-width="0.5" stroke="black" fill="grey"/>
  <circle cx="757.042" cy="109.941" r="6.25453" stroke-width="0.5" stroke="grey" fill="grey"/>
   </g>
   <g id="cell153">
  <circle cx="201.498" cy="376.751" r="10.5546" stroke-width="0.5" stroke="black" fill="red"/>
  <circle cx="201.498" cy="376.751" r="6.34845" stroke-width="0.5" stroke="red" fill="red"/>
   </g>
   <g id="cell105">
  <circle cx="65.173" cy="403.266" r="9.77013" stroke-width="0.5" stroke="black" fill="yellow"/>
  <circle cx="65.173" cy="403.266" r="5.93549" stroke-width="0.5" stroke="yellow" fill="yellow"/>
   </g>
   <g id="cell211">
  <circle cx="653.922" cy="652.137" r="8.38878" stroke-width="0.5" stroke="black" fill="grey"/>
  <circle cx="653.922" cy="652.137" r="5.04337" stroke-width="0.5" stroke="grey" fill="grey"/>
   </g>
   <g id="cell117">
  <circle cx="878.764" cy="373.258" r="8.41112" stroke-width="0.5" stroke="black" fill="yellow"/>
  <circle cx="878.764" cy="373.258" r="5.05126" stroke-width="0.5" stroke="yellow" fill="yellow"/>
   </g>
   <g id="cell28">
  <circle cx="700.89" cy="99.2316" r="8.4124" stroke-width="0.5" stroke="black" fill="grey"/>
  <circle cx="700.89" cy="99.2316" r="5.0516" stroke-width="0.5" stroke="grey" fill="grey"/>
   </g>
   <g id="cell29">
  <circle cx="973.111" cy="653.248" r="10.4953" stroke-width="0.5" stroke="black" fill="grey"/>
  <circle cx="973.111" cy="653.248" r="6.32271" stroke-width="0.5" stroke="grey" fill="grey"/>
   </g>
   <g id="cell30">
  <circle cx="772.979" cy="111.522" r="9.79786" stroke-width="0.5" stroke="black" fill="grey"/>
  <circle cx="772.979" cy="111.522" r="5.95047" stroke-width="0.5" stroke="grey" fill="grey"/>
   </g>
   <g id="cell190">
  <circle cx="455.82" cy="128.467" r="8.41098" stroke-width="0.5" stroke="black" fill="yellow"/>
  <circle cx="455.82" cy="128.467" r="5.05122" stroke-width="0.5" stroke="yellow" fill="yellow"/>
   </g>
   <g id="cell114">
  <circle cx="38.7807" cy="384.375" r="10.4721" stroke-width="0.5" stroke="black" fill="yellow"/>
  <circle cx="38.7807" cy="384.375" r="6.31213" stroke-width="0.5" stroke="yellow" fill="yellow"/>
   </g>
   <g id="cell107">
  <circle cx="388.101" cy="495.189" r="8.45056" stroke-width="0.5" stroke="black" fill="yellow"/>
  <circle cx="388.101" cy="495.189" r="5.08133" stroke-width="0.5" stroke="yellow" fill="yellow"/>
   </g>
   <g id="cell106">
  <circle cx="41.9056" cy="910.519" r="8.38593" stroke-width="0.5" stroke="black" fill="yellow"/>
  <circle cx="41.9056" cy="910.519" r="5.04225" stroke-width="0.5" stroke="yellow" fill="yellow"/>
   </g>
   <g id="cell35">
  <circle cx="934.759" cy="49.2667" r="9.3686" stroke-width="0.5" stroke="black" fill="grey"/>
  <circle cx="934.759" cy="49.2667" r="5.69676" stroke-width="0.5" stroke="grey" fill="grey"/>
   </g>
   <g id="cell109">
  <circle cx="382.305" cy="986.054" r="10.2628" stroke-width="0.5" stroke="black" fill="yellow"/>
  <circle cx="382.305" cy="986.054" r="6.20786" stroke-width="0.5" stroke="yellow" fill="yellow"/>
   </g>
   <g id="cell111">
  <circle cx="803.786" cy="415.066" r="8.41098" stroke-width="0.5" stroke="black" fill="yellow"/>
  <circle cx="803.786" cy="415.066" r="5.05122" stroke-width="0.5" stroke="yellow" fill="yellow"/>
   </g>
   <g id="cell131">
  <circle cx="643.836" cy="579.4" r="10.5465" stroke-width="0.5" stroke="black" fill="grey"/>
  <circle cx="643.836" cy="579.4" r="6.34509" stroke-width="0.5" stroke="grey" fill="grey"/>
   </g>
   <g id="cell110">
  <circle cx="886.279" cy="259.513" r="9.00249" stroke-width="0.5" stroke="black" fill="yellow"/>
  <circle cx="886.279" cy="259.513" r="5.46627" stroke-width="0.5" stroke="yellow" fill="yellow"/>
   </g>
   <g id="cell40">
  <circle cx="164.671" cy="409.053" r="10.5434" stroke-width="0.5" stroke="black" fill="red"/>
  <circle cx="164.671" cy="409.053" r="6.34379" stroke-width="0.5" stroke="red" fill="red"/>
   </g>
   <g id="cell41">
  <circle cx="692.022" cy="739.557" r="10.5521" stroke-width="0.5" stroke="black" fill="red"/>
  <circle cx="692.022" cy="739.557" r="6.34741" stroke-width="0.5" stroke="red" fill="red"/>
   </g>
   <g id="cell42">
  <circle cx="151.292" cy="738.997" r="10.5115" stroke-width="0.5" stroke="black" fill="red"/>
  <circle cx="151.292" cy="738.997" r="6.33" stroke-width="0.5" stroke="red" fill="red"/>
   </g>
   <g id="cell43">
  <circle cx="845.449" cy="368.792" r="10.5113" stroke-width="0.5" stroke="black" fill="red"/>
  <circle cx="845.449" cy="368.792" r="6.32995" stroke-width="0.5" stroke="red" fill="red"/>
   </g>
   <g id="cell44">
  <circle cx="848.425" cy="49.8397" r="10.5163" stroke-width="0.5" stroke="black" fill="red"/>
  <circle cx="848.425" cy="49.8397" r="6.33213" stroke-width="0.5" stroke="red" fill="red"/>
   </g>
   <g id="cell45">
  <circle cx="702.964" cy="807.124" r="10.1367" stroke-width="0.5" stroke="black" fill="red"/>
  <circle cx="702.964" cy="807.124" r="6.14066" stroke-width="0.5" stroke="red" fill="red"/>
   </g>
   <g id="cell46">
  <circle cx="53.3602" cy="901.76" r="10.0168" stroke-width="0.5" stroke="black" fill="red"/>
  <circle cx="53.3602" cy="901.76" r="6.07453" stroke-width="0.5" stroke="red" fill="red"/>
   </g>
   <g id="cell47">
  <circle cx="887.588" cy="448.588" r="10.5385" stroke-width="0.5" stroke="black" fill="red"/>
  <circle cx="887.588" cy="448.588" r="6.34172" stroke-width="0.5" stroke="red" fill="red"/>
   </g>
   <g id="cell48">
  <circle cx="950.007" cy="24.895" r="8.39071" stroke-width="0.5" stroke="black" fill="red"/>
  <circle cx="950.007" cy="24.895" r="5.04411" stroke-width="0.5" stroke="red" fill="red"/>
   </g>
   <g id="cell49">
  <circle cx="451.895" cy="793.697" r="10.4527" stroke-width="0.5" stroke="black" fill="red"/>
  <circle cx="451.895" cy="793.697" r="6.30303" stroke-width="0.5" stroke="red" fill="red"/>
   </g>
   <g id="cell50">
  <circle cx="10.251" cy="438.802" r="10.5274" stroke-width="0.5" stroke="black" fill="red"/>
  <circle cx="10.251" cy="438.802" r="6.33693" stroke-width="0.5" stroke="red" fill="red"/>
   </g>
   <g id="cell51">
  <circle cx="845.612" cy="159.533" r="10.5627" stroke-width="0.5" stroke="black" fill="red"/>
  <circle cx="845.612" cy="159.533" r="6.35168" stroke-width="0.5" stroke="red" fill="red"/>
   </g>
   <g id="cell96">
  <circle cx="839.776" cy="563.051" r="10.5366" stroke-width="0.5" stroke="black" fill="yellow"/>
  <circle cx="839.776" cy="563.051" r="6.34094" stroke-width="0.5" stroke="yellow" fill="yellow"/>
   </g>
   <g id="cell53">
  <circle cx="680.749" cy="277.763" r="8.39189" stroke-width="0.5" stroke="black" fill="red"/>
  <circle cx="680.749" cy="277.763" r="5.04457" stroke-width="0.5" stroke="red" fill="red"/>
   </g>
   <g id="cell54">
  <circle cx="422.461" cy="920.612" r="8.41219" stroke-width="0.5" stroke="black" fill="red"/>
  <circle cx="422.461" cy="920.612" r="5.05155" stroke-width="0.5" stroke="red" fill="red"/>
   </g>
   <g id="cell55">
  <circle cx="205.632" cy="635.599" r="8.50941" stroke-width="0.5" stroke="black" fill="red"/>
  <circle cx="205.632" cy="635.599" r="5.12464" stroke-width="0.5" stroke="red" fill="red"/>
   </g>
   <g id="cell56">
  <circle cx="645.946" cy="846.356" r="10.5521" stroke-width="0.5" stroke="black" fill="red"/>
  <circle cx="645.946" cy="846.356" r="6.3474" stroke-width="0.5" stroke="red" fill="red"/>
   </g>
   <g id="cell57">
  <circle cx="476.648" cy="531.404" r="10.5571" stroke-width="0.5" stroke="black" fill="red"/>
  <circle cx="476.648" cy="531.404" r="6.34945" stroke-width="0.5" stroke="red" fill="red"/>
   </g>
   <g id="cell58">
  <circle cx="13.1787" cy="858.065" r="10.533" stroke-width="0.5" stroke="black" fill="red"/>
  <circle cx="13.1787" cy="858.065" r="6.3394" stroke-width="0.5" stroke="red" fill="red"/>
   </g>
   <g id="cell59">
  <circle cx="64.3417" cy="946.533" r="10.54" stroke-width="0.5" stroke="black" fill="red"/>
  <circle cx="64.3417" cy="946.533" r="6.34239" stroke-width="0.5" stroke="red" fill="red"/>
   </g>
   <g id="cell60">
  <circle cx="219.205" cy="33.9676" r="10.3677" stroke-width="0.5" stroke="black" fill="red"/>
  <circle cx="219.205" cy="33.9676" r="6.2616" stroke-width="0.5" stroke="red" fill="red"/>
   </g>
   <g id="cell61">
  <circle cx="796.83" cy="129.604" r="10.2107" stroke-width="0.5" stroke="black" fill="red"/>
  <circle cx="796.83" cy="129.604" r="6.18032" stroke-width="0.5" stroke="red" fill="red"/>
   </g>
   <g id="cell62">
  <circle cx="729.868" cy="805.871" r="10.5387" stroke-width="0.5" stroke="black" fill="red"/>
  <circle cx="729.868" cy="805.871" r="6.34177" stroke-width="0.5" stroke="red" fill="red"/>
   </g>
   <g id="cell63">
  <circle cx="345.94" cy="173.791" r="10.4649" stroke-width="0.5" stroke="black" fill="red"/>
  <circle cx="345.94" cy="173.791" r="6.30872" stroke-width="0.5" stroke="red" fill="red"/>
   </g>
   <g id="cell64">
  <circle cx="607.053" cy="533.042" r="8.38532" stroke-width="0.5" stroke="black" fill="red"/>
  <circle cx="607.053" cy="533.042" r="5.04199" stroke-width="0.5" stroke="red" fill="red"/>
   </g>
   <g id="cell188">
  <circle cx="863.327" cy="388.02" r="10.2422" stroke-width="0.5" stroke="black" fill="yellow"/>
  <circle cx="863.327" cy="388.02" r="6.19719" stroke-width="0.5" stroke="yellow" fill="yellow"/>
   </g>
   <g id="cell66">
  <circle cx="16.0482" cy="129.631" r="10.516" stroke-width="0.5" stroke="black" fill="red"/>
  <circle cx="16.0482" cy="129.631" r="6.33204" stroke-width="0.5" stroke="red" fill="red"/>
   </g>
   <g id="cell197">
  <circle cx="743.457" cy="686.91" r="8.6447" stroke-width="0.5" stroke="black" fill="yellow"/>
  <circle cx="743.457" cy="686.91" r="5.22514" stroke-width="0.5" stroke="yellow" fill="yellow"/>
   </g>
   <g id="cell68">
  <circle cx="774.255" cy="222.962" r="10.5402" stroke-width="0.5" stroke="black" fill="red"/>
  <circle cx="774.255" cy="222.962" r="6.34244" stroke-width="0.5" stroke="red" fill="red"/>
   </g>
   <g id="cell69">
  <circle cx="438.834" cy="306.451" r="9.40949" stroke-width="0.5" stroke="black" fill="red"/>
  <circle cx="438.834" cy="306.451" r="5.71965" stroke-width="0.5" stroke="red" fill="red"/>
   </g>
   <g id="cell70">
  <circle cx="527.434" cy="367.475" r="10.4757" stroke-width="0.5" stroke="black" fill="red"/>
  <circle cx="527.434" cy="367.475" r="6.31379" stroke-width="0.5" stroke="red" fill="red"/>
   </g>
   <g id="cell71">
  <circle cx="899.945" cy="502.92" r="8.39191" stroke-width="0.5" stroke="black" fill="red"/>
  <circle cx="899.945" cy="502.92" r="5.04457" stroke-width="0.5" stroke="red" fill="red"/>
   </g>
   <g id="cell72">
  <circle cx="177.657" cy="920.254" r="10.5571" stroke-width="0.5" stroke="black" fill="red"/>
  <circle cx="177.657" cy="920.254" r="6.34944" stroke-width="0.5" stroke="red" fill="red"/>
   </g>
   <g id="cell73">
  <circle cx="610.013" cy="445.314" r="10.514" stroke-width="0.5" stroke="black" fill="red"/>
  <circle cx="610.013" cy="445.314" r="6.33109" stroke-width="0.5" stroke="red" fill="red"/>
   </g>
   <g id="cell74">
  <circle cx="863.497" cy="935.767" r="10.3542" stroke-width="0.5" stroke="black" fill="red"/>
  <circle cx="863.497" cy="935.767" r="6.25477" stroke-width="0.5" stroke="red" fill="red"/>
   </g>
   <g id="cell75">
  <circle cx="99.8019" cy="302.481" r="10.5547" stroke-width="0.5" stroke="black" fill="red"/>
  <circle cx="99.8019" cy="302.481" r="6.34846" stroke-width="0.5" stroke="red" fill="red"/>
   </g>
   <g id="cell76">
  <circle cx="769.734" cy="426.172" r="10.4204" stroke-width="0.5" stroke="black" fill="red"/>
  <circle cx="769.734" cy="426.172" r="6.28753" stroke-width="0.5" stroke="red" fill="red"/>
   </g>
   <g id="cell77">
  <circle cx="693.832" cy="833.261" r="10.5186" stroke-width="0.5" stroke="black" fill="red"/>
  <circle cx="693.832" cy="833.261" r="6.33314" stroke-width="0.5" stroke="red" fill="red"/>
   </g>
   <g id="cell78">
  <circle cx="581.671" cy="294.289" r="10.5089" stroke-width="0.5" stroke="black" fill="red"/>
  <circle cx="581.671" cy="294.289" r="6.32885" stroke-width="0.5" stroke="red" fill="red"/>
   </g>
   <g id="cell79">
  <circle cx="982.944" cy="706.055" r="10.4201" stroke-width="0.5" stroke="black" fill="red"/>
  <circle cx="982.944" cy="706.055" r="6.28746" stroke-width="0.5" stroke="red" fill="red"/>
   </g>
   <g id="cell80">
  <circle cx="744.906" cy="726.694" r="9.7221" stroke-width="0.5" stroke="black" fill="yellow"/>
  <circle cx="744.906" cy="726.694" r="5.9074" stroke-width="0.5" stroke="yellow" fill="yellow"/>
   </g>
   <g id="cell81">
  <circle cx="478.324" cy="961.992" r="10.551" stroke-width="0.5" stroke="black" fill="yellow"/>
  <circle cx="478.324" cy="961.992" r="6.3469" stroke-width="0.5" stroke="yellow" fill="yellow"/>
   </g>
   <g id="cell82">
  <circle cx="614.34" cy="397.053" r="8.38736" stroke-width="0.5" stroke="black" fill="yellow"/>
  <circle cx="614.34" cy="397.053" r="5.04282" stroke-width="0.5" stroke="yellow" fill="yellow"/>
   </g>
   <g id="cell83">
  <circle cx="584.065" cy="594.079" r="10.5384" stroke-width="0.5" stroke="black" fill="yellow"/>
  <circle cx="584.065" cy="594.079" r="6.34171" stroke-width="0.5" stroke="yellow" fill="yellow"/>
   </g>
   <g id="cell84">
  <circle cx="15.2097" cy="510.981" r="10.4395" stroke-width="0.5" stroke="black" fill="yellow"/>
  <circle cx="15.2097" cy="510.981" r="6.29676" stroke-width="0.5" stroke="yellow" fill="yellow"/>
   </g>
   <g id="cell85">
  <circle cx="778.965" cy="674.664" r="1.79146" stroke-width="0.5" stroke="black" fill="yellow"/>
  <circle cx="778.965" cy="674.664" r="1.77334" stroke-width="0.5" stroke="black" fill="black"/>
   </g>
   <g id="cell86">
  <circle cx="341.44" cy="425.421" r="10.0644" stroke-width="0.5" stroke="black" fill="yellow"/>
  <circle cx="341.44" cy="425.421" r="6.10116" stroke-width="0.5" stroke="yellow" fill="yellow"/>
   </g>
   <g id="cell87">
  <circle cx="782.455" cy="407.391" r="10.1504" stroke-width="0.5" stroke="black" fill="yellow"/>
  <circle cx="782.455" cy="407.391" r="6.14795" stroke-width="0.5" stroke="yellow" fill="yellow"/>
   </g>
   <g id="cell200">
  <circle cx="977.114" cy="105.965" r="8.40244" stroke-width="0.5" stroke="black" fill="grey"/>
  <circle cx="977.114" cy="105.965" r="5.04843" stroke-width="0.5" stroke="grey" fill="grey"/>
   </g>
   <g id="cell89">
  <circle cx="38.8521" cy="536.259" r="10.4148" stroke-width="0.5" stroke="black" fill="yellow"/>
  <circle cx="38.8521" cy="536.259" r="6.28489" stroke-width="0.5" stroke="yellow" fill="yellow"/>
   </g>
   <g id="cell193">
  <circle cx="192.299" cy="668.513" r="10.1484" stroke-width="0.5" stroke="black" fill="red"/>
  <circle cx="192.299" cy="668.513" r="6.14735" stroke-width="0.5" stroke="red" fill="red"/>
   </g>
   <g id="cell91">
  <circle cx="24.6021" cy="635.61" r="9.88563" stroke-width="0.5" stroke="black" fill="yellow"/>
  <circle cx="24.6021" cy="635.61" r="6.0007" stroke-width="0.5" stroke="yellow" fill="yellow"/>
   </g>
   <g id="cell92">
  <circle cx="676.181" cy="278.351" r="10.523" stroke-width="0.5" stroke="black" fill="yellow"/>
  <circle cx="676.181" cy="278.351" r="6.33507" stroke-width="0.5" stroke="yellow" fill="yellow"/>
   </g>
   <g id="cell93">
  <circle cx="227.863" cy="864.627" r="9.88613" stroke-width="0.5" stroke="black" fill="yellow"/>
  <circle cx="227.863" cy="864.627" r="6.00084" stroke-width="0.5" stroke="yellow" fill="yellow"/>
   </g>
   <g id="cell94">
  <circle cx="394.505" cy="98.5162" r="10.4568" stroke-width="0.5" stroke="black" fill="yellow"/>
  <circle cx="394.505" cy="98.5162" r="6.30496" stroke-width="0.5" stroke="yellow" fill="yellow"/>
   </g>
   <g id="cell95">
  <circle cx="950.945" cy="904.006" r="10.5383" stroke-width="0.5" stroke="black" fill="yellow"/>
  <circle cx="950.945" cy="904.006" r="6.34168" stroke-width="0.5" stroke="yellow" fill="yellow"/>
   </g>
   <g id="cell121">
  <circle cx="38.597" cy="484.146" r="9.3081" stroke-width="0.5" stroke="black" fill="red"/>
  <circle cx="38.597" cy="484.146" r="5.65738" stroke-width="0.5" stroke="red" fill="red"/>
   </g>
   <g id="cell122">
  <circle cx="708.198" cy="428.558" r="8.38743" stroke-width="0.5" stroke="black" fill="yellow"/>
  <circle cx="708.198" cy="428.558" r="5.04284" stroke-width="0.5" stroke="yellow" fill="yellow"/>
   </g>
   <g id="cell123">
  <circle cx="303.641" cy="897.844" r="9.79905" stroke-width="0.5" stroke="black" fill="yellow"/>
  <circle cx="303.641" cy="897.844" r="5.95082" stroke-width="0.5" stroke="yellow" fill="yellow"/>
   </g>
   <g id="cell124">
  <circle cx="474.698" cy="652.585" r="10.5253" stroke-width="0.5" stroke="black" fill="grey"/>
  <circle cx="474.698" cy="652.585" r="6.33604" stroke-width="0.5" stroke="grey" fill="grey"/>
   </g>
   <g id="cell125">
  <circle cx="806.778" cy="439.583" r="8.59441" stroke-width="0.5" stroke="black" fill="yellow"/>
  <circle cx="806.778" cy="439.583" r="5.19368" stroke-width="0.5" stroke="yellow" fill="yellow"/>
   </g>
   <g id="cell126">
  <circle cx="928.954" cy="190.153" r="10.5187" stroke-width="0.5" stroke="black" fill="red"/>
  <circle cx="928.954" cy="190.153" r="6.33317" stroke-width="0.5" stroke="red" fill="red"/>
   </g>
   <g id="cell127">
  <circle cx="915.427" cy="549.266" r="8.38945" stroke-width="0.5" stroke="black" fill="red"/>
  <circle cx="915.427" cy="549.266" r="5.04363" stroke-width="0.5" stroke="red" fill="red"/>
   </g>
   <g id="cell128">
  <circle cx="929.378" cy="33.3233" r="10.4982" stroke-width="0.5" stroke="black" fill="red"/>
  <circle cx="929.378" cy="33.3233" r="6.32403" stroke-width="0.5" stroke="red" fill="red"/>
   </g>
   <g id="cell129">
  <circle cx="981.032" cy="676.633" r="2.49188" stroke-width="0.5" stroke="black" fill="grey"/>
  <circle cx="981.032" cy="676.633" r="2.36743" stroke-width="0.5" stroke="black" fill="black"/>
   </g>
   <g id="cell130">
  <circle cx="909.076" cy="586.565" r="8.41245" stroke-width="0.5" stroke="black" fill="yellow"/>
  <circle cx="909.076" cy="586.565" r="5.05161" stroke-width="0.5" stroke="yellow" fill="yellow"/>
   </g>
   <g id="cell132">
  <circle cx="53.6339" cy="928.502" r="10.5494" stroke-width="0.5" stroke="black" fill="red"/>
  <circle cx="53.6339" cy="928.502" r="6.34629" stroke-width="0.5" stroke="red" fill="red"/>
   </g>
   <g id="cell133">
  <circle cx="647.683" cy="402.154" r="10.4256" stroke-width="0.5" stroke="black" fill="red"/>
  <circle cx="647.683" cy="402.154" r="6.29001" stroke-width="0.5" stroke="red" fill="red"/>
   </g>
   <g id="cell201">
  <circle cx="490.124" cy="595.429" r="8.87236" stroke-width="0.5" stroke="black" fill="grey"/>
  <circle cx="490.124" cy="595.429" r="5.38402" stroke-width="0.5" stroke="grey" fill="grey"/>
   </g>
   <g id="cell136">
  <circle cx="672.417" cy="471.822" r="10.5253" stroke-width="0.5" stroke="black" fill="red"/>
  <circle cx="672.417" cy="471.822" r="6.33603" stroke-width="0.5" stroke="red" fill="red"/>
   </g>
   <g id="cell137">
  <circle cx="785.155" cy="664.268" r="10.3082" stroke-width="0.5" stroke="black" fill="yellow"/>
  <circle cx="785.155" cy="664.268" r="6.23133" stroke-width="0.5" stroke="yellow" fill="yellow"/>
   </g>
   <g id="cell138">
  <circle cx="697.706" cy="240.998" r="8.39069" stroke-width="0.5" stroke="black" fill="red"/>
  <circle cx="697.706" cy="240.998" r="5.04411" stroke-width="0.5" stroke="red" fill="red"/>
   </g>
   <g id="cell139">
  <circle cx="793.294" cy="738.029" r="9.47407" stroke-width="0.5" stroke="black" fill="yellow"/>
  <circle cx="793.294" cy="738.029" r="5.75869" stroke-width="0.5" stroke="yellow" fill="yellow"/>
   </g>
   <g id="cell140">
  <circle cx="88.4228" cy="367.925" r="8.38942" stroke-width="0.5" stroke="black" fill="red"/>
  <circle cx="88.4228" cy="367.925" r="5.04362" stroke-width="0.5" stroke="red" fill="red"/>
   </g>
   <g id="cell141">
  <circle cx="21.6683" cy="985.332" r="8.38739" stroke-width="0.5" stroke="black" fill="yellow"/>
  <circle cx="21.6683" cy="985.332" r="5.04283" stroke-width="0.5" stroke="yellow" fill="yellow"/>
   </g>
   <g id="cell142">
  <circle cx="695.97" cy="690.747" r="8.41241" stroke-width="0.5" stroke="black" fill="red"/>
  <circle cx="695.97" cy="690.747" r="5.0516" stroke-width="0.5" stroke="red" fill="red"/>
   </g>
   <g id="cell143">
  <circle cx="110.3" cy="711.334" r="10.2108" stroke-width="0.5" stroke="black" fill="red"/>
  <circle cx="110.3" cy="711.334" r="6.18036" stroke-width="0.5" stroke="red" fill="red"/>
   </g>
   <g id="cell144">
  <circle cx="652.218" cy="152.181" r="10.5547" stroke-width="0.5" stroke="black" fill="grey"/>
  <circle cx="652.218" cy="152.181" r="6.34846" stroke-width="0.5" stroke="grey" fill="grey"/>
   </g>
   <g id="cell145">
  <circle cx="548.744" cy="506.347" r="10.0167" stroke-width="0.5" stroke="black" fill="red"/>
  <circle cx="548.744" cy="506.347" r="6.07452" stroke-width="0.5" stroke="red" fill="red"/>
   </g>
   <g id="cell146">
  <circle cx="298.568" cy="218.236" r="10.5479" stroke-width="0.5" stroke="black" fill="red"/>
  <circle cx="298.568" cy="218.236" r="6.34569" stroke-width="0.5" stroke="red" fill="red"/>
   </g>
   <g id="cell147">
  <circle cx="664.556" cy="375.767" r="10.3322" stroke-width="0.5" stroke="black" fill="yellow"/>
  <circle cx="664.556" cy="375.767" r="6.24363" stroke-width="0.5" stroke="yellow" fill="yellow"/>
   </g>
   <g id="cell148">
  <circle cx="213.782" cy="760.038" r="8.43166" stroke-width="0.5" stroke="black" fill="grey"/>
  <circle cx="213.782" cy="760.038" r="5.07446" stroke-width="0.5" stroke="grey" fill="grey"/>
   </g>
   <g id="cell149">
  <circle cx="859.35" cy="452.302" r="10.5626" stroke-width="0.5" stroke="black" fill="red"/>
  <circle cx="859.35" cy="452.302" r="6.35166" stroke-width="0.5" stroke="red" fill="red"/>
   </g>
   <g id="cell150">
  <circle cx="168.789" cy="31.8559" r="10.4892" stroke-width="0.5" stroke="black" fill="yellow"/>
  <circle cx="168.789" cy="31.8559" r="6.31993" stroke-width="0.5" stroke="yellow" fill="yellow"/>
   </g>
   <g id="cell151">
  <circle cx="201.765" cy="898.07" r="10.4205" stroke-width="0.5" stroke="black" fill="red"/>
  <circle cx="201.765" cy="898.07" r="6.28756" stroke-width="0.5" stroke="red" fill="red"/>
   </g>
   <g id="cell152">
  <circle cx="612.004" cy="859.119" r="10.5571" stroke-width="0.5" stroke="black" fill="red"/>
  <circle cx="612.004" cy="859.119" r="6.34944" stroke-width="0.5" stroke="red" fill="red"/>
   </g>
   <g id="cell154">
  <circle cx="890.201" cy="18.9418" r="10.4827" stroke-width="0.5" stroke="black" fill="red"/>
  <circle cx="890.201" cy="18.9418" r="6.31697" stroke-width="0.5" stroke="red" fill="red"/>
   </g>
   <g id="cell155">
  <circle cx="652.566" cy="888.386" r="10.5521" stroke-width="0.5" stroke="black" fill="red"/>
  <circle cx="652.566" cy="888.386" r="6.34739" stroke-width="0.5" stroke="red" fill="red"/>
   </g>
   <g id="cell156">
  <circle cx="886.715" cy="511.462" r="2.33806" stroke-width="0.5" stroke="black" fill="grey"/>
  <circle cx="886.715" cy="511.462" r="2.24814" stroke-width="0.5" stroke="black" fill="black"/>
   </g>
   <g id="cell157">
  <circle cx="613.383" cy="641.223" r="10.4723" stroke-width="0.5" stroke="black" fill="yellow"/>
  <circle cx="613.383" cy="641.223" r="6.31217" stroke-width="0.5" stroke="yellow" fill="yellow"/>
   </g>
   <g id="cell198">
  <circle cx="58.1892" cy="415.942" r="9.5591" stroke-width="0.5" stroke="black" fill="yellow"/>
  <circle cx="58.1892" cy="415.942" r="5.81131" stroke-width="0.5" stroke="yellow" fill="yellow"/>
   </g>
   <g id="cell159">
  <circle cx="675.721" cy="279.568" r="10.4153" stroke-width="0.5" stroke="black" fill="yellow"/>
  <circle cx="675.721" cy="279.568" r="6.28502" stroke-width="0.5" stroke="yellow" fill="yellow"/>
   </g>
   <g id="cell160">
  <circle cx="634.077" cy="297.861" r="10.4859" stroke-width="0.5" stroke="black" fill="red"/>
  <circle cx="634.077" cy="297.861" r="6.31846" stroke-width="0.5" stroke="red" fill="red"/>
   </g>
   <g id="cell199">
  <circle cx="826.757" cy="856.065" r="8.40378" stroke-width="0.5" stroke="black" fill="yellow"/>
  <circle cx="826.757" cy="856.065" r="5.0489" stroke-width="0.5" stroke="yellow" fill="yellow"/>
   </g>
   <g id="cell162">
  <circle cx="834.691" cy="98.017" r="10.552" stroke-width="0.5" stroke="black" fill="red"/>
  <circle cx="834.691" cy="98.017" r="6.34737" stroke-width="0.5" stroke="red" fill="red"/>
   </g>
   <g id="cell163">
  <circle cx="421.027" cy="955.395" r="10.5492" stroke-width="0.5" stroke="black" fill="red"/>
  <circle cx="421.027" cy="955.395" r="6.34625" stroke-width="0.5" stroke="red" fill="red"/>
   </g>
   <g id="cell164">
  <circle cx="815.703" cy="970.881" r="10.1754" stroke-width="0.5" stroke="black" fill="red"/>
  <circle cx="815.703" cy="970.881" r="6.1615" stroke-width="0.5" stroke="red" fill="red"/>
   </g>
   <g id="cell165">
  <circle cx="837.333" cy="394.635" r="10.5478" stroke-width="0.5" stroke="black" fill="red"/>
  <circle cx="837.333" cy="394.635" r="6.34565" stroke-width="0.5" stroke="red" fill="red"/>
   </g>
   <g id="cell166">
  <circle cx="763.99" cy="502.967" r="10.5463" stroke-width="0.5" stroke="black" fill="yellow"/>
  <circle cx="763.99" cy="502.967" r="6.34504" stroke-width="0.5" stroke="yellow" fill="yellow"/>
   </g>
   <g id="cell167">
  <circle cx="627.242" cy="127.754" r="10.4485" stroke-width="0.5" stroke="black" fill="yellow"/>
  <circle cx="627.242" cy="127.754" r="6.30103" stroke-width="0.5" stroke="yellow" fill="yellow"/>
   </g>
   <g id="cell168">
  <circle cx="927.697" cy="886.26" r="10.5271" stroke-width="0.5" stroke="black" fill="yellow"/>
  <circle cx="927.697" cy="886.26" r="6.33687" stroke-width="0.5" stroke="yellow" fill="yellow"/>
   </g>
   <g id="cell169">
  <circle cx="338.094" cy="989.218" r="10.5113" stroke-width="0.5" stroke="black" fill="yellow"/>
  <circle cx="338.094" cy="989.218" r="6.32996" stroke-width="0.5" stroke="yellow" fill="yellow"/>
   </g>
   <g id="cell170">
  <circle cx="55.2886" cy="986.186" r="9.34243" stroke-width="0.5" stroke="black" fill="red"/>
  <circle cx="55.2886" cy="986.186" r="5.67862" stroke-width="0.5" stroke="red" fill="red"/>
   </g>
   <g id="cell171">
  <circle cx="519.129" cy="383.606" r="10.5162" stroke-width="0.5" stroke="black" fill="red"/>
  <circle cx="519.129" cy="383.606" r="6.33209" stroke-width="0.5" stroke="red" fill="red"/>
   </g>
   <g id="cell172">
  <circle cx="489.227" cy="786.577" r="10.5207" stroke-width="0.5" stroke="black" fill="red"/>
  <circle cx="489.227" cy="786.577" r="6.33409" stroke-width="0.5" stroke="red" fill="red"/>
   </g>
   <g id="cell173">
  <circle cx="977.282" cy="416.079" r="9.84349" stroke-width="0.5" stroke="black" fill="red"/>
  <circle cx="977.282" cy="416.079" r="5.97652" stroke-width="0.5" stroke="red" fill="red"/>
   </g>
   <g id="cell174">
  <circle cx="354.746" cy="103.782" r="9.56458" stroke-width="0.5" stroke="black" fill="yellow"/>
  <circle cx="354.746" cy="103.782" r="5.81313" stroke-width="0.5" stroke="yellow" fill="yellow"/>
   </g>
   <g id="cell175">
  <circle cx="16.5472" cy="303.414" r="10.5271" stroke-width="0.5" stroke="black" fill="yellow"/>
  <circle cx="16.5472" cy="303.414" r="6.33686" stroke-width="0.5" stroke="yellow" fill="yellow"/>
   </g>
   <g id="cell178">
  <circle cx="69.4741" cy="167.317" r="10.506" stroke-width="0.5" stroke="black" fill="red"/>
  <circle cx="69.4741" cy="167.317" r="6.32763" stroke-width="0.5" stroke="red" fill="red"/>
   </g>
   <g id="cell179">
  <circle cx="14.7805" cy="492.304" r="10.2626" stroke-width="0.5" stroke="black" fill="yellow"/>
  <circle cx="14.7805" cy="492.304" r="6.20781" stroke-width="0.5" stroke="yellow" fill="yellow"/>
   </g>
   <g id="cell180">
  <circle cx="33.6908" cy="691.039" r="8.4118" stroke-width="0.5" stroke="black" fill="yellow"/>
  <circle cx="33.6908" cy="691.039" r="5.05145" stroke-width="0.5" stroke="yellow" fill="yellow"/>
   </g>
   <g id="cell181">
  <circle cx="979.721" cy="680.67" r="8.51158" stroke-width="0.5" stroke="black" fill="red"/>
  <circle cx="979.721" cy="680.67" r="5.12528" stroke-width="0.5" stroke="red" fill="red"/>
   </g>
   <g id="cell182">
  <circle cx="503.526" cy="954.815" r="8.41172" stroke-width="0.5" stroke="black" fill="yellow"/>
  <circle cx="503.526" cy="954.815" r="5.05142" stroke-width="0.5" stroke="yellow" fill="yellow"/>
   </g>
   <g id="cell183">
  <circle cx="657.972" cy="859.495" r="8.41172" stroke-width="0.5" stroke="black" fill="red"/>
  <circle cx="657.972" cy="859.495" r="5.05142" stroke-width="0.5" stroke="red" fill="red"/>
   </g>
   <g id="cell187">
  <circle cx="299.118" cy="429.025" r="10.1623" stroke-width="0.5" stroke="black" fill="yellow"/>
  <circle cx="299.118" cy="429.025" r="6.15462" stroke-width="0.5" stroke="yellow" fill="yellow"/>
   </g>
   <g id="cell189">
  <circle cx="784.879" cy="399.308" r="10.3861" stroke-width="0.5" stroke="black" fill="yellow"/>
  <circle cx="784.879" cy="399.308" r="6.2709" stroke-width="0.5" stroke="yellow" fill="yellow"/>
   </g>
   <g id="cell194">
  <circle cx="99.5964" cy="151.764" r="10.0618" stroke-width="0.5" stroke="black" fill="yellow"/>
  <circle cx="99.5964" cy="151.764" r="6.10036" stroke-width="0.5" stroke="yellow" fill="yellow"/>
   </g>
   <g id="cell195">
  <circle cx="395.663" cy="436.017" r="9.64514" stroke-width="0.5" stroke="black" fill="yellow"/>
  <circle cx="395.663" cy="436.017" r="5.86196" stroke-width="0.5" stroke="yellow" fill="yellow"/>
   </g>
   <g id="cell196">
  <circle cx="889.247" cy="271.135" r="8.40632" stroke-width="0.5" stroke="black" fill="yellow"/>
  <circle cx="889.247" cy="271.135" r="5.04976" stroke-width="0.5" stroke="yellow" fill="yellow"/>
   </g>
   <g id="cell202">
  <circle cx="119.62" cy="831.856" r="8.39356" stroke-width="0.5" stroke="black" fill="yellow"/>
  <circle cx="119.62" cy="831.856" r="5.0452" stroke-width="0.5" stroke="yellow" fill="yellow"/>
   </g>
   <g id="cell203">
  <circle cx="820.981" cy="457.512" r="8.39191" stroke-width="0.5" stroke="black" fill="yellow"/>
  <circle cx="820.981" cy="457.512" r="5.04457" stroke-width="0.5" stroke="yellow" fill="yellow"/>
   </g>
   <g id="cell204">
  <circle cx="899.654" cy="486.775" r="8.52438" stroke-width="0.5" stroke="black" fill="red"/>
  <circle cx="899.654" cy="486.775" r="5.14249" stroke-width="0.5" stroke="red" fill="red"/>
   </g>
   <g id="cell205">
  <circle cx="670.306" cy="286.082" r="8.39189" stroke-width="0.5" stroke="black" fill="red"/>
  <circle cx="670.306" cy="286.082" r="5.04457" stroke-width="0.5" stroke="red" fill="red"/>
   </g>
   <g id="cell206">
  <circle cx="958.213" cy="16.9422" r="8.39071" stroke-width="0.5" stroke="black" fill="red"/>
  <circle cx="958.213" cy="16.9422" r="5.04411" stroke-width="0.5" stroke="red" fill="red"/>
   </g>
   <g id="cell207">
  <circle cx="723.529" cy="258.335" r="8.39069" stroke-width="0.5" stroke="black" fill="red"/>
  <circle cx="723.529" cy="258.335" r="5.04411" stroke-width="0.5" stroke="red" fill="red"/>
   </g>
   <g id="cell208">
  <circle cx="72.2266" cy="367.074" r="8.38942" stroke-width="0.5" stroke="black" fill="red"/>
  <circle cx="72.2266" cy="367.074" r="5.04362" stroke-width="0.5" stroke="red" fill="red"/>
   </g>
   <g id="cell209">
  <circle cx="916.246" cy="569.629" r="8.38945" stroke-width="0.5" stroke="black" fill="red"/>
  <circle cx="916.246" cy="569.629" r="5.04363" stroke-width="0.5" stroke="red" fill="red"/>
   </g>
   <g id="cell210">
  <circle cx="767.625" cy="440.595" r="8.38946" stroke-width="0.5" stroke="black" fill="yellow"/>
  <circle cx="767.625" cy="440.595" r="5.04363" stroke-width="0.5" stroke="yellow" fill="yellow"/>
   </g>
   <g id="cell212">
  <circle cx="215.219" cy="750.701" r="8.38806" stroke-width="0.5" stroke="black" fill="grey"/>
  <circle cx="215.219" cy="750.701" r="5.04309" stroke-width="0.5" stroke="grey" fill="grey"/>
   </g>
   <g id="cell213">
  <circle cx="14.2186" cy="986.583" r="8.38739" stroke-width="0.5" stroke="black" fill="yellow"/>
  <circle cx="14.2186" cy="986.583" r="5.04283" stroke-width="0.5" stroke="yellow" fill="yellow"/>
   </g>
   <g id="cell214">
  <circle cx="720.958" cy="433.043" r="8.38743" stroke-width="0.5" stroke="black" fill="yellow"/>
  <circle cx="720.958" cy="433.043" r="5.04284" stroke-width="0.5" stroke="yellow" fill="yellow"/>
   </g>
   <g id="cell215">
  <circle cx="619.442" cy="402.747" r="8.38736" stroke-width="0.5" stroke="black" fill="yellow"/>
  <circle cx="619.442" cy="402.747" r="5.04282" stroke-width="0.5" stroke="yellow" fill="yellow"/>
   </g>
   <g id="cell216">
  <circle cx="29.6507" cy="925.602" r="8.38593" stroke-width="0.5" stroke="black" fill="yellow"/>
  <circle cx="29.6507" cy="925.602" r="5.04225" stroke-width="0.5" stroke="yellow" fill="yellow"/>
   </g>
   <g id="cell217">
  <circle cx="594.7" cy="531.154" r="8.38532" stroke-width="0.5" stroke="black" fill="red"/>
  <circle cx="594.7" cy="531.154" r="5.04199" stroke-width="0.5" stroke="red" fill="red"/>
   </g>
  </g>
 </g>
  <rect x="775" y="1035" width="200" height="10" stroke-width="2" stroke="rgb(255,255,255)" fill="rgb(0,0,0)"/>
  <text x="781.25" y="1028.75"
   font-family="Arial" font-size="25" fill="black" >
   200 &#956;m
  </text>
  <text x="25" y="1045"
   font-family="Arial" font-size="18.75" fill="black" >
   0 days, 0 hours, 2 minutes, and 26.3188 seconds
  </text>
  <rect x="0" y="70" width="1000" height="1000" stroke-width="2" stroke="rgb(0,0,0)" fill="none"/>
</svg>
