<?xml version="1.0" encoding="UTF-8" standalone="no"?>
<!-- Created with PhysiCell (http://PhysiCell.MathCancer.org/) -->
<svg 
 xmlns:dc="http://purl.org/dc/elements/1.1/" 
 xmlns:cc="http://creativecommons.org/ns#" 
 xmlns:rdf="http://www.w3.org/1999/02/22-rdf-syntax-ns#" 
 xmlns:svg="http://www.w3.org/2000/svg" 
 xmlns="http://www.w3.org/2000/svg" 
 version="1.1" 
 width="1000" 
 height="1070" 
 id="svg2">
  <rect x="0" y="0" width="1000" height="1070" stroke-width="2" stroke="white" fill="white"/>
  <text x="12.5" y="30"
   font-family="Arial" font-size="25" fill="black" >
   Current time: 0 days, 12 hours, and 30.00 minutes, z = 0.00 &#956;m
  </text>
  <text x="12.5" y="57.5"
   font-family="Arial" font-size="23.75" fill="black" >
   106 agents
  </text>
 <g id="tissue" 
    transform="translate(0,1070) scale(1,-1)">
  <g id="ECM">
  </g>
  <g id="cells">
   <g id="cell0">
  <circle cx="505.16" cy="608.246" r="10.5189" stroke-width="0.5" stroke="black" fill="grey"/>
  <circle cx="505.16" cy="608.246" r="6.3332" stroke-width="0.5" stroke="grey" fill="grey"/>
   </g>
   <g id="cell118">
  <circle cx="920.85" cy="613.709" r="10.5012" stroke-width="0.5" stroke="black" fill="yellow"/>
  <circle cx="920.85" cy="613.709" r="6.32534" stroke-width="0.5" stroke="yellow" fill="yellow"/>
   </g>
   <g id="cell2">
  <circle cx="550.341" cy="824.071" r="1.57699" stroke-width="0.5" stroke="black" fill="grey"/>
  <circle cx="550.341" cy="824.071" r="1.56796" stroke-width="0.5" stroke="black" fill="black"/>
   </g>
   <g id="cell3">
  <circle cx="601.009" cy="627.833" r="10.5012" stroke-width="0.5" stroke="black" fill="grey"/>
  <circle cx="601.009" cy="627.833" r="6.32534" stroke-width="0.5" stroke="grey" fill="grey"/>
   </g>
   <g id="cell4">
  <circle cx="415.352" cy="304.555" r="1.25143" stroke-width="0.5" stroke="black" fill="grey"/>
  <circle cx="415.352" cy="304.555" r="1.24538" stroke-width="0.5" stroke="black" fill="black"/>
   </g>
   <g id="cell5">
  <circle cx="75.5167" cy="967.659" r="2.35583" stroke-width="0.5" stroke="black" fill="grey"/>
  <circle cx="75.5167" cy="967.659" r="2.25983" stroke-width="0.5" stroke="black" fill="black"/>
   </g>
   <g id="cell6">
  <circle cx="389.616" cy="477.221" r="10.5233" stroke-width="0.5" stroke="black" fill="grey"/>
  <circle cx="389.616" cy="477.221" r="6.33514" stroke-width="0.5" stroke="grey" fill="grey"/>
   </g>
   <g id="cell7">
  <circle cx="869.872" cy="532.38" r="10.4401" stroke-width="0.5" stroke="black" fill="grey"/>
  <circle cx="869.872" cy="532.38" r="6.29691" stroke-width="0.5" stroke="grey" fill="grey"/>
   </g>
   <g id="cell8">
  <circle cx="583.453" cy="405.579" r="10.3933" stroke-width="0.5" stroke="black" fill="grey"/>
  <circle cx="583.453" cy="405.579" r="6.27417" stroke-width="0.5" stroke="grey" fill="grey"/>
   </g>
   <g id="cell112">
  <circle cx="775.845" cy="755.466" r="10.4894" stroke-width="0.5" stroke="black" fill="yellow"/>
  <circle cx="775.845" cy="755.466" r="6.31998" stroke-width="0.5" stroke="yellow" fill="yellow"/>
   </g>
   <g id="cell10">
  <circle cx="134.269" cy="642.6" r="6.4714" stroke-width="0.5" stroke="black" fill="grey"/>
  <circle cx="134.269" cy="642.6" r="4.27929" stroke-width="0.5" stroke="black" fill="black"/>
   </g>
   <g id="cell11">
  <circle cx="340.013" cy="823.586" r="10.2821" stroke-width="0.5" stroke="black" fill="grey"/>
  <circle cx="340.013" cy="823.586" r="6.21778" stroke-width="0.5" stroke="grey" fill="grey"/>
   </g>
   <g id="cell12">
  <circle cx="782.392" cy="134.503" r="1.22129" stroke-width="0.5" stroke="black" fill="grey"/>
  <circle cx="782.392" cy="134.503" r="1.21615" stroke-width="0.5" stroke="black" fill="black"/>
   </g>
   <g id="cell13">
  <circle cx="880.851" cy="956.12" r="1.33939" stroke-width="0.5" stroke="black" fill="grey"/>
  <circle cx="880.851" cy="956.12" r="1.33263" stroke-width="0.5" stroke="black" fill="black"/>
   </g>
   <g id="cell14">
  <circle cx="838.103" cy="829.667" r="1.72355" stroke-width="0.5" stroke="black" fill="grey"/>
  <circle cx="838.103" cy="829.667" r="1.70653" stroke-width="0.5" stroke="black" fill="black"/>
   </g>
   <g id="cell15">
  <circle cx="525.275" cy="767.583" r="1.7327" stroke-width="0.5" stroke="black" fill="grey"/>
  <circle cx="525.275" cy="767.583" r="1.7144" stroke-width="0.5" stroke="black" fill="black"/>
   </g>
   <g id="cell16">
  <circle cx="163.797" cy="748.76" r="10.4651" stroke-width="0.5" stroke="black" fill="grey"/>
  <circle cx="163.797" cy="748.76" r="6.30877" stroke-width="0.5" stroke="grey" fill="grey"/>
   </g>
   <g id="cell116">
  <circle cx="824.378" cy="479.017" r="9.70201" stroke-width="0.5" stroke="black" fill="yellow"/>
  <circle cx="824.378" cy="479.017" r="5.89426" stroke-width="0.5" stroke="yellow" fill="yellow"/>
   </g>
   <g id="cell18">
  <circle cx="959.432" cy="705.774" r="5.5239" stroke-width="0.5" stroke="black" fill="grey"/>
  <circle cx="959.432" cy="705.774" r="3.81472" stroke-width="0.5" stroke="black" fill="black"/>
   </g>
   <g id="cell19">
  <circle cx="91.6991" cy="418.138" r="1.33388" stroke-width="0.5" stroke="black" fill="grey"/>
  <circle cx="91.6991" cy="418.138" r="1.32662" stroke-width="0.5" stroke="black" fill="black"/>
   </g>
   <g id="cell20">
  <circle cx="235.936" cy="175.959" r="10.3084" stroke-width="0.5" stroke="black" fill="grey"/>
  <circle cx="235.936" cy="175.959" r="6.23137" stroke-width="0.5" stroke="grey" fill="grey"/>
   </g>
   <g id="cell21">
  <circle cx="724.733" cy="441.273" r="1.38109" stroke-width="0.5" stroke="black" fill="grey"/>
  <circle cx="724.733" cy="441.273" r="1.3695" stroke-width="0.5" stroke="black" fill="black"/>
   </g>
   <g id="cell115">
  <circle cx="204.777" cy="15.1056" r="10.4613" stroke-width="0.5" stroke="black" fill="yellow"/>
  <circle cx="204.777" cy="15.1056" r="6.30695" stroke-width="0.5" stroke="yellow" fill="yellow"/>
   </g>
   <g id="cell108">
  <circle cx="711.509" cy="36.4752" r="10.5166" stroke-width="0.5" stroke="black" fill="yellow"/>
  <circle cx="711.509" cy="36.4752" r="6.33218" stroke-width="0.5" stroke="yellow" fill="yellow"/>
   </g>
   <g id="cell24">
  <circle cx="608.109" cy="222.435" r="2.91577" stroke-width="0.5" stroke="black" fill="grey"/>
  <circle cx="608.109" cy="222.435" r="2.65079" stroke-width="0.5" stroke="black" fill="black"/>
   </g>
   <g id="cell25">
  <circle cx="391.324" cy="976.029" r="1.21718" stroke-width="0.5" stroke="black" fill="grey"/>
  <circle cx="391.324" cy="976.029" r="1.21276" stroke-width="0.5" stroke="black" fill="black"/>
   </g>
   <g id="cell26">
  <circle cx="638.772" cy="439.125" r="10.4984" stroke-width="0.5" stroke="black" fill="grey"/>
  <circle cx="638.772" cy="439.125" r="6.32406" stroke-width="0.5" stroke="grey" fill="grey"/>
   </g>
   <g id="cell117">
  <circle cx="895.158" cy="372.142" r="9.94548" stroke-width="0.5" stroke="black" fill="yellow"/>
  <circle cx="895.158" cy="372.142" r="6.03448" stroke-width="0.5" stroke="yellow" fill="yellow"/>
   </g>
   <g id="cell28">
  <circle cx="660.832" cy="145.259" r="10.4796" stroke-width="0.5" stroke="black" fill="grey"/>
  <circle cx="660.832" cy="145.259" r="6.31548" stroke-width="0.5" stroke="grey" fill="grey"/>
   </g>
   <g id="cell29">
  <circle cx="977.034" cy="689.255" r="10.5039" stroke-width="0.5" stroke="black" fill="grey"/>
  <circle cx="977.034" cy="689.255" r="6.32657" stroke-width="0.5" stroke="grey" fill="grey"/>
   </g>
   <g id="cell30">
  <circle cx="716.75" cy="153.854" r="9.84395" stroke-width="0.5" stroke="black" fill="grey"/>
  <circle cx="716.75" cy="153.854" r="5.97665" stroke-width="0.5" stroke="grey" fill="grey"/>
   </g>
   <g id="cell31">
  <circle cx="398.328" cy="108.012" r="10.3084" stroke-width="0.5" stroke="black" fill="grey"/>
  <circle cx="398.328" cy="108.012" r="6.23137" stroke-width="0.5" stroke="grey" fill="grey"/>
   </g>
   <g id="cell114">
  <circle cx="36.0657" cy="338.182" r="10.3325" stroke-width="0.5" stroke="black" fill="yellow"/>
  <circle cx="36.0657" cy="338.182" r="6.24369" stroke-width="0.5" stroke="yellow" fill="yellow"/>
   </g>
   <g id="cell107">
  <circle cx="378.533" cy="437.853" r="8.51252" stroke-width="0.5" stroke="black" fill="yellow"/>
  <circle cx="378.533" cy="437.853" r="5.12552" stroke-width="0.5" stroke="yellow" fill="yellow"/>
   </g>
   <g id="cell106">
  <circle cx="41.4236" cy="985.26" r="10.4862" stroke-width="0.5" stroke="black" fill="yellow"/>
  <circle cx="41.4236" cy="985.26" r="6.31853" stroke-width="0.5" stroke="yellow" fill="yellow"/>
   </g>
   <g id="cell35">
  <circle cx="914.04" cy="98.0465" r="8.41271" stroke-width="0.5" stroke="black" fill="grey"/>
  <circle cx="914.04" cy="98.0465" r="5.05167" stroke-width="0.5" stroke="grey" fill="grey"/>
   </g>
   <g id="cell109">
  <circle cx="359.51" cy="945.296" r="10.3615" stroke-width="0.5" stroke="black" fill="yellow"/>
  <circle cx="359.51" cy="945.296" r="6.25834" stroke-width="0.5" stroke="yellow" fill="yellow"/>
   </g>
   <g id="cell111">
  <circle cx="772.87" cy="367.553" r="9.88629" stroke-width="0.5" stroke="black" fill="yellow"/>
  <circle cx="772.87" cy="367.553" r="6.00088" stroke-width="0.5" stroke="yellow" fill="yellow"/>
   </g>
   <g id="cell38">
  <circle cx="228.983" cy="445.784" r="2.29115" stroke-width="0.5" stroke="black" fill="grey"/>
  <circle cx="228.983" cy="445.784" r="2.20902" stroke-width="0.5" stroke="black" fill="black"/>
   </g>
   <g id="cell110">
  <circle cx="856.703" cy="237.993" r="8.41271" stroke-width="0.5" stroke="black" fill="yellow"/>
  <circle cx="856.703" cy="237.993" r="5.05167" stroke-width="0.5" stroke="yellow" fill="yellow"/>
   </g>
   <g id="cell40">
  <circle cx="170.354" cy="369.534" r="10.4489" stroke-width="0.5" stroke="black" fill="red"/>
  <circle cx="170.354" cy="369.534" r="6.30112" stroke-width="0.5" stroke="red" fill="red"/>
   </g>
   <g id="cell41">
  <circle cx="675.208" cy="659.37" r="10.483" stroke-width="0.5" stroke="black" fill="red"/>
  <circle cx="675.208" cy="659.37" r="6.31703" stroke-width="0.5" stroke="red" fill="red"/>
   </g>
   <g id="cell42">
  <circle cx="157.635" cy="736.792" r="10.483" stroke-width="0.5" stroke="black" fill="red"/>
  <circle cx="157.635" cy="736.792" r="6.31703" stroke-width="0.5" stroke="red" fill="red"/>
   </g>
   <g id="cell43">
  <circle cx="894.769" cy="379.256" r="10.3474" stroke-width="0.5" stroke="black" fill="red"/>
  <circle cx="894.769" cy="379.256" r="6.25125" stroke-width="0.5" stroke="red" fill="red"/>
   </g>
   <g id="cell44">
  <circle cx="821.755" cy="19.321" r="10.4446" stroke-width="0.5" stroke="black" fill="red"/>
  <circle cx="821.755" cy="19.321" r="6.29905" stroke-width="0.5" stroke="red" fill="red"/>
   </g>
   <g id="cell45">
  <circle cx="644.366" cy="822.693" r="10.1996" stroke-width="0.5" stroke="black" fill="red"/>
  <circle cx="644.366" cy="822.693" r="6.17434" stroke-width="0.5" stroke="red" fill="red"/>
   </g>
   <g id="cell46">
  <circle cx="51.6262" cy="916.059" r="10.4984" stroke-width="0.5" stroke="black" fill="red"/>
  <circle cx="51.6262" cy="916.059" r="6.32406" stroke-width="0.5" stroke="red" fill="red"/>
   </g>
   <g id="cell47">
  <circle cx="885.919" cy="431.6" r="10.4651" stroke-width="0.5" stroke="black" fill="red"/>
  <circle cx="885.919" cy="431.6" r="6.30877" stroke-width="0.5" stroke="red" fill="red"/>
   </g>
   <g id="cell48">
  <circle cx="929.767" cy="41.0016" r="10.5092" stroke-width="0.5" stroke="black" fill="red"/>
  <circle cx="929.767" cy="41.0016" r="6.32893" stroke-width="0.5" stroke="red" fill="red"/>
   </g>
   <g id="cell49">
  <circle cx="457.641" cy="782.799" r="10.3545" stroke-width="0.5" stroke="black" fill="red"/>
  <circle cx="457.641" cy="782.799" r="6.25485" stroke-width="0.5" stroke="red" fill="red"/>
   </g>
   <g id="cell50">
  <circle cx="25.7005" cy="475.662" r="10.5233" stroke-width="0.5" stroke="black" fill="red"/>
  <circle cx="25.7005" cy="475.662" r="6.33514" stroke-width="0.5" stroke="red" fill="red"/>
   </g>
   <g id="cell51">
  <circle cx="985.402" cy="144.346" r="10.5117" stroke-width="0.5" stroke="black" fill="red"/>
  <circle cx="985.402" cy="144.346" r="6.33005" stroke-width="0.5" stroke="red" fill="red"/>
   </g>
   <g id="cell52">
  <circle cx="289.862" cy="499.505" r="1.48947" stroke-width="0.5" stroke="black" fill="red"/>
  <circle cx="289.862" cy="499.505" r="1.47064" stroke-width="0.5" stroke="black" fill="black"/>
   </g>
   <g id="cell53">
  <circle cx="676.813" cy="352.122" r="10.4984" stroke-width="0.5" stroke="black" fill="red"/>
  <circle cx="676.813" cy="352.122" r="6.32406" stroke-width="0.5" stroke="red" fill="red"/>
   </g>
   <g id="cell54">
  <circle cx="455.984" cy="932.213" r="10.3933" stroke-width="0.5" stroke="black" fill="red"/>
  <circle cx="455.984" cy="932.213" r="6.27417" stroke-width="0.5" stroke="red" fill="red"/>
   </g>
   <g id="cell55">
  <circle cx="265.38" cy="715.921" r="9.2729" stroke-width="0.5" stroke="black" fill="red"/>
  <circle cx="265.38" cy="715.921" r="5.63555" stroke-width="0.5" stroke="red" fill="red"/>
   </g>
   <g id="cell56">
  <circle cx="550.091" cy="803.157" r="10.4531" stroke-width="0.5" stroke="black" fill="red"/>
  <circle cx="550.091" cy="803.157" r="6.30312" stroke-width="0.5" stroke="red" fill="red"/>
   </g>
   <g id="cell57">
  <circle cx="480.275" cy="559.661" r="10.4761" stroke-width="0.5" stroke="black" fill="red"/>
  <circle cx="480.275" cy="559.661" r="6.31388" stroke-width="0.5" stroke="red" fill="red"/>
   </g>
   <g id="cell58">
  <circle cx="64.9295" cy="916.74" r="10.3991" stroke-width="0.5" stroke="black" fill="red"/>
  <circle cx="64.9295" cy="916.74" r="6.27703" stroke-width="0.5" stroke="red" fill="red"/>
   </g>
   <g id="cell59">
  <circle cx="97.1009" cy="921.722" r="10.3615" stroke-width="0.5" stroke="black" fill="red"/>
  <circle cx="97.1009" cy="921.722" r="6.25834" stroke-width="0.5" stroke="red" fill="red"/>
   </g>
   <g id="cell60">
  <circle cx="277.514" cy="59.807" r="10.3084" stroke-width="0.5" stroke="black" fill="red"/>
  <circle cx="277.514" cy="59.807" r="6.23137" stroke-width="0.5" stroke="red" fill="red"/>
   </g>
   <g id="cell61">
  <circle cx="842.007" cy="133.108" r="10.3991" stroke-width="0.5" stroke="black" fill="red"/>
  <circle cx="842.007" cy="133.108" r="6.27703" stroke-width="0.5" stroke="red" fill="red"/>
   </g>
   <g id="cell62">
  <circle cx="725.942" cy="809.917" r="8.41271" stroke-width="0.5" stroke="black" fill="red"/>
  <circle cx="725.942" cy="809.917" r="5.05167" stroke-width="0.5" stroke="red" fill="red"/>
   </g>
   <g id="cell63">
  <circle cx="302.14" cy="205.172" r="10.4689" stroke-width="0.5" stroke="black" fill="red"/>
  <circle cx="302.14" cy="205.172" r="6.31053" stroke-width="0.5" stroke="red" fill="red"/>
   </g>
   <g id="cell64">
  <circle cx="575.486" cy="551.618" r="8.41271" stroke-width="0.5" stroke="black" fill="red"/>
  <circle cx="575.486" cy="551.618" r="5.05167" stroke-width="0.5" stroke="red" fill="red"/>
   </g>
   <g id="cell65">
  <circle cx="203.108" cy="844.105" r="9.82189" stroke-width="0.5" stroke="black" fill="red"/>
  <circle cx="203.108" cy="844.105" r="5.96395" stroke-width="0.5" stroke="red" fill="red"/>
   </g>
   <g id="cell66">
  <circle cx="36.0618" cy="153.626" r="10.2433" stroke-width="0.5" stroke="black" fill="red"/>
  <circle cx="36.0618" cy="153.626" r="6.19748" stroke-width="0.5" stroke="red" fill="red"/>
   </g>
   <g id="cell67">
  <circle cx="526.32" cy="261.628" r="10.1996" stroke-width="0.5" stroke="black" fill="red"/>
  <circle cx="526.32" cy="261.628" r="6.17434" stroke-width="0.5" stroke="red" fill="red"/>
   </g>
   <g id="cell68">
  <circle cx="770.077" cy="277.965" r="10.4894" stroke-width="0.5" stroke="black" fill="red"/>
  <circle cx="770.077" cy="277.965" r="6.31998" stroke-width="0.5" stroke="red" fill="red"/>
   </g>
   <g id="cell69">
  <circle cx="453.39" cy="275.329" r="10.3084" stroke-width="0.5" stroke="black" fill="red"/>
  <circle cx="453.39" cy="275.329" r="6.23137" stroke-width="0.5" stroke="red" fill="red"/>
   </g>
   <g id="cell70">
  <circle cx="564.292" cy="390.358" r="10.3615" stroke-width="0.5" stroke="black" fill="red"/>
  <circle cx="564.292" cy="390.358" r="6.25834" stroke-width="0.5" stroke="red" fill="red"/>
   </g>
   <g id="cell71">
  <circle cx="886.134" cy="513.334" r="10.5092" stroke-width="0.5" stroke="black" fill="red"/>
  <circle cx="886.134" cy="513.334" r="6.32893" stroke-width="0.5" stroke="red" fill="red"/>
   </g>
   <g id="cell72">
  <circle cx="226.461" cy="880.58" r="10.4573" stroke-width="0.5" stroke="black" fill="red"/>
  <circle cx="226.461" cy="880.58" r="6.30507" stroke-width="0.5" stroke="red" fill="red"/>
   </g>
   <g id="cell73">
  <circle cx="678.991" cy="466.875" r="10.4925" stroke-width="0.5" stroke="black" fill="red"/>
  <circle cx="678.991" cy="466.875" r="6.32139" stroke-width="0.5" stroke="red" fill="red"/>
   </g>
   <g id="cell74">
  <circle cx="836.089" cy="987.548" r="10.3933" stroke-width="0.5" stroke="black" fill="red"/>
  <circle cx="836.089" cy="987.548" r="6.27417" stroke-width="0.5" stroke="red" fill="red"/>
   </g>
   <g id="cell75">
  <circle cx="98.5903" cy="315.229" r="10.4862" stroke-width="0.5" stroke="black" fill="red"/>
  <circle cx="98.5903" cy="315.229" r="6.31853" stroke-width="0.5" stroke="red" fill="red"/>
   </g>
   <g id="cell76">
  <circle cx="790.92" cy="404.438" r="10.3811" stroke-width="0.5" stroke="black" fill="red"/>
  <circle cx="790.92" cy="404.438" r="6.26814" stroke-width="0.5" stroke="red" fill="red"/>
   </g>
   <g id="cell77">
  <circle cx="633.179" cy="851.292" r="10.4401" stroke-width="0.5" stroke="black" fill="red"/>
  <circle cx="633.179" cy="851.292" r="6.29691" stroke-width="0.5" stroke="red" fill="red"/>
   </g>
   <g id="cell78">
  <circle cx="596.747" cy="269" r="10.4102" stroke-width="0.5" stroke="black" fill="red"/>
  <circle cx="596.747" cy="269" r="6.2825" stroke-width="0.5" stroke="red" fill="red"/>
   </g>
   <g id="cell79">
  <circle cx="959.079" cy="713.536" r="10.211" stroke-width="0.5" stroke="black" fill="red"/>
  <circle cx="959.079" cy="713.536" r="6.18041" stroke-width="0.5" stroke="red" fill="red"/>
   </g>
   <g id="cell80">
  <circle cx="749.265" cy="690.577" r="8.41271" stroke-width="0.5" stroke="black" fill="yellow"/>
  <circle cx="749.265" cy="690.577" r="5.05167" stroke-width="0.5" stroke="yellow" fill="yellow"/>
   </g>
   <g id="cell81">
  <circle cx="513.196" cy="992.292" r="8.41271" stroke-width="0.5" stroke="black" fill="yellow"/>
  <circle cx="513.196" cy="992.292" r="5.05167" stroke-width="0.5" stroke="yellow" fill="yellow"/>
   </g>
   <g id="cell82">
  <circle cx="668.874" cy="409.735" r="10.4651" stroke-width="0.5" stroke="black" fill="yellow"/>
  <circle cx="668.874" cy="409.735" r="6.30877" stroke-width="0.5" stroke="yellow" fill="yellow"/>
   </g>
   <g id="cell83">
  <circle cx="603.649" cy="590.886" r="10.4355" stroke-width="0.5" stroke="black" fill="yellow"/>
  <circle cx="603.649" cy="590.886" r="6.2947" stroke-width="0.5" stroke="yellow" fill="yellow"/>
   </g>
   <g id="cell84">
  <circle cx="22.2045" cy="486.134" r="10.2433" stroke-width="0.5" stroke="black" fill="yellow"/>
  <circle cx="22.2045" cy="486.134" r="6.19748" stroke-width="0.5" stroke="yellow" fill="yellow"/>
   </g>
   <g id="cell85">
  <circle cx="734.172" cy="657.628" r="10.4925" stroke-width="0.5" stroke="black" fill="yellow"/>
  <circle cx="734.172" cy="657.628" r="6.32139" stroke-width="0.5" stroke="yellow" fill="yellow"/>
   </g>
   <g id="cell86">
  <circle cx="276.661" cy="436.008" r="9.98223" stroke-width="0.5" stroke="black" fill="yellow"/>
  <circle cx="276.661" cy="436.008" r="6.05517" stroke-width="0.5" stroke="yellow" fill="yellow"/>
   </g>
   <g id="cell87">
  <circle cx="769.378" cy="423.176" r="10.5189" stroke-width="0.5" stroke="black" fill="yellow"/>
  <circle cx="769.378" cy="423.176" r="6.3332" stroke-width="0.5" stroke="yellow" fill="yellow"/>
   </g>
   <g id="cell88">
  <circle cx="148.407" cy="112.876" r="10.4208" stroke-width="0.5" stroke="black" fill="yellow"/>
  <circle cx="148.407" cy="112.876" r="6.28762" stroke-width="0.5" stroke="yellow" fill="yellow"/>
   </g>
   <g id="cell89">
  <circle cx="61.8246" cy="563.381" r="10.0955" stroke-width="0.5" stroke="black" fill="yellow"/>
  <circle cx="61.8246" cy="563.381" r="6.11797" stroke-width="0.5" stroke="yellow" fill="yellow"/>
   </g>
   <g id="cell119">
  <circle cx="564.621" cy="39.4647" r="10.0806" stroke-width="0.5" stroke="black" fill="yellow"/>
  <circle cx="564.621" cy="39.4647" r="6.10985" stroke-width="0.5" stroke="yellow" fill="yellow"/>
   </g>
   <g id="cell91">
  <circle cx="37.6635" cy="645.739" r="10.2328" stroke-width="0.5" stroke="black" fill="yellow"/>
  <circle cx="37.6635" cy="645.739" r="6.19197" stroke-width="0.5" stroke="yellow" fill="yellow"/>
   </g>
   <g id="cell92">
  <circle cx="633.313" cy="308.726" r="10.4102" stroke-width="0.5" stroke="black" fill="yellow"/>
  <circle cx="633.313" cy="308.726" r="6.2825" stroke-width="0.5" stroke="yellow" fill="yellow"/>
   </g>
   <g id="cell93">
  <circle cx="226.017" cy="889.505" r="10.5189" stroke-width="0.5" stroke="black" fill="yellow"/>
  <circle cx="226.017" cy="889.505" r="6.3332" stroke-width="0.5" stroke="yellow" fill="yellow"/>
   </g>
   <g id="cell94">
  <circle cx="362.584" cy="87.8487" r="10.3325" stroke-width="0.5" stroke="black" fill="yellow"/>
  <circle cx="362.584" cy="87.8487" r="6.24369" stroke-width="0.5" stroke="yellow" fill="yellow"/>
   </g>
   <g id="cell95">
  <circle cx="957.912" cy="895.693" r="10.3682" stroke-width="0.5" stroke="black" fill="yellow"/>
  <circle cx="957.912" cy="895.693" r="6.26172" stroke-width="0.5" stroke="yellow" fill="yellow"/>
   </g>
   <g id="cell96">
  <circle cx="785.111" cy="551.491" r="10.3747" stroke-width="0.5" stroke="black" fill="yellow"/>
  <circle cx="785.111" cy="551.491" r="6.26498" stroke-width="0.5" stroke="yellow" fill="yellow"/>
   </g>
   <g id="cell97">
  <circle cx="434.919" cy="119.934" r="9.88629" stroke-width="0.5" stroke="black" fill="yellow"/>
  <circle cx="434.919" cy="119.934" r="6.00088" stroke-width="0.5" stroke="yellow" fill="yellow"/>
   </g>
   <g id="cell98">
  <circle cx="937.38" cy="368.989" r="10.1098" stroke-width="0.5" stroke="black" fill="yellow"/>
  <circle cx="937.38" cy="368.989" r="6.12585" stroke-width="0.5" stroke="yellow" fill="yellow"/>
   </g>
   <g id="cell99">
  <circle cx="505.749" cy="967.975" r="10.1996" stroke-width="0.5" stroke="black" fill="yellow"/>
  <circle cx="505.749" cy="967.975" r="6.17434" stroke-width="0.5" stroke="yellow" fill="yellow"/>
   </g>
   <g id="cell100">
  <circle cx="148.889" cy="843.774" r="10.4955" stroke-width="0.5" stroke="black" fill="yellow"/>
  <circle cx="148.889" cy="843.774" r="6.32275" stroke-width="0.5" stroke="yellow" fill="yellow"/>
   </g>
   <g id="cell101">
  <circle cx="92.9497" cy="140.203" r="8.61424" stroke-width="0.5" stroke="black" fill="yellow"/>
  <circle cx="92.9497" cy="140.203" r="5.20061" stroke-width="0.5" stroke="yellow" fill="yellow"/>
   </g>
   <g id="cell102">
  <circle cx="609.284" cy="180.388" r="10.3747" stroke-width="0.5" stroke="black" fill="yellow"/>
  <circle cx="609.284" cy="180.388" r="6.26498" stroke-width="0.5" stroke="yellow" fill="yellow"/>
   </g>
   <g id="cell103">
  <circle cx="844.59" cy="856.485" r="8.41271" stroke-width="0.5" stroke="black" fill="yellow"/>
  <circle cx="844.59" cy="856.485" r="5.05167" stroke-width="0.5" stroke="yellow" fill="yellow"/>
   </g>
   <g id="cell104">
  <circle cx="799.046" cy="417.818" r="10.5142" stroke-width="0.5" stroke="black" fill="yellow"/>
  <circle cx="799.046" cy="417.818" r="6.33113" stroke-width="0.5" stroke="yellow" fill="yellow"/>
   </g>
   <g id="cell105">
  <circle cx="122.91" cy="422.423" r="8.41271" stroke-width="0.5" stroke="black" fill="yellow"/>
  <circle cx="122.91" cy="422.423" r="5.05167" stroke-width="0.5" stroke="yellow" fill="yellow"/>
   </g>
  </g>
 </g>
  <rect x="775" y="1035" width="200" height="10" stroke-width="2" stroke="rgb(255,255,255)" fill="rgb(0,0,0)"/>
  <text x="781.25" y="1028.75"
   font-family="Arial" font-size="25" fill="black" >
   200 &#956;m
  </text>
  <text x="25" y="1045"
   font-family="Arial" font-size="18.75" fill="black" >
   0 days, 0 hours, 0 minutes, and 51.8542 seconds
  </text>
  <rect x="0" y="70" width="1000" height="1000" stroke-width="2" stroke="rgb(0,0,0)" fill="none"/>
</svg>
