<?xml version="1.0" encoding="UTF-8" standalone="no"?>
<!-- Created with PhysiCell (http://PhysiCell.MathCancer.org/) -->
<svg 
 xmlns:dc="http://purl.org/dc/elements/1.1/" 
 xmlns:cc="http://creativecommons.org/ns#" 
 xmlns:rdf="http://www.w3.org/1999/02/22-rdf-syntax-ns#" 
 xmlns:svg="http://www.w3.org/2000/svg" 
 xmlns="http://www.w3.org/2000/svg" 
 version="1.1" 
 width="1000" 
 height="1070" 
 id="svg2">
  <rect x="0" y="0" width="1000" height="1070" stroke-width="2" stroke="white" fill="white"/>
  <text x="12.5" y="30"
   font-family="Arial" font-size="25" fill="black" >
   Current time: 0 days, 22 hours, and 30.00 minutes, z = 0.00 &#956;m
  </text>
  <text x="12.5" y="57.5"
   font-family="Arial" font-size="23.75" fill="black" >
   154 agents
  </text>
 <g id="tissue" 
    transform="translate(0,1070) scale(1,-1)">
  <g id="ECM">
  </g>
  <g id="cells">
   <g id="cell0">
  <circle cx="508.011" cy="638.935" r="10.1607" stroke-width="0.5" stroke="black" fill="grey"/>
  <circle cx="508.011" cy="638.935" r="6.15412" stroke-width="0.5" stroke="grey" fill="grey"/>
   </g>
   <g id="cell118">
  <circle cx="866.493" cy="590.69" r="8.40801" stroke-width="0.5" stroke="black" fill="yellow"/>
  <circle cx="866.493" cy="590.69" r="5.05031" stroke-width="0.5" stroke="yellow" fill="yellow"/>
   </g>
   <g id="cell100">
  <circle cx="130.393" cy="807.306" r="10.1204" stroke-width="0.5" stroke="black" fill="yellow"/>
  <circle cx="130.393" cy="807.306" r="6.13243" stroke-width="0.5" stroke="yellow" fill="yellow"/>
   </g>
   <g id="cell3">
  <circle cx="610.629" cy="620.221" r="9.99651" stroke-width="0.5" stroke="black" fill="grey"/>
  <circle cx="610.629" cy="620.221" r="6.06402" stroke-width="0.5" stroke="grey" fill="grey"/>
   </g>
   <g id="cell103">
  <circle cx="825.543" cy="860.969" r="10.3811" stroke-width="0.5" stroke="black" fill="yellow"/>
  <circle cx="825.543" cy="860.969" r="6.26814" stroke-width="0.5" stroke="yellow" fill="yellow"/>
   </g>
   <g id="cell135">
  <circle cx="163.03" cy="795.221" r="9.26881" stroke-width="0.5" stroke="black" fill="yellow"/>
  <circle cx="163.03" cy="795.221" r="5.63425" stroke-width="0.5" stroke="yellow" fill="yellow"/>
   </g>
   <g id="cell185">
  <circle cx="876.478" cy="393.549" r="8.39021" stroke-width="0.5" stroke="black" fill="yellow"/>
  <circle cx="876.478" cy="393.549" r="5.0439" stroke-width="0.5" stroke="yellow" fill="yellow"/>
   </g>
   <g id="cell7">
  <circle cx="876.566" cy="498.605" r="9.77029" stroke-width="0.5" stroke="black" fill="grey"/>
  <circle cx="876.566" cy="498.605" r="5.93555" stroke-width="0.5" stroke="grey" fill="grey"/>
   </g>
   <g id="cell8">
  <circle cx="587.455" cy="419.288" r="1.84771" stroke-width="0.5" stroke="black" fill="grey"/>
  <circle cx="587.455" cy="419.288" r="1.82609" stroke-width="0.5" stroke="black" fill="black"/>
   </g>
   <g id="cell112">
  <circle cx="753.677" cy="739.81" r="8.40745" stroke-width="0.5" stroke="black" fill="yellow"/>
  <circle cx="753.677" cy="739.81" r="5.05013" stroke-width="0.5" stroke="yellow" fill="yellow"/>
   </g>
   <g id="cell176">
  <circle cx="237.278" cy="74.8637" r="8.39913" stroke-width="0.5" stroke="black" fill="red"/>
  <circle cx="237.278" cy="74.8637" r="5.04725" stroke-width="0.5" stroke="red" fill="red"/>
   </g>
   <g id="cell186">
  <circle cx="75.868" cy="569.243" r="8.38957" stroke-width="0.5" stroke="black" fill="yellow"/>
  <circle cx="75.868" cy="569.243" r="5.04365" stroke-width="0.5" stroke="yellow" fill="yellow"/>
   </g>
   <g id="cell104">
  <circle cx="764.527" cy="404.093" r="10.0141" stroke-width="0.5" stroke="black" fill="yellow"/>
  <circle cx="764.527" cy="404.093" r="6.07371" stroke-width="0.5" stroke="yellow" fill="yellow"/>
   </g>
   <g id="cell102">
  <circle cx="595.272" cy="162.344" r="8.56841" stroke-width="0.5" stroke="black" fill="yellow"/>
  <circle cx="595.272" cy="162.344" r="5.17132" stroke-width="0.5" stroke="yellow" fill="yellow"/>
   </g>
   <g id="cell98">
  <circle cx="881.719" cy="399.139" r="8.39021" stroke-width="0.5" stroke="black" fill="yellow"/>
  <circle cx="881.719" cy="399.139" r="5.0439" stroke-width="0.5" stroke="yellow" fill="yellow"/>
   </g>
   <g id="cell97">
  <circle cx="435.135" cy="95.5012" r="10.5585" stroke-width="0.5" stroke="black" fill="yellow"/>
  <circle cx="435.135" cy="95.5012" r="6.34997" stroke-width="0.5" stroke="yellow" fill="yellow"/>
   </g>
   <g id="cell16">
  <circle cx="143.754" cy="721.231" r="9.86077" stroke-width="0.5" stroke="black" fill="grey"/>
  <circle cx="143.754" cy="721.231" r="5.98749" stroke-width="0.5" stroke="grey" fill="grey"/>
   </g>
   <g id="cell116">
  <circle cx="816.338" cy="444.74" r="10.5482" stroke-width="0.5" stroke="black" fill="yellow"/>
  <circle cx="816.338" cy="444.74" r="6.34574" stroke-width="0.5" stroke="yellow" fill="yellow"/>
   </g>
   <g id="cell177">
  <circle cx="452.051" cy="279.752" r="8.39913" stroke-width="0.5" stroke="black" fill="red"/>
  <circle cx="452.051" cy="279.752" r="5.04725" stroke-width="0.5" stroke="red" fill="red"/>
   </g>
   <g id="cell101">
  <circle cx="106.653" cy="160.133" r="10.4761" stroke-width="0.5" stroke="black" fill="yellow"/>
  <circle cx="106.653" cy="160.133" r="6.31388" stroke-width="0.5" stroke="yellow" fill="yellow"/>
   </g>
   <g id="cell184">
  <circle cx="519.974" cy="277.729" r="8.79086" stroke-width="0.5" stroke="black" fill="red"/>
  <circle cx="519.974" cy="277.729" r="5.32978" stroke-width="0.5" stroke="red" fill="red"/>
   </g>
   <g id="cell99">
  <circle cx="495.375" cy="977.533" r="8.46471" stroke-width="0.5" stroke="black" fill="yellow"/>
  <circle cx="495.375" cy="977.533" r="5.09701" stroke-width="0.5" stroke="yellow" fill="yellow"/>
   </g>
   <g id="cell115">
  <circle cx="201.148" cy="23.4769" r="9.2314" stroke-width="0.5" stroke="black" fill="yellow"/>
  <circle cx="201.148" cy="23.4769" r="5.61138" stroke-width="0.5" stroke="yellow" fill="yellow"/>
   </g>
   <g id="cell108">
  <circle cx="708.096" cy="37.302" r="1.59385" stroke-width="0.5" stroke="black" fill="yellow"/>
  <circle cx="708.096" cy="37.302" r="1.58564" stroke-width="0.5" stroke="black" fill="black"/>
   </g>
   <g id="cell153">
  <circle cx="170.909" cy="407.128" r="9.69664" stroke-width="0.5" stroke="black" fill="red"/>
  <circle cx="170.909" cy="407.128" r="5.89253" stroke-width="0.5" stroke="red" fill="red"/>
   </g>
   <g id="cell105">
  <circle cx="65.3147" cy="416.908" r="10.4102" stroke-width="0.5" stroke="black" fill="yellow"/>
  <circle cx="65.3147" cy="416.908" r="6.2825" stroke-width="0.5" stroke="yellow" fill="yellow"/>
   </g>
   <g id="cell26">
  <circle cx="656.804" cy="471.495" r="9.79564" stroke-width="0.5" stroke="black" fill="grey"/>
  <circle cx="656.804" cy="471.495" r="5.94976" stroke-width="0.5" stroke="grey" fill="grey"/>
   </g>
   <g id="cell117">
  <circle cx="883.695" cy="392.857" r="10.5618" stroke-width="0.5" stroke="black" fill="yellow"/>
  <circle cx="883.695" cy="392.857" r="6.3513" stroke-width="0.5" stroke="yellow" fill="yellow"/>
   </g>
   <g id="cell28">
  <circle cx="701.302" cy="130.812" r="8.407" stroke-width="0.5" stroke="black" fill="grey"/>
  <circle cx="701.302" cy="130.812" r="5.04998" stroke-width="0.5" stroke="grey" fill="grey"/>
   </g>
   <g id="cell29">
  <circle cx="934.758" cy="646.625" r="8.64694" stroke-width="0.5" stroke="black" fill="grey"/>
  <circle cx="934.758" cy="646.625" r="5.2259" stroke-width="0.5" stroke="grey" fill="grey"/>
   </g>
   <g id="cell30">
  <circle cx="749.284" cy="135.287" r="10.5561" stroke-width="0.5" stroke="black" fill="grey"/>
  <circle cx="749.284" cy="135.287" r="6.34901" stroke-width="0.5" stroke="grey" fill="grey"/>
   </g>
   <g id="cell31">
  <circle cx="415.138" cy="106.68" r="1.6675" stroke-width="0.5" stroke="black" fill="grey"/>
  <circle cx="415.138" cy="106.68" r="1.65627" stroke-width="0.5" stroke="black" fill="black"/>
   </g>
   <g id="cell114">
  <circle cx="56.0521" cy="344.389" r="8.42007" stroke-width="0.5" stroke="black" fill="yellow"/>
  <circle cx="56.0521" cy="344.389" r="5.06152" stroke-width="0.5" stroke="yellow" fill="yellow"/>
   </g>
   <g id="cell107">
  <circle cx="371.071" cy="434.929" r="10.4651" stroke-width="0.5" stroke="black" fill="yellow"/>
  <circle cx="371.071" cy="434.929" r="6.30877" stroke-width="0.5" stroke="yellow" fill="yellow"/>
   </g>
   <g id="cell106">
  <circle cx="30.3898" cy="922.659" r="9.92242" stroke-width="0.5" stroke="black" fill="yellow"/>
  <circle cx="30.3898" cy="922.659" r="6.02243" stroke-width="0.5" stroke="yellow" fill="yellow"/>
   </g>
   <g id="cell35">
  <circle cx="931.943" cy="78.1294" r="10.3474" stroke-width="0.5" stroke="black" fill="grey"/>
  <circle cx="931.943" cy="78.1294" r="6.25125" stroke-width="0.5" stroke="grey" fill="grey"/>
   </g>
   <g id="cell109">
  <circle cx="364.31" cy="972.557" r="8.40154" stroke-width="0.5" stroke="black" fill="yellow"/>
  <circle cx="364.31" cy="972.557" r="5.04811" stroke-width="0.5" stroke="yellow" fill="yellow"/>
   </g>
   <g id="cell111">
  <circle cx="774.622" cy="365.291" r="10.5585" stroke-width="0.5" stroke="black" fill="yellow"/>
  <circle cx="774.622" cy="365.291" r="6.34997" stroke-width="0.5" stroke="yellow" fill="yellow"/>
   </g>
   <g id="cell131">
  <circle cx="640.673" cy="589.785" r="9.53191" stroke-width="0.5" stroke="black" fill="grey"/>
  <circle cx="640.673" cy="589.785" r="5.79446" stroke-width="0.5" stroke="grey" fill="grey"/>
   </g>
   <g id="cell110">
  <circle cx="880.488" cy="269.387" r="10.4446" stroke-width="0.5" stroke="black" fill="yellow"/>
  <circle cx="880.488" cy="269.387" r="6.29905" stroke-width="0.5" stroke="yellow" fill="yellow"/>
   </g>
   <g id="cell40">
  <circle cx="160.458" cy="407.144" r="9.46867" stroke-width="0.5" stroke="black" fill="red"/>
  <circle cx="160.458" cy="407.144" r="5.75692" stroke-width="0.5" stroke="red" fill="red"/>
   </g>
   <g id="cell41">
  <circle cx="677.658" cy="716.509" r="9.64514" stroke-width="0.5" stroke="black" fill="red"/>
  <circle cx="677.658" cy="716.509" r="5.86196" stroke-width="0.5" stroke="red" fill="red"/>
   </g>
   <g id="cell42">
  <circle cx="156.973" cy="719.018" r="8.88314" stroke-width="0.5" stroke="black" fill="red"/>
  <circle cx="156.973" cy="719.018" r="5.388" stroke-width="0.5" stroke="red" fill="red"/>
   </g>
   <g id="cell43">
  <circle cx="880.976" cy="407.283" r="8.87754" stroke-width="0.5" stroke="black" fill="red"/>
  <circle cx="880.976" cy="407.283" r="5.38598" stroke-width="0.5" stroke="red" fill="red"/>
   </g>
   <g id="cell44">
  <circle cx="844.386" cy="62.5112" r="8.96185" stroke-width="0.5" stroke="black" fill="red"/>
  <circle cx="844.386" cy="62.5112" r="5.44017" stroke-width="0.5" stroke="red" fill="red"/>
   </g>
   <g id="cell45">
  <circle cx="637.503" cy="836.981" r="8.39422" stroke-width="0.5" stroke="black" fill="red"/>
  <circle cx="637.503" cy="836.981" r="5.04543" stroke-width="0.5" stroke="red" fill="red"/>
   </g>
   <g id="cell46">
  <circle cx="44.8495" cy="938.105" r="8.40788" stroke-width="0.5" stroke="black" fill="red"/>
  <circle cx="44.8495" cy="938.105" r="5.05027" stroke-width="0.5" stroke="red" fill="red"/>
   </g>
   <g id="cell47">
  <circle cx="881.806" cy="442.129" r="9.37172" stroke-width="0.5" stroke="black" fill="red"/>
  <circle cx="881.806" cy="442.129" r="5.69789" stroke-width="0.5" stroke="red" fill="red"/>
   </g>
   <g id="cell48">
  <circle cx="922.221" cy="44.4801" r="10.0467" stroke-width="0.5" stroke="black" fill="red"/>
  <circle cx="922.221" cy="44.4801" r="6.09187" stroke-width="0.5" stroke="red" fill="red"/>
   </g>
   <g id="cell49">
  <circle cx="500.313" cy="781.612" r="8.40123" stroke-width="0.5" stroke="black" fill="red"/>
  <circle cx="500.313" cy="781.612" r="5.048" stroke-width="0.5" stroke="red" fill="red"/>
   </g>
   <g id="cell50">
  <circle cx="9.22184" cy="446.959" r="9.15973" stroke-width="0.5" stroke="black" fill="red"/>
  <circle cx="9.22184" cy="446.959" r="5.56582" stroke-width="0.5" stroke="red" fill="red"/>
   </g>
   <g id="cell51">
  <circle cx="906.3" cy="124.859" r="9.86236" stroke-width="0.5" stroke="black" fill="red"/>
  <circle cx="906.3" cy="124.859" r="5.98802" stroke-width="0.5" stroke="red" fill="red"/>
   </g>
   <g id="cell96">
  <circle cx="825.562" cy="543.464" r="9.33436" stroke-width="0.5" stroke="black" fill="yellow"/>
  <circle cx="825.562" cy="543.464" r="5.67585" stroke-width="0.5" stroke="yellow" fill="yellow"/>
   </g>
   <g id="cell53">
  <circle cx="685.324" cy="314.344" r="10.0773" stroke-width="0.5" stroke="black" fill="red"/>
  <circle cx="685.324" cy="314.344" r="6.10883" stroke-width="0.5" stroke="red" fill="red"/>
   </g>
   <g id="cell54">
  <circle cx="434.55" cy="917.231" r="8.403" stroke-width="0.5" stroke="black" fill="red"/>
  <circle cx="434.55" cy="917.231" r="5.04863" stroke-width="0.5" stroke="red" fill="red"/>
   </g>
   <g id="cell55">
  <circle cx="222.269" cy="664.508" r="10.5233" stroke-width="0.5" stroke="black" fill="red"/>
  <circle cx="222.269" cy="664.508" r="6.33514" stroke-width="0.5" stroke="red" fill="red"/>
   </g>
   <g id="cell56">
  <circle cx="563.26" cy="856.088" r="9.64408" stroke-width="0.5" stroke="black" fill="red"/>
  <circle cx="563.26" cy="856.088" r="5.86159" stroke-width="0.5" stroke="red" fill="red"/>
   </g>
   <g id="cell57">
  <circle cx="473.45" cy="558.055" r="9.74755" stroke-width="0.5" stroke="black" fill="red"/>
  <circle cx="473.45" cy="558.055" r="5.92204" stroke-width="0.5" stroke="red" fill="red"/>
   </g>
   <g id="cell58">
  <circle cx="38.3506" cy="912.903" r="9.26513" stroke-width="0.5" stroke="black" fill="red"/>
  <circle cx="38.3506" cy="912.903" r="5.63294" stroke-width="0.5" stroke="red" fill="red"/>
   </g>
   <g id="cell59">
  <circle cx="83.9354" cy="987.209" r="9.40115" stroke-width="0.5" stroke="black" fill="red"/>
  <circle cx="83.9354" cy="987.209" r="5.71678" stroke-width="0.5" stroke="red" fill="red"/>
   </g>
   <g id="cell60">
  <circle cx="261.21" cy="56.6327" r="8.39913" stroke-width="0.5" stroke="black" fill="red"/>
  <circle cx="261.21" cy="56.6327" r="5.04725" stroke-width="0.5" stroke="red" fill="red"/>
   </g>
   <g id="cell61">
  <circle cx="835.163" cy="133.42" r="8.40327" stroke-width="0.5" stroke="black" fill="red"/>
  <circle cx="835.163" cy="133.42" r="5.04872" stroke-width="0.5" stroke="red" fill="red"/>
   </g>
   <g id="cell62">
  <circle cx="735.025" cy="822.084" r="9.37686" stroke-width="0.5" stroke="black" fill="red"/>
  <circle cx="735.025" cy="822.084" r="5.69955" stroke-width="0.5" stroke="red" fill="red"/>
   </g>
   <g id="cell63">
  <circle cx="326.394" cy="164.72" r="8.4065" stroke-width="0.5" stroke="black" fill="red"/>
  <circle cx="326.394" cy="164.72" r="5.04982" stroke-width="0.5" stroke="red" fill="red"/>
   </g>
   <g id="cell64">
  <circle cx="606.28" cy="551.332" r="9.90658" stroke-width="0.5" stroke="black" fill="red"/>
  <circle cx="606.28" cy="551.332" r="6.01243" stroke-width="0.5" stroke="red" fill="red"/>
   </g>
   <g id="cell65">
  <circle cx="190.302" cy="844.985" r="1.48651" stroke-width="0.5" stroke="black" fill="red"/>
  <circle cx="190.302" cy="844.985" r="1.48085" stroke-width="0.5" stroke="black" fill="black"/>
   </g>
   <g id="cell66">
  <circle cx="24.1605" cy="162.108" r="8.95378" stroke-width="0.5" stroke="black" fill="red"/>
  <circle cx="24.1605" cy="162.108" r="5.43715" stroke-width="0.5" stroke="red" fill="red"/>
   </g>
   <g id="cell67">
  <circle cx="517.699" cy="250.148" r="8.39422" stroke-width="0.5" stroke="black" fill="red"/>
  <circle cx="517.699" cy="250.148" r="5.04543" stroke-width="0.5" stroke="red" fill="red"/>
   </g>
   <g id="cell68">
  <circle cx="758.921" cy="226.103" r="9.40588" stroke-width="0.5" stroke="black" fill="red"/>
  <circle cx="758.921" cy="226.103" r="5.71848" stroke-width="0.5" stroke="red" fill="red"/>
   </g>
   <g id="cell69">
  <circle cx="439.117" cy="275.683" r="8.39913" stroke-width="0.5" stroke="black" fill="red"/>
  <circle cx="439.117" cy="275.683" r="5.04725" stroke-width="0.5" stroke="red" fill="red"/>
   </g>
   <g id="cell70">
  <circle cx="529.899" cy="338.621" r="8.44501" stroke-width="0.5" stroke="black" fill="red"/>
  <circle cx="529.899" cy="338.621" r="5.07943" stroke-width="0.5" stroke="red" fill="red"/>
   </g>
   <g id="cell71">
  <circle cx="859.223" cy="533.798" r="10.0776" stroke-width="0.5" stroke="black" fill="red"/>
  <circle cx="859.223" cy="533.798" r="6.10894" stroke-width="0.5" stroke="red" fill="red"/>
   </g>
   <g id="cell72">
  <circle cx="185.847" cy="886.91" r="9.74689" stroke-width="0.5" stroke="black" fill="red"/>
  <circle cx="185.847" cy="886.91" r="5.92182" stroke-width="0.5" stroke="red" fill="red"/>
   </g>
   <g id="cell73">
  <circle cx="661.546" cy="427.511" r="8.92376" stroke-width="0.5" stroke="black" fill="red"/>
  <circle cx="661.546" cy="427.511" r="5.41467" stroke-width="0.5" stroke="red" fill="red"/>
   </g>
   <g id="cell74">
  <circle cx="860.146" cy="958.823" r="8.403" stroke-width="0.5" stroke="black" fill="red"/>
  <circle cx="860.146" cy="958.823" r="5.04863" stroke-width="0.5" stroke="red" fill="red"/>
   </g>
   <g id="cell75">
  <circle cx="100.282" cy="325.094" r="9.69794" stroke-width="0.5" stroke="black" fill="red"/>
  <circle cx="100.282" cy="325.094" r="5.89299" stroke-width="0.5" stroke="red" fill="red"/>
   </g>
   <g id="cell76">
  <circle cx="785.296" cy="410.519" r="8.40244" stroke-width="0.5" stroke="black" fill="red"/>
  <circle cx="785.296" cy="410.519" r="5.04843" stroke-width="0.5" stroke="red" fill="red"/>
   </g>
   <g id="cell77">
  <circle cx="639.098" cy="840.371" r="9.00147" stroke-width="0.5" stroke="black" fill="red"/>
  <circle cx="639.098" cy="840.371" r="5.46591" stroke-width="0.5" stroke="red" fill="red"/>
   </g>
   <g id="cell78">
  <circle cx="585.829" cy="278.615" r="8.83981" stroke-width="0.5" stroke="black" fill="red"/>
  <circle cx="585.829" cy="278.615" r="5.36011" stroke-width="0.5" stroke="red" fill="red"/>
   </g>
   <g id="cell79">
  <circle cx="968.847" cy="692.708" r="8.39473" stroke-width="0.5" stroke="black" fill="red"/>
  <circle cx="968.847" cy="692.708" r="5.04562" stroke-width="0.5" stroke="red" fill="red"/>
   </g>
   <g id="cell80">
  <circle cx="759.541" cy="671.038" r="10.4307" stroke-width="0.5" stroke="black" fill="yellow"/>
  <circle cx="759.541" cy="671.038" r="6.29241" stroke-width="0.5" stroke="yellow" fill="yellow"/>
   </g>
   <g id="cell81">
  <circle cx="505.973" cy="988.495" r="9.62199" stroke-width="0.5" stroke="black" fill="yellow"/>
  <circle cx="505.973" cy="988.495" r="5.8471" stroke-width="0.5" stroke="yellow" fill="yellow"/>
   </g>
   <g id="cell82">
  <circle cx="657.799" cy="423.948" r="9.95957" stroke-width="0.5" stroke="black" fill="yellow"/>
  <circle cx="657.799" cy="423.948" r="6.04356" stroke-width="0.5" stroke="yellow" fill="yellow"/>
   </g>
   <g id="cell83">
  <circle cx="594.14" cy="568.137" r="9.37061" stroke-width="0.5" stroke="black" fill="yellow"/>
  <circle cx="594.14" cy="568.137" r="5.69749" stroke-width="0.5" stroke="yellow" fill="yellow"/>
   </g>
   <g id="cell84">
  <circle cx="14.8967" cy="513.843" r="8.39618" stroke-width="0.5" stroke="black" fill="yellow"/>
  <circle cx="14.8967" cy="513.843" r="5.04616" stroke-width="0.5" stroke="yellow" fill="yellow"/>
   </g>
   <g id="cell85">
  <circle cx="760.951" cy="671.573" r="10.0133" stroke-width="0.5" stroke="black" fill="yellow"/>
  <circle cx="760.951" cy="671.573" r="6.07347" stroke-width="0.5" stroke="yellow" fill="yellow"/>
   </g>
   <g id="cell86">
  <circle cx="314.017" cy="456.871" r="10.5639" stroke-width="0.5" stroke="black" fill="yellow"/>
  <circle cx="314.017" cy="456.871" r="6.35212" stroke-width="0.5" stroke="yellow" fill="yellow"/>
   </g>
   <g id="cell87">
  <circle cx="739.75" cy="405.365" r="8.40884" stroke-width="0.5" stroke="black" fill="yellow"/>
  <circle cx="739.75" cy="405.365" r="5.05057" stroke-width="0.5" stroke="yellow" fill="yellow"/>
   </g>
   <g id="cell88">
  <circle cx="152.165" cy="105.459" r="5.59687" stroke-width="0.5" stroke="black" fill="yellow"/>
  <circle cx="152.165" cy="105.459" r="3.80504" stroke-width="0.5" stroke="black" fill="black"/>
   </g>
   <g id="cell89">
  <circle cx="68.3857" cy="533.375" r="8.38957" stroke-width="0.5" stroke="black" fill="yellow"/>
  <circle cx="68.3857" cy="533.375" r="5.04365" stroke-width="0.5" stroke="yellow" fill="yellow"/>
   </g>
   <g id="cell119">
  <circle cx="575.009" cy="35.5235" r="2.4557" stroke-width="0.5" stroke="black" fill="yellow"/>
  <circle cx="575.009" cy="35.5235" r="2.34048" stroke-width="0.5" stroke="black" fill="black"/>
   </g>
   <g id="cell91">
  <circle cx="20.2732" cy="667.029" r="8.39571" stroke-width="0.5" stroke="black" fill="yellow"/>
  <circle cx="20.2732" cy="667.029" r="5.04599" stroke-width="0.5" stroke="yellow" fill="yellow"/>
   </g>
   <g id="cell92">
  <circle cx="658.543" cy="293.369" r="9.07876" stroke-width="0.5" stroke="black" fill="yellow"/>
  <circle cx="658.543" cy="293.369" r="5.51581" stroke-width="0.5" stroke="yellow" fill="yellow"/>
   </g>
   <g id="cell93">
  <circle cx="247.856" cy="862.179" r="8.40884" stroke-width="0.5" stroke="black" fill="yellow"/>
  <circle cx="247.856" cy="862.179" r="5.05057" stroke-width="0.5" stroke="yellow" fill="yellow"/>
   </g>
   <g id="cell94">
  <circle cx="376.746" cy="101.781" r="8.40022" stroke-width="0.5" stroke="black" fill="yellow"/>
  <circle cx="376.746" cy="101.781" r="5.04764" stroke-width="0.5" stroke="yellow" fill="yellow"/>
   </g>
   <g id="cell95">
  <circle cx="963.218" cy="909.054" r="9.36812" stroke-width="0.5" stroke="black" fill="yellow"/>
  <circle cx="963.218" cy="909.054" r="5.69658" stroke-width="0.5" stroke="yellow" fill="yellow"/>
   </g>
   <g id="cell121">
  <circle cx="11.8593" cy="492.637" r="8.40905" stroke-width="0.5" stroke="black" fill="red"/>
  <circle cx="11.8593" cy="492.637" r="5.05064" stroke-width="0.5" stroke="red" fill="red"/>
   </g>
   <g id="cell122">
  <circle cx="741.093" cy="450.342" r="9.96136" stroke-width="0.5" stroke="black" fill="yellow"/>
  <circle cx="741.093" cy="450.342" r="6.04416" stroke-width="0.5" stroke="yellow" fill="yellow"/>
   </g>
   <g id="cell123">
  <circle cx="272.154" cy="884.275" r="8.40884" stroke-width="0.5" stroke="black" fill="yellow"/>
  <circle cx="272.154" cy="884.275" r="5.05057" stroke-width="0.5" stroke="yellow" fill="yellow"/>
   </g>
   <g id="cell124">
  <circle cx="503.53" cy="644.141" r="9.1216" stroke-width="0.5" stroke="black" fill="grey"/>
  <circle cx="503.53" cy="644.141" r="5.5418" stroke-width="0.5" stroke="grey" fill="grey"/>
   </g>
   <g id="cell125">
  <circle cx="792.454" cy="402.81" r="10.0778" stroke-width="0.5" stroke="black" fill="yellow"/>
  <circle cx="792.454" cy="402.81" r="6.109" stroke-width="0.5" stroke="yellow" fill="yellow"/>
   </g>
   <g id="cell126">
  <circle cx="983.07" cy="165.062" r="9.00439" stroke-width="0.5" stroke="black" fill="red"/>
  <circle cx="983.07" cy="165.062" r="5.46693" stroke-width="0.5" stroke="red" fill="red"/>
   </g>
   <g id="cell127">
  <circle cx="888.445" cy="524.102" r="10.0139" stroke-width="0.5" stroke="black" fill="red"/>
  <circle cx="888.445" cy="524.102" r="6.07366" stroke-width="0.5" stroke="red" fill="red"/>
   </g>
   <g id="cell128">
  <circle cx="918.966" cy="35.5188" r="8.68531" stroke-width="0.5" stroke="black" fill="red"/>
  <circle cx="918.966" cy="35.5188" r="5.25294" stroke-width="0.5" stroke="red" fill="red"/>
   </g>
   <g id="cell129">
  <circle cx="959.398" cy="675.097" r="9.92302" stroke-width="0.5" stroke="black" fill="grey"/>
  <circle cx="959.398" cy="675.097" r="6.02263" stroke-width="0.5" stroke="grey" fill="grey"/>
   </g>
   <g id="cell130">
  <circle cx="899.775" cy="606.143" r="8.40801" stroke-width="0.5" stroke="black" fill="yellow"/>
  <circle cx="899.775" cy="606.143" r="5.05031" stroke-width="0.5" stroke="yellow" fill="yellow"/>
   </g>
   <g id="cell132">
  <circle cx="49.5509" cy="917.76" r="9.59019" stroke-width="0.5" stroke="black" fill="red"/>
  <circle cx="49.5509" cy="917.76" r="5.82927" stroke-width="0.5" stroke="red" fill="red"/>
   </g>
   <g id="cell133">
  <circle cx="660.471" cy="360.697" r="8.40788" stroke-width="0.5" stroke="black" fill="red"/>
  <circle cx="660.471" cy="360.697" r="5.05027" stroke-width="0.5" stroke="red" fill="red"/>
   </g>
   <g id="cell134">
  <circle cx="624.796" cy="437.129" r="8.40788" stroke-width="0.5" stroke="black" fill="grey"/>
  <circle cx="624.796" cy="437.129" r="5.05027" stroke-width="0.5" stroke="grey" fill="grey"/>
   </g>
   <g id="cell136">
  <circle cx="651.491" cy="435.094" r="9.12054" stroke-width="0.5" stroke="black" fill="red"/>
  <circle cx="651.491" cy="435.094" r="5.54144" stroke-width="0.5" stroke="red" fill="red"/>
   </g>
   <g id="cell137">
  <circle cx="780.237" cy="664.331" r="8.4076" stroke-width="0.5" stroke="black" fill="yellow"/>
  <circle cx="780.237" cy="664.331" r="5.05018" stroke-width="0.5" stroke="yellow" fill="yellow"/>
   </g>
   <g id="cell138">
  <circle cx="746.466" cy="240.574" r="10.046" stroke-width="0.5" stroke="black" fill="red"/>
  <circle cx="746.466" cy="240.574" r="6.09165" stroke-width="0.5" stroke="red" fill="red"/>
   </g>
   <g id="cell139">
  <circle cx="781.596" cy="740.503" r="8.40745" stroke-width="0.5" stroke="black" fill="yellow"/>
  <circle cx="781.596" cy="740.503" r="5.05013" stroke-width="0.5" stroke="yellow" fill="yellow"/>
   </g>
   <g id="cell140">
  <circle cx="73.4679" cy="306.078" r="10.0131" stroke-width="0.5" stroke="black" fill="red"/>
  <circle cx="73.4679" cy="306.078" r="6.0734" stroke-width="0.5" stroke="red" fill="red"/>
   </g>
   <g id="cell141">
  <circle cx="41.1238" cy="980.201" r="9.96027" stroke-width="0.5" stroke="black" fill="yellow"/>
  <circle cx="41.1238" cy="980.201" r="6.0438" stroke-width="0.5" stroke="yellow" fill="yellow"/>
   </g>
   <g id="cell142">
  <circle cx="656.547" cy="655.901" r="8.40715" stroke-width="0.5" stroke="black" fill="red"/>
  <circle cx="656.547" cy="655.901" r="5.05003" stroke-width="0.5" stroke="red" fill="red"/>
   </g>
   <g id="cell143">
  <circle cx="129.273" cy="747.096" r="8.40715" stroke-width="0.5" stroke="black" fill="red"/>
  <circle cx="129.273" cy="747.096" r="5.05003" stroke-width="0.5" stroke="red" fill="red"/>
   </g>
   <g id="cell144">
  <circle cx="638.388" cy="158.46" r="9.69771" stroke-width="0.5" stroke="black" fill="grey"/>
  <circle cx="638.388" cy="158.46" r="5.89291" stroke-width="0.5" stroke="grey" fill="grey"/>
   </g>
   <g id="cell145">
  <circle cx="519.173" cy="536.746" r="8.40683" stroke-width="0.5" stroke="black" fill="red"/>
  <circle cx="519.173" cy="536.746" r="5.04993" stroke-width="0.5" stroke="red" fill="red"/>
   </g>
   <g id="cell146">
  <circle cx="325.918" cy="196.181" r="9.5603" stroke-width="0.5" stroke="black" fill="red"/>
  <circle cx="325.918" cy="196.181" r="5.81173" stroke-width="0.5" stroke="red" fill="red"/>
   </g>
   <g id="cell147">
  <circle cx="661.34" cy="414.444" r="8.40632" stroke-width="0.5" stroke="black" fill="yellow"/>
  <circle cx="661.34" cy="414.444" r="5.04976" stroke-width="0.5" stroke="yellow" fill="yellow"/>
   </g>
   <g id="cell148">
  <circle cx="177.476" cy="762.9" r="9.9777" stroke-width="0.5" stroke="black" fill="grey"/>
  <circle cx="177.476" cy="762.9" r="6.05375" stroke-width="0.5" stroke="grey" fill="grey"/>
   </g>
   <g id="cell149">
  <circle cx="873.305" cy="428.887" r="9.86077" stroke-width="0.5" stroke="black" fill="red"/>
  <circle cx="873.305" cy="428.887" r="5.98749" stroke-width="0.5" stroke="red" fill="red"/>
   </g>
   <g id="cell150">
  <circle cx="170.896" cy="34.1435" r="8.57224" stroke-width="0.5" stroke="black" fill="yellow"/>
  <circle cx="170.896" cy="34.1435" r="5.17266" stroke-width="0.5" stroke="yellow" fill="yellow"/>
   </g>
   <g id="cell151">
  <circle cx="224.788" cy="908.115" r="8.40596" stroke-width="0.5" stroke="black" fill="red"/>
  <circle cx="224.788" cy="908.115" r="5.04964" stroke-width="0.5" stroke="red" fill="red"/>
   </g>
   <g id="cell152">
  <circle cx="564.608" cy="847.357" r="9.74675" stroke-width="0.5" stroke="black" fill="red"/>
  <circle cx="564.608" cy="847.357" r="5.92177" stroke-width="0.5" stroke="red" fill="red"/>
   </g>
   <g id="cell154">
  <circle cx="841.814" cy="35.269" r="8.50535" stroke-width="0.5" stroke="black" fill="red"/>
  <circle cx="841.814" cy="35.269" r="5.12331" stroke-width="0.5" stroke="red" fill="red"/>
   </g>
   <g id="cell155">
  <circle cx="637.504" cy="880.759" r="9.64362" stroke-width="0.5" stroke="black" fill="red"/>
  <circle cx="637.504" cy="880.759" r="5.86143" stroke-width="0.5" stroke="red" fill="red"/>
   </g>
   <g id="cell156">
  <circle cx="910.334" cy="517.095" r="9.52969" stroke-width="0.5" stroke="black" fill="grey"/>
  <circle cx="910.334" cy="517.095" r="5.79369" stroke-width="0.5" stroke="grey" fill="grey"/>
   </g>
   <g id="cell157">
  <circle cx="596.948" cy="617.611" r="8.42477" stroke-width="0.5" stroke="black" fill="yellow"/>
  <circle cx="596.948" cy="617.611" r="5.06316" stroke-width="0.5" stroke="yellow" fill="yellow"/>
   </g>
   <g id="cell158">
  <circle cx="163.19" cy="140.34" r="7.89623" stroke-width="0.5" stroke="black" fill="yellow"/>
  <circle cx="163.19" cy="140.34" r="4.88834" stroke-width="0.5" stroke="black" fill="black"/>
   </g>
   <g id="cell159">
  <circle cx="670.724" cy="287.596" r="8.40378" stroke-width="0.5" stroke="black" fill="yellow"/>
  <circle cx="670.724" cy="287.596" r="5.0489" stroke-width="0.5" stroke="yellow" fill="yellow"/>
   </g>
   <g id="cell160">
  <circle cx="625.365" cy="270.407" r="8.53588" stroke-width="0.5" stroke="black" fill="red"/>
  <circle cx="625.365" cy="270.407" r="5.14673" stroke-width="0.5" stroke="red" fill="red"/>
   </g>
   <g id="cell161">
  <circle cx="39.9117" cy="929.436" r="4.89502" stroke-width="0.5" stroke="black" fill="red"/>
  <circle cx="39.9117" cy="929.436" r="3.28862" stroke-width="0.5" stroke="black" fill="black"/>
   </g>
   <g id="cell162">
  <circle cx="843.47" cy="119.345" r="9.64219" stroke-width="0.5" stroke="black" fill="red"/>
  <circle cx="843.47" cy="119.345" r="5.86091" stroke-width="0.5" stroke="red" fill="red"/>
   </g>
   <g id="cell163">
  <circle cx="424.342" cy="972.371" r="9.58644" stroke-width="0.5" stroke="black" fill="red"/>
  <circle cx="424.342" cy="972.371" r="5.82794" stroke-width="0.5" stroke="red" fill="red"/>
   </g>
   <g id="cell164">
  <circle cx="844.19" cy="955.1" r="8.403" stroke-width="0.5" stroke="black" fill="red"/>
  <circle cx="844.19" cy="955.1" r="5.04863" stroke-width="0.5" stroke="red" fill="red"/>
   </g>
   <g id="cell165">
  <circle cx="823.85" cy="397.492" r="9.55716" stroke-width="0.5" stroke="black" fill="red"/>
  <circle cx="823.85" cy="397.492" r="5.8106" stroke-width="0.5" stroke="red" fill="red"/>
   </g>
   <g id="cell166">
  <circle cx="806.779" cy="543.667" r="9.52735" stroke-width="0.5" stroke="black" fill="yellow"/>
  <circle cx="806.779" cy="543.667" r="5.79284" stroke-width="0.5" stroke="yellow" fill="yellow"/>
   </g>
   <g id="cell167">
  <circle cx="631.779" cy="149.656" r="8.40215" stroke-width="0.5" stroke="black" fill="yellow"/>
  <circle cx="631.779" cy="149.656" r="5.04833" stroke-width="0.5" stroke="yellow" fill="yellow"/>
   </g>
   <g id="cell168">
  <circle cx="957.145" cy="903.129" r="9.15366" stroke-width="0.5" stroke="black" fill="yellow"/>
  <circle cx="957.145" cy="903.129" r="5.56366" stroke-width="0.5" stroke="yellow" fill="yellow"/>
   </g>
   <g id="cell169">
  <circle cx="363.299" cy="964" r="8.87811" stroke-width="0.5" stroke="black" fill="yellow"/>
  <circle cx="363.299" cy="964" r="5.3862" stroke-width="0.5" stroke="yellow" fill="yellow"/>
   </g>
   <g id="cell170">
  <circle cx="67.4249" cy="985.966" r="8.40154" stroke-width="0.5" stroke="black" fill="red"/>
  <circle cx="67.4249" cy="985.966" r="5.04811" stroke-width="0.5" stroke="red" fill="red"/>
   </g>
   <g id="cell171">
  <circle cx="551.143" cy="369.817" r="8.95849" stroke-width="0.5" stroke="black" fill="red"/>
  <circle cx="551.143" cy="369.817" r="5.43894" stroke-width="0.5" stroke="red" fill="red"/>
   </g>
   <g id="cell172">
  <circle cx="461.083" cy="780.066" r="9.03753" stroke-width="0.5" stroke="black" fill="red"/>
  <circle cx="461.083" cy="780.066" r="5.49005" stroke-width="0.5" stroke="red" fill="red"/>
   </g>
   <g id="cell173">
  <circle cx="935.356" cy="421.462" r="8.4009" stroke-width="0.5" stroke="black" fill="red"/>
  <circle cx="935.356" cy="421.462" r="5.04788" stroke-width="0.5" stroke="red" fill="red"/>
   </g>
   <g id="cell174">
  <circle cx="383.451" cy="95.7207" r="8.40022" stroke-width="0.5" stroke="black" fill="yellow"/>
  <circle cx="383.451" cy="95.7207" r="5.04764" stroke-width="0.5" stroke="yellow" fill="yellow"/>
   </g>
   <g id="cell175">
  <circle cx="39.4092" cy="321.702" r="9.15229" stroke-width="0.5" stroke="black" fill="yellow"/>
  <circle cx="39.4092" cy="321.702" r="5.56314" stroke-width="0.5" stroke="yellow" fill="yellow"/>
   </g>
   <g id="cell178">
  <circle cx="59.1915" cy="172.053" r="8.79265" stroke-width="0.5" stroke="black" fill="red"/>
  <circle cx="59.1915" cy="172.053" r="5.33047" stroke-width="0.5" stroke="red" fill="red"/>
   </g>
   <g id="cell179">
  <circle cx="31.2565" cy="503.855" r="8.39618" stroke-width="0.5" stroke="black" fill="yellow"/>
  <circle cx="31.2565" cy="503.855" r="5.04616" stroke-width="0.5" stroke="yellow" fill="yellow"/>
   </g>
   <g id="cell180">
  <circle cx="41.0816" cy="666.354" r="8.39571" stroke-width="0.5" stroke="black" fill="yellow"/>
  <circle cx="41.0816" cy="666.354" r="5.04599" stroke-width="0.5" stroke="yellow" fill="yellow"/>
   </g>
   <g id="cell181">
  <circle cx="975.776" cy="680.418" r="8.39473" stroke-width="0.5" stroke="black" fill="red"/>
  <circle cx="975.776" cy="680.418" r="5.04562" stroke-width="0.5" stroke="red" fill="red"/>
   </g>
   <g id="cell182">
  <circle cx="522.32" cy="968.079" r="8.39422" stroke-width="0.5" stroke="black" fill="yellow"/>
  <circle cx="522.32" cy="968.079" r="5.04543" stroke-width="0.5" stroke="yellow" fill="yellow"/>
   </g>
   <g id="cell183">
  <circle cx="651.015" cy="831.113" r="8.39422" stroke-width="0.5" stroke="black" fill="red"/>
  <circle cx="651.015" cy="831.113" r="5.04543" stroke-width="0.5" stroke="red" fill="red"/>
   </g>
  </g>
 </g>
  <rect x="775" y="1035" width="200" height="10" stroke-width="2" stroke="rgb(255,255,255)" fill="rgb(0,0,0)"/>
  <text x="781.25" y="1028.75"
   font-family="Arial" font-size="25" fill="black" >
   200 &#956;m
  </text>
  <text x="25" y="1045"
   font-family="Arial" font-size="18.75" fill="black" >
   0 days, 0 hours, 1 minutes, and 36.7211 seconds
  </text>
  <rect x="0" y="70" width="1000" height="1000" stroke-width="2" stroke="rgb(0,0,0)" fill="none"/>
</svg>
