<?xml version="1.0" encoding="UTF-8" standalone="no"?>
<!-- Created with PhysiCell (http://PhysiCell.MathCancer.org/) -->
<svg 
 xmlns:dc="http://purl.org/dc/elements/1.1/" 
 xmlns:cc="http://creativecommons.org/ns#" 
 xmlns:rdf="http://www.w3.org/1999/02/22-rdf-syntax-ns#" 
 xmlns:svg="http://www.w3.org/2000/svg" 
 xmlns="http://www.w3.org/2000/svg" 
 version="1.1" 
 width="1000" 
 height="1070" 
 id="svg2">
  <rect x="0" y="0" width="1000" height="1070" stroke-width="2" stroke="white" fill="white"/>
  <text x="12.5" y="30"
   font-family="Arial" font-size="25" fill="black" >
   Current time: 0 days, 12 hours, and 0.00 minutes, z = 0.00 &#956;m
  </text>
  <text x="12.5" y="57.5"
   font-family="Arial" font-size="23.75" fill="black" >
   108 agents
  </text>
 <g id="tissue" 
    transform="translate(0,1070) scale(1,-1)">
  <g id="ECM">
  </g>
  <g id="cells">
   <g id="cell0">
  <circle cx="500.857" cy="605.058" r="10.5066" stroke-width="0.5" stroke="black" fill="grey"/>
  <circle cx="500.857" cy="605.058" r="6.32777" stroke-width="0.5" stroke="grey" fill="grey"/>
   </g>
   <g id="cell118">
  <circle cx="912.293" cy="607.89" r="10.4862" stroke-width="0.5" stroke="black" fill="yellow"/>
  <circle cx="912.293" cy="607.89" r="6.31853" stroke-width="0.5" stroke="yellow" fill="yellow"/>
   </g>
   <g id="cell2">
  <circle cx="550.341" cy="824.071" r="1.67743" stroke-width="0.5" stroke="black" fill="grey"/>
  <circle cx="550.341" cy="824.071" r="1.66389" stroke-width="0.5" stroke="black" fill="black"/>
   </g>
   <g id="cell3">
  <circle cx="598.805" cy="630.711" r="10.4862" stroke-width="0.5" stroke="black" fill="grey"/>
  <circle cx="598.805" cy="630.711" r="6.31853" stroke-width="0.5" stroke="grey" fill="grey"/>
   </g>
   <g id="cell4">
  <circle cx="415.352" cy="304.555" r="1.33065" stroke-width="0.5" stroke="black" fill="grey"/>
  <circle cx="415.352" cy="304.555" r="1.32157" stroke-width="0.5" stroke="black" fill="black"/>
   </g>
   <g id="cell5">
  <circle cx="75.5167" cy="967.659" r="2.5401" stroke-width="0.5" stroke="black" fill="grey"/>
  <circle cx="75.5167" cy="967.659" r="2.39809" stroke-width="0.5" stroke="black" fill="black"/>
   </g>
   <g id="cell6">
  <circle cx="389.687" cy="475.888" r="10.5117" stroke-width="0.5" stroke="black" fill="grey"/>
  <circle cx="389.687" cy="475.888" r="6.33005" stroke-width="0.5" stroke="grey" fill="grey"/>
   </g>
   <g id="cell7">
  <circle cx="872.667" cy="541.214" r="10.4156" stroke-width="0.5" stroke="black" fill="grey"/>
  <circle cx="872.667" cy="541.214" r="6.2851" stroke-width="0.5" stroke="grey" fill="grey"/>
   </g>
   <g id="cell8">
  <circle cx="589.106" cy="407.702" r="10.3615" stroke-width="0.5" stroke="black" fill="grey"/>
  <circle cx="589.106" cy="407.702" r="6.25834" stroke-width="0.5" stroke="grey" fill="grey"/>
   </g>
   <g id="cell112">
  <circle cx="767.663" cy="756.206" r="10.4726" stroke-width="0.5" stroke="black" fill="yellow"/>
  <circle cx="767.663" cy="756.206" r="6.31223" stroke-width="0.5" stroke="yellow" fill="yellow"/>
   </g>
   <g id="cell10">
  <circle cx="134.269" cy="642.6" r="9.50761" stroke-width="0.5" stroke="black" fill="grey"/>
  <circle cx="134.269" cy="642.6" r="5.76591" stroke-width="0.5" stroke="black" fill="black"/>
   </g>
   <g id="cell11">
  <circle cx="336.419" cy="822.105" r="10.2328" stroke-width="0.5" stroke="black" fill="grey"/>
  <circle cx="336.419" cy="822.105" r="6.19197" stroke-width="0.5" stroke="grey" fill="grey"/>
   </g>
   <g id="cell12">
  <circle cx="782.392" cy="134.503" r="1.29827" stroke-width="0.5" stroke="black" fill="grey"/>
  <circle cx="782.392" cy="134.503" r="1.29055" stroke-width="0.5" stroke="black" fill="black"/>
   </g>
   <g id="cell13">
  <circle cx="880.851" cy="956.12" r="1.42431" stroke-width="0.5" stroke="black" fill="grey"/>
  <circle cx="880.851" cy="956.12" r="1.41416" stroke-width="0.5" stroke="black" fill="black"/>
   </g>
   <g id="cell14">
  <circle cx="838.103" cy="829.667" r="1.83643" stroke-width="0.5" stroke="black" fill="grey"/>
  <circle cx="838.103" cy="829.667" r="1.81093" stroke-width="0.5" stroke="black" fill="black"/>
   </g>
   <g id="cell15">
  <circle cx="525.275" cy="767.583" r="1.84668" stroke-width="0.5" stroke="black" fill="grey"/>
  <circle cx="525.275" cy="767.583" r="1.81928" stroke-width="0.5" stroke="black" fill="black"/>
   </g>
   <g id="cell16">
  <circle cx="162.59" cy="747.814" r="10.4446" stroke-width="0.5" stroke="black" fill="grey"/>
  <circle cx="162.59" cy="747.814" r="6.29905" stroke-width="0.5" stroke="grey" fill="grey"/>
   </g>
   <g id="cell116">
  <circle cx="823.649" cy="473.724" r="9.5651" stroke-width="0.5" stroke="black" fill="yellow"/>
  <circle cx="823.649" cy="473.724" r="5.81327" stroke-width="0.5" stroke="yellow" fill="yellow"/>
   </g>
   <g id="cell18">
  <circle cx="959.432" cy="705.774" r="7.57958" stroke-width="0.5" stroke="black" fill="grey"/>
  <circle cx="959.432" cy="705.774" r="4.75933" stroke-width="0.5" stroke="black" fill="black"/>
   </g>
   <g id="cell19">
  <circle cx="91.6991" cy="418.138" r="1.41868" stroke-width="0.5" stroke="black" fill="grey"/>
  <circle cx="91.6991" cy="418.138" r="1.40778" stroke-width="0.5" stroke="black" fill="black"/>
   </g>
   <g id="cell20">
  <circle cx="234.89" cy="181.624" r="10.2632" stroke-width="0.5" stroke="black" fill="grey"/>
  <circle cx="234.89" cy="181.624" r="6.20796" stroke-width="0.5" stroke="grey" fill="grey"/>
   </g>
   <g id="cell21">
  <circle cx="724.733" cy="441.273" r="1.47065" stroke-width="0.5" stroke="black" fill="grey"/>
  <circle cx="724.733" cy="441.273" r="1.45328" stroke-width="0.5" stroke="black" fill="black"/>
   </g>
   <g id="cell115">
  <circle cx="197.848" cy="18.7082" r="10.4401" stroke-width="0.5" stroke="black" fill="yellow"/>
  <circle cx="197.848" cy="18.7082" r="6.29691" stroke-width="0.5" stroke="yellow" fill="yellow"/>
   </g>
   <g id="cell108">
  <circle cx="707.43" cy="29.729" r="10.5039" stroke-width="0.5" stroke="black" fill="yellow"/>
  <circle cx="707.43" cy="29.729" r="6.32657" stroke-width="0.5" stroke="yellow" fill="yellow"/>
   </g>
   <g id="cell24">
  <circle cx="608.109" cy="222.435" r="3.19829" stroke-width="0.5" stroke="black" fill="grey"/>
  <circle cx="608.109" cy="222.435" r="2.81354" stroke-width="0.5" stroke="black" fill="black"/>
   </g>
   <g id="cell25">
  <circle cx="391.324" cy="976.029" r="1.29359" stroke-width="0.5" stroke="black" fill="grey"/>
  <circle cx="391.324" cy="976.029" r="1.28695" stroke-width="0.5" stroke="black" fill="black"/>
   </g>
   <g id="cell26">
  <circle cx="639.772" cy="440.945" r="10.483" stroke-width="0.5" stroke="black" fill="grey"/>
  <circle cx="639.772" cy="440.945" r="6.31703" stroke-width="0.5" stroke="grey" fill="grey"/>
   </g>
   <g id="cell117">
  <circle cx="892.879" cy="370.364" r="9.84395" stroke-width="0.5" stroke="black" fill="yellow"/>
  <circle cx="892.879" cy="370.364" r="5.97665" stroke-width="0.5" stroke="yellow" fill="yellow"/>
   </g>
   <g id="cell28">
  <circle cx="664.018" cy="140.849" r="10.4613" stroke-width="0.5" stroke="black" fill="grey"/>
  <circle cx="664.018" cy="140.849" r="6.30695" stroke-width="0.5" stroke="grey" fill="grey"/>
   </g>
   <g id="cell29">
  <circle cx="982.327" cy="694.311" r="10.4894" stroke-width="0.5" stroke="black" fill="grey"/>
  <circle cx="982.327" cy="694.311" r="6.31998" stroke-width="0.5" stroke="grey" fill="grey"/>
   </g>
   <g id="cell30">
  <circle cx="711.494" cy="157.167" r="9.7273" stroke-width="0.5" stroke="black" fill="grey"/>
  <circle cx="711.494" cy="157.167" r="5.90906" stroke-width="0.5" stroke="grey" fill="grey"/>
   </g>
   <g id="cell31">
  <circle cx="389.284" cy="105.429" r="10.2632" stroke-width="0.5" stroke="black" fill="grey"/>
  <circle cx="389.284" cy="105.429" r="6.20796" stroke-width="0.5" stroke="grey" fill="grey"/>
   </g>
   <g id="cell114">
  <circle cx="31.4833" cy="339.528" r="10.2911" stroke-width="0.5" stroke="black" fill="yellow"/>
  <circle cx="31.4833" cy="339.528" r="6.22246" stroke-width="0.5" stroke="yellow" fill="yellow"/>
   </g>
   <g id="cell33">
  <circle cx="310.636" cy="554.328" r="1.38344" stroke-width="0.5" stroke="black" fill="grey"/>
  <circle cx="310.636" cy="554.328" r="1.37892" stroke-width="0.5" stroke="black" fill="black"/>
   </g>
   <g id="cell34">
  <circle cx="435.362" cy="649.251" r="1.20653" stroke-width="0.5" stroke="black" fill="grey"/>
  <circle cx="435.362" cy="649.251" r="1.20179" stroke-width="0.5" stroke="black" fill="black"/>
   </g>
   <g id="cell35">
  <circle cx="916.031" cy="95.03" r="8.41271" stroke-width="0.5" stroke="black" fill="grey"/>
  <circle cx="916.031" cy="95.03" r="5.05167" stroke-width="0.5" stroke="grey" fill="grey"/>
   </g>
   <g id="cell109">
  <circle cx="361.557" cy="950.701" r="10.3247" stroke-width="0.5" stroke="black" fill="yellow"/>
  <circle cx="361.557" cy="950.701" r="6.23971" stroke-width="0.5" stroke="yellow" fill="yellow"/>
   </g>
   <g id="cell111">
  <circle cx="773.546" cy="373.731" r="9.77588" stroke-width="0.5" stroke="black" fill="yellow"/>
  <circle cx="773.546" cy="373.731" r="5.93735" stroke-width="0.5" stroke="yellow" fill="yellow"/>
   </g>
   <g id="cell38">
  <circle cx="228.983" cy="445.784" r="2.46589" stroke-width="0.5" stroke="black" fill="grey"/>
  <circle cx="228.983" cy="445.784" r="2.34417" stroke-width="0.5" stroke="black" fill="black"/>
   </g>
   <g id="cell110">
  <circle cx="858.669" cy="236.329" r="8.41271" stroke-width="0.5" stroke="black" fill="yellow"/>
  <circle cx="858.669" cy="236.329" r="5.05167" stroke-width="0.5" stroke="yellow" fill="yellow"/>
   </g>
   <g id="cell40">
  <circle cx="168.672" cy="362.384" r="10.4258" stroke-width="0.5" stroke="black" fill="red"/>
  <circle cx="168.672" cy="362.384" r="6.29005" stroke-width="0.5" stroke="red" fill="red"/>
   </g>
   <g id="cell41">
  <circle cx="679.044" cy="666.651" r="10.4651" stroke-width="0.5" stroke="black" fill="red"/>
  <circle cx="679.044" cy="666.651" r="6.30877" stroke-width="0.5" stroke="red" fill="red"/>
   </g>
   <g id="cell42">
  <circle cx="159.841" cy="739.362" r="10.4651" stroke-width="0.5" stroke="black" fill="red"/>
  <circle cx="159.841" cy="739.362" r="6.30877" stroke-width="0.5" stroke="red" fill="red"/>
   </g>
   <g id="cell43">
  <circle cx="897.121" cy="368.899" r="10.3084" stroke-width="0.5" stroke="black" fill="red"/>
  <circle cx="897.121" cy="368.899" r="6.23137" stroke-width="0.5" stroke="red" fill="red"/>
   </g>
   <g id="cell44">
  <circle cx="821.017" cy="15.5098" r="10.4208" stroke-width="0.5" stroke="black" fill="red"/>
  <circle cx="821.017" cy="15.5098" r="6.28762" stroke-width="0.5" stroke="red" fill="red"/>
   </g>
   <g id="cell45">
  <circle cx="643.168" cy="833.1" r="10.1374" stroke-width="0.5" stroke="black" fill="red"/>
  <circle cx="643.168" cy="833.1" r="6.14084" stroke-width="0.5" stroke="red" fill="red"/>
   </g>
   <g id="cell46">
  <circle cx="55.9927" cy="913.013" r="10.483" stroke-width="0.5" stroke="black" fill="red"/>
  <circle cx="55.9927" cy="913.013" r="6.31703" stroke-width="0.5" stroke="red" fill="red"/>
   </g>
   <g id="cell47">
  <circle cx="889.275" cy="425.553" r="10.4446" stroke-width="0.5" stroke="black" fill="red"/>
  <circle cx="889.275" cy="425.553" r="6.29905" stroke-width="0.5" stroke="red" fill="red"/>
   </g>
   <g id="cell48">
  <circle cx="925.359" cy="47.7732" r="10.4955" stroke-width="0.5" stroke="black" fill="red"/>
  <circle cx="925.359" cy="47.7732" r="6.32275" stroke-width="0.5" stroke="red" fill="red"/>
   </g>
   <g id="cell49">
  <circle cx="458.245" cy="780.928" r="10.3166" stroke-width="0.5" stroke="black" fill="red"/>
  <circle cx="458.245" cy="780.928" r="6.23561" stroke-width="0.5" stroke="red" fill="red"/>
   </g>
   <g id="cell50">
  <circle cx="25.9044" cy="459.694" r="10.5117" stroke-width="0.5" stroke="black" fill="red"/>
  <circle cx="25.9044" cy="459.694" r="6.33005" stroke-width="0.5" stroke="red" fill="red"/>
   </g>
   <g id="cell51">
  <circle cx="979.373" cy="145.708" r="10.4984" stroke-width="0.5" stroke="black" fill="red"/>
  <circle cx="979.373" cy="145.708" r="6.32406" stroke-width="0.5" stroke="red" fill="red"/>
   </g>
   <g id="cell52">
  <circle cx="289.862" cy="499.505" r="1.58878" stroke-width="0.5" stroke="black" fill="red"/>
  <circle cx="289.862" cy="499.505" r="1.56061" stroke-width="0.5" stroke="black" fill="black"/>
   </g>
   <g id="cell53">
  <circle cx="679.368" cy="342.682" r="10.483" stroke-width="0.5" stroke="black" fill="red"/>
  <circle cx="679.368" cy="342.682" r="6.31703" stroke-width="0.5" stroke="red" fill="red"/>
   </g>
   <g id="cell54">
  <circle cx="447.656" cy="924.293" r="10.3615" stroke-width="0.5" stroke="black" fill="red"/>
  <circle cx="447.656" cy="924.293" r="6.25834" stroke-width="0.5" stroke="red" fill="red"/>
   </g>
   <g id="cell55">
  <circle cx="258.756" cy="713.228" r="9.08642" stroke-width="0.5" stroke="black" fill="red"/>
  <circle cx="258.756" cy="713.228" r="5.51837" stroke-width="0.5" stroke="red" fill="red"/>
   </g>
   <g id="cell56">
  <circle cx="539.294" cy="796.867" r="10.4307" stroke-width="0.5" stroke="black" fill="red"/>
  <circle cx="539.294" cy="796.867" r="6.29241" stroke-width="0.5" stroke="red" fill="red"/>
   </g>
   <g id="cell57">
  <circle cx="478.033" cy="553.536" r="10.4573" stroke-width="0.5" stroke="black" fill="red"/>
  <circle cx="478.033" cy="553.536" r="6.30507" stroke-width="0.5" stroke="red" fill="red"/>
   </g>
   <g id="cell58">
  <circle cx="62.7275" cy="921.447" r="10.3682" stroke-width="0.5" stroke="black" fill="red"/>
  <circle cx="62.7275" cy="921.447" r="6.26172" stroke-width="0.5" stroke="red" fill="red"/>
   </g>
   <g id="cell59">
  <circle cx="95.2982" cy="925.548" r="10.3247" stroke-width="0.5" stroke="black" fill="red"/>
  <circle cx="95.2982" cy="925.548" r="6.23971" stroke-width="0.5" stroke="red" fill="red"/>
   </g>
   <g id="cell60">
  <circle cx="284.673" cy="55.1395" r="10.2632" stroke-width="0.5" stroke="black" fill="red"/>
  <circle cx="284.673" cy="55.1395" r="6.20796" stroke-width="0.5" stroke="red" fill="red"/>
   </g>
   <g id="cell61">
  <circle cx="847.699" cy="132.561" r="10.3682" stroke-width="0.5" stroke="black" fill="red"/>
  <circle cx="847.699" cy="132.561" r="6.26172" stroke-width="0.5" stroke="red" fill="red"/>
   </g>
   <g id="cell62">
  <circle cx="717.455" cy="806.937" r="8.41271" stroke-width="0.5" stroke="black" fill="red"/>
  <circle cx="717.455" cy="806.937" r="5.05167" stroke-width="0.5" stroke="red" fill="red"/>
   </g>
   <g id="cell63">
  <circle cx="303.355" cy="207.307" r="10.4489" stroke-width="0.5" stroke="black" fill="red"/>
  <circle cx="303.355" cy="207.307" r="6.30112" stroke-width="0.5" stroke="red" fill="red"/>
   </g>
   <g id="cell64">
  <circle cx="573.721" cy="549.059" r="8.41271" stroke-width="0.5" stroke="black" fill="red"/>
  <circle cx="573.721" cy="549.059" r="5.05167" stroke-width="0.5" stroke="red" fill="red"/>
   </g>
   <g id="cell65">
  <circle cx="210.126" cy="843.896" r="9.70201" stroke-width="0.5" stroke="black" fill="red"/>
  <circle cx="210.126" cy="843.896" r="5.89426" stroke-width="0.5" stroke="red" fill="red"/>
   </g>
   <g id="cell66">
  <circle cx="32.3246" cy="151.978" r="10.1879" stroke-width="0.5" stroke="black" fill="red"/>
  <circle cx="32.3246" cy="151.978" r="6.16807" stroke-width="0.5" stroke="red" fill="red"/>
   </g>
   <g id="cell67">
  <circle cx="531.168" cy="255.57" r="10.1374" stroke-width="0.5" stroke="black" fill="red"/>
  <circle cx="531.168" cy="255.57" r="6.14084" stroke-width="0.5" stroke="red" fill="red"/>
   </g>
   <g id="cell68">
  <circle cx="769.465" cy="279.513" r="10.4726" stroke-width="0.5" stroke="black" fill="red"/>
  <circle cx="769.465" cy="279.513" r="6.31223" stroke-width="0.5" stroke="red" fill="red"/>
   </g>
   <g id="cell69">
  <circle cx="444.177" cy="275.923" r="10.2632" stroke-width="0.5" stroke="black" fill="red"/>
  <circle cx="444.177" cy="275.923" r="6.20796" stroke-width="0.5" stroke="red" fill="red"/>
   </g>
   <g id="cell70">
  <circle cx="555.185" cy="385.932" r="10.3247" stroke-width="0.5" stroke="black" fill="red"/>
  <circle cx="555.185" cy="385.932" r="6.23971" stroke-width="0.5" stroke="red" fill="red"/>
   </g>
   <g id="cell71">
  <circle cx="877.888" cy="515.604" r="10.4955" stroke-width="0.5" stroke="black" fill="red"/>
  <circle cx="877.888" cy="515.604" r="6.32275" stroke-width="0.5" stroke="red" fill="red"/>
   </g>
   <g id="cell72">
  <circle cx="224.144" cy="880.758" r="10.4355" stroke-width="0.5" stroke="black" fill="red"/>
  <circle cx="224.144" cy="880.758" r="6.2947" stroke-width="0.5" stroke="red" fill="red"/>
   </g>
   <g id="cell73">
  <circle cx="677.008" cy="463.276" r="10.4761" stroke-width="0.5" stroke="black" fill="red"/>
  <circle cx="677.008" cy="463.276" r="6.31388" stroke-width="0.5" stroke="red" fill="red"/>
   </g>
   <g id="cell74">
  <circle cx="835.424" cy="979.039" r="10.3615" stroke-width="0.5" stroke="black" fill="red"/>
  <circle cx="835.424" cy="979.039" r="6.25834" stroke-width="0.5" stroke="red" fill="red"/>
   </g>
   <g id="cell75">
  <circle cx="93.6378" cy="318.721" r="10.4689" stroke-width="0.5" stroke="black" fill="red"/>
  <circle cx="93.6378" cy="318.721" r="6.31053" stroke-width="0.5" stroke="red" fill="red"/>
   </g>
   <g id="cell76">
  <circle cx="799.565" cy="395.797" r="10.3474" stroke-width="0.5" stroke="black" fill="red"/>
  <circle cx="799.565" cy="395.797" r="6.25125" stroke-width="0.5" stroke="red" fill="red"/>
   </g>
   <g id="cell77">
  <circle cx="635.199" cy="848.553" r="10.4156" stroke-width="0.5" stroke="black" fill="red"/>
  <circle cx="635.199" cy="848.553" r="6.2851" stroke-width="0.5" stroke="red" fill="red"/>
   </g>
   <g id="cell78">
  <circle cx="607.28" cy="275.801" r="10.3811" stroke-width="0.5" stroke="black" fill="red"/>
  <circle cx="607.28" cy="275.801" r="6.26814" stroke-width="0.5" stroke="red" fill="red"/>
   </g>
   <g id="cell79">
  <circle cx="953.448" cy="703.54" r="10.1506" stroke-width="0.5" stroke="black" fill="red"/>
  <circle cx="953.448" cy="703.54" r="6.14798" stroke-width="0.5" stroke="red" fill="red"/>
   </g>
   <g id="cell80">
  <circle cx="750.253" cy="683.186" r="8.41271" stroke-width="0.5" stroke="black" fill="yellow"/>
  <circle cx="750.253" cy="683.186" r="5.05167" stroke-width="0.5" stroke="yellow" fill="yellow"/>
   </g>
   <g id="cell81">
  <circle cx="507.796" cy="988.321" r="8.41271" stroke-width="0.5" stroke="black" fill="yellow"/>
  <circle cx="507.796" cy="988.321" r="5.05167" stroke-width="0.5" stroke="yellow" fill="yellow"/>
   </g>
   <g id="cell82">
  <circle cx="672.29" cy="415.316" r="10.4446" stroke-width="0.5" stroke="black" fill="yellow"/>
  <circle cx="672.29" cy="415.316" r="6.29905" stroke-width="0.5" stroke="yellow" fill="yellow"/>
   </g>
   <g id="cell83">
  <circle cx="605.615" cy="579.832" r="10.4102" stroke-width="0.5" stroke="black" fill="yellow"/>
  <circle cx="605.615" cy="579.832" r="6.2825" stroke-width="0.5" stroke="yellow" fill="yellow"/>
   </g>
   <g id="cell84">
  <circle cx="15.3977" cy="484.163" r="10.1879" stroke-width="0.5" stroke="black" fill="yellow"/>
  <circle cx="15.3977" cy="484.163" r="6.16807" stroke-width="0.5" stroke="yellow" fill="yellow"/>
   </g>
   <g id="cell85">
  <circle cx="733.432" cy="658.063" r="10.4761" stroke-width="0.5" stroke="black" fill="yellow"/>
  <circle cx="733.432" cy="658.063" r="6.31388" stroke-width="0.5" stroke="yellow" fill="yellow"/>
   </g>
   <g id="cell86">
  <circle cx="278.765" cy="440.946" r="9.88629" stroke-width="0.5" stroke="black" fill="yellow"/>
  <circle cx="278.765" cy="440.946" r="6.00088" stroke-width="0.5" stroke="yellow" fill="yellow"/>
   </g>
   <g id="cell87">
  <circle cx="775.106" cy="416.231" r="10.5066" stroke-width="0.5" stroke="black" fill="yellow"/>
  <circle cx="775.106" cy="416.231" r="6.32777" stroke-width="0.5" stroke="yellow" fill="yellow"/>
   </g>
   <g id="cell88">
  <circle cx="152.077" cy="105.829" r="10.3933" stroke-width="0.5" stroke="black" fill="yellow"/>
  <circle cx="152.077" cy="105.829" r="6.27417" stroke-width="0.5" stroke="yellow" fill="yellow"/>
   </g>
   <g id="cell89">
  <circle cx="60.5282" cy="560.245" r="10.0169" stroke-width="0.5" stroke="black" fill="yellow"/>
  <circle cx="60.5282" cy="560.245" r="6.07458" stroke-width="0.5" stroke="yellow" fill="yellow"/>
   </g>
   <g id="cell119">
  <circle cx="557.909" cy="35.587" r="9.99984" stroke-width="0.5" stroke="black" fill="yellow"/>
  <circle cx="557.909" cy="35.587" r="6.06503" stroke-width="0.5" stroke="yellow" fill="yellow"/>
   </g>
   <g id="cell91">
  <circle cx="45.0809" cy="643.316" r="10.1758" stroke-width="0.5" stroke="black" fill="yellow"/>
  <circle cx="45.0809" cy="643.316" r="6.16159" stroke-width="0.5" stroke="yellow" fill="yellow"/>
   </g>
   <g id="cell92">
  <circle cx="636.262" cy="302.556" r="10.3811" stroke-width="0.5" stroke="black" fill="yellow"/>
  <circle cx="636.262" cy="302.556" r="6.26814" stroke-width="0.5" stroke="yellow" fill="yellow"/>
   </g>
   <g id="cell93">
  <circle cx="222.924" cy="892.803" r="10.5066" stroke-width="0.5" stroke="black" fill="yellow"/>
  <circle cx="222.924" cy="892.803" r="6.32777" stroke-width="0.5" stroke="yellow" fill="yellow"/>
   </g>
   <g id="cell94">
  <circle cx="371.142" cy="90.8381" r="10.2911" stroke-width="0.5" stroke="black" fill="yellow"/>
  <circle cx="371.142" cy="90.8381" r="6.22246" stroke-width="0.5" stroke="yellow" fill="yellow"/>
   </g>
   <g id="cell95">
  <circle cx="956.702" cy="894.585" r="10.3325" stroke-width="0.5" stroke="black" fill="yellow"/>
  <circle cx="956.702" cy="894.585" r="6.24369" stroke-width="0.5" stroke="yellow" fill="yellow"/>
   </g>
   <g id="cell96">
  <circle cx="786.651" cy="551.482" r="10.34" stroke-width="0.5" stroke="black" fill="yellow"/>
  <circle cx="786.651" cy="551.482" r="6.24753" stroke-width="0.5" stroke="yellow" fill="yellow"/>
   </g>
   <g id="cell97">
  <circle cx="429.977" cy="120.641" r="9.77588" stroke-width="0.5" stroke="black" fill="yellow"/>
  <circle cx="429.977" cy="120.641" r="5.93735" stroke-width="0.5" stroke="yellow" fill="yellow"/>
   </g>
   <g id="cell98">
  <circle cx="932.745" cy="361.557" r="10.0336" stroke-width="0.5" stroke="black" fill="yellow"/>
  <circle cx="932.745" cy="361.557" r="6.08382" stroke-width="0.5" stroke="yellow" fill="yellow"/>
   </g>
   <g id="cell99">
  <circle cx="507.029" cy="977.337" r="10.1374" stroke-width="0.5" stroke="black" fill="yellow"/>
  <circle cx="507.029" cy="977.337" r="6.14084" stroke-width="0.5" stroke="yellow" fill="yellow"/>
   </g>
   <g id="cell100">
  <circle cx="156.457" cy="843.794" r="10.4796" stroke-width="0.5" stroke="black" fill="yellow"/>
  <circle cx="156.457" cy="843.794" r="6.31548" stroke-width="0.5" stroke="yellow" fill="yellow"/>
   </g>
   <g id="cell101">
  <circle cx="92.8252" cy="142.065" r="8.45606" stroke-width="0.5" stroke="black" fill="yellow"/>
  <circle cx="92.8252" cy="142.065" r="5.08296" stroke-width="0.5" stroke="yellow" fill="yellow"/>
   </g>
   <g id="cell102">
  <circle cx="610.698" cy="180.974" r="10.34" stroke-width="0.5" stroke="black" fill="yellow"/>
  <circle cx="610.698" cy="180.974" r="6.24753" stroke-width="0.5" stroke="yellow" fill="yellow"/>
   </g>
   <g id="cell103">
  <circle cx="837.624" cy="856.447" r="8.41271" stroke-width="0.5" stroke="black" fill="yellow"/>
  <circle cx="837.624" cy="856.447" r="5.05167" stroke-width="0.5" stroke="yellow" fill="yellow"/>
   </g>
   <g id="cell104">
  <circle cx="800.822" cy="418.737" r="10.5012" stroke-width="0.5" stroke="black" fill="yellow"/>
  <circle cx="800.822" cy="418.737" r="6.32534" stroke-width="0.5" stroke="yellow" fill="yellow"/>
   </g>
   <g id="cell105">
  <circle cx="120.154" cy="421.332" r="8.41271" stroke-width="0.5" stroke="black" fill="yellow"/>
  <circle cx="120.154" cy="421.332" r="5.05167" stroke-width="0.5" stroke="yellow" fill="yellow"/>
   </g>
   <g id="cell106">
  <circle cx="37.9063" cy="985.284" r="10.4689" stroke-width="0.5" stroke="black" fill="yellow"/>
  <circle cx="37.9063" cy="985.284" r="6.31053" stroke-width="0.5" stroke="yellow" fill="yellow"/>
   </g>
   <g id="cell107">
  <circle cx="385.128" cy="440.786" r="8.41271" stroke-width="0.5" stroke="black" fill="yellow"/>
  <circle cx="385.128" cy="440.786" r="5.05167" stroke-width="0.5" stroke="yellow" fill="yellow"/>
   </g>
  </g>
 </g>
  <rect x="775" y="1035" width="200" height="10" stroke-width="2" stroke="rgb(255,255,255)" fill="rgb(0,0,0)"/>
  <text x="781.25" y="1028.75"
   font-family="Arial" font-size="25" fill="black" >
   200 &#956;m
  </text>
  <text x="25" y="1045"
   font-family="Arial" font-size="18.75" fill="black" >
   0 days, 0 hours, 0 minutes, and 49.5483 seconds
  </text>
  <rect x="0" y="70" width="1000" height="1000" stroke-width="2" stroke="rgb(0,0,0)" fill="none"/>
</svg>
