<?xml version="1.0" encoding="UTF-8" standalone="no"?>
<!-- Created with PhysiCell (http://PhysiCell.MathCancer.org/) -->
<svg 
 xmlns:dc="http://purl.org/dc/elements/1.1/" 
 xmlns:cc="http://creativecommons.org/ns#" 
 xmlns:rdf="http://www.w3.org/1999/02/22-rdf-syntax-ns#" 
 xmlns:svg="http://www.w3.org/2000/svg" 
 xmlns="http://www.w3.org/2000/svg" 
 version="1.1" 
 width="1000" 
 height="1070" 
 id="svg2">
  <rect x="0" y="0" width="1000" height="1070" stroke-width="2" stroke="white" fill="white"/>
  <text x="12.5" y="30"
   font-family="Arial" font-size="25" fill="black" >
   Current time: 0 days, 7 hours, and 30.00 minutes, z = 0.00 &#956;m
  </text>
  <text x="12.5" y="57.5"
   font-family="Arial" font-size="23.75" fill="black" >
   120 agents
  </text>
 <g id="tissue" 
    transform="translate(0,1070) scale(1,-1)">
  <g id="ECM">
  </g>
  <g id="cells">
   <g id="cell0">
  <circle cx="514.038" cy="577.906" r="10.2632" stroke-width="0.5" stroke="black" fill="grey"/>
  <circle cx="514.038" cy="577.906" r="6.20796" stroke-width="0.5" stroke="grey" fill="grey"/>
   </g>
   <g id="cell1">
  <circle cx="839.837" cy="610.74" r="1.43395" stroke-width="0.5" stroke="black" fill="grey"/>
  <circle cx="839.837" cy="610.74" r="1.41917" stroke-width="0.5" stroke="black" fill="black"/>
   </g>
   <g id="cell2">
  <circle cx="550.341" cy="824.071" r="3.30025" stroke-width="0.5" stroke="black" fill="grey"/>
  <circle cx="550.341" cy="824.071" r="2.84104" stroke-width="0.5" stroke="black" fill="black"/>
   </g>
   <g id="cell3">
  <circle cx="613.826" cy="625.15" r="10.1879" stroke-width="0.5" stroke="black" fill="grey"/>
  <circle cx="613.826" cy="625.15" r="6.16807" stroke-width="0.5" stroke="grey" fill="grey"/>
   </g>
   <g id="cell4">
  <circle cx="415.352" cy="304.555" r="2.5701" stroke-width="0.5" stroke="black" fill="grey"/>
  <circle cx="415.352" cy="304.555" r="2.25579" stroke-width="0.5" stroke="black" fill="black"/>
   </g>
   <g id="cell5">
  <circle cx="72.3886" cy="957.67" r="10.2328" stroke-width="0.5" stroke="black" fill="grey"/>
  <circle cx="72.3886" cy="957.67" r="6.19197" stroke-width="0.5" stroke="grey" fill="grey"/>
   </g>
   <g id="cell6">
  <circle cx="388.427" cy="474.625" r="10.2821" stroke-width="0.5" stroke="black" fill="grey"/>
  <circle cx="388.427" cy="474.625" r="6.21778" stroke-width="0.5" stroke="grey" fill="grey"/>
   </g>
   <g id="cell7">
  <circle cx="827.364" cy="544.363" r="9.92631" stroke-width="0.5" stroke="black" fill="grey"/>
  <circle cx="827.364" cy="544.363" r="6.02363" stroke-width="0.5" stroke="grey" fill="grey"/>
   </g>
   <g id="cell8">
  <circle cx="595.808" cy="418.034" r="9.7273" stroke-width="0.5" stroke="black" fill="grey"/>
  <circle cx="595.808" cy="418.034" r="5.90906" stroke-width="0.5" stroke="grey" fill="grey"/>
   </g>
   <g id="cell9">
  <circle cx="847.148" cy="85.0327" r="1.67536" stroke-width="0.5" stroke="black" fill="grey"/>
  <circle cx="847.148" cy="85.0327" r="1.63653" stroke-width="0.5" stroke="black" fill="black"/>
   </g>
   <g id="cell10">
  <circle cx="120.148" cy="639.141" r="10.0497" stroke-width="0.5" stroke="black" fill="grey"/>
  <circle cx="120.148" cy="639.141" r="6.09278" stroke-width="0.5" stroke="grey" fill="grey"/>
   </g>
   <g id="cell11">
  <circle cx="336.967" cy="840.028" r="9.2729" stroke-width="0.5" stroke="black" fill="grey"/>
  <circle cx="336.967" cy="840.028" r="5.63555" stroke-width="0.5" stroke="grey" fill="grey"/>
   </g>
   <g id="cell12">
  <circle cx="782.392" cy="134.503" r="2.47369" stroke-width="0.5" stroke="black" fill="grey"/>
  <circle cx="782.392" cy="134.503" r="2.20257" stroke-width="0.5" stroke="black" fill="black"/>
   </g>
   <g id="cell13">
  <circle cx="880.851" cy="956.12" r="2.76336" stroke-width="0.5" stroke="black" fill="grey"/>
  <circle cx="880.851" cy="956.12" r="2.41395" stroke-width="0.5" stroke="black" fill="black"/>
   </g>
   <g id="cell14">
  <circle cx="838.103" cy="829.667" r="3.90974" stroke-width="0.5" stroke="black" fill="grey"/>
  <circle cx="838.103" cy="829.667" r="3.1088" stroke-width="0.5" stroke="black" fill="black"/>
   </g>
   <g id="cell15">
  <circle cx="525.275" cy="767.583" r="3.98073" stroke-width="0.5" stroke="black" fill="grey"/>
  <circle cx="525.275" cy="767.583" r="3.12892" stroke-width="0.5" stroke="black" fill="black"/>
   </g>
   <g id="cell16">
  <circle cx="154.53" cy="724.92" r="10.0336" stroke-width="0.5" stroke="black" fill="grey"/>
  <circle cx="154.53" cy="724.92" r="6.08382" stroke-width="0.5" stroke="grey" fill="grey"/>
   </g>
   <g id="cell17">
  <circle cx="576.613" cy="145.199" r="1.6312" stroke-width="0.5" stroke="black" fill="grey"/>
  <circle cx="576.613" cy="145.199" r="1.59812" stroke-width="0.5" stroke="black" fill="black"/>
   </g>
   <g id="cell18">
  <circle cx="933.364" cy="712.903" r="8.45606" stroke-width="0.5" stroke="black" fill="grey"/>
  <circle cx="933.364" cy="712.903" r="5.08296" stroke-width="0.5" stroke="grey" fill="grey"/>
   </g>
   <g id="cell19">
  <circle cx="91.6991" cy="418.138" r="2.77537" stroke-width="0.5" stroke="black" fill="grey"/>
  <circle cx="91.6991" cy="418.138" r="2.40336" stroke-width="0.5" stroke="black" fill="black"/>
   </g>
   <g id="cell20">
  <circle cx="233.304" cy="176.123" r="9.37686" stroke-width="0.5" stroke="black" fill="grey"/>
  <circle cx="233.304" cy="176.123" r="5.69955" stroke-width="0.5" stroke="grey" fill="grey"/>
   </g>
   <g id="cell21">
  <circle cx="724.733" cy="441.273" r="3.04602" stroke-width="0.5" stroke="black" fill="grey"/>
  <circle cx="724.733" cy="441.273" r="2.48703" stroke-width="0.5" stroke="black" fill="black"/>
   </g>
   <g id="cell22">
  <circle cx="565.337" cy="126.183" r="1.50862" stroke-width="0.5" stroke="black" fill="grey"/>
  <circle cx="565.337" cy="126.183" r="1.48821" stroke-width="0.5" stroke="black" fill="black"/>
   </g>
   <g id="cell23">
  <circle cx="303.9" cy="607.146" r="2.38264" stroke-width="0.5" stroke="black" fill="grey"/>
  <circle cx="303.9" cy="607.146" r="2.25187" stroke-width="0.5" stroke="black" fill="black"/>
   </g>
   <g id="cell24">
  <circle cx="607.62" cy="234.331" r="10.2221" stroke-width="0.5" stroke="black" fill="grey"/>
  <circle cx="607.62" cy="234.331" r="6.18628" stroke-width="0.5" stroke="grey" fill="grey"/>
   </g>
   <g id="cell25">
  <circle cx="391.324" cy="976.029" r="2.43237" stroke-width="0.5" stroke="black" fill="grey"/>
  <circle cx="391.324" cy="976.029" r="2.19628" stroke-width="0.5" stroke="black" fill="black"/>
   </g>
   <g id="cell26">
  <circle cx="649.08" cy="475.863" r="10.1758" stroke-width="0.5" stroke="black" fill="grey"/>
  <circle cx="649.08" cy="475.863" r="6.16159" stroke-width="0.5" stroke="grey" fill="grey"/>
   </g>
   <g id="cell27">
  <circle cx="601.791" cy="449.353" r="1.45214" stroke-width="0.5" stroke="black" fill="grey"/>
  <circle cx="601.791" cy="449.353" r="1.43612" stroke-width="0.5" stroke="black" fill="black"/>
   </g>
   <g id="cell28">
  <circle cx="674.509" cy="132.319" r="10.0955" stroke-width="0.5" stroke="black" fill="grey"/>
  <circle cx="674.509" cy="132.319" r="6.11797" stroke-width="0.5" stroke="grey" fill="grey"/>
   </g>
   <g id="cell29">
  <circle cx="978.897" cy="666.148" r="10.1996" stroke-width="0.5" stroke="black" fill="grey"/>
  <circle cx="978.897" cy="666.148" r="6.17434" stroke-width="0.5" stroke="grey" fill="grey"/>
   </g>
   <g id="cell30">
  <circle cx="730.535" cy="169.989" r="8.41271" stroke-width="0.5" stroke="black" fill="grey"/>
  <circle cx="730.535" cy="169.989" r="5.05167" stroke-width="0.5" stroke="grey" fill="grey"/>
   </g>
   <g id="cell31">
  <circle cx="383.94" cy="110.743" r="9.37686" stroke-width="0.5" stroke="black" fill="grey"/>
  <circle cx="383.94" cy="110.743" r="5.69955" stroke-width="0.5" stroke="grey" fill="grey"/>
   </g>
   <g id="cell32">
  <circle cx="319.499" cy="595.194" r="1.6654" stroke-width="0.5" stroke="black" fill="grey"/>
  <circle cx="319.499" cy="595.194" r="1.63198" stroke-width="0.5" stroke="black" fill="black"/>
   </g>
   <g id="cell33">
  <circle cx="310.636" cy="554.328" r="2.5195" stroke-width="0.5" stroke="black" fill="grey"/>
  <circle cx="310.636" cy="554.328" r="2.35307" stroke-width="0.5" stroke="black" fill="black"/>
   </g>
   <g id="cell34">
  <circle cx="435.362" cy="649.251" r="2.22333" stroke-width="0.5" stroke="black" fill="grey"/>
  <circle cx="435.362" cy="649.251" r="2.05083" stroke-width="0.5" stroke="black" fill="black"/>
   </g>
   <g id="cell35">
  <circle cx="935.581" cy="88.3827" r="8.41271" stroke-width="0.5" stroke="black" fill="grey"/>
  <circle cx="935.581" cy="88.3827" r="5.05167" stroke-width="0.5" stroke="grey" fill="grey"/>
   </g>
   <g id="cell36">
  <circle cx="208.916" cy="622.395" r="1.9005" stroke-width="0.5" stroke="black" fill="grey"/>
  <circle cx="208.916" cy="622.395" r="1.82114" stroke-width="0.5" stroke="black" fill="black"/>
   </g>
   <g id="cell37">
  <circle cx="991.105" cy="649.704" r="1.79449" stroke-width="0.5" stroke="black" fill="grey"/>
  <circle cx="991.105" cy="649.704" r="1.73665" stroke-width="0.5" stroke="black" fill="black"/>
   </g>
   <g id="cell38">
  <circle cx="228.967" cy="445.831" r="10.2728" stroke-width="0.5" stroke="black" fill="grey"/>
  <circle cx="228.967" cy="445.831" r="6.21295" stroke-width="0.5" stroke="grey" fill="grey"/>
   </g>
   <g id="cell39">
  <circle cx="496.525" cy="254.099" r="1.79449" stroke-width="0.5" stroke="black" fill="grey"/>
  <circle cx="496.525" cy="254.099" r="1.73665" stroke-width="0.5" stroke="black" fill="black"/>
   </g>
   <g id="cell40">
  <circle cx="174.1" cy="345.744" r="9.96412" stroke-width="0.5" stroke="black" fill="red"/>
  <circle cx="174.1" cy="345.744" r="6.04499" stroke-width="0.5" stroke="red" fill="red"/>
   </g>
   <g id="cell41">
  <circle cx="683.709" cy="679.401" r="10.1098" stroke-width="0.5" stroke="black" fill="red"/>
  <circle cx="683.709" cy="679.401" r="6.12585" stroke-width="0.5" stroke="red" fill="red"/>
   </g>
   <g id="cell42">
  <circle cx="160.207" cy="756.472" r="10.1098" stroke-width="0.5" stroke="black" fill="red"/>
  <circle cx="160.207" cy="756.472" r="6.12585" stroke-width="0.5" stroke="red" fill="red"/>
   </g>
   <g id="cell43">
  <circle cx="943.108" cy="364.237" r="9.53557" stroke-width="0.5" stroke="black" fill="red"/>
  <circle cx="943.108" cy="364.237" r="5.79561" stroke-width="0.5" stroke="red" fill="red"/>
   </g>
   <g id="cell44">
  <circle cx="815.482" cy="9.23231" r="9.94548" stroke-width="0.5" stroke="black" fill="red"/>
  <circle cx="815.482" cy="9.23231" r="6.03448" stroke-width="0.5" stroke="red" fill="red"/>
   </g>
   <g id="cell45">
  <circle cx="639.551" cy="830.022" r="8.96831" stroke-width="0.5" stroke="black" fill="red"/>
  <circle cx="639.551" cy="830.022" r="5.44228" stroke-width="0.5" stroke="red" fill="red"/>
   </g>
   <g id="cell46">
  <circle cx="49.3551" cy="943.653" r="10.1758" stroke-width="0.5" stroke="black" fill="red"/>
  <circle cx="49.3551" cy="943.653" r="6.16159" stroke-width="0.5" stroke="red" fill="red"/>
   </g>
   <g id="cell47">
  <circle cx="881.142" cy="449.558" r="10.0336" stroke-width="0.5" stroke="black" fill="red"/>
  <circle cx="881.142" cy="449.558" r="6.08382" stroke-width="0.5" stroke="red" fill="red"/>
   </g>
   <g id="cell48">
  <circle cx="942.99" cy="38.8378" r="10.2221" stroke-width="0.5" stroke="black" fill="red"/>
  <circle cx="942.99" cy="38.8378" r="6.18628" stroke-width="0.5" stroke="red" fill="red"/>
   </g>
   <g id="cell49">
  <circle cx="474.928" cy="761.242" r="9.5651" stroke-width="0.5" stroke="black" fill="red"/>
  <circle cx="474.928" cy="761.242" r="5.81327" stroke-width="0.5" stroke="red" fill="red"/>
   </g>
   <g id="cell50">
  <circle cx="28.8367" cy="455.489" r="10.2821" stroke-width="0.5" stroke="black" fill="red"/>
  <circle cx="28.8367" cy="455.489" r="6.21778" stroke-width="0.5" stroke="red" fill="red"/>
   </g>
   <g id="cell51">
  <circle cx="972.448" cy="128.731" r="10.2328" stroke-width="0.5" stroke="black" fill="red"/>
  <circle cx="972.448" cy="128.731" r="6.19197" stroke-width="0.5" stroke="red" fill="red"/>
   </g>
   <g id="cell52">
  <circle cx="289.862" cy="499.505" r="3.55736" stroke-width="0.5" stroke="black" fill="red"/>
  <circle cx="289.862" cy="499.505" r="2.70449" stroke-width="0.5" stroke="black" fill="black"/>
   </g>
   <g id="cell53">
  <circle cx="699.43" cy="312.602" r="10.1758" stroke-width="0.5" stroke="black" fill="red"/>
  <circle cx="699.43" cy="312.602" r="6.16159" stroke-width="0.5" stroke="red" fill="red"/>
   </g>
   <g id="cell54">
  <circle cx="441.544" cy="950.243" r="9.7273" stroke-width="0.5" stroke="black" fill="red"/>
  <circle cx="441.544" cy="950.243" r="5.90906" stroke-width="0.5" stroke="red" fill="red"/>
   </g>
   <g id="cell55">
  <circle cx="226.393" cy="689.587" r="8.41271" stroke-width="0.5" stroke="black" fill="red"/>
  <circle cx="226.393" cy="689.587" r="5.05167" stroke-width="0.5" stroke="red" fill="red"/>
   </g>
   <g id="cell56">
  <circle cx="560.587" cy="812.36" r="9.98223" stroke-width="0.5" stroke="black" fill="red"/>
  <circle cx="560.587" cy="812.36" r="6.05517" stroke-width="0.5" stroke="red" fill="red"/>
   </g>
   <g id="cell57">
  <circle cx="480.737" cy="539.805" r="10.0806" stroke-width="0.5" stroke="black" fill="red"/>
  <circle cx="480.737" cy="539.805" r="6.10985" stroke-width="0.5" stroke="red" fill="red"/>
   </g>
   <g id="cell58">
  <circle cx="80.9435" cy="917.237" r="9.75192" stroke-width="0.5" stroke="black" fill="red"/>
  <circle cx="80.9435" cy="917.237" r="5.92342" stroke-width="0.5" stroke="red" fill="red"/>
   </g>
   <g id="cell59">
  <circle cx="87.6918" cy="945.126" r="9.59391" stroke-width="0.5" stroke="black" fill="red"/>
  <circle cx="87.6918" cy="945.126" r="5.83043" stroke-width="0.5" stroke="red" fill="red"/>
   </g>
   <g id="cell60">
  <circle cx="302.044" cy="32.3233" r="9.37686" stroke-width="0.5" stroke="black" fill="red"/>
  <circle cx="302.044" cy="32.3233" r="5.69955" stroke-width="0.5" stroke="red" fill="red"/>
   </g>
   <g id="cell61">
  <circle cx="841.382" cy="134.038" r="9.75192" stroke-width="0.5" stroke="black" fill="red"/>
  <circle cx="841.382" cy="134.038" r="5.92342" stroke-width="0.5" stroke="red" fill="red"/>
   </g>
   <g id="cell62">
  <circle cx="717.157" cy="813.047" r="8.41271" stroke-width="0.5" stroke="black" fill="red"/>
  <circle cx="717.157" cy="813.047" r="5.05167" stroke-width="0.5" stroke="red" fill="red"/>
   </g>
   <g id="cell63">
  <circle cx="287.667" cy="181.256" r="10.0497" stroke-width="0.5" stroke="black" fill="red"/>
  <circle cx="287.667" cy="181.256" r="6.09278" stroke-width="0.5" stroke="red" fill="red"/>
   </g>
   <g id="cell64">
  <circle cx="574.986" cy="537.764" r="8.41271" stroke-width="0.5" stroke="black" fill="red"/>
  <circle cx="574.986" cy="537.764" r="5.05167" stroke-width="0.5" stroke="red" fill="red"/>
   </g>
   <g id="cell65">
  <circle cx="208.648" cy="843.434" r="8.41271" stroke-width="0.5" stroke="black" fill="red"/>
  <circle cx="208.648" cy="843.434" r="5.05167" stroke-width="0.5" stroke="red" fill="red"/>
   </g>
   <g id="cell66">
  <circle cx="15.5272" cy="152.471" r="9.12489" stroke-width="0.5" stroke="black" fill="red"/>
  <circle cx="15.5272" cy="152.471" r="5.54282" stroke-width="0.5" stroke="red" fill="red"/>
   </g>
   <g id="cell67">
  <circle cx="539.734" cy="280.562" r="8.96831" stroke-width="0.5" stroke="black" fill="red"/>
  <circle cx="539.734" cy="280.562" r="5.44228" stroke-width="0.5" stroke="red" fill="red"/>
   </g>
   <g id="cell68">
  <circle cx="719.03" cy="283.037" r="10.1374" stroke-width="0.5" stroke="black" fill="red"/>
  <circle cx="719.03" cy="283.037" r="6.14084" stroke-width="0.5" stroke="red" fill="red"/>
   </g>
   <g id="cell69">
  <circle cx="436.982" cy="280.44" r="9.37686" stroke-width="0.5" stroke="black" fill="red"/>
  <circle cx="436.982" cy="280.44" r="5.69955" stroke-width="0.5" stroke="red" fill="red"/>
   </g>
   <g id="cell70">
  <circle cx="552.915" cy="402.049" r="9.59391" stroke-width="0.5" stroke="black" fill="red"/>
  <circle cx="552.915" cy="402.049" r="5.83043" stroke-width="0.5" stroke="red" fill="red"/>
   </g>
   <g id="cell71">
  <circle cx="904.393" cy="538.224" r="10.2221" stroke-width="0.5" stroke="black" fill="red"/>
  <circle cx="904.393" cy="538.224" r="6.18628" stroke-width="0.5" stroke="red" fill="red"/>
   </g>
   <g id="cell72">
  <circle cx="215.784" cy="886.567" r="9.99984" stroke-width="0.5" stroke="black" fill="red"/>
  <circle cx="215.784" cy="886.567" r="6.06503" stroke-width="0.5" stroke="red" fill="red"/>
   </g>
   <g id="cell73">
  <circle cx="683.339" cy="470.206" r="10.1506" stroke-width="0.5" stroke="black" fill="red"/>
  <circle cx="683.339" cy="470.206" r="6.14798" stroke-width="0.5" stroke="red" fill="red"/>
   </g>
   <g id="cell74">
  <circle cx="829.213" cy="985.727" r="9.7273" stroke-width="0.5" stroke="black" fill="red"/>
  <circle cx="829.213" cy="985.727" r="5.90906" stroke-width="0.5" stroke="red" fill="red"/>
   </g>
   <g id="cell75">
  <circle cx="96.2619" cy="314.895" r="10.1238" stroke-width="0.5" stroke="black" fill="red"/>
  <circle cx="96.2619" cy="314.895" r="6.13347" stroke-width="0.5" stroke="red" fill="red"/>
   </g>
   <g id="cell76">
  <circle cx="799.671" cy="375.963" r="9.67603" stroke-width="0.5" stroke="black" fill="red"/>
  <circle cx="799.671" cy="375.963" r="5.87901" stroke-width="0.5" stroke="red" fill="red"/>
   </g>
   <g id="cell77">
  <circle cx="636.352" cy="860.755" r="9.92631" stroke-width="0.5" stroke="black" fill="red"/>
  <circle cx="636.352" cy="860.755" r="6.02363" stroke-width="0.5" stroke="red" fill="red"/>
   </g>
   <g id="cell78">
  <circle cx="599.354" cy="303.61" r="9.7992" stroke-width="0.5" stroke="black" fill="red"/>
  <circle cx="599.354" cy="303.61" r="5.95086" stroke-width="0.5" stroke="red" fill="red"/>
   </g>
   <g id="cell79">
  <circle cx="976.161" cy="700.062" r="9.00806" stroke-width="0.5" stroke="black" fill="red"/>
  <circle cx="976.161" cy="700.062" r="5.46807" stroke-width="0.5" stroke="red" fill="red"/>
   </g>
   <g id="cell80">
  <circle cx="743.448" cy="668.939" r="8.41271" stroke-width="0.5" stroke="black" fill="yellow"/>
  <circle cx="743.448" cy="668.939" r="5.05167" stroke-width="0.5" stroke="yellow" fill="yellow"/>
   </g>
   <g id="cell81">
  <circle cx="501.116" cy="980.133" r="8.41271" stroke-width="0.5" stroke="black" fill="yellow"/>
  <circle cx="501.116" cy="980.133" r="5.05167" stroke-width="0.5" stroke="yellow" fill="yellow"/>
   </g>
   <g id="cell82">
  <circle cx="662.047" cy="422.572" r="10.0336" stroke-width="0.5" stroke="black" fill="yellow"/>
  <circle cx="662.047" cy="422.572" r="6.08382" stroke-width="0.5" stroke="yellow" fill="yellow"/>
   </g>
   <g id="cell83">
  <circle cx="599.6" cy="588.258" r="9.90658" stroke-width="0.5" stroke="black" fill="yellow"/>
  <circle cx="599.6" cy="588.258" r="6.01243" stroke-width="0.5" stroke="yellow" fill="yellow"/>
   </g>
   <g id="cell84">
  <circle cx="21.064" cy="464.468" r="9.12489" stroke-width="0.5" stroke="black" fill="yellow"/>
  <circle cx="21.064" cy="464.468" r="5.54282" stroke-width="0.5" stroke="yellow" fill="yellow"/>
   </g>
   <g id="cell85">
  <circle cx="726.011" cy="657.345" r="10.1506" stroke-width="0.5" stroke="black" fill="yellow"/>
  <circle cx="726.011" cy="657.345" r="6.14798" stroke-width="0.5" stroke="yellow" fill="yellow"/>
   </g>
   <g id="cell86">
  <circle cx="265.359" cy="426.544" r="8.4325" stroke-width="0.5" stroke="black" fill="yellow"/>
  <circle cx="265.359" cy="426.544" r="5.06552" stroke-width="0.5" stroke="yellow" fill="yellow"/>
   </g>
   <g id="cell87">
  <circle cx="757.372" cy="422.753" r="10.2632" stroke-width="0.5" stroke="black" fill="yellow"/>
  <circle cx="757.372" cy="422.753" r="6.20796" stroke-width="0.5" stroke="yellow" fill="yellow"/>
   </g>
   <g id="cell88">
  <circle cx="140.484" cy="94.4153" r="9.84395" stroke-width="0.5" stroke="black" fill="yellow"/>
  <circle cx="140.484" cy="94.4153" r="5.97665" stroke-width="0.5" stroke="yellow" fill="yellow"/>
   </g>
   <g id="cell89">
  <circle cx="60.4434" cy="549.491" r="8.65127" stroke-width="0.5" stroke="black" fill="yellow"/>
  <circle cx="60.4434" cy="549.491" r="5.2272" stroke-width="0.5" stroke="yellow" fill="yellow"/>
   </g>
   <g id="cell90">
  <circle cx="576.381" cy="549.137" r="1.43395" stroke-width="0.5" stroke="black" fill="yellow"/>
  <circle cx="576.381" cy="549.137" r="1.41917" stroke-width="0.5" stroke="black" fill="black"/>
   </g>
   <g id="cell91">
  <circle cx="56.7665" cy="645.027" r="9.08642" stroke-width="0.5" stroke="black" fill="yellow"/>
  <circle cx="56.7665" cy="645.027" r="5.51837" stroke-width="0.5" stroke="yellow" fill="yellow"/>
   </g>
   <g id="cell92">
  <circle cx="651.795" cy="293.153" r="9.7992" stroke-width="0.5" stroke="black" fill="yellow"/>
  <circle cx="651.795" cy="293.153" r="5.95086" stroke-width="0.5" stroke="yellow" fill="yellow"/>
   </g>
   <g id="cell93">
  <circle cx="213.933" cy="890.554" r="10.2632" stroke-width="0.5" stroke="black" fill="yellow"/>
  <circle cx="213.933" cy="890.554" r="6.20796" stroke-width="0.5" stroke="yellow" fill="yellow"/>
   </g>
   <g id="cell94">
  <circle cx="373.599" cy="65.8351" r="9.4743" stroke-width="0.5" stroke="black" fill="yellow"/>
  <circle cx="373.599" cy="65.8351" r="5.75875" stroke-width="0.5" stroke="yellow" fill="yellow"/>
   </g>
   <g id="cell95">
  <circle cx="954.999" cy="887.738" r="9.62199" stroke-width="0.5" stroke="black" fill="yellow"/>
  <circle cx="954.999" cy="887.738" r="5.8471" stroke-width="0.5" stroke="yellow" fill="yellow"/>
   </g>
   <g id="cell96">
  <circle cx="805.064" cy="536.924" r="9.64936" stroke-width="0.5" stroke="black" fill="yellow"/>
  <circle cx="805.064" cy="536.924" r="5.86329" stroke-width="0.5" stroke="yellow" fill="yellow"/>
   </g>
   <g id="cell97">
  <circle cx="428.041" cy="119.673" r="8.41271" stroke-width="0.5" stroke="black" fill="yellow"/>
  <circle cx="428.041" cy="119.673" r="5.05167" stroke-width="0.5" stroke="yellow" fill="yellow"/>
   </g>
   <g id="cell98">
  <circle cx="941.473" cy="340.738" r="8.68937" stroke-width="0.5" stroke="black" fill="yellow"/>
  <circle cx="941.473" cy="340.738" r="5.25417" stroke-width="0.5" stroke="yellow" fill="yellow"/>
   </g>
   <g id="cell99">
  <circle cx="521.406" cy="973.038" r="8.96831" stroke-width="0.5" stroke="black" fill="yellow"/>
  <circle cx="521.406" cy="973.038" r="5.44228" stroke-width="0.5" stroke="yellow" fill="yellow"/>
   </g>
   <g id="cell100">
  <circle cx="138.366" cy="830.696" r="10.1634" stroke-width="0.5" stroke="black" fill="yellow"/>
  <circle cx="138.366" cy="830.696" r="6.1549" stroke-width="0.5" stroke="yellow" fill="yellow"/>
   </g>
   <g id="cell101">
  <circle cx="80.7285" cy="150.739" r="8.41271" stroke-width="0.5" stroke="black" fill="yellow"/>
  <circle cx="80.7285" cy="150.739" r="5.05167" stroke-width="0.5" stroke="yellow" fill="yellow"/>
   </g>
   <g id="cell102">
  <circle cx="627.785" cy="153.879" r="9.64936" stroke-width="0.5" stroke="black" fill="yellow"/>
  <circle cx="627.785" cy="153.879" r="5.86329" stroke-width="0.5" stroke="yellow" fill="yellow"/>
   </g>
   <g id="cell103">
  <circle cx="808.447" cy="879.82" r="8.41271" stroke-width="0.5" stroke="black" fill="yellow"/>
  <circle cx="808.447" cy="879.82" r="5.05167" stroke-width="0.5" stroke="yellow" fill="yellow"/>
   </g>
   <g id="cell104">
  <circle cx="802.554" cy="419.203" r="10.2433" stroke-width="0.5" stroke="black" fill="yellow"/>
  <circle cx="802.554" cy="419.203" r="6.19748" stroke-width="0.5" stroke="yellow" fill="yellow"/>
   </g>
   <g id="cell105">
  <circle cx="125.132" cy="416.598" r="8.41271" stroke-width="0.5" stroke="black" fill="yellow"/>
  <circle cx="125.132" cy="416.598" r="5.05167" stroke-width="0.5" stroke="yellow" fill="yellow"/>
   </g>
   <g id="cell106">
  <circle cx="20.7124" cy="973.139" r="10.1238" stroke-width="0.5" stroke="black" fill="yellow"/>
  <circle cx="20.7124" cy="973.139" r="6.13347" stroke-width="0.5" stroke="yellow" fill="yellow"/>
   </g>
   <g id="cell107">
  <circle cx="352.44" cy="468.633" r="8.41271" stroke-width="0.5" stroke="black" fill="yellow"/>
  <circle cx="352.44" cy="468.633" r="5.05167" stroke-width="0.5" stroke="yellow" fill="yellow"/>
   </g>
   <g id="cell108">
  <circle cx="711.19" cy="53.6958" r="10.2534" stroke-width="0.5" stroke="black" fill="yellow"/>
  <circle cx="711.19" cy="53.6958" r="6.2028" stroke-width="0.5" stroke="yellow" fill="yellow"/>
   </g>
   <g id="cell109">
  <circle cx="365.732" cy="946.232" r="9.59391" stroke-width="0.5" stroke="black" fill="yellow"/>
  <circle cx="365.732" cy="946.232" r="5.83043" stroke-width="0.5" stroke="yellow" fill="yellow"/>
   </g>
   <g id="cell110">
  <circle cx="852.074" cy="231.456" r="8.41271" stroke-width="0.5" stroke="black" fill="yellow"/>
  <circle cx="852.074" cy="231.456" r="5.05167" stroke-width="0.5" stroke="yellow" fill="yellow"/>
   </g>
   <g id="cell111">
  <circle cx="758.685" cy="375.661" r="8.41271" stroke-width="0.5" stroke="black" fill="yellow"/>
  <circle cx="758.685" cy="375.661" r="5.05167" stroke-width="0.5" stroke="yellow" fill="yellow"/>
   </g>
   <g id="cell112">
  <circle cx="737.755" cy="761.004" r="10.1374" stroke-width="0.5" stroke="black" fill="yellow"/>
  <circle cx="737.755" cy="761.004" r="6.14084" stroke-width="0.5" stroke="yellow" fill="yellow"/>
   </g>
   <g id="cell113">
  <circle cx="347.194" cy="522.062" r="1.555" stroke-width="0.5" stroke="black" fill="yellow"/>
  <circle cx="347.194" cy="522.062" r="1.53428" stroke-width="0.5" stroke="black" fill="black"/>
   </g>
   <g id="cell114">
  <circle cx="47.2675" cy="346.268" r="9.4743" stroke-width="0.5" stroke="black" fill="yellow"/>
  <circle cx="47.2675" cy="346.268" r="5.75875" stroke-width="0.5" stroke="yellow" fill="yellow"/>
   </g>
   <g id="cell115">
  <circle cx="195.286" cy="29.4651" r="10.0169" stroke-width="0.5" stroke="black" fill="yellow"/>
  <circle cx="195.286" cy="29.4651" r="6.07458" stroke-width="0.5" stroke="yellow" fill="yellow"/>
   </g>
   <g id="cell116">
  <circle cx="801.157" cy="482.466" r="8.41271" stroke-width="0.5" stroke="black" fill="yellow"/>
  <circle cx="801.157" cy="482.466" r="5.05167" stroke-width="0.5" stroke="yellow" fill="yellow"/>
   </g>
   <g id="cell117">
  <circle cx="892.348" cy="358.345" r="8.41271" stroke-width="0.5" stroke="black" fill="yellow"/>
  <circle cx="892.348" cy="358.345" r="5.05167" stroke-width="0.5" stroke="yellow" fill="yellow"/>
   </g>
   <g id="cell118">
  <circle cx="898.368" cy="594.224" r="10.1879" stroke-width="0.5" stroke="black" fill="yellow"/>
  <circle cx="898.368" cy="594.224" r="6.16807" stroke-width="0.5" stroke="yellow" fill="yellow"/>
   </g>
   <g id="cell119">
  <circle cx="600.256" cy="38.981" r="8.61424" stroke-width="0.5" stroke="black" fill="yellow"/>
  <circle cx="600.256" cy="38.981" r="5.20061" stroke-width="0.5" stroke="yellow" fill="yellow"/>
   </g>
  </g>
 </g>
  <rect x="775" y="1035" width="200" height="10" stroke-width="2" stroke="rgb(255,255,255)" fill="rgb(0,0,0)"/>
  <text x="781.25" y="1028.75"
   font-family="Arial" font-size="25" fill="black" >
   200 &#956;m
  </text>
  <text x="25" y="1045"
   font-family="Arial" font-size="18.75" fill="black" >
   0 days, 0 hours, 0 minutes, and 30.1180 seconds
  </text>
  <rect x="0" y="70" width="1000" height="1000" stroke-width="2" stroke="rgb(0,0,0)" fill="none"/>
</svg>
