<?xml version="1.0" encoding="UTF-8" standalone="no"?>
<!-- Created with PhysiCell (http://PhysiCell.MathCancer.org/) -->
<svg 
 xmlns:dc="http://purl.org/dc/elements/1.1/" 
 xmlns:cc="http://creativecommons.org/ns#" 
 xmlns:rdf="http://www.w3.org/1999/02/22-rdf-syntax-ns#" 
 xmlns:svg="http://www.w3.org/2000/svg" 
 xmlns="http://www.w3.org/2000/svg" 
 version="1.1" 
 width="1000" 
 height="1070" 
 id="svg2">
  <rect x="0" y="0" width="1000" height="1070" stroke-width="2" stroke="white" fill="white"/>
  <text x="12.5" y="30"
   font-family="Arial" font-size="25" fill="black" >
   Current time: 0 days, 6 hours, and 30.00 minutes, z = 0.00 &#956;m
  </text>
  <text x="12.5" y="57.5"
   font-family="Arial" font-size="23.75" fill="black" >
   120 agents
  </text>
 <g id="tissue" 
    transform="translate(0,1070) scale(1,-1)">
  <g id="ECM">
  </g>
  <g id="cells">
   <g id="cell0">
  <circle cx="519.064" cy="577.568" r="10.1506" stroke-width="0.5" stroke="black" fill="grey"/>
  <circle cx="519.064" cy="577.568" r="6.14798" stroke-width="0.5" stroke="grey" fill="grey"/>
   </g>
   <g id="cell1">
  <circle cx="839.837" cy="610.74" r="1.6312" stroke-width="0.5" stroke="black" fill="grey"/>
  <circle cx="839.837" cy="610.74" r="1.59812" stroke-width="0.5" stroke="black" fill="black"/>
   </g>
   <g id="cell2">
  <circle cx="550.341" cy="824.071" r="4.16608" stroke-width="0.5" stroke="black" fill="grey"/>
  <circle cx="550.341" cy="824.071" r="3.23171" stroke-width="0.5" stroke="black" fill="black"/>
   </g>
   <g id="cell3">
  <circle cx="612.627" cy="626.829" r="10.0497" stroke-width="0.5" stroke="black" fill="grey"/>
  <circle cx="612.627" cy="626.829" r="6.09278" stroke-width="0.5" stroke="grey" fill="grey"/>
   </g>
   <g id="cell4">
  <circle cx="415.352" cy="304.555" r="3.19585" stroke-width="0.5" stroke="black" fill="grey"/>
  <circle cx="415.352" cy="304.555" r="2.55241" stroke-width="0.5" stroke="black" fill="black"/>
   </g>
   <g id="cell5">
  <circle cx="90.462" cy="958.924" r="10.1098" stroke-width="0.5" stroke="black" fill="grey"/>
  <circle cx="90.462" cy="958.924" r="6.12585" stroke-width="0.5" stroke="grey" fill="grey"/>
   </g>
   <g id="cell6">
  <circle cx="390.944" cy="486.89" r="10.1758" stroke-width="0.5" stroke="black" fill="grey"/>
  <circle cx="390.944" cy="486.89" r="6.16159" stroke-width="0.5" stroke="grey" fill="grey"/>
   </g>
   <g id="cell7">
  <circle cx="824.864" cy="536.386" r="9.70201" stroke-width="0.5" stroke="black" fill="grey"/>
  <circle cx="824.864" cy="536.386" r="5.89426" stroke-width="0.5" stroke="grey" fill="grey"/>
   </g>
   <g id="cell8">
  <circle cx="594.254" cy="413.014" r="9.44256" stroke-width="0.5" stroke="black" fill="grey"/>
  <circle cx="594.254" cy="413.014" r="5.73955" stroke-width="0.5" stroke="grey" fill="grey"/>
   </g>
   <g id="cell9">
  <circle cx="847.148" cy="85.0327" r="1.92875" stroke-width="0.5" stroke="black" fill="grey"/>
  <circle cx="847.148" cy="85.0327" r="1.8429" stroke-width="0.5" stroke="black" fill="black"/>
   </g>
   <g id="cell10">
  <circle cx="110.423" cy="644.424" r="9.86542" stroke-width="0.5" stroke="black" fill="grey"/>
  <circle cx="110.423" cy="644.424" r="5.98895" stroke-width="0.5" stroke="grey" fill="grey"/>
   </g>
   <g id="cell11">
  <circle cx="350.604" cy="840.995" r="8.88811" stroke-width="0.5" stroke="black" fill="grey"/>
  <circle cx="350.604" cy="840.995" r="5.38958" stroke-width="0.5" stroke="grey" fill="grey"/>
   </g>
   <g id="cell12">
  <circle cx="782.392" cy="134.503" r="3.04602" stroke-width="0.5" stroke="black" fill="grey"/>
  <circle cx="782.392" cy="134.503" r="2.48703" stroke-width="0.5" stroke="black" fill="black"/>
   </g>
   <g id="cell13">
  <circle cx="880.851" cy="956.12" r="3.44737" stroke-width="0.5" stroke="black" fill="grey"/>
  <circle cx="880.851" cy="956.12" r="2.73359" stroke-width="0.5" stroke="black" fill="black"/>
   </g>
   <g id="cell14">
  <circle cx="838.103" cy="829.667" r="5.4824" stroke-width="0.5" stroke="black" fill="grey"/>
  <circle cx="838.103" cy="829.667" r="3.78793" stroke-width="0.5" stroke="black" fill="black"/>
   </g>
   <g id="cell15">
  <circle cx="525.275" cy="767.583" r="5.72169" stroke-width="0.5" stroke="black" fill="grey"/>
  <circle cx="525.275" cy="767.583" r="3.88589" stroke-width="0.5" stroke="black" fill="black"/>
   </g>
   <g id="cell16">
  <circle cx="158.202" cy="728.652" r="9.84395" stroke-width="0.5" stroke="black" fill="grey"/>
  <circle cx="158.202" cy="728.652" r="5.97665" stroke-width="0.5" stroke="grey" fill="grey"/>
   </g>
   <g id="cell17">
  <circle cx="576.613" cy="145.199" r="1.87298" stroke-width="0.5" stroke="black" fill="grey"/>
  <circle cx="576.613" cy="145.199" r="1.79964" stroke-width="0.5" stroke="black" fill="black"/>
   </g>
   <g id="cell18">
  <circle cx="923.517" cy="716.401" r="8.41271" stroke-width="0.5" stroke="black" fill="grey"/>
  <circle cx="923.517" cy="716.401" r="5.05167" stroke-width="0.5" stroke="grey" fill="grey"/>
   </g>
   <g id="cell19">
  <circle cx="91.6991" cy="418.138" r="3.48467" stroke-width="0.5" stroke="black" fill="grey"/>
  <circle cx="91.6991" cy="418.138" r="2.72713" stroke-width="0.5" stroke="black" fill="black"/>
   </g>
   <g id="cell20">
  <circle cx="227.957" cy="180.58" r="9.00806" stroke-width="0.5" stroke="black" fill="grey"/>
  <circle cx="227.957" cy="180.58" r="5.46807" stroke-width="0.5" stroke="grey" fill="grey"/>
   </g>
   <g id="cell21">
  <circle cx="724.733" cy="441.273" r="4.0657" stroke-width="0.5" stroke="black" fill="grey"/>
  <circle cx="724.733" cy="441.273" r="2.92016" stroke-width="0.5" stroke="black" fill="black"/>
   </g>
   <g id="cell22">
  <circle cx="565.337" cy="126.183" r="1.72142" stroke-width="0.5" stroke="black" fill="grey"/>
  <circle cx="565.337" cy="126.183" r="1.67587" stroke-width="0.5" stroke="black" fill="black"/>
   </g>
   <g id="cell23">
  <circle cx="303.9" cy="607.146" r="2.81706" stroke-width="0.5" stroke="black" fill="grey"/>
  <circle cx="303.9" cy="607.146" r="2.53605" stroke-width="0.5" stroke="black" fill="black"/>
   </g>
   <g id="cell24">
  <circle cx="606.221" cy="236.263" r="10.0955" stroke-width="0.5" stroke="black" fill="grey"/>
  <circle cx="606.221" cy="236.263" r="6.11797" stroke-width="0.5" stroke="grey" fill="grey"/>
   </g>
   <g id="cell25">
  <circle cx="391.324" cy="976.029" r="2.96757" stroke-width="0.5" stroke="black" fill="grey"/>
  <circle cx="391.324" cy="976.029" r="2.47679" stroke-width="0.5" stroke="black" fill="black"/>
   </g>
   <g id="cell26">
  <circle cx="655.892" cy="465.308" r="10.0336" stroke-width="0.5" stroke="black" fill="grey"/>
  <circle cx="655.892" cy="465.308" r="6.08382" stroke-width="0.5" stroke="grey" fill="grey"/>
   </g>
   <g id="cell27">
  <circle cx="601.791" cy="449.353" r="1.65305" stroke-width="0.5" stroke="black" fill="grey"/>
  <circle cx="601.791" cy="449.353" r="1.61721" stroke-width="0.5" stroke="black" fill="black"/>
   </g>
   <g id="cell28">
  <circle cx="670.002" cy="128.495" r="9.92631" stroke-width="0.5" stroke="black" fill="grey"/>
  <circle cx="670.002" cy="128.495" r="6.02363" stroke-width="0.5" stroke="grey" fill="grey"/>
   </g>
   <g id="cell29">
  <circle cx="971.49" cy="678.116" r="10.0654" stroke-width="0.5" stroke="black" fill="grey"/>
  <circle cx="971.49" cy="678.116" r="6.10145" stroke-width="0.5" stroke="grey" fill="grey"/>
   </g>
   <g id="cell30">
  <circle cx="716.688" cy="160.476" r="8.41271" stroke-width="0.5" stroke="black" fill="grey"/>
  <circle cx="716.688" cy="160.476" r="5.05167" stroke-width="0.5" stroke="grey" fill="grey"/>
   </g>
   <g id="cell31">
  <circle cx="366.284" cy="115.272" r="9.00806" stroke-width="0.5" stroke="black" fill="grey"/>
  <circle cx="366.284" cy="115.272" r="5.46807" stroke-width="0.5" stroke="grey" fill="grey"/>
   </g>
   <g id="cell32">
  <circle cx="319.499" cy="595.194" r="1.91187" stroke-width="0.5" stroke="black" fill="grey"/>
  <circle cx="319.499" cy="595.194" r="1.83777" stroke-width="0.5" stroke="black" fill="black"/>
   </g>
   <g id="cell33">
  <circle cx="310.636" cy="554.328" r="3.00467" stroke-width="0.5" stroke="black" fill="grey"/>
  <circle cx="310.636" cy="554.328" r="2.65038" stroke-width="0.5" stroke="black" fill="black"/>
   </g>
   <g id="cell34">
  <circle cx="435.362" cy="649.251" r="2.67434" stroke-width="0.5" stroke="black" fill="grey"/>
  <circle cx="435.362" cy="649.251" r="2.31053" stroke-width="0.5" stroke="black" fill="black"/>
   </g>
   <g id="cell35">
  <circle cx="933.142" cy="79.1213" r="8.41271" stroke-width="0.5" stroke="black" fill="grey"/>
  <circle cx="933.142" cy="79.1213" r="5.05167" stroke-width="0.5" stroke="grey" fill="grey"/>
   </g>
   <g id="cell36">
  <circle cx="208.916" cy="622.395" r="2.22333" stroke-width="0.5" stroke="black" fill="grey"/>
  <circle cx="208.916" cy="622.395" r="2.05083" stroke-width="0.5" stroke="black" fill="black"/>
   </g>
   <g id="cell37">
  <circle cx="991.105" cy="649.704" r="2.08246" stroke-width="0.5" stroke="black" fill="grey"/>
  <circle cx="991.105" cy="649.704" r="1.95565" stroke-width="0.5" stroke="black" fill="black"/>
   </g>
   <g id="cell38">
  <circle cx="237.281" cy="442.018" r="10.1634" stroke-width="0.5" stroke="black" fill="grey"/>
  <circle cx="237.281" cy="442.018" r="6.1549" stroke-width="0.5" stroke="grey" fill="grey"/>
   </g>
   <g id="cell39">
  <circle cx="496.525" cy="254.099" r="2.08246" stroke-width="0.5" stroke="black" fill="grey"/>
  <circle cx="496.525" cy="254.099" r="1.95565" stroke-width="0.5" stroke="black" fill="black"/>
   </g>
   <g id="cell40">
  <circle cx="174.424" cy="354.927" r="9.75192" stroke-width="0.5" stroke="black" fill="red"/>
  <circle cx="174.424" cy="354.927" r="5.92342" stroke-width="0.5" stroke="red" fill="red"/>
   </g>
   <g id="cell41">
  <circle cx="674.517" cy="679.821" r="9.94548" stroke-width="0.5" stroke="black" fill="red"/>
  <circle cx="674.517" cy="679.821" r="6.03448" stroke-width="0.5" stroke="red" fill="red"/>
   </g>
   <g id="cell42">
  <circle cx="154.338" cy="752.229" r="9.94548" stroke-width="0.5" stroke="black" fill="red"/>
  <circle cx="154.338" cy="752.229" r="6.03448" stroke-width="0.5" stroke="red" fill="red"/>
   </g>
   <g id="cell43">
  <circle cx="942.776" cy="363.303" r="9.20015" stroke-width="0.5" stroke="black" fill="red"/>
  <circle cx="942.776" cy="363.303" r="5.59022" stroke-width="0.5" stroke="red" fill="red"/>
   </g>
   <g id="cell44">
  <circle cx="809.844" cy="17.519" r="9.7273" stroke-width="0.5" stroke="black" fill="red"/>
  <circle cx="809.844" cy="17.519" r="5.90906" stroke-width="0.5" stroke="red" fill="red"/>
   </g>
   <g id="cell45">
  <circle cx="629.765" cy="834.047" r="8.57856" stroke-width="0.5" stroke="black" fill="red"/>
  <circle cx="629.765" cy="834.047" r="5.17461" stroke-width="0.5" stroke="red" fill="red"/>
   </g>
   <g id="cell46">
  <circle cx="43.537" cy="957.582" r="10.0336" stroke-width="0.5" stroke="black" fill="red"/>
  <circle cx="43.537" cy="957.582" r="6.08382" stroke-width="0.5" stroke="red" fill="red"/>
   </g>
   <g id="cell47">
  <circle cx="893.964" cy="453.112" r="9.84395" stroke-width="0.5" stroke="black" fill="red"/>
  <circle cx="893.964" cy="453.112" r="5.97665" stroke-width="0.5" stroke="red" fill="red"/>
   </g>
   <g id="cell48">
  <circle cx="943.868" cy="31.5269" r="10.0955" stroke-width="0.5" stroke="black" fill="red"/>
  <circle cx="943.868" cy="31.5269" r="6.11797" stroke-width="0.5" stroke="red" fill="red"/>
   </g>
   <g id="cell49">
  <circle cx="469.5" cy="757.963" r="9.23685" stroke-width="0.5" stroke="black" fill="red"/>
  <circle cx="469.5" cy="757.963" r="5.61315" stroke-width="0.5" stroke="red" fill="red"/>
   </g>
   <g id="cell50">
  <circle cx="34.0286" cy="454.105" r="10.1758" stroke-width="0.5" stroke="black" fill="red"/>
  <circle cx="34.0286" cy="454.105" r="6.16159" stroke-width="0.5" stroke="red" fill="red"/>
   </g>
   <g id="cell51">
  <circle cx="978.972" cy="126.513" r="10.1098" stroke-width="0.5" stroke="black" fill="red"/>
  <circle cx="978.972" cy="126.513" r="6.12585" stroke-width="0.5" stroke="red" fill="red"/>
   </g>
   <g id="cell52">
  <circle cx="289.862" cy="499.505" r="5.54925" stroke-width="0.5" stroke="black" fill="red"/>
  <circle cx="289.862" cy="499.505" r="3.58213" stroke-width="0.5" stroke="black" fill="black"/>
   </g>
   <g id="cell53">
  <circle cx="705.08" cy="310.439" r="10.0336" stroke-width="0.5" stroke="black" fill="red"/>
  <circle cx="705.08" cy="310.439" r="6.08382" stroke-width="0.5" stroke="red" fill="red"/>
   </g>
   <g id="cell54">
  <circle cx="438.899" cy="953.967" r="9.44256" stroke-width="0.5" stroke="black" fill="red"/>
  <circle cx="438.899" cy="953.967" r="5.73955" stroke-width="0.5" stroke="red" fill="red"/>
   </g>
   <g id="cell55">
  <circle cx="236.038" cy="688.339" r="8.41271" stroke-width="0.5" stroke="black" fill="red"/>
  <circle cx="236.038" cy="688.339" r="5.05167" stroke-width="0.5" stroke="red" fill="red"/>
   </g>
   <g id="cell56">
  <circle cx="556.653" cy="815.796" r="9.77588" stroke-width="0.5" stroke="black" fill="red"/>
  <circle cx="556.653" cy="815.796" r="5.93735" stroke-width="0.5" stroke="red" fill="red"/>
   </g>
   <g id="cell57">
  <circle cx="484.085" cy="533.915" r="9.90658" stroke-width="0.5" stroke="black" fill="red"/>
  <circle cx="484.085" cy="533.915" r="6.01243" stroke-width="0.5" stroke="red" fill="red"/>
   </g>
   <g id="cell58">
  <circle cx="87.8296" cy="917.911" r="9.4743" stroke-width="0.5" stroke="black" fill="red"/>
  <circle cx="87.8296" cy="917.911" r="5.75875" stroke-width="0.5" stroke="red" fill="red"/>
   </g>
   <g id="cell59">
  <circle cx="90.858" cy="932.563" r="9.2729" stroke-width="0.5" stroke="black" fill="red"/>
  <circle cx="90.858" cy="932.563" r="5.63555" stroke-width="0.5" stroke="red" fill="red"/>
   </g>
   <g id="cell60">
  <circle cx="307.42" cy="33.6066" r="9.00806" stroke-width="0.5" stroke="black" fill="red"/>
  <circle cx="307.42" cy="33.6066" r="5.46807" stroke-width="0.5" stroke="red" fill="red"/>
   </g>
   <g id="cell61">
  <circle cx="835.322" cy="141.508" r="9.4743" stroke-width="0.5" stroke="black" fill="red"/>
  <circle cx="835.322" cy="141.508" r="5.75875" stroke-width="0.5" stroke="red" fill="red"/>
   </g>
   <g id="cell62">
  <circle cx="717.023" cy="812.511" r="8.41271" stroke-width="0.5" stroke="black" fill="red"/>
  <circle cx="717.023" cy="812.511" r="5.05167" stroke-width="0.5" stroke="red" fill="red"/>
   </g>
   <g id="cell63">
  <circle cx="282.609" cy="182.379" r="9.86542" stroke-width="0.5" stroke="black" fill="red"/>
  <circle cx="282.609" cy="182.379" r="5.98895" stroke-width="0.5" stroke="red" fill="red"/>
   </g>
   <g id="cell64">
  <circle cx="580.262" cy="535.531" r="8.41271" stroke-width="0.5" stroke="black" fill="red"/>
  <circle cx="580.262" cy="535.531" r="5.05167" stroke-width="0.5" stroke="red" fill="red"/>
   </g>
   <g id="cell65">
  <circle cx="202.657" cy="840.201" r="8.41271" stroke-width="0.5" stroke="black" fill="red"/>
  <circle cx="202.657" cy="840.201" r="5.05167" stroke-width="0.5" stroke="red" fill="red"/>
   </g>
   <g id="cell66">
  <circle cx="11.5815" cy="166.723" r="8.72828" stroke-width="0.5" stroke="black" fill="red"/>
  <circle cx="11.5815" cy="166.723" r="5.28134" stroke-width="0.5" stroke="red" fill="red"/>
   </g>
   <g id="cell67">
  <circle cx="539.792" cy="276.434" r="8.57856" stroke-width="0.5" stroke="black" fill="red"/>
  <circle cx="539.792" cy="276.434" r="5.17461" stroke-width="0.5" stroke="red" fill="red"/>
   </g>
   <g id="cell68">
  <circle cx="732.845" cy="281.878" r="9.98223" stroke-width="0.5" stroke="black" fill="red"/>
  <circle cx="732.845" cy="281.878" r="6.05517" stroke-width="0.5" stroke="red" fill="red"/>
   </g>
   <g id="cell69">
  <circle cx="432.55" cy="284.492" r="9.00806" stroke-width="0.5" stroke="black" fill="red"/>
  <circle cx="432.55" cy="284.492" r="5.46807" stroke-width="0.5" stroke="red" fill="red"/>
   </g>
   <g id="cell70">
  <circle cx="550.692" cy="411.644" r="9.2729" stroke-width="0.5" stroke="black" fill="red"/>
  <circle cx="550.692" cy="411.644" r="5.63555" stroke-width="0.5" stroke="red" fill="red"/>
   </g>
   <g id="cell71">
  <circle cx="895.705" cy="538.93" r="10.0955" stroke-width="0.5" stroke="black" fill="red"/>
  <circle cx="895.705" cy="538.93" r="6.11797" stroke-width="0.5" stroke="red" fill="red"/>
   </g>
   <g id="cell72">
  <circle cx="216.107" cy="882.569" r="9.7992" stroke-width="0.5" stroke="black" fill="red"/>
  <circle cx="216.107" cy="882.569" r="5.95086" stroke-width="0.5" stroke="red" fill="red"/>
   </g>
   <g id="cell73">
  <circle cx="680.183" cy="457.977" r="9.99984" stroke-width="0.5" stroke="black" fill="red"/>
  <circle cx="680.183" cy="457.977" r="6.06503" stroke-width="0.5" stroke="red" fill="red"/>
   </g>
   <g id="cell74">
  <circle cx="833.171" cy="991.064" r="9.44256" stroke-width="0.5" stroke="black" fill="red"/>
  <circle cx="833.171" cy="991.064" r="5.73955" stroke-width="0.5" stroke="red" fill="red"/>
   </g>
   <g id="cell75">
  <circle cx="81.9143" cy="312.885" r="9.96412" stroke-width="0.5" stroke="black" fill="red"/>
  <circle cx="81.9143" cy="312.885" r="6.04499" stroke-width="0.5" stroke="red" fill="red"/>
   </g>
   <g id="cell76">
  <circle cx="798.391" cy="369.046" r="9.37686" stroke-width="0.5" stroke="black" fill="red"/>
  <circle cx="798.391" cy="369.046" r="5.69955" stroke-width="0.5" stroke="red" fill="red"/>
   </g>
   <g id="cell77">
  <circle cx="636.046" cy="857.001" r="9.70201" stroke-width="0.5" stroke="black" fill="red"/>
  <circle cx="636.046" cy="857.001" r="5.89426" stroke-width="0.5" stroke="red" fill="red"/>
   </g>
   <g id="cell78">
  <circle cx="591.449" cy="297.774" r="9.53557" stroke-width="0.5" stroke="black" fill="red"/>
  <circle cx="591.449" cy="297.774" r="5.79561" stroke-width="0.5" stroke="red" fill="red"/>
   </g>
   <g id="cell79">
  <circle cx="977.789" cy="692.635" r="8.61424" stroke-width="0.5" stroke="black" fill="red"/>
  <circle cx="977.789" cy="692.635" r="5.20061" stroke-width="0.5" stroke="red" fill="red"/>
   </g>
   <g id="cell80">
  <circle cx="747.145" cy="681.364" r="8.41271" stroke-width="0.5" stroke="black" fill="yellow"/>
  <circle cx="747.145" cy="681.364" r="5.05167" stroke-width="0.5" stroke="yellow" fill="yellow"/>
   </g>
   <g id="cell81">
  <circle cx="499.227" cy="977.599" r="8.41271" stroke-width="0.5" stroke="black" fill="yellow"/>
  <circle cx="499.227" cy="977.599" r="5.05167" stroke-width="0.5" stroke="yellow" fill="yellow"/>
   </g>
   <g id="cell82">
  <circle cx="666.088" cy="408.902" r="9.84395" stroke-width="0.5" stroke="black" fill="yellow"/>
  <circle cx="666.088" cy="408.902" r="5.97665" stroke-width="0.5" stroke="yellow" fill="yellow"/>
   </g>
   <g id="cell83">
  <circle cx="589.039" cy="581.11" r="9.67603" stroke-width="0.5" stroke="black" fill="yellow"/>
  <circle cx="589.039" cy="581.11" r="5.87901" stroke-width="0.5" stroke="yellow" fill="yellow"/>
   </g>
   <g id="cell84">
  <circle cx="28.1928" cy="460.863" r="8.72828" stroke-width="0.5" stroke="black" fill="yellow"/>
  <circle cx="28.1928" cy="460.863" r="5.28134" stroke-width="0.5" stroke="yellow" fill="yellow"/>
   </g>
   <g id="cell85">
  <circle cx="732.016" cy="670.988" r="9.99984" stroke-width="0.5" stroke="black" fill="yellow"/>
  <circle cx="732.016" cy="670.988" r="6.06503" stroke-width="0.5" stroke="yellow" fill="yellow"/>
   </g>
   <g id="cell86">
  <circle cx="271.471" cy="426.637" r="8.41271" stroke-width="0.5" stroke="black" fill="yellow"/>
  <circle cx="271.471" cy="426.637" r="5.05167" stroke-width="0.5" stroke="yellow" fill="yellow"/>
   </g>
   <g id="cell87">
  <circle cx="761.402" cy="423.141" r="10.1506" stroke-width="0.5" stroke="black" fill="yellow"/>
  <circle cx="761.402" cy="423.141" r="6.14798" stroke-width="0.5" stroke="yellow" fill="yellow"/>
   </g>
   <g id="cell88">
  <circle cx="140.6" cy="92.7036" r="9.59391" stroke-width="0.5" stroke="black" fill="yellow"/>
  <circle cx="140.6" cy="92.7036" r="5.83043" stroke-width="0.5" stroke="yellow" fill="yellow"/>
   </g>
   <g id="cell89">
  <circle cx="67.8086" cy="551.108" r="8.41271" stroke-width="0.5" stroke="black" fill="yellow"/>
  <circle cx="67.8086" cy="551.108" r="5.05167" stroke-width="0.5" stroke="yellow" fill="yellow"/>
   </g>
   <g id="cell90">
  <circle cx="576.381" cy="549.137" r="1.6312" stroke-width="0.5" stroke="black" fill="yellow"/>
  <circle cx="576.381" cy="549.137" r="1.59812" stroke-width="0.5" stroke="black" fill="black"/>
   </g>
   <g id="cell91">
  <circle cx="54.6331" cy="641.572" r="8.68937" stroke-width="0.5" stroke="black" fill="yellow"/>
  <circle cx="54.6331" cy="641.572" r="5.25417" stroke-width="0.5" stroke="yellow" fill="yellow"/>
   </g>
   <g id="cell92">
  <circle cx="655.738" cy="275.587" r="9.53557" stroke-width="0.5" stroke="black" fill="yellow"/>
  <circle cx="655.738" cy="275.587" r="5.79561" stroke-width="0.5" stroke="yellow" fill="yellow"/>
   </g>
   <g id="cell93">
  <circle cx="204.264" cy="887.926" r="10.1506" stroke-width="0.5" stroke="black" fill="yellow"/>
  <circle cx="204.264" cy="887.926" r="6.14798" stroke-width="0.5" stroke="yellow" fill="yellow"/>
   </g>
   <g id="cell94">
  <circle cx="377.554" cy="70.3653" r="9.12489" stroke-width="0.5" stroke="black" fill="yellow"/>
  <circle cx="377.554" cy="70.3653" r="5.54282" stroke-width="0.5" stroke="yellow" fill="yellow"/>
   </g>
   <g id="cell95">
  <circle cx="952.77" cy="878.131" r="9.30826" stroke-width="0.5" stroke="black" fill="yellow"/>
  <circle cx="952.77" cy="878.131" r="5.65742" stroke-width="0.5" stroke="yellow" fill="yellow"/>
   </g>
   <g id="cell96">
  <circle cx="793.319" cy="526.593" r="9.34292" stroke-width="0.5" stroke="black" fill="yellow"/>
  <circle cx="793.319" cy="526.593" r="5.67875" stroke-width="0.5" stroke="yellow" fill="yellow"/>
   </g>
   <g id="cell97">
  <circle cx="423.937" cy="111.793" r="8.41271" stroke-width="0.5" stroke="black" fill="yellow"/>
  <circle cx="423.937" cy="111.793" r="5.05167" stroke-width="0.5" stroke="yellow" fill="yellow"/>
   </g>
   <g id="cell98">
  <circle cx="952.087" cy="339.38" r="8.41271" stroke-width="0.5" stroke="black" fill="yellow"/>
  <circle cx="952.087" cy="339.38" r="5.05167" stroke-width="0.5" stroke="yellow" fill="yellow"/>
   </g>
   <g id="cell99">
  <circle cx="516.764" cy="979.113" r="8.57856" stroke-width="0.5" stroke="black" fill="yellow"/>
  <circle cx="516.764" cy="979.113" r="5.17461" stroke-width="0.5" stroke="yellow" fill="yellow"/>
   </g>
   <g id="cell100">
  <circle cx="143.229" cy="833.158" r="10.0169" stroke-width="0.5" stroke="black" fill="yellow"/>
  <circle cx="143.229" cy="833.158" r="6.07458" stroke-width="0.5" stroke="yellow" fill="yellow"/>
   </g>
   <g id="cell101">
  <circle cx="82.8176" cy="142.359" r="8.41271" stroke-width="0.5" stroke="black" fill="yellow"/>
  <circle cx="82.8176" cy="142.359" r="5.05167" stroke-width="0.5" stroke="yellow" fill="yellow"/>
   </g>
   <g id="cell102">
  <circle cx="621.418" cy="151.023" r="9.34292" stroke-width="0.5" stroke="black" fill="yellow"/>
  <circle cx="621.418" cy="151.023" r="5.67875" stroke-width="0.5" stroke="yellow" fill="yellow"/>
   </g>
   <g id="cell103">
  <circle cx="791.903" cy="885.562" r="8.41271" stroke-width="0.5" stroke="black" fill="yellow"/>
  <circle cx="791.903" cy="885.562" r="5.05167" stroke-width="0.5" stroke="yellow" fill="yellow"/>
   </g>
   <g id="cell104">
  <circle cx="802.099" cy="412.169" r="10.1238" stroke-width="0.5" stroke="black" fill="yellow"/>
  <circle cx="802.099" cy="412.169" r="6.13347" stroke-width="0.5" stroke="yellow" fill="yellow"/>
   </g>
   <g id="cell105">
  <circle cx="128.863" cy="426.49" r="8.41271" stroke-width="0.5" stroke="black" fill="yellow"/>
  <circle cx="128.863" cy="426.49" r="5.05167" stroke-width="0.5" stroke="yellow" fill="yellow"/>
   </g>
   <g id="cell106">
  <circle cx="21.6268" cy="966.995" r="9.96412" stroke-width="0.5" stroke="black" fill="yellow"/>
  <circle cx="21.6268" cy="966.995" r="6.04499" stroke-width="0.5" stroke="yellow" fill="yellow"/>
   </g>
   <g id="cell107">
  <circle cx="363.934" cy="469.248" r="8.41271" stroke-width="0.5" stroke="black" fill="yellow"/>
  <circle cx="363.934" cy="469.248" r="5.05167" stroke-width="0.5" stroke="yellow" fill="yellow"/>
   </g>
   <g id="cell108">
  <circle cx="705.413" cy="38.8865" r="10.1374" stroke-width="0.5" stroke="black" fill="yellow"/>
  <circle cx="705.413" cy="38.8865" r="6.14084" stroke-width="0.5" stroke="yellow" fill="yellow"/>
   </g>
   <g id="cell109">
  <circle cx="361.846" cy="957.974" r="9.2729" stroke-width="0.5" stroke="black" fill="yellow"/>
  <circle cx="361.846" cy="957.974" r="5.63555" stroke-width="0.5" stroke="yellow" fill="yellow"/>
   </g>
   <g id="cell110">
  <circle cx="846.528" cy="237.048" r="8.41271" stroke-width="0.5" stroke="black" fill="yellow"/>
  <circle cx="846.528" cy="237.048" r="5.05167" stroke-width="0.5" stroke="yellow" fill="yellow"/>
   </g>
   <g id="cell111">
  <circle cx="767.839" cy="383.248" r="8.41271" stroke-width="0.5" stroke="black" fill="yellow"/>
  <circle cx="767.839" cy="383.248" r="5.05167" stroke-width="0.5" stroke="yellow" fill="yellow"/>
   </g>
   <g id="cell112">
  <circle cx="736.12" cy="777.402" r="9.98223" stroke-width="0.5" stroke="black" fill="yellow"/>
  <circle cx="736.12" cy="777.402" r="6.05517" stroke-width="0.5" stroke="yellow" fill="yellow"/>
   </g>
   <g id="cell113">
  <circle cx="347.194" cy="522.062" r="1.774" stroke-width="0.5" stroke="black" fill="yellow"/>
  <circle cx="347.194" cy="522.062" r="1.72775" stroke-width="0.5" stroke="black" fill="black"/>
   </g>
   <g id="cell114">
  <circle cx="51.442" cy="346.113" r="9.12489" stroke-width="0.5" stroke="black" fill="yellow"/>
  <circle cx="51.442" cy="346.113" r="5.54282" stroke-width="0.5" stroke="yellow" fill="yellow"/>
   </g>
   <g id="cell115">
  <circle cx="179.187" cy="23.3379" r="9.82189" stroke-width="0.5" stroke="black" fill="yellow"/>
  <circle cx="179.187" cy="23.3379" r="5.96395" stroke-width="0.5" stroke="yellow" fill="yellow"/>
   </g>
   <g id="cell116">
  <circle cx="803.742" cy="481.002" r="8.41271" stroke-width="0.5" stroke="black" fill="yellow"/>
  <circle cx="803.742" cy="481.002" r="5.05167" stroke-width="0.5" stroke="yellow" fill="yellow"/>
   </g>
   <g id="cell117">
  <circle cx="879.073" cy="359.324" r="8.41271" stroke-width="0.5" stroke="black" fill="yellow"/>
  <circle cx="879.073" cy="359.324" r="5.05167" stroke-width="0.5" stroke="yellow" fill="yellow"/>
   </g>
   <g id="cell118">
  <circle cx="904.452" cy="589.671" r="10.0497" stroke-width="0.5" stroke="black" fill="yellow"/>
  <circle cx="904.452" cy="589.671" r="6.09278" stroke-width="0.5" stroke="yellow" fill="yellow"/>
   </g>
   <g id="cell119">
  <circle cx="587.502" cy="34.7934" r="8.41271" stroke-width="0.5" stroke="black" fill="yellow"/>
  <circle cx="587.502" cy="34.7934" r="5.05167" stroke-width="0.5" stroke="yellow" fill="yellow"/>
   </g>
  </g>
 </g>
  <rect x="775" y="1035" width="200" height="10" stroke-width="2" stroke="rgb(255,255,255)" fill="rgb(0,0,0)"/>
  <text x="781.25" y="1028.75"
   font-family="Arial" font-size="25" fill="black" >
   200 &#956;m
  </text>
  <text x="25" y="1045"
   font-family="Arial" font-size="18.75" fill="black" >
   0 days, 0 hours, 0 minutes, and 25.6535 seconds
  </text>
  <rect x="0" y="70" width="1000" height="1000" stroke-width="2" stroke="rgb(0,0,0)" fill="none"/>
</svg>
