<?xml version="1.0" encoding="UTF-8" standalone="no"?>
<!-- Created with PhysiCell (http://PhysiCell.MathCancer.org/) -->
<svg 
 xmlns:dc="http://purl.org/dc/elements/1.1/" 
 xmlns:cc="http://creativecommons.org/ns#" 
 xmlns:rdf="http://www.w3.org/1999/02/22-rdf-syntax-ns#" 
 xmlns:svg="http://www.w3.org/2000/svg" 
 xmlns="http://www.w3.org/2000/svg" 
 version="1.1" 
 width="1000" 
 height="1070" 
 id="svg2">
  <rect x="0" y="0" width="1000" height="1070" stroke-width="2" stroke="white" fill="white"/>
  <text x="12.5" y="30"
   font-family="Arial" font-size="25" fill="black" >
   Current time: 0 days, 13 hours, and 0.00 minutes, z = 0.00 &#956;m
  </text>
  <text x="12.5" y="57.5"
   font-family="Arial" font-size="23.75" fill="black" >
   104 agents
  </text>
 <g id="tissue" 
    transform="translate(0,1070) scale(1,-1)">
  <g id="ECM">
  </g>
  <g id="cells">
   <g id="cell0">
  <circle cx="503.44" cy="623.07" r="10.5295" stroke-width="0.5" stroke="black" fill="grey"/>
  <circle cx="503.44" cy="623.07" r="6.33783" stroke-width="0.5" stroke="grey" fill="grey"/>
   </g>
   <g id="cell118">
  <circle cx="915.458" cy="609.068" r="10.5142" stroke-width="0.5" stroke="black" fill="yellow"/>
  <circle cx="915.458" cy="609.068" r="6.33113" stroke-width="0.5" stroke="yellow" fill="yellow"/>
   </g>
   <g id="cell2">
  <circle cx="550.341" cy="824.071" r="1.48358" stroke-width="0.5" stroke="black" fill="grey"/>
  <circle cx="550.341" cy="824.071" r="1.47757" stroke-width="0.5" stroke="black" fill="black"/>
   </g>
   <g id="cell3">
  <circle cx="604.476" cy="622.597" r="10.5142" stroke-width="0.5" stroke="black" fill="grey"/>
  <circle cx="604.476" cy="622.597" r="6.33113" stroke-width="0.5" stroke="grey" fill="grey"/>
   </g>
   <g id="cell4">
  <circle cx="415.352" cy="304.555" r="1.17761" stroke-width="0.5" stroke="black" fill="grey"/>
  <circle cx="415.352" cy="304.555" r="1.17358" stroke-width="0.5" stroke="black" fill="black"/>
   </g>
   <g id="cell5">
  <circle cx="75.5167" cy="967.659" r="2.19415" stroke-width="0.5" stroke="black" fill="grey"/>
  <circle cx="75.5167" cy="967.659" r="2.12955" stroke-width="0.5" stroke="black" fill="black"/>
   </g>
   <g id="cell6">
  <circle cx="385.938" cy="487.283" r="10.5333" stroke-width="0.5" stroke="black" fill="grey"/>
  <circle cx="385.938" cy="487.283" r="6.33948" stroke-width="0.5" stroke="grey" fill="grey"/>
   </g>
   <g id="cell7">
  <circle cx="876.961" cy="529.683" r="10.4613" stroke-width="0.5" stroke="black" fill="grey"/>
  <circle cx="876.961" cy="529.683" r="6.30695" stroke-width="0.5" stroke="grey" fill="grey"/>
   </g>
   <g id="cell8">
  <circle cx="585.914" cy="406.988" r="10.4208" stroke-width="0.5" stroke="black" fill="grey"/>
  <circle cx="585.914" cy="406.988" r="6.28762" stroke-width="0.5" stroke="grey" fill="grey"/>
   </g>
   <g id="cell112">
  <circle cx="772.744" cy="749.522" r="10.5039" stroke-width="0.5" stroke="black" fill="yellow"/>
  <circle cx="772.744" cy="749.522" r="6.32657" stroke-width="0.5" stroke="yellow" fill="yellow"/>
   </g>
   <g id="cell10">
  <circle cx="134.269" cy="642.6" r="5.07034" stroke-width="0.5" stroke="black" fill="grey"/>
  <circle cx="134.269" cy="642.6" r="3.65385" stroke-width="0.5" stroke="black" fill="black"/>
   </g>
   <g id="cell11">
  <circle cx="331.403" cy="824.375" r="10.3247" stroke-width="0.5" stroke="black" fill="grey"/>
  <circle cx="331.403" cy="824.375" r="6.23971" stroke-width="0.5" stroke="grey" fill="grey"/>
   </g>
   <g id="cell104">
  <circle cx="798.488" cy="414.047" r="10.5254" stroke-width="0.5" stroke="black" fill="yellow"/>
  <circle cx="798.488" cy="414.047" r="6.33607" stroke-width="0.5" stroke="yellow" fill="yellow"/>
   </g>
   <g id="cell13">
  <circle cx="880.851" cy="956.12" r="1.26031" stroke-width="0.5" stroke="black" fill="grey"/>
  <circle cx="880.851" cy="956.12" r="1.2558" stroke-width="0.5" stroke="black" fill="black"/>
   </g>
   <g id="cell14">
  <circle cx="838.103" cy="829.667" r="1.6195" stroke-width="0.5" stroke="black" fill="grey"/>
  <circle cx="838.103" cy="829.667" r="1.60815" stroke-width="0.5" stroke="black" fill="black"/>
   </g>
   <g id="cell15">
  <circle cx="525.275" cy="767.583" r="1.62777" stroke-width="0.5" stroke="black" fill="grey"/>
  <circle cx="525.275" cy="767.583" r="1.61556" stroke-width="0.5" stroke="black" fill="black"/>
   </g>
   <g id="cell16">
  <circle cx="158.019" cy="743.174" r="10.483" stroke-width="0.5" stroke="black" fill="grey"/>
  <circle cx="158.019" cy="743.174" r="6.31703" stroke-width="0.5" stroke="grey" fill="grey"/>
   </g>
   <g id="cell116">
  <circle cx="822.484" cy="476.305" r="9.82189" stroke-width="0.5" stroke="black" fill="yellow"/>
  <circle cx="822.484" cy="476.305" r="5.96395" stroke-width="0.5" stroke="yellow" fill="yellow"/>
   </g>
   <g id="cell18">
  <circle cx="959.432" cy="705.774" r="4.5322" stroke-width="0.5" stroke="black" fill="grey"/>
  <circle cx="959.432" cy="705.774" r="3.38019" stroke-width="0.5" stroke="black" fill="black"/>
   </g>
   <g id="cell19">
  <circle cx="91.6991" cy="418.138" r="1.25498" stroke-width="0.5" stroke="black" fill="grey"/>
  <circle cx="91.6991" cy="418.138" r="1.25014" stroke-width="0.5" stroke="black" fill="black"/>
   </g>
   <g id="cell20">
  <circle cx="235.256" cy="172.059" r="7.92061" stroke-width="0.5" stroke="black" fill="grey"/>
  <circle cx="235.256" cy="172.059" r="4.94717" stroke-width="0.5" stroke="black" fill="black"/>
   </g>
   <g id="cell21">
  <circle cx="724.733" cy="441.273" r="1.29827" stroke-width="0.5" stroke="black" fill="grey"/>
  <circle cx="724.733" cy="441.273" r="1.29055" stroke-width="0.5" stroke="black" fill="black"/>
   </g>
   <g id="cell115">
  <circle cx="200.38" cy="9.43653" r="10.4796" stroke-width="0.5" stroke="black" fill="yellow"/>
  <circle cx="200.38" cy="9.43653" r="6.31548" stroke-width="0.5" stroke="yellow" fill="yellow"/>
   </g>
   <g id="cell108">
  <circle cx="706.49" cy="40.0232" r="10.5275" stroke-width="0.5" stroke="black" fill="yellow"/>
  <circle cx="706.49" cy="40.0232" r="6.33696" stroke-width="0.5" stroke="yellow" fill="yellow"/>
   </g>
   <g id="cell24">
  <circle cx="608.109" cy="222.435" r="2.67881" stroke-width="0.5" stroke="black" fill="grey"/>
  <circle cx="608.109" cy="222.435" r="2.49785" stroke-width="0.5" stroke="black" fill="black"/>
   </g>
   <g id="cell105">
  <circle cx="118.309" cy="418.345" r="8.41271" stroke-width="0.5" stroke="black" fill="yellow"/>
  <circle cx="118.309" cy="418.345" r="5.05167" stroke-width="0.5" stroke="yellow" fill="yellow"/>
   </g>
   <g id="cell26">
  <circle cx="644.101" cy="444.412" r="10.5117" stroke-width="0.5" stroke="black" fill="grey"/>
  <circle cx="644.101" cy="444.412" r="6.33005" stroke-width="0.5" stroke="grey" fill="grey"/>
   </g>
   <g id="cell117">
  <circle cx="893.053" cy="371.902" r="10.0336" stroke-width="0.5" stroke="black" fill="yellow"/>
  <circle cx="893.053" cy="371.902" r="6.08382" stroke-width="0.5" stroke="yellow" fill="yellow"/>
   </g>
   <g id="cell28">
  <circle cx="663.714" cy="143.217" r="10.4955" stroke-width="0.5" stroke="black" fill="grey"/>
  <circle cx="663.714" cy="143.217" r="6.32275" stroke-width="0.5" stroke="grey" fill="grey"/>
   </g>
   <g id="cell29">
  <circle cx="981.922" cy="691.633" r="10.5166" stroke-width="0.5" stroke="black" fill="grey"/>
  <circle cx="981.922" cy="691.633" r="6.33218" stroke-width="0.5" stroke="grey" fill="grey"/>
   </g>
   <g id="cell30">
  <circle cx="728.436" cy="147" r="9.94548" stroke-width="0.5" stroke="black" fill="grey"/>
  <circle cx="728.436" cy="147" r="6.03448" stroke-width="0.5" stroke="grey" fill="grey"/>
   </g>
   <g id="cell31">
  <circle cx="402.076" cy="123.651" r="10.3474" stroke-width="0.5" stroke="black" fill="grey"/>
  <circle cx="402.076" cy="123.651" r="6.25125" stroke-width="0.5" stroke="grey" fill="grey"/>
   </g>
   <g id="cell114">
  <circle cx="30.8144" cy="331.21" r="10.3682" stroke-width="0.5" stroke="black" fill="yellow"/>
  <circle cx="30.8144" cy="331.21" r="6.26172" stroke-width="0.5" stroke="yellow" fill="yellow"/>
   </g>
   <g id="cell107">
  <circle cx="388.337" cy="432.499" r="8.68937" stroke-width="0.5" stroke="black" fill="yellow"/>
  <circle cx="388.337" cy="432.499" r="5.25417" stroke-width="0.5" stroke="yellow" fill="yellow"/>
   </g>
   <g id="cell106">
  <circle cx="30.3905" cy="977.503" r="10.5012" stroke-width="0.5" stroke="black" fill="yellow"/>
  <circle cx="30.3905" cy="977.503" r="6.32534" stroke-width="0.5" stroke="yellow" fill="yellow"/>
   </g>
   <g id="cell35">
  <circle cx="916.894" cy="100.841" r="8.41271" stroke-width="0.5" stroke="black" fill="grey"/>
  <circle cx="916.894" cy="100.841" r="5.05167" stroke-width="0.5" stroke="grey" fill="grey"/>
   </g>
   <g id="cell109">
  <circle cx="370.795" cy="941.082" r="10.3933" stroke-width="0.5" stroke="black" fill="yellow"/>
  <circle cx="370.795" cy="941.082" r="6.27417" stroke-width="0.5" stroke="yellow" fill="yellow"/>
   </g>
   <g id="cell111">
  <circle cx="772.755" cy="359.443" r="9.98223" stroke-width="0.5" stroke="black" fill="yellow"/>
  <circle cx="772.755" cy="359.443" r="6.05517" stroke-width="0.5" stroke="yellow" fill="yellow"/>
   </g>
   <g id="cell38">
  <circle cx="228.983" cy="445.784" r="2.13686" stroke-width="0.5" stroke="black" fill="grey"/>
  <circle cx="228.983" cy="445.784" r="2.08167" stroke-width="0.5" stroke="black" fill="black"/>
   </g>
   <g id="cell110">
  <circle cx="860.109" cy="238.761" r="8.51252" stroke-width="0.5" stroke="black" fill="yellow"/>
  <circle cx="860.109" cy="238.761" r="5.12552" stroke-width="0.5" stroke="yellow" fill="yellow"/>
   </g>
   <g id="cell40">
  <circle cx="168.463" cy="370.671" r="10.4689" stroke-width="0.5" stroke="black" fill="red"/>
  <circle cx="168.463" cy="370.671" r="6.31053" stroke-width="0.5" stroke="red" fill="red"/>
   </g>
   <g id="cell41">
  <circle cx="672.162" cy="666.009" r="10.4984" stroke-width="0.5" stroke="black" fill="red"/>
  <circle cx="672.162" cy="666.009" r="6.32406" stroke-width="0.5" stroke="red" fill="red"/>
   </g>
   <g id="cell42">
  <circle cx="148.818" cy="731.477" r="10.4984" stroke-width="0.5" stroke="black" fill="red"/>
  <circle cx="148.818" cy="731.477" r="6.32406" stroke-width="0.5" stroke="red" fill="red"/>
   </g>
   <g id="cell43">
  <circle cx="896.404" cy="381.921" r="10.3811" stroke-width="0.5" stroke="black" fill="red"/>
  <circle cx="896.404" cy="381.921" r="6.26814" stroke-width="0.5" stroke="red" fill="red"/>
   </g>
   <g id="cell44">
  <circle cx="821.86" cy="16.9696" r="10.4651" stroke-width="0.5" stroke="black" fill="red"/>
  <circle cx="821.86" cy="16.9696" r="6.30877" stroke-width="0.5" stroke="red" fill="red"/>
   </g>
   <g id="cell45">
  <circle cx="639.14" cy="824.623" r="10.2534" stroke-width="0.5" stroke="black" fill="red"/>
  <circle cx="639.14" cy="824.623" r="6.2028" stroke-width="0.5" stroke="red" fill="red"/>
   </g>
   <g id="cell46">
  <circle cx="49.6972" cy="920.843" r="10.5117" stroke-width="0.5" stroke="black" fill="red"/>
  <circle cx="49.6972" cy="920.843" r="6.33005" stroke-width="0.5" stroke="red" fill="red"/>
   </g>
   <g id="cell47">
  <circle cx="888.649" cy="428.591" r="10.483" stroke-width="0.5" stroke="black" fill="red"/>
  <circle cx="888.649" cy="428.591" r="6.31703" stroke-width="0.5" stroke="red" fill="red"/>
   </g>
   <g id="cell48">
  <circle cx="923.45" cy="42.1261" r="10.5211" stroke-width="0.5" stroke="black" fill="red"/>
  <circle cx="923.45" cy="42.1261" r="6.33419" stroke-width="0.5" stroke="red" fill="red"/>
   </g>
   <g id="cell49">
  <circle cx="451.032" cy="794.33" r="10.3873" stroke-width="0.5" stroke="black" fill="red"/>
  <circle cx="451.032" cy="794.33" r="6.2712" stroke-width="0.5" stroke="red" fill="red"/>
   </g>
   <g id="cell50">
  <circle cx="28.2057" cy="486.19" r="10.5333" stroke-width="0.5" stroke="black" fill="red"/>
  <circle cx="28.2057" cy="486.19" r="6.33948" stroke-width="0.5" stroke="red" fill="red"/>
   </g>
   <g id="cell51">
  <circle cx="978.188" cy="142.17" r="10.5233" stroke-width="0.5" stroke="black" fill="red"/>
  <circle cx="978.188" cy="142.17" r="6.33514" stroke-width="0.5" stroke="red" fill="red"/>
   </g>
   <g id="cell52">
  <circle cx="289.862" cy="499.505" r="1.39843" stroke-width="0.5" stroke="black" fill="red"/>
  <circle cx="289.862" cy="499.505" r="1.38586" stroke-width="0.5" stroke="black" fill="black"/>
   </g>
   <g id="cell53">
  <circle cx="682.401" cy="344.293" r="10.5117" stroke-width="0.5" stroke="black" fill="red"/>
  <circle cx="682.401" cy="344.293" r="6.33005" stroke-width="0.5" stroke="red" fill="red"/>
   </g>
   <g id="cell54">
  <circle cx="457.597" cy="937.781" r="10.4208" stroke-width="0.5" stroke="black" fill="red"/>
  <circle cx="457.597" cy="937.781" r="6.28762" stroke-width="0.5" stroke="red" fill="red"/>
   </g>
   <g id="cell55">
  <circle cx="261.116" cy="715.545" r="9.44256" stroke-width="0.5" stroke="black" fill="red"/>
  <circle cx="261.116" cy="715.545" r="5.73955" stroke-width="0.5" stroke="red" fill="red"/>
   </g>
   <g id="cell56">
  <circle cx="546.705" cy="804.371" r="10.4726" stroke-width="0.5" stroke="black" fill="red"/>
  <circle cx="546.705" cy="804.371" r="6.31223" stroke-width="0.5" stroke="red" fill="red"/>
   </g>
   <g id="cell57">
  <circle cx="487.161" cy="556.711" r="10.4925" stroke-width="0.5" stroke="black" fill="red"/>
  <circle cx="487.161" cy="556.711" r="6.32139" stroke-width="0.5" stroke="red" fill="red"/>
   </g>
   <g id="cell58">
  <circle cx="66.8226" cy="914.723" r="10.4258" stroke-width="0.5" stroke="black" fill="red"/>
  <circle cx="66.8226" cy="914.723" r="6.29005" stroke-width="0.5" stroke="red" fill="red"/>
   </g>
   <g id="cell59">
  <circle cx="98.4002" cy="931.194" r="10.3933" stroke-width="0.5" stroke="black" fill="red"/>
  <circle cx="98.4002" cy="931.194" r="6.27417" stroke-width="0.5" stroke="red" fill="red"/>
   </g>
   <g id="cell60">
  <circle cx="280.085" cy="64.4768" r="10.3474" stroke-width="0.5" stroke="black" fill="red"/>
  <circle cx="280.085" cy="64.4768" r="6.25125" stroke-width="0.5" stroke="red" fill="red"/>
   </g>
   <g id="cell61">
  <circle cx="839.693" cy="132.766" r="10.4258" stroke-width="0.5" stroke="black" fill="red"/>
  <circle cx="839.693" cy="132.766" r="6.29005" stroke-width="0.5" stroke="red" fill="red"/>
   </g>
   <g id="cell62">
  <circle cx="737.081" cy="809.793" r="8.41271" stroke-width="0.5" stroke="black" fill="red"/>
  <circle cx="737.081" cy="809.793" r="5.05167" stroke-width="0.5" stroke="red" fill="red"/>
   </g>
   <g id="cell63">
  <circle cx="312.476" cy="209.539" r="10.4862" stroke-width="0.5" stroke="black" fill="red"/>
  <circle cx="312.476" cy="209.539" r="6.31853" stroke-width="0.5" stroke="red" fill="red"/>
   </g>
   <g id="cell64">
  <circle cx="568.816" cy="548.176" r="8.41271" stroke-width="0.5" stroke="black" fill="red"/>
  <circle cx="568.816" cy="548.176" r="5.05167" stroke-width="0.5" stroke="red" fill="red"/>
   </g>
   <g id="cell65">
  <circle cx="201.38" cy="835.461" r="9.92631" stroke-width="0.5" stroke="black" fill="red"/>
  <circle cx="201.38" cy="835.461" r="6.02363" stroke-width="0.5" stroke="red" fill="red"/>
   </g>
   <g id="cell66">
  <circle cx="38.2959" cy="157.592" r="10.2911" stroke-width="0.5" stroke="black" fill="red"/>
  <circle cx="38.2959" cy="157.592" r="6.22246" stroke-width="0.5" stroke="red" fill="red"/>
   </g>
   <g id="cell67">
  <circle cx="523.394" cy="265.257" r="10.2534" stroke-width="0.5" stroke="black" fill="red"/>
  <circle cx="523.394" cy="265.257" r="6.2028" stroke-width="0.5" stroke="red" fill="red"/>
   </g>
   <g id="cell68">
  <circle cx="770.619" cy="268.58" r="10.5039" stroke-width="0.5" stroke="black" fill="red"/>
  <circle cx="770.619" cy="268.58" r="6.32657" stroke-width="0.5" stroke="red" fill="red"/>
   </g>
   <g id="cell69">
  <circle cx="451.279" cy="277.956" r="10.3474" stroke-width="0.5" stroke="black" fill="red"/>
  <circle cx="451.279" cy="277.956" r="6.25125" stroke-width="0.5" stroke="red" fill="red"/>
   </g>
   <g id="cell70">
  <circle cx="555.811" cy="394.651" r="10.3933" stroke-width="0.5" stroke="black" fill="red"/>
  <circle cx="555.811" cy="394.651" r="6.27417" stroke-width="0.5" stroke="red" fill="red"/>
   </g>
   <g id="cell71">
  <circle cx="874.841" cy="516.919" r="10.5211" stroke-width="0.5" stroke="black" fill="red"/>
  <circle cx="874.841" cy="516.919" r="6.33419" stroke-width="0.5" stroke="red" fill="red"/>
   </g>
   <g id="cell72">
  <circle cx="230.244" cy="879.09" r="10.4761" stroke-width="0.5" stroke="black" fill="red"/>
  <circle cx="230.244" cy="879.09" r="6.31388" stroke-width="0.5" stroke="red" fill="red"/>
   </g>
   <g id="cell73">
  <circle cx="677.621" cy="459.429" r="10.5066" stroke-width="0.5" stroke="black" fill="red"/>
  <circle cx="677.621" cy="459.429" r="6.32777" stroke-width="0.5" stroke="red" fill="red"/>
   </g>
   <g id="cell74">
  <circle cx="839.746" cy="988.72" r="10.4208" stroke-width="0.5" stroke="black" fill="red"/>
  <circle cx="839.746" cy="988.72" r="6.28762" stroke-width="0.5" stroke="red" fill="red"/>
   </g>
   <g id="cell75">
  <circle cx="92.981" cy="315.642" r="10.5012" stroke-width="0.5" stroke="black" fill="red"/>
  <circle cx="92.981" cy="315.642" r="6.32534" stroke-width="0.5" stroke="red" fill="red"/>
   </g>
   <g id="cell76">
  <circle cx="794.101" cy="405.732" r="10.4102" stroke-width="0.5" stroke="black" fill="red"/>
  <circle cx="794.101" cy="405.732" r="6.2825" stroke-width="0.5" stroke="red" fill="red"/>
   </g>
   <g id="cell77">
  <circle cx="635.554" cy="846.32" r="10.4613" stroke-width="0.5" stroke="black" fill="red"/>
  <circle cx="635.554" cy="846.32" r="6.30695" stroke-width="0.5" stroke="red" fill="red"/>
   </g>
   <g id="cell78">
  <circle cx="601.131" cy="267.208" r="10.4355" stroke-width="0.5" stroke="black" fill="red"/>
  <circle cx="601.131" cy="267.208" r="6.2947" stroke-width="0.5" stroke="red" fill="red"/>
   </g>
   <g id="cell79">
  <circle cx="958.065" cy="715.358" r="10.2632" stroke-width="0.5" stroke="black" fill="red"/>
  <circle cx="958.065" cy="715.358" r="6.20796" stroke-width="0.5" stroke="red" fill="red"/>
   </g>
   <g id="cell80">
  <circle cx="736.035" cy="689.894" r="8.4325" stroke-width="0.5" stroke="black" fill="yellow"/>
  <circle cx="736.035" cy="689.894" r="5.06552" stroke-width="0.5" stroke="yellow" fill="yellow"/>
   </g>
   <g id="cell81">
  <circle cx="512.008" cy="980.242" r="8.41271" stroke-width="0.5" stroke="black" fill="yellow"/>
  <circle cx="512.008" cy="980.242" r="5.05167" stroke-width="0.5" stroke="yellow" fill="yellow"/>
   </g>
   <g id="cell82">
  <circle cx="667.537" cy="407.584" r="10.483" stroke-width="0.5" stroke="black" fill="yellow"/>
  <circle cx="667.537" cy="407.584" r="6.31703" stroke-width="0.5" stroke="yellow" fill="yellow"/>
   </g>
   <g id="cell83">
  <circle cx="600.565" cy="598.235" r="10.4573" stroke-width="0.5" stroke="black" fill="yellow"/>
  <circle cx="600.565" cy="598.235" r="6.30507" stroke-width="0.5" stroke="yellow" fill="yellow"/>
   </g>
   <g id="cell84">
  <circle cx="22.5359" cy="494.607" r="10.2911" stroke-width="0.5" stroke="black" fill="yellow"/>
  <circle cx="22.5359" cy="494.607" r="6.22246" stroke-width="0.5" stroke="yellow" fill="yellow"/>
   </g>
   <g id="cell85">
  <circle cx="725.198" cy="663.089" r="10.5066" stroke-width="0.5" stroke="black" fill="yellow"/>
  <circle cx="725.198" cy="663.089" r="6.32777" stroke-width="0.5" stroke="yellow" fill="yellow"/>
   </g>
   <g id="cell86">
  <circle cx="283.249" cy="426.186" r="10.0654" stroke-width="0.5" stroke="black" fill="yellow"/>
  <circle cx="283.249" cy="426.186" r="6.10145" stroke-width="0.5" stroke="yellow" fill="yellow"/>
   </g>
   <g id="cell87">
  <circle cx="765.828" cy="427.273" r="10.5295" stroke-width="0.5" stroke="black" fill="yellow"/>
  <circle cx="765.828" cy="427.273" r="6.33783" stroke-width="0.5" stroke="yellow" fill="yellow"/>
   </g>
   <g id="cell88">
  <circle cx="141.182" cy="107.072" r="10.4446" stroke-width="0.5" stroke="black" fill="yellow"/>
  <circle cx="141.182" cy="107.072" r="6.29905" stroke-width="0.5" stroke="yellow" fill="yellow"/>
   </g>
   <g id="cell89">
  <circle cx="58.5049" cy="556.634" r="10.1634" stroke-width="0.5" stroke="black" fill="yellow"/>
  <circle cx="58.5049" cy="556.634" r="6.1549" stroke-width="0.5" stroke="yellow" fill="yellow"/>
   </g>
   <g id="cell119">
  <circle cx="559.675" cy="43.8598" r="10.1506" stroke-width="0.5" stroke="black" fill="yellow"/>
  <circle cx="559.675" cy="43.8598" r="6.14798" stroke-width="0.5" stroke="yellow" fill="yellow"/>
   </g>
   <g id="cell91">
  <circle cx="44.0813" cy="646.467" r="10.2821" stroke-width="0.5" stroke="black" fill="yellow"/>
  <circle cx="44.0813" cy="646.467" r="6.21778" stroke-width="0.5" stroke="yellow" fill="yellow"/>
   </g>
   <g id="cell92">
  <circle cx="629.437" cy="303.484" r="10.4355" stroke-width="0.5" stroke="black" fill="yellow"/>
  <circle cx="629.437" cy="303.484" r="6.2947" stroke-width="0.5" stroke="yellow" fill="yellow"/>
   </g>
   <g id="cell93">
  <circle cx="231.86" cy="885.623" r="10.5295" stroke-width="0.5" stroke="black" fill="yellow"/>
  <circle cx="231.86" cy="885.623" r="6.33783" stroke-width="0.5" stroke="yellow" fill="yellow"/>
   </g>
   <g id="cell94">
  <circle cx="364.157" cy="86.8328" r="10.3682" stroke-width="0.5" stroke="black" fill="yellow"/>
  <circle cx="364.157" cy="86.8328" r="6.26172" stroke-width="0.5" stroke="yellow" fill="yellow"/>
   </g>
   <g id="cell95">
  <circle cx="961.885" cy="902.621" r="10.3991" stroke-width="0.5" stroke="black" fill="yellow"/>
  <circle cx="961.885" cy="902.621" r="6.27703" stroke-width="0.5" stroke="yellow" fill="yellow"/>
   </g>
   <g id="cell96">
  <circle cx="782.725" cy="547.565" r="10.4048" stroke-width="0.5" stroke="black" fill="yellow"/>
  <circle cx="782.725" cy="547.565" r="6.27981" stroke-width="0.5" stroke="yellow" fill="yellow"/>
   </g>
   <g id="cell97">
  <circle cx="425.822" cy="111.377" r="9.98223" stroke-width="0.5" stroke="black" fill="yellow"/>
  <circle cx="425.822" cy="111.377" r="6.05517" stroke-width="0.5" stroke="yellow" fill="yellow"/>
   </g>
   <g id="cell98">
  <circle cx="941.18" cy="375.628" r="10.1758" stroke-width="0.5" stroke="black" fill="yellow"/>
  <circle cx="941.18" cy="375.628" r="6.16159" stroke-width="0.5" stroke="yellow" fill="yellow"/>
   </g>
   <g id="cell99">
  <circle cx="507.174" cy="969.652" r="10.2534" stroke-width="0.5" stroke="black" fill="yellow"/>
  <circle cx="507.174" cy="969.652" r="6.2028" stroke-width="0.5" stroke="yellow" fill="yellow"/>
   </g>
   <g id="cell100">
  <circle cx="148.384" cy="836.685" r="10.5092" stroke-width="0.5" stroke="black" fill="yellow"/>
  <circle cx="148.384" cy="836.685" r="6.32893" stroke-width="0.5" stroke="yellow" fill="yellow"/>
   </g>
   <g id="cell101">
  <circle cx="93.3503" cy="142.546" r="8.80772" stroke-width="0.5" stroke="black" fill="yellow"/>
  <circle cx="93.3503" cy="142.546" r="5.33574" stroke-width="0.5" stroke="yellow" fill="yellow"/>
   </g>
   <g id="cell102">
  <circle cx="618.119" cy="178.3" r="10.4048" stroke-width="0.5" stroke="black" fill="yellow"/>
  <circle cx="618.119" cy="178.3" r="6.27981" stroke-width="0.5" stroke="yellow" fill="yellow"/>
   </g>
   <g id="cell103">
  <circle cx="842.939" cy="857.656" r="8.41271" stroke-width="0.5" stroke="black" fill="yellow"/>
  <circle cx="842.939" cy="857.656" r="5.05167" stroke-width="0.5" stroke="yellow" fill="yellow"/>
   </g>
  </g>
 </g>
  <rect x="775" y="1035" width="200" height="10" stroke-width="2" stroke="rgb(255,255,255)" fill="rgb(0,0,0)"/>
  <text x="781.25" y="1028.75"
   font-family="Arial" font-size="25" fill="black" >
   200 &#956;m
  </text>
  <text x="25" y="1045"
   font-family="Arial" font-size="18.75" fill="black" >
   0 days, 0 hours, 0 minutes, and 54.1438 seconds
  </text>
  <rect x="0" y="70" width="1000" height="1000" stroke-width="2" stroke="rgb(0,0,0)" fill="none"/>
</svg>
