<?xml version="1.0" encoding="UTF-8" standalone="no"?>
<!-- Created with PhysiCell (http://PhysiCell.MathCancer.org/) -->
<svg 
 xmlns:dc="http://purl.org/dc/elements/1.1/" 
 xmlns:cc="http://creativecommons.org/ns#" 
 xmlns:rdf="http://www.w3.org/1999/02/22-rdf-syntax-ns#" 
 xmlns:svg="http://www.w3.org/2000/svg" 
 xmlns="http://www.w3.org/2000/svg" 
 version="1.1" 
 width="1000" 
 height="1070" 
 id="svg2">
  <rect x="0" y="0" width="1000" height="1070" stroke-width="2" stroke="white" fill="white"/>
  <text x="12.5" y="30"
   font-family="Arial" font-size="25" fill="black" >
   Current time: 1 days, 6 hours, and 0.00 minutes, z = 0.00 &#956;m
  </text>
  <text x="12.5" y="57.5"
   font-family="Arial" font-size="23.75" fill="black" >
   163 agents
  </text>
 <g id="tissue" 
    transform="translate(0,1070) scale(1,-1)">
  <g id="ECM">
  </g>
  <g id="cells">
   <g id="cell0">
  <circle cx="492.915" cy="614.633" r="10.5479" stroke-width="0.5" stroke="black" fill="grey"/>
  <circle cx="492.915" cy="614.633" r="6.34566" stroke-width="0.5" stroke="grey" fill="grey"/>
   </g>
   <g id="cell118">
  <circle cx="845.093" cy="582.331" r="8.41212" stroke-width="0.5" stroke="black" fill="yellow"/>
  <circle cx="845.093" cy="582.331" r="5.05153" stroke-width="0.5" stroke="yellow" fill="yellow"/>
   </g>
   <g id="cell100">
  <circle cx="128.355" cy="801.89" r="10.5432" stroke-width="0.5" stroke="black" fill="yellow"/>
  <circle cx="128.355" cy="801.89" r="6.34375" stroke-width="0.5" stroke="yellow" fill="yellow"/>
   </g>
   <g id="cell3">
  <circle cx="656.198" cy="650.742" r="10.5291" stroke-width="0.5" stroke="black" fill="grey"/>
  <circle cx="656.198" cy="650.742" r="6.33774" stroke-width="0.5" stroke="grey" fill="grey"/>
   </g>
   <g id="cell103">
  <circle cx="810.365" cy="881.881" r="8.39203" stroke-width="0.5" stroke="black" fill="yellow"/>
  <circle cx="810.365" cy="881.881" r="5.0446" stroke-width="0.5" stroke="yellow" fill="yellow"/>
   </g>
   <g id="cell135">
  <circle cx="130.362" cy="803.349" r="10.4442" stroke-width="0.5" stroke="black" fill="yellow"/>
  <circle cx="130.362" cy="803.349" r="6.29895" stroke-width="0.5" stroke="yellow" fill="yellow"/>
   </g>
   <g id="cell185">
  <circle cx="847.954" cy="396.147" r="10.1219" stroke-width="0.5" stroke="black" fill="yellow"/>
  <circle cx="847.954" cy="396.147" r="6.13292" stroke-width="0.5" stroke="yellow" fill="yellow"/>
   </g>
   <g id="cell7">
  <circle cx="849.096" cy="480.565" r="10.5033" stroke-width="0.5" stroke="black" fill="grey"/>
  <circle cx="849.096" cy="480.565" r="6.32642" stroke-width="0.5" stroke="grey" fill="grey"/>
   </g>
   <g id="cell192">
  <circle cx="815.949" cy="411.61" r="9.26881" stroke-width="0.5" stroke="black" fill="yellow"/>
  <circle cx="815.949" cy="411.61" r="5.63425" stroke-width="0.5" stroke="yellow" fill="yellow"/>
   </g>
   <g id="cell112">
  <circle cx="749.733" cy="728.273" r="1.98746" stroke-width="0.5" stroke="black" fill="yellow"/>
  <circle cx="749.733" cy="728.273" r="1.8871" stroke-width="0.5" stroke="black" fill="black"/>
   </g>
   <g id="cell176">
  <circle cx="270.073" cy="56.8376" r="10.0485" stroke-width="0.5" stroke="black" fill="red"/>
  <circle cx="270.073" cy="56.8376" r="6.09245" stroke-width="0.5" stroke="red" fill="red"/>
   </g>
   <g id="cell186">
  <circle cx="72.6872" cy="543.029" r="8.40986" stroke-width="0.5" stroke="black" fill="yellow"/>
  <circle cx="72.6872" cy="543.029" r="5.05089" stroke-width="0.5" stroke="yellow" fill="yellow"/>
   </g>
   <g id="cell104">
  <circle cx="753.328" cy="426.47" r="10.5311" stroke-width="0.5" stroke="black" fill="yellow"/>
  <circle cx="753.328" cy="426.47" r="6.33859" stroke-width="0.5" stroke="yellow" fill="yellow"/>
   </g>
   <g id="cell102">
  <circle cx="610.035" cy="153.921" r="10.3392" stroke-width="0.5" stroke="black" fill="yellow"/>
  <circle cx="610.035" cy="153.921" r="6.2473" stroke-width="0.5" stroke="yellow" fill="yellow"/>
   </g>
   <g id="cell98">
  <circle cx="872.326" cy="371.866" r="10.2091" stroke-width="0.5" stroke="black" fill="yellow"/>
  <circle cx="872.326" cy="371.866" r="6.17988" stroke-width="0.5" stroke="yellow" fill="yellow"/>
   </g>
   <g id="cell97">
  <circle cx="404.569" cy="103.48" r="10.1211" stroke-width="0.5" stroke="black" fill="yellow"/>
  <circle cx="404.569" cy="103.48" r="6.13265" stroke-width="0.5" stroke="yellow" fill="yellow"/>
   </g>
   <g id="cell16">
  <circle cx="131.186" cy="708.3" r="2.58896" stroke-width="0.5" stroke="black" fill="grey"/>
  <circle cx="131.186" cy="708.3" r="2.43456" stroke-width="0.5" stroke="black" fill="black"/>
   </g>
   <g id="cell116">
  <circle cx="821.015" cy="414.878" r="9.47038" stroke-width="0.5" stroke="black" fill="yellow"/>
  <circle cx="821.015" cy="414.878" r="5.75752" stroke-width="0.5" stroke="yellow" fill="yellow"/>
   </g>
   <g id="cell177">
  <circle cx="443.215" cy="284.569" r="8.84636" stroke-width="0.5" stroke="black" fill="red"/>
  <circle cx="443.215" cy="284.569" r="5.36234" stroke-width="0.5" stroke="red" fill="red"/>
   </g>
   <g id="cell101">
  <circle cx="91.9483" cy="155.589" r="8.4009" stroke-width="0.5" stroke="black" fill="yellow"/>
  <circle cx="91.9483" cy="155.589" r="5.04788" stroke-width="0.5" stroke="yellow" fill="yellow"/>
   </g>
   <g id="cell184">
  <circle cx="520.283" cy="297.031" r="10.3796" stroke-width="0.5" stroke="black" fill="red"/>
  <circle cx="520.283" cy="297.031" r="6.26773" stroke-width="0.5" stroke="red" fill="red"/>
   </g>
   <g id="cell99">
  <circle cx="488.866" cy="980.969" r="10.3151" stroke-width="0.5" stroke="black" fill="yellow"/>
  <circle cx="488.866" cy="980.969" r="6.23519" stroke-width="0.5" stroke="yellow" fill="yellow"/>
   </g>
   <g id="cell115">
  <circle cx="226.975" cy="30.5481" r="10.4395" stroke-width="0.5" stroke="black" fill="yellow"/>
  <circle cx="226.975" cy="30.5481" r="6.29677" stroke-width="0.5" stroke="yellow" fill="yellow"/>
   </g>
   <g id="cell191">
  <circle cx="745.582" cy="135.881" r="10.014" stroke-width="0.5" stroke="black" fill="grey"/>
  <circle cx="745.582" cy="135.881" r="6.07369" stroke-width="0.5" stroke="grey" fill="grey"/>
   </g>
   <g id="cell153">
  <circle cx="185.693" cy="386.879" r="10.4949" stroke-width="0.5" stroke="black" fill="red"/>
  <circle cx="185.693" cy="386.879" r="6.3226" stroke-width="0.5" stroke="red" fill="red"/>
   </g>
   <g id="cell105">
  <circle cx="59.0993" cy="405.75" r="8.75125" stroke-width="0.5" stroke="black" fill="yellow"/>
  <circle cx="59.0993" cy="405.75" r="5.30275" stroke-width="0.5" stroke="yellow" fill="yellow"/>
   </g>
   <g id="cell26">
  <circle cx="675.114" cy="475.281" r="1.92299" stroke-width="0.5" stroke="black" fill="grey"/>
  <circle cx="675.114" cy="475.281" r="1.89218" stroke-width="0.5" stroke="black" fill="black"/>
   </g>
   <g id="cell117">
  <circle cx="879.831" cy="370.561" r="8.40905" stroke-width="0.5" stroke="black" fill="yellow"/>
  <circle cx="879.831" cy="370.561" r="5.05064" stroke-width="0.5" stroke="yellow" fill="yellow"/>
   </g>
   <g id="cell28">
  <circle cx="711.456" cy="102.973" r="8.412" stroke-width="0.5" stroke="black" fill="grey"/>
  <circle cx="711.456" cy="102.973" r="5.0515" stroke-width="0.5" stroke="grey" fill="grey"/>
   </g>
   <g id="cell29">
  <circle cx="961.142" cy="647.397" r="10.3542" stroke-width="0.5" stroke="black" fill="grey"/>
  <circle cx="961.142" cy="647.397" r="6.25476" stroke-width="0.5" stroke="grey" fill="grey"/>
   </g>
   <g id="cell30">
  <circle cx="754.995" cy="122.146" r="8.80389" stroke-width="0.5" stroke="black" fill="grey"/>
  <circle cx="754.995" cy="122.146" r="5.33457" stroke-width="0.5" stroke="grey" fill="grey"/>
   </g>
   <g id="cell190">
  <circle cx="450.942" cy="124.347" r="8.40873" stroke-width="0.5" stroke="black" fill="yellow"/>
  <circle cx="450.942" cy="124.347" r="5.05054" stroke-width="0.5" stroke="yellow" fill="yellow"/>
   </g>
   <g id="cell114">
  <circle cx="61.7231" cy="364.677" r="10.2988" stroke-width="0.5" stroke="black" fill="yellow"/>
  <circle cx="61.7231" cy="364.677" r="6.22671" stroke-width="0.5" stroke="yellow" fill="yellow"/>
   </g>
   <g id="cell107">
  <circle cx="367.857" cy="471.015" r="8.39987" stroke-width="0.5" stroke="black" fill="yellow"/>
  <circle cx="367.857" cy="471.015" r="5.04751" stroke-width="0.5" stroke="yellow" fill="yellow"/>
   </g>
   <g id="cell106">
  <circle cx="34.2722" cy="918.96" r="10.5207" stroke-width="0.5" stroke="black" fill="yellow"/>
  <circle cx="34.2722" cy="918.96" r="6.33408" stroke-width="0.5" stroke="yellow" fill="yellow"/>
   </g>
   <g id="cell35">
  <circle cx="940.748" cy="59.1221" r="8.38891" stroke-width="0.5" stroke="black" fill="grey"/>
  <circle cx="940.748" cy="59.1221" r="5.0434" stroke-width="0.5" stroke="grey" fill="grey"/>
   </g>
   <g id="cell109">
  <circle cx="376.669" cy="987.349" r="9.79818" stroke-width="0.5" stroke="black" fill="yellow"/>
  <circle cx="376.669" cy="987.349" r="5.95057" stroke-width="0.5" stroke="yellow" fill="yellow"/>
   </g>
   <g id="cell111">
  <circle cx="789.789" cy="400.604" r="8.40873" stroke-width="0.5" stroke="black" fill="yellow"/>
  <circle cx="789.789" cy="400.604" r="5.05054" stroke-width="0.5" stroke="yellow" fill="yellow"/>
   </g>
   <g id="cell131">
  <circle cx="635.047" cy="587.606" r="10.4758" stroke-width="0.5" stroke="black" fill="grey"/>
  <circle cx="635.047" cy="587.606" r="6.31379" stroke-width="0.5" stroke="grey" fill="grey"/>
   </g>
   <g id="cell110">
  <circle cx="874.463" cy="256.939" r="8.39794" stroke-width="0.5" stroke="black" fill="yellow"/>
  <circle cx="874.463" cy="256.939" r="5.04681" stroke-width="0.5" stroke="yellow" fill="yellow"/>
   </g>
   <g id="cell40">
  <circle cx="156.338" cy="402.689" r="10.4683" stroke-width="0.5" stroke="black" fill="red"/>
  <circle cx="156.338" cy="402.689" r="6.31038" stroke-width="0.5" stroke="red" fill="red"/>
   </g>
   <g id="cell41">
  <circle cx="686.922" cy="699.104" r="10.4889" stroke-width="0.5" stroke="black" fill="red"/>
  <circle cx="686.922" cy="699.104" r="6.31987" stroke-width="0.5" stroke="red" fill="red"/>
   </g>
   <g id="cell42">
  <circle cx="166.526" cy="724.415" r="10.3928" stroke-width="0.5" stroke="black" fill="red"/>
  <circle cx="166.526" cy="724.415" r="6.27406" stroke-width="0.5" stroke="red" fill="red"/>
   </g>
   <g id="cell43">
  <circle cx="872.635" cy="396.356" r="10.3923" stroke-width="0.5" stroke="black" fill="red"/>
  <circle cx="872.635" cy="396.356" r="6.27392" stroke-width="0.5" stroke="red" fill="red"/>
   </g>
   <g id="cell44">
  <circle cx="843.344" cy="50.6247" r="10.4042" stroke-width="0.5" stroke="black" fill="red"/>
  <circle cx="843.344" cy="50.6247" r="6.27966" stroke-width="0.5" stroke="red" fill="red"/>
   </g>
   <g id="cell45">
  <circle cx="693.625" cy="805.865" r="9.50352" stroke-width="0.5" stroke="black" fill="red"/>
  <circle cx="693.625" cy="805.865" r="5.77691" stroke-width="0.5" stroke="red" fill="red"/>
   </g>
   <g id="cell46">
  <circle cx="51.1409" cy="898.146" r="9.23635" stroke-width="0.5" stroke="black" fill="red"/>
  <circle cx="51.1409" cy="898.146" r="5.61301" stroke-width="0.5" stroke="red" fill="red"/>
   </g>
   <g id="cell47">
  <circle cx="863.656" cy="447.954" r="10.4567" stroke-width="0.5" stroke="black" fill="red"/>
  <circle cx="863.656" cy="447.954" r="6.30494" stroke-width="0.5" stroke="red" fill="red"/>
   </g>
   <g id="cell48">
  <circle cx="939.342" cy="32.6845" r="10.5348" stroke-width="0.5" stroke="black" fill="red"/>
  <circle cx="939.342" cy="32.6845" r="6.34019" stroke-width="0.5" stroke="red" fill="red"/>
   </g>
   <g id="cell49">
  <circle cx="463.047" cy="790.517" r="10.2524" stroke-width="0.5" stroke="black" fill="red"/>
  <circle cx="463.047" cy="790.517" r="6.20255" stroke-width="0.5" stroke="red" fill="red"/>
   </g>
   <g id="cell50">
  <circle cx="34.7525" cy="433.312" r="10.4304" stroke-width="0.5" stroke="black" fill="red"/>
  <circle cx="34.7525" cy="433.312" r="6.29234" stroke-width="0.5" stroke="red" fill="red"/>
   </g>
   <g id="cell51">
  <circle cx="855.313" cy="143.257" r="10.5138" stroke-width="0.5" stroke="black" fill="red"/>
  <circle cx="855.313" cy="143.257" r="6.33105" stroke-width="0.5" stroke="red" fill="red"/>
   </g>
   <g id="cell96">
  <circle cx="836.144" cy="560.884" r="10.4523" stroke-width="0.5" stroke="black" fill="yellow"/>
  <circle cx="836.144" cy="560.884" r="6.30291" stroke-width="0.5" stroke="yellow" fill="yellow"/>
   </g>
   <g id="cell53">
  <circle cx="679.184" cy="290.873" r="10.5383" stroke-width="0.5" stroke="black" fill="red"/>
  <circle cx="679.184" cy="290.873" r="6.34168" stroke-width="0.5" stroke="red" fill="red"/>
   </g>
   <g id="cell54">
  <circle cx="419.744" cy="907.349" r="8.41151" stroke-width="0.5" stroke="black" fill="red"/>
  <circle cx="419.744" cy="907.349" r="5.05137" stroke-width="0.5" stroke="red" fill="red"/>
   </g>
   <g id="cell55">
  <circle cx="207.441" cy="655.8" r="8.40537" stroke-width="0.5" stroke="black" fill="red"/>
  <circle cx="207.441" cy="655.8" r="5.04944" stroke-width="0.5" stroke="red" fill="red"/>
   </g>
   <g id="cell56">
  <circle cx="624.449" cy="835.66" r="10.4888" stroke-width="0.5" stroke="black" fill="red"/>
  <circle cx="624.449" cy="835.66" r="6.31984" stroke-width="0.5" stroke="red" fill="red"/>
   </g>
   <g id="cell57">
  <circle cx="481.216" cy="517.357" r="10.5007" stroke-width="0.5" stroke="black" fill="red"/>
  <circle cx="481.216" cy="517.357" r="6.32522" stroke-width="0.5" stroke="red" fill="red"/>
   </g>
   <g id="cell58">
  <circle cx="22.1161" cy="871.335" r="10.4438" stroke-width="0.5" stroke="black" fill="red"/>
  <circle cx="22.1161" cy="871.335" r="6.29885" stroke-width="0.5" stroke="red" fill="red"/>
   </g>
   <g id="cell59">
  <circle cx="60.2473" cy="943.21" r="10.4604" stroke-width="0.5" stroke="black" fill="red"/>
  <circle cx="60.2473" cy="943.21" r="6.30671" stroke-width="0.5" stroke="red" fill="red"/>
   </g>
   <g id="cell60">
  <circle cx="222.886" cy="34.5709" r="10.0485" stroke-width="0.5" stroke="black" fill="red"/>
  <circle cx="222.886" cy="34.5709" r="6.09245" stroke-width="0.5" stroke="red" fill="red"/>
   </g>
   <g id="cell61">
  <circle cx="804.505" cy="127.341" r="9.67515" stroke-width="0.5" stroke="black" fill="red"/>
  <circle cx="804.505" cy="127.341" r="5.87876" stroke-width="0.5" stroke="red" fill="red"/>
   </g>
   <g id="cell62">
  <circle cx="720.199" cy="793.801" r="10.4573" stroke-width="0.5" stroke="black" fill="red"/>
  <circle cx="720.199" cy="793.801" r="6.30507" stroke-width="0.5" stroke="red" fill="red"/>
   </g>
   <g id="cell63">
  <circle cx="347.645" cy="175.219" r="10.2816" stroke-width="0.5" stroke="black" fill="red"/>
  <circle cx="347.645" cy="175.219" r="6.21765" stroke-width="0.5" stroke="red" fill="red"/>
   </g>
   <g id="cell64">
  <circle cx="594.83" cy="545.763" r="10.5189" stroke-width="0.5" stroke="black" fill="red"/>
  <circle cx="594.83" cy="545.763" r="6.3332" stroke-width="0.5" stroke="red" fill="red"/>
   </g>
   <g id="cell188">
  <circle cx="861.955" cy="383.933" r="9.7492" stroke-width="0.5" stroke="black" fill="yellow"/>
  <circle cx="861.955" cy="383.933" r="5.9226" stroke-width="0.5" stroke="yellow" fill="yellow"/>
   </g>
   <g id="cell66">
  <circle cx="18.1561" cy="141.237" r="10.4034" stroke-width="0.5" stroke="black" fill="red"/>
  <circle cx="18.1561" cy="141.237" r="6.27945" stroke-width="0.5" stroke="red" fill="red"/>
   </g>
   <g id="cell67">
  <circle cx="517.357" cy="250.279" r="1.3632" stroke-width="0.5" stroke="black" fill="red"/>
  <circle cx="517.357" cy="250.279" r="1.35255" stroke-width="0.5" stroke="black" fill="black"/>
   </g>
   <g id="cell68">
  <circle cx="750.38" cy="229.663" r="10.4608" stroke-width="0.5" stroke="black" fill="red"/>
  <circle cx="750.38" cy="229.663" r="6.30684" stroke-width="0.5" stroke="red" fill="red"/>
   </g>
   <g id="cell69">
  <circle cx="458.45" cy="308.221" r="8.41103" stroke-width="0.5" stroke="black" fill="red"/>
  <circle cx="458.45" cy="308.221" r="5.05123" stroke-width="0.5" stroke="red" fill="red"/>
   </g>
   <g id="cell70">
  <circle cx="525.468" cy="370.955" r="10.3075" stroke-width="0.5" stroke="black" fill="red"/>
  <circle cx="525.468" cy="370.955" r="6.23112" stroke-width="0.5" stroke="red" fill="red"/>
   </g>
   <g id="cell71">
  <circle cx="894.336" cy="499.545" r="10.5384" stroke-width="0.5" stroke="black" fill="red"/>
  <circle cx="894.336" cy="499.545" r="6.34169" stroke-width="0.5" stroke="red" fill="red"/>
   </g>
   <g id="cell72">
  <circle cx="170.239" cy="915.329" r="10.5007" stroke-width="0.5" stroke="black" fill="red"/>
  <circle cx="170.239" cy="915.329" r="6.32521" stroke-width="0.5" stroke="red" fill="red"/>
   </g>
   <g id="cell73">
  <circle cx="617.23" cy="454.077" r="10.3987" stroke-width="0.5" stroke="black" fill="red"/>
  <circle cx="617.23" cy="454.077" r="6.27693" stroke-width="0.5" stroke="red" fill="red"/>
   </g>
   <g id="cell74">
  <circle cx="865.933" cy="948.409" r="10.0161" stroke-width="0.5" stroke="black" fill="red"/>
  <circle cx="865.933" cy="948.409" r="6.07435" stroke-width="0.5" stroke="red" fill="red"/>
   </g>
   <g id="cell75">
  <circle cx="105.644" cy="313.076" r="10.495" stroke-width="0.5" stroke="black" fill="red"/>
  <circle cx="105.644" cy="313.076" r="6.32264" stroke-width="0.5" stroke="red" fill="red"/>
   </g>
   <g id="cell76">
  <circle cx="779.566" cy="422.778" r="10.1749" stroke-width="0.5" stroke="black" fill="red"/>
  <circle cx="779.566" cy="422.778" r="6.16136" stroke-width="0.5" stroke="red" fill="red"/>
   </g>
   <g id="cell77">
  <circle cx="667.058" cy="833.946" r="10.4096" stroke-width="0.5" stroke="black" fill="red"/>
  <circle cx="667.058" cy="833.946" r="6.28234" stroke-width="0.5" stroke="red" fill="red"/>
   </g>
   <g id="cell78">
  <circle cx="587.388" cy="287.745" r="10.3865" stroke-width="0.5" stroke="black" fill="red"/>
  <circle cx="587.388" cy="287.745" r="6.27102" stroke-width="0.5" stroke="red" fill="red"/>
   </g>
   <g id="cell79">
  <circle cx="980.171" cy="683.836" r="10.1743" stroke-width="0.5" stroke="black" fill="red"/>
  <circle cx="980.171" cy="683.836" r="6.16117" stroke-width="0.5" stroke="red" fill="red"/>
   </g>
   <g id="cell80">
  <circle cx="730.766" cy="701.459" r="8.6743" stroke-width="0.5" stroke="black" fill="yellow"/>
  <circle cx="730.766" cy="701.459" r="5.24898" stroke-width="0.5" stroke="yellow" fill="yellow"/>
   </g>
   <g id="cell81">
  <circle cx="496.347" cy="961.824" r="10.4862" stroke-width="0.5" stroke="black" fill="yellow"/>
  <circle cx="496.347" cy="961.824" r="6.31853" stroke-width="0.5" stroke="yellow" fill="yellow"/>
   </g>
   <g id="cell82">
  <circle cx="610.936" cy="399.861" r="10.5249" stroke-width="0.5" stroke="black" fill="yellow"/>
  <circle cx="610.936" cy="399.861" r="6.33594" stroke-width="0.5" stroke="yellow" fill="yellow"/>
   </g>
   <g id="cell83">
  <circle cx="598.141" cy="576.644" r="10.4566" stroke-width="0.5" stroke="black" fill="yellow"/>
  <circle cx="598.141" cy="576.644" r="6.30491" stroke-width="0.5" stroke="yellow" fill="yellow"/>
   </g>
   <g id="cell84">
  <circle cx="13.4563" cy="520.796" r="10.2207" stroke-width="0.5" stroke="black" fill="yellow"/>
  <circle cx="13.4563" cy="520.796" r="6.1859" stroke-width="0.5" stroke="yellow" fill="yellow"/>
   </g>
   <g id="cell85">
  <circle cx="778.965" cy="674.664" r="2.72855" stroke-width="0.5" stroke="black" fill="yellow"/>
  <circle cx="778.965" cy="674.664" r="2.53237" stroke-width="0.5" stroke="black" fill="black"/>
   </g>
   <g id="cell86">
  <circle cx="319.79" cy="410.835" r="9.34011" stroke-width="0.5" stroke="black" fill="yellow"/>
  <circle cx="319.79" cy="410.835" r="5.67789" stroke-width="0.5" stroke="yellow" fill="yellow"/>
   </g>
   <g id="cell87">
  <circle cx="782.717" cy="396.363" r="9.53519" stroke-width="0.5" stroke="black" fill="yellow"/>
  <circle cx="782.717" cy="396.363" r="5.79551" stroke-width="0.5" stroke="yellow" fill="yellow"/>
   </g>
   <g id="cell88">
  <circle cx="152.165" cy="105.459" r="1.41334" stroke-width="0.5" stroke="black" fill="yellow"/>
  <circle cx="152.165" cy="105.459" r="1.40804" stroke-width="0.5" stroke="black" fill="black"/>
   </g>
   <g id="cell89">
  <circle cx="55.3597" cy="535.572" r="10.1614" stroke-width="0.5" stroke="black" fill="yellow"/>
  <circle cx="55.3597" cy="535.572" r="6.15434" stroke-width="0.5" stroke="yellow" fill="yellow"/>
   </g>
   <g id="cell193">
  <circle cx="202.477" cy="665.081" r="9.52985" stroke-width="0.5" stroke="black" fill="red"/>
  <circle cx="202.477" cy="665.081" r="5.79375" stroke-width="0.5" stroke="red" fill="red"/>
   </g>
   <g id="cell91">
  <circle cx="13.6746" cy="655.51" r="8.96647" stroke-width="0.5" stroke="black" fill="yellow"/>
  <circle cx="13.6746" cy="655.51" r="5.44174" stroke-width="0.5" stroke="yellow" fill="yellow"/>
   </g>
   <g id="cell92">
  <circle cx="649" cy="290.492" r="10.42" stroke-width="0.5" stroke="black" fill="yellow"/>
  <circle cx="649" cy="290.492" r="6.28743" stroke-width="0.5" stroke="yellow" fill="yellow"/>
   </g>
   <g id="cell93">
  <circle cx="216.684" cy="851.032" r="8.96789" stroke-width="0.5" stroke="black" fill="yellow"/>
  <circle cx="216.684" cy="851.032" r="5.44217" stroke-width="0.5" stroke="yellow" fill="yellow"/>
   </g>
   <g id="cell94">
  <circle cx="392.223" cy="94.0171" r="10.2622" stroke-width="0.5" stroke="black" fill="yellow"/>
  <circle cx="392.223" cy="94.0171" r="6.20768" stroke-width="0.5" stroke="yellow" fill="yellow"/>
   </g>
   <g id="cell95">
  <circle cx="937.05" cy="902.279" r="10.4564" stroke-width="0.5" stroke="black" fill="yellow"/>
  <circle cx="937.05" cy="902.279" r="6.30484" stroke-width="0.5" stroke="yellow" fill="yellow"/>
   </g>
   <g id="cell121">
  <circle cx="27.1012" cy="485.471" r="8.41225" stroke-width="0.5" stroke="black" fill="red"/>
  <circle cx="27.1012" cy="485.471" r="5.05156" stroke-width="0.5" stroke="red" fill="red"/>
   </g>
   <g id="cell122">
  <circle cx="705.839" cy="417.895" r="10.5251" stroke-width="0.5" stroke="black" fill="yellow"/>
  <circle cx="705.839" cy="417.895" r="6.33599" stroke-width="0.5" stroke="yellow" fill="yellow"/>
   </g>
   <g id="cell123">
  <circle cx="272.226" cy="906.386" r="8.80728" stroke-width="0.5" stroke="black" fill="yellow"/>
  <circle cx="272.226" cy="906.386" r="5.33563" stroke-width="0.5" stroke="yellow" fill="yellow"/>
   </g>
   <g id="cell124">
  <circle cx="483.727" cy="635.528" r="10.4255" stroke-width="0.5" stroke="black" fill="grey"/>
  <circle cx="483.727" cy="635.528" r="6.28998" stroke-width="0.5" stroke="grey" fill="grey"/>
   </g>
   <g id="cell125">
  <circle cx="800.163" cy="431.925" r="10.5384" stroke-width="0.5" stroke="black" fill="yellow"/>
  <circle cx="800.163" cy="431.925" r="6.34169" stroke-width="0.5" stroke="yellow" fill="yellow"/>
   </g>
   <g id="cell126">
  <circle cx="942.554" cy="191.383" r="10.4099" stroke-width="0.5" stroke="black" fill="red"/>
  <circle cx="942.554" cy="191.383" r="6.28241" stroke-width="0.5" stroke="red" fill="red"/>
   </g>
   <g id="cell127">
  <circle cx="905.311" cy="564.082" r="10.5311" stroke-width="0.5" stroke="black" fill="red"/>
  <circle cx="905.311" cy="564.082" r="6.33859" stroke-width="0.5" stroke="red" fill="red"/>
   </g>
   <g id="cell128">
  <circle cx="931.819" cy="34.5022" r="10.3611" stroke-width="0.5" stroke="black" fill="red"/>
  <circle cx="931.819" cy="34.5022" r="6.25825" stroke-width="0.5" stroke="red" fill="red"/>
   </g>
   <g id="cell129">
  <circle cx="981.032" cy="676.633" r="4.58643" stroke-width="0.5" stroke="black" fill="grey"/>
  <circle cx="981.032" cy="676.633" r="3.44875" stroke-width="0.5" stroke="black" fill="black"/>
   </g>
   <g id="cell130">
  <circle cx="905.05" cy="604.536" r="8.41212" stroke-width="0.5" stroke="black" fill="yellow"/>
  <circle cx="905.05" cy="604.536" r="5.05153" stroke-width="0.5" stroke="yellow" fill="yellow"/>
   </g>
   <g id="cell132">
  <circle cx="60.478" cy="920.065" r="10.4826" stroke-width="0.5" stroke="black" fill="red"/>
  <circle cx="60.478" cy="920.065" r="6.31694" stroke-width="0.5" stroke="red" fill="red"/>
   </g>
   <g id="cell133">
  <circle cx="644.021" cy="382.89" r="10.1875" stroke-width="0.5" stroke="black" fill="red"/>
  <circle cx="644.021" cy="382.89" r="6.16797" stroke-width="0.5" stroke="red" fill="red"/>
   </g>
   <g id="cell134">
  <circle cx="624.597" cy="436.457" r="1.36385" stroke-width="0.5" stroke="black" fill="grey"/>
  <circle cx="624.597" cy="436.457" r="1.35318" stroke-width="0.5" stroke="black" fill="black"/>
   </g>
   <g id="cell136">
  <circle cx="651.079" cy="462.701" r="10.4254" stroke-width="0.5" stroke="black" fill="red"/>
  <circle cx="651.079" cy="462.701" r="6.28995" stroke-width="0.5" stroke="red" fill="red"/>
   </g>
   <g id="cell137">
  <circle cx="792.876" cy="661.325" r="9.90612" stroke-width="0.5" stroke="black" fill="yellow"/>
  <circle cx="792.876" cy="661.325" r="6.01231" stroke-width="0.5" stroke="yellow" fill="yellow"/>
   </g>
   <g id="cell138">
  <circle cx="733.83" cy="232.556" r="10.5348" stroke-width="0.5" stroke="black" fill="red"/>
  <circle cx="733.83" cy="232.556" r="6.34017" stroke-width="0.5" stroke="red" fill="red"/>
   </g>
   <g id="cell139">
  <circle cx="777.915" cy="751.771" r="8.41206" stroke-width="0.5" stroke="black" fill="yellow"/>
  <circle cx="777.915" cy="751.771" r="5.05151" stroke-width="0.5" stroke="yellow" fill="yellow"/>
   </g>
   <g id="cell140">
  <circle cx="76.6672" cy="343.385" r="10.531" stroke-width="0.5" stroke="black" fill="red"/>
  <circle cx="76.6672" cy="343.385" r="6.33856" stroke-width="0.5" stroke="red" fill="red"/>
   </g>
   <g id="cell141">
  <circle cx="12.9009" cy="976.125" r="10.525" stroke-width="0.5" stroke="black" fill="yellow"/>
  <circle cx="12.9009" cy="976.125" r="6.33596" stroke-width="0.5" stroke="yellow" fill="yellow"/>
   </g>
   <g id="cell142">
  <circle cx="707.597" cy="683.479" r="8.41202" stroke-width="0.5" stroke="black" fill="red"/>
  <circle cx="707.597" cy="683.479" r="5.0515" stroke-width="0.5" stroke="red" fill="red"/>
   </g>
   <g id="cell143">
  <circle cx="115.329" cy="718.745" r="9.67551" stroke-width="0.5" stroke="black" fill="red"/>
  <circle cx="115.329" cy="718.745" r="5.87887" stroke-width="0.5" stroke="red" fill="red"/>
   </g>
   <g id="cell144">
  <circle cx="644.719" cy="148.097" r="10.495" stroke-width="0.5" stroke="black" fill="grey"/>
  <circle cx="644.719" cy="148.097" r="6.32264" stroke-width="0.5" stroke="grey" fill="grey"/>
   </g>
   <g id="cell145">
  <circle cx="534.429" cy="521.967" r="9.23624" stroke-width="0.5" stroke="black" fill="red"/>
  <circle cx="534.429" cy="521.967" r="5.61298" stroke-width="0.5" stroke="red" fill="red"/>
   </g>
   <g id="cell146">
  <circle cx="316.051" cy="192.291" r="10.4791" stroke-width="0.5" stroke="black" fill="red"/>
  <circle cx="316.051" cy="192.291" r="6.31536" stroke-width="0.5" stroke="red" fill="red"/>
   </g>
   <g id="cell147">
  <circle cx="649.607" cy="390.015" r="9.96355" stroke-width="0.5" stroke="black" fill="yellow"/>
  <circle cx="649.607" cy="390.015" r="6.04484" stroke-width="0.5" stroke="yellow" fill="yellow"/>
   </g>
   <g id="cell148">
  <circle cx="197.343" cy="758.843" r="10.527" stroke-width="0.5" stroke="black" fill="grey"/>
  <circle cx="197.343" cy="758.843" r="6.33684" stroke-width="0.5" stroke="grey" fill="grey"/>
   </g>
   <g id="cell149">
  <circle cx="866.165" cy="445.22" r="10.5137" stroke-width="0.5" stroke="black" fill="red"/>
  <circle cx="866.165" cy="445.22" r="6.33101" stroke-width="0.5" stroke="red" fill="red"/>
   </g>
   <g id="cell150">
  <circle cx="166.218" cy="35.6516" r="10.3395" stroke-width="0.5" stroke="black" fill="yellow"/>
  <circle cx="166.218" cy="35.6516" r="6.24739" stroke-width="0.5" stroke="yellow" fill="yellow"/>
   </g>
   <g id="cell151">
  <circle cx="200.345" cy="894.206" r="10.1752" stroke-width="0.5" stroke="black" fill="red"/>
  <circle cx="200.345" cy="894.206" r="6.16144" stroke-width="0.5" stroke="red" fill="red"/>
   </g>
   <g id="cell152">
  <circle cx="593.742" cy="855.452" r="10.5006" stroke-width="0.5" stroke="black" fill="red"/>
  <circle cx="593.742" cy="855.452" r="6.3252" stroke-width="0.5" stroke="red" fill="red"/>
   </g>
   <g id="cell154">
  <circle cx="882.546" cy="26.5744" r="10.3241" stroke-width="0.5" stroke="black" fill="red"/>
  <circle cx="882.546" cy="26.5744" r="6.23956" stroke-width="0.5" stroke="red" fill="red"/>
   </g>
   <g id="cell155">
  <circle cx="645.386" cy="903.338" r="10.4888" stroke-width="0.5" stroke="black" fill="red"/>
  <circle cx="645.386" cy="903.338" r="6.31983" stroke-width="0.5" stroke="red" fill="red"/>
   </g>
   <g id="cell156">
  <circle cx="886.715" cy="511.462" r="4.07999" stroke-width="0.5" stroke="black" fill="grey"/>
  <circle cx="886.715" cy="511.462" r="3.2313" stroke-width="0.5" stroke="black" fill="black"/>
   </g>
   <g id="cell157">
  <circle cx="626.992" cy="637.631" r="10.2992" stroke-width="0.5" stroke="black" fill="yellow"/>
  <circle cx="626.992" cy="637.631" r="6.22682" stroke-width="0.5" stroke="yellow" fill="yellow"/>
   </g>
   <g id="cell158">
  <circle cx="163.19" cy="140.34" r="1.50618" stroke-width="0.5" stroke="black" fill="yellow"/>
  <circle cx="163.19" cy="140.34" r="1.49821" stroke-width="0.5" stroke="black" fill="black"/>
   </g>
   <g id="cell159">
  <circle cx="671.625" cy="301.267" r="10.1626" stroke-width="0.5" stroke="black" fill="yellow"/>
  <circle cx="671.625" cy="301.267" r="6.1547" stroke-width="0.5" stroke="yellow" fill="yellow"/>
   </g>
   <g id="cell160">
  <circle cx="610.33" cy="287.477" r="10.3317" stroke-width="0.5" stroke="black" fill="red"/>
  <circle cx="610.33" cy="287.477" r="6.2435" stroke-width="0.5" stroke="red" fill="red"/>
   </g>
   <g id="cell161">
  <circle cx="39.9117" cy="929.436" r="1.20609" stroke-width="0.5" stroke="black" fill="red"/>
  <circle cx="39.9117" cy="929.436" r="1.20136" stroke-width="0.5" stroke="black" fill="black"/>
   </g>
   <g id="cell162">
  <circle cx="846.115" cy="106.836" r="10.4886" stroke-width="0.5" stroke="black" fill="red"/>
  <circle cx="846.115" cy="106.836" r="6.31979" stroke-width="0.5" stroke="red" fill="red"/>
   </g>
   <g id="cell163">
  <circle cx="428.405" cy="958.97" r="10.4822" stroke-width="0.5" stroke="black" fill="red"/>
  <circle cx="428.405" cy="958.97" r="6.31683" stroke-width="0.5" stroke="red" fill="red"/>
   </g>
   <g id="cell164">
  <circle cx="823.054" cy="957.921" r="9.59298" stroke-width="0.5" stroke="black" fill="red"/>
  <circle cx="823.054" cy="957.921" r="5.83017" stroke-width="0.5" stroke="red" fill="red"/>
   </g>
   <g id="cell165">
  <circle cx="844.759" cy="391.308" r="10.4788" stroke-width="0.5" stroke="black" fill="red"/>
  <circle cx="844.759" cy="391.308" r="6.31527" stroke-width="0.5" stroke="red" fill="red"/>
   </g>
   <g id="cell166">
  <circle cx="792.607" cy="509.832" r="10.4753" stroke-width="0.5" stroke="black" fill="yellow"/>
  <circle cx="792.607" cy="509.832" r="6.31367" stroke-width="0.5" stroke="yellow" fill="yellow"/>
   </g>
   <g id="cell167">
  <circle cx="649.508" cy="142.326" r="10.2424" stroke-width="0.5" stroke="black" fill="yellow"/>
  <circle cx="649.508" cy="142.326" r="6.19724" stroke-width="0.5" stroke="yellow" fill="yellow"/>
   </g>
   <g id="cell168">
  <circle cx="941.419" cy="894.576" r="10.4298" stroke-width="0.5" stroke="black" fill="yellow"/>
  <circle cx="941.419" cy="894.576" r="6.29218" stroke-width="0.5" stroke="yellow" fill="yellow"/>
   </g>
   <g id="cell169">
  <circle cx="344.282" cy="979.313" r="10.3924" stroke-width="0.5" stroke="black" fill="yellow"/>
  <circle cx="344.282" cy="979.313" r="6.27393" stroke-width="0.5" stroke="yellow" fill="yellow"/>
   </g>
   <g id="cell170">
  <circle cx="57.8375" cy="986.785" r="8.41133" stroke-width="0.5" stroke="black" fill="red"/>
  <circle cx="57.8375" cy="986.785" r="5.05132" stroke-width="0.5" stroke="red" fill="red"/>
   </g>
   <g id="cell171">
  <circle cx="534.03" cy="390.265" r="10.4038" stroke-width="0.5" stroke="black" fill="red"/>
  <circle cx="534.03" cy="390.265" r="6.27957" stroke-width="0.5" stroke="red" fill="red"/>
   </g>
   <g id="cell172">
  <circle cx="485.557" cy="786.381" r="10.4147" stroke-width="0.5" stroke="black" fill="red"/>
  <circle cx="485.557" cy="786.381" r="6.28486" stroke-width="0.5" stroke="red" fill="red"/>
   </g>
   <g id="cell173">
  <circle cx="960.661" cy="422.645" r="8.8868" stroke-width="0.5" stroke="black" fill="red"/>
  <circle cx="960.661" cy="422.645" r="5.38921" stroke-width="0.5" stroke="red" fill="red"/>
   </g>
   <g id="cell174">
  <circle cx="361.77" cy="101.477" r="8.48137" stroke-width="0.5" stroke="black" fill="yellow"/>
  <circle cx="361.77" cy="101.477" r="5.10278" stroke-width="0.5" stroke="yellow" fill="yellow"/>
   </g>
   <g id="cell175">
  <circle cx="31.2271" cy="324.304" r="10.4297" stroke-width="0.5" stroke="black" fill="yellow"/>
  <circle cx="31.2271" cy="324.304" r="6.29215" stroke-width="0.5" stroke="yellow" fill="yellow"/>
   </g>
   <g id="cell178">
  <circle cx="64.2412" cy="174.243" r="10.3798" stroke-width="0.5" stroke="black" fill="red"/>
  <circle cx="64.2412" cy="174.243" r="6.26778" stroke-width="0.5" stroke="red" fill="red"/>
   </g>
   <g id="cell179">
  <circle cx="11.2332" cy="489.022" r="9.7977" stroke-width="0.5" stroke="black" fill="yellow"/>
  <circle cx="11.2332" cy="489.022" r="5.95042" stroke-width="0.5" stroke="yellow" fill="yellow"/>
   </g>
   <g id="cell180">
  <circle cx="39.6487" cy="677.427" r="8.41061" stroke-width="0.5" stroke="black" fill="yellow"/>
  <circle cx="39.6487" cy="677.427" r="5.05111" stroke-width="0.5" stroke="yellow" fill="yellow"/>
   </g>
   <g id="cell181">
  <circle cx="989.777" cy="683.614" r="8.41049" stroke-width="0.5" stroke="black" fill="red"/>
  <circle cx="989.777" cy="683.614" r="5.05108" stroke-width="0.5" stroke="red" fill="red"/>
   </g>
   <g id="cell182">
  <circle cx="509.879" cy="956.642" r="8.41043" stroke-width="0.5" stroke="black" fill="yellow"/>
  <circle cx="509.879" cy="956.642" r="5.05106" stroke-width="0.5" stroke="yellow" fill="yellow"/>
   </g>
   <g id="cell183">
  <circle cx="645.391" cy="872.428" r="8.41043" stroke-width="0.5" stroke="black" fill="red"/>
  <circle cx="645.391" cy="872.428" r="5.05106" stroke-width="0.5" stroke="red" fill="red"/>
   </g>
   <g id="cell187">
  <circle cx="315.887" cy="437.58" r="9.56243" stroke-width="0.5" stroke="black" fill="yellow"/>
  <circle cx="315.887" cy="437.58" r="5.81245" stroke-width="0.5" stroke="yellow" fill="yellow"/>
   </g>
   <g id="cell189">
  <circle cx="782.9" cy="385.016" r="10.0927" stroke-width="0.5" stroke="black" fill="yellow"/>
  <circle cx="782.9" cy="385.016" r="6.11716" stroke-width="0.5" stroke="yellow" fill="yellow"/>
   </g>
   <g id="cell194">
  <circle cx="108.659" cy="183.713" r="9.33335" stroke-width="0.5" stroke="black" fill="yellow"/>
  <circle cx="108.659" cy="183.713" r="5.67547" stroke-width="0.5" stroke="yellow" fill="yellow"/>
   </g>
   <g id="cell195">
  <circle cx="391.585" cy="438.243" r="8.56621" stroke-width="0.5" stroke="black" fill="yellow"/>
  <circle cx="391.585" cy="438.243" r="5.17053" stroke-width="0.5" stroke="yellow" fill="yellow"/>
   </g>
   <g id="cell196">
  <circle cx="886.309" cy="285.735" r="8.39794" stroke-width="0.5" stroke="black" fill="yellow"/>
  <circle cx="886.309" cy="285.735" r="5.04681" stroke-width="0.5" stroke="yellow" fill="yellow"/>
   </g>
   <g id="cell197">
  <circle cx="729.985" cy="697.81" r="8.39664" stroke-width="0.5" stroke="black" fill="yellow"/>
  <circle cx="729.985" cy="697.81" r="5.04633" stroke-width="0.5" stroke="yellow" fill="yellow"/>
   </g>
   <g id="cell198">
  <circle cx="69.1366" cy="419.829" r="8.46521" stroke-width="0.5" stroke="black" fill="yellow"/>
  <circle cx="69.1366" cy="419.829" r="5.0972" stroke-width="0.5" stroke="yellow" fill="yellow"/>
   </g>
   <g id="cell199">
  <circle cx="825.67" cy="866.746" r="8.39203" stroke-width="0.5" stroke="black" fill="yellow"/>
  <circle cx="825.67" cy="866.746" r="5.0446" stroke-width="0.5" stroke="yellow" fill="yellow"/>
   </g>
   <g id="cell200">
  <circle cx="969.865" cy="62.9255" r="8.38891" stroke-width="0.5" stroke="black" fill="grey"/>
  <circle cx="969.865" cy="62.9255" r="5.0434" stroke-width="0.5" stroke="grey" fill="grey"/>
   </g>
  </g>
 </g>
  <rect x="775" y="1035" width="200" height="10" stroke-width="2" stroke="rgb(255,255,255)" fill="rgb(0,0,0)"/>
  <text x="781.25" y="1028.75"
   font-family="Arial" font-size="25" fill="black" >
   200 &#956;m
  </text>
  <text x="25" y="1045"
   font-family="Arial" font-size="18.75" fill="black" >
   0 days, 0 hours, 2 minutes, and 13.3895 seconds
  </text>
  <rect x="0" y="70" width="1000" height="1000" stroke-width="2" stroke="rgb(0,0,0)" fill="none"/>
</svg>
