<?xml version="1.0" encoding="UTF-8" standalone="no"?>
<!-- Created with PhysiCell (http://PhysiCell.MathCancer.org/) -->
<svg 
 xmlns:dc="http://purl.org/dc/elements/1.1/" 
 xmlns:cc="http://creativecommons.org/ns#" 
 xmlns:rdf="http://www.w3.org/1999/02/22-rdf-syntax-ns#" 
 xmlns:svg="http://www.w3.org/2000/svg" 
 xmlns="http://www.w3.org/2000/svg" 
 version="1.1" 
 width="1000" 
 height="1070" 
 id="svg2">
  <rect x="0" y="0" width="1000" height="1070" stroke-width="2" stroke="white" fill="white"/>
  <text x="12.5" y="30"
   font-family="Arial" font-size="25" fill="black" >
   Current time: 0 days, 4 hours, and 0.00 minutes, z = 0.00 &#956;m
  </text>
  <text x="12.5" y="57.5"
   font-family="Arial" font-size="23.75" fill="black" >
   120 agents
  </text>
 <g id="tissue" 
    transform="translate(0,1070) scale(1,-1)">
  <g id="ECM">
  </g>
  <g id="cells">
   <g id="cell0">
  <circle cx="528.491" cy="588.505" r="9.67603" stroke-width="0.5" stroke="black" fill="grey"/>
  <circle cx="528.491" cy="588.505" r="5.87901" stroke-width="0.5" stroke="grey" fill="grey"/>
   </g>
   <g id="cell1">
  <circle cx="839.837" cy="610.74" r="2.38423" stroke-width="0.5" stroke="black" fill="grey"/>
  <circle cx="839.837" cy="610.74" r="2.15073" stroke-width="0.5" stroke="black" fill="black"/>
   </g>
   <g id="cell2">
  <circle cx="538.281" cy="832.062" r="9.70201" stroke-width="0.5" stroke="black" fill="grey"/>
  <circle cx="538.281" cy="832.062" r="5.89426" stroke-width="0.5" stroke="grey" fill="grey"/>
   </g>
   <g id="cell3">
  <circle cx="625.708" cy="634.016" r="9.4743" stroke-width="0.5" stroke="black" fill="grey"/>
  <circle cx="625.708" cy="634.016" r="5.75875" stroke-width="0.5" stroke="grey" fill="grey"/>
   </g>
   <g id="cell4">
  <circle cx="421.987" cy="308.901" r="8.41271" stroke-width="0.5" stroke="black" fill="grey"/>
  <circle cx="421.987" cy="308.901" r="5.05167" stroke-width="0.5" stroke="grey" fill="grey"/>
   </g>
   <g id="cell5">
  <circle cx="82.7924" cy="960.005" r="9.59391" stroke-width="0.5" stroke="black" fill="grey"/>
  <circle cx="82.7924" cy="960.005" r="5.83043" stroke-width="0.5" stroke="grey" fill="grey"/>
   </g>
   <g id="cell6">
  <circle cx="406.195" cy="491.727" r="9.7273" stroke-width="0.5" stroke="black" fill="grey"/>
  <circle cx="406.195" cy="491.727" r="5.90906" stroke-width="0.5" stroke="grey" fill="grey"/>
   </g>
   <g id="cell7">
  <circle cx="810.023" cy="541.854" r="8.84788" stroke-width="0.5" stroke="black" fill="grey"/>
  <circle cx="810.023" cy="541.854" r="5.36278" stroke-width="0.5" stroke="grey" fill="grey"/>
   </g>
   <g id="cell8">
  <circle cx="588.279" cy="400.315" r="8.51252" stroke-width="0.5" stroke="black" fill="grey"/>
  <circle cx="588.279" cy="400.315" r="5.12552" stroke-width="0.5" stroke="grey" fill="grey"/>
   </g>
   <g id="cell9">
  <circle cx="847.148" cy="85.0327" r="3.04602" stroke-width="0.5" stroke="black" fill="grey"/>
  <circle cx="847.148" cy="85.0327" r="2.48703" stroke-width="0.5" stroke="black" fill="black"/>
   </g>
   <g id="cell10">
  <circle cx="100.662" cy="645.315" r="9.12489" stroke-width="0.5" stroke="black" fill="grey"/>
  <circle cx="100.662" cy="645.315" r="5.54282" stroke-width="0.5" stroke="grey" fill="grey"/>
   </g>
   <g id="cell11">
  <circle cx="361.107" cy="841.33" r="8.41271" stroke-width="0.5" stroke="black" fill="grey"/>
  <circle cx="361.107" cy="841.33" r="5.05167" stroke-width="0.5" stroke="grey" fill="grey"/>
   </g>
   <g id="cell12">
  <circle cx="783.77" cy="133.405" r="8.41271" stroke-width="0.5" stroke="black" fill="grey"/>
  <circle cx="783.77" cy="133.405" r="5.05167" stroke-width="0.5" stroke="grey" fill="grey"/>
   </g>
   <g id="cell13">
  <circle cx="873.37" cy="960.925" r="8.41271" stroke-width="0.5" stroke="black" fill="grey"/>
  <circle cx="873.37" cy="960.925" r="5.05167" stroke-width="0.5" stroke="grey" fill="grey"/>
   </g>
   <g id="cell14">
  <circle cx="821.14" cy="802.918" r="9.23685" stroke-width="0.5" stroke="black" fill="grey"/>
  <circle cx="821.14" cy="802.918" r="5.61315" stroke-width="0.5" stroke="grey" fill="grey"/>
   </g>
   <g id="cell15">
  <circle cx="517.51" cy="772.621" r="9.04745" stroke-width="0.5" stroke="black" fill="grey"/>
  <circle cx="517.51" cy="772.621" r="5.49345" stroke-width="0.5" stroke="grey" fill="grey"/>
   </g>
   <g id="cell16">
  <circle cx="125.019" cy="734.805" r="9.08642" stroke-width="0.5" stroke="black" fill="grey"/>
  <circle cx="125.019" cy="734.805" r="5.51837" stroke-width="0.5" stroke="grey" fill="grey"/>
   </g>
   <g id="cell17">
  <circle cx="576.613" cy="145.199" r="2.91074" stroke-width="0.5" stroke="black" fill="grey"/>
  <circle cx="576.613" cy="145.199" r="2.42562" stroke-width="0.5" stroke="black" fill="black"/>
   </g>
   <g id="cell18">
  <circle cx="923.316" cy="736.625" r="8.41271" stroke-width="0.5" stroke="black" fill="grey"/>
  <circle cx="923.316" cy="736.625" r="5.05167" stroke-width="0.5" stroke="grey" fill="grey"/>
   </g>
   <g id="cell19">
  <circle cx="98.2081" cy="409.698" r="8.41271" stroke-width="0.5" stroke="black" fill="grey"/>
  <circle cx="98.2081" cy="409.698" r="5.05167" stroke-width="0.5" stroke="grey" fill="grey"/>
   </g>
   <g id="cell20">
  <circle cx="240.301" cy="174.871" r="8.41271" stroke-width="0.5" stroke="black" fill="grey"/>
  <circle cx="240.301" cy="174.871" r="5.05167" stroke-width="0.5" stroke="grey" fill="grey"/>
   </g>
   <g id="cell21">
  <circle cx="731.028" cy="436.171" r="8.41271" stroke-width="0.5" stroke="black" fill="grey"/>
  <circle cx="731.028" cy="436.171" r="5.05167" stroke-width="0.5" stroke="grey" fill="grey"/>
   </g>
   <g id="cell22">
  <circle cx="565.337" cy="126.183" r="2.5701" stroke-width="0.5" stroke="black" fill="grey"/>
  <circle cx="565.337" cy="126.183" r="2.25579" stroke-width="0.5" stroke="black" fill="black"/>
   </g>
   <g id="cell23">
  <circle cx="303.9" cy="607.146" r="5.56544" stroke-width="0.5" stroke="black" fill="grey"/>
  <circle cx="303.9" cy="607.146" r="3.78278" stroke-width="0.5" stroke="black" fill="black"/>
   </g>
   <g id="cell24">
  <circle cx="624.785" cy="237.2" r="9.5651" stroke-width="0.5" stroke="black" fill="grey"/>
  <circle cx="624.785" cy="237.2" r="5.81327" stroke-width="0.5" stroke="grey" fill="grey"/>
   </g>
   <g id="cell25">
  <circle cx="391.444" cy="974.654" r="8.41271" stroke-width="0.5" stroke="black" fill="grey"/>
  <circle cx="391.444" cy="974.654" r="5.05167" stroke-width="0.5" stroke="grey" fill="grey"/>
   </g>
   <g id="cell26">
  <circle cx="654.502" cy="471.742" r="9.44256" stroke-width="0.5" stroke="black" fill="grey"/>
  <circle cx="654.502" cy="471.742" r="5.73955" stroke-width="0.5" stroke="grey" fill="grey"/>
   </g>
   <g id="cell27">
  <circle cx="601.791" cy="449.353" r="2.42814" stroke-width="0.5" stroke="black" fill="grey"/>
  <circle cx="601.791" cy="449.353" r="2.17648" stroke-width="0.5" stroke="black" fill="black"/>
   </g>
   <g id="cell28">
  <circle cx="677.661" cy="117.682" r="9.23685" stroke-width="0.5" stroke="black" fill="grey"/>
  <circle cx="677.661" cy="117.682" r="5.61315" stroke-width="0.5" stroke="grey" fill="grey"/>
   </g>
   <g id="cell29">
  <circle cx="986.776" cy="675.002" r="9.5053" stroke-width="0.5" stroke="black" fill="grey"/>
  <circle cx="986.776" cy="675.002" r="5.77744" stroke-width="0.5" stroke="grey" fill="grey"/>
   </g>
   <g id="cell30">
  <circle cx="688.979" cy="175.161" r="8.41271" stroke-width="0.5" stroke="black" fill="grey"/>
  <circle cx="688.979" cy="175.161" r="5.05167" stroke-width="0.5" stroke="grey" fill="grey"/>
   </g>
   <g id="cell31">
  <circle cx="354.196" cy="107.573" r="8.41271" stroke-width="0.5" stroke="black" fill="grey"/>
  <circle cx="354.196" cy="107.573" r="5.05167" stroke-width="0.5" stroke="grey" fill="grey"/>
   </g>
   <g id="cell32">
  <circle cx="319.499" cy="595.194" r="2.96757" stroke-width="0.5" stroke="black" fill="grey"/>
  <circle cx="319.499" cy="595.194" r="2.47679" stroke-width="0.5" stroke="black" fill="black"/>
   </g>
   <g id="cell33">
  <circle cx="310.636" cy="554.328" r="6.76805" stroke-width="0.5" stroke="black" fill="grey"/>
  <circle cx="310.636" cy="554.328" r="4.34018" stroke-width="0.5" stroke="black" fill="black"/>
   </g>
   <g id="cell34">
  <circle cx="435.362" cy="649.251" r="7.00193" stroke-width="0.5" stroke="black" fill="grey"/>
  <circle cx="435.362" cy="649.251" r="4.27611" stroke-width="0.5" stroke="black" fill="black"/>
   </g>
   <g id="cell35">
  <circle cx="944.671" cy="87.5374" r="8.41271" stroke-width="0.5" stroke="black" fill="grey"/>
  <circle cx="944.671" cy="87.5374" r="5.05167" stroke-width="0.5" stroke="grey" fill="grey"/>
   </g>
   <g id="cell36">
  <circle cx="208.916" cy="622.395" r="3.9178" stroke-width="0.5" stroke="black" fill="grey"/>
  <circle cx="208.916" cy="622.395" r="2.85647" stroke-width="0.5" stroke="black" fill="black"/>
   </g>
   <g id="cell37">
  <circle cx="991.105" cy="649.704" r="3.45715" stroke-width="0.5" stroke="black" fill="grey"/>
  <circle cx="991.105" cy="649.704" r="2.66266" stroke-width="0.5" stroke="black" fill="black"/>
   </g>
   <g id="cell38">
  <circle cx="246.613" cy="419.092" r="9.70201" stroke-width="0.5" stroke="black" fill="grey"/>
  <circle cx="246.613" cy="419.092" r="5.89426" stroke-width="0.5" stroke="grey" fill="grey"/>
   </g>
   <g id="cell39">
  <circle cx="496.525" cy="254.099" r="3.45715" stroke-width="0.5" stroke="black" fill="grey"/>
  <circle cx="496.525" cy="254.099" r="2.66266" stroke-width="0.5" stroke="black" fill="black"/>
   </g>
   <g id="cell40">
  <circle cx="180.842" cy="342.301" r="8.9283" stroke-width="0.5" stroke="black" fill="red"/>
  <circle cx="180.842" cy="342.301" r="5.4161" stroke-width="0.5" stroke="red" fill="red"/>
   </g>
   <g id="cell41">
  <circle cx="669.211" cy="663.412" r="9.2729" stroke-width="0.5" stroke="black" fill="red"/>
  <circle cx="669.211" cy="663.412" r="5.63555" stroke-width="0.5" stroke="red" fill="red"/>
   </g>
   <g id="cell42">
  <circle cx="149.787" cy="752.218" r="9.2729" stroke-width="0.5" stroke="black" fill="red"/>
  <circle cx="149.787" cy="752.218" r="5.63555" stroke-width="0.5" stroke="red" fill="red"/>
   </g>
   <g id="cell43">
  <circle cx="939.065" cy="367.418" r="8.41271" stroke-width="0.5" stroke="black" fill="red"/>
  <circle cx="939.065" cy="367.418" r="5.05167" stroke-width="0.5" stroke="red" fill="red"/>
   </g>
   <g id="cell44">
  <circle cx="824.291" cy="19.0047" r="8.88811" stroke-width="0.5" stroke="black" fill="red"/>
  <circle cx="824.291" cy="19.0047" r="5.38958" stroke-width="0.5" stroke="red" fill="red"/>
   </g>
   <g id="cell45">
  <circle cx="627.071" cy="837.407" r="8.41271" stroke-width="0.5" stroke="black" fill="red"/>
  <circle cx="627.071" cy="837.407" r="5.05167" stroke-width="0.5" stroke="red" fill="red"/>
   </g>
   <g id="cell46">
  <circle cx="81.5489" cy="984.221" r="9.44256" stroke-width="0.5" stroke="black" fill="red"/>
  <circle cx="81.5489" cy="984.221" r="5.73955" stroke-width="0.5" stroke="red" fill="red"/>
   </g>
   <g id="cell47">
  <circle cx="898.869" cy="465.686" r="9.08642" stroke-width="0.5" stroke="black" fill="red"/>
  <circle cx="898.869" cy="465.686" r="5.51837" stroke-width="0.5" stroke="red" fill="red"/>
   </g>
   <g id="cell48">
  <circle cx="948.07" cy="40.763" r="9.5651" stroke-width="0.5" stroke="black" fill="red"/>
  <circle cx="948.07" cy="40.763" r="5.81327" stroke-width="0.5" stroke="red" fill="red"/>
   </g>
   <g id="cell49">
  <circle cx="463.647" cy="742.307" r="8.41271" stroke-width="0.5" stroke="black" fill="red"/>
  <circle cx="463.647" cy="742.307" r="5.05167" stroke-width="0.5" stroke="red" fill="red"/>
   </g>
   <g id="cell50">
  <circle cx="43.342" cy="448.841" r="9.7273" stroke-width="0.5" stroke="black" fill="red"/>
  <circle cx="43.342" cy="448.841" r="5.90906" stroke-width="0.5" stroke="red" fill="red"/>
   </g>
   <g id="cell51">
  <circle cx="955.693" cy="107.228" r="9.59391" stroke-width="0.5" stroke="black" fill="red"/>
  <circle cx="955.693" cy="107.228" r="5.83043" stroke-width="0.5" stroke="red" fill="red"/>
   </g>
   <g id="cell52">
  <circle cx="304.021" cy="498.232" r="8.41271" stroke-width="0.5" stroke="black" fill="red"/>
  <circle cx="304.021" cy="498.232" r="5.05167" stroke-width="0.5" stroke="red" fill="red"/>
   </g>
   <g id="cell53">
  <circle cx="705.376" cy="295.757" r="9.44256" stroke-width="0.5" stroke="black" fill="red"/>
  <circle cx="705.376" cy="295.757" r="5.73955" stroke-width="0.5" stroke="red" fill="red"/>
   </g>
   <g id="cell54">
  <circle cx="427.485" cy="933.502" r="8.51252" stroke-width="0.5" stroke="black" fill="red"/>
  <circle cx="427.485" cy="933.502" r="5.12552" stroke-width="0.5" stroke="red" fill="red"/>
   </g>
   <g id="cell55">
  <circle cx="227.06" cy="691.559" r="8.41271" stroke-width="0.5" stroke="black" fill="red"/>
  <circle cx="227.06" cy="691.559" r="5.05167" stroke-width="0.5" stroke="red" fill="red"/>
   </g>
   <g id="cell56">
  <circle cx="554.756" cy="838.54" r="8.96831" stroke-width="0.5" stroke="black" fill="red"/>
  <circle cx="554.756" cy="838.54" r="5.44228" stroke-width="0.5" stroke="red" fill="red"/>
   </g>
   <g id="cell57">
  <circle cx="495.053" cy="533.932" r="9.20015" stroke-width="0.5" stroke="black" fill="red"/>
  <circle cx="495.053" cy="533.932" r="5.59022" stroke-width="0.5" stroke="red" fill="red"/>
   </g>
   <g id="cell58">
  <circle cx="89.8771" cy="928.585" r="8.54454" stroke-width="0.5" stroke="black" fill="red"/>
  <circle cx="89.8771" cy="928.585" r="5.14947" stroke-width="0.5" stroke="red" fill="red"/>
   </g>
   <g id="cell59">
  <circle cx="85.7512" cy="934.911" r="8.41271" stroke-width="0.5" stroke="black" fill="red"/>
  <circle cx="85.7512" cy="934.911" r="5.05167" stroke-width="0.5" stroke="red" fill="red"/>
   </g>
   <g id="cell60">
  <circle cx="317.854" cy="29.1691" r="8.41271" stroke-width="0.5" stroke="black" fill="red"/>
  <circle cx="317.854" cy="29.1691" r="5.05167" stroke-width="0.5" stroke="red" fill="red"/>
   </g>
   <g id="cell61">
  <circle cx="833.996" cy="147.172" r="8.54454" stroke-width="0.5" stroke="black" fill="red"/>
  <circle cx="833.996" cy="147.172" r="5.14947" stroke-width="0.5" stroke="red" fill="red"/>
   </g>
   <g id="cell62">
  <circle cx="710.992" cy="832.148" r="8.41271" stroke-width="0.5" stroke="black" fill="red"/>
  <circle cx="710.992" cy="832.148" r="5.05167" stroke-width="0.5" stroke="red" fill="red"/>
   </g>
   <g id="cell63">
  <circle cx="283.554" cy="183.563" r="9.12489" stroke-width="0.5" stroke="black" fill="red"/>
  <circle cx="283.554" cy="183.563" r="5.54282" stroke-width="0.5" stroke="red" fill="red"/>
   </g>
   <g id="cell64">
  <circle cx="579.689" cy="534.478" r="8.41271" stroke-width="0.5" stroke="black" fill="red"/>
  <circle cx="579.689" cy="534.478" r="5.05167" stroke-width="0.5" stroke="red" fill="red"/>
   </g>
   <g id="cell65">
  <circle cx="172.675" cy="840.794" r="8.41271" stroke-width="0.5" stroke="black" fill="red"/>
  <circle cx="172.675" cy="840.794" r="5.05167" stroke-width="0.5" stroke="red" fill="red"/>
   </g>
   <g id="cell66">
  <circle cx="20.5361" cy="156.501" r="8.41271" stroke-width="0.5" stroke="black" fill="red"/>
  <circle cx="20.5361" cy="156.501" r="5.05167" stroke-width="0.5" stroke="red" fill="red"/>
   </g>
   <g id="cell67">
  <circle cx="530.951" cy="283.386" r="8.41271" stroke-width="0.5" stroke="black" fill="red"/>
  <circle cx="530.951" cy="283.386" r="5.05167" stroke-width="0.5" stroke="red" fill="red"/>
   </g>
   <g id="cell68">
  <circle cx="749.853" cy="289.564" r="9.34292" stroke-width="0.5" stroke="black" fill="red"/>
  <circle cx="749.853" cy="289.564" r="5.67875" stroke-width="0.5" stroke="red" fill="red"/>
   </g>
   <g id="cell69">
  <circle cx="430.006" cy="276.067" r="8.41271" stroke-width="0.5" stroke="black" fill="red"/>
  <circle cx="430.006" cy="276.067" r="5.05167" stroke-width="0.5" stroke="red" fill="red"/>
   </g>
   <g id="cell70">
  <circle cx="546.175" cy="397.192" r="8.41271" stroke-width="0.5" stroke="black" fill="red"/>
  <circle cx="546.175" cy="397.192" r="5.05167" stroke-width="0.5" stroke="red" fill="red"/>
   </g>
   <g id="cell71">
  <circle cx="881.832" cy="568.948" r="9.5651" stroke-width="0.5" stroke="black" fill="red"/>
  <circle cx="881.832" cy="568.948" r="5.81327" stroke-width="0.5" stroke="red" fill="red"/>
   </g>
   <g id="cell72">
  <circle cx="225.343" cy="873.493" r="9.00806" stroke-width="0.5" stroke="black" fill="red"/>
  <circle cx="225.343" cy="873.493" r="5.46807" stroke-width="0.5" stroke="red" fill="red"/>
   </g>
   <g id="cell73">
  <circle cx="675.12" cy="469.635" r="9.37686" stroke-width="0.5" stroke="black" fill="red"/>
  <circle cx="675.12" cy="469.635" r="5.69955" stroke-width="0.5" stroke="red" fill="red"/>
   </g>
   <g id="cell74">
  <circle cx="838.119" cy="989.285" r="8.51252" stroke-width="0.5" stroke="black" fill="red"/>
  <circle cx="838.119" cy="989.285" r="5.12552" stroke-width="0.5" stroke="red" fill="red"/>
   </g>
   <g id="cell75">
  <circle cx="84.9729" cy="310.209" r="9.30826" stroke-width="0.5" stroke="black" fill="red"/>
  <circle cx="84.9729" cy="310.209" r="5.65742" stroke-width="0.5" stroke="red" fill="red"/>
   </g>
   <g id="cell76">
  <circle cx="807.293" cy="396.978" r="8.45606" stroke-width="0.5" stroke="black" fill="red"/>
  <circle cx="807.293" cy="396.978" r="5.08296" stroke-width="0.5" stroke="red" fill="red"/>
   </g>
   <g id="cell77">
  <circle cx="639.931" cy="857.067" r="8.84788" stroke-width="0.5" stroke="black" fill="red"/>
  <circle cx="639.931" cy="857.067" r="5.36278" stroke-width="0.5" stroke="red" fill="red"/>
   </g>
   <g id="cell78">
  <circle cx="576.598" cy="310.048" r="8.61424" stroke-width="0.5" stroke="black" fill="red"/>
  <circle cx="576.598" cy="310.048" r="5.20061" stroke-width="0.5" stroke="red" fill="red"/>
   </g>
   <g id="cell79">
  <circle cx="971.158" cy="695.886" r="8.41271" stroke-width="0.5" stroke="black" fill="red"/>
  <circle cx="971.158" cy="695.886" r="5.05167" stroke-width="0.5" stroke="red" fill="red"/>
   </g>
   <g id="cell80">
  <circle cx="745.961" cy="683.824" r="8.41271" stroke-width="0.5" stroke="black" fill="yellow"/>
  <circle cx="745.961" cy="683.824" r="5.05167" stroke-width="0.5" stroke="yellow" fill="yellow"/>
   </g>
   <g id="cell81">
  <circle cx="511.192" cy="973.648" r="8.41271" stroke-width="0.5" stroke="black" fill="yellow"/>
  <circle cx="511.192" cy="973.648" r="5.05167" stroke-width="0.5" stroke="yellow" fill="yellow"/>
   </g>
   <g id="cell82">
  <circle cx="668.981" cy="412.893" r="9.08642" stroke-width="0.5" stroke="black" fill="yellow"/>
  <circle cx="668.981" cy="412.893" r="5.51837" stroke-width="0.5" stroke="yellow" fill="yellow"/>
   </g>
   <g id="cell83">
  <circle cx="614.356" cy="579.821" r="8.80772" stroke-width="0.5" stroke="black" fill="yellow"/>
  <circle cx="614.356" cy="579.821" r="5.33574" stroke-width="0.5" stroke="yellow" fill="yellow"/>
   </g>
   <g id="cell84">
  <circle cx="10.9373" cy="451.099" r="8.41271" stroke-width="0.5" stroke="black" fill="yellow"/>
  <circle cx="10.9373" cy="451.099" r="5.05167" stroke-width="0.5" stroke="yellow" fill="yellow"/>
   </g>
   <g id="cell85">
  <circle cx="713.56" cy="686.867" r="9.37686" stroke-width="0.5" stroke="black" fill="yellow"/>
  <circle cx="713.56" cy="686.867" r="5.69955" stroke-width="0.5" stroke="yellow" fill="yellow"/>
   </g>
   <g id="cell86">
  <circle cx="276.953" cy="407.56" r="8.41271" stroke-width="0.5" stroke="black" fill="yellow"/>
  <circle cx="276.953" cy="407.56" r="5.05167" stroke-width="0.5" stroke="yellow" fill="yellow"/>
   </g>
   <g id="cell87">
  <circle cx="767.317" cy="443.988" r="9.67603" stroke-width="0.5" stroke="black" fill="yellow"/>
  <circle cx="767.317" cy="443.988" r="5.87901" stroke-width="0.5" stroke="yellow" fill="yellow"/>
   </g>
   <g id="cell88">
  <circle cx="138.067" cy="89.8121" r="8.68937" stroke-width="0.5" stroke="black" fill="yellow"/>
  <circle cx="138.067" cy="89.8121" r="5.25417" stroke-width="0.5" stroke="yellow" fill="yellow"/>
   </g>
   <g id="cell89">
  <circle cx="69.308" cy="563.447" r="8.41271" stroke-width="0.5" stroke="black" fill="yellow"/>
  <circle cx="69.308" cy="563.447" r="5.05167" stroke-width="0.5" stroke="yellow" fill="yellow"/>
   </g>
   <g id="cell90">
  <circle cx="576.381" cy="549.137" r="2.38423" stroke-width="0.5" stroke="black" fill="yellow"/>
  <circle cx="576.381" cy="549.137" r="2.15073" stroke-width="0.5" stroke="black" fill="black"/>
   </g>
   <g id="cell91">
  <circle cx="44.5841" cy="640.982" r="8.41271" stroke-width="0.5" stroke="black" fill="yellow"/>
  <circle cx="44.5841" cy="640.982" r="5.05167" stroke-width="0.5" stroke="yellow" fill="yellow"/>
   </g>
   <g id="cell92">
  <circle cx="668.167" cy="291.159" r="8.61424" stroke-width="0.5" stroke="black" fill="yellow"/>
  <circle cx="668.167" cy="291.159" r="5.20061" stroke-width="0.5" stroke="yellow" fill="yellow"/>
   </g>
   <g id="cell93">
  <circle cx="202.381" cy="895.053" r="9.67603" stroke-width="0.5" stroke="black" fill="yellow"/>
  <circle cx="202.381" cy="895.053" r="5.87901" stroke-width="0.5" stroke="yellow" fill="yellow"/>
   </g>
   <g id="cell94">
  <circle cx="368.165" cy="70.795" r="8.41271" stroke-width="0.5" stroke="black" fill="yellow"/>
  <circle cx="368.165" cy="70.795" r="5.05167" stroke-width="0.5" stroke="yellow" fill="yellow"/>
   </g>
   <g id="cell95">
  <circle cx="975.747" cy="885.781" r="8.41271" stroke-width="0.5" stroke="black" fill="yellow"/>
  <circle cx="975.747" cy="885.781" r="5.05167" stroke-width="0.5" stroke="yellow" fill="yellow"/>
   </g>
   <g id="cell96">
  <circle cx="794.422" cy="521.539" r="8.4325" stroke-width="0.5" stroke="black" fill="yellow"/>
  <circle cx="794.422" cy="521.539" r="5.06552" stroke-width="0.5" stroke="yellow" fill="yellow"/>
   </g>
   <g id="cell97">
  <circle cx="453.677" cy="112.676" r="8.41271" stroke-width="0.5" stroke="black" fill="yellow"/>
  <circle cx="453.677" cy="112.676" r="5.05167" stroke-width="0.5" stroke="yellow" fill="yellow"/>
   </g>
   <g id="cell98">
  <circle cx="927.743" cy="336.33" r="8.41271" stroke-width="0.5" stroke="black" fill="yellow"/>
  <circle cx="927.743" cy="336.33" r="5.05167" stroke-width="0.5" stroke="yellow" fill="yellow"/>
   </g>
   <g id="cell99">
  <circle cx="500.151" cy="980.822" r="8.41271" stroke-width="0.5" stroke="black" fill="yellow"/>
  <circle cx="500.151" cy="980.822" r="5.05167" stroke-width="0.5" stroke="yellow" fill="yellow"/>
   </g>
   <g id="cell100">
  <circle cx="141.855" cy="861.412" r="9.41008" stroke-width="0.5" stroke="black" fill="yellow"/>
  <circle cx="141.855" cy="861.412" r="5.71981" stroke-width="0.5" stroke="yellow" fill="yellow"/>
   </g>
   <g id="cell101">
  <circle cx="52.188" cy="143.921" r="8.41271" stroke-width="0.5" stroke="black" fill="yellow"/>
  <circle cx="52.188" cy="143.921" r="5.05167" stroke-width="0.5" stroke="yellow" fill="yellow"/>
   </g>
   <g id="cell102">
  <circle cx="630.487" cy="156.475" r="8.4325" stroke-width="0.5" stroke="black" fill="yellow"/>
  <circle cx="630.487" cy="156.475" r="5.06552" stroke-width="0.5" stroke="yellow" fill="yellow"/>
   </g>
   <g id="cell103">
  <circle cx="798.083" cy="873.753" r="8.41271" stroke-width="0.5" stroke="black" fill="yellow"/>
  <circle cx="798.083" cy="873.753" r="5.05167" stroke-width="0.5" stroke="yellow" fill="yellow"/>
   </g>
   <g id="cell104">
  <circle cx="820.668" cy="438.612" r="9.62199" stroke-width="0.5" stroke="black" fill="yellow"/>
  <circle cx="820.668" cy="438.612" r="5.8471" stroke-width="0.5" stroke="yellow" fill="yellow"/>
   </g>
   <g id="cell105">
  <circle cx="144.372" cy="402.99" r="8.41271" stroke-width="0.5" stroke="black" fill="yellow"/>
  <circle cx="144.372" cy="402.99" r="5.05167" stroke-width="0.5" stroke="yellow" fill="yellow"/>
   </g>
   <g id="cell106">
  <circle cx="37.9554" cy="965.59" r="9.30826" stroke-width="0.5" stroke="black" fill="yellow"/>
  <circle cx="37.9554" cy="965.59" r="5.65742" stroke-width="0.5" stroke="yellow" fill="yellow"/>
   </g>
   <g id="cell107">
  <circle cx="386.57" cy="450.879" r="8.41271" stroke-width="0.5" stroke="black" fill="yellow"/>
  <circle cx="386.57" cy="450.879" r="5.05167" stroke-width="0.5" stroke="yellow" fill="yellow"/>
   </g>
   <g id="cell108">
  <circle cx="710.738" cy="59.933" r="9.64936" stroke-width="0.5" stroke="black" fill="yellow"/>
  <circle cx="710.738" cy="59.933" r="5.86329" stroke-width="0.5" stroke="yellow" fill="yellow"/>
   </g>
   <g id="cell109">
  <circle cx="376.987" cy="963.256" r="8.41271" stroke-width="0.5" stroke="black" fill="yellow"/>
  <circle cx="376.987" cy="963.256" r="5.05167" stroke-width="0.5" stroke="yellow" fill="yellow"/>
   </g>
   <g id="cell110">
  <circle cx="846.158" cy="236.845" r="8.41271" stroke-width="0.5" stroke="black" fill="yellow"/>
  <circle cx="846.158" cy="236.845" r="5.05167" stroke-width="0.5" stroke="yellow" fill="yellow"/>
   </g>
   <g id="cell111">
  <circle cx="777.312" cy="359.206" r="8.41271" stroke-width="0.5" stroke="black" fill="yellow"/>
  <circle cx="777.312" cy="359.206" r="5.05167" stroke-width="0.5" stroke="yellow" fill="yellow"/>
   </g>
   <g id="cell112">
  <circle cx="730.819" cy="762.237" r="9.34292" stroke-width="0.5" stroke="black" fill="yellow"/>
  <circle cx="730.819" cy="762.237" r="5.67875" stroke-width="0.5" stroke="yellow" fill="yellow"/>
   </g>
   <g id="cell113">
  <circle cx="347.194" cy="522.062" r="2.64518" stroke-width="0.5" stroke="black" fill="yellow"/>
  <circle cx="347.194" cy="522.062" r="2.32557" stroke-width="0.5" stroke="black" fill="black"/>
   </g>
   <g id="cell114">
  <circle cx="57.6675" cy="346.008" r="8.41271" stroke-width="0.5" stroke="black" fill="yellow"/>
  <circle cx="57.6675" cy="346.008" r="5.05167" stroke-width="0.5" stroke="yellow" fill="yellow"/>
   </g>
   <g id="cell115">
  <circle cx="194.143" cy="26.9467" r="9.04745" stroke-width="0.5" stroke="black" fill="yellow"/>
  <circle cx="194.143" cy="26.9467" r="5.49345" stroke-width="0.5" stroke="yellow" fill="yellow"/>
   </g>
   <g id="cell116">
  <circle cx="792.397" cy="482.915" r="8.41271" stroke-width="0.5" stroke="black" fill="yellow"/>
  <circle cx="792.397" cy="482.915" r="5.05167" stroke-width="0.5" stroke="yellow" fill="yellow"/>
   </g>
   <g id="cell117">
  <circle cx="883.949" cy="360.773" r="8.41271" stroke-width="0.5" stroke="black" fill="yellow"/>
  <circle cx="883.949" cy="360.773" r="5.05167" stroke-width="0.5" stroke="yellow" fill="yellow"/>
   </g>
   <g id="cell118">
  <circle cx="922.122" cy="615.846" r="9.4743" stroke-width="0.5" stroke="black" fill="yellow"/>
  <circle cx="922.122" cy="615.846" r="5.75875" stroke-width="0.5" stroke="yellow" fill="yellow"/>
   </g>
   <g id="cell119">
  <circle cx="593.915" cy="29.0487" r="8.41271" stroke-width="0.5" stroke="black" fill="yellow"/>
  <circle cx="593.915" cy="29.0487" r="5.05167" stroke-width="0.5" stroke="yellow" fill="yellow"/>
   </g>
  </g>
 </g>
  <rect x="775" y="1035" width="200" height="10" stroke-width="2" stroke="rgb(255,255,255)" fill="rgb(0,0,0)"/>
  <text x="781.25" y="1028.75"
   font-family="Arial" font-size="25" fill="black" >
   200 &#956;m
  </text>
  <text x="25" y="1045"
   font-family="Arial" font-size="18.75" fill="black" >
   0 days, 0 hours, 0 minutes, and 14.2979 seconds
  </text>
  <rect x="0" y="70" width="1000" height="1000" stroke-width="2" stroke="rgb(0,0,0)" fill="none"/>
</svg>
