<?xml version="1.0" encoding="UTF-8" standalone="no"?>
<!-- Created with PhysiCell (http://PhysiCell.MathCancer.org/) -->
<svg 
 xmlns:dc="http://purl.org/dc/elements/1.1/" 
 xmlns:cc="http://creativecommons.org/ns#" 
 xmlns:rdf="http://www.w3.org/1999/02/22-rdf-syntax-ns#" 
 xmlns:svg="http://www.w3.org/2000/svg" 
 xmlns="http://www.w3.org/2000/svg" 
 version="1.1" 
 width="1000" 
 height="1070" 
 id="svg2">
  <rect x="0" y="0" width="1000" height="1070" stroke-width="2" stroke="white" fill="white"/>
  <text x="12.5" y="30"
   font-family="Arial" font-size="25" fill="black" >
   Current time: 1 days, 12 hours, and 0.00 minutes, z = 0.00 &#956;m
  </text>
  <text x="12.5" y="57.5"
   font-family="Arial" font-size="23.75" fill="black" >
   211 agents
  </text>
 <g id="tissue" 
    transform="translate(0,1070) scale(1,-1)">
  <g id="ECM">
  </g>
  <g id="cells">
   <g id="cell0">
  <circle cx="472.433" cy="611.986" r="8.40511" stroke-width="0.5" stroke="black" fill="grey"/>
  <circle cx="472.433" cy="611.986" r="5.04936" stroke-width="0.5" stroke="grey" fill="grey"/>
   </g>
   <g id="cell118">
  <circle cx="851.672" cy="582.391" r="10.0653" stroke-width="0.5" stroke="black" fill="yellow"/>
  <circle cx="851.672" cy="582.391" r="6.10143" stroke-width="0.5" stroke="yellow" fill="yellow"/>
   </g>
   <g id="cell100">
  <circle cx="120.89" cy="804.472" r="8.40444" stroke-width="0.5" stroke="black" fill="yellow"/>
  <circle cx="120.89" cy="804.472" r="5.04913" stroke-width="0.5" stroke="yellow" fill="yellow"/>
   </g>
   <g id="cell3">
  <circle cx="665.993" cy="653.536" r="8.40238" stroke-width="0.5" stroke="black" fill="grey"/>
  <circle cx="665.993" cy="653.536" r="5.04842" stroke-width="0.5" stroke="grey" fill="grey"/>
   </g>
   <g id="cell103">
  <circle cx="838.755" cy="861.747" r="9.97949" stroke-width="0.5" stroke="black" fill="yellow"/>
  <circle cx="838.755" cy="861.747" r="6.05435" stroke-width="0.5" stroke="yellow" fill="yellow"/>
   </g>
   <g id="cell135">
  <circle cx="130.883" cy="809.544" r="8.39015" stroke-width="0.5" stroke="black" fill="yellow"/>
  <circle cx="130.883" cy="809.544" r="5.04389" stroke-width="0.5" stroke="yellow" fill="yellow"/>
   </g>
   <g id="cell185">
  <circle cx="825.484" cy="384.771" r="10.5138" stroke-width="0.5" stroke="black" fill="yellow"/>
  <circle cx="825.484" cy="384.771" r="6.33105" stroke-width="0.5" stroke="yellow" fill="yellow"/>
   </g>
   <g id="cell7">
  <circle cx="829.668" cy="464.543" r="8.39865" stroke-width="0.5" stroke="black" fill="grey"/>
  <circle cx="829.668" cy="464.543" r="5.04709" stroke-width="0.5" stroke="grey" fill="grey"/>
   </g>
   <g id="cell192">
  <circle cx="822.742" cy="412.286" r="10.3608" stroke-width="0.5" stroke="black" fill="yellow"/>
  <circle cx="822.742" cy="412.286" r="6.25818" stroke-width="0.5" stroke="yellow" fill="yellow"/>
   </g>
   <g id="cell231">
  <circle cx="457.453" cy="968.109" r="8.39618" stroke-width="0.5" stroke="black" fill="yellow"/>
  <circle cx="457.453" cy="968.109" r="5.04616" stroke-width="0.5" stroke="yellow" fill="yellow"/>
   </g>
   <g id="cell176">
  <circle cx="260.793" cy="48.5" r="10.501" stroke-width="0.5" stroke="black" fill="red"/>
  <circle cx="260.793" cy="48.5" r="6.32529" stroke-width="0.5" stroke="red" fill="red"/>
   </g>
   <g id="cell186">
  <circle cx="82.4969" cy="552.733" r="9.2364" stroke-width="0.5" stroke="black" fill="yellow"/>
  <circle cx="82.4969" cy="552.733" r="5.61303" stroke-width="0.5" stroke="yellow" fill="yellow"/>
   </g>
   <g id="cell104">
  <circle cx="782.412" cy="415.005" r="8.40268" stroke-width="0.5" stroke="black" fill="yellow"/>
  <circle cx="782.412" cy="415.005" r="5.04852" stroke-width="0.5" stroke="yellow" fill="yellow"/>
   </g>
   <g id="cell102">
  <circle cx="677.21" cy="156.03" r="10.5522" stroke-width="0.5" stroke="black" fill="yellow"/>
  <circle cx="677.21" cy="156.03" r="6.34742" stroke-width="0.5" stroke="yellow" fill="yellow"/>
   </g>
   <g id="cell98">
  <circle cx="874.245" cy="366.732" r="10.5292" stroke-width="0.5" stroke="black" fill="yellow"/>
  <circle cx="874.245" cy="366.732" r="6.33775" stroke-width="0.5" stroke="yellow" fill="yellow"/>
   </g>
   <g id="cell97">
  <circle cx="416.722" cy="98.1095" r="10.5137" stroke-width="0.5" stroke="black" fill="yellow"/>
  <circle cx="416.722" cy="98.1095" r="6.33102" stroke-width="0.5" stroke="yellow" fill="yellow"/>
   </g>
   <g id="cell237">
  <circle cx="645.294" cy="607.445" r="8.39468" stroke-width="0.5" stroke="black" fill="grey"/>
  <circle cx="645.294" cy="607.445" r="5.04561" stroke-width="0.5" stroke="grey" fill="grey"/>
   </g>
   <g id="cell116">
  <circle cx="793.779" cy="461.045" r="10.3985" stroke-width="0.5" stroke="black" fill="yellow"/>
  <circle cx="793.779" cy="461.045" r="6.27688" stroke-width="0.5" stroke="yellow" fill="yellow"/>
   </g>
   <g id="cell177">
  <circle cx="445.452" cy="316.115" r="10.2726" stroke-width="0.5" stroke="black" fill="red"/>
  <circle cx="445.452" cy="316.115" r="6.2129" stroke-width="0.5" stroke="red" fill="red"/>
   </g>
   <g id="cell101">
  <circle cx="152.373" cy="146.532" r="8.88613" stroke-width="0.5" stroke="black" fill="yellow"/>
  <circle cx="152.373" cy="146.532" r="5.389" stroke-width="0.5" stroke="yellow" fill="yellow"/>
   </g>
   <g id="cell184">
  <circle cx="511.393" cy="319.981" r="10.5594" stroke-width="0.5" stroke="black" fill="red"/>
  <circle cx="511.393" cy="319.981" r="6.35036" stroke-width="0.5" stroke="red" fill="red"/>
   </g>
   <g id="cell99">
  <circle cx="518.618" cy="977.423" r="10.5479" stroke-width="0.5" stroke="black" fill="yellow"/>
  <circle cx="518.618" cy="977.423" r="6.34567" stroke-width="0.5" stroke="yellow" fill="yellow"/>
   </g>
   <g id="cell115">
  <circle cx="249.782" cy="57.1226" r="8.38949" stroke-width="0.5" stroke="black" fill="yellow"/>
  <circle cx="249.782" cy="57.1226" r="5.04363" stroke-width="0.5" stroke="yellow" fill="yellow"/>
   </g>
   <g id="cell191">
  <circle cx="742.656" cy="121.456" r="10.495" stroke-width="0.5" stroke="black" fill="grey"/>
  <circle cx="742.656" cy="121.456" r="6.32262" stroke-width="0.5" stroke="grey" fill="grey"/>
   </g>
   <g id="cell153">
  <circle cx="196.272" cy="376.444" r="8.39743" stroke-width="0.5" stroke="black" fill="red"/>
  <circle cx="196.272" cy="376.444" r="5.04664" stroke-width="0.5" stroke="red" fill="red"/>
   </g>
   <g id="cell105">
  <circle cx="76.5629" cy="390.873" r="10.2511" stroke-width="0.5" stroke="black" fill="yellow"/>
  <circle cx="76.5629" cy="390.873" r="6.20215" stroke-width="0.5" stroke="yellow" fill="yellow"/>
   </g>
   <g id="cell211">
  <circle cx="662.031" cy="651.823" r="9.15411" stroke-width="0.5" stroke="black" fill="grey"/>
  <circle cx="662.031" cy="651.823" r="5.56383" stroke-width="0.5" stroke="grey" fill="grey"/>
   </g>
   <g id="cell117">
  <circle cx="853.49" cy="366.429" r="8.41202" stroke-width="0.5" stroke="black" fill="yellow"/>
  <circle cx="853.49" cy="366.429" r="5.0515" stroke-width="0.5" stroke="yellow" fill="yellow"/>
   </g>
   <g id="cell28">
  <circle cx="701.764" cy="115.469" r="9.30815" stroke-width="0.5" stroke="black" fill="grey"/>
  <circle cx="701.764" cy="115.469" r="5.65739" stroke-width="0.5" stroke="grey" fill="grey"/>
   </g>
   <g id="cell29">
  <circle cx="980.633" cy="650.273" r="10.5548" stroke-width="0.5" stroke="black" fill="grey"/>
  <circle cx="980.633" cy="650.273" r="6.34849" stroke-width="0.5" stroke="grey" fill="grey"/>
   </g>
   <g id="cell30">
  <circle cx="755.356" cy="139.481" r="10.2627" stroke-width="0.5" stroke="black" fill="grey"/>
  <circle cx="755.356" cy="139.481" r="6.20783" stroke-width="0.5" stroke="grey" fill="grey"/>
   </g>
   <g id="cell190">
  <circle cx="445.102" cy="138.176" r="8.41196" stroke-width="0.5" stroke="black" fill="yellow"/>
  <circle cx="445.102" cy="138.176" r="5.05149" stroke-width="0.5" stroke="yellow" fill="yellow"/>
   </g>
   <g id="cell114">
  <circle cx="64.6701" cy="369.163" r="10.545" stroke-width="0.5" stroke="black" fill="yellow"/>
  <circle cx="64.6701" cy="369.163" r="6.34445" stroke-width="0.5" stroke="yellow" fill="yellow"/>
   </g>
   <g id="cell107">
  <circle cx="393.688" cy="495.901" r="9.53369" stroke-width="0.5" stroke="black" fill="yellow"/>
  <circle cx="393.688" cy="495.901" r="5.79505" stroke-width="0.5" stroke="yellow" fill="yellow"/>
   </g>
   <g id="cell106">
  <circle cx="34.712" cy="913.499" r="9.03747" stroke-width="0.5" stroke="black" fill="yellow"/>
  <circle cx="34.712" cy="913.499" r="5.49004" stroke-width="0.5" stroke="yellow" fill="yellow"/>
   </g>
   <g id="cell35">
  <circle cx="929.766" cy="51.6503" r="10.0775" stroke-width="0.5" stroke="black" fill="grey"/>
  <circle cx="929.766" cy="51.6503" r="6.10892" stroke-width="0.5" stroke="grey" fill="grey"/>
   </g>
   <g id="cell109">
  <circle cx="402.366" cy="983.738" r="10.4571" stroke-width="0.5" stroke="black" fill="yellow"/>
  <circle cx="402.366" cy="983.738" r="6.30503" stroke-width="0.5" stroke="yellow" fill="yellow"/>
   </g>
   <g id="cell111">
  <circle cx="799.692" cy="416.853" r="8.41196" stroke-width="0.5" stroke="black" fill="yellow"/>
  <circle cx="799.692" cy="416.853" r="5.05149" stroke-width="0.5" stroke="yellow" fill="yellow"/>
   </g>
   <g id="cell131">
  <circle cx="650.045" cy="587.059" r="8.83158" stroke-width="0.5" stroke="black" fill="grey"/>
  <circle cx="650.045" cy="587.059" r="5.35701" stroke-width="0.5" stroke="grey" fill="grey"/>
   </g>
   <g id="cell110">
  <circle cx="896.563" cy="241.525" r="9.90458" stroke-width="0.5" stroke="black" fill="yellow"/>
  <circle cx="896.563" cy="241.525" r="6.01185" stroke-width="0.5" stroke="yellow" fill="yellow"/>
   </g>
   <g id="cell40">
  <circle cx="167.761" cy="410.338" r="8.39361" stroke-width="0.5" stroke="black" fill="red"/>
  <circle cx="167.761" cy="410.338" r="5.04521" stroke-width="0.5" stroke="red" fill="red"/>
   </g>
   <g id="cell41">
  <circle cx="683.438" cy="717.602" r="8.39657" stroke-width="0.5" stroke="black" fill="red"/>
  <circle cx="683.438" cy="717.602" r="5.04632" stroke-width="0.5" stroke="red" fill="red"/>
   </g>
   <g id="cell42">
  <circle cx="141.622" cy="725.452" r="10.5617" stroke-width="0.5" stroke="black" fill="red"/>
  <circle cx="141.622" cy="725.452" r="6.35128" stroke-width="0.5" stroke="red" fill="red"/>
   </g>
   <g id="cell43">
  <circle cx="879.426" cy="378.291" r="10.5616" stroke-width="0.5" stroke="black" fill="red"/>
  <circle cx="879.426" cy="378.291" r="6.35126" stroke-width="0.5" stroke="red" fill="red"/>
   </g>
   <g id="cell44">
  <circle cx="838.233" cy="41.453" r="10.5637" stroke-width="0.5" stroke="black" fill="red"/>
  <circle cx="838.233" cy="41.453" r="6.35209" stroke-width="0.5" stroke="red" fill="red"/>
   </g>
   <g id="cell45">
  <circle cx="703.875" cy="826.393" r="10.4045" stroke-width="0.5" stroke="black" fill="red"/>
  <circle cx="703.875" cy="826.393" r="6.27974" stroke-width="0.5" stroke="red" fill="red"/>
   </g>
   <g id="cell46">
  <circle cx="85.91" cy="906.682" r="10.3545" stroke-width="0.5" stroke="black" fill="red"/>
  <circle cx="85.91" cy="906.682" r="6.25484" stroke-width="0.5" stroke="red" fill="red"/>
   </g>
   <g id="cell47">
  <circle cx="913.885" cy="459.857" r="8.39195" stroke-width="0.5" stroke="black" fill="red"/>
  <circle cx="913.885" cy="459.857" r="5.04458" stroke-width="0.5" stroke="red" fill="red"/>
   </g>
   <g id="cell48">
  <circle cx="943.46" cy="12.6696" r="8.40322" stroke-width="0.5" stroke="black" fill="red"/>
  <circle cx="943.46" cy="12.6696" r="5.04871" stroke-width="0.5" stroke="red" fill="red"/>
   </g>
   <g id="cell49">
  <circle cx="475.809" cy="807.41" r="10.5368" stroke-width="0.5" stroke="black" fill="red"/>
  <circle cx="475.809" cy="807.41" r="6.34099" stroke-width="0.5" stroke="red" fill="red"/>
   </g>
   <g id="cell50">
  <circle cx="8.57757" cy="437.786" r="8.38819" stroke-width="0.5" stroke="black" fill="red"/>
  <circle cx="8.57757" cy="437.786" r="5.04312" stroke-width="0.5" stroke="red" fill="red"/>
   </g>
   <g id="cell51">
  <circle cx="840.88" cy="161.575" r="8.40017" stroke-width="0.5" stroke="black" fill="red"/>
  <circle cx="840.88" cy="161.575" r="5.04763" stroke-width="0.5" stroke="red" fill="red"/>
   </g>
   <g id="cell96">
  <circle cx="824.915" cy="564.898" r="8.39131" stroke-width="0.5" stroke="black" fill="yellow"/>
  <circle cx="824.915" cy="564.898" r="5.04434" stroke-width="0.5" stroke="yellow" fill="yellow"/>
   </g>
   <g id="cell53">
  <circle cx="648.163" cy="271.472" r="8.44717" stroke-width="0.5" stroke="black" fill="red"/>
  <circle cx="648.163" cy="271.472" r="5.0802" stroke-width="0.5" stroke="red" fill="red"/>
   </g>
   <g id="cell54">
  <circle cx="419.396" cy="920.819" r="8.41248" stroke-width="0.5" stroke="black" fill="red"/>
  <circle cx="419.396" cy="920.819" r="5.05162" stroke-width="0.5" stroke="red" fill="red"/>
   </g>
   <g id="cell55">
  <circle cx="196.129" cy="649.747" r="9.59284" stroke-width="0.5" stroke="black" fill="red"/>
  <circle cx="196.129" cy="649.747" r="5.83013" stroke-width="0.5" stroke="red" fill="red"/>
   </g>
   <g id="cell56">
  <circle cx="659.39" cy="844.872" r="8.39656" stroke-width="0.5" stroke="black" fill="red"/>
  <circle cx="659.39" cy="844.872" r="5.04632" stroke-width="0.5" stroke="red" fill="red"/>
   </g>
   <g id="cell57">
  <circle cx="463.809" cy="541.22" r="8.39827" stroke-width="0.5" stroke="black" fill="red"/>
  <circle cx="463.809" cy="541.22" r="5.04695" stroke-width="0.5" stroke="red" fill="red"/>
   </g>
   <g id="cell58">
  <circle cx="10.9091" cy="865.525" r="8.3901" stroke-width="0.5" stroke="black" fill="red"/>
  <circle cx="10.9091" cy="865.525" r="5.04387" stroke-width="0.5" stroke="red" fill="red"/>
   </g>
   <g id="cell59">
  <circle cx="39.5509" cy="912.069" r="8.39247" stroke-width="0.5" stroke="black" fill="red"/>
  <circle cx="39.5509" cy="912.069" r="5.04479" stroke-width="0.5" stroke="red" fill="red"/>
   </g>
   <g id="cell60">
  <circle cx="225.303" cy="30.9061" r="3.98818" stroke-width="0.5" stroke="black" fill="red"/>
  <circle cx="225.303" cy="30.9061" r="3.19391" stroke-width="0.5" stroke="black" fill="black"/>
   </g>
   <g id="cell61">
  <circle cx="781.505" cy="128.315" r="10.4353" stroke-width="0.5" stroke="black" fill="red"/>
  <circle cx="781.505" cy="128.315" r="6.29466" stroke-width="0.5" stroke="red" fill="red"/>
   </g>
   <g id="cell62">
  <circle cx="726.012" cy="805.498" r="8.39203" stroke-width="0.5" stroke="black" fill="red"/>
  <circle cx="726.012" cy="805.498" r="5.0446" stroke-width="0.5" stroke="red" fill="red"/>
   </g>
   <g id="cell63">
  <circle cx="340.018" cy="169.1" r="10.5419" stroke-width="0.5" stroke="black" fill="red"/>
  <circle cx="340.018" cy="169.1" r="6.34316" stroke-width="0.5" stroke="red" fill="red"/>
   </g>
   <g id="cell64">
  <circle cx="647.885" cy="509.356" r="8.4009" stroke-width="0.5" stroke="black" fill="red"/>
  <circle cx="647.885" cy="509.356" r="5.04788" stroke-width="0.5" stroke="red" fill="red"/>
   </g>
   <g id="cell188">
  <circle cx="853.568" cy="398.427" r="10.4485" stroke-width="0.5" stroke="black" fill="yellow"/>
  <circle cx="853.568" cy="398.427" r="6.30101" stroke-width="0.5" stroke="yellow" fill="yellow"/>
   </g>
   <g id="cell66">
  <circle cx="31.8251" cy="126.185" r="10.5636" stroke-width="0.5" stroke="black" fill="red"/>
  <circle cx="31.8251" cy="126.185" r="6.35206" stroke-width="0.5" stroke="red" fill="red"/>
   </g>
   <g id="cell197">
  <circle cx="739.731" cy="685.416" r="9.69974" stroke-width="0.5" stroke="black" fill="yellow"/>
  <circle cx="739.731" cy="685.416" r="5.89359" stroke-width="0.5" stroke="yellow" fill="yellow"/>
   </g>
   <g id="cell68">
  <circle cx="776.215" cy="231.95" r="8.39254" stroke-width="0.5" stroke="black" fill="red"/>
  <circle cx="776.215" cy="231.95" r="5.0448" stroke-width="0.5" stroke="red" fill="red"/>
   </g>
   <g id="cell69">
  <circle cx="412.395" cy="281.839" r="10.0952" stroke-width="0.5" stroke="black" fill="red"/>
  <circle cx="412.395" cy="281.839" r="6.11792" stroke-width="0.5" stroke="red" fill="red"/>
   </g>
   <g id="cell70">
  <circle cx="527.34" cy="379.866" r="10.5465" stroke-width="0.5" stroke="black" fill="red"/>
  <circle cx="527.34" cy="379.866" r="6.34509" stroke-width="0.5" stroke="red" fill="red"/>
   </g>
   <g id="cell71">
  <circle cx="929.796" cy="496.372" r="9.07872" stroke-width="0.5" stroke="black" fill="red"/>
  <circle cx="929.796" cy="496.372" r="5.5158" stroke-width="0.5" stroke="red" fill="red"/>
   </g>
   <g id="cell72">
  <circle cx="184.837" cy="918.184" r="8.39826" stroke-width="0.5" stroke="black" fill="red"/>
  <circle cx="184.837" cy="918.184" r="5.04694" stroke-width="0.5" stroke="red" fill="red"/>
   </g>
   <g id="cell73">
  <circle cx="620.659" cy="445.138" r="10.5628" stroke-width="0.5" stroke="black" fill="red"/>
  <circle cx="620.659" cy="445.138" r="6.3517" stroke-width="0.5" stroke="red" fill="red"/>
   </g>
   <g id="cell74">
  <circle cx="859.898" cy="946.771" r="10.4953" stroke-width="0.5" stroke="black" fill="red"/>
  <circle cx="859.898" cy="946.771" r="6.32271" stroke-width="0.5" stroke="red" fill="red"/>
   </g>
   <g id="cell75">
  <circle cx="125.126" cy="298.791" r="8.59969" stroke-width="0.5" stroke="black" fill="red"/>
  <circle cx="125.126" cy="298.791" r="5.19569" stroke-width="0.5" stroke="red" fill="red"/>
   </g>
   <g id="cell76">
  <circle cx="767.721" cy="424.473" r="10.5232" stroke-width="0.5" stroke="black" fill="red"/>
  <circle cx="767.721" cy="424.473" r="6.33511" stroke-width="0.5" stroke="red" fill="red"/>
   </g>
   <g id="cell77">
  <circle cx="676.58" cy="833.758" r="8.38523" stroke-width="0.5" stroke="black" fill="red"/>
  <circle cx="676.58" cy="833.758" r="5.04197" stroke-width="0.5" stroke="red" fill="red"/>
   </g>
   <g id="cell78">
  <circle cx="590.041" cy="296.663" r="10.5606" stroke-width="0.5" stroke="black" fill="red"/>
  <circle cx="590.041" cy="296.663" r="6.35084" stroke-width="0.5" stroke="red" fill="red"/>
   </g>
   <g id="cell79">
  <circle cx="985.633" cy="693.382" r="10.523" stroke-width="0.5" stroke="black" fill="red"/>
  <circle cx="985.633" cy="693.382" r="6.33508" stroke-width="0.5" stroke="red" fill="red"/>
   </g>
   <g id="cell80">
  <circle cx="742.511" cy="708.506" r="10.2308" stroke-width="0.5" stroke="black" fill="yellow"/>
  <circle cx="742.511" cy="708.506" r="6.19139" stroke-width="0.5" stroke="yellow" fill="yellow"/>
   </g>
   <g id="cell81">
  <circle cx="477.938" cy="956.662" r="8.39618" stroke-width="0.5" stroke="black" fill="yellow"/>
  <circle cx="477.938" cy="956.662" r="5.04616" stroke-width="0.5" stroke="yellow" fill="yellow"/>
   </g>
   <g id="cell82">
  <circle cx="621.628" cy="404.479" r="8.79775" stroke-width="0.5" stroke="black" fill="yellow"/>
  <circle cx="621.628" cy="404.479" r="5.3324" stroke-width="0.5" stroke="yellow" fill="yellow"/>
   </g>
   <g id="cell83">
  <circle cx="585.313" cy="594.277" r="8.39193" stroke-width="0.5" stroke="black" fill="yellow"/>
  <circle cx="585.313" cy="594.277" r="5.04458" stroke-width="0.5" stroke="yellow" fill="yellow"/>
   </g>
   <g id="cell84">
  <circle cx="17.7941" cy="482.698" r="10.5312" stroke-width="0.5" stroke="black" fill="yellow"/>
  <circle cx="17.7941" cy="482.698" r="6.33861" stroke-width="0.5" stroke="yellow" fill="yellow"/>
   </g>
   <g id="cell238">
  <circle cx="143.516" cy="389.903" r="8.39361" stroke-width="0.5" stroke="black" fill="red"/>
  <circle cx="143.516" cy="389.903" r="5.04521" stroke-width="0.5" stroke="red" fill="red"/>
   </g>
   <g id="cell86">
  <circle cx="353.434" cy="419.915" r="10.3743" stroke-width="0.5" stroke="black" fill="yellow"/>
  <circle cx="353.434" cy="419.915" r="6.26488" stroke-width="0.5" stroke="yellow" fill="yellow"/>
   </g>
   <g id="cell87">
  <circle cx="803.686" cy="381.44" r="10.4102" stroke-width="0.5" stroke="black" fill="yellow"/>
  <circle cx="803.686" cy="381.44" r="6.28248" stroke-width="0.5" stroke="yellow" fill="yellow"/>
   </g>
   <g id="cell200">
  <circle cx="986.433" cy="100.361" r="8.40826" stroke-width="0.5" stroke="black" fill="grey"/>
  <circle cx="986.433" cy="100.361" r="5.05039" stroke-width="0.5" stroke="grey" fill="grey"/>
   </g>
   <g id="cell89">
  <circle cx="48.5342" cy="569.061" r="10.5208" stroke-width="0.5" stroke="black" fill="yellow"/>
  <circle cx="48.5342" cy="569.061" r="6.33411" stroke-width="0.5" stroke="yellow" fill="yellow"/>
   </g>
   <g id="cell193">
  <circle cx="171.546" cy="658.647" r="10.4093" stroke-width="0.5" stroke="black" fill="red"/>
  <circle cx="171.546" cy="658.647" r="6.28226" stroke-width="0.5" stroke="red" fill="red"/>
   </g>
   <g id="cell91">
  <circle cx="9.29514" cy="621.739" r="10.2996" stroke-width="0.5" stroke="black" fill="yellow"/>
  <circle cx="9.29514" cy="621.739" r="6.22692" stroke-width="0.5" stroke="yellow" fill="yellow"/>
   </g>
   <g id="cell92">
  <circle cx="689.586" cy="264.406" r="8.38671" stroke-width="0.5" stroke="black" fill="yellow"/>
  <circle cx="689.586" cy="264.406" r="5.04255" stroke-width="0.5" stroke="yellow" fill="yellow"/>
   </g>
   <g id="cell93">
  <circle cx="209.569" cy="851.268" r="10.2998" stroke-width="0.5" stroke="black" fill="yellow"/>
  <circle cx="209.569" cy="851.268" r="6.22697" stroke-width="0.5" stroke="yellow" fill="yellow"/>
   </g>
   <g id="cell94">
  <circle cx="393.839" cy="99.0601" r="10.5385" stroke-width="0.5" stroke="black" fill="yellow"/>
  <circle cx="393.839" cy="99.0601" r="6.34173" stroke-width="0.5" stroke="yellow" fill="yellow"/>
   </g>
   <g id="cell95">
  <circle cx="951.296" cy="894.564" r="8.4922" stroke-width="0.5" stroke="black" fill="yellow"/>
  <circle cx="951.296" cy="894.564" r="5.11852" stroke-width="0.5" stroke="yellow" fill="yellow"/>
   </g>
   <g id="cell121">
  <circle cx="41.0183" cy="480.189" r="10.0497" stroke-width="0.5" stroke="black" fill="red"/>
  <circle cx="41.0183" cy="480.189" r="6.09276" stroke-width="0.5" stroke="red" fill="red"/>
   </g>
   <g id="cell122">
  <circle cx="697.369" cy="402.735" r="8.4018" stroke-width="0.5" stroke="black" fill="yellow"/>
  <circle cx="697.369" cy="402.735" r="5.04821" stroke-width="0.5" stroke="yellow" fill="yellow"/>
   </g>
   <g id="cell123">
  <circle cx="305.211" cy="907.353" r="10.2632" stroke-width="0.5" stroke="black" fill="yellow"/>
  <circle cx="305.211" cy="907.353" r="6.20795" stroke-width="0.5" stroke="yellow" fill="yellow"/>
   </g>
   <g id="cell124">
  <circle cx="448.884" cy="631.368" r="8.38749" stroke-width="0.5" stroke="black" fill="grey"/>
  <circle cx="448.884" cy="631.368" r="5.04285" stroke-width="0.5" stroke="grey" fill="grey"/>
   </g>
   <g id="cell125">
  <circle cx="811.835" cy="442.132" r="9.66925" stroke-width="0.5" stroke="black" fill="yellow"/>
  <circle cx="811.835" cy="442.132" r="5.87678" stroke-width="0.5" stroke="yellow" fill="yellow"/>
   </g>
   <g id="cell126">
  <circle cx="932.488" cy="188.769" r="8.38527" stroke-width="0.5" stroke="black" fill="red"/>
  <circle cx="932.488" cy="188.769" r="5.04198" stroke-width="0.5" stroke="red" fill="red"/>
   </g>
   <g id="cell127">
  <circle cx="907.574" cy="558.768" r="8.71896" stroke-width="0.5" stroke="black" fill="red"/>
  <circle cx="907.574" cy="558.768" r="5.27826" stroke-width="0.5" stroke="red" fill="red"/>
   </g>
   <g id="cell128">
  <circle cx="930.941" cy="42.4719" r="10.5561" stroke-width="0.5" stroke="black" fill="red"/>
  <circle cx="930.941" cy="42.4719" r="6.349" stroke-width="0.5" stroke="red" fill="red"/>
   </g>
   <g id="cell129">
  <circle cx="981.032" cy="676.633" r="1.66912" stroke-width="0.5" stroke="black" fill="grey"/>
  <circle cx="981.032" cy="676.633" r="1.65787" stroke-width="0.5" stroke="black" fill="black"/>
   </g>
   <g id="cell130">
  <circle cx="953.114" cy="596.384" r="8.4126" stroke-width="0.5" stroke="black" fill="yellow"/>
  <circle cx="953.114" cy="596.384" r="5.05165" stroke-width="0.5" stroke="yellow" fill="yellow"/>
   </g>
   <g id="cell132">
  <circle cx="58.2846" cy="935.404" r="8.39566" stroke-width="0.5" stroke="black" fill="red"/>
  <circle cx="58.2846" cy="935.404" r="5.04598" stroke-width="0.5" stroke="red" fill="red"/>
   </g>
   <g id="cell133">
  <circle cx="652.083" cy="390.85" r="10.5254" stroke-width="0.5" stroke="black" fill="red"/>
  <circle cx="652.083" cy="390.85" r="6.33605" stroke-width="0.5" stroke="red" fill="red"/>
   </g>
   <g id="cell201">
  <circle cx="492.636" cy="608.145" r="9.83841" stroke-width="0.5" stroke="black" fill="grey"/>
  <circle cx="492.636" cy="608.145" r="5.97487" stroke-width="0.5" stroke="grey" fill="grey"/>
   </g>
   <g id="cell136">
  <circle cx="690.659" cy="482.287" r="8.38747" stroke-width="0.5" stroke="black" fill="red"/>
  <circle cx="690.659" cy="482.287" r="5.04285" stroke-width="0.5" stroke="red" fill="red"/>
   </g>
   <g id="cell137">
  <circle cx="752.309" cy="671.634" r="10.4761" stroke-width="0.5" stroke="black" fill="yellow"/>
  <circle cx="752.309" cy="671.634" r="6.31387" stroke-width="0.5" stroke="yellow" fill="yellow"/>
   </g>
   <g id="cell138">
  <circle cx="694.319" cy="243.18" r="8.75905" stroke-width="0.5" stroke="black" fill="red"/>
  <circle cx="694.319" cy="243.18" r="5.30569" stroke-width="0.5" stroke="red" fill="red"/>
   </g>
   <g id="cell139">
  <circle cx="793.031" cy="738.731" r="10.1237" stroke-width="0.5" stroke="black" fill="yellow"/>
  <circle cx="793.031" cy="738.731" r="6.13345" stroke-width="0.5" stroke="yellow" fill="yellow"/>
   </g>
   <g id="cell140">
  <circle cx="105.91" cy="337.887" r="8.83879" stroke-width="0.5" stroke="black" fill="red"/>
  <circle cx="105.91" cy="337.887" r="5.35975" stroke-width="0.5" stroke="red" fill="red"/>
   </g>
   <g id="cell141">
  <circle cx="11.6085" cy="990.278" r="9.43389" stroke-width="0.5" stroke="black" fill="yellow"/>
  <circle cx="11.6085" cy="990.278" r="5.73661" stroke-width="0.5" stroke="yellow" fill="yellow"/>
   </g>
   <g id="cell142">
  <circle cx="693.049" cy="688.274" r="8.41258" stroke-width="0.5" stroke="black" fill="red"/>
  <circle cx="693.049" cy="688.274" r="5.05164" stroke-width="0.5" stroke="red" fill="red"/>
   </g>
   <g id="cell143">
  <circle cx="113.787" cy="715.685" r="10.4354" stroke-width="0.5" stroke="black" fill="red"/>
  <circle cx="113.787" cy="715.685" r="6.29468" stroke-width="0.5" stroke="red" fill="red"/>
   </g>
   <g id="cell144">
  <circle cx="667.54" cy="147.663" r="8.39745" stroke-width="0.5" stroke="black" fill="grey"/>
  <circle cx="667.54" cy="147.663" r="5.04664" stroke-width="0.5" stroke="grey" fill="grey"/>
   </g>
   <g id="cell145">
  <circle cx="559.418" cy="505.401" r="10.3544" stroke-width="0.5" stroke="black" fill="red"/>
  <circle cx="559.418" cy="505.401" r="6.25483" stroke-width="0.5" stroke="red" fill="red"/>
   </g>
   <g id="cell146">
  <circle cx="305.22" cy="200.223" r="8.46563" stroke-width="0.5" stroke="black" fill="red"/>
  <circle cx="305.22" cy="200.223" r="5.09737" stroke-width="0.5" stroke="red" fill="red"/>
   </g>
   <g id="cell147">
  <circle cx="681.964" cy="384.049" r="10.4861" stroke-width="0.5" stroke="black" fill="yellow"/>
  <circle cx="681.964" cy="384.049" r="6.31851" stroke-width="0.5" stroke="yellow" fill="yellow"/>
   </g>
   <g id="cell148">
  <circle cx="243.748" cy="767.406" r="9.52729" stroke-width="0.5" stroke="black" fill="grey"/>
  <circle cx="243.748" cy="767.406" r="5.79282" stroke-width="0.5" stroke="grey" fill="grey"/>
   </g>
   <g id="cell149">
  <circle cx="866.086" cy="466.702" r="8.40014" stroke-width="0.5" stroke="black" fill="red"/>
  <circle cx="866.086" cy="466.702" r="5.04762" stroke-width="0.5" stroke="red" fill="red"/>
   </g>
   <g id="cell150">
  <circle cx="185.823" cy="40.3015" r="10.5522" stroke-width="0.5" stroke="black" fill="yellow"/>
  <circle cx="185.823" cy="40.3015" r="6.34743" stroke-width="0.5" stroke="yellow" fill="yellow"/>
   </g>
   <g id="cell151">
  <circle cx="206.252" cy="884.909" r="10.5232" stroke-width="0.5" stroke="black" fill="red"/>
  <circle cx="206.252" cy="884.909" r="6.33512" stroke-width="0.5" stroke="red" fill="red"/>
   </g>
   <g id="cell152">
  <circle cx="591.699" cy="872.236" r="9.11261" stroke-width="0.5" stroke="black" fill="red"/>
  <circle cx="591.699" cy="872.236" r="5.53853" stroke-width="0.5" stroke="red" fill="red"/>
   </g>
   <g id="cell154">
  <circle cx="875.5" cy="23.5025" r="10.5495" stroke-width="0.5" stroke="black" fill="red"/>
  <circle cx="875.5" cy="23.5025" r="6.3463" stroke-width="0.5" stroke="red" fill="red"/>
   </g>
   <g id="cell155">
  <circle cx="650.79" cy="885.743" r="8.41642" stroke-width="0.5" stroke="black" fill="red"/>
  <circle cx="650.79" cy="885.743" r="5.0602" stroke-width="0.5" stroke="red" fill="red"/>
   </g>
   <g id="cell156">
  <circle cx="886.715" cy="511.462" r="1.58238" stroke-width="0.5" stroke="black" fill="grey"/>
  <circle cx="886.715" cy="511.462" r="1.57433" stroke-width="0.5" stroke="black" fill="black"/>
   </g>
   <g id="cell157">
  <circle cx="612.586" cy="650.499" r="10.5451" stroke-width="0.5" stroke="black" fill="yellow"/>
  <circle cx="612.586" cy="650.499" r="6.34447" stroke-width="0.5" stroke="yellow" fill="yellow"/>
   </g>
   <g id="cell198">
  <circle cx="62.5088" cy="415.271" r="10.1611" stroke-width="0.5" stroke="black" fill="yellow"/>
  <circle cx="62.5088" cy="415.271" r="6.15423" stroke-width="0.5" stroke="yellow" fill="yellow"/>
   </g>
   <g id="cell159">
  <circle cx="693.043" cy="284.504" r="10.521" stroke-width="0.5" stroke="black" fill="yellow"/>
  <circle cx="693.043" cy="284.504" r="6.33416" stroke-width="0.5" stroke="yellow" fill="yellow"/>
   </g>
   <g id="cell160">
  <circle cx="638.715" cy="304.438" r="10.5508" stroke-width="0.5" stroke="black" fill="red"/>
  <circle cx="638.715" cy="304.438" r="6.34687" stroke-width="0.5" stroke="red" fill="red"/>
   </g>
   <g id="cell199">
  <circle cx="819.99" cy="850.483" r="8.57484" stroke-width="0.5" stroke="black" fill="yellow"/>
  <circle cx="819.99" cy="850.483" r="5.17352" stroke-width="0.5" stroke="yellow" fill="yellow"/>
   </g>
   <g id="cell162">
  <circle cx="843.666" cy="78.2691" r="8.39653" stroke-width="0.5" stroke="black" fill="red"/>
  <circle cx="843.666" cy="78.2691" r="5.04631" stroke-width="0.5" stroke="red" fill="red"/>
   </g>
   <g id="cell163">
  <circle cx="429.374" cy="955.537" r="8.3956" stroke-width="0.5" stroke="black" fill="red"/>
  <circle cx="429.374" cy="955.537" r="5.04596" stroke-width="0.5" stroke="red" fill="red"/>
   </g>
   <g id="cell164">
  <circle cx="820.402" cy="951.126" r="10.4206" stroke-width="0.5" stroke="black" fill="red"/>
  <circle cx="820.402" cy="951.126" r="6.28758" stroke-width="0.5" stroke="red" fill="red"/>
   </g>
   <g id="cell165">
  <circle cx="823.613" cy="385.029" r="8.39511" stroke-width="0.5" stroke="black" fill="red"/>
  <circle cx="823.613" cy="385.029" r="5.04578" stroke-width="0.5" stroke="red" fill="red"/>
   </g>
   <g id="cell166">
  <circle cx="763.89" cy="492.836" r="8.39461" stroke-width="0.5" stroke="black" fill="yellow"/>
  <circle cx="763.89" cy="492.836" r="5.0456" stroke-width="0.5" stroke="yellow" fill="yellow"/>
   </g>
   <g id="cell167">
  <circle cx="599.526" cy="121.007" r="10.535" stroke-width="0.5" stroke="black" fill="yellow"/>
  <circle cx="599.526" cy="121.007" r="6.34023" stroke-width="0.5" stroke="yellow" fill="yellow"/>
   </g>
   <g id="cell168">
  <circle cx="927.967" cy="879.261" r="8.3881" stroke-width="0.5" stroke="black" fill="yellow"/>
  <circle cx="927.967" cy="879.261" r="5.0431" stroke-width="0.5" stroke="yellow" fill="yellow"/>
   </g>
   <g id="cell169">
  <circle cx="329.895" cy="969.674" r="10.5616" stroke-width="0.5" stroke="black" fill="yellow"/>
  <circle cx="329.895" cy="969.674" r="6.35126" stroke-width="0.5" stroke="yellow" fill="yellow"/>
   </g>
   <g id="cell170">
  <circle cx="50.2679" cy="989.834" r="10.0652" stroke-width="0.5" stroke="black" fill="red"/>
  <circle cx="50.2679" cy="989.834" r="6.10141" stroke-width="0.5" stroke="red" fill="red"/>
   </g>
   <g id="cell171">
  <circle cx="511.759" cy="392.529" r="10.5637" stroke-width="0.5" stroke="black" fill="red"/>
  <circle cx="511.759" cy="392.529" r="6.35208" stroke-width="0.5" stroke="red" fill="red"/>
   </g>
   <g id="cell172">
  <circle cx="457.692" cy="807.076" r="8.38594" stroke-width="0.5" stroke="black" fill="red"/>
  <circle cx="457.692" cy="807.076" r="5.04226" stroke-width="0.5" stroke="red" fill="red"/>
   </g>
   <g id="cell173">
  <circle cx="989.057" cy="434.88" r="10.2819" stroke-width="0.5" stroke="black" fill="red"/>
  <circle cx="989.057" cy="434.88" r="6.21774" stroke-width="0.5" stroke="red" fill="red"/>
   </g>
   <g id="cell174">
  <circle cx="353.104" cy="116.349" r="7.77836" stroke-width="0.5" stroke="black" fill="yellow"/>
  <circle cx="353.104" cy="116.349" r="4.87157" stroke-width="0.5" stroke="black" fill="black"/>
   </g>
   <g id="cell175">
  <circle cx="34.8622" cy="294.075" r="8.38808" stroke-width="0.5" stroke="black" fill="yellow"/>
  <circle cx="34.8622" cy="294.075" r="5.0431" stroke-width="0.5" stroke="yellow" fill="yellow"/>
   </g>
   <g id="cell178">
  <circle cx="66.918" cy="161.982" r="10.5594" stroke-width="0.5" stroke="black" fill="red"/>
  <circle cx="66.918" cy="161.982" r="6.35037" stroke-width="0.5" stroke="red" fill="red"/>
   </g>
   <g id="cell179">
  <circle cx="22.4007" cy="484.821" r="10.457" stroke-width="0.5" stroke="black" fill="yellow"/>
  <circle cx="22.4007" cy="484.821" r="6.30501" stroke-width="0.5" stroke="yellow" fill="yellow"/>
   </g>
   <g id="cell180">
  <circle cx="35.5508" cy="702.619" r="8.41231" stroke-width="0.5" stroke="black" fill="yellow"/>
  <circle cx="35.5508" cy="702.619" r="5.05158" stroke-width="0.5" stroke="yellow" fill="yellow"/>
   </g>
   <g id="cell181">
  <circle cx="973.455" cy="671.236" r="9.59359" stroke-width="0.5" stroke="black" fill="red"/>
  <circle cx="973.455" cy="671.236" r="5.83035" stroke-width="0.5" stroke="red" fill="red"/>
   </g>
   <g id="cell182">
  <circle cx="499.939" cy="927.029" r="8.72788" stroke-width="0.5" stroke="black" fill="yellow"/>
  <circle cx="499.939" cy="927.029" r="5.28124" stroke-width="0.5" stroke="yellow" fill="yellow"/>
   </g>
   <g id="cell183">
  <circle cx="652.178" cy="871.19" r="8.41228" stroke-width="0.5" stroke="black" fill="red"/>
  <circle cx="652.178" cy="871.19" r="5.05157" stroke-width="0.5" stroke="red" fill="red"/>
   </g>
   <g id="cell187">
  <circle cx="270.729" cy="418.096" r="10.4152" stroke-width="0.5" stroke="black" fill="yellow"/>
  <circle cx="270.729" cy="418.096" r="6.28499" stroke-width="0.5" stroke="yellow" fill="yellow"/>
   </g>
   <g id="cell189">
  <circle cx="783.926" cy="412.74" r="10.5087" stroke-width="0.5" stroke="black" fill="yellow"/>
  <circle cx="783.926" cy="412.74" r="6.32881" stroke-width="0.5" stroke="yellow" fill="yellow"/>
   </g>
   <g id="cell194">
  <circle cx="105.648" cy="140.044" r="10.3733" stroke-width="0.5" stroke="black" fill="yellow"/>
  <circle cx="105.648" cy="140.044" r="6.26458" stroke-width="0.5" stroke="yellow" fill="yellow"/>
   </g>
   <g id="cell195">
  <circle cx="393.199" cy="448.097" r="10.198" stroke-width="0.5" stroke="black" fill="yellow"/>
  <circle cx="393.199" cy="448.097" r="6.17388" stroke-width="0.5" stroke="yellow" fill="yellow"/>
   </g>
   <g id="cell196">
  <circle cx="923.024" cy="288.811" r="9.12253" stroke-width="0.5" stroke="black" fill="yellow"/>
  <circle cx="923.024" cy="288.811" r="5.54211" stroke-width="0.5" stroke="yellow" fill="yellow"/>
   </g>
   <g id="cell202">
  <circle cx="113.471" cy="840.823" r="8.44788" stroke-width="0.5" stroke="black" fill="yellow"/>
  <circle cx="113.471" cy="840.823" r="5.08044" stroke-width="0.5" stroke="yellow" fill="yellow"/>
   </g>
   <g id="cell203">
  <circle cx="850.781" cy="452.316" r="9.03969" stroke-width="0.5" stroke="black" fill="yellow"/>
  <circle cx="850.781" cy="452.316" r="5.49086" stroke-width="0.5" stroke="yellow" fill="yellow"/>
   </g>
   <g id="cell204">
  <circle cx="892.682" cy="505.117" r="9.61513" stroke-width="0.5" stroke="black" fill="red"/>
  <circle cx="892.682" cy="505.117" r="5.84484" stroke-width="0.5" stroke="red" fill="red"/>
   </g>
   <g id="cell205">
  <circle cx="657.107" cy="284.059" r="8.40372" stroke-width="0.5" stroke="black" fill="red"/>
  <circle cx="657.107" cy="284.059" r="5.04888" stroke-width="0.5" stroke="red" fill="red"/>
   </g>
   <g id="cell206">
  <circle cx="962.637" cy="11.6485" r="8.40322" stroke-width="0.5" stroke="black" fill="red"/>
  <circle cx="962.637" cy="11.6485" r="5.04871" stroke-width="0.5" stroke="red" fill="red"/>
   </g>
   <g id="cell207">
  <circle cx="738.536" cy="259.127" r="8.95995" stroke-width="0.5" stroke="black" fill="red"/>
  <circle cx="738.536" cy="259.127" r="5.43949" stroke-width="0.5" stroke="red" fill="red"/>
   </g>
   <g id="cell208">
  <circle cx="66.0223" cy="373.149" r="8.40266" stroke-width="0.5" stroke="black" fill="red"/>
  <circle cx="66.0223" cy="373.149" r="5.04852" stroke-width="0.5" stroke="red" fill="red"/>
   </g>
   <g id="cell209">
  <circle cx="909.085" cy="574.814" r="8.40267" stroke-width="0.5" stroke="black" fill="red"/>
  <circle cx="909.085" cy="574.814" r="5.04852" stroke-width="0.5" stroke="red" fill="red"/>
   </g>
   <g id="cell210">
  <circle cx="737.393" cy="469.845" r="8.40268" stroke-width="0.5" stroke="black" fill="yellow"/>
  <circle cx="737.393" cy="469.845" r="5.04852" stroke-width="0.5" stroke="yellow" fill="yellow"/>
   </g>
   <g id="cell212">
  <circle cx="179.988" cy="719.182" r="8.87859" stroke-width="0.5" stroke="black" fill="grey"/>
  <circle cx="179.988" cy="719.182" r="5.38638" stroke-width="0.5" stroke="grey" fill="grey"/>
   </g>
   <g id="cell213">
  <circle cx="14.5429" cy="987.866" r="8.40179" stroke-width="0.5" stroke="black" fill="yellow"/>
  <circle cx="14.5429" cy="987.866" r="5.04821" stroke-width="0.5" stroke="yellow" fill="yellow"/>
   </g>
   <g id="cell214">
  <circle cx="740.537" cy="439.834" r="8.4018" stroke-width="0.5" stroke="black" fill="yellow"/>
  <circle cx="740.537" cy="439.834" r="5.04821" stroke-width="0.5" stroke="yellow" fill="yellow"/>
   </g>
   <g id="cell215">
  <circle cx="632.438" cy="392.638" r="8.44524" stroke-width="0.5" stroke="black" fill="yellow"/>
  <circle cx="632.438" cy="392.638" r="5.07953" stroke-width="0.5" stroke="yellow" fill="yellow"/>
   </g>
   <g id="cell216">
  <circle cx="34.7553" cy="912.102" r="8.40116" stroke-width="0.5" stroke="black" fill="yellow"/>
  <circle cx="34.7553" cy="912.102" r="5.04799" stroke-width="0.5" stroke="yellow" fill="yellow"/>
   </g>
   <g id="cell217">
  <circle cx="616.123" cy="546.372" r="8.4009" stroke-width="0.5" stroke="black" fill="red"/>
  <circle cx="616.123" cy="546.372" r="5.04788" stroke-width="0.5" stroke="red" fill="red"/>
   </g>
   <g id="cell218">
  <circle cx="860.61" cy="157.74" r="9.33276" stroke-width="0.5" stroke="black" fill="red"/>
  <circle cx="860.61" cy="157.74" r="5.67525" stroke-width="0.5" stroke="red" fill="red"/>
   </g>
   <g id="cell219">
  <circle cx="842.204" cy="430.98" r="8.9971" stroke-width="0.5" stroke="black" fill="red"/>
  <circle cx="842.204" cy="430.98" r="5.46431" stroke-width="0.5" stroke="red" fill="red"/>
   </g>
   <g id="cell220">
  <circle cx="838.485" cy="446.568" r="8.39865" stroke-width="0.5" stroke="black" fill="grey"/>
  <circle cx="838.485" cy="446.568" r="5.04709" stroke-width="0.5" stroke="grey" fill="grey"/>
   </g>
   <g id="cell221">
  <circle cx="176.576" cy="940.577" r="8.39826" stroke-width="0.5" stroke="black" fill="red"/>
  <circle cx="176.576" cy="940.577" r="5.04694" stroke-width="0.5" stroke="red" fill="red"/>
   </g>
   <g id="cell222">
  <circle cx="473.945" cy="530.024" r="8.83483" stroke-width="0.5" stroke="black" fill="red"/>
  <circle cx="473.945" cy="530.024" r="5.35827" stroke-width="0.5" stroke="red" fill="red"/>
   </g>
   <g id="cell223">
  <circle cx="606.269" cy="841.756" r="8.39826" stroke-width="0.5" stroke="black" fill="red"/>
  <circle cx="606.269" cy="841.756" r="5.04694" stroke-width="0.5" stroke="red" fill="red"/>
   </g>
   <g id="cell224">
  <circle cx="93.286" cy="287.692" r="8.39745" stroke-width="0.5" stroke="black" fill="red"/>
  <circle cx="93.286" cy="287.692" r="5.04664" stroke-width="0.5" stroke="red" fill="red"/>
   </g>
   <g id="cell225">
  <circle cx="197.565" cy="381.061" r="8.44094" stroke-width="0.5" stroke="black" fill="red"/>
  <circle cx="197.565" cy="381.061" r="5.07797" stroke-width="0.5" stroke="red" fill="red"/>
   </g>
   <g id="cell226">
  <circle cx="649.028" cy="152.717" r="8.39745" stroke-width="0.5" stroke="black" fill="grey"/>
  <circle cx="649.028" cy="152.717" r="5.04664" stroke-width="0.5" stroke="grey" fill="grey"/>
   </g>
   <g id="cell227">
  <circle cx="663.521" cy="836.208" r="8.49675" stroke-width="0.5" stroke="black" fill="red"/>
  <circle cx="663.521" cy="836.208" r="5.12024" stroke-width="0.5" stroke="red" fill="red"/>
   </g>
   <g id="cell228">
  <circle cx="653.529" cy="881.381" r="8.71327" stroke-width="0.5" stroke="black" fill="red"/>
  <circle cx="653.529" cy="881.381" r="5.27615" stroke-width="0.5" stroke="red" fill="red"/>
   </g>
   <g id="cell229">
  <circle cx="835.287" cy="102.202" r="8.39653" stroke-width="0.5" stroke="black" fill="red"/>
  <circle cx="835.287" cy="102.202" r="5.04631" stroke-width="0.5" stroke="red" fill="red"/>
   </g>
   <g id="cell230">
  <circle cx="700.908" cy="763.606" r="8.39657" stroke-width="0.5" stroke="black" fill="red"/>
  <circle cx="700.908" cy="763.606" r="5.04632" stroke-width="0.5" stroke="red" fill="red"/>
   </g>
   <g id="cell232">
  <circle cx="59.9627" cy="923.073" r="8.39566" stroke-width="0.5" stroke="black" fill="red"/>
  <circle cx="59.9627" cy="923.073" r="5.04598" stroke-width="0.5" stroke="red" fill="red"/>
   </g>
   <g id="cell233">
  <circle cx="412.296" cy="950.861" r="8.67333" stroke-width="0.5" stroke="black" fill="red"/>
  <circle cx="412.296" cy="950.861" r="5.24862" stroke-width="0.5" stroke="red" fill="red"/>
   </g>
   <g id="cell234">
  <circle cx="835.904" cy="383.791" r="8.39511" stroke-width="0.5" stroke="black" fill="red"/>
  <circle cx="835.904" cy="383.791" r="5.04578" stroke-width="0.5" stroke="red" fill="red"/>
   </g>
   <g id="cell235">
  <circle cx="295.513" cy="232.093" r="8.39516" stroke-width="0.5" stroke="black" fill="red"/>
  <circle cx="295.513" cy="232.093" r="5.04579" stroke-width="0.5" stroke="red" fill="red"/>
   </g>
   <g id="cell236">
  <circle cx="765.21" cy="525.907" r="8.71147" stroke-width="0.5" stroke="black" fill="yellow"/>
  <circle cx="765.21" cy="525.907" r="5.27546" stroke-width="0.5" stroke="yellow" fill="yellow"/>
   </g>
   <g id="cell239">
  <circle cx="37.8846" cy="924.659" r="8.63213" stroke-width="0.5" stroke="black" fill="red"/>
  <circle cx="37.8846" cy="924.659" r="5.2205" stroke-width="0.5" stroke="red" fill="red"/>
   </g>
   <g id="cell240">
  <circle cx="761.8" cy="236.275" r="8.39254" stroke-width="0.5" stroke="black" fill="red"/>
  <circle cx="761.8" cy="236.275" r="5.0448" stroke-width="0.5" stroke="red" fill="red"/>
   </g>
   <g id="cell241">
  <circle cx="575.001" cy="564.327" r="8.39193" stroke-width="0.5" stroke="black" fill="yellow"/>
  <circle cx="575.001" cy="564.327" r="5.04458" stroke-width="0.5" stroke="yellow" fill="yellow"/>
   </g>
   <g id="cell242">
  <circle cx="752.876" cy="805.669" r="8.39203" stroke-width="0.5" stroke="black" fill="red"/>
  <circle cx="752.876" cy="805.669" r="5.0446" stroke-width="0.5" stroke="red" fill="red"/>
   </g>
   <g id="cell243">
  <circle cx="950.275" cy="899.604" r="8.3919" stroke-width="0.5" stroke="black" fill="yellow"/>
  <circle cx="950.275" cy="899.604" r="5.04457" stroke-width="0.5" stroke="yellow" fill="yellow"/>
   </g>
   <g id="cell244">
  <circle cx="875.799" cy="455.17" r="8.39195" stroke-width="0.5" stroke="black" fill="red"/>
  <circle cx="875.799" cy="455.17" r="5.04458" stroke-width="0.5" stroke="red" fill="red"/>
   </g>
   <g id="cell245">
  <circle cx="839.049" cy="551.537" r="8.39131" stroke-width="0.5" stroke="black" fill="yellow"/>
  <circle cx="839.049" cy="551.537" r="5.04434" stroke-width="0.5" stroke="yellow" fill="yellow"/>
   </g>
   <g id="cell246">
  <circle cx="13.8601" cy="853.442" r="8.3901" stroke-width="0.5" stroke="black" fill="red"/>
  <circle cx="13.8601" cy="853.442" r="5.04387" stroke-width="0.5" stroke="red" fill="red"/>
   </g>
   <g id="cell247">
  <circle cx="133.613" cy="795.734" r="8.39015" stroke-width="0.5" stroke="black" fill="yellow"/>
  <circle cx="133.613" cy="795.734" r="5.04389" stroke-width="0.5" stroke="yellow" fill="yellow"/>
   </g>
   <g id="cell248">
  <circle cx="241.074" cy="58.3999" r="8.38949" stroke-width="0.5" stroke="black" fill="yellow"/>
  <circle cx="241.074" cy="58.3999" r="5.04363" stroke-width="0.5" stroke="yellow" fill="yellow"/>
   </g>
   <g id="cell249">
  <circle cx="927.739" cy="868.86" r="8.40801" stroke-width="0.5" stroke="black" fill="yellow"/>
  <circle cx="927.739" cy="868.86" r="5.057" stroke-width="0.5" stroke="yellow" fill="yellow"/>
   </g>
   <g id="cell250">
  <circle cx="31.5404" cy="291.308" r="8.38808" stroke-width="0.5" stroke="black" fill="yellow"/>
  <circle cx="31.5404" cy="291.308" r="5.0431" stroke-width="0.5" stroke="yellow" fill="yellow"/>
   </g>
   <g id="cell251">
  <circle cx="25.0331" cy="424.417" r="8.38819" stroke-width="0.5" stroke="black" fill="red"/>
  <circle cx="25.0331" cy="424.417" r="5.04312" stroke-width="0.5" stroke="red" fill="red"/>
   </g>
   <g id="cell252">
  <circle cx="451.452" cy="642.316" r="8.38749" stroke-width="0.5" stroke="black" fill="grey"/>
  <circle cx="451.452" cy="642.316" r="5.04285" stroke-width="0.5" stroke="grey" fill="grey"/>
   </g>
   <g id="cell253">
  <circle cx="680.875" cy="485.057" r="8.38747" stroke-width="0.5" stroke="black" fill="red"/>
  <circle cx="680.875" cy="485.057" r="5.04285" stroke-width="0.5" stroke="red" fill="red"/>
   </g>
   <g id="cell254">
  <circle cx="673.16" cy="265.74" r="8.38671" stroke-width="0.5" stroke="black" fill="yellow"/>
  <circle cx="673.16" cy="265.74" r="5.04255" stroke-width="0.5" stroke="yellow" fill="yellow"/>
   </g>
   <g id="cell255">
  <circle cx="477.058" cy="800.389" r="8.38594" stroke-width="0.5" stroke="black" fill="red"/>
  <circle cx="477.058" cy="800.389" r="5.04226" stroke-width="0.5" stroke="red" fill="red"/>
   </g>
   <g id="cell256">
  <circle cx="690.183" cy="826.199" r="8.38523" stroke-width="0.5" stroke="black" fill="red"/>
  <circle cx="690.183" cy="826.199" r="5.04197" stroke-width="0.5" stroke="red" fill="red"/>
   </g>
   <g id="cell257">
  <circle cx="946.006" cy="190.187" r="8.38527" stroke-width="0.5" stroke="black" fill="red"/>
  <circle cx="946.006" cy="190.187" r="5.04198" stroke-width="0.5" stroke="red" fill="red"/>
   </g>
  </g>
 </g>
  <rect x="775" y="1035" width="200" height="10" stroke-width="2" stroke="rgb(255,255,255)" fill="rgb(0,0,0)"/>
  <text x="781.25" y="1028.75"
   font-family="Arial" font-size="25" fill="black" >
   200 &#956;m
  </text>
  <text x="25" y="1045"
   font-family="Arial" font-size="18.75" fill="black" >
   0 days, 0 hours, 2 minutes, and 39.2570 seconds
  </text>
  <rect x="0" y="70" width="1000" height="1000" stroke-width="2" stroke="rgb(0,0,0)" fill="none"/>
</svg>
