<?xml version="1.0" encoding="UTF-8" standalone="no"?>
<!-- Created with PhysiCell (http://PhysiCell.MathCancer.org/) -->
<svg 
 xmlns:dc="http://purl.org/dc/elements/1.1/" 
 xmlns:cc="http://creativecommons.org/ns#" 
 xmlns:rdf="http://www.w3.org/1999/02/22-rdf-syntax-ns#" 
 xmlns:svg="http://www.w3.org/2000/svg" 
 xmlns="http://www.w3.org/2000/svg" 
 version="1.1" 
 width="1000" 
 height="1070" 
 id="svg2">
  <rect x="0" y="0" width="1000" height="1070" stroke-width="2" stroke="white" fill="white"/>
  <text x="12.5" y="30"
   font-family="Arial" font-size="25" fill="black" >
   Current time: 1 days, 9 hours, and 30.00 minutes, z = 0.00 &#956;m
  </text>
  <text x="12.5" y="57.5"
   font-family="Arial" font-size="23.75" fill="black" >
   176 agents
  </text>
 <g id="tissue" 
    transform="translate(0,1070) scale(1,-1)">
  <g id="ECM">
  </g>
  <g id="cells">
   <g id="cell0">
  <circle cx="480.437" cy="608.978" r="8.39742" stroke-width="0.5" stroke="black" fill="grey"/>
  <circle cx="480.437" cy="608.978" r="5.04664" stroke-width="0.5" stroke="grey" fill="grey"/>
   </g>
   <g id="cell118">
  <circle cx="847.656" cy="572.911" r="9.50513" stroke-width="0.5" stroke="black" fill="yellow"/>
  <circle cx="847.656" cy="572.911" r="5.77739" stroke-width="0.5" stroke="yellow" fill="yellow"/>
   </g>
   <g id="cell100">
  <circle cx="134.25" cy="811.824" r="8.39607" stroke-width="0.5" stroke="black" fill="yellow"/>
  <circle cx="134.25" cy="811.824" r="5.04614" stroke-width="0.5" stroke="yellow" fill="yellow"/>
   </g>
   <g id="cell3">
  <circle cx="652.114" cy="663.293" r="8.39191" stroke-width="0.5" stroke="black" fill="grey"/>
  <circle cx="652.114" cy="663.293" r="5.04457" stroke-width="0.5" stroke="grey" fill="grey"/>
   </g>
   <g id="cell103">
  <circle cx="810.773" cy="881.9" r="9.33662" stroke-width="0.5" stroke="black" fill="yellow"/>
  <circle cx="810.773" cy="881.9" r="5.67668" stroke-width="0.5" stroke="yellow" fill="yellow"/>
   </g>
   <g id="cell135">
  <circle cx="132.446" cy="784.043" r="10.5419" stroke-width="0.5" stroke="black" fill="yellow"/>
  <circle cx="132.446" cy="784.043" r="6.34314" stroke-width="0.5" stroke="yellow" fill="yellow"/>
   </g>
   <g id="cell185">
  <circle cx="834.988" cy="386.316" r="10.4251" stroke-width="0.5" stroke="black" fill="yellow"/>
  <circle cx="834.988" cy="386.316" r="6.28988" stroke-width="0.5" stroke="yellow" fill="yellow"/>
   </g>
   <g id="cell7">
  <circle cx="845.158" cy="465.561" r="10.5636" stroke-width="0.5" stroke="black" fill="grey"/>
  <circle cx="845.158" cy="465.561" r="6.35206" stroke-width="0.5" stroke="grey" fill="grey"/>
   </g>
   <g id="cell192">
  <circle cx="825.853" cy="416.328" r="10.1085" stroke-width="0.5" stroke="black" fill="yellow"/>
  <circle cx="825.853" cy="416.328" r="6.12549" stroke-width="0.5" stroke="yellow" fill="yellow"/>
   </g>
   <g id="cell112">
  <circle cx="749.733" cy="728.273" r="1.25137" stroke-width="0.5" stroke="black" fill="yellow"/>
  <circle cx="749.733" cy="728.273" r="1.24532" stroke-width="0.5" stroke="black" fill="black"/>
   </g>
   <g id="cell176">
  <circle cx="266.257" cy="50.5857" r="10.3987" stroke-width="0.5" stroke="black" fill="red"/>
  <circle cx="266.257" cy="50.5857" r="6.27693" stroke-width="0.5" stroke="red" fill="red"/>
   </g>
   <g id="cell186">
  <circle cx="80.3424" cy="566.894" r="8.41163" stroke-width="0.5" stroke="black" fill="yellow"/>
  <circle cx="80.3424" cy="566.894" r="5.0514" stroke-width="0.5" stroke="yellow" fill="yellow"/>
   </g>
   <g id="cell104">
  <circle cx="783.958" cy="422.522" r="8.3925" stroke-width="0.5" stroke="black" fill="yellow"/>
  <circle cx="783.958" cy="422.522" r="5.04479" stroke-width="0.5" stroke="yellow" fill="yellow"/>
   </g>
   <g id="cell102">
  <circle cx="655.933" cy="156.059" r="10.5036" stroke-width="0.5" stroke="black" fill="yellow"/>
  <circle cx="655.933" cy="156.059" r="6.3265" stroke-width="0.5" stroke="yellow" fill="yellow"/>
   </g>
   <g id="cell98">
  <circle cx="865.585" cy="388.095" r="10.4566" stroke-width="0.5" stroke="black" fill="yellow"/>
  <circle cx="865.585" cy="388.095" r="6.30489" stroke-width="0.5" stroke="yellow" fill="yellow"/>
   </g>
   <g id="cell97">
  <circle cx="407.204" cy="104.6" r="10.4248" stroke-width="0.5" stroke="black" fill="yellow"/>
  <circle cx="407.204" cy="104.6" r="6.2898" stroke-width="0.5" stroke="yellow" fill="yellow"/>
   </g>
   <g id="cell16">
  <circle cx="131.186" cy="708.3" r="1.61598" stroke-width="0.5" stroke="black" fill="grey"/>
  <circle cx="131.186" cy="708.3" r="1.60658" stroke-width="0.5" stroke="black" fill="black"/>
   </g>
   <g id="cell116">
  <circle cx="796.182" cy="435.065" r="10.1866" stroke-width="0.5" stroke="black" fill="yellow"/>
  <circle cx="796.182" cy="435.065" r="6.16772" stroke-width="0.5" stroke="yellow" fill="yellow"/>
   </g>
   <g id="cell177">
  <circle cx="432.896" cy="322.765" r="9.92585" stroke-width="0.5" stroke="black" fill="red"/>
  <circle cx="432.896" cy="322.765" r="6.02351" stroke-width="0.5" stroke="red" fill="red"/>
   </g>
   <g id="cell101">
  <circle cx="143.905" cy="142.851" r="8.40826" stroke-width="0.5" stroke="black" fill="yellow"/>
  <circle cx="143.905" cy="142.851" r="5.05039" stroke-width="0.5" stroke="yellow" fill="yellow"/>
   </g>
   <g id="cell184">
  <circle cx="505.808" cy="307.954" r="10.5183" stroke-width="0.5" stroke="black" fill="red"/>
  <circle cx="505.808" cy="307.954" r="6.33307" stroke-width="0.5" stroke="red" fill="red"/>
   </g>
   <g id="cell99">
  <circle cx="489.729" cy="976.622" r="10.4949" stroke-width="0.5" stroke="black" fill="yellow"/>
  <circle cx="489.729" cy="976.622" r="6.32261" stroke-width="0.5" stroke="yellow" fill="yellow"/>
   </g>
   <g id="cell115">
  <circle cx="237.699" cy="48.6065" r="10.5402" stroke-width="0.5" stroke="black" fill="yellow"/>
  <circle cx="237.699" cy="48.6065" r="6.34244" stroke-width="0.5" stroke="yellow" fill="yellow"/>
   </g>
   <g id="cell191">
  <circle cx="761.032" cy="116.742" r="10.3862" stroke-width="0.5" stroke="black" fill="grey"/>
  <circle cx="761.032" cy="116.742" r="6.27093" stroke-width="0.5" stroke="grey" fill="grey"/>
   </g>
   <g id="cell153">
  <circle cx="211.699" cy="380.155" r="10.5605" stroke-width="0.5" stroke="black" fill="red"/>
  <circle cx="211.699" cy="380.155" r="6.35082" stroke-width="0.5" stroke="red" fill="red"/>
   </g>
   <g id="cell105">
  <circle cx="57.88" cy="403.148" r="9.8814" stroke-width="0.5" stroke="black" fill="yellow"/>
  <circle cx="57.88" cy="403.148" r="5.99933" stroke-width="0.5" stroke="yellow" fill="yellow"/>
   </g>
   <g id="cell211">
  <circle cx="659.997" cy="648.259" r="8.39191" stroke-width="0.5" stroke="black" fill="grey"/>
  <circle cx="659.997" cy="648.259" r="5.04457" stroke-width="0.5" stroke="grey" fill="grey"/>
   </g>
   <g id="cell117">
  <circle cx="879.206" cy="367.55" r="8.41133" stroke-width="0.5" stroke="black" fill="yellow"/>
  <circle cx="879.206" cy="367.55" r="5.05132" stroke-width="0.5" stroke="yellow" fill="yellow"/>
   </g>
   <g id="cell28">
  <circle cx="700.85" cy="102.098" r="8.41244" stroke-width="0.5" stroke="black" fill="grey"/>
  <circle cx="700.85" cy="102.098" r="5.05161" stroke-width="0.5" stroke="grey" fill="grey"/>
   </g>
   <g id="cell29">
  <circle cx="966.027" cy="656.383" r="10.5091" stroke-width="0.5" stroke="black" fill="grey"/>
  <circle cx="966.027" cy="656.383" r="6.3289" stroke-width="0.5" stroke="grey" fill="grey"/>
   </g>
   <g id="cell30">
  <circle cx="772.122" cy="119.986" r="9.90543" stroke-width="0.5" stroke="black" fill="grey"/>
  <circle cx="772.122" cy="119.986" r="6.01211" stroke-width="0.5" stroke="grey" fill="grey"/>
   </g>
   <g id="cell190">
  <circle cx="455.497" cy="134.276" r="8.41121" stroke-width="0.5" stroke="black" fill="yellow"/>
  <circle cx="455.497" cy="134.276" r="5.05128" stroke-width="0.5" stroke="yellow" fill="yellow"/>
   </g>
   <g id="cell114">
  <circle cx="50.0798" cy="382.884" r="10.489" stroke-width="0.5" stroke="black" fill="yellow"/>
  <circle cx="50.0798" cy="382.884" r="6.31989" stroke-width="0.5" stroke="yellow" fill="yellow"/>
   </g>
   <g id="cell107">
  <circle cx="381.819" cy="506.471" r="8.60963" stroke-width="0.5" stroke="black" fill="yellow"/>
  <circle cx="381.819" cy="506.471" r="5.19922" stroke-width="0.5" stroke="yellow" fill="yellow"/>
   </g>
   <g id="cell106">
  <circle cx="40.7937" cy="907.058" r="8.38944" stroke-width="0.5" stroke="black" fill="yellow"/>
  <circle cx="40.7937" cy="907.058" r="5.04362" stroke-width="0.5" stroke="yellow" fill="yellow"/>
   </g>
   <g id="cell35">
  <circle cx="935.671" cy="47.5301" r="9.52862" stroke-width="0.5" stroke="black" fill="grey"/>
  <circle cx="935.671" cy="47.5301" r="5.7933" stroke-width="0.5" stroke="grey" fill="grey"/>
   </g>
   <g id="cell109">
  <circle cx="387.463" cy="985.195" r="10.308" stroke-width="0.5" stroke="black" fill="yellow"/>
  <circle cx="387.463" cy="985.195" r="6.23128" stroke-width="0.5" stroke="yellow" fill="yellow"/>
   </g>
   <g id="cell111">
  <circle cx="812.612" cy="413.886" r="8.41121" stroke-width="0.5" stroke="black" fill="yellow"/>
  <circle cx="812.612" cy="413.886" r="5.05128" stroke-width="0.5" stroke="yellow" fill="yellow"/>
   </g>
   <g id="cell131">
  <circle cx="650.475" cy="586.703" r="10.5535" stroke-width="0.5" stroke="black" fill="grey"/>
  <circle cx="650.475" cy="586.703" r="6.34796" stroke-width="0.5" stroke="grey" fill="grey"/>
   </g>
   <g id="cell110">
  <circle cx="899.593" cy="264.733" r="9.1955" stroke-width="0.5" stroke="black" fill="yellow"/>
  <circle cx="899.593" cy="264.733" r="5.58873" stroke-width="0.5" stroke="yellow" fill="yellow"/>
   </g>
   <g id="cell40">
  <circle cx="162.167" cy="410.091" r="10.5508" stroke-width="0.5" stroke="black" fill="red"/>
  <circle cx="162.167" cy="410.091" r="6.34685" stroke-width="0.5" stroke="red" fill="red"/>
   </g>
   <g id="cell41">
  <circle cx="685.834" cy="750.095" r="10.5583" stroke-width="0.5" stroke="black" fill="red"/>
  <circle cx="685.834" cy="750.095" r="6.34993" stroke-width="0.5" stroke="red" fill="red"/>
   </g>
   <g id="cell42">
  <circle cx="150.041" cy="737.764" r="10.5231" stroke-width="0.5" stroke="black" fill="red"/>
  <circle cx="150.041" cy="737.764" r="6.33511" stroke-width="0.5" stroke="red" fill="red"/>
   </g>
   <g id="cell43">
  <circle cx="853.766" cy="369.573" r="10.523" stroke-width="0.5" stroke="black" fill="red"/>
  <circle cx="853.766" cy="369.573" r="6.33506" stroke-width="0.5" stroke="red" fill="red"/>
   </g>
   <g id="cell44">
  <circle cx="843.79" cy="51.231" r="10.5273" stroke-width="0.5" stroke="black" fill="red"/>
  <circle cx="843.79" cy="51.231" r="6.33691" stroke-width="0.5" stroke="red" fill="red"/>
   </g>
   <g id="cell45">
  <circle cx="695.699" cy="812.175" r="10.199" stroke-width="0.5" stroke="black" fill="red"/>
  <circle cx="695.699" cy="812.175" r="6.17419" stroke-width="0.5" stroke="red" fill="red"/>
   </g>
   <g id="cell46">
  <circle cx="52.2467" cy="907.523" r="10.0953" stroke-width="0.5" stroke="black" fill="red"/>
  <circle cx="52.2467" cy="907.523" r="6.11794" stroke-width="0.5" stroke="red" fill="red"/>
   </g>
   <g id="cell47">
  <circle cx="893.326" cy="452.317" r="10.5465" stroke-width="0.5" stroke="black" fill="red"/>
  <circle cx="893.326" cy="452.317" r="6.34508" stroke-width="0.5" stroke="red" fill="red"/>
   </g>
   <g id="cell48">
  <circle cx="961.126" cy="30.6313" r="8.39359" stroke-width="0.5" stroke="black" fill="red"/>
  <circle cx="961.126" cy="30.6313" r="5.04521" stroke-width="0.5" stroke="red" fill="red"/>
   </g>
   <g id="cell49">
  <circle cx="467.819" cy="793.846" r="10.4722" stroke-width="0.5" stroke="black" fill="red"/>
  <circle cx="467.819" cy="793.846" r="6.31215" stroke-width="0.5" stroke="red" fill="red"/>
   </g>
   <g id="cell50">
  <circle cx="14.5806" cy="436.857" r="10.5369" stroke-width="0.5" stroke="black" fill="red"/>
  <circle cx="14.5806" cy="436.857" r="6.34101" stroke-width="0.5" stroke="red" fill="red"/>
   </g>
   <g id="cell51">
  <circle cx="841.253" cy="156.924" r="8.38743" stroke-width="0.5" stroke="black" fill="red"/>
  <circle cx="841.253" cy="156.924" r="5.04284" stroke-width="0.5" stroke="red" fill="red"/>
   </g>
   <g id="cell96">
  <circle cx="834.116" cy="557.925" r="10.5449" stroke-width="0.5" stroke="black" fill="yellow"/>
  <circle cx="834.116" cy="557.925" r="6.34442" stroke-width="0.5" stroke="yellow" fill="yellow"/>
   </g>
   <g id="cell53">
  <circle cx="675.289" cy="273.26" r="8.39462" stroke-width="0.5" stroke="black" fill="red"/>
  <circle cx="675.289" cy="273.26" r="5.0456" stroke-width="0.5" stroke="red" fill="red"/>
   </g>
   <g id="cell54">
  <circle cx="420.551" cy="927.789" r="8.41225" stroke-width="0.5" stroke="black" fill="red"/>
  <circle cx="420.551" cy="927.789" r="5.05156" stroke-width="0.5" stroke="red" fill="red"/>
   </g>
   <g id="cell55">
  <circle cx="202.68" cy="633.268" r="8.68677" stroke-width="0.5" stroke="black" fill="red"/>
  <circle cx="202.68" cy="633.268" r="5.25341" stroke-width="0.5" stroke="red" fill="red"/>
   </g>
   <g id="cell56">
  <circle cx="652.558" cy="839.345" r="10.5583" stroke-width="0.5" stroke="black" fill="red"/>
  <circle cx="652.558" cy="839.345" r="6.34992" stroke-width="0.5" stroke="red" fill="red"/>
   </g>
   <g id="cell57">
  <circle cx="477.279" cy="530.453" r="10.5627" stroke-width="0.5" stroke="black" fill="red"/>
  <circle cx="477.279" cy="530.453" r="6.35167" stroke-width="0.5" stroke="red" fill="red"/>
   </g>
   <g id="cell58">
  <circle cx="14.5827" cy="856.893" r="10.5418" stroke-width="0.5" stroke="black" fill="red"/>
  <circle cx="14.5827" cy="856.893" r="6.34311" stroke-width="0.5" stroke="red" fill="red"/>
   </g>
   <g id="cell59">
  <circle cx="64.533" cy="940.196" r="10.5478" stroke-width="0.5" stroke="black" fill="red"/>
  <circle cx="64.533" cy="940.196" r="6.34566" stroke-width="0.5" stroke="red" fill="red"/>
   </g>
   <g id="cell60">
  <circle cx="222.974" cy="34.5766" r="10.3987" stroke-width="0.5" stroke="black" fill="red"/>
  <circle cx="222.974" cy="34.5766" r="6.27693" stroke-width="0.5" stroke="red" fill="red"/>
   </g>
   <g id="cell61">
  <circle cx="790.109" cy="134.619" r="10.2629" stroke-width="0.5" stroke="black" fill="red"/>
  <circle cx="790.109" cy="134.619" r="6.20789" stroke-width="0.5" stroke="red" fill="red"/>
   </g>
   <g id="cell62">
  <circle cx="722.995" cy="817.667" r="10.5467" stroke-width="0.5" stroke="black" fill="red"/>
  <circle cx="722.995" cy="817.667" r="6.34513" stroke-width="0.5" stroke="red" fill="red"/>
   </g>
   <g id="cell63">
  <circle cx="344.649" cy="173.069" r="10.4828" stroke-width="0.5" stroke="black" fill="red"/>
  <circle cx="344.649" cy="173.069" r="6.31699" stroke-width="0.5" stroke="red" fill="red"/>
   </g>
   <g id="cell64">
  <circle cx="615.416" cy="524.899" r="8.38891" stroke-width="0.5" stroke="black" fill="red"/>
  <circle cx="615.416" cy="524.899" r="5.0434" stroke-width="0.5" stroke="red" fill="red"/>
   </g>
   <g id="cell188">
  <circle cx="864.043" cy="393.153" r="10.2902" stroke-width="0.5" stroke="black" fill="yellow"/>
  <circle cx="864.043" cy="393.153" r="6.22222" stroke-width="0.5" stroke="yellow" fill="yellow"/>
   </g>
   <g id="cell66">
  <circle cx="13.2671" cy="129.093" r="10.527" stroke-width="0.5" stroke="black" fill="red"/>
  <circle cx="13.2671" cy="129.093" r="6.33684" stroke-width="0.5" stroke="red" fill="red"/>
   </g>
   <g id="cell197">
  <circle cx="738.929" cy="678.855" r="8.84242" stroke-width="0.5" stroke="black" fill="yellow"/>
  <circle cx="738.929" cy="678.855" r="5.36104" stroke-width="0.5" stroke="yellow" fill="yellow"/>
   </g>
   <g id="cell68">
  <circle cx="775.816" cy="223.943" r="10.548" stroke-width="0.5" stroke="black" fill="red"/>
  <circle cx="775.816" cy="223.943" r="6.3457" stroke-width="0.5" stroke="red" fill="red"/>
   </g>
   <g id="cell69">
  <circle cx="428.027" cy="300.323" r="9.56461" stroke-width="0.5" stroke="black" fill="red"/>
  <circle cx="428.027" cy="300.323" r="5.81314" stroke-width="0.5" stroke="red" fill="red"/>
   </g>
   <g id="cell70">
  <circle cx="533.06" cy="365.259" r="10.4921" stroke-width="0.5" stroke="black" fill="red"/>
  <circle cx="533.06" cy="365.259" r="6.32131" stroke-width="0.5" stroke="red" fill="red"/>
   </g>
   <g id="cell71">
  <circle cx="913.858" cy="505.998" r="8.39463" stroke-width="0.5" stroke="black" fill="red"/>
  <circle cx="913.858" cy="505.998" r="5.0456" stroke-width="0.5" stroke="red" fill="red"/>
   </g>
   <g id="cell72">
  <circle cx="177.823" cy="915.924" r="10.5626" stroke-width="0.5" stroke="black" fill="red"/>
  <circle cx="177.823" cy="915.924" r="6.35167" stroke-width="0.5" stroke="red" fill="red"/>
   </g>
   <g id="cell73">
  <circle cx="604.868" cy="442.287" r="10.5253" stroke-width="0.5" stroke="black" fill="red"/>
  <circle cx="604.868" cy="442.287" r="6.33603" stroke-width="0.5" stroke="red" fill="red"/>
   </g>
   <g id="cell74">
  <circle cx="858.289" cy="937.541" r="10.387" stroke-width="0.5" stroke="black" fill="red"/>
  <circle cx="858.289" cy="937.541" r="6.27113" stroke-width="0.5" stroke="red" fill="red"/>
   </g>
   <g id="cell75">
  <circle cx="105.612" cy="293.9" r="10.5606" stroke-width="0.5" stroke="black" fill="red"/>
  <circle cx="105.612" cy="293.9" r="6.35083" stroke-width="0.5" stroke="red" fill="red"/>
   </g>
   <g id="cell76">
  <circle cx="768.19" cy="426.735" r="10.4442" stroke-width="0.5" stroke="black" fill="red"/>
  <circle cx="768.19" cy="426.735" r="6.29897" stroke-width="0.5" stroke="red" fill="red"/>
   </g>
   <g id="cell77">
  <circle cx="688.707" cy="824.863" r="10.5293" stroke-width="0.5" stroke="black" fill="red"/>
  <circle cx="688.707" cy="824.863" r="6.33778" stroke-width="0.5" stroke="red" fill="red"/>
   </g>
   <g id="cell78">
  <circle cx="579.434" cy="293.575" r="10.5209" stroke-width="0.5" stroke="black" fill="red"/>
  <circle cx="579.434" cy="293.575" r="6.33413" stroke-width="0.5" stroke="red" fill="red"/>
   </g>
   <g id="cell79">
  <circle cx="986.641" cy="703.614" r="10.444" stroke-width="0.5" stroke="black" fill="red"/>
  <circle cx="986.641" cy="703.614" r="6.29891" stroke-width="0.5" stroke="red" fill="red"/>
   </g>
   <g id="cell80">
  <circle cx="744.36" cy="720.895" r="9.83954" stroke-width="0.5" stroke="black" fill="yellow"/>
  <circle cx="744.36" cy="720.895" r="5.97526" stroke-width="0.5" stroke="yellow" fill="yellow"/>
   </g>
   <g id="cell81">
  <circle cx="478.482" cy="965.52" r="10.5573" stroke-width="0.5" stroke="black" fill="yellow"/>
  <circle cx="478.482" cy="965.52" r="6.3495" stroke-width="0.5" stroke="yellow" fill="yellow"/>
   </g>
   <g id="cell82">
  <circle cx="618.727" cy="400.706" r="8.39068" stroke-width="0.5" stroke="black" fill="yellow"/>
  <circle cx="618.727" cy="400.706" r="5.04411" stroke-width="0.5" stroke="yellow" fill="yellow"/>
   </g>
   <g id="cell83">
  <circle cx="583.223" cy="595.446" r="10.5465" stroke-width="0.5" stroke="black" fill="yellow"/>
  <circle cx="583.223" cy="595.446" r="6.34507" stroke-width="0.5" stroke="yellow" fill="yellow"/>
   </g>
   <g id="cell84">
  <circle cx="18.6378" cy="498.213" r="10.4608" stroke-width="0.5" stroke="black" fill="yellow"/>
  <circle cx="18.6378" cy="498.213" r="6.30682" stroke-width="0.5" stroke="yellow" fill="yellow"/>
   </g>
   <g id="cell85">
  <circle cx="778.965" cy="674.664" r="1.6832" stroke-width="0.5" stroke="black" fill="yellow"/>
  <circle cx="778.965" cy="674.664" r="1.67111" stroke-width="0.5" stroke="black" fill="black"/>
   </g>
   <g id="cell86">
  <circle cx="339.459" cy="423.746" r="10.1365" stroke-width="0.5" stroke="black" fill="yellow"/>
  <circle cx="339.459" cy="423.746" r="6.1406" stroke-width="0.5" stroke="yellow" fill="yellow"/>
   </g>
   <g id="cell87">
  <circle cx="789.88" cy="398.121" r="10.2109" stroke-width="0.5" stroke="black" fill="yellow"/>
  <circle cx="789.88" cy="398.121" r="6.18038" stroke-width="0.5" stroke="yellow" fill="yellow"/>
   </g>
   <g id="cell200">
  <circle cx="987.044" cy="102.522" r="8.40378" stroke-width="0.5" stroke="black" fill="grey"/>
  <circle cx="987.044" cy="102.522" r="5.0489" stroke-width="0.5" stroke="grey" fill="grey"/>
   </g>
   <g id="cell89">
  <circle cx="34.5568" cy="540.227" r="10.4394" stroke-width="0.5" stroke="black" fill="yellow"/>
  <circle cx="34.5568" cy="540.227" r="6.29673" stroke-width="0.5" stroke="yellow" fill="yellow"/>
   </g>
   <g id="cell193">
  <circle cx="185.271" cy="673.554" r="10.2091" stroke-width="0.5" stroke="black" fill="red"/>
  <circle cx="185.271" cy="673.554" r="6.17988" stroke-width="0.5" stroke="red" fill="red"/>
   </g>
   <g id="cell91">
  <circle cx="19.6812" cy="631.733" r="9.98167" stroke-width="0.5" stroke="black" fill="yellow"/>
  <circle cx="19.6812" cy="631.733" r="6.05502" stroke-width="0.5" stroke="yellow" fill="yellow"/>
   </g>
   <g id="cell92">
  <circle cx="680.726" cy="281.481" r="10.5331" stroke-width="0.5" stroke="black" fill="yellow"/>
  <circle cx="680.726" cy="281.481" r="6.33942" stroke-width="0.5" stroke="yellow" fill="yellow"/>
   </g>
   <g id="cell93">
  <circle cx="219.576" cy="861.865" r="9.9821" stroke-width="0.5" stroke="black" fill="yellow"/>
  <circle cx="219.576" cy="861.865" r="6.05514" stroke-width="0.5" stroke="yellow" fill="yellow"/>
   </g>
   <g id="cell94">
  <circle cx="399.518" cy="95.3988" r="10.4758" stroke-width="0.5" stroke="black" fill="yellow"/>
  <circle cx="399.518" cy="95.3988" r="6.31379" stroke-width="0.5" stroke="yellow" fill="yellow"/>
   </g>
   <g id="cell95">
  <circle cx="944.729" cy="903.265" r="10.5464" stroke-width="0.5" stroke="black" fill="yellow"/>
  <circle cx="944.729" cy="903.265" r="6.34505" stroke-width="0.5" stroke="yellow" fill="yellow"/>
   </g>
   <g id="cell121">
  <circle cx="50.1221" cy="482.409" r="9.47416" stroke-width="0.5" stroke="black" fill="red"/>
  <circle cx="50.1221" cy="482.409" r="5.75872" stroke-width="0.5" stroke="red" fill="red"/>
   </g>
   <g id="cell122">
  <circle cx="706.386" cy="433.542" r="8.39074" stroke-width="0.5" stroke="black" fill="yellow"/>
  <circle cx="706.386" cy="433.542" r="5.04412" stroke-width="0.5" stroke="yellow" fill="yellow"/>
   </g>
   <g id="cell123">
  <circle cx="306.814" cy="900.589" r="9.90645" stroke-width="0.5" stroke="black" fill="yellow"/>
  <circle cx="306.814" cy="900.589" r="6.0124" stroke-width="0.5" stroke="yellow" fill="yellow"/>
   </g>
   <g id="cell124">
  <circle cx="468.474" cy="647.291" r="10.5351" stroke-width="0.5" stroke="black" fill="grey"/>
  <circle cx="468.474" cy="647.291" r="6.34024" stroke-width="0.5" stroke="grey" fill="grey"/>
   </g>
   <g id="cell125">
  <circle cx="807.933" cy="439.831" r="8.79124" stroke-width="0.5" stroke="black" fill="yellow"/>
  <circle cx="807.933" cy="439.831" r="5.32994" stroke-width="0.5" stroke="yellow" fill="yellow"/>
   </g>
   <g id="cell126">
  <circle cx="925.726" cy="186.246" r="10.5294" stroke-width="0.5" stroke="black" fill="red"/>
  <circle cx="925.726" cy="186.246" r="6.3378" stroke-width="0.5" stroke="red" fill="red"/>
   </g>
   <g id="cell127">
  <circle cx="912.483" cy="553.346" r="8.3925" stroke-width="0.5" stroke="black" fill="red"/>
  <circle cx="912.483" cy="553.346" r="5.04479" stroke-width="0.5" stroke="red" fill="red"/>
   </g>
   <g id="cell128">
  <circle cx="924.596" cy="31.3273" r="10.5116" stroke-width="0.5" stroke="black" fill="red"/>
  <circle cx="924.596" cy="31.3273" r="6.33002" stroke-width="0.5" stroke="red" fill="red"/>
   </g>
   <g id="cell129">
  <circle cx="981.032" cy="676.633" r="2.31492" stroke-width="0.5" stroke="black" fill="grey"/>
  <circle cx="981.032" cy="676.633" r="2.23095" stroke-width="0.5" stroke="black" fill="black"/>
   </g>
   <g id="cell130">
  <circle cx="910.726" cy="595.37" r="8.41249" stroke-width="0.5" stroke="black" fill="yellow"/>
  <circle cx="910.726" cy="595.37" r="5.05162" stroke-width="0.5" stroke="yellow" fill="yellow"/>
   </g>
   <g id="cell132">
  <circle cx="48.6059" cy="928.909" r="10.556" stroke-width="0.5" stroke="black" fill="red"/>
  <circle cx="48.6059" cy="928.909" r="6.34898" stroke-width="0.5" stroke="red" fill="red"/>
   </g>
   <g id="cell133">
  <circle cx="647.819" cy="403.33" r="10.4488" stroke-width="0.5" stroke="black" fill="red"/>
  <circle cx="647.819" cy="403.33" r="6.30109" stroke-width="0.5" stroke="red" fill="red"/>
   </g>
   <g id="cell201">
  <circle cx="488.661" cy="603.578" r="9.07332" stroke-width="0.5" stroke="black" fill="grey"/>
  <circle cx="488.661" cy="603.578" r="5.51378" stroke-width="0.5" stroke="grey" fill="grey"/>
   </g>
   <g id="cell136">
  <circle cx="669.279" cy="464.788" r="10.535" stroke-width="0.5" stroke="black" fill="red"/>
  <circle cx="669.279" cy="464.788" r="6.34023" stroke-width="0.5" stroke="red" fill="red"/>
   </g>
   <g id="cell137">
  <circle cx="776.378" cy="663.593" r="10.3472" stroke-width="0.5" stroke="black" fill="yellow"/>
  <circle cx="776.378" cy="663.593" r="6.25122" stroke-width="0.5" stroke="yellow" fill="yellow"/>
   </g>
   <g id="cell138">
  <circle cx="703.582" cy="247.683" r="8.39357" stroke-width="0.5" stroke="black" fill="red"/>
  <circle cx="703.582" cy="247.683" r="5.0452" stroke-width="0.5" stroke="red" fill="red"/>
   </g>
   <g id="cell139">
  <circle cx="788.975" cy="740.649" r="9.6218" stroke-width="0.5" stroke="black" fill="yellow"/>
  <circle cx="788.975" cy="740.649" r="5.84705" stroke-width="0.5" stroke="yellow" fill="yellow"/>
   </g>
   <g id="cell140">
  <circle cx="96.2315" cy="363.663" r="8.39247" stroke-width="0.5" stroke="black" fill="red"/>
  <circle cx="96.2315" cy="363.663" r="5.04479" stroke-width="0.5" stroke="red" fill="red"/>
   </g>
   <g id="cell141">
  <circle cx="20.2433" cy="984.693" r="8.49103" stroke-width="0.5" stroke="black" fill="yellow"/>
  <circle cx="20.2433" cy="984.693" r="5.11807" stroke-width="0.5" stroke="yellow" fill="yellow"/>
   </g>
   <g id="cell142">
  <circle cx="700.17" cy="691.507" r="8.41245" stroke-width="0.5" stroke="black" fill="red"/>
  <circle cx="700.17" cy="691.507" r="5.05161" stroke-width="0.5" stroke="red" fill="red"/>
   </g>
   <g id="cell143">
  <circle cx="114.279" cy="706.81" r="10.2631" stroke-width="0.5" stroke="black" fill="red"/>
  <circle cx="114.279" cy="706.81" r="6.20792" stroke-width="0.5" stroke="red" fill="red"/>
   </g>
   <g id="cell144">
  <circle cx="658.064" cy="144.917" r="10.5606" stroke-width="0.5" stroke="black" fill="grey"/>
  <circle cx="658.064" cy="144.917" r="6.35083" stroke-width="0.5" stroke="grey" fill="grey"/>
   </g>
   <g id="cell145">
  <circle cx="541.258" cy="512.741" r="10.0953" stroke-width="0.5" stroke="black" fill="red"/>
  <circle cx="541.258" cy="512.741" r="6.11793" stroke-width="0.5" stroke="red" fill="red"/>
   </g>
   <g id="cell146">
  <circle cx="292.397" cy="216.285" r="10.5547" stroke-width="0.5" stroke="black" fill="red"/>
  <circle cx="292.397" cy="216.285" r="6.34846" stroke-width="0.5" stroke="red" fill="red"/>
   </g>
   <g id="cell147">
  <circle cx="666.321" cy="379.781" r="10.368" stroke-width="0.5" stroke="black" fill="yellow"/>
  <circle cx="666.321" cy="379.781" r="6.26167" stroke-width="0.5" stroke="yellow" fill="yellow"/>
   </g>
   <g id="cell148">
  <circle cx="216.132" cy="749.64" r="8.59381" stroke-width="0.5" stroke="black" fill="grey"/>
  <circle cx="216.132" cy="749.64" r="5.19345" stroke-width="0.5" stroke="grey" fill="grey"/>
   </g>
   <g id="cell149">
  <circle cx="855.304" cy="458.432" r="8.38738" stroke-width="0.5" stroke="black" fill="red"/>
  <circle cx="855.304" cy="458.432" r="5.04283" stroke-width="0.5" stroke="red" fill="red"/>
   </g>
   <g id="cell150">
  <circle cx="169.418" cy="29.7107" r="10.5038" stroke-width="0.5" stroke="black" fill="yellow"/>
  <circle cx="169.418" cy="29.7107" r="6.32653" stroke-width="0.5" stroke="yellow" fill="yellow"/>
   </g>
   <g id="cell151">
  <circle cx="201.026" cy="897.463" r="10.4443" stroke-width="0.5" stroke="black" fill="red"/>
  <circle cx="201.026" cy="897.463" r="6.299" stroke-width="0.5" stroke="red" fill="red"/>
   </g>
   <g id="cell152">
  <circle cx="610.319" cy="855.566" r="10.5626" stroke-width="0.5" stroke="black" fill="red"/>
  <circle cx="610.319" cy="855.566" r="6.35167" stroke-width="0.5" stroke="red" fill="red"/>
   </g>
   <g id="cell154">
  <circle cx="889.499" cy="32.833" r="10.4982" stroke-width="0.5" stroke="black" fill="red"/>
  <circle cx="889.499" cy="32.833" r="6.32401" stroke-width="0.5" stroke="red" fill="red"/>
   </g>
   <g id="cell155">
  <circle cx="654.713" cy="884.465" r="10.5583" stroke-width="0.5" stroke="black" fill="red"/>
  <circle cx="654.713" cy="884.465" r="6.34992" stroke-width="0.5" stroke="red" fill="red"/>
   </g>
   <g id="cell156">
  <circle cx="886.715" cy="511.462" r="2.17901" stroke-width="0.5" stroke="black" fill="grey"/>
  <circle cx="886.715" cy="511.462" r="2.11853" stroke-width="0.5" stroke="black" fill="black"/>
   </g>
   <g id="cell157">
  <circle cx="618.424" cy="639.259" r="10.4892" stroke-width="0.5" stroke="black" fill="yellow"/>
  <circle cx="618.424" cy="639.259" r="6.31993" stroke-width="0.5" stroke="yellow" fill="yellow"/>
   </g>
   <g id="cell198">
  <circle cx="59.0799" cy="414.88" r="9.69693" stroke-width="0.5" stroke="black" fill="yellow"/>
  <circle cx="59.0799" cy="414.88" r="5.89263" stroke-width="0.5" stroke="yellow" fill="yellow"/>
   </g>
   <g id="cell159">
  <circle cx="681.623" cy="276.014" r="10.4398" stroke-width="0.5" stroke="black" fill="yellow"/>
  <circle cx="681.623" cy="276.014" r="6.29684" stroke-width="0.5" stroke="yellow" fill="yellow"/>
   </g>
   <g id="cell160">
  <circle cx="639.858" cy="295.433" r="10.5009" stroke-width="0.5" stroke="black" fill="red"/>
  <circle cx="639.858" cy="295.433" r="6.32528" stroke-width="0.5" stroke="red" fill="red"/>
   </g>
   <g id="cell199">
  <circle cx="825.893" cy="859.452" r="8.40494" stroke-width="0.5" stroke="black" fill="yellow"/>
  <circle cx="825.893" cy="859.452" r="5.04929" stroke-width="0.5" stroke="yellow" fill="yellow"/>
   </g>
   <g id="cell162">
  <circle cx="843.695" cy="98.7981" r="10.5582" stroke-width="0.5" stroke="black" fill="red"/>
  <circle cx="843.695" cy="98.7981" r="6.3499" stroke-width="0.5" stroke="red" fill="red"/>
   </g>
   <g id="cell163">
  <circle cx="419.741" cy="949.515" r="10.5558" stroke-width="0.5" stroke="black" fill="red"/>
  <circle cx="419.741" cy="949.515" r="6.34894" stroke-width="0.5" stroke="red" fill="red"/>
   </g>
   <g id="cell164">
  <circle cx="821.198" cy="962.549" r="10.2325" stroke-width="0.5" stroke="black" fill="red"/>
  <circle cx="821.198" cy="962.549" r="6.1919" stroke-width="0.5" stroke="red" fill="red"/>
   </g>
   <g id="cell165">
  <circle cx="827.947" cy="396.554" r="10.5546" stroke-width="0.5" stroke="black" fill="red"/>
  <circle cx="827.947" cy="396.554" r="6.34843" stroke-width="0.5" stroke="red" fill="red"/>
   </g>
   <g id="cell166">
  <circle cx="771.011" cy="500.067" r="10.5533" stroke-width="0.5" stroke="black" fill="yellow"/>
  <circle cx="771.011" cy="500.067" r="6.34791" stroke-width="0.5" stroke="yellow" fill="yellow"/>
   </g>
   <g id="cell167">
  <circle cx="619.405" cy="128.151" r="10.4686" stroke-width="0.5" stroke="black" fill="yellow"/>
  <circle cx="619.405" cy="128.151" r="6.31045" stroke-width="0.5" stroke="yellow" fill="yellow"/>
   </g>
   <g id="cell168">
  <circle cx="933.621" cy="884.246" r="10.5366" stroke-width="0.5" stroke="black" fill="yellow"/>
  <circle cx="933.621" cy="884.246" r="6.34095" stroke-width="0.5" stroke="yellow" fill="yellow"/>
   </g>
   <g id="cell169">
  <circle cx="331.026" cy="988.222" r="10.523" stroke-width="0.5" stroke="black" fill="yellow"/>
  <circle cx="331.026" cy="988.222" r="6.33506" stroke-width="0.5" stroke="yellow" fill="yellow"/>
   </g>
   <g id="cell170">
  <circle cx="53.0827" cy="988.247" r="9.50489" stroke-width="0.5" stroke="black" fill="red"/>
  <circle cx="53.0827" cy="988.247" r="5.77733" stroke-width="0.5" stroke="red" fill="red"/>
   </g>
   <g id="cell171">
  <circle cx="517.544" cy="385.991" r="10.5272" stroke-width="0.5" stroke="black" fill="red"/>
  <circle cx="517.544" cy="385.991" r="6.33688" stroke-width="0.5" stroke="red" fill="red"/>
   </g>
   <g id="cell172">
  <circle cx="486.103" cy="789.251" r="10.5311" stroke-width="0.5" stroke="black" fill="red"/>
  <circle cx="486.103" cy="789.251" r="6.33859" stroke-width="0.5" stroke="red" fill="red"/>
   </g>
   <g id="cell173">
  <circle cx="984.059" cy="425.643" r="9.94508" stroke-width="0.5" stroke="black" fill="red"/>
  <circle cx="984.059" cy="425.643" r="6.03438" stroke-width="0.5" stroke="red" fill="red"/>
   </g>
   <g id="cell174">
  <circle cx="349.985" cy="105.651" r="9.70156" stroke-width="0.5" stroke="black" fill="yellow"/>
  <circle cx="349.985" cy="105.651" r="5.89415" stroke-width="0.5" stroke="yellow" fill="yellow"/>
   </g>
   <g id="cell175">
  <circle cx="17.2455" cy="308.368" r="10.5366" stroke-width="0.5" stroke="black" fill="yellow"/>
  <circle cx="17.2455" cy="308.368" r="6.34094" stroke-width="0.5" stroke="yellow" fill="yellow"/>
   </g>
   <g id="cell178">
  <circle cx="69.2377" cy="168.226" r="10.5184" stroke-width="0.5" stroke="black" fill="red"/>
  <circle cx="69.2377" cy="168.226" r="6.33308" stroke-width="0.5" stroke="red" fill="red"/>
   </g>
   <g id="cell179">
  <circle cx="23.9798" cy="497.103" r="10.3079" stroke-width="0.5" stroke="black" fill="yellow"/>
  <circle cx="23.9798" cy="497.103" r="6.23124" stroke-width="0.5" stroke="yellow" fill="yellow"/>
   </g>
   <g id="cell180">
  <circle cx="32.3899" cy="701.139" r="8.41192" stroke-width="0.5" stroke="black" fill="yellow"/>
  <circle cx="32.3899" cy="701.139" r="5.05148" stroke-width="0.5" stroke="yellow" fill="yellow"/>
   </g>
   <g id="cell181">
  <circle cx="977.297" cy="673.899" r="8.68858" stroke-width="0.5" stroke="black" fill="red"/>
  <circle cx="977.297" cy="673.899" r="5.25396" stroke-width="0.5" stroke="red" fill="red"/>
   </g>
   <g id="cell182">
  <circle cx="492.864" cy="955.921" r="8.41185" stroke-width="0.5" stroke="black" fill="yellow"/>
  <circle cx="492.864" cy="955.921" r="5.05146" stroke-width="0.5" stroke="yellow" fill="yellow"/>
   </g>
   <g id="cell183">
  <circle cx="653.08" cy="855.163" r="8.41185" stroke-width="0.5" stroke="black" fill="red"/>
  <circle cx="653.08" cy="855.163" r="5.05146" stroke-width="0.5" stroke="red" fill="red"/>
   </g>
   <g id="cell187">
  <circle cx="298.527" cy="428.555" r="10.2212" stroke-width="0.5" stroke="black" fill="yellow"/>
  <circle cx="298.527" cy="428.555" r="6.18605" stroke-width="0.5" stroke="yellow" fill="yellow"/>
   </g>
   <g id="cell189">
  <circle cx="787.143" cy="402.937" r="10.4146" stroke-width="0.5" stroke="black" fill="yellow"/>
  <circle cx="787.143" cy="402.937" r="6.28484" stroke-width="0.5" stroke="yellow" fill="yellow"/>
   </g>
   <g id="cell194">
  <circle cx="101.027" cy="142.893" r="10.1343" stroke-width="0.5" stroke="black" fill="yellow"/>
  <circle cx="101.027" cy="142.893" r="6.13993" stroke-width="0.5" stroke="yellow" fill="yellow"/>
   </g>
   <g id="cell195">
  <circle cx="400.119" cy="440.284" r="9.7723" stroke-width="0.5" stroke="black" fill="yellow"/>
  <circle cx="400.119" cy="440.284" r="5.93624" stroke-width="0.5" stroke="yellow" fill="yellow"/>
   </g>
   <g id="cell196">
  <circle cx="896.282" cy="267.799" r="8.40715" stroke-width="0.5" stroke="black" fill="yellow"/>
  <circle cx="896.282" cy="267.799" r="5.05003" stroke-width="0.5" stroke="yellow" fill="yellow"/>
   </g>
   <g id="cell202">
  <circle cx="117.659" cy="841.327" r="8.39607" stroke-width="0.5" stroke="black" fill="yellow"/>
  <circle cx="117.659" cy="841.327" r="5.04614" stroke-width="0.5" stroke="yellow" fill="yellow"/>
   </g>
   <g id="cell203">
  <circle cx="831.972" cy="456.408" r="8.39464" stroke-width="0.5" stroke="black" fill="yellow"/>
  <circle cx="831.972" cy="456.408" r="5.0456" stroke-width="0.5" stroke="yellow" fill="yellow"/>
   </g>
   <g id="cell204">
  <circle cx="911.666" cy="493.577" r="8.71149" stroke-width="0.5" stroke="black" fill="red"/>
  <circle cx="911.666" cy="493.577" r="5.27547" stroke-width="0.5" stroke="red" fill="red"/>
   </g>
   <g id="cell205">
  <circle cx="671.668" cy="284.505" r="8.39462" stroke-width="0.5" stroke="black" fill="red"/>
  <circle cx="671.668" cy="284.505" r="5.0456" stroke-width="0.5" stroke="red" fill="red"/>
   </g>
   <g id="cell206">
  <circle cx="956.023" cy="19.2144" r="8.39359" stroke-width="0.5" stroke="black" fill="red"/>
  <circle cx="956.023" cy="19.2144" r="5.04521" stroke-width="0.5" stroke="red" fill="red"/>
   </g>
   <g id="cell207">
  <circle cx="727.485" cy="257.055" r="8.39357" stroke-width="0.5" stroke="black" fill="red"/>
  <circle cx="727.485" cy="257.055" r="5.0452" stroke-width="0.5" stroke="red" fill="red"/>
   </g>
   <g id="cell208">
  <circle cx="76.4578" cy="370.011" r="8.39247" stroke-width="0.5" stroke="black" fill="red"/>
  <circle cx="76.4578" cy="370.011" r="5.04479" stroke-width="0.5" stroke="red" fill="red"/>
   </g>
   <g id="cell209">
  <circle cx="911.375" cy="570.998" r="8.3925" stroke-width="0.5" stroke="black" fill="red"/>
  <circle cx="911.375" cy="570.998" r="5.04479" stroke-width="0.5" stroke="red" fill="red"/>
   </g>
   <g id="cell210">
  <circle cx="757.975" cy="455.202" r="8.3925" stroke-width="0.5" stroke="black" fill="yellow"/>
  <circle cx="757.975" cy="455.202" r="5.04479" stroke-width="0.5" stroke="yellow" fill="yellow"/>
   </g>
   <g id="cell212">
  <circle cx="216.962" cy="743.515" r="8.39129" stroke-width="0.5" stroke="black" fill="grey"/>
  <circle cx="216.962" cy="743.515" r="5.04434" stroke-width="0.5" stroke="grey" fill="grey"/>
   </g>
   <g id="cell213">
  <circle cx="14.4353" cy="992.022" r="8.3907" stroke-width="0.5" stroke="black" fill="yellow"/>
  <circle cx="14.4353" cy="992.022" r="5.04411" stroke-width="0.5" stroke="yellow" fill="yellow"/>
   </g>
   <g id="cell214">
  <circle cx="734.96" cy="428.385" r="8.39074" stroke-width="0.5" stroke="black" fill="yellow"/>
  <circle cx="734.96" cy="428.385" r="5.04412" stroke-width="0.5" stroke="yellow" fill="yellow"/>
   </g>
   <g id="cell215">
  <circle cx="625.569" cy="404.519" r="8.39068" stroke-width="0.5" stroke="black" fill="yellow"/>
  <circle cx="625.569" cy="404.519" r="5.04411" stroke-width="0.5" stroke="yellow" fill="yellow"/>
   </g>
   <g id="cell216">
  <circle cx="28.3385" cy="928.425" r="8.38944" stroke-width="0.5" stroke="black" fill="yellow"/>
  <circle cx="28.3385" cy="928.425" r="5.04362" stroke-width="0.5" stroke="yellow" fill="yellow"/>
   </g>
   <g id="cell217">
  <circle cx="598.286" cy="535.006" r="8.38891" stroke-width="0.5" stroke="black" fill="red"/>
  <circle cx="598.286" cy="535.006" r="5.0434" stroke-width="0.5" stroke="red" fill="red"/>
   </g>
   <g id="cell218">
  <circle cx="856.77" cy="152.726" r="8.40734" stroke-width="0.5" stroke="black" fill="red"/>
  <circle cx="856.77" cy="152.726" r="5.05674" stroke-width="0.5" stroke="red" fill="red"/>
   </g>
   <g id="cell219">
  <circle cx="849.946" cy="434.359" r="8.38738" stroke-width="0.5" stroke="black" fill="red"/>
  <circle cx="849.946" cy="434.359" r="5.04283" stroke-width="0.5" stroke="red" fill="red"/>
   </g>
  </g>
 </g>
  <rect x="775" y="1035" width="200" height="10" stroke-width="2" stroke="rgb(255,255,255)" fill="rgb(0,0,0)"/>
  <text x="781.25" y="1028.75"
   font-family="Arial" font-size="25" fill="black" >
   200 &#956;m
  </text>
  <text x="25" y="1045"
   font-family="Arial" font-size="18.75" fill="black" >
   0 days, 0 hours, 2 minutes, and 28.3588 seconds
  </text>
  <rect x="0" y="70" width="1000" height="1000" stroke-width="2" stroke="rgb(0,0,0)" fill="none"/>
</svg>
