<?xml version="1.0" encoding="UTF-8" standalone="no"?>
<!-- Created with PhysiCell (http://PhysiCell.MathCancer.org/) -->
<svg 
 xmlns:dc="http://purl.org/dc/elements/1.1/" 
 xmlns:cc="http://creativecommons.org/ns#" 
 xmlns:rdf="http://www.w3.org/1999/02/22-rdf-syntax-ns#" 
 xmlns:svg="http://www.w3.org/2000/svg" 
 xmlns="http://www.w3.org/2000/svg" 
 version="1.1" 
 width="1000" 
 height="1070" 
 id="svg2">
  <rect x="0" y="0" width="1000" height="1070" stroke-width="2" stroke="white" fill="white"/>
  <text x="12.5" y="30"
   font-family="Arial" font-size="25" fill="black" >
   Current time: 1 days, 3 hours, and 30.00 minutes, z = 0.00 &#956;m
  </text>
  <text x="12.5" y="57.5"
   font-family="Arial" font-size="23.75" fill="black" >
   158 agents
  </text>
 <g id="tissue" 
    transform="translate(0,1070) scale(1,-1)">
  <g id="ECM">
  </g>
  <g id="cells">
   <g id="cell0">
  <circle cx="503.957" cy="620.469" r="10.4948" stroke-width="0.5" stroke="black" fill="grey"/>
  <circle cx="503.957" cy="620.469" r="6.32259" stroke-width="0.5" stroke="grey" fill="grey"/>
   </g>
   <g id="cell118">
  <circle cx="842.972" cy="578.303" r="8.41154" stroke-width="0.5" stroke="black" fill="yellow"/>
  <circle cx="842.972" cy="578.303" r="5.05138" stroke-width="0.5" stroke="yellow" fill="yellow"/>
   </g>
   <g id="cell100">
  <circle cx="114.923" cy="808.417" r="10.4854" stroke-width="0.5" stroke="black" fill="yellow"/>
  <circle cx="114.923" cy="808.417" r="6.31833" stroke-width="0.5" stroke="yellow" fill="yellow"/>
   </g>
   <g id="cell3">
  <circle cx="619.261" cy="631.156" r="10.4565" stroke-width="0.5" stroke="black" fill="grey"/>
  <circle cx="619.261" cy="631.156" r="6.30487" stroke-width="0.5" stroke="grey" fill="grey"/>
   </g>
   <g id="cell103">
  <circle cx="821.002" cy="869.772" r="10.5467" stroke-width="0.5" stroke="black" fill="yellow"/>
  <circle cx="821.002" cy="869.772" r="6.34513" stroke-width="0.5" stroke="yellow" fill="yellow"/>
   </g>
   <g id="cell135">
  <circle cx="151.254" cy="807.519" r="10.2813" stroke-width="0.5" stroke="black" fill="yellow"/>
  <circle cx="151.254" cy="807.519" r="6.21757" stroke-width="0.5" stroke="yellow" fill="yellow"/>
   </g>
   <g id="cell185">
  <circle cx="882.692" cy="402.412" r="9.61775" stroke-width="0.5" stroke="black" fill="yellow"/>
  <circle cx="882.692" cy="402.412" r="5.84576" stroke-width="0.5" stroke="yellow" fill="yellow"/>
   </g>
   <g id="cell7">
  <circle cx="854.189" cy="484.494" r="10.4035" stroke-width="0.5" stroke="black" fill="grey"/>
  <circle cx="854.189" cy="484.494" r="6.27948" stroke-width="0.5" stroke="grey" fill="grey"/>
   </g>
   <g id="cell192">
  <circle cx="821.576" cy="422.343" r="8.40272" stroke-width="0.5" stroke="black" fill="yellow"/>
  <circle cx="821.576" cy="422.343" r="5.04853" stroke-width="0.5" stroke="yellow" fill="yellow"/>
   </g>
   <g id="cell112">
  <circle cx="749.733" cy="728.273" r="3.19542" stroke-width="0.5" stroke="black" fill="yellow"/>
  <circle cx="749.733" cy="728.273" r="2.55228" stroke-width="0.5" stroke="black" fill="black"/>
   </g>
   <g id="cell176">
  <circle cx="258.464" cy="44.8386" r="9.47165" stroke-width="0.5" stroke="black" fill="red"/>
  <circle cx="258.464" cy="44.8386" r="5.75794" stroke-width="0.5" stroke="red" fill="red"/>
   </g>
   <g id="cell186">
  <circle cx="77.6503" cy="552.143" r="8.407" stroke-width="0.5" stroke="black" fill="yellow"/>
  <circle cx="77.6503" cy="552.143" r="5.04998" stroke-width="0.5" stroke="yellow" fill="yellow"/>
   </g>
   <g id="cell104">
  <circle cx="754.819" cy="413.028" r="10.4606" stroke-width="0.5" stroke="black" fill="yellow"/>
  <circle cx="754.819" cy="413.028" r="6.30678" stroke-width="0.5" stroke="yellow" fill="yellow"/>
   </g>
   <g id="cell102">
  <circle cx="606.029" cy="173.136" r="10.0636" stroke-width="0.5" stroke="black" fill="yellow"/>
  <circle cx="606.029" cy="173.136" r="6.10093" stroke-width="0.5" stroke="yellow" fill="yellow"/>
   </g>
   <g id="cell98">
  <circle cx="891.105" cy="386.082" r="9.79511" stroke-width="0.5" stroke="black" fill="yellow"/>
  <circle cx="891.105" cy="386.082" r="5.94957" stroke-width="0.5" stroke="yellow" fill="yellow"/>
   </g>
   <g id="cell97">
  <circle cx="431.139" cy="97.5245" r="9.61589" stroke-width="0.5" stroke="black" fill="yellow"/>
  <circle cx="431.139" cy="97.5245" r="5.84511" stroke-width="0.5" stroke="yellow" fill="yellow"/>
   </g>
   <g id="cell16">
  <circle cx="131.186" cy="708.3" r="4.28356" stroke-width="0.5" stroke="black" fill="grey"/>
  <circle cx="131.186" cy="708.3" r="3.31327" stroke-width="0.5" stroke="black" fill="black"/>
   </g>
   <g id="cell116">
  <circle cx="832.904" cy="407.06" r="8.53486" stroke-width="0.5" stroke="black" fill="yellow"/>
  <circle cx="832.904" cy="407.06" r="5.14637" stroke-width="0.5" stroke="yellow" fill="yellow"/>
   </g>
   <g id="cell177">
  <circle cx="445.596" cy="290.14" r="8.40934" stroke-width="0.5" stroke="black" fill="red"/>
  <circle cx="445.596" cy="290.14" r="5.05073" stroke-width="0.5" stroke="red" fill="red"/>
   </g>
   <g id="cell101">
  <circle cx="109.284" cy="154.85" r="8.38891" stroke-width="0.5" stroke="black" fill="yellow"/>
  <circle cx="109.284" cy="154.85" r="5.0434" stroke-width="0.5" stroke="yellow" fill="yellow"/>
   </g>
   <g id="cell184">
  <circle cx="516.926" cy="308.764" r="10.1474" stroke-width="0.5" stroke="black" fill="red"/>
  <circle cx="516.926" cy="308.764" r="6.14704" stroke-width="0.5" stroke="red" fill="red"/>
   </g>
   <g id="cell99">
  <circle cx="496.575" cy="990.839" r="10.0137" stroke-width="0.5" stroke="black" fill="yellow"/>
  <circle cx="496.575" cy="990.839" r="6.0736" stroke-width="0.5" stroke="yellow" fill="yellow"/>
   </g>
   <g id="cell115">
  <circle cx="220.286" cy="22.057" r="10.2717" stroke-width="0.5" stroke="black" fill="yellow"/>
  <circle cx="220.286" cy="22.057" r="6.21266" stroke-width="0.5" stroke="yellow" fill="yellow"/>
   </g>
   <g id="cell191">
  <circle cx="745.073" cy="128.579" r="9.40333" stroke-width="0.5" stroke="black" fill="grey"/>
  <circle cx="745.073" cy="128.579" r="5.71758" stroke-width="0.5" stroke="grey" fill="grey"/>
   </g>
   <g id="cell153">
  <circle cx="191.029" cy="389.937" r="10.3861" stroke-width="0.5" stroke="black" fill="red"/>
  <circle cx="191.029" cy="389.937" r="6.27089" stroke-width="0.5" stroke="red" fill="red"/>
   </g>
   <g id="cell105">
  <circle cx="51.9122" cy="407.786" r="10.5536" stroke-width="0.5" stroke="black" fill="yellow"/>
  <circle cx="51.9122" cy="407.786" r="6.34799" stroke-width="0.5" stroke="yellow" fill="yellow"/>
   </g>
   <g id="cell26">
  <circle cx="675.114" cy="475.281" r="2.76744" stroke-width="0.5" stroke="black" fill="grey"/>
  <circle cx="675.114" cy="475.281" r="2.54634" stroke-width="0.5" stroke="black" fill="black"/>
   </g>
   <g id="cell117">
  <circle cx="877.64" cy="372.242" r="8.40537" stroke-width="0.5" stroke="black" fill="yellow"/>
  <circle cx="877.64" cy="372.242" r="5.04944" stroke-width="0.5" stroke="yellow" fill="yellow"/>
   </g>
   <g id="cell28">
  <circle cx="694.433" cy="124.28" r="8.41129" stroke-width="0.5" stroke="black" fill="grey"/>
  <circle cx="694.433" cy="124.28" r="5.05131" stroke-width="0.5" stroke="grey" fill="grey"/>
   </g>
   <g id="cell29">
  <circle cx="941.109" cy="630.165" r="10.0947" stroke-width="0.5" stroke="black" fill="grey"/>
  <circle cx="941.109" cy="630.165" r="6.11776" stroke-width="0.5" stroke="grey" fill="grey"/>
   </g>
   <g id="cell30">
  <circle cx="735.366" cy="133.579" r="8.40427" stroke-width="0.5" stroke="black" fill="grey"/>
  <circle cx="735.366" cy="133.579" r="5.04906" stroke-width="0.5" stroke="grey" fill="grey"/>
   </g>
   <g id="cell190">
  <circle cx="431.462" cy="105.822" r="8.40472" stroke-width="0.5" stroke="black" fill="yellow"/>
  <circle cx="431.462" cy="105.822" r="5.04922" stroke-width="0.5" stroke="yellow" fill="yellow"/>
   </g>
   <g id="cell114">
  <circle cx="82.7709" cy="362.979" r="9.98003" stroke-width="0.5" stroke="black" fill="yellow"/>
  <circle cx="82.7709" cy="362.979" r="6.05452" stroke-width="0.5" stroke="yellow" fill="yellow"/>
   </g>
   <g id="cell107">
  <circle cx="384.964" cy="476.843" r="8.38682" stroke-width="0.5" stroke="black" fill="yellow"/>
  <circle cx="384.964" cy="476.843" r="5.04258" stroke-width="0.5" stroke="yellow" fill="yellow"/>
   </g>
   <g id="cell106">
  <circle cx="9.84816" cy="918.547" r="10.4392" stroke-width="0.5" stroke="black" fill="yellow"/>
  <circle cx="9.84816" cy="918.547" r="6.29668" stroke-width="0.5" stroke="yellow" fill="yellow"/>
   </g>
   <g id="cell35">
  <circle cx="945.92" cy="92.0431" r="10.5387" stroke-width="0.5" stroke="black" fill="grey"/>
  <circle cx="945.92" cy="92.0431" r="6.34177" stroke-width="0.5" stroke="grey" fill="grey"/>
   </g>
   <g id="cell109">
  <circle cx="373.415" cy="973.236" r="9.00564" stroke-width="0.5" stroke="black" fill="yellow"/>
  <circle cx="373.415" cy="973.236" r="5.46735" stroke-width="0.5" stroke="yellow" fill="yellow"/>
   </g>
   <g id="cell111">
  <circle cx="777.969" cy="394.311" r="8.40472" stroke-width="0.5" stroke="black" fill="yellow"/>
  <circle cx="777.969" cy="394.311" r="5.04922" stroke-width="0.5" stroke="yellow" fill="yellow"/>
   </g>
   <g id="cell131">
  <circle cx="633.124" cy="596.563" r="10.3466" stroke-width="0.5" stroke="black" fill="grey"/>
  <circle cx="633.124" cy="596.563" r="6.25105" stroke-width="0.5" stroke="grey" fill="grey"/>
   </g>
   <g id="cell110">
  <circle cx="870.373" cy="281.144" r="10.5618" stroke-width="0.5" stroke="black" fill="yellow"/>
  <circle cx="870.373" cy="281.144" r="6.3513" stroke-width="0.5" stroke="yellow" fill="yellow"/>
   </g>
   <g id="cell40">
  <circle cx="169.71" cy="402.102" r="10.3313" stroke-width="0.5" stroke="black" fill="red"/>
  <circle cx="169.71" cy="402.102" r="6.24337" stroke-width="0.5" stroke="red" fill="red"/>
   </g>
   <g id="cell41">
  <circle cx="681.376" cy="713.514" r="10.3738" stroke-width="0.5" stroke="black" fill="red"/>
  <circle cx="681.376" cy="713.514" r="6.26474" stroke-width="0.5" stroke="red" fill="red"/>
   </g>
   <g id="cell42">
  <circle cx="155.003" cy="710.398" r="10.1749" stroke-width="0.5" stroke="black" fill="red"/>
  <circle cx="155.003" cy="710.398" r="6.16134" stroke-width="0.5" stroke="red" fill="red"/>
   </g>
   <g id="cell43">
  <circle cx="861.548" cy="400.052" r="10.1738" stroke-width="0.5" stroke="black" fill="red"/>
  <circle cx="861.548" cy="400.052" r="6.16102" stroke-width="0.5" stroke="red" fill="red"/>
   </g>
   <g id="cell44">
  <circle cx="845.836" cy="48.5663" r="10.1984" stroke-width="0.5" stroke="black" fill="red"/>
  <circle cx="845.836" cy="48.5663" r="6.174" stroke-width="0.5" stroke="red" fill="red"/>
   </g>
   <g id="cell45">
  <circle cx="681.644" cy="818.455" r="8.57416" stroke-width="0.5" stroke="black" fill="red"/>
  <circle cx="681.644" cy="818.455" r="5.1733" stroke-width="0.5" stroke="red" fill="red"/>
   </g>
   <g id="cell46">
  <circle cx="32.6089" cy="903.55" r="8.41151" stroke-width="0.5" stroke="black" fill="red"/>
  <circle cx="32.6089" cy="903.55" r="5.05137" stroke-width="0.5" stroke="red" fill="red"/>
   </g>
   <g id="cell47">
  <circle cx="885.319" cy="463.031" r="10.3073" stroke-width="0.5" stroke="black" fill="red"/>
  <circle cx="885.319" cy="463.031" r="6.23109" stroke-width="0.5" stroke="red" fill="red"/>
   </g>
   <g id="cell48">
  <circle cx="935.197" cy="45.9766" r="10.4682" stroke-width="0.5" stroke="black" fill="red"/>
  <circle cx="935.197" cy="45.9766" r="6.31035" stroke-width="0.5" stroke="red" fill="red"/>
   </g>
   <g id="cell49">
  <circle cx="482.242" cy="799.767" r="9.88422" stroke-width="0.5" stroke="black" fill="red"/>
  <circle cx="482.242" cy="799.767" r="6.00027" stroke-width="0.5" stroke="red" fill="red"/>
   </g>
   <g id="cell50">
  <circle cx="27.7748" cy="456.058" r="10.2528" stroke-width="0.5" stroke="black" fill="red"/>
  <circle cx="27.7748" cy="456.058" r="6.20265" stroke-width="0.5" stroke="red" fill="red"/>
   </g>
   <g id="cell51">
  <circle cx="890.388" cy="120.425" r="10.4251" stroke-width="0.5" stroke="black" fill="red"/>
  <circle cx="890.388" cy="120.425" r="6.28988" stroke-width="0.5" stroke="red" fill="red"/>
   </g>
   <g id="cell96">
  <circle cx="832.698" cy="552.029" r="10.2981" stroke-width="0.5" stroke="black" fill="yellow"/>
  <circle cx="832.698" cy="552.029" r="6.2265" stroke-width="0.5" stroke="yellow" fill="yellow"/>
   </g>
   <g id="cell53">
  <circle cx="691.008" cy="287.079" r="10.4754" stroke-width="0.5" stroke="black" fill="red"/>
  <circle cx="691.008" cy="287.079" r="6.31369" stroke-width="0.5" stroke="red" fill="red"/>
   </g>
   <g id="cell54">
  <circle cx="426.648" cy="902.384" r="8.4103" stroke-width="0.5" stroke="black" fill="red"/>
  <circle cx="426.648" cy="902.384" r="5.05102" stroke-width="0.5" stroke="red" fill="red"/>
   </g>
   <g id="cell55">
  <circle cx="213.804" cy="653.747" r="8.39794" stroke-width="0.5" stroke="black" fill="red"/>
  <circle cx="213.804" cy="653.747" r="5.04681" stroke-width="0.5" stroke="red" fill="red"/>
   </g>
   <g id="cell56">
  <circle cx="605.211" cy="838.199" r="10.3736" stroke-width="0.5" stroke="black" fill="red"/>
  <circle cx="605.211" cy="838.199" r="6.26468" stroke-width="0.5" stroke="red" fill="red"/>
   </g>
   <g id="cell57">
  <circle cx="490.823" cy="514.196" r="10.3981" stroke-width="0.5" stroke="black" fill="red"/>
  <circle cx="490.823" cy="514.196" r="6.27678" stroke-width="0.5" stroke="red" fill="red"/>
   </g>
   <g id="cell58">
  <circle cx="11.6869" cy="868.917" r="10.2805" stroke-width="0.5" stroke="black" fill="red"/>
  <circle cx="11.6869" cy="868.917" r="6.21735" stroke-width="0.5" stroke="red" fill="red"/>
   </g>
   <g id="cell59">
  <circle cx="74.9803" cy="967.157" r="10.3148" stroke-width="0.5" stroke="black" fill="red"/>
  <circle cx="74.9803" cy="967.157" r="6.23509" stroke-width="0.5" stroke="red" fill="red"/>
   </g>
   <g id="cell60">
  <circle cx="244.46" cy="49.6452" r="9.47165" stroke-width="0.5" stroke="black" fill="red"/>
  <circle cx="244.46" cy="49.6452" r="5.75794" stroke-width="0.5" stroke="red" fill="red"/>
   </g>
   <g id="cell61">
  <circle cx="817.888" cy="145.721" r="8.80558" stroke-width="0.5" stroke="black" fill="red"/>
  <circle cx="817.888" cy="145.721" r="5.33512" stroke-width="0.5" stroke="red" fill="red"/>
   </g>
   <g id="cell62">
  <circle cx="725.215" cy="792.654" r="10.3084" stroke-width="0.5" stroke="black" fill="red"/>
  <circle cx="725.215" cy="792.654" r="6.23137" stroke-width="0.5" stroke="red" fill="red"/>
   </g>
   <g id="cell63">
  <circle cx="355.4" cy="179.285" r="9.94437" stroke-width="0.5" stroke="black" fill="red"/>
  <circle cx="355.4" cy="179.285" r="6.03417" stroke-width="0.5" stroke="red" fill="red"/>
   </g>
   <g id="cell64">
  <circle cx="586.633" cy="560.363" r="10.4355" stroke-width="0.5" stroke="black" fill="red"/>
  <circle cx="586.633" cy="560.363" r="6.2947" stroke-width="0.5" stroke="red" fill="red"/>
   </g>
   <g id="cell188">
  <circle cx="867.572" cy="402.968" r="8.92178" stroke-width="0.5" stroke="black" fill="yellow"/>
  <circle cx="867.572" cy="402.968" r="5.41397" stroke-width="0.5" stroke="yellow" fill="yellow"/>
   </g>
   <g id="cell66">
  <circle cx="9.655" cy="148.179" r="10.1968" stroke-width="0.5" stroke="black" fill="red"/>
  <circle cx="9.655" cy="148.179" r="6.17352" stroke-width="0.5" stroke="red" fill="red"/>
   </g>
   <g id="cell67">
  <circle cx="517.357" cy="250.279" r="1.89916" stroke-width="0.5" stroke="black" fill="red"/>
  <circle cx="517.357" cy="250.279" r="1.8201" stroke-width="0.5" stroke="black" fill="black"/>
   </g>
   <g id="cell68">
  <circle cx="751.829" cy="231.228" r="10.3158" stroke-width="0.5" stroke="black" fill="red"/>
  <circle cx="751.829" cy="231.228" r="6.23538" stroke-width="0.5" stroke="red" fill="red"/>
   </g>
   <g id="cell69">
  <circle cx="456.902" cy="297.3" r="8.40934" stroke-width="0.5" stroke="black" fill="red"/>
  <circle cx="456.902" cy="297.3" r="5.05073" stroke-width="0.5" stroke="red" fill="red"/>
   </g>
   <g id="cell70">
  <circle cx="509.216" cy="367.891" r="9.99788" stroke-width="0.5" stroke="black" fill="red"/>
  <circle cx="509.216" cy="367.891" r="6.06446" stroke-width="0.5" stroke="red" fill="red"/>
   </g>
   <g id="cell71">
  <circle cx="881.205" cy="507.157" r="10.4754" stroke-width="0.5" stroke="black" fill="red"/>
  <circle cx="881.205" cy="507.157" r="6.31371" stroke-width="0.5" stroke="red" fill="red"/>
   </g>
   <g id="cell72">
  <circle cx="192.629" cy="893.811" r="10.398" stroke-width="0.5" stroke="black" fill="red"/>
  <circle cx="192.629" cy="893.811" r="6.27674" stroke-width="0.5" stroke="red" fill="red"/>
   </g>
   <g id="cell73">
  <circle cx="649.504" cy="437.279" r="10.187" stroke-width="0.5" stroke="black" fill="red"/>
  <circle cx="649.504" cy="437.279" r="6.16784" stroke-width="0.5" stroke="red" fill="red"/>
   </g>
   <g id="cell74">
  <circle cx="868.353" cy="954.868" r="9.40815" stroke-width="0.5" stroke="black" fill="red"/>
  <circle cx="868.353" cy="954.868" r="5.71924" stroke-width="0.5" stroke="red" fill="red"/>
   </g>
   <g id="cell75">
  <circle cx="109.901" cy="327.495" r="10.3864" stroke-width="0.5" stroke="black" fill="red"/>
  <circle cx="109.901" cy="327.495" r="6.27097" stroke-width="0.5" stroke="red" fill="red"/>
   </g>
   <g id="cell76">
  <circle cx="784.069" cy="405.398" r="9.72539" stroke-width="0.5" stroke="black" fill="red"/>
  <circle cx="784.069" cy="405.398" r="5.9085" stroke-width="0.5" stroke="red" fill="red"/>
   </g>
   <g id="cell77">
  <circle cx="647.55" cy="846.72" r="10.2097" stroke-width="0.5" stroke="black" fill="red"/>
  <circle cx="647.55" cy="846.72" r="6.18006" stroke-width="0.5" stroke="red" fill="red"/>
   </g>
   <g id="cell78">
  <circle cx="603.194" cy="271.511" r="10.1618" stroke-width="0.5" stroke="black" fill="red"/>
  <circle cx="603.194" cy="271.511" r="6.15447" stroke-width="0.5" stroke="red" fill="red"/>
   </g>
   <g id="cell79">
  <circle cx="973.522" cy="699.86" r="9.72397" stroke-width="0.5" stroke="black" fill="red"/>
  <circle cx="973.522" cy="699.86" r="5.90804" stroke-width="0.5" stroke="red" fill="red"/>
   </g>
   <g id="cell80">
  <circle cx="756.273" cy="693.055" r="10.5585" stroke-width="0.5" stroke="black" fill="yellow"/>
  <circle cx="756.273" cy="693.055" r="6.34997" stroke-width="0.5" stroke="yellow" fill="yellow"/>
   </g>
   <g id="cell81">
  <circle cx="491.199" cy="978.032" r="10.3682" stroke-width="0.5" stroke="black" fill="yellow"/>
  <circle cx="491.199" cy="978.032" r="6.26172" stroke-width="0.5" stroke="yellow" fill="yellow"/>
   </g>
   <g id="cell82">
  <circle cx="627.458" cy="417.268" r="10.4479" stroke-width="0.5" stroke="black" fill="yellow"/>
  <circle cx="627.458" cy="417.268" r="6.30085" stroke-width="0.5" stroke="yellow" fill="yellow"/>
   </g>
   <g id="cell83">
  <circle cx="594.828" cy="552.509" r="10.3071" stroke-width="0.5" stroke="black" fill="yellow"/>
  <circle cx="594.828" cy="552.509" r="6.23102" stroke-width="0.5" stroke="yellow" fill="yellow"/>
   </g>
   <g id="cell84">
  <circle cx="17.882" cy="505.663" r="9.81889" stroke-width="0.5" stroke="black" fill="yellow"/>
  <circle cx="17.882" cy="505.663" r="5.96304" stroke-width="0.5" stroke="yellow" fill="yellow"/>
   </g>
   <g id="cell85">
  <circle cx="778.965" cy="674.664" r="4.70925" stroke-width="0.5" stroke="black" fill="yellow"/>
  <circle cx="778.965" cy="674.664" r="3.49674" stroke-width="0.5" stroke="black" fill="black"/>
   </g>
   <g id="cell86">
  <circle cx="309.302" cy="449.904" r="8.42559" stroke-width="0.5" stroke="black" fill="yellow"/>
  <circle cx="309.302" cy="449.904" r="5.06344" stroke-width="0.5" stroke="yellow" fill="yellow"/>
   </g>
   <g id="cell87">
  <circle cx="759.385" cy="395.373" r="8.61332" stroke-width="0.5" stroke="black" fill="yellow"/>
  <circle cx="759.385" cy="395.373" r="5.20037" stroke-width="0.5" stroke="yellow" fill="yellow"/>
   </g>
   <g id="cell88">
  <circle cx="152.165" cy="105.459" r="1.93481" stroke-width="0.5" stroke="black" fill="yellow"/>
  <circle cx="152.165" cy="105.459" r="1.89476" stroke-width="0.5" stroke="black" fill="black"/>
   </g>
   <g id="cell89">
  <circle cx="68.5747" cy="522.102" r="9.69771" stroke-width="0.5" stroke="black" fill="yellow"/>
  <circle cx="68.5747" cy="522.102" r="5.89291" stroke-width="0.5" stroke="yellow" fill="yellow"/>
   </g>
   <g id="cell193">
  <circle cx="202.483" cy="668.854" r="8.60015" stroke-width="0.5" stroke="black" fill="red"/>
  <circle cx="202.483" cy="668.854" r="5.19585" stroke-width="0.5" stroke="red" fill="red"/>
   </g>
   <g id="cell91">
  <circle cx="9.9532" cy="648.331" r="8.4085" stroke-width="0.5" stroke="black" fill="yellow"/>
  <circle cx="9.9532" cy="648.331" r="5.05047" stroke-width="0.5" stroke="yellow" fill="yellow"/>
   </g>
   <g id="cell92">
  <circle cx="659.584" cy="299.958" r="10.2313" stroke-width="0.5" stroke="black" fill="yellow"/>
  <circle cx="659.584" cy="299.958" r="6.19156" stroke-width="0.5" stroke="yellow" fill="yellow"/>
   </g>
   <g id="cell93">
  <circle cx="236.418" cy="861.359" r="8.41175" stroke-width="0.5" stroke="black" fill="yellow"/>
  <circle cx="236.418" cy="861.359" r="5.05143" stroke-width="0.5" stroke="yellow" fill="yellow"/>
   </g>
   <g id="cell94">
  <circle cx="394.997" cy="103.965" r="9.90435" stroke-width="0.5" stroke="black" fill="yellow"/>
  <circle cx="394.997" cy="103.965" r="6.01178" stroke-width="0.5" stroke="yellow" fill="yellow"/>
   </g>
   <g id="cell95">
  <circle cx="947.999" cy="907.822" r="10.3066" stroke-width="0.5" stroke="black" fill="yellow"/>
  <circle cx="947.999" cy="907.822" r="6.23086" stroke-width="0.5" stroke="yellow" fill="yellow"/>
   </g>
   <g id="cell121">
  <circle cx="15.6111" cy="484.476" r="8.4118" stroke-width="0.5" stroke="black" fill="red"/>
  <circle cx="15.6111" cy="484.476" r="5.05145" stroke-width="0.5" stroke="red" fill="red"/>
   </g>
   <g id="cell122">
  <circle cx="713.43" cy="433.706" r="10.4483" stroke-width="0.5" stroke="black" fill="yellow"/>
  <circle cx="713.43" cy="433.706" r="6.30096" stroke-width="0.5" stroke="yellow" fill="yellow"/>
   </g>
   <g id="cell123">
  <circle cx="259.35" cy="900.697" r="8.41175" stroke-width="0.5" stroke="black" fill="yellow"/>
  <circle cx="259.35" cy="900.697" r="5.05143" stroke-width="0.5" stroke="yellow" fill="yellow"/>
   </g>
   <g id="cell124">
  <circle cx="502.149" cy="634.879" r="10.2426" stroke-width="0.5" stroke="black" fill="grey"/>
  <circle cx="502.149" cy="634.879" r="6.19731" stroke-width="0.5" stroke="grey" fill="grey"/>
   </g>
   <g id="cell125">
  <circle cx="791.384" cy="428.294" r="10.4755" stroke-width="0.5" stroke="black" fill="yellow"/>
  <circle cx="791.384" cy="428.294" r="6.31372" stroke-width="0.5" stroke="yellow" fill="yellow"/>
   </g>
   <g id="cell126">
  <circle cx="956.446" cy="175.144" r="10.2103" stroke-width="0.5" stroke="black" fill="red"/>
  <circle cx="956.446" cy="175.144" r="6.18022" stroke-width="0.5" stroke="red" fill="red"/>
   </g>
   <g id="cell127">
  <circle cx="899.556" cy="543.78" r="10.4606" stroke-width="0.5" stroke="black" fill="red"/>
  <circle cx="899.556" cy="543.78" r="6.30677" stroke-width="0.5" stroke="red" fill="red"/>
   </g>
   <g id="cell128">
  <circle cx="938.297" cy="20.6745" r="10.1091" stroke-width="0.5" stroke="black" fill="red"/>
  <circle cx="938.297" cy="20.6745" r="6.12565" stroke-width="0.5" stroke="red" fill="red"/>
   </g>
   <g id="cell129">
  <circle cx="980.213" cy="675.127" r="10.4393" stroke-width="0.5" stroke="black" fill="grey"/>
  <circle cx="980.213" cy="675.127" r="6.29672" stroke-width="0.5" stroke="grey" fill="grey"/>
   </g>
   <g id="cell130">
  <circle cx="917.94" cy="609.322" r="8.41154" stroke-width="0.5" stroke="black" fill="yellow"/>
  <circle cx="917.94" cy="609.322" r="5.05138" stroke-width="0.5" stroke="yellow" fill="yellow"/>
   </g>
   <g id="cell132">
  <circle cx="67.4067" cy="914.321" r="10.3607" stroke-width="0.5" stroke="black" fill="red"/>
  <circle cx="67.4067" cy="914.321" r="6.25813" stroke-width="0.5" stroke="red" fill="red"/>
   </g>
   <g id="cell133">
  <circle cx="644.655" cy="373.972" r="9.75102" stroke-width="0.5" stroke="black" fill="red"/>
  <circle cx="644.655" cy="373.972" r="5.92318" stroke-width="0.5" stroke="red" fill="red"/>
   </g>
   <g id="cell134">
  <circle cx="624.597" cy="436.457" r="1.9002" stroke-width="0.5" stroke="black" fill="grey"/>
  <circle cx="624.597" cy="436.457" r="1.82093" stroke-width="0.5" stroke="black" fill="black"/>
   </g>
   <g id="cell136">
  <circle cx="629.958" cy="450.153" r="10.2424" stroke-width="0.5" stroke="black" fill="red"/>
  <circle cx="629.958" cy="450.153" r="6.19725" stroke-width="0.5" stroke="red" fill="red"/>
   </g>
   <g id="cell137">
  <circle cx="797.152" cy="674.633" r="9.19908" stroke-width="0.5" stroke="black" fill="yellow"/>
  <circle cx="797.152" cy="674.633" r="5.58992" stroke-width="0.5" stroke="yellow" fill="yellow"/>
   </g>
   <g id="cell138">
  <circle cx="730.004" cy="236.86" r="10.4681" stroke-width="0.5" stroke="black" fill="red"/>
  <circle cx="730.004" cy="236.86" r="6.31031" stroke-width="0.5" stroke="red" fill="red"/>
   </g>
   <g id="cell139">
  <circle cx="786.098" cy="760.476" r="8.4114" stroke-width="0.5" stroke="black" fill="yellow"/>
  <circle cx="786.098" cy="760.476" r="5.05134" stroke-width="0.5" stroke="yellow" fill="yellow"/>
   </g>
   <g id="cell140">
  <circle cx="66.2651" cy="334.652" r="10.4604" stroke-width="0.5" stroke="black" fill="red"/>
  <circle cx="66.2651" cy="334.652" r="6.30672" stroke-width="0.5" stroke="red" fill="red"/>
   </g>
   <g id="cell141">
  <circle cx="12.0048" cy="969.515" r="10.448" stroke-width="0.5" stroke="black" fill="yellow"/>
  <circle cx="12.0048" cy="969.515" r="6.30089" stroke-width="0.5" stroke="yellow" fill="yellow"/>
   </g>
   <g id="cell142">
  <circle cx="685.343" cy="685.746" r="8.41133" stroke-width="0.5" stroke="black" fill="red"/>
  <circle cx="685.343" cy="685.746" r="5.05132" stroke-width="0.5" stroke="red" fill="red"/>
   </g>
   <g id="cell143">
  <circle cx="123.12" cy="741.363" r="8.80646" stroke-width="0.5" stroke="black" fill="red"/>
  <circle cx="123.12" cy="741.363" r="5.33539" stroke-width="0.5" stroke="red" fill="red"/>
   </g>
   <g id="cell144">
  <circle cx="654.975" cy="156.651" r="10.3863" stroke-width="0.5" stroke="black" fill="grey"/>
  <circle cx="654.975" cy="156.651" r="6.27096" stroke-width="0.5" stroke="grey" fill="grey"/>
   </g>
   <g id="cell145">
  <circle cx="545.156" cy="527.675" r="8.41125" stroke-width="0.5" stroke="black" fill="red"/>
  <circle cx="545.156" cy="527.675" r="5.05129" stroke-width="0.5" stroke="red" fill="red"/>
   </g>
   <g id="cell146">
  <circle cx="321.605" cy="189.78" r="10.3535" stroke-width="0.5" stroke="black" fill="red"/>
  <circle cx="321.605" cy="189.78" r="6.25458" stroke-width="0.5" stroke="red" fill="red"/>
   </g>
   <g id="cell147">
  <circle cx="642.146" cy="386.269" r="9.30696" stroke-width="0.5" stroke="black" fill="yellow"/>
  <circle cx="642.146" cy="386.269" r="5.65704" stroke-width="0.5" stroke="yellow" fill="yellow"/>
   </g>
   <g id="cell148">
  <circle cx="178.212" cy="761.445" r="10.4521" stroke-width="0.5" stroke="black" fill="grey"/>
  <circle cx="178.212" cy="761.445" r="6.30285" stroke-width="0.5" stroke="grey" fill="grey"/>
   </g>
   <g id="cell149">
  <circle cx="859.377" cy="451.213" r="10.4248" stroke-width="0.5" stroke="black" fill="red"/>
  <circle cx="859.377" cy="451.213" r="6.28978" stroke-width="0.5" stroke="red" fill="red"/>
   </g>
   <g id="cell150">
  <circle cx="172.206" cy="33.2041" r="10.0643" stroke-width="0.5" stroke="black" fill="yellow"/>
  <circle cx="172.206" cy="33.2041" r="6.10114" stroke-width="0.5" stroke="yellow" fill="yellow"/>
   </g>
   <g id="cell151">
  <circle cx="212.264" cy="902.994" r="9.72604" stroke-width="0.5" stroke="black" fill="red"/>
  <circle cx="212.264" cy="902.994" r="5.90871" stroke-width="0.5" stroke="red" fill="red"/>
   </g>
   <g id="cell152">
  <circle cx="596.356" cy="839.856" r="10.398" stroke-width="0.5" stroke="black" fill="red"/>
  <circle cx="596.356" cy="839.856" r="6.27673" stroke-width="0.5" stroke="red" fill="red"/>
   </g>
   <g id="cell154">
  <circle cx="862.996" cy="29.2302" r="10.0323" stroke-width="0.5" stroke="black" fill="red"/>
  <circle cx="862.996" cy="29.2302" r="6.08347" stroke-width="0.5" stroke="red" fill="red"/>
   </g>
   <g id="cell155">
  <circle cx="643.238" cy="898.006" r="10.3735" stroke-width="0.5" stroke="black" fill="red"/>
  <circle cx="643.238" cy="898.006" r="6.26465" stroke-width="0.5" stroke="red" fill="red"/>
   </g>
   <g id="cell156">
  <circle cx="880.504" cy="507.786" r="10.3461" stroke-width="0.5" stroke="black" fill="grey"/>
  <circle cx="880.504" cy="507.786" r="6.25092" stroke-width="0.5" stroke="grey" fill="grey"/>
   </g>
   <g id="cell157">
  <circle cx="615.835" cy="621.268" r="9.98086" stroke-width="0.5" stroke="black" fill="yellow"/>
  <circle cx="615.835" cy="621.268" r="6.05478" stroke-width="0.5" stroke="yellow" fill="yellow"/>
   </g>
   <g id="cell158">
  <circle cx="163.19" cy="140.34" r="2.07599" stroke-width="0.5" stroke="black" fill="yellow"/>
  <circle cx="163.19" cy="140.34" r="2.01609" stroke-width="0.5" stroke="black" fill="black"/>
   </g>
   <g id="cell159">
  <circle cx="667.938" cy="303.81" r="9.70034" stroke-width="0.5" stroke="black" fill="yellow"/>
  <circle cx="667.938" cy="303.81" r="5.89378" stroke-width="0.5" stroke="yellow" fill="yellow"/>
   </g>
   <g id="cell160">
  <circle cx="601.933" cy="286.854" r="10.0482" stroke-width="0.5" stroke="black" fill="red"/>
  <circle cx="601.933" cy="286.854" r="6.09234" stroke-width="0.5" stroke="red" fill="red"/>
   </g>
   <g id="cell161">
  <circle cx="39.9117" cy="929.436" r="1.65238" stroke-width="0.5" stroke="black" fill="red"/>
  <circle cx="39.9117" cy="929.436" r="1.61663" stroke-width="0.5" stroke="black" fill="black"/>
   </g>
   <g id="cell162">
  <circle cx="841.759" cy="118.892" r="10.3732" stroke-width="0.5" stroke="black" fill="red"/>
  <circle cx="841.759" cy="118.892" r="6.26456" stroke-width="0.5" stroke="red" fill="red"/>
   </g>
   <g id="cell163">
  <circle cx="447.26" cy="966.659" r="10.3599" stroke-width="0.5" stroke="black" fill="red"/>
  <circle cx="447.26" cy="966.659" r="6.2579" stroke-width="0.5" stroke="red" fill="red"/>
   </g>
   <g id="cell164">
  <circle cx="817.137" cy="956.141" r="8.6871" stroke-width="0.5" stroke="black" fill="red"/>
  <circle cx="817.137" cy="956.141" r="5.25352" stroke-width="0.5" stroke="red" fill="red"/>
   </g>
   <g id="cell165">
  <circle cx="830.868" cy="393.815" r="10.3528" stroke-width="0.5" stroke="black" fill="red"/>
  <circle cx="830.868" cy="393.815" r="6.25439" stroke-width="0.5" stroke="red" fill="red"/>
   </g>
   <g id="cell166">
  <circle cx="800.653" cy="505.765" r="10.3457" stroke-width="0.5" stroke="black" fill="yellow"/>
  <circle cx="800.653" cy="505.765" r="6.25077" stroke-width="0.5" stroke="yellow" fill="yellow"/>
   </g>
   <g id="cell167">
  <circle cx="646.322" cy="138.469" r="9.86351" stroke-width="0.5" stroke="black" fill="yellow"/>
  <circle cx="646.322" cy="138.469" r="5.9884" stroke-width="0.5" stroke="yellow" fill="yellow"/>
   </g>
   <g id="cell168">
  <circle cx="930.772" cy="882.292" r="10.2516" stroke-width="0.5" stroke="black" fill="yellow"/>
  <circle cx="930.772" cy="882.292" r="6.20229" stroke-width="0.5" stroke="yellow" fill="yellow"/>
   </g>
   <g id="cell169">
  <circle cx="363.653" cy="958.987" r="10.1739" stroke-width="0.5" stroke="black" fill="yellow"/>
  <circle cx="363.653" cy="958.987" r="6.16105" stroke-width="0.5" stroke="yellow" fill="yellow"/>
   </g>
   <g id="cell170">
  <circle cx="67.3844" cy="990.03" r="8.40994" stroke-width="0.5" stroke="black" fill="red"/>
  <circle cx="67.3844" cy="990.03" r="5.05091" stroke-width="0.5" stroke="red" fill="red"/>
   </g>
   <g id="cell171">
  <circle cx="534.511" cy="382.591" r="10.1977" stroke-width="0.5" stroke="black" fill="red"/>
  <circle cx="534.511" cy="382.591" r="6.1738" stroke-width="0.5" stroke="red" fill="red"/>
   </g>
   <g id="cell172">
  <circle cx="474.871" cy="779.277" r="10.2201" stroke-width="0.5" stroke="black" fill="red"/>
  <circle cx="474.871" cy="779.277" r="6.18574" stroke-width="0.5" stroke="red" fill="red"/>
   </g>
   <g id="cell173">
  <circle cx="955.174" cy="423.503" r="8.40978" stroke-width="0.5" stroke="black" fill="red"/>
  <circle cx="955.174" cy="423.503" r="5.05086" stroke-width="0.5" stroke="red" fill="red"/>
   </g>
   <g id="cell174">
  <circle cx="382.769" cy="106.154" r="8.40961" stroke-width="0.5" stroke="black" fill="yellow"/>
  <circle cx="382.769" cy="106.154" r="5.05081" stroke-width="0.5" stroke="yellow" fill="yellow"/>
   </g>
   <g id="cell175">
  <circle cx="39.1677" cy="320.491" r="10.2513" stroke-width="0.5" stroke="black" fill="yellow"/>
  <circle cx="39.1677" cy="320.491" r="6.20221" stroke-width="0.5" stroke="yellow" fill="yellow"/>
   </g>
   <g id="cell178">
  <circle cx="55.7581" cy="154.043" r="10.1478" stroke-width="0.5" stroke="black" fill="red"/>
  <circle cx="55.7581" cy="154.043" r="6.14715" stroke-width="0.5" stroke="red" fill="red"/>
   </g>
   <g id="cell179">
  <circle cx="9.71085" cy="477.922" r="9.00449" stroke-width="0.5" stroke="black" fill="yellow"/>
  <circle cx="9.71085" cy="477.922" r="5.46697" stroke-width="0.5" stroke="yellow" fill="yellow"/>
   </g>
   <g id="cell180">
  <circle cx="42.0219" cy="668.16" r="8.4085" stroke-width="0.5" stroke="black" fill="yellow"/>
  <circle cx="42.0219" cy="668.16" r="5.05047" stroke-width="0.5" stroke="yellow" fill="yellow"/>
   </g>
   <g id="cell181">
  <circle cx="988.509" cy="681.844" r="8.40826" stroke-width="0.5" stroke="black" fill="red"/>
  <circle cx="988.509" cy="681.844" r="5.05039" stroke-width="0.5" stroke="red" fill="red"/>
   </g>
   <g id="cell182">
  <circle cx="528.995" cy="977.8" r="8.40814" stroke-width="0.5" stroke="black" fill="yellow"/>
  <circle cx="528.995" cy="977.8" r="5.05035" stroke-width="0.5" stroke="yellow" fill="yellow"/>
   </g>
   <g id="cell183">
  <circle cx="655.337" cy="862.728" r="8.40814" stroke-width="0.5" stroke="black" fill="red"/>
  <circle cx="655.337" cy="862.728" r="5.05035" stroke-width="0.5" stroke="red" fill="red"/>
   </g>
   <g id="cell187">
  <circle cx="318.204" cy="435.357" r="8.6447" stroke-width="0.5" stroke="black" fill="yellow"/>
  <circle cx="318.204" cy="435.357" r="5.22514" stroke-width="0.5" stroke="yellow" fill="yellow"/>
   </g>
   <g id="cell189">
  <circle cx="785.026" cy="380.607" r="9.55893" stroke-width="0.5" stroke="black" fill="yellow"/>
  <circle cx="785.026" cy="380.607" r="5.81124" stroke-width="0.5" stroke="yellow" fill="yellow"/>
   </g>
   <g id="cell194">
  <circle cx="97.0957" cy="176.186" r="8.40881" stroke-width="0.5" stroke="black" fill="yellow"/>
  <circle cx="97.0957" cy="176.186" r="5.0573" stroke-width="0.5" stroke="yellow" fill="yellow"/>
   </g>
   <g id="cell195">
  <circle cx="378.685" cy="458.798" r="8.38682" stroke-width="0.5" stroke="black" fill="yellow"/>
  <circle cx="378.685" cy="458.798" r="5.04258" stroke-width="0.5" stroke="yellow" fill="yellow"/>
   </g>
  </g>
 </g>
  <rect x="775" y="1035" width="200" height="10" stroke-width="2" stroke="rgb(255,255,255)" fill="rgb(0,0,0)"/>
  <text x="781.25" y="1028.75"
   font-family="Arial" font-size="25" fill="black" >
   200 &#956;m
  </text>
  <text x="25" y="1045"
   font-family="Arial" font-size="18.75" fill="black" >
   0 days, 0 hours, 1 minutes, and 59.5398 seconds
  </text>
  <rect x="0" y="70" width="1000" height="1000" stroke-width="2" stroke="rgb(0,0,0)" fill="none"/>
</svg>
