<?xml version="1.0" encoding="UTF-8" standalone="no"?>
<!-- Created with PhysiCell (http://PhysiCell.MathCancer.org/) -->
<svg 
 xmlns:dc="http://purl.org/dc/elements/1.1/" 
 xmlns:cc="http://creativecommons.org/ns#" 
 xmlns:rdf="http://www.w3.org/1999/02/22-rdf-syntax-ns#" 
 xmlns:svg="http://www.w3.org/2000/svg" 
 xmlns="http://www.w3.org/2000/svg" 
 version="1.1" 
 width="1000" 
 height="1070" 
 id="svg2">
  <rect x="0" y="0" width="1000" height="1070" stroke-width="2" stroke="white" fill="white"/>
  <text x="12.5" y="30"
   font-family="Arial" font-size="25" fill="black" >
   Current time: 0 days, 5 hours, and 0.00 minutes, z = 0.00 &#956;m
  </text>
  <text x="12.5" y="57.5"
   font-family="Arial" font-size="23.75" fill="black" >
   120 agents
  </text>
 <g id="tissue" 
    transform="translate(0,1070) scale(1,-1)">
  <g id="ECM">
  </g>
  <g id="cells">
   <g id="cell0">
  <circle cx="577.707" cy="585.101" r="8.41271" stroke-width="0.5" stroke="black" fill="grey"/>
  <circle cx="577.707" cy="585.101" r="5.05167" stroke-width="0.5" stroke="grey" fill="grey"/>
   </g>
   <g id="cell1">
  <circle cx="872.782" cy="617.926" r="8.41271" stroke-width="0.5" stroke="black" fill="grey"/>
  <circle cx="872.782" cy="617.926" r="5.05167" stroke-width="0.5" stroke="grey" fill="grey"/>
   </g>
   <g id="cell2">
  <circle cx="550.101" cy="860.065" r="9.44256" stroke-width="0.5" stroke="black" fill="grey"/>
  <circle cx="550.101" cy="860.065" r="5.73955" stroke-width="0.5" stroke="grey" fill="grey"/>
   </g>
   <g id="cell3">
  <circle cx="633.355" cy="632.25" r="9.5053" stroke-width="0.5" stroke="black" fill="grey"/>
  <circle cx="633.355" cy="632.25" r="5.77744" stroke-width="0.5" stroke="grey" fill="grey"/>
   </g>
   <g id="cell4">
  <circle cx="463.925" cy="290.797" r="9.94548" stroke-width="0.5" stroke="black" fill="grey"/>
  <circle cx="463.925" cy="290.797" r="6.03448" stroke-width="0.5" stroke="grey" fill="grey"/>
   </g>
   <g id="cell5">
  <circle cx="68.2766" cy="981.359" r="8.72828" stroke-width="0.5" stroke="black" fill="grey"/>
  <circle cx="68.2766" cy="981.359" r="5.28134" stroke-width="0.5" stroke="grey" fill="grey"/>
   </g>
   <g id="cell6">
  <circle cx="387.799" cy="445.483" r="8.41271" stroke-width="0.5" stroke="black" fill="grey"/>
  <circle cx="387.799" cy="445.483" r="5.05167" stroke-width="0.5" stroke="grey" fill="grey"/>
   </g>
   <g id="cell7">
  <circle cx="797.351" cy="523.124" r="8.41271" stroke-width="0.5" stroke="black" fill="grey"/>
  <circle cx="797.351" cy="523.124" r="5.05167" stroke-width="0.5" stroke="grey" fill="grey"/>
   </g>
   <g id="cell8">
  <circle cx="570.568" cy="364.872" r="9.7992" stroke-width="0.5" stroke="black" fill="grey"/>
  <circle cx="570.568" cy="364.872" r="5.95086" stroke-width="0.5" stroke="grey" fill="grey"/>
   </g>
   <g id="cell9">
  <circle cx="824.591" cy="81.8126" r="9.44256" stroke-width="0.5" stroke="black" fill="grey"/>
  <circle cx="824.591" cy="81.8126" r="5.73955" stroke-width="0.5" stroke="grey" fill="grey"/>
   </g>
   <g id="cell10">
  <circle cx="92.6862" cy="628.595" r="9.62199" stroke-width="0.5" stroke="black" fill="grey"/>
  <circle cx="92.6862" cy="628.595" r="5.8471" stroke-width="0.5" stroke="grey" fill="grey"/>
   </g>
   <g id="cell11">
  <circle cx="374.689" cy="790.794" r="8.65127" stroke-width="0.5" stroke="black" fill="grey"/>
  <circle cx="374.689" cy="790.794" r="5.2272" stroke-width="0.5" stroke="grey" fill="grey"/>
   </g>
   <g id="cell12">
  <circle cx="784.475" cy="107.318" r="6.70178" stroke-width="0.5" stroke="black" fill="grey"/>
  <circle cx="784.475" cy="107.318" r="4.29856" stroke-width="0.5" stroke="black" fill="black"/>
   </g>
   <g id="cell13">
  <circle cx="842.192" cy="976.753" r="8.41271" stroke-width="0.5" stroke="black" fill="grey"/>
  <circle cx="842.192" cy="976.753" r="5.05167" stroke-width="0.5" stroke="grey" fill="grey"/>
   </g>
   <g id="cell14">
  <circle cx="804.144" cy="815.099" r="7.85777" stroke-width="0.5" stroke="black" fill="grey"/>
  <circle cx="804.144" cy="815.099" r="4.77647" stroke-width="0.5" stroke="black" fill="black"/>
   </g>
   <g id="cell15">
  <circle cx="519.375" cy="792.095" r="8.41271" stroke-width="0.5" stroke="black" fill="grey"/>
  <circle cx="519.375" cy="792.095" r="5.05167" stroke-width="0.5" stroke="grey" fill="grey"/>
   </g>
   <g id="cell16">
  <circle cx="127.997" cy="703.233" r="9.70201" stroke-width="0.5" stroke="black" fill="grey"/>
  <circle cx="127.997" cy="703.233" r="5.89426" stroke-width="0.5" stroke="grey" fill="grey"/>
   </g>
   <g id="cell17">
  <circle cx="577.719" cy="148.406" r="8.41271" stroke-width="0.5" stroke="black" fill="grey"/>
  <circle cx="577.719" cy="148.406" r="5.05167" stroke-width="0.5" stroke="grey" fill="grey"/>
   </g>
   <g id="cell18">
  <circle cx="923.492" cy="742.191" r="8.41271" stroke-width="0.5" stroke="black" fill="grey"/>
  <circle cx="923.492" cy="742.191" r="5.05167" stroke-width="0.5" stroke="grey" fill="grey"/>
   </g>
   <g id="cell19">
  <circle cx="139.089" cy="418.893" r="9.37686" stroke-width="0.5" stroke="black" fill="grey"/>
  <circle cx="139.089" cy="418.893" r="5.69955" stroke-width="0.5" stroke="grey" fill="grey"/>
   </g>
   <g id="cell20">
  <circle cx="259.068" cy="189.885" r="6.09717" stroke-width="0.5" stroke="black" fill="grey"/>
  <circle cx="259.068" cy="189.885" r="4.06271" stroke-width="0.5" stroke="black" fill="black"/>
   </g>
   <g id="cell21">
  <circle cx="755.645" cy="451.049" r="8.41271" stroke-width="0.5" stroke="black" fill="grey"/>
  <circle cx="755.645" cy="451.049" r="5.05167" stroke-width="0.5" stroke="grey" fill="grey"/>
   </g>
   <g id="cell22">
  <circle cx="575.93" cy="147.059" r="9.7992" stroke-width="0.5" stroke="black" fill="grey"/>
  <circle cx="575.93" cy="147.059" r="5.95086" stroke-width="0.5" stroke="grey" fill="grey"/>
   </g>
   <g id="cell23">
  <circle cx="345.04" cy="614.571" r="9.7992" stroke-width="0.5" stroke="black" fill="grey"/>
  <circle cx="345.04" cy="614.571" r="5.95086" stroke-width="0.5" stroke="grey" fill="grey"/>
   </g>
   <g id="cell24">
  <circle cx="591.687" cy="204.541" r="8.41271" stroke-width="0.5" stroke="black" fill="grey"/>
  <circle cx="591.687" cy="204.541" r="5.05167" stroke-width="0.5" stroke="grey" fill="grey"/>
   </g>
   <g id="cell25">
  <circle cx="400.572" cy="928.416" r="8.41271" stroke-width="0.5" stroke="black" fill="grey"/>
  <circle cx="400.572" cy="928.416" r="5.05167" stroke-width="0.5" stroke="grey" fill="grey"/>
   </g>
   <g id="cell26">
  <circle cx="683.445" cy="439.768" r="2.68953" stroke-width="0.5" stroke="black" fill="grey"/>
  <circle cx="683.445" cy="439.768" r="2.42011" stroke-width="0.5" stroke="black" fill="black"/>
   </g>
   <g id="cell27">
  <circle cx="613.201" cy="437.111" r="2.08246" stroke-width="0.5" stroke="black" fill="grey"/>
  <circle cx="613.201" cy="437.111" r="1.95565" stroke-width="0.5" stroke="black" fill="black"/>
   </g>
   <g id="cell28">
  <circle cx="693.632" cy="102.329" r="3.9178" stroke-width="0.5" stroke="black" fill="grey"/>
  <circle cx="693.632" cy="102.329" r="2.85647" stroke-width="0.5" stroke="black" fill="black"/>
   </g>
   <g id="cell29">
  <circle cx="983.726" cy="684.776" r="8.9283" stroke-width="0.5" stroke="black" fill="grey"/>
  <circle cx="983.726" cy="684.776" r="5.4161" stroke-width="0.5" stroke="grey" fill="grey"/>
   </g>
   <g id="cell30">
  <circle cx="669.897" cy="167.238" r="2.01831" stroke-width="0.5" stroke="black" fill="grey"/>
  <circle cx="669.897" cy="167.238" r="1.90974" stroke-width="0.5" stroke="black" fill="black"/>
   </g>
   <g id="cell31">
  <circle cx="386.915" cy="105.616" r="8.41271" stroke-width="0.5" stroke="black" fill="grey"/>
  <circle cx="386.915" cy="105.616" r="5.05167" stroke-width="0.5" stroke="grey" fill="grey"/>
   </g>
   <g id="cell32">
  <circle cx="281.99" cy="593.873" r="4.97337" stroke-width="0.5" stroke="black" fill="grey"/>
  <circle cx="281.99" cy="593.873" r="3.55188" stroke-width="0.5" stroke="black" fill="black"/>
   </g>
   <g id="cell33">
  <circle cx="330.343" cy="574.238" r="9.30826" stroke-width="0.5" stroke="black" fill="grey"/>
  <circle cx="330.343" cy="574.238" r="5.65742" stroke-width="0.5" stroke="grey" fill="grey"/>
   </g>
   <g id="cell34">
  <circle cx="429.061" cy="638.452" r="8.41271" stroke-width="0.5" stroke="black" fill="grey"/>
  <circle cx="429.061" cy="638.452" r="5.05167" stroke-width="0.5" stroke="grey" fill="grey"/>
   </g>
   <g id="cell35">
  <circle cx="987.916" cy="127.374" r="9.92631" stroke-width="0.5" stroke="black" fill="grey"/>
  <circle cx="987.916" cy="127.374" r="6.02363" stroke-width="0.5" stroke="grey" fill="grey"/>
   </g>
   <g id="cell36">
  <circle cx="202.207" cy="631.187" r="9.23685" stroke-width="0.5" stroke="black" fill="grey"/>
  <circle cx="202.207" cy="631.187" r="5.61315" stroke-width="0.5" stroke="grey" fill="grey"/>
   </g>
   <g id="cell37">
  <circle cx="985.401" cy="649.455" r="9.70201" stroke-width="0.5" stroke="black" fill="grey"/>
  <circle cx="985.401" cy="649.455" r="5.89426" stroke-width="0.5" stroke="grey" fill="grey"/>
   </g>
   <g id="cell38">
  <circle cx="256.3" cy="398.058" r="8.41271" stroke-width="0.5" stroke="black" fill="grey"/>
  <circle cx="256.3" cy="398.058" r="5.05167" stroke-width="0.5" stroke="grey" fill="grey"/>
   </g>
   <g id="cell39">
  <circle cx="487.088" cy="241.479" r="2.90356" stroke-width="0.5" stroke="black" fill="grey"/>
  <circle cx="487.088" cy="241.479" r="2.44661" stroke-width="0.5" stroke="black" fill="black"/>
   </g>
   <g id="cell40">
  <circle cx="148.174" cy="351.71" r="8.41271" stroke-width="0.5" stroke="black" fill="red"/>
  <circle cx="148.174" cy="351.71" r="5.05167" stroke-width="0.5" stroke="red" fill="red"/>
   </g>
   <g id="cell41">
  <circle cx="692.068" cy="620.256" r="9.94548" stroke-width="0.5" stroke="black" fill="red"/>
  <circle cx="692.068" cy="620.256" r="6.03448" stroke-width="0.5" stroke="red" fill="red"/>
   </g>
   <g id="cell42">
  <circle cx="135.118" cy="758.815" r="8.41271" stroke-width="0.5" stroke="black" fill="red"/>
  <circle cx="135.118" cy="758.815" r="5.05167" stroke-width="0.5" stroke="red" fill="red"/>
   </g>
   <g id="cell43">
  <circle cx="948.586" cy="367.211" r="8.41271" stroke-width="0.5" stroke="black" fill="red"/>
  <circle cx="948.586" cy="367.211" r="5.05167" stroke-width="0.5" stroke="red" fill="red"/>
   </g>
   <g id="cell44">
  <circle cx="828.082" cy="31.0062" r="9.5651" stroke-width="0.5" stroke="black" fill="red"/>
  <circle cx="828.082" cy="31.0062" r="5.81327" stroke-width="0.5" stroke="red" fill="red"/>
   </g>
   <g id="cell45">
  <circle cx="602.45" cy="834.177" r="9.5053" stroke-width="0.5" stroke="black" fill="red"/>
  <circle cx="602.45" cy="834.177" r="5.77744" stroke-width="0.5" stroke="red" fill="red"/>
   </g>
   <g id="cell46">
  <circle cx="81.153" cy="956.927" r="8.41271" stroke-width="0.5" stroke="black" fill="red"/>
  <circle cx="81.153" cy="956.927" r="5.05167" stroke-width="0.5" stroke="red" fill="red"/>
   </g>
   <g id="cell47">
  <circle cx="870.198" cy="462.158" r="9.23685" stroke-width="0.5" stroke="black" fill="red"/>
  <circle cx="870.198" cy="462.158" r="5.61315" stroke-width="0.5" stroke="red" fill="red"/>
   </g>
   <g id="cell48">
  <circle cx="980.891" cy="56.4316" r="9.2729" stroke-width="0.5" stroke="black" fill="red"/>
  <circle cx="980.891" cy="56.4316" r="5.63555" stroke-width="0.5" stroke="red" fill="red"/>
   </g>
   <g id="cell49">
  <circle cx="457.656" cy="734.723" r="8.68937" stroke-width="0.5" stroke="black" fill="red"/>
  <circle cx="457.656" cy="734.723" r="5.25417" stroke-width="0.5" stroke="red" fill="red"/>
   </g>
   <g id="cell50">
  <circle cx="62.5114" cy="426.308" r="8.51252" stroke-width="0.5" stroke="black" fill="red"/>
  <circle cx="62.5114" cy="426.308" r="5.12552" stroke-width="0.5" stroke="red" fill="red"/>
   </g>
   <g id="cell51">
  <circle cx="971.089" cy="112.503" r="3.78562" stroke-width="0.5" stroke="black" fill="red"/>
  <circle cx="971.089" cy="112.503" r="2.80027" stroke-width="0.5" stroke="black" fill="black"/>
   </g>
   <g id="cell52">
  <circle cx="314.587" cy="512.392" r="8.41271" stroke-width="0.5" stroke="black" fill="red"/>
  <circle cx="314.587" cy="512.392" r="5.05167" stroke-width="0.5" stroke="red" fill="red"/>
   </g>
   <g id="cell53">
  <circle cx="696.593" cy="303.174" r="8.41271" stroke-width="0.5" stroke="black" fill="red"/>
  <circle cx="696.593" cy="303.174" r="5.05167" stroke-width="0.5" stroke="red" fill="red"/>
   </g>
   <g id="cell54">
  <circle cx="412.062" cy="939.276" r="9.16281" stroke-width="0.5" stroke="black" fill="red"/>
  <circle cx="412.062" cy="939.276" r="5.56677" stroke-width="0.5" stroke="red" fill="red"/>
   </g>
   <g id="cell55">
  <circle cx="200.293" cy="718.936" r="8.41271" stroke-width="0.5" stroke="black" fill="red"/>
  <circle cx="200.293" cy="718.936" r="5.05167" stroke-width="0.5" stroke="red" fill="red"/>
   </g>
   <g id="cell56">
  <circle cx="556.434" cy="866.496" r="8.41271" stroke-width="0.5" stroke="black" fill="red"/>
  <circle cx="556.434" cy="866.496" r="5.05167" stroke-width="0.5" stroke="red" fill="red"/>
   </g>
   <g id="cell57">
  <circle cx="533.448" cy="522.356" r="9.41008" stroke-width="0.5" stroke="black" fill="red"/>
  <circle cx="533.448" cy="522.356" r="5.71981" stroke-width="0.5" stroke="red" fill="red"/>
   </g>
   <g id="cell58">
  <circle cx="87.0193" cy="899.873" r="9.7992" stroke-width="0.5" stroke="black" fill="red"/>
  <circle cx="87.0193" cy="899.873" r="5.95086" stroke-width="0.5" stroke="red" fill="red"/>
   </g>
   <g id="cell59">
  <circle cx="99.4768" cy="933.099" r="8.41271" stroke-width="0.5" stroke="black" fill="red"/>
  <circle cx="99.4768" cy="933.099" r="5.05167" stroke-width="0.5" stroke="red" fill="red"/>
   </g>
   <g id="cell60">
  <circle cx="318.549" cy="20.9364" r="9.41008" stroke-width="0.5" stroke="black" fill="red"/>
  <circle cx="318.549" cy="20.9364" r="5.71981" stroke-width="0.5" stroke="red" fill="red"/>
   </g>
   <g id="cell61">
  <circle cx="859.66" cy="140.408" r="9.5053" stroke-width="0.5" stroke="black" fill="red"/>
  <circle cx="859.66" cy="140.408" r="5.77744" stroke-width="0.5" stroke="red" fill="red"/>
   </g>
   <g id="cell62">
  <circle cx="710.411" cy="857.906" r="8.41271" stroke-width="0.5" stroke="black" fill="red"/>
  <circle cx="710.411" cy="857.906" r="5.05167" stroke-width="0.5" stroke="red" fill="red"/>
   </g>
   <g id="cell63">
  <circle cx="277.805" cy="165.654" r="9.44256" stroke-width="0.5" stroke="black" fill="red"/>
  <circle cx="277.805" cy="165.654" r="5.73955" stroke-width="0.5" stroke="red" fill="red"/>
   </g>
   <g id="cell64">
  <circle cx="593.723" cy="567.155" r="9.75192" stroke-width="0.5" stroke="black" fill="red"/>
  <circle cx="593.723" cy="567.155" r="5.92342" stroke-width="0.5" stroke="red" fill="red"/>
   </g>
   <g id="cell65">
  <circle cx="172.04" cy="826.314" r="8.41271" stroke-width="0.5" stroke="black" fill="red"/>
  <circle cx="172.04" cy="826.314" r="5.05167" stroke-width="0.5" stroke="red" fill="red"/>
   </g>
   <g id="cell66">
  <circle cx="24.7924" cy="101.579" r="8.41271" stroke-width="0.5" stroke="black" fill="red"/>
  <circle cx="24.7924" cy="101.579" r="5.05167" stroke-width="0.5" stroke="red" fill="red"/>
   </g>
   <g id="cell67">
  <circle cx="587.423" cy="268.546" r="9.7273" stroke-width="0.5" stroke="black" fill="red"/>
  <circle cx="587.423" cy="268.546" r="5.90906" stroke-width="0.5" stroke="red" fill="red"/>
   </g>
   <g id="cell68">
  <circle cx="746.218" cy="297.551" r="9.44256" stroke-width="0.5" stroke="black" fill="red"/>
  <circle cx="746.218" cy="297.551" r="5.73955" stroke-width="0.5" stroke="red" fill="red"/>
   </g>
   <g id="cell69">
  <circle cx="444.522" cy="207.945" r="8.41271" stroke-width="0.5" stroke="black" fill="red"/>
  <circle cx="444.522" cy="207.945" r="5.05167" stroke-width="0.5" stroke="red" fill="red"/>
   </g>
   <g id="cell70">
  <circle cx="583.3" cy="409.447" r="9.44256" stroke-width="0.5" stroke="black" fill="red"/>
  <circle cx="583.3" cy="409.447" r="5.73955" stroke-width="0.5" stroke="red" fill="red"/>
   </g>
   <g id="cell71">
  <circle cx="914.573" cy="582.851" r="8.41271" stroke-width="0.5" stroke="black" fill="red"/>
  <circle cx="914.573" cy="582.851" r="5.05167" stroke-width="0.5" stroke="red" fill="red"/>
   </g>
   <g id="cell72">
  <circle cx="233.225" cy="888.789" r="8.41271" stroke-width="0.5" stroke="black" fill="red"/>
  <circle cx="233.225" cy="888.789" r="5.05167" stroke-width="0.5" stroke="red" fill="red"/>
   </g>
   <g id="cell73">
  <circle cx="671.401" cy="460.448" r="8.41271" stroke-width="0.5" stroke="black" fill="red"/>
  <circle cx="671.401" cy="460.448" r="5.05167" stroke-width="0.5" stroke="red" fill="red"/>
   </g>
   <g id="cell74">
  <circle cx="851.238" cy="981.182" r="8.41271" stroke-width="0.5" stroke="black" fill="red"/>
  <circle cx="851.238" cy="981.182" r="5.05167" stroke-width="0.5" stroke="red" fill="red"/>
   </g>
   <g id="cell75">
  <circle cx="108.373" cy="293.113" r="8.41271" stroke-width="0.5" stroke="black" fill="red"/>
  <circle cx="108.373" cy="293.113" r="5.05167" stroke-width="0.5" stroke="red" fill="red"/>
   </g>
   <g id="cell76">
  <circle cx="820.853" cy="415.149" r="8.41271" stroke-width="0.5" stroke="black" fill="red"/>
  <circle cx="820.853" cy="415.149" r="5.05167" stroke-width="0.5" stroke="red" fill="red"/>
   </g>
   <g id="cell77">
  <circle cx="693.578" cy="879.957" r="9.7273" stroke-width="0.5" stroke="black" fill="red"/>
  <circle cx="693.578" cy="879.957" r="5.90906" stroke-width="0.5" stroke="red" fill="red"/>
   </g>
   <g id="cell78">
  <circle cx="585.614" cy="303.658" r="9.44256" stroke-width="0.5" stroke="black" fill="red"/>
  <circle cx="585.614" cy="303.658" r="5.73955" stroke-width="0.5" stroke="red" fill="red"/>
   </g>
   <g id="cell79">
  <circle cx="949.625" cy="710.186" r="9.04745" stroke-width="0.5" stroke="black" fill="red"/>
  <circle cx="949.625" cy="710.186" r="5.49345" stroke-width="0.5" stroke="red" fill="red"/>
   </g>
   <g id="cell80">
  <circle cx="743.78" cy="681.914" r="9.7992" stroke-width="0.5" stroke="black" fill="yellow"/>
  <circle cx="743.78" cy="681.914" r="5.95086" stroke-width="0.5" stroke="yellow" fill="yellow"/>
   </g>
   <g id="cell81">
  <circle cx="567.517" cy="944.511" r="9.90658" stroke-width="0.5" stroke="black" fill="yellow"/>
  <circle cx="567.517" cy="944.511" r="6.01243" stroke-width="0.5" stroke="yellow" fill="yellow"/>
   </g>
   <g id="cell82">
  <circle cx="649.244" cy="390.163" r="9.92631" stroke-width="0.5" stroke="black" fill="yellow"/>
  <circle cx="649.244" cy="390.163" r="6.02363" stroke-width="0.5" stroke="yellow" fill="yellow"/>
   </g>
   <g id="cell83">
  <circle cx="604.931" cy="609.583" r="9.30826" stroke-width="0.5" stroke="black" fill="yellow"/>
  <circle cx="604.931" cy="609.583" r="5.65742" stroke-width="0.5" stroke="yellow" fill="yellow"/>
   </g>
   <g id="cell84">
  <circle cx="15.3192" cy="462.353" r="9.84395" stroke-width="0.5" stroke="black" fill="yellow"/>
  <circle cx="15.3192" cy="462.353" r="5.97665" stroke-width="0.5" stroke="yellow" fill="yellow"/>
   </g>
   <g id="cell85">
  <circle cx="720.172" cy="688.956" r="9.70201" stroke-width="0.5" stroke="black" fill="yellow"/>
  <circle cx="720.172" cy="688.956" r="5.89426" stroke-width="0.5" stroke="yellow" fill="yellow"/>
   </g>
   <g id="cell86">
  <circle cx="300.826" cy="399.35" r="9.5651" stroke-width="0.5" stroke="black" fill="yellow"/>
  <circle cx="300.826" cy="399.35" r="5.81327" stroke-width="0.5" stroke="yellow" fill="yellow"/>
   </g>
   <g id="cell87">
  <circle cx="727.316" cy="414.227" r="9.84395" stroke-width="0.5" stroke="black" fill="yellow"/>
  <circle cx="727.316" cy="414.227" r="5.97665" stroke-width="0.5" stroke="yellow" fill="yellow"/>
   </g>
   <g id="cell88">
  <circle cx="132.076" cy="114.636" r="8.41271" stroke-width="0.5" stroke="black" fill="yellow"/>
  <circle cx="132.076" cy="114.636" r="5.05167" stroke-width="0.5" stroke="yellow" fill="yellow"/>
   </g>
   <g id="cell89">
  <circle cx="77.9222" cy="554.073" r="8.41271" stroke-width="0.5" stroke="black" fill="yellow"/>
  <circle cx="77.9222" cy="554.073" r="5.05167" stroke-width="0.5" stroke="yellow" fill="yellow"/>
   </g>
   <g id="cell90">
  <circle cx="574.187" cy="573.715" r="9.64936" stroke-width="0.5" stroke="black" fill="yellow"/>
  <circle cx="574.187" cy="573.715" r="5.86329" stroke-width="0.5" stroke="yellow" fill="yellow"/>
   </g>
   <g id="cell91">
  <circle cx="31.057" cy="669.971" r="8.84788" stroke-width="0.5" stroke="black" fill="yellow"/>
  <circle cx="31.057" cy="669.971" r="5.36278" stroke-width="0.5" stroke="yellow" fill="yellow"/>
   </g>
   <g id="cell92">
  <circle cx="625.012" cy="286.084" r="9.62199" stroke-width="0.5" stroke="black" fill="yellow"/>
  <circle cx="625.012" cy="286.084" r="5.8471" stroke-width="0.5" stroke="yellow" fill="yellow"/>
   </g>
   <g id="cell93">
  <circle cx="192.048" cy="900.438" r="8.41271" stroke-width="0.5" stroke="black" fill="yellow"/>
  <circle cx="192.048" cy="900.438" r="5.05167" stroke-width="0.5" stroke="yellow" fill="yellow"/>
   </g>
   <g id="cell94">
  <circle cx="366.545" cy="79.8905" r="8.41271" stroke-width="0.5" stroke="black" fill="yellow"/>
  <circle cx="366.545" cy="79.8905" r="5.05167" stroke-width="0.5" stroke="yellow" fill="yellow"/>
   </g>
   <g id="cell95">
  <circle cx="979.528" cy="873.375" r="8.41271" stroke-width="0.5" stroke="black" fill="yellow"/>
  <circle cx="979.528" cy="873.375" r="5.05167" stroke-width="0.5" stroke="yellow" fill="yellow"/>
   </g>
   <g id="cell96">
  <circle cx="818.498" cy="527.459" r="8.4325" stroke-width="0.5" stroke="black" fill="yellow"/>
  <circle cx="818.498" cy="527.459" r="5.06552" stroke-width="0.5" stroke="yellow" fill="yellow"/>
   </g>
   <g id="cell97">
  <circle cx="456.562" cy="129.968" r="8.41271" stroke-width="0.5" stroke="black" fill="yellow"/>
  <circle cx="456.562" cy="129.968" r="5.05167" stroke-width="0.5" stroke="yellow" fill="yellow"/>
   </g>
   <g id="cell98">
  <circle cx="917.577" cy="346.029" r="9.44256" stroke-width="0.5" stroke="black" fill="yellow"/>
  <circle cx="917.577" cy="346.029" r="5.73955" stroke-width="0.5" stroke="yellow" fill="yellow"/>
   </g>
   <g id="cell99">
  <circle cx="438.987" cy="955.276" r="8.41271" stroke-width="0.5" stroke="black" fill="yellow"/>
  <circle cx="438.987" cy="955.276" r="5.05167" stroke-width="0.5" stroke="yellow" fill="yellow"/>
   </g>
   <g id="cell100">
  <circle cx="175.62" cy="914.727" r="8.57856" stroke-width="0.5" stroke="black" fill="yellow"/>
  <circle cx="175.62" cy="914.727" r="5.17461" stroke-width="0.5" stroke="yellow" fill="yellow"/>
   </g>
   <g id="cell101">
  <circle cx="42.259" cy="179.554" r="9.92631" stroke-width="0.5" stroke="black" fill="yellow"/>
  <circle cx="42.259" cy="179.554" r="6.02363" stroke-width="0.5" stroke="yellow" fill="yellow"/>
   </g>
   <g id="cell102">
  <circle cx="611.97" cy="145.478" r="8.41271" stroke-width="0.5" stroke="black" fill="yellow"/>
  <circle cx="611.97" cy="145.478" r="5.05167" stroke-width="0.5" stroke="yellow" fill="yellow"/>
   </g>
   <g id="cell103">
  <circle cx="800.829" cy="855.98" r="8.41271" stroke-width="0.5" stroke="black" fill="yellow"/>
  <circle cx="800.829" cy="855.98" r="5.05167" stroke-width="0.5" stroke="yellow" fill="yellow"/>
   </g>
   <g id="cell104">
  <circle cx="785.647" cy="439.577" r="8.41271" stroke-width="0.5" stroke="black" fill="yellow"/>
  <circle cx="785.647" cy="439.577" r="5.05167" stroke-width="0.5" stroke="yellow" fill="yellow"/>
   </g>
   <g id="cell105">
  <circle cx="129.049" cy="407.061" r="9.4743" stroke-width="0.5" stroke="black" fill="yellow"/>
  <circle cx="129.049" cy="407.061" r="5.75875" stroke-width="0.5" stroke="yellow" fill="yellow"/>
   </g>
   <g id="cell106">
  <circle cx="49.8388" cy="979.459" r="8.41271" stroke-width="0.5" stroke="black" fill="yellow"/>
  <circle cx="49.8388" cy="979.459" r="5.05167" stroke-width="0.5" stroke="yellow" fill="yellow"/>
   </g>
   <g id="cell107">
  <circle cx="338.973" cy="431.669" r="8.41271" stroke-width="0.5" stroke="black" fill="yellow"/>
  <circle cx="338.973" cy="431.669" r="5.05167" stroke-width="0.5" stroke="yellow" fill="yellow"/>
   </g>
   <g id="cell108">
  <circle cx="720.725" cy="52.6374" r="9.30826" stroke-width="0.5" stroke="black" fill="yellow"/>
  <circle cx="720.725" cy="52.6374" r="5.65742" stroke-width="0.5" stroke="yellow" fill="yellow"/>
   </g>
   <g id="cell109">
  <circle cx="376.314" cy="973.434" r="8.41271" stroke-width="0.5" stroke="black" fill="yellow"/>
  <circle cx="376.314" cy="973.434" r="5.05167" stroke-width="0.5" stroke="yellow" fill="yellow"/>
   </g>
   <g id="cell110">
  <circle cx="861.55" cy="235.967" r="9.70201" stroke-width="0.5" stroke="black" fill="yellow"/>
  <circle cx="861.55" cy="235.967" r="5.89426" stroke-width="0.5" stroke="yellow" fill="yellow"/>
   </g>
   <g id="cell111">
  <circle cx="763.466" cy="372.253" r="8.41271" stroke-width="0.5" stroke="black" fill="yellow"/>
  <circle cx="763.466" cy="372.253" r="5.05167" stroke-width="0.5" stroke="yellow" fill="yellow"/>
   </g>
   <g id="cell112">
  <circle cx="698.098" cy="736.517" r="8.41271" stroke-width="0.5" stroke="black" fill="yellow"/>
  <circle cx="698.098" cy="736.517" r="5.05167" stroke-width="0.5" stroke="yellow" fill="yellow"/>
   </g>
   <g id="cell113">
  <circle cx="339.1" cy="550.029" r="8.41271" stroke-width="0.5" stroke="black" fill="yellow"/>
  <circle cx="339.1" cy="550.029" r="5.05167" stroke-width="0.5" stroke="yellow" fill="yellow"/>
   </g>
   <g id="cell114">
  <circle cx="74.3077" cy="357.209" r="8.80772" stroke-width="0.5" stroke="black" fill="yellow"/>
  <circle cx="74.3077" cy="357.209" r="5.33574" stroke-width="0.5" stroke="yellow" fill="yellow"/>
   </g>
   <g id="cell115">
  <circle cx="173.36" cy="66.7394" r="8.41271" stroke-width="0.5" stroke="black" fill="yellow"/>
  <circle cx="173.36" cy="66.7394" r="5.05167" stroke-width="0.5" stroke="yellow" fill="yellow"/>
   </g>
   <g id="cell116">
  <circle cx="812.884" cy="444.115" r="8.41271" stroke-width="0.5" stroke="black" fill="yellow"/>
  <circle cx="812.884" cy="444.115" r="5.05167" stroke-width="0.5" stroke="yellow" fill="yellow"/>
   </g>
   <g id="cell117">
  <circle cx="855.092" cy="369.889" r="4.29025" stroke-width="0.5" stroke="black" fill="yellow"/>
  <circle cx="855.092" cy="369.889" r="3.24692" stroke-width="0.5" stroke="black" fill="black"/>
   </g>
   <g id="cell118">
  <circle cx="946.282" cy="605.667" r="8.88811" stroke-width="0.5" stroke="black" fill="yellow"/>
  <circle cx="946.282" cy="605.667" r="5.38958" stroke-width="0.5" stroke="yellow" fill="yellow"/>
   </g>
   <g id="cell119">
  <circle cx="621.742" cy="56.3432" r="8.41271" stroke-width="0.5" stroke="black" fill="yellow"/>
  <circle cx="621.742" cy="56.3432" r="5.05167" stroke-width="0.5" stroke="yellow" fill="yellow"/>
   </g>
  </g>
 </g>
  <rect x="775" y="1035" width="200" height="10" stroke-width="2" stroke="rgb(255,255,255)" fill="rgb(0,0,0)"/>
  <text x="781.25" y="1028.75"
   font-family="Arial" font-size="25" fill="black" >
   200 &#956;m
  </text>
  <text x="25" y="1045"
   font-family="Arial" font-size="18.75" fill="black" >
   0 days, 0 hours, 0 minutes, and 8.9573 seconds
  </text>
  <rect x="0" y="70" width="1000" height="1000" stroke-width="2" stroke="rgb(0,0,0)" fill="none"/>
</svg>
