<?xml version="1.0" encoding="UTF-8" standalone="no"?>
<!-- Created with PhysiCell (http://PhysiCell.MathCancer.org/) -->
<svg 
 xmlns:dc="http://purl.org/dc/elements/1.1/" 
 xmlns:cc="http://creativecommons.org/ns#" 
 xmlns:rdf="http://www.w3.org/1999/02/22-rdf-syntax-ns#" 
 xmlns:svg="http://www.w3.org/2000/svg" 
 xmlns="http://www.w3.org/2000/svg" 
 version="1.1" 
 width="1000" 
 height="1070" 
 id="svg2">
  <rect x="0" y="0" width="1000" height="1070" stroke-width="2" stroke="white" fill="white"/>
  <text x="12.5" y="30"
   font-family="Arial" font-size="25" fill="black" >
   Current time: 0 days, 13 hours, and 30.00 minutes, z = 0.00 &#956;m
  </text>
  <text x="12.5" y="57.5"
   font-family="Arial" font-size="23.75" fill="black" >
   100 agents
  </text>
 <g id="tissue" 
    transform="translate(0,1070) scale(1,-1)">
  <g id="ECM">
  </g>
  <g id="cells">
   <g id="cell0">
  <circle cx="495.262" cy="617.023" r="10.5387" stroke-width="0.5" stroke="black" fill="grey"/>
  <circle cx="495.262" cy="617.023" r="6.34177" stroke-width="0.5" stroke="grey" fill="grey"/>
   </g>
   <g id="cell118">
  <circle cx="916.234" cy="605.829" r="10.5254" stroke-width="0.5" stroke="black" fill="yellow"/>
  <circle cx="916.234" cy="605.829" r="6.33607" stroke-width="0.5" stroke="yellow" fill="yellow"/>
   </g>
   <g id="cell100">
  <circle cx="147.072" cy="834.097" r="10.5211" stroke-width="0.5" stroke="black" fill="yellow"/>
  <circle cx="147.072" cy="834.097" r="6.33419" stroke-width="0.5" stroke="yellow" fill="yellow"/>
   </g>
   <g id="cell3">
  <circle cx="612.443" cy="617.689" r="10.5254" stroke-width="0.5" stroke="black" fill="grey"/>
  <circle cx="612.443" cy="617.689" r="6.33607" stroke-width="0.5" stroke="grey" fill="grey"/>
   </g>
   <g id="cell103">
  <circle cx="841.459" cy="857.342" r="8.41271" stroke-width="0.5" stroke="black" fill="yellow"/>
  <circle cx="841.459" cy="857.342" r="5.05167" stroke-width="0.5" stroke="yellow" fill="yellow"/>
   </g>
   <g id="cell5">
  <circle cx="75.5167" cy="967.659" r="2.05011" stroke-width="0.5" stroke="black" fill="grey"/>
  <circle cx="75.5167" cy="967.659" r="2.00678" stroke-width="0.5" stroke="black" fill="black"/>
   </g>
   <g id="cell6">
  <circle cx="385.987" cy="484.758" r="8.07048" stroke-width="0.5" stroke="black" fill="grey"/>
  <circle cx="385.987" cy="484.758" r="5.01898" stroke-width="0.5" stroke="black" fill="black"/>
   </g>
   <g id="cell7">
  <circle cx="871.09" cy="534.198" r="10.4796" stroke-width="0.5" stroke="black" fill="grey"/>
  <circle cx="871.09" cy="534.198" r="6.31548" stroke-width="0.5" stroke="grey" fill="grey"/>
   </g>
   <g id="cell8">
  <circle cx="589.062" cy="404.902" r="10.4446" stroke-width="0.5" stroke="black" fill="grey"/>
  <circle cx="589.062" cy="404.902" r="6.29905" stroke-width="0.5" stroke="grey" fill="grey"/>
   </g>
   <g id="cell112">
  <circle cx="769.219" cy="754.945" r="10.5166" stroke-width="0.5" stroke="black" fill="yellow"/>
  <circle cx="769.219" cy="754.945" r="6.33218" stroke-width="0.5" stroke="yellow" fill="yellow"/>
   </g>
   <g id="cell10">
  <circle cx="134.269" cy="642.6" r="4.31608" stroke-width="0.5" stroke="black" fill="grey"/>
  <circle cx="134.269" cy="642.6" r="3.33363" stroke-width="0.5" stroke="black" fill="black"/>
   </g>
   <g id="cell11">
  <circle cx="330.059" cy="826.206" r="9.42759" stroke-width="0.5" stroke="black" fill="grey"/>
  <circle cx="330.059" cy="826.206" r="5.7267" stroke-width="0.5" stroke="black" fill="black"/>
   </g>
   <g id="cell104">
  <circle cx="791.552" cy="413.757" r="10.5352" stroke-width="0.5" stroke="black" fill="yellow"/>
  <circle cx="791.552" cy="413.757" r="6.34027" stroke-width="0.5" stroke="yellow" fill="yellow"/>
   </g>
   <g id="cell102">
  <circle cx="614.953" cy="178.548" r="10.4307" stroke-width="0.5" stroke="black" fill="yellow"/>
  <circle cx="614.953" cy="178.548" r="6.29241" stroke-width="0.5" stroke="yellow" fill="yellow"/>
   </g>
   <g id="cell14">
  <circle cx="838.103" cy="829.667" r="1.523" stroke-width="0.5" stroke="black" fill="grey"/>
  <circle cx="838.103" cy="829.667" r="1.51544" stroke-width="0.5" stroke="black" fill="black"/>
   </g>
   <g id="cell15">
  <circle cx="525.275" cy="767.583" r="1.53056" stroke-width="0.5" stroke="black" fill="grey"/>
  <circle cx="525.275" cy="767.583" r="1.52243" stroke-width="0.5" stroke="black" fill="black"/>
   </g>
   <g id="cell16">
  <circle cx="157.504" cy="744.339" r="10.4984" stroke-width="0.5" stroke="black" fill="grey"/>
  <circle cx="157.504" cy="744.339" r="6.32406" stroke-width="0.5" stroke="grey" fill="grey"/>
   </g>
   <g id="cell116">
  <circle cx="821.927" cy="479.121" r="9.92631" stroke-width="0.5" stroke="black" fill="yellow"/>
  <circle cx="821.927" cy="479.121" r="6.02363" stroke-width="0.5" stroke="yellow" fill="yellow"/>
   </g>
   <g id="cell18">
  <circle cx="959.432" cy="705.774" r="3.93571" stroke-width="0.5" stroke="black" fill="grey"/>
  <circle cx="959.432" cy="705.774" r="3.12845" stroke-width="0.5" stroke="black" fill="black"/>
   </g>
   <g id="cell101">
  <circle cx="97.0534" cy="139.677" r="9.00806" stroke-width="0.5" stroke="black" fill="yellow"/>
  <circle cx="97.0534" cy="139.677" r="5.46807" stroke-width="0.5" stroke="yellow" fill="yellow"/>
   </g>
   <g id="cell20">
  <circle cx="235.256" cy="172.059" r="5.73452" stroke-width="0.5" stroke="black" fill="grey"/>
  <circle cx="235.256" cy="172.059" r="3.94284" stroke-width="0.5" stroke="black" fill="black"/>
   </g>
   <g id="cell21">
  <circle cx="724.733" cy="441.273" r="1.22129" stroke-width="0.5" stroke="black" fill="grey"/>
  <circle cx="724.733" cy="441.273" r="1.21615" stroke-width="0.5" stroke="black" fill="black"/>
   </g>
   <g id="cell115">
  <circle cx="196.561" cy="13.6376" r="10.4955" stroke-width="0.5" stroke="black" fill="yellow"/>
  <circle cx="196.561" cy="13.6376" r="6.32275" stroke-width="0.5" stroke="yellow" fill="yellow"/>
   </g>
   <g id="cell108">
  <circle cx="702.117" cy="41.102" r="10.537" stroke-width="0.5" stroke="black" fill="yellow"/>
  <circle cx="702.117" cy="41.102" r="6.34103" stroke-width="0.5" stroke="yellow" fill="yellow"/>
   </g>
   <g id="cell24">
  <circle cx="608.109" cy="222.435" r="2.47657" stroke-width="0.5" stroke="black" fill="grey"/>
  <circle cx="608.109" cy="222.435" r="2.35383" stroke-width="0.5" stroke="black" fill="black"/>
   </g>
   <g id="cell105">
  <circle cx="112.136" cy="428.143" r="8.45606" stroke-width="0.5" stroke="black" fill="yellow"/>
  <circle cx="112.136" cy="428.143" r="5.08296" stroke-width="0.5" stroke="yellow" fill="yellow"/>
   </g>
   <g id="cell26">
  <circle cx="641.063" cy="440.819" r="10.5233" stroke-width="0.5" stroke="black" fill="grey"/>
  <circle cx="641.063" cy="440.819" r="6.33514" stroke-width="0.5" stroke="grey" fill="grey"/>
   </g>
   <g id="cell117">
  <circle cx="891.944" cy="373.462" r="10.1098" stroke-width="0.5" stroke="black" fill="yellow"/>
  <circle cx="891.944" cy="373.462" r="6.12585" stroke-width="0.5" stroke="yellow" fill="yellow"/>
   </g>
   <g id="cell28">
  <circle cx="658.21" cy="139.73" r="10.5092" stroke-width="0.5" stroke="black" fill="grey"/>
  <circle cx="658.21" cy="139.73" r="6.32893" stroke-width="0.5" stroke="grey" fill="grey"/>
   </g>
   <g id="cell29">
  <circle cx="975.139" cy="693.301" r="10.5275" stroke-width="0.5" stroke="black" fill="grey"/>
  <circle cx="975.139" cy="693.301" r="6.33696" stroke-width="0.5" stroke="grey" fill="grey"/>
   </g>
   <g id="cell30">
  <circle cx="727.432" cy="143.576" r="10.0336" stroke-width="0.5" stroke="black" fill="grey"/>
  <circle cx="727.432" cy="143.576" r="6.08382" stroke-width="0.5" stroke="grey" fill="grey"/>
   </g>
   <g id="cell31">
  <circle cx="409.335" cy="116.065" r="10.3811" stroke-width="0.5" stroke="black" fill="grey"/>
  <circle cx="409.335" cy="116.065" r="6.26814" stroke-width="0.5" stroke="grey" fill="grey"/>
   </g>
   <g id="cell114">
  <circle cx="30.6959" cy="333.389" r="10.3991" stroke-width="0.5" stroke="black" fill="yellow"/>
  <circle cx="30.6959" cy="333.389" r="6.27703" stroke-width="0.5" stroke="yellow" fill="yellow"/>
   </g>
   <g id="cell107">
  <circle cx="386.377" cy="416.329" r="8.88811" stroke-width="0.5" stroke="black" fill="yellow"/>
  <circle cx="386.377" cy="416.329" r="5.38958" stroke-width="0.5" stroke="yellow" fill="yellow"/>
   </g>
   <g id="cell106">
  <circle cx="31.6547" cy="976.924" r="10.5142" stroke-width="0.5" stroke="black" fill="yellow"/>
  <circle cx="31.6547" cy="976.924" r="6.33113" stroke-width="0.5" stroke="yellow" fill="yellow"/>
   </g>
   <g id="cell35">
  <circle cx="914.009" cy="107.156" r="8.41271" stroke-width="0.5" stroke="black" fill="grey"/>
  <circle cx="914.009" cy="107.156" r="5.05167" stroke-width="0.5" stroke="grey" fill="grey"/>
   </g>
   <g id="cell109">
  <circle cx="369.727" cy="952.699" r="10.4208" stroke-width="0.5" stroke="black" fill="yellow"/>
  <circle cx="369.727" cy="952.699" r="6.28762" stroke-width="0.5" stroke="yellow" fill="yellow"/>
   </g>
   <g id="cell111">
  <circle cx="769.522" cy="361.088" r="10.0654" stroke-width="0.5" stroke="black" fill="yellow"/>
  <circle cx="769.522" cy="361.088" r="6.10145" stroke-width="0.5" stroke="yellow" fill="yellow"/>
   </g>
   <g id="cell38">
  <circle cx="228.983" cy="445.784" r="1.99864" stroke-width="0.5" stroke="black" fill="grey"/>
  <circle cx="228.983" cy="445.784" r="1.96166" stroke-width="0.5" stroke="black" fill="black"/>
   </g>
   <g id="cell110">
  <circle cx="862.347" cy="236.751" r="8.68937" stroke-width="0.5" stroke="black" fill="yellow"/>
  <circle cx="862.347" cy="236.751" r="5.25417" stroke-width="0.5" stroke="yellow" fill="yellow"/>
   </g>
   <g id="cell40">
  <circle cx="167.587" cy="382.055" r="10.4862" stroke-width="0.5" stroke="black" fill="red"/>
  <circle cx="167.587" cy="382.055" r="6.31853" stroke-width="0.5" stroke="red" fill="red"/>
   </g>
   <g id="cell41">
  <circle cx="673.703" cy="671.203" r="10.5117" stroke-width="0.5" stroke="black" fill="red"/>
  <circle cx="673.703" cy="671.203" r="6.33005" stroke-width="0.5" stroke="red" fill="red"/>
   </g>
   <g id="cell42">
  <circle cx="149.557" cy="739.642" r="10.5117" stroke-width="0.5" stroke="black" fill="red"/>
  <circle cx="149.557" cy="739.642" r="6.33005" stroke-width="0.5" stroke="red" fill="red"/>
   </g>
   <g id="cell43">
  <circle cx="895.739" cy="384.436" r="10.4102" stroke-width="0.5" stroke="black" fill="red"/>
  <circle cx="895.739" cy="384.436" r="6.2825" stroke-width="0.5" stroke="red" fill="red"/>
   </g>
   <g id="cell44">
  <circle cx="822.047" cy="19.402" r="10.483" stroke-width="0.5" stroke="black" fill="red"/>
  <circle cx="822.047" cy="19.402" r="6.31703" stroke-width="0.5" stroke="red" fill="red"/>
   </g>
   <g id="cell45">
  <circle cx="640.687" cy="823.103" r="10.2999" stroke-width="0.5" stroke="black" fill="red"/>
  <circle cx="640.687" cy="823.103" r="6.22699" stroke-width="0.5" stroke="red" fill="red"/>
   </g>
   <g id="cell46">
  <circle cx="41.7509" cy="914.587" r="10.5233" stroke-width="0.5" stroke="black" fill="red"/>
  <circle cx="41.7509" cy="914.587" r="6.33514" stroke-width="0.5" stroke="red" fill="red"/>
   </g>
   <g id="cell47">
  <circle cx="888.648" cy="423.903" r="10.4984" stroke-width="0.5" stroke="black" fill="red"/>
  <circle cx="888.648" cy="423.903" r="6.32406" stroke-width="0.5" stroke="red" fill="red"/>
   </g>
   <g id="cell48">
  <circle cx="917.867" cy="40.4303" r="10.5314" stroke-width="0.5" stroke="black" fill="red"/>
  <circle cx="917.867" cy="40.4303" r="6.33867" stroke-width="0.5" stroke="red" fill="red"/>
   </g>
   <g id="cell49">
  <circle cx="456.547" cy="785.181" r="10.4156" stroke-width="0.5" stroke="black" fill="red"/>
  <circle cx="456.547" cy="785.181" r="6.2851" stroke-width="0.5" stroke="red" fill="red"/>
   </g>
   <g id="cell50">
  <circle cx="22.0554" cy="493.155" r="10.542" stroke-width="0.5" stroke="black" fill="red"/>
  <circle cx="22.0554" cy="493.155" r="6.34318" stroke-width="0.5" stroke="red" fill="red"/>
   </g>
   <g id="cell51">
  <circle cx="965.114" cy="133.464" r="10.5333" stroke-width="0.5" stroke="black" fill="red"/>
  <circle cx="965.114" cy="133.464" r="6.33948" stroke-width="0.5" stroke="red" fill="red"/>
   </g>
   <g id="cell52">
  <circle cx="289.862" cy="499.505" r="1.31434" stroke-width="0.5" stroke="black" fill="red"/>
  <circle cx="289.862" cy="499.505" r="1.30596" stroke-width="0.5" stroke="black" fill="black"/>
   </g>
   <g id="cell53">
  <circle cx="685.495" cy="346.229" r="10.5233" stroke-width="0.5" stroke="black" fill="red"/>
  <circle cx="685.495" cy="346.229" r="6.33514" stroke-width="0.5" stroke="red" fill="red"/>
   </g>
   <g id="cell54">
  <circle cx="456.472" cy="929.11" r="10.4446" stroke-width="0.5" stroke="black" fill="red"/>
  <circle cx="456.472" cy="929.11" r="6.29905" stroke-width="0.5" stroke="red" fill="red"/>
   </g>
   <g id="cell55">
  <circle cx="261.541" cy="714.478" r="9.59391" stroke-width="0.5" stroke="black" fill="red"/>
  <circle cx="261.541" cy="714.478" r="5.83043" stroke-width="0.5" stroke="red" fill="red"/>
   </g>
   <g id="cell56">
  <circle cx="542.756" cy="802.599" r="10.4894" stroke-width="0.5" stroke="black" fill="red"/>
  <circle cx="542.756" cy="802.599" r="6.31998" stroke-width="0.5" stroke="red" fill="red"/>
   </g>
   <g id="cell57">
  <circle cx="485.42" cy="556.051" r="10.5066" stroke-width="0.5" stroke="black" fill="red"/>
  <circle cx="485.42" cy="556.051" r="6.32777" stroke-width="0.5" stroke="red" fill="red"/>
   </g>
   <g id="cell58">
  <circle cx="67.38" cy="916.746" r="10.4489" stroke-width="0.5" stroke="black" fill="red"/>
  <circle cx="67.38" cy="916.746" r="6.30112" stroke-width="0.5" stroke="red" fill="red"/>
   </g>
   <g id="cell59">
  <circle cx="96.7375" cy="941.826" r="10.4208" stroke-width="0.5" stroke="black" fill="red"/>
  <circle cx="96.7375" cy="941.826" r="6.28762" stroke-width="0.5" stroke="red" fill="red"/>
   </g>
   <g id="cell60">
  <circle cx="279.475" cy="73.0873" r="10.3811" stroke-width="0.5" stroke="black" fill="red"/>
  <circle cx="279.475" cy="73.0873" r="6.26814" stroke-width="0.5" stroke="red" fill="red"/>
   </g>
   <g id="cell61">
  <circle cx="833.874" cy="129.531" r="10.4489" stroke-width="0.5" stroke="black" fill="red"/>
  <circle cx="833.874" cy="129.531" r="6.30112" stroke-width="0.5" stroke="red" fill="red"/>
   </g>
   <g id="cell62">
  <circle cx="748.999" cy="811.057" r="8.41271" stroke-width="0.5" stroke="black" fill="red"/>
  <circle cx="748.999" cy="811.057" r="5.05167" stroke-width="0.5" stroke="red" fill="red"/>
   </g>
   <g id="cell63">
  <circle cx="314.43" cy="217.435" r="10.5012" stroke-width="0.5" stroke="black" fill="red"/>
  <circle cx="314.43" cy="217.435" r="6.32534" stroke-width="0.5" stroke="red" fill="red"/>
   </g>
   <g id="cell64">
  <circle cx="572.999" cy="549.318" r="8.41271" stroke-width="0.5" stroke="black" fill="red"/>
  <circle cx="572.999" cy="549.318" r="5.05167" stroke-width="0.5" stroke="red" fill="red"/>
   </g>
   <g id="cell65">
  <circle cx="196.065" cy="839.738" r="10.0169" stroke-width="0.5" stroke="black" fill="red"/>
  <circle cx="196.065" cy="839.738" r="6.07458" stroke-width="0.5" stroke="red" fill="red"/>
   </g>
   <g id="cell66">
  <circle cx="26.0105" cy="154.315" r="10.3325" stroke-width="0.5" stroke="black" fill="red"/>
  <circle cx="26.0105" cy="154.315" r="6.24369" stroke-width="0.5" stroke="red" fill="red"/>
   </g>
   <g id="cell67">
  <circle cx="521.8" cy="264.428" r="10.2999" stroke-width="0.5" stroke="black" fill="red"/>
  <circle cx="521.8" cy="264.428" r="6.22699" stroke-width="0.5" stroke="red" fill="red"/>
   </g>
   <g id="cell68">
  <circle cx="766.315" cy="263.646" r="10.5166" stroke-width="0.5" stroke="black" fill="red"/>
  <circle cx="766.315" cy="263.646" r="6.33218" stroke-width="0.5" stroke="red" fill="red"/>
   </g>
   <g id="cell69">
  <circle cx="443.359" cy="279.461" r="10.3811" stroke-width="0.5" stroke="black" fill="red"/>
  <circle cx="443.359" cy="279.461" r="6.26814" stroke-width="0.5" stroke="red" fill="red"/>
   </g>
   <g id="cell70">
  <circle cx="560.875" cy="389.419" r="10.4208" stroke-width="0.5" stroke="black" fill="red"/>
  <circle cx="560.875" cy="389.419" r="6.28762" stroke-width="0.5" stroke="red" fill="red"/>
   </g>
   <g id="cell71">
  <circle cx="872.447" cy="520.653" r="10.5314" stroke-width="0.5" stroke="black" fill="red"/>
  <circle cx="872.447" cy="520.653" r="6.33867" stroke-width="0.5" stroke="red" fill="red"/>
   </g>
   <g id="cell72">
  <circle cx="227.677" cy="870.773" r="10.4925" stroke-width="0.5" stroke="black" fill="red"/>
  <circle cx="227.677" cy="870.773" r="6.32139" stroke-width="0.5" stroke="red" fill="red"/>
   </g>
   <g id="cell73">
  <circle cx="666.698" cy="455.369" r="10.5189" stroke-width="0.5" stroke="black" fill="red"/>
  <circle cx="666.698" cy="455.369" r="6.3332" stroke-width="0.5" stroke="red" fill="red"/>
   </g>
   <g id="cell74">
  <circle cx="844.494" cy="982.172" r="10.4446" stroke-width="0.5" stroke="black" fill="red"/>
  <circle cx="844.494" cy="982.172" r="6.29905" stroke-width="0.5" stroke="red" fill="red"/>
   </g>
   <g id="cell75">
  <circle cx="93.0632" cy="312.277" r="10.5142" stroke-width="0.5" stroke="black" fill="red"/>
  <circle cx="93.0632" cy="312.277" r="6.33113" stroke-width="0.5" stroke="red" fill="red"/>
   </g>
   <g id="cell76">
  <circle cx="807.485" cy="399.677" r="10.4355" stroke-width="0.5" stroke="black" fill="red"/>
  <circle cx="807.485" cy="399.677" r="6.2947" stroke-width="0.5" stroke="red" fill="red"/>
   </g>
   <g id="cell77">
  <circle cx="638.588" cy="843.729" r="10.4796" stroke-width="0.5" stroke="black" fill="red"/>
  <circle cx="638.588" cy="843.729" r="6.31548" stroke-width="0.5" stroke="red" fill="red"/>
   </g>
   <g id="cell78">
  <circle cx="596.737" cy="270.339" r="10.4573" stroke-width="0.5" stroke="black" fill="red"/>
  <circle cx="596.737" cy="270.339" r="6.30507" stroke-width="0.5" stroke="red" fill="red"/>
   </g>
   <g id="cell79">
  <circle cx="959.507" cy="718.432" r="10.3084" stroke-width="0.5" stroke="black" fill="red"/>
  <circle cx="959.507" cy="718.432" r="6.23137" stroke-width="0.5" stroke="red" fill="red"/>
   </g>
   <g id="cell80">
  <circle cx="741.364" cy="690.37" r="8.57856" stroke-width="0.5" stroke="black" fill="yellow"/>
  <circle cx="741.364" cy="690.37" r="5.17461" stroke-width="0.5" stroke="yellow" fill="yellow"/>
   </g>
   <g id="cell81">
  <circle cx="517.609" cy="974.284" r="8.41271" stroke-width="0.5" stroke="black" fill="yellow"/>
  <circle cx="517.609" cy="974.284" r="5.05167" stroke-width="0.5" stroke="yellow" fill="yellow"/>
   </g>
   <g id="cell82">
  <circle cx="666.404" cy="414.92" r="10.4984" stroke-width="0.5" stroke="black" fill="yellow"/>
  <circle cx="666.404" cy="414.92" r="6.32406" stroke-width="0.5" stroke="yellow" fill="yellow"/>
   </g>
   <g id="cell83">
  <circle cx="594.604" cy="594.24" r="10.4761" stroke-width="0.5" stroke="black" fill="yellow"/>
  <circle cx="594.604" cy="594.24" r="6.31388" stroke-width="0.5" stroke="yellow" fill="yellow"/>
   </g>
   <g id="cell84">
  <circle cx="29.5583" cy="494.822" r="10.3325" stroke-width="0.5" stroke="black" fill="yellow"/>
  <circle cx="29.5583" cy="494.822" r="6.24369" stroke-width="0.5" stroke="yellow" fill="yellow"/>
   </g>
   <g id="cell85">
  <circle cx="729.766" cy="662.207" r="10.5189" stroke-width="0.5" stroke="black" fill="yellow"/>
  <circle cx="729.766" cy="662.207" r="6.3332" stroke-width="0.5" stroke="yellow" fill="yellow"/>
   </g>
   <g id="cell86">
  <circle cx="285.362" cy="423.451" r="10.1374" stroke-width="0.5" stroke="black" fill="yellow"/>
  <circle cx="285.362" cy="423.451" r="6.14084" stroke-width="0.5" stroke="yellow" fill="yellow"/>
   </g>
   <g id="cell87">
  <circle cx="761.118" cy="426.586" r="10.5387" stroke-width="0.5" stroke="black" fill="yellow"/>
  <circle cx="761.118" cy="426.586" r="6.34177" stroke-width="0.5" stroke="yellow" fill="yellow"/>
   </g>
   <g id="cell88">
  <circle cx="142.811" cy="105.936" r="10.4651" stroke-width="0.5" stroke="black" fill="yellow"/>
  <circle cx="142.811" cy="105.936" r="6.30877" stroke-width="0.5" stroke="yellow" fill="yellow"/>
   </g>
   <g id="cell89">
  <circle cx="62.1451" cy="558.734" r="10.2221" stroke-width="0.5" stroke="black" fill="yellow"/>
  <circle cx="62.1451" cy="558.734" r="6.18628" stroke-width="0.5" stroke="yellow" fill="yellow"/>
   </g>
   <g id="cell119">
  <circle cx="557.839" cy="40.2995" r="10.211" stroke-width="0.5" stroke="black" fill="yellow"/>
  <circle cx="557.839" cy="40.2995" r="6.18041" stroke-width="0.5" stroke="yellow" fill="yellow"/>
   </g>
   <g id="cell91">
  <circle cx="43.1444" cy="644.596" r="10.3247" stroke-width="0.5" stroke="black" fill="yellow"/>
  <circle cx="43.1444" cy="644.596" r="6.23971" stroke-width="0.5" stroke="yellow" fill="yellow"/>
   </g>
   <g id="cell92">
  <circle cx="631.133" cy="303.08" r="10.4573" stroke-width="0.5" stroke="black" fill="yellow"/>
  <circle cx="631.133" cy="303.08" r="6.30507" stroke-width="0.5" stroke="yellow" fill="yellow"/>
   </g>
   <g id="cell93">
  <circle cx="238.57" cy="877.297" r="10.5387" stroke-width="0.5" stroke="black" fill="yellow"/>
  <circle cx="238.57" cy="877.297" r="6.34177" stroke-width="0.5" stroke="yellow" fill="yellow"/>
   </g>
   <g id="cell94">
  <circle cx="356.354" cy="79.442" r="10.3991" stroke-width="0.5" stroke="black" fill="yellow"/>
  <circle cx="356.354" cy="79.442" r="6.27703" stroke-width="0.5" stroke="yellow" fill="yellow"/>
   </g>
   <g id="cell95">
  <circle cx="964.885" cy="911.525" r="10.4258" stroke-width="0.5" stroke="black" fill="yellow"/>
  <circle cx="964.885" cy="911.525" r="6.29005" stroke-width="0.5" stroke="yellow" fill="yellow"/>
   </g>
   <g id="cell96">
  <circle cx="787.425" cy="543.121" r="10.4307" stroke-width="0.5" stroke="black" fill="yellow"/>
  <circle cx="787.425" cy="543.121" r="6.29241" stroke-width="0.5" stroke="yellow" fill="yellow"/>
   </g>
   <g id="cell97">
  <circle cx="428.713" cy="115.653" r="10.0654" stroke-width="0.5" stroke="black" fill="yellow"/>
  <circle cx="428.713" cy="115.653" r="6.10145" stroke-width="0.5" stroke="yellow" fill="yellow"/>
   </g>
   <g id="cell98">
  <circle cx="928.691" cy="373.659" r="10.2328" stroke-width="0.5" stroke="black" fill="yellow"/>
  <circle cx="928.691" cy="373.659" r="6.19197" stroke-width="0.5" stroke="yellow" fill="yellow"/>
   </g>
   <g id="cell99">
  <circle cx="494.361" cy="973.447" r="10.2999" stroke-width="0.5" stroke="black" fill="yellow"/>
  <circle cx="494.361" cy="973.447" r="6.22699" stroke-width="0.5" stroke="yellow" fill="yellow"/>
   </g>
  </g>
 </g>
  <rect x="775" y="1035" width="200" height="10" stroke-width="2" stroke="rgb(255,255,255)" fill="rgb(0,0,0)"/>
  <text x="781.25" y="1028.75"
   font-family="Arial" font-size="25" fill="black" >
   200 &#956;m
  </text>
  <text x="25" y="1045"
   font-family="Arial" font-size="18.75" fill="black" >
   0 days, 0 hours, 0 minutes, and 56.3039 seconds
  </text>
  <rect x="0" y="70" width="1000" height="1000" stroke-width="2" stroke="rgb(0,0,0)" fill="none"/>
</svg>
